<svg xmlns="http://www.w3.org/2000/svg" xml:space="preserve" id="Logo_svg__Layer_1" x="0" y="0" viewBox="0 0 671.1 120" width="250"><style>.Logo_svg__st0{fill:#002147}.Logo_svg__st1{fill:#fff}.Logo_svg__st3{fill:url(#Logo_svg__SVGID_00000006684857534239287910000010709506697555852428_)}.Logo_svg__st4{fill:url(#Logo_svg__SVGID_00000183947524499964235230000016933072561329651089_)}.Logo_svg__st5{fill:url(#Logo_svg__SVGID_00000152943768769043719080000003813348665118713732_)}.Logo_svg__st6{fill:url(#Logo_svg__SVGID_00000127028077773909990300000015043789583917677224_)}.Logo_svg__st7{fill:url(#Logo_svg__SVGID_00000139284218313469446580000001436285762021351061_)}.Logo_svg__st8{fill:url(#Logo_svg__SVGID_00000173130745218760431790000008526123181296204423_)}.Logo_svg__st9{fill:url(#Logo_svg__SVGID_00000088838526746420171310000011563463104535408776_)}.Logo_svg__st10{fill:url(#Logo_svg__SVGID_00000042732059887115165310000017452794178726590138_)}.Logo_svg__st11{fill:url(#Logo_svg__SVGID_00000160911006279037813020000012111712224042809740_)}.Logo_svg__st12{fill:url(#Logo_svg__SVGID_00000045577047521909868040000013161941024182315913_)}.Logo_svg__st13{fill:url(#Logo_svg__SVGID_00000048477357884142687460000009035049102797149826_)}.Logo_svg__st14{fill:url(#Logo_svg__SVGID_00000057854415560227074280000004390229057452288433_)}.Logo_svg__st15{fill:url(#Logo_svg__SVGID_00000070805928210419026770000001679836701929735816_)}.Logo_svg__st16{fill:url(#Logo_svg__SVGID_00000168107289215375725900000018291494496650276029_)}.Logo_svg__st17{fill:url(#Logo_svg__SVGID_00000090256020876333718040000016812762012038807434_)}.Logo_svg__st18{fill:url(#Logo_svg__SVGID_00000031922869991967678100000008832731996856293267_)}.Logo_svg__st19{fill:url(#Logo_svg__SVGID_00000103241304003446849720000010627673105023760273_)}.Logo_svg__st20{fill:url(#Logo_svg__SVGID_00000165196438844090719370000003624291321441644955_)}.Logo_svg__st21{fill:url(#Logo_svg__SVGID_00000177469032504920233340000006820213751132900755_)}.Logo_svg__st22{fill:url(#Logo_svg__SVGID_00000097479460911971905190000015686984117172736900_)}.Logo_svg__st23{fill:url(#Logo_svg__SVGID_00000016058138331599164140000003640143182542858680_)}.Logo_svg__st24{fill:url(#Logo_svg__SVGID_00000047045006877065170790000004806474896646840712_)}.Logo_svg__st25{fill:url(#Logo_svg__SVGID_00000114796600437700706630000000693859313364832652_)}.Logo_svg__st26{fill:url(#Logo_svg__SVGID_00000132070792240643111800000000799179270633226663_)}.Logo_svg__st27{fill:url(#Logo_svg__SVGID_00000119796270696639262640000017012924014790938802_)}.Logo_svg__st28{fill:url(#Logo_svg__SVGID_00000128487690919153148530000013381079173431374212_)}.Logo_svg__st29{fill:url(#Logo_svg__SVGID_00000163772784869337571130000009140484689621596325_)}.Logo_svg__st30{fill:url(#Logo_svg__SVGID_00000127003499873137262600000007220788539515390371_)}.Logo_svg__st31{fill:url(#Logo_svg__SVGID_00000012438979961309499550000005251611838469563827_)}.Logo_svg__st32{fill:url(#Logo_svg__SVGID_00000054986298159041818900000007145913716968449195_)}.Logo_svg__st33{fill:url(#Logo_svg__SVGID_00000165950705492961487660000000511329278881895614_)}.Logo_svg__st34{fill:url(#Logo_svg__SVGID_00000150085449231993643970000000888022066182872499_)}.Logo_svg__st35{fill:url(#Logo_svg__SVGID_00000000943156434790930110000002869333723429100184_)}.Logo_svg__st36{fill:url(#Logo_svg__SVGID_00000032614119294523866940000000893798109807239053_)}.Logo_svg__st37{fill:url(#Logo_svg__SVGID_00000152975234503763462200000014719746923091505564_)}.Logo_svg__st38{fill:url(#Logo_svg__SVGID_00000018214678380205093330000009325871052311416719_)}.Logo_svg__st39{fill:url(#Logo_svg__SVGID_00000043448647173342094530000000671235257614316475_)}.Logo_svg__st40{fill:url(#Logo_svg__SVGID_00000037653679117580644800000003751989780999420601_)}.Logo_svg__st41{fill:url(#Logo_svg__SVGID_00000109710552199905111400000001630003433786084789_)}.Logo_svg__st42{fill:url(#Logo_svg__SVGID_00000103249019132566728600000006627678171659300493_)}.Logo_svg__st43{fill:url(#Logo_svg__SVGID_00000076604670574464672360000008045066964197916545_)}.Logo_svg__st44{fill:url(#Logo_svg__SVGID_00000083772541502867599120000016334250899662215072_)}.Logo_svg__st45{fill:url(#Logo_svg__SVGID_00000160158722534304436590000012666796865811440050_)}.Logo_svg__st46{fill:url(#Logo_svg__SVGID_00000163789464617299496170000003843446813763684530_)}.Logo_svg__st47{fill:url(#Logo_svg__SVGID_00000031926615925594908780000010976531170846492054_)}.Logo_svg__st48{fill:url(#Logo_svg__SVGID_00000158719636302105295550000000772053441042062754_)}.Logo_svg__st49{fill:url(#Logo_svg__SVGID_00000001642017172444450550000015519043560537986735_)}.Logo_svg__st50{fill:url(#Logo_svg__SVGID_00000163781782109653852180000001687349090913396902_)}.Logo_svg__st51{fill:url(#Logo_svg__SVGID_00000091704235502193426790000004376332800342463872_)}.Logo_svg__st52{fill:url(#Logo_svg__SVGID_00000119115891212635359350000005313202129050701465_)}.Logo_svg__st53{fill:url(#Logo_svg__SVGID_00000045604031841901643670000012179734308738591400_)}.Logo_svg__st54{fill:url(#Logo_svg__SVGID_00000162343336742823549180000004360172827898590131_)}.Logo_svg__st55{fill:url(#Logo_svg__SVGID_00000000214183365797427800000001081420867913669808_)}.Logo_svg__st56{fill:url(#Logo_svg__SVGID_00000005964409635711759230000016611430747886852025_)}.Logo_svg__st57{fill:url(#Logo_svg__SVGID_00000029030876718121961050000014404542680308504199_)}.Logo_svg__st58{fill:url(#Logo_svg__SVGID_00000026149336857678532350000000347857828652348548_)}.Logo_svg__st59{fill:#01356f}.Logo_svg__st60,.Logo_svg__st61,.Logo_svg__st62,.Logo_svg__st63{fill:none;stroke:#5ba2c6;stroke-miterlimit:10}.Logo_svg__st60{stroke-width:1.1033;stroke-dasharray:5.5166}.Logo_svg__st61,.Logo_svg__st62,.Logo_svg__st63{stroke-width:.7083}.Logo_svg__st62,.Logo_svg__st63{stroke-width:.9921}.Logo_svg__st63{stroke-width:.708}.Logo_svg__st63,.Logo_svg__st64{stroke-linecap:round;stroke-linejoin:round}.Logo_svg__st64,.Logo_svg__st65,.Logo_svg__st66{fill:none;stroke:#5ba2c6;stroke-miterlimit:10}.Logo_svg__st66{stroke-width:.75;stroke-linecap:round;stroke-linejoin:round}</style><linearGradient id="Logo_svg__SVGID_1_" x1="175.82" x2="175.82" y1="116.228" y2="-49.761" gradientUnits="userSpaceOnUse"><stop offset="0" style="stop-color: rgb(3, 76, 181);"></stop><stop offset="1" style="stop-color: rgb(6, 176, 239);"></stop></linearGradient><path d="M175.3 45.6c-2.9 8.5-5.7 16.9-8.6 25.4h-5.3c-.7-1.9-1.4-3.7-2-5.6-2.7-7.4-5.4-14.8-7.9-22.2-1.1-3.3-3-5.3-6.6-5.7v-1.7c1.1-.3 17.2-.5 19.5-.1 0 .3.1.6.1.9 0 .3 0 .5-.1.8-.9.2-1.9.3-2.8.5-1.8.4-2 .8-1.5 2.5l3.3 9.6c1.1 3 2.1 6.1 3.2 9.1.2.5.4 1 .7 1.7 2.8-8.6 5.6-16.9 8.3-25.2h5.6c3.2 8.5 6.3 17.1 9.6 25.9.3-.5.4-.7.5-.9 2-6.1 3.9-12.3 5.9-18.4.1-.4.2-.9.3-1.4.3-1.6 0-2.1-1.5-2.5-1.3-.4-2.6-.5-4-.8v-1.6c1.2-.3 13-.4 14.8-.1v1.7c-.4.1-.8.3-1.3.4-2.2.6-3.7 1.9-4.5 4.1-1.8 5.2-3.8 10.4-5.7 15.6-1.6 4.4-3.2 8.9-4.9 13.4H185c-3.2-8.5-6.3-16.9-9.5-25.4h-.2z" style="fill: url(&quot;#Logo_svg__SVGID_1_&quot;);"></path><linearGradient id="Logo_svg__SVGID_00000000187388148410809880000007751492335510165385_" x1="273.432" x2="273.432" y1="116.228" y2="-49.761" gradientUnits="userSpaceOnUse"><stop offset="0" style="stop-color: rgb(3, 76, 181);"></stop><stop offset="1" style="stop-color: rgb(6, 176, 239);"></stop></linearGradient><path d="M277.2 53.9c1.5 2.1 2.9 3.9 4.2 5.8 1.5 2.1 3.1 4.2 4.5 6.4 1 1.5 2.2 2.4 4 2.6.3 0 .5.1.8.2v1.6c-.4.1-.7.1-1 .1h-10c-.8 0-1.3-.3-1.8-1-2-3-4-6-6.1-8.9l-.9-1.2c-1.2.5-1.7 1.2-1.6 2.4.1 1.3 0 2.6 0 3.9.1 1.7.5 2.2 2.1 2.6.5.1.9.2 1.4.3v1.5c-1.1.3-13.8.4-15.9.1 0-.2-.1-.4-.1-.6v-1.1c.7-.1 1.4-.2 2-.4 1.3-.3 1.8-.8 1.9-2.1V38.2c-.2-1.8-1-2.9-2.8-3.3-.6-.1-1.1-.2-1.8-.3v-1.8c4.3-.2 8.6-.4 13.1-.6.2 2.3.1 4.4.1 6.5v19.2c.5-.3.8-.5 1.1-.7 2.3-2 4.6-4.1 6.9-6.2l.1-.1c.5-.6 1.3-1.1 1.1-2-.2-.8-1.1-.8-1.9-.9-.4-.1-.8-.2-1.3-.3v-1.6h13.1c0 .5.1 1 .1 1.4-2.1.9-4.1 1.6-5.9 2.6-1.8 1.1-3.5 2.5-5.4 3.8z" style="fill: url(&quot;#Logo_svg__SVGID_00000000187388148410809880000007751492335510165385_&quot;);"></path><linearGradient id="Logo_svg__SVGID_00000128466943408860216090000003246829041305853592_" x1="603.732" x2="603.732" y1="116.228" y2="-49.761" gradientUnits="userSpaceOnUse"><stop offset="0" style="stop-color: rgb(3, 76, 181);"></stop><stop offset="1" style="stop-color: rgb(6, 176, 239);"></stop></linearGradient><path d="M599.2 45.9v3.9c.8-.6 1.3-1 1.8-1.5 2.9-2.5 6.3-3.3 10.1-2.7 3.5.6 5.8 3.1 6.1 6.7.1 1.7.1 3.4.1 5.2v7.8c0 2.3.3 2.7 2.5 3.3.4.1.7.2 1.1.3v1.7h-15.4c-.1-.3-.1-.5-.1-.8v-.9l1.5-.3c1.2-.3 1.6-.7 1.7-1.9V54.8c0-.9-.1-1.9-.4-2.8-.4-1.6-1.6-2.5-3.2-2.5-2.3-.1-4.2.9-5.6 2.7-.3.4-.4 1-.4 1.5v11.7c0 2.2.4 2.6 2.6 3.3.2.1.4.1.7.2v1.7h-15.6c0-.5-.1-1-.1-1.6.6-.1 1.1-.3 1.6-.3 1.9-.3 2.3-.8 2.3-2.7V52.1c-.1-1.8-1-2.9-2.7-3.4-.5-.1-1-.2-1.5-.4 0-.4-.1-.7-.1-1 0-.2.1-.4.1-.8 4.4-.2 8.5-.4 12.9-.6z" style="fill: url(&quot;#Logo_svg__SVGID_00000128466943408860216090000003246829041305853592_&quot;);"></path><linearGradient id="Logo_svg__SVGID_00000048501869643818690090000002496298987721907881_" x1="345.345" x2="345.345" y1="116.228" y2="-49.761" gradientUnits="userSpaceOnUse"><stop offset="0" style="stop-color: rgb(3, 76, 181);"></stop><stop offset="1" style="stop-color: rgb(6, 176, 239);"></stop></linearGradient><path d="M328.1 48.2v-1.7c4.2-.2 8.4-.4 12.7-.6.1 1.3.1 2.4.2 3.8.7-.6 1.2-1 1.7-1.4 3-2.6 6.4-3.3 10.2-2.6 3.1.6 5.2 2.7 5.8 5.8.2.9.3 1.9.3 2.8v10.9c0 2.4.3 2.8 2.7 3.4.3.1.6.2 1 .3v1.5c-1.1.3-13.8.4-15.5.1v-1.6c.5-.1.9-.2 1.4-.3 1.3-.3 1.6-.7 1.7-2V54.3c0-.6-.1-1.3-.2-1.8-.6-2.1-2.1-3.2-4.2-2.8-1.1.2-2.2.7-3.2 1.2-1.3.7-2 1.8-1.9 3.4.1 3.6 0 7.3 0 10.9 0 2.5.2 2.7 2.6 3.5l.6.3v1.6h-15.7V69c.6-.1 1.1-.2 1.7-.3 1.6-.3 2.1-.8 2.1-2.4V52.6c0-2.4-.8-3.4-3.2-3.9-.2-.3-.5-.4-.8-.5z" style="fill: url(&quot;#Logo_svg__SVGID_00000048501869643818690090000002496298987721907881_&quot;);"></path><linearGradient id="Logo_svg__SVGID_00000161620394487301351980000005487957803378437761_" x1="461.49" x2="461.49" y1="116.228" y2="-49.761" gradientUnits="userSpaceOnUse"><stop offset="0" style="stop-color: rgb(3, 76, 181);"></stop><stop offset="1" style="stop-color: rgb(6, 176, 239);"></stop></linearGradient><path d="M457.2 49.5c.5-.4 1-.8 1.5-1.3 2.9-2.5 6.3-3.2 10.1-2.6 3.3.6 5.5 2.8 6 6.1.1.9.2 1.8.2 2.6v10.6c0 2.6.2 2.9 2.7 3.5l.9.3c0 .3.1.6.1.9 0 .2-.1.4-.1.7h-15.4c0-.5-.1-1-.1-1.6.6-.1 1.1-.2 1.6-.3 1.1-.2 1.5-.7 1.6-1.8.1-.7.1-1.5.1-2.2v-9.7c0-.9-.1-1.9-.3-2.8-.5-1.7-1.7-2.6-3.4-2.6-2.2 0-3.9.9-5.3 2.6-.3.3-.4.9-.4 1.3v12.5c0 1.6.5 2.1 2 2.6.4.1.8.2 1.2.4 0 .3.1.5.1.8 0 .3 0 .5-.1 1-5.2.1-10.4 0-15.6.1-.1-.4-.1-.5-.1-.7v-1c.7-.1 1.4-.2 2-.4 1.2-.3 1.7-.8 1.8-2 .1-1.6.1-3.2.1-4.8v-8.8c0-2.9-.7-3.8-3.5-4.5-.2 0-.4-.1-.6-.2v-1.6c.3-.1.5-.2.7-.2 3.6-.2 7.2-.4 10.8-.5 1.1 0 1.2.1 1.2 1.3v2.2s.1.1.2.1z" style="fill: url(&quot;#Logo_svg__SVGID_00000161620394487301351980000005487957803378437761_&quot;);"></path><linearGradient id="Logo_svg__SVGID_00000000917039763457244980000005643776802989683332_" x1="222.485" x2="222.485" y1="116.228" y2="-49.761" gradientUnits="userSpaceOnUse"><stop offset="0" style="stop-color: rgb(3, 76, 181);"></stop><stop offset="1" style="stop-color: rgb(6, 176, 239);"></stop></linearGradient><path d="M224.1 55.1v-3.6c-.1-1.5-.5-3-2-3.7-1.6-.8-3.2-.5-4.8.6.2.8.4 1.5.6 2.3.5 2.1-.6 3.8-2.7 4.1-1 .1-2.1.1-3.1 0-1.5-.2-2.5-1-2.9-2.5-.4-1.4 0-2.6 1.1-3.5 1.7-1.5 3.7-2.3 5.9-2.8 3.5-.8 7-.8 10.5 0 4.1.9 5.9 3.2 6.1 7.4.1 1.9-.1 3.7-.1 5.6 0 2.1-.1 4.2-.1 6.2 0 2.2.8 3 3 3.1.4 0 .8 0 1.3.1.1.3.2.6.2.9v.9c-.6.2-1.3.5-2 .7-1.9.6-3.8.7-5.7.5-2.3-.2-4.1-1-5.1-3.4-.3.2-.6.4-.8.6-2.8 2.4-6 3.1-9.6 2.8-3.1-.3-5.5-2.5-5.9-5.2-.5-3 .9-5.8 3.8-7 2.3-1 4.8-1.7 7.2-2.5 1.6-.6 3.4-1.1 5.1-1.6zm0 2.1c-1.7.8-3.2 1.4-4.6 2.1-1.8 1-2.6 2.6-2.6 4.7 0 1.9.8 3 2.3 3.5 1.6.5 3.9-.4 4.7-1.7.1-.2.2-.4.2-.6v-8z" style="fill: url(&quot;#Logo_svg__SVGID_00000000917039763457244980000005643776802989683332_&quot;);"></path><linearGradient id="Logo_svg__SVGID_00000108289946051187540370000004638812970341553541_" x1="496.295" x2="496.295" y1="116.228" y2="-49.761" gradientUnits="userSpaceOnUse"><stop offset="0" style="stop-color: rgb(3, 76, 181);"></stop><stop offset="1" style="stop-color: rgb(6, 176, 239);"></stop></linearGradient><path d="M510.8 68.3c.2 1.9.2 1.9-1.3 2.4-2 .7-4.1.8-6.2.7-2.3-.2-4.2-1-5.2-3.4-.5.4-.9.8-1.4 1.1-3 2.3-6.4 2.9-10.1 2.1-2.9-.7-4.7-2.7-4.9-5.2-.3-2.9.9-5.5 3.6-6.7 2.4-1 4.9-1.7 7.4-2.6 1.7-.6 3.5-1.1 5.2-1.6 0-1.5.1-2.9 0-4.2-.3-2.7-2.1-3.9-4.8-3.3-.6.1-1.2.4-2 .7.2.9.5 1.7.7 2.5.4 2-.6 3.7-2.7 4-1 .2-2.1.1-3.1 0-1.4-.2-2.4-.9-2.9-2.3s-.1-2.7 1-3.7c1.1-1.1 2.5-1.7 3.9-2.2 4.2-1.4 8.5-1.5 12.8-.5 3.7.8 5.4 2.9 5.7 6.7.1 1.6 0 3.2 0 4.8 0 2.5-.1 5-.1 7.5 0 2.4.7 3.1 3.2 3.2h1.2zm-12.9-11.1c-1.8.8-3.3 1.4-4.7 2.2-2.4 1.4-2.7 3.7-2.3 5.8.2 1.1.9 1.8 2 2.2 1.6.5 3.8-.2 4.8-1.5.1-.2.3-.5.3-.7-.1-2.6-.1-5.1-.1-8z" style="fill: url(&quot;#Logo_svg__SVGID_00000108289946051187540370000004638812970341553541_&quot;);"></path><linearGradient id="Logo_svg__SVGID_00000061456339763904907430000015105307690874284162_" x1="638.638" x2="638.638" y1="116.228" y2="-49.761" gradientUnits="userSpaceOnUse"><stop offset="0" style="stop-color: rgb(3, 76, 181);"></stop><stop offset="1" style="stop-color: rgb(6, 176, 239);"></stop></linearGradient><path d="M653.2 68.4v1.8c-3.1 1.3-6.2 1.6-9.5.8-1.6-.4-2.6-1.5-3.3-3-.4.3-.6.4-.8.6-2.8 2.4-6 3.1-9.6 2.8-.6-.1-1.1-.2-1.7-.4-2.3-.9-4-2.3-4.2-4.9-.3-2.8.6-5.1 3.1-6.5 1.2-.7 2.4-1.2 3.7-1.6 2.4-.8 4.9-1.4 7.3-2.2.7-.2 1.4-.5 2.2-.8-.1-1.4 0-2.7-.2-4.1-.4-2.7-2-3.9-4.7-3.3-.6.1-1.2.4-2 .7.2.7.4 1.3.6 1.9.8 2.7-.5 4.5-3.3 4.7-.8 0-1.6 0-2.3-.1-1.4-.2-2.5-.9-2.9-2.3-.4-1.4-.1-2.7 1-3.7 1.2-1.1 2.6-1.8 4.1-2.3 4.2-1.4 8.4-1.4 12.6-.5 3.9.9 5.7 3.3 5.8 7.3 0 3.7-.1 7.4-.1 11.1v.5c-.1 2.6.9 3.5 3.3 3.4.1 0 .5 0 .9.1zm-12.9-11.1c-1.1.4-2.1.8-3 1.2-.7.3-1.3.6-1.9 1-2.3 1.5-2.5 3.9-2 5.9.2 1 .9 1.6 1.9 1.9 1.6.5 3 .1 4.2-.9.5-.4.8-.9.8-1.6v-7.5z" style="fill: url(&quot;#Logo_svg__SVGID_00000061456339763904907430000015105307690874284162_&quot;);"></path><linearGradient id="Logo_svg__SVGID_00000075855793477730238910000000654467553206173596_" x1="568.352" x2="568.352" y1="116.228" y2="-49.761" gradientUnits="userSpaceOnUse"><stop offset="0" style="stop-color: rgb(3, 76, 181);"></stop><stop offset="1" style="stop-color: rgb(6, 176, 239);"></stop></linearGradient><path d="M568.2 71.4c-2.8 0-5.4-.4-7.8-1.6-4.9-2.4-7.2-6.4-7.1-11.8.1-6.1 4-10.1 8.8-11.6 4.5-1.4 8.9-1.4 13.3.3 5 1.9 7.8 5.5 8 10.9.3 5.6-2 9.8-7.1 12.3-2.6 1.2-5.4 1.6-8.1 1.5zm5.8-12.6c-.1-1.8-.1-3.3-.4-4.7-.3-1.4-.6-2.9-1.2-4.2-1.5-3.2-6.4-3.3-8-.2-.6 1.1-1.1 2.4-1.2 3.7-.2 2.7-.3 5.4-.3 8.1 0 1.8.4 3.6 1.3 5.3.9 1.7 2.3 2.7 4.3 2.6 1.9 0 3.3-.9 4.1-2.6.4-.8.8-1.7.9-2.6.2-1.9.4-3.9.5-5.4z" style="fill: url(&quot;#Logo_svg__SVGID_00000075855793477730238910000000654467553206173596_&quot;);"></path><linearGradient id="Logo_svg__SVGID_00000020379342069461764860000002676228467456620419_" x1="314.938" x2="314.938" y1="116.228" y2="-49.761" gradientUnits="userSpaceOnUse"><stop offset="0" style="stop-color: rgb(3, 76, 181);"></stop><stop offset="1" style="stop-color: rgb(6, 176, 239);"></stop></linearGradient><path d="M304.8 37.5v-1.8h20.3v1.8c-.9.1-1.8.3-2.7.4-2.2.4-2.8 1-2.8 3.2v24c0 1.9.6 2.7 2.4 3.1 1 .2 2 .4 3.1.6v1.8h-20.3c0-.6-.1-1.1-.1-1.8.5-.1 1-.1 1.4-.2.7-.1 1.4-.1 2-.2 1.5-.3 2-.9 2.2-2.4V42.3c0-3.1-.5-3.6-3.5-4.3-.6-.2-1.3-.3-2-.5z" style="fill: url(&quot;#Logo_svg__SVGID_00000020379342069461764860000002676228467456620419_&quot;);"></path><linearGradient id="Logo_svg__SVGID_00000067234760515648962630000010290626344660863368_" x1="400.423" x2="400.423" y1="116.228" y2="-49.761" gradientUnits="userSpaceOnUse"><stop offset="0" style="stop-color: rgb(3, 76, 181);"></stop><stop offset="1" style="stop-color: rgb(6, 176, 239);"></stop></linearGradient><path d="M413.5 57.6H396c0 2.8.3 5.4 2.1 7.6 1.9 2.4 4.5 2.8 7.3 2.6 2.1-.2 3.8-1.2 5.2-2.6.6-.5 1.1-1.1 1.7-1.8.6.4 1.2.8 1.9 1.3-.3.4-.5.8-.8 1.2-2.8 3.5-6.5 5.3-11 5.5-2.8.1-5.5-.1-8.1-1.2-4.9-2-7.4-5.7-7.7-10.8-.3-5.2 1.7-9.2 6.2-11.9 3.3-2 7-2.4 10.7-1.9 1.5.2 3 .6 4.3 1.2 3.5 1.5 5.3 4.4 5.6 8.2.2.7.1 1.6.1 2.6zm-9.2-2.2c-.1-1.9-.1-3.6-.6-5.3-.4-1.3-1.1-2.3-2.7-2.5-1.6-.2-2.9.4-3.7 1.8-1.1 1.8-1.3 3.9-1.3 6h8.3z" style="fill: url(&quot;#Logo_svg__SVGID_00000067234760515648962630000010290626344660863368_&quot;);"></path><linearGradient id="Logo_svg__SVGID_00000113322155084468419690000003231060802983506858_" x1="662.466" x2="662.466" y1="116.228" y2="-49.761" gradientUnits="userSpaceOnUse"><stop offset="0" style="stop-color: rgb(3, 76, 181);"></stop><stop offset="1" style="stop-color: rgb(6, 176, 239);"></stop></linearGradient><path d="M671.1 68.9v1.6h-16.2c0-.5-.1-1-.1-1.6.7-.1 1.4-.2 2-.4 1.3-.3 1.7-.8 1.8-2.1V38.8c-.1-1.8-.8-2.8-2.5-3.3-.7-.2-1.5-.4-2.3-.6v-1.7c4.5-.2 8.8-.4 13.4-.6V65.9c.1 1.5.5 2.1 1.9 2.6.7.1 1.3.2 2 .4z" style="fill: url(&quot;#Logo_svg__SVGID_00000113322155084468419690000003231060802983506858_&quot;);"></path><linearGradient id="Logo_svg__SVGID_00000121973969109799044610000012931794472489481633_" x1="246.291" x2="246.291" y1="116.228" y2="-49.761" gradientUnits="userSpaceOnUse"><stop offset="0" style="stop-color: rgb(3, 76, 181);"></stop><stop offset="1" style="stop-color: rgb(6, 176, 239);"></stop></linearGradient><path d="M237.7 34.8v-1.7c4.4-.2 8.8-.4 13.3-.6 0 .8.1 1.4.1 2V66c.1 1.1.6 1.9 1.6 2.2.7.2 1.4.4 2.2.7v1.6h-16.3c0-.5-.1-1-.1-1.6.7-.1 1.4-.2 2-.4 1.3-.3 1.8-.8 1.9-2.1V38.5c-.2-1.5-1-2.6-2.5-3.1-.7-.2-1.4-.4-2.2-.6z" style="fill: url(&quot;#Logo_svg__SVGID_00000121973969109799044610000012931794472489481633_&quot;);"></path><linearGradient id="Logo_svg__SVGID_00000106105961400368109440000017007040466031902110_" x1="429.538" x2="429.538" y1="116.228" y2="-49.761" gradientUnits="userSpaceOnUse"><stop offset="0" style="stop-color: rgb(3, 76, 181);"></stop><stop offset="1" style="stop-color: rgb(6, 176, 239);"></stop></linearGradient><path d="M433.9 49.7c-1.8.2-3.1 1-4.1 2.1-.3.3-.5.9-.5 1.4v12.6c0 1.6.6 2.3 2.1 2.6.9.2 1.7.3 2.7.5v1.7h-17.2c0-.5-.1-1-.1-1.7.7-.1 1.3-.2 1.9-.3 1.3-.3 1.8-.8 2-2.2V53.1c0-3.1-.6-3.9-3.7-4.7-.2 0-.4-.1-.6-.2v-1.5c1.7-.4 11.5-.8 12.8-.5v3.6c.7-.6 1.1-1 1.5-1.3 2.2-1.9 4.6-3.1 7.5-2.8 4.5.5 5.4 5.2 3.7 7.7-1.5 2.4-5.4 2.8-7.4.7-.7-.7-.9-1.5-.8-2.4 0-.6.1-1.3.2-2z" style="fill: url(&quot;#Logo_svg__SVGID_00000106105961400368109440000017007040466031902110_&quot;);"></path><linearGradient id="Logo_svg__SVGID_00000005268772121652238170000017166024128884296855_" x1="374.104" x2="374.104" y1="116.228" y2="-49.761" gradientUnits="userSpaceOnUse"><stop offset="0" style="stop-color: rgb(3, 76, 181);"></stop><stop offset="1" style="stop-color: rgb(6, 176, 239);"></stop></linearGradient><path d="M384.4 67.6c0 .5 0 .9.1 1.2 0 .5-.2.8-.7 1-3.3 1.3-6.6 1.9-10.1 1.3-3.1-.6-5-2.6-5.3-5.7-.1-.8-.1-1.6-.1-2.3V49h-4.5v-2.6h4.6v-7.5c2.9-.1 5.6 0 8.5 0v7.4h7.2v2.6h-7c-.1.6-.1 1-.1 1.4v12.5c0 .8.1 1.7.3 2.5.4 1.6 1.2 2.3 2.8 2.4.7.1 1.5 0 2.2 0 .6-.1 1.3-.1 2.1-.1z" style="fill: url(&quot;#Logo_svg__SVGID_00000005268772121652238170000017166024128884296855_&quot;);"></path><linearGradient id="Logo_svg__SVGID_00000041999889510103760140000004960482150970861451_" x1="521.869" x2="521.869" y1="116.228" y2="-49.761" gradientUnits="userSpaceOnUse"><stop offset="0" style="stop-color: rgb(3, 76, 181);"></stop><stop offset="1" style="stop-color: rgb(6, 176, 239);"></stop></linearGradient><path d="M516.1 49h-4.5v-2.6h4.5c.2-2.6 0-5 .2-7.5h8.3v7.3c2.5.2 4.8 0 7.2.1v2.6h-7c-.1.5-.1.9-.1 1.3v12.3c0 .8.1 1.7.3 2.5.3 1.7 1.3 2.5 3 2.6 1.3.1 2.7 0 4.2 0v1.8c-3.7 1.7-7.5 2.4-11.6 1.3-2.7-.7-4.1-2.7-4.4-5.4-.1-.7-.1-1.5-.1-2.2V49z" style="fill: url(&quot;#Logo_svg__SVGID_00000041999889510103760140000004960482150970861451_&quot;);"></path><linearGradient id="Logo_svg__SVGID_00000019652536432597868450000015773103408141949092_" x1="541.987" x2="541.987" y1="116.228" y2="-49.761" gradientUnits="userSpaceOnUse"><stop offset="0" style="stop-color: rgb(3, 76, 181);"></stop><stop offset="1" style="stop-color: rgb(6, 176, 239);"></stop></linearGradient><path d="M534.1 70.5V69c.6-.1 1.2-.2 1.7-.3 1.6-.3 2.2-.9 2.2-2.5v-14c0-1.6-.7-2.6-2.3-3.2-.7-.3-1.5-.4-2.2-.7v-1.5c1.7-.4 11.8-.8 13.1-.5v18.5c0 2.8.3 3.3 3.1 4 .3.1.5.2.8.3v1.5c-1.1.1-14.7.2-16.4-.1z" style="fill: url(&quot;#Logo_svg__SVGID_00000019652536432597868450000015773103408141949092_&quot;);"></path><linearGradient id="Logo_svg__SVGID_00000149346030375753557840000007738202541813095870_" x1="212.33" x2="212.33" y1="116.228" y2="-49.761" gradientUnits="userSpaceOnUse"><stop offset="0" style="stop-color: rgb(3, 76, 181);"></stop><stop offset="1" style="stop-color: rgb(6, 176, 239);"></stop></linearGradient><path d="M212.2 87.3c2.9 0 5.3.8 7.4 2.6 3.6 3 3.8 8.3.5 11.7-3.7 3.8-10.3 4.2-14.5 1-4.5-3.4-4.4-9.9.1-13.3 2-1.4 4.2-2 6.5-2zm3.4 9.1c-.1-1.7-.2-3.2-.3-4.5-.1-.8-.3-1.5-.6-2.3-.4-1.1-1.2-1.7-2.3-1.8-1.2 0-2 .6-2.4 1.6-.2.5-.4 1.1-.5 1.6-.5 2.9-.4 5.8-.2 8.7.1.9.4 1.7.6 2.6.3 1.1 1 1.8 2.2 1.9 1.1.1 2.1-.5 2.6-1.6.2-.4.4-.9.4-1.3.2-1.8.4-3.5.5-4.9z" style="fill: url(&quot;#Logo_svg__SVGID_00000149346030375753557840000007738202541813095870_&quot;);"></path><linearGradient id="Logo_svg__SVGID_00000060752750078145420570000011875914215555808642_" x1="329.561" x2="329.561" y1="116.228" y2="-49.761" gradientUnits="userSpaceOnUse"><stop offset="0" style="stop-color: rgb(3, 76, 181);"></stop><stop offset="1" style="stop-color: rgb(6, 176, 239);"></stop></linearGradient><path d="M328.9 96.2v7.6h3.8c1 0 1.9-.5 2.4-1.2 1.1-1.4 2.1-2.9 3.2-4.4.2-.3.4-.7.6-1.1.1.3.3.4.3.5v6.7c-1.5.4-18 .4-19.4-.1.6-.1 1-.2 1.4-.2.9 0 1.3-.6 1.4-1.4V90.1c0-1.5-.4-1.8-1.8-2-.3 0-.6-.1-.9-.3h18.6v6.9c-.4-.5-.6-.8-.8-1.1-.6-.9-1.2-1.7-1.8-2.6-1.7-2.3-4-3.2-7.1-2.8-.3 2.4 0 4.8-.1 7.2 2.4.4 3.1-.2 4-3.4.4.8.6 5.9 0 8-.1-.5-.3-1.1-.4-1.6-.5-1.8-1.5-2.4-3.4-2.2z" style="fill: url(&quot;#Logo_svg__SVGID_00000060752750078145420570000011875914215555808642_&quot;);"></path><linearGradient id="Logo_svg__SVGID_00000107556160374034927250000007872983073649824651_" x1="531.779" x2="531.779" y1="116.228" y2="-49.761" gradientUnits="userSpaceOnUse"><stop offset="0" style="stop-color: rgb(3, 76, 181);"></stop><stop offset="1" style="stop-color: rgb(6, 176, 239);"></stop></linearGradient><path d="M530.2 93.6v9c0 1.1.2 1.2 1.3 1.3.2 0 .4.1.6.1 1.3 0 1.6-.2 1.6-1.5 0-4.3 0-8.6.1-13 0-1.2-.6-1.6-1.6-1.8h6.5V102.3c0 1.4 0 1.4 1.3 1.9-.9.4-9.3.6-14.2.3-.5-.7-.5-1.5-.4-2.4.1-2 .1-4 0-5.9 0-1.8-.1-1.8-1.7-2.5 2-.1 4.2-.1 6.5-.1z" style="fill: url(&quot;#Logo_svg__SVGID_00000107556160374034927250000007872983073649824651_&quot;);"></path><linearGradient id="Logo_svg__SVGID_00000029740706757896572190000009643172595105896323_" x1="53.027" x2="53.027" y1="124.716" y2="-5.208" gradientUnits="userSpaceOnUse"><stop offset="0" style="stop-color: rgb(3, 76, 181);"></stop><stop offset="1" style="stop-color: rgb(6, 176, 239);"></stop></linearGradient><path d="M106.1 26.9c0-.6 0-1.1-.1-1.6-2.7-.3-23.1 0-24.3.4V99c0 1.6-.3 3.1-1.2 4.5-2.5 4-7 5-10.8 3.1-3-1.5-4.7-4-4.7-7.7 0-20.1-.1-40.2-.2-60.3 0-.7-.1-1.3-.1-2h-24v2.2c.2 20 .2 40.2.3 60.4 0 2.5-.9 4.6-2.6 6.3-.6.6-1.5 1.2-2.4 1.4-2.2.6-4.4.5-6.5-.1-.9-.2-1.8-.7-2.4-1.3-1.7-1.7-2.8-3.7-2.7-6.3.1-4.4.1-8.8.1-13.1.1-15.9.1-31.9.2-47.8 0-.6 0-1.2-.1-1.9-8.3 0-16.4 0-24.6.1v2.1c0 19.1.1 38.1.1 57.2 0 1.7.4 3.3 1 4.8.2.4.3.9.5 1.3 2.3 5.3 5.5 9.8 10.6 12.7 1.8 1 3.7 1.8 5.7 2.6 3.7 1.5 7.5 2.8 11.6 2.8 2.3 0 4.7-.1 7-.1 4.9-.1 9.5-1.5 13.8-4 .8-.5 1.7-1 2.5-1.5 1 .6 1.8 1.2 2.7 1.8.6.4 1.2.8 1.9 1 3 .8 5.9 1.8 8.9 2.3 4.3.7 8.6.4 13 .2.8 0 1.6-.2 2.3-.3 4.3-.8 8.4-2.6 12.2-4.8 4.1-2.4 7.4-5.9 9.4-10.2 1.7-3.6 2.7-7.4 2.5-11.5-.1-2.4 0-4.9 0-7.3.3-19.6.3-39.2.4-58.7z" style="fill: url(&quot;#Logo_svg__SVGID_00000029740706757896572190000009643172595105896323_&quot;);"></path><linearGradient id="Logo_svg__SVGID_00000047778086650700643050000016135814298261839264_" x1="93.112" x2="93.112" y1="124.716" y2="-5.208" gradientUnits="userSpaceOnUse"><stop offset="0" style="stop-color: rgb(3, 76, 181);"></stop><stop offset="1" style="stop-color: rgb(6, 176, 239);"></stop></linearGradient><path d="M93.2 13.2c3.6 0 6.5-3 6.5-6.6C99.7 3 96.8.1 93.1.1c-3.6 0-6.6 2.9-6.6 6.5s3 6.6 6.7 6.6z" style="fill: url(&quot;#Logo_svg__SVGID_00000047778086650700643050000016135814298261839264_&quot;);"></path><linearGradient id="Logo_svg__SVGID_00000004515510328178850480000009279285379238649492_" x1="464.127" x2="464.127" y1="116.228" y2="-49.761" gradientUnits="userSpaceOnUse"><stop offset="0" style="stop-color: rgb(3, 76, 181);"></stop><stop offset="1" style="stop-color: rgb(6, 176, 239);"></stop></linearGradient><path d="M472.3 87.3c.4 1.5.5 6 .1 7.5-.3-.5-.5-.8-.6-1.1-.4-.9-.7-1.9-1.2-2.7-.8-1.6-2-2.7-3.9-2.7-1.4-.1-2.5.4-3.1 1.7-.5 1-.9 2.1-1.1 3.2-.5 2.6-.4 5.2.7 7.7.7 1.6 1.7 2.8 3.5 2.9 2 .2 3.6-.6 4.6-2.4.4-.7.6-1.4 1-2.1.1-.3.2-.5.6-.8v.7c-.7 3.1-2.9 5.1-6 5.5-2.2.3-4.4.1-6.4-.8-3.6-1.6-5.3-4.8-5-8.9.3-3.4 2.9-6.3 6.5-7.2 2.7-.7 5.3-.6 7.7.9.1.1.2.1.3.2 1.5.8 1.6.7 2.2-.9-.1-.2 0-.4.1-.7z" style="fill: url(&quot;#Logo_svg__SVGID_00000004515510328178850480000009279285379238649492_&quot;);"></path><linearGradient id="Logo_svg__SVGID_00000095329121257075112440000016954283824312578697_" x1="294.22" x2="294.22" y1="116.228" y2="-49.761" gradientUnits="userSpaceOnUse"><stop offset="0" style="stop-color: rgb(3, 76, 181);"></stop><stop offset="1" style="stop-color: rgb(6, 176, 239);"></stop></linearGradient><path d="M294.6 103.1c-1.3 1.5-2.9 1.6-4.6 1.4-1.6-.2-2.6-1.4-2.6-3s.9-2.6 2.5-2.9c.9-.2 1.8-.2 2.6-.3.6-.1 1.1-.3 1.7-.5v-3c0-.6-.2-1-.8-1.2-.6-.2-1.1 0-1.5.6.2.3.5.6.6.9.6.9.5 1.8-.5 2.4-.9.5-1.9.6-2.9.3-1.3-.3-1.7-1.5-.9-2.6.4-.5.9-1 1.5-1.3 2.4-1.1 5-1.1 7.4-.1 1.3.5 1.9 1.5 1.9 2.9v5c0 .5-.1 1.3.7 1.4.7.1.8-.6 1-1.2 0-.2.1-.4.2-.7.2 1.7-.2 2.4-1.5 3-1.5.8-3.4.4-4.8-1.1zm-.3-4.7c-.9.3-1.7.5-1.9 1.3-.2 1-.2 2.1-.1 3.2.1.9 1 1 1.6.3.2-.3.3-.6.3-1 .1-1.2.1-2.4.1-3.8z" style="fill: url(&quot;#Logo_svg__SVGID_00000095329121257075112440000016954283824312578697_&quot;);"></path><linearGradient id="Logo_svg__SVGID_00000114785333081460329600000010425382742670547623_" x1="557.696" x2="557.696" y1="116.228" y2="-49.761" gradientUnits="userSpaceOnUse"><stop offset="0" style="stop-color: rgb(3, 76, 181);"></stop><stop offset="1" style="stop-color: rgb(6, 176, 239);"></stop></linearGradient><path d="M555.4 94.3c.2.2.2.4.3.5 1.1 1.4.7 2.7-1 3.1-.5.1-.9.1-1.4.1-.8 0-1.4-.3-1.8-1.1-.3-.7 0-1.7.7-2.2.8-.5 1.6-.9 2.5-1.2 2-.5 4-.4 6 .4 1.2.5 1.9 1.4 1.9 2.8v4.8c0 .6-.2 1.6.7 1.6.9 0 .9-.9 1-1.5 0-.1.1-.2.2-.3.2 1.5-.1 2.2-1.4 2.8-1.6.8-3.5.5-5.1-1-1.3 1.4-2.9 1.6-4.7 1.3-1.9-.3-2.9-1.8-2.5-3.6.3-1.3 1.1-2 2.4-2.2 1.1-.2 2.2-.2 3.2-.4 1.2-.2 1.3-.4 1.3-1.5 0-.6.1-1.2 0-1.7s-.3-1-.7-1.3c-.5-.3-1.1-.1-1.6.6zm2.4 4.2c-1.5.2-2.1.9-2.1 2.2 0 .7 0 1.4.1 2 .1.3.5.9.7.8.4-.1.9-.4 1.2-.7.1-.1.1-.5.1-.7v-3.6z" style="fill: url(&quot;#Logo_svg__SVGID_00000114785333081460329600000010425382742670547623_&quot;);"></path><linearGradient id="Logo_svg__SVGID_00000082353253209695843150000000655644802225314437_" x1="424.774" x2="424.774" y1="116.228" y2="-49.761" gradientUnits="userSpaceOnUse"><stop offset="0" style="stop-color: rgb(3, 76, 181);"></stop><stop offset="1" style="stop-color: rgb(6, 176, 239);"></stop></linearGradient><path d="M425 93.2c1.4 0 2.9.5 4.2 1.4 3 2 2.9 6.4.1 8.6-2.5 1.8-6.2 1.9-8.8.2-3.1-2-3.2-6.6-.2-8.8 1.2-.9 2.7-1.4 4.7-1.4zm-1.8 5.8c0 1-.1 2.1 0 3.1.1 1.4.7 2.2 1.6 2.1.8 0 1.5-.8 1.5-2.2.1-2.1.1-4.1 0-6.2 0-1.4-.7-2.2-1.6-2.2-.8 0-1.5.9-1.6 2.2 0 1.1.1 2.1.1 3.2z" style="fill: url(&quot;#Logo_svg__SVGID_00000082353253209695843150000000655644802225314437_&quot;);"></path><linearGradient id="Logo_svg__SVGID_00000090271420497453254870000002489261979983400623_" x1="480.749" x2="480.749" y1="116.228" y2="-49.761" gradientUnits="userSpaceOnUse"><stop offset="0" style="stop-color: rgb(3, 76, 181);"></stop><stop offset="1" style="stop-color: rgb(6, 176, 239);"></stop></linearGradient><path d="M480.5 104.6c-1.5 0-3-.4-4.3-1.4-2.9-2.2-2.9-6.3 0-8.6 2.6-2 6.6-1.9 9.2.1 2.7 2.2 2.7 6 0 8.3-1.4 1.2-3 1.7-4.9 1.6zm1.8-5.7c0-1 .1-2.1 0-3.1-.1-1.4-.8-2.2-1.6-2.1-.8 0-1.4.8-1.5 2.1-.1 2.1-.1 4.3 0 6.4 0 1.3.6 2 1.5 2.1.9.1 1.6-.7 1.7-2.1 0-1.2-.1-2.3-.1-3.3z" style="fill: url(&quot;#Logo_svg__SVGID_00000090271420497453254870000002489261979983400623_&quot;);"></path><linearGradient id="Logo_svg__SVGID_00000183937792738212354350000012517768848695140771_" x1="351.589" x2="351.589" y1="116.228" y2="-49.761" gradientUnits="userSpaceOnUse"><stop offset="0" style="stop-color: rgb(3, 76, 181);"></stop><stop offset="1" style="stop-color: rgb(6, 176, 239);"></stop></linearGradient><path d="M349 94.2c.1-.3.3-.6.3-1v-3.6c0-1.3-.2-1.4-1.4-1.7-.2-.1-.5-.1-.9-.1 1.1-.4 4.8-.5 7.1-.2v14.2c0 1.7 0 1.7 1.9 2.1-.5.1-.7.3-.9.3-1.5 0-2.9-.1-4.4 0-.8.1-1.3-.3-1.8-.9.1-1.2.4-2.5.3-3.7.1-1.6-.1-3.5-.2-5.4z" style="fill: url(&quot;#Logo_svg__SVGID_00000183937792738212354350000012517768848695140771_&quot;);"></path><linearGradient id="Logo_svg__SVGID_00000134227284085438217800000003681880229931406465_" x1="541.61" x2="541.61" y1="116.228" y2="-49.761" gradientUnits="userSpaceOnUse"><stop offset="0" style="stop-color: rgb(3, 76, 181);"></stop><stop offset="1" style="stop-color: rgb(6, 176, 239);"></stop></linearGradient><path d="M546.8 37c-.1 1.8-1 3-2.5 3.8-1.9 1-3.8.9-5.6-.2-2.9-1.8-2.9-5.5-.1-7.3 2-1.3 4.7-1.2 6.6.3 1 .9 1.5 2 1.6 3.4z" style="fill: url(&quot;#Logo_svg__SVGID_00000134227284085438217800000003681880229931406465_&quot;);"></path><linearGradient id="Logo_svg__SVGID_00000175298231238676186660000016542846365615934104_" x1="545.209" x2="545.209" y1="116.228" y2="-49.761" gradientUnits="userSpaceOnUse"><stop offset="0" style="stop-color: rgb(3, 76, 181);"></stop><stop offset="1" style="stop-color: rgb(6, 176, 239);"></stop></linearGradient><path d="M546.8 93.4c1.1.1 2 .1 2.9.2-.3.7-.3.7-2.9 1v7.7c0 .9.6 1.4 1.4 1.5.8.1 1.3-.3 1.7-1.1.2-.4.3-.8.5-1.3 0 1.6-.5 2.6-1.7 2.9-1.6.5-3.3.5-4.9-.2-1.3-.5-2-1.5-1.9-2.9v-6.6c-.6-.2-1.1-.3-1.9-.5 1-.6 1.8-1 2.6-1.5s1.4-1.2 2.1-1.8c.7-.5.8-1.7 2.1-1.9v4.5z" style="fill: url(&quot;#Logo_svg__SVGID_00000175298231238676186660000016542846365615934104_&quot;);"></path><linearGradient id="Logo_svg__SVGID_00000073715167263454915340000015350847674715710888_" x1="378.756" x2="378.756" y1="116.228" y2="-49.761" gradientUnits="userSpaceOnUse"><stop offset="0" style="stop-color: rgb(3, 76, 181);"></stop><stop offset="1" style="stop-color: rgb(6, 176, 239);"></stop></linearGradient><path d="M384.8 101.2c-.1 1-.7 1.8-1.6 2.3-2.7 1.9-7.4 1.4-9.6-1.1-1.9-2.1-1.6-5.6.5-7.5 2.5-2.2 7.3-2.3 9.9-.2 1.2 1 1.5 2.3.7 3.3-.7.8-2.5.9-3.5.2-.8-.6-1.1-1.3-.8-2.3 0-.2.1-.3.2-.4.2-.6.5-1.2-.2-1.6-.6-.3-1.4-.1-1.9.6-1.5 1.8-1.4 6.9.2 8.6 1.1 1.2 3.4 1.2 4.8-.2.4-.6.8-1.2 1.3-1.7z" style="fill: url(&quot;#Logo_svg__SVGID_00000073715167263454915340000015350847674715710888_&quot;);"></path><linearGradient id="Logo_svg__SVGID_00000054263727247846138740000003538253375017115800_" x1="242.551" x2="242.551" y1="116.228" y2="-49.761" gradientUnits="userSpaceOnUse"><stop offset="0" style="stop-color: rgb(3, 76, 181);"></stop><stop offset="1" style="stop-color: rgb(6, 176, 239);"></stop></linearGradient><path d="M248.8 98.3h-7.2c-.4 2.3.5 4.3 2 4.9 1.7.7 3 .1 5.2-2.5.1.8-.4 1.2-.7 1.7-2.4 3.1-8.4 2.6-10.6-.2-1.6-2-1.4-5.2.4-7 2-2.1 5.8-2.7 8.4-1.4 1.5.9 2.4 2.4 2.5 4.5zm-4.2-.4c-.1-1.2-.2-2.2-.4-3.2-.1-.7-.6-1.1-1.3-1-.7 0-1 .4-1.2 1-.3 1-.5 2.1-.2 3.2h3.1z" style="fill: url(&quot;#Logo_svg__SVGID_00000054263727247846138740000003538253375017115800_&quot;);"></path><linearGradient id="Logo_svg__SVGID_00000156577491715258619170000003468267839378093713_" x1="280.228" x2="280.228" y1="116.228" y2="-49.761" gradientUnits="userSpaceOnUse"><stop offset="0" style="stop-color: rgb(3, 76, 181);"></stop><stop offset="1" style="stop-color: rgb(6, 176, 239);"></stop></linearGradient><path d="M286.4 98.4h-7.2c-.3 2.4.6 4.3 2.1 4.9 1.8.7 3.3 0 5.2-2.6-.1.5-.1.7-.2 1 0 .1-.2.3-.2.4-2.4 3.7-9.1 3.1-11.1-.2-1.4-2.2-1-5.3 1-7 2.3-2 5-2.2 7.8-1.2 1.7.8 2.6 2.5 2.6 4.7zm-4.2-.5c-.1-1.2-.1-2.2-.3-3.2-.1-.6-.6-1.1-1.4-1-.7 0-1 .5-1.2 1-.2 1-.5 2.1-.3 3.2h3.2z" style="fill: url(&quot;#Logo_svg__SVGID_00000156577491715258619170000003468267839378093713_&quot;);"></path><linearGradient id="Logo_svg__SVGID_00000112614670043393650350000001557589349071284122_" x1="392.918" x2="392.918" y1="116.228" y2="-49.761" gradientUnits="userSpaceOnUse"><stop offset="0" style="stop-color: rgb(3, 76, 181);"></stop><stop offset="1" style="stop-color: rgb(6, 176, 239);"></stop></linearGradient><path d="M392.2 98.3c.9-1.3.6-2.7.3-4-.2-.9-1.1-.8-2.1.1.1.2.3.4.4.6.9 1.2.7 2.4-.7 2.8-.7.2-1.6.3-2.3.2-1.4-.2-1.9-1.6-1-2.7.4-.5.9-.9 1.5-1.1 2.4-1.1 4.9-1.1 7.4-.1 1.3.5 2 1.4 1.9 2.9v4.4c0 .3-.1.7 0 .9.1.4.3 1 .6 1.1.5.2.8-.3.9-.8.1-.3.2-.7.4-1.3.2 1.9-.4 2.9-1.8 3.3-1.5.4-3 .5-4.2-.8-.4-.5-.8-.3-1.2-.3.9-1.6.5-3.2.3-4.8 0-.3-.3-.4-.4-.4z" style="fill: url(&quot;#Logo_svg__SVGID_00000112614670043393650350000001557589349071284122_&quot;);"></path><linearGradient id="Logo_svg__SVGID_00000104706279673173608610000010341596690163424171_" x1="404.083" x2="404.083" y1="116.228" y2="-49.761" gradientUnits="userSpaceOnUse"><stop offset="0" style="stop-color: rgb(3, 76, 181);"></stop><stop offset="1" style="stop-color: rgb(6, 176, 239);"></stop></linearGradient><path d="M409.1 103c0 .8-.6 1.2-1.3 1.3-1.6.5-3.3.5-4.9-.2-1.3-.5-2-1.5-1.9-2.9v-6.6c-.6-.1-1.1-.3-2-.5 1-.6 1.8-1 2.4-1.5.8-.5 1.5-1.2 2.1-1.8.6-.6 1.1-1.3 1.8-2.2.6 1.7.1 3.2.4 4.7 1 .1 1.9.1 3.1.2-.9 1.4-2.2.4-3.2 1.1 0 2.5-.2 5.1.2 7.8.2 1.1 1.3 1.6 2.3 1.1.5-.1.7-.3 1-.5z" style="fill: url(&quot;#Logo_svg__SVGID_00000104706279673173608610000010341596690163424171_&quot;);"></path><linearGradient id="Logo_svg__SVGID_00000126281639626560823640000006412949606000724383_" x1="585.301" x2="585.301" y1="116.228" y2="-49.761" gradientUnits="userSpaceOnUse"><stop offset="0" style="stop-color: rgb(3, 76, 181);"></stop><stop offset="1" style="stop-color: rgb(6, 176, 239);"></stop></linearGradient><path d="M590.3 103c0 .8-.6 1.2-1.3 1.3-1.6.5-3.3.5-4.9-.2-1.3-.5-1.9-1.5-1.9-2.9v-6.4s0-.1-.1-.2c-.4-.1-1-.2-1.8-.5 1-.6 1.8-1 2.5-1.5.8-.5 1.5-1.2 2.1-1.8.6-.6 1.1-1.3 1.9-2.2.5 1.7.1 3.3.4 4.8 1 .1 1.9.1 3.1.2-.8 1.4-2.2.4-3.2 1.1 0 2.4-.2 5 .2 7.6.2 1.3 1.3 1.8 2.5 1.2.1-.2.3-.3.5-.5z" style="fill: url(&quot;#Logo_svg__SVGID_00000126281639626560823640000006412949606000724383_&quot;);"></path><linearGradient id="Logo_svg__SVGID_00000011713995456974763720000005232805865237025435_" x1="510.134" x2="510.134" y1="116.228" y2="-49.761" gradientUnits="userSpaceOnUse"><stop offset="0" style="stop-color: rgb(3, 76, 181);"></stop><stop offset="1" style="stop-color: rgb(6, 176, 239);"></stop></linearGradient><path d="M506 103.2c-.3.6-.6.9-.8 1.3-.3-1.6-.3-3.1.1-4.7.3.6.6 1.3.9 1.9.7 1.2 1.6 2.1 3.1 2.3.9.1 1.6-.2 1.8-.8.2-.6 0-1.3-.9-1.8-.7-.4-1.5-.8-2.2-1.2-.6-.4-1.3-.7-1.8-1.2-1.7-1.4-1.6-3.7.2-4.9 1.6-1.1 3.4-1.2 5.2-.6.6.2 1.1.5 1.8.7.3-.4.6-.7 1-1.2v4.7c-.3-.5-.5-.8-.7-1.1-.5-.8-1-1.6-1.7-2.2-.5-.5-1.4-.7-2.1-.8-.4 0-1.1.4-1.3.8-.3.6.2 1.1.7 1.4l2.7 1.5c.8.5 1.5.9 2.1 1.5 1.5 1.5 1.1 3.9-.7 4.9-1.8 1-3.7 1.1-5.6.3-.4-.1-1-.4-1.8-.8z" style="fill: url(&quot;#Logo_svg__SVGID_00000011713995456974763720000005232805865237025435_&quot;);"></path><linearGradient id="Logo_svg__SVGID_00000131350698442937770430000012438824947068805550_" x1="307.192" x2="307.192" y1="116.228" y2="-49.761" gradientUnits="userSpaceOnUse"><stop offset="0" style="stop-color: rgb(3, 76, 181);"></stop><stop offset="1" style="stop-color: rgb(6, 176, 239);"></stop></linearGradient><path d="M303.1 103.3c-.3.5-.6.9-1 1.5-.2-1.8-.1-3.3.2-4.9l.9 1.8c.8 1.4 1.8 2.4 3.5 2.4.6 0 1.3-.1 1.5-.9.2-.7 0-1.2-.6-1.6-.4-.3-.9-.5-1.3-.8l-2.7-1.5c-.8-.5-1.3-1.3-1.3-2.3 0-1.3.5-2.3 1.7-3 1.6-.9 3.3-1 5-.4.6.2 1.1.5 1.8.7.2-.3.4-.5.5-.7.1-.1.2-.3.4-.6v4.5c-.1 0-.1 0-.2.1-.2-.3-.3-.7-.6-1-.5-.7-1-1.5-1.6-2.1-.6-.6-1.5-.9-2.3-.7-.4.1-.9.5-1.1.9-.3.5.1 1 .6 1.3.9.5 1.7.9 2.6 1.4.8.5 1.6.9 2.3 1.6 1.6 1.6 1.2 3.9-.8 5-1.7.9-3.6 1-5.4.3-.7-.4-1.3-.7-2.1-1z" style="fill: url(&quot;#Logo_svg__SVGID_00000131350698442937770430000012438824947068805550_&quot;);"></path><linearGradient id="Logo_svg__SVGID_00000004531402025902454310000008068483982302603404_" x1="267.981" x2="267.981" y1="116.228" y2="-49.761" gradientUnits="userSpaceOnUse"><stop offset="0" style="stop-color: rgb(3, 76, 181);"></stop><stop offset="1" style="stop-color: rgb(6, 176, 239);"></stop></linearGradient><path d="M263.9 103.2c-.3.5-.5.9-.9 1.5v-4.8c.1 0 .1-.1.2-.1.3.5.5 1.1.8 1.6.7 1.3 1.5 2.4 3.1 2.6.4.1.7.1 1.1 0 1.1-.3 1.5-1.3.7-2.1-.3-.4-.8-.6-1.3-.9-1-.6-2.1-1-3-1.7-2.2-1.6-2-4.3.5-5.5 1.6-.8 3.2-.8 4.8-.2.5.2.9.4 1.5.7.3-.4.6-.7 1-1.1v4.2c-.1 0-.1 0-.2.1-.2-.5-.5-1-.7-1.5-.6-1-1.3-2-2.6-2.2-.5-.1-1.1-.1-1.5.1-.8.3-1 1.1-.3 1.7.4.3.8.6 1.3.8 1 .6 2.1 1.1 3.1 1.8 1.2.8 1.9 1.9 1.7 3.4-.2 1.5-1.2 2.2-2.6 2.6-1.6.5-3.2.5-4.7-.2-.8-.2-1.3-.4-2-.8z" style="fill: url(&quot;#Logo_svg__SVGID_00000004531402025902454310000008068483982302603404_&quot;);"></path><linearGradient id="Logo_svg__SVGID_00000088842758512726915120000006386747258979506824_" x1="413.416" x2="413.416" y1="116.228" y2="-49.761" gradientUnits="userSpaceOnUse"><stop offset="0" style="stop-color: rgb(3, 76, 181);"></stop><stop offset="1" style="stop-color: rgb(6, 176, 239);"></stop></linearGradient><path d="M409.5 93.6h6.3c0 .5.1.9.1 1.4v7.3c0 1.4 0 1.4 1.3 1.9-.9.4-6 .5-7.5.1 1.3-.6 1.3-.6 1.3-2.2v-6.2c.1-1.7.1-1.7-1.5-2.3z" style="fill: url(&quot;#Logo_svg__SVGID_00000088842758512726915120000006386747258979506824_&quot;);"></path><linearGradient id="Logo_svg__SVGID_00000039854641717330228390000015795707473532580287_" x1="435.697" x2="435.697" y1="116.228" y2="-49.761" gradientUnits="userSpaceOnUse"><stop offset="0" style="stop-color: rgb(3, 76, 181);"></stop><stop offset="1" style="stop-color: rgb(6, 176, 239);"></stop></linearGradient><path d="M439.3 104.4H432c.6-.4 1.2-.6 1.4-.9.2-.4.1-.9.2-1.4v-6.2c0-1.5 0-1.5-1.4-2.3h5.9c.6.7.5 1.5.5 2.4-.1 2.3-.1 4.7 0 7 0 .4.4.8.7 1.4z" style="fill: url(&quot;#Logo_svg__SVGID_00000039854641717330228390000015795707473532580287_&quot;);"></path><linearGradient id="Logo_svg__SVGID_00000175283411168515433100000009831090564523318717_" x1="491.867" x2="491.867" y1="116.228" y2="-49.761" gradientUnits="userSpaceOnUse"><stop offset="0" style="stop-color: rgb(3, 76, 181);"></stop><stop offset="1" style="stop-color: rgb(6, 176, 239);"></stop></linearGradient><path d="M488.3 104.3c1.2-.3 1.3-1.2 1.3-2.2v-6.6c0-1.4 0-1.4-1.3-2.1.9 0 1.9 0 2.8-.1h2.9c.5.9.5 1.8.5 2.7-.1 2.1 0 4.3 0 6.4 0 .8.2 1.4 1 1.8-2.4.1-4.8.1-7.2.1z" style="fill: url(&quot;#Logo_svg__SVGID_00000175283411168515433100000009831090564523318717_&quot;);"></path><linearGradient id="Logo_svg__SVGID_00000142896444203742840360000011697031191996749196_" x1="568.427" x2="568.427" y1="116.228" y2="-49.761" gradientUnits="userSpaceOnUse"><stop offset="0" style="stop-color: rgb(3, 76, 181);"></stop><stop offset="1" style="stop-color: rgb(6, 176, 239);"></stop></linearGradient><path d="M572.1 104.3h-7.3c1.4-.7 1.5-.7 1.5-2.3v-6.6c0-.9-.1-1.7-1.4-1.8.7-.3 1.3-.2 1.9-.3h3.9c.5.8.6 1.6.5 2.5-.2 2.3 0 4.6 0 6.9-.1.9.3 1.2.9 1.6z" style="fill: url(&quot;#Logo_svg__SVGID_00000142896444203742840360000011697031191996749196_&quot;);"></path><linearGradient id="Logo_svg__SVGID_00000176020991864033743920000012631923530365822877_" x1="367.642" x2="367.642" y1="116.228" y2="-49.761" gradientUnits="userSpaceOnUse"><stop offset="0" style="stop-color: rgb(3, 76, 181);"></stop><stop offset="1" style="stop-color: rgb(6, 176, 239);"></stop></linearGradient><path d="M364.5 104.1c.8-1 1-2.2.9-3.5-.1-1.5 0-2.9 0-4.4-.1-2.2.2-1.7-2-2.7h6.8v8.7c0 1.4 0 1.4 1.6 2-1.1.5-2.1.2-3.1.3h-3c-.1-.4-.2-.7-.4-1.1-.3.2-.6.4-.8.7 0-.1 0 0 0 0z" style="fill: url(&quot;#Logo_svg__SVGID_00000176020991864033743920000012631923530365822877_&quot;);"></path><linearGradient id="Logo_svg__SVGID_00000077293980766150615630000011107244473390641807_" x1="253.213" x2="253.213" y1="116.228" y2="-49.761" gradientUnits="userSpaceOnUse"><stop offset="0" style="stop-color: rgb(3, 76, 181);"></stop><stop offset="1" style="stop-color: rgb(6, 176, 239);"></stop></linearGradient><path d="M256.4 94.5c-.5.9-.7 1.9-.7 3 .1 1.6 0 3.1 0 4.7 0 1.4 0 1.4 1.4 1.9-.9.4-5 .5-7.9.2l.8-.4c.6-.1.8-.4.8-.9v-7.9c0-.9-.6-1.2-1.4-1.4 2-.2 4-.2 6-.2l.3 1.2c.4-.1.5-.2.7-.2z" style="fill: url(&quot;#Logo_svg__SVGID_00000077293980766150615630000011107244473390641807_&quot;);"></path><linearGradient id="Logo_svg__SVGID_00000107589298148553049110000014737144595906166975_" x1="230.09" x2="230.09" y1="116.228" y2="-49.761" gradientUnits="userSpaceOnUse"><stop offset="0" style="stop-color: rgb(3, 76, 181);"></stop><stop offset="1" style="stop-color: rgb(6, 176, 239);"></stop></linearGradient><path d="M223.6 93.5h7.5c-.4.3-.9.5-.9.8-.1.4 0 .8.2 1.2.5 1.4 1.1 2.7 1.7 4.3.9-1.8 1.5-3.3 2-4.9.3-.9-.6-1-1.1-1.4h3.8c-1.7.7-1.7.7-2.5 2.4-1.2 2.8-2.3 5.6-3.5 8.4H229l-.6-1.5c-1.1-2.5-2.1-5.1-3.2-7.6-.3-.8-.6-1.6-1.8-1.4 0 0 .1-.2.2-.3z" style="fill: url(&quot;#Logo_svg__SVGID_00000107589298148553049110000014737144595906166975_&quot;);"></path><linearGradient id="Logo_svg__SVGID_00000165918672086906073840000000032003705416714385_" x1="576.149" x2="576.149" y1="116.228" y2="-49.761" gradientUnits="userSpaceOnUse"><stop offset="0" style="stop-color: rgb(3, 76, 181);"></stop><stop offset="1" style="stop-color: rgb(6, 176, 239);"></stop></linearGradient><path d="M580.5 104.3h-7.3c.9-.8.9-.8 1-2 0-2.1.1-4.2 0-6.2-.1-1.8-.3-2-2.4-2 .4-.3.7-.6.9-.6 1.5-.4 3-.4 4.4.3 1.3.6 2 1.6 1.9 3.1-.1 1.7 0 3.4 0 5.1.1 1.6.1 1.6 1.5 2.3z" style="fill: url(&quot;#Logo_svg__SVGID_00000165918672086906073840000000032003705416714385_&quot;);"></path><linearGradient id="Logo_svg__SVGID_00000066497093804659089600000002926022333975020726_" x1="499.427" x2="499.427" y1="116.228" y2="-49.761" gradientUnits="userSpaceOnUse"><stop offset="0" style="stop-color: rgb(3, 76, 181);"></stop><stop offset="1" style="stop-color: rgb(6, 176, 239);"></stop></linearGradient><path d="M496.7 104.4c.3-.7.7-1.3.8-1.8.1-2.1.1-4.2 0-6.2s-.3-2.2-2.5-2.3c1.7-1.1 3.2-1 4.8-.6 1.9.6 2.6 1.6 2.6 3.6v5.1c0 1.4 0 1.4 1.5 2-1.3.4-2.5.2-3.6.2-1.3.1-2.5 0-3.6 0z" style="fill: url(&quot;#Logo_svg__SVGID_00000066497093804659089600000002926022333975020726_&quot;);"></path><linearGradient id="Logo_svg__SVGID_00000056388473235861693680000016366755975003344560_" x1="443.528" x2="443.528" y1="116.228" y2="-49.761" gradientUnits="userSpaceOnUse"><stop offset="0" style="stop-color: rgb(3, 76, 181);"></stop><stop offset="1" style="stop-color: rgb(6, 176, 239);"></stop></linearGradient><path d="M439.2 94.1c2-1.5 5.5-1 6.7.8.3.5.4 1.2.5 1.8.1 1.8 0 3.5 0 5.3 0 1.6 0 1.6 1.5 2.3h-7.3c.3-.3.7-.6.8-.9.2-.4.2-.8.2-1.2v-5.8c0-2-.3-2.2-2.4-2.3z" style="fill: url(&quot;#Logo_svg__SVGID_00000056388473235861693680000016366755975003344560_&quot;);"></path><linearGradient id="Logo_svg__SVGID_00000064333391892140334550000009141104431610486197_" x1="360.072" x2="360.072" y1="116.228" y2="-49.761" gradientUnits="userSpaceOnUse"><stop offset="0" style="stop-color: rgb(3, 76, 181);"></stop><stop offset="1" style="stop-color: rgb(6, 176, 239);"></stop></linearGradient><path d="M364.5 104c-1.8.9-3.5.8-5.2-.1-1.2-.6-1.7-1.6-1.7-2.9v-5.1c0-1.7 0-1.7-1.8-2.3h6.5c0 .5.1.9.1 1.4v6.2c-.1 2.2 0 2.2 2.1 2.8 0 .1 0 0 0 0z" style="fill: url(&quot;#Logo_svg__SVGID_00000064333391892140334550000009141104431610486197_&quot;);"></path><linearGradient id="Logo_svg__SVGID_00000013167725991110958840000006227373084834689440_" x1="520.025" x2="520.025" y1="116.228" y2="-49.761" gradientUnits="userSpaceOnUse"><stop offset="0" style="stop-color: rgb(3, 76, 181);"></stop><stop offset="1" style="stop-color: rgb(6, 176, 239);"></stop></linearGradient><path d="M522.3 93.5v8.2c0 1.7.2 1.9 1.8 2.4-1.8 1.2-4.9.7-6.1-1.1-.4-.6-.5-1.3-.6-2-.1-1.7 0-3.3 0-5 0-1.7 0-1.7-1.5-2.4h3c1.1-.1 2.1-.1 3.4-.1z" style="fill: url(&quot;#Logo_svg__SVGID_00000013167725991110958840000006227373084834689440_&quot;);"></path><linearGradient id="Logo_svg__SVGID_00000057838214224633271310000000579911861473092794_" x1="344.98" x2="344.98" y1="116.228" y2="-49.761" gradientUnits="userSpaceOnUse"><stop offset="0" style="stop-color: rgb(3, 76, 181);"></stop><stop offset="1" style="stop-color: rgb(6, 176, 239);"></stop></linearGradient><path d="M348.7 103.8c-.2.2-.3.5-.5.5-2.5.7-5.9.2-7-3.4-.3-.9-.4-2-.3-2.9.4-3.6 3.1-5.4 6.8-4.7.4.1.8.6 1.2.9-2-.5-2.7-.1-2.9 2-.2 1.9-.2 3.8 0 5.7.3 1.9.8 2.1 2.7 1.9z" style="fill: url(&quot;#Logo_svg__SVGID_00000057838214224633271310000000579911861473092794_&quot;);"></path><linearGradient id="Logo_svg__SVGID_00000106857240520834824860000007755447363055616658_" x1="389.005" x2="389.005" y1="116.228" y2="-49.761" gradientUnits="userSpaceOnUse"><stop offset="0" style="stop-color: rgb(3, 76, 181);"></stop><stop offset="1" style="stop-color: rgb(6, 176, 239);"></stop></linearGradient><path d="M392.3 103.3c-.2.3-.3.7-.6.8-1.5.6-3 .7-4.5 0-1.1-.5-1.7-1.8-1.5-3 .2-1.2.9-2.1 2.2-2.3 1.4-.2 2.9-.4 4.3-.5-.1.1-.2.3-.4.4-.9.4-1.2 1-1.2 1.9v1.7c.1 1.3.4 1.4 1.7 1z" style="fill: url(&quot;#Logo_svg__SVGID_00000106857240520834824860000007755447363055616658_&quot;);"></path><linearGradient id="Logo_svg__SVGID_00000016038836592765356010000002886225379673233543_" x1="259.073" x2="259.073" y1="116.228" y2="-49.761" gradientUnits="userSpaceOnUse"><stop offset="0" style="stop-color: rgb(3, 76, 181);"></stop><stop offset="1" style="stop-color: rgb(6, 176, 239);"></stop></linearGradient><path d="M256.3 94.5c.7-1.5 2-1.2 3.2-1.1 1.1.1 1.9.8 2.2 1.9.3 1.1-.1 2.1-1.1 2.7-1 .6-2.4.5-3.2-.2-.6-.5-.8-1.2-.6-2 .1-.4.3-.9.5-1.4-.3.1-.6.1-1 .1.1 0 0 0 0 0z" style="fill: url(&quot;#Logo_svg__SVGID_00000016038836592765356010000002886225379673233543_&quot;);"></path><linearGradient id="Logo_svg__SVGID_00000030460202617870546060000003769067991791231403_" x1="413.507" x2="413.507" y1="116.228" y2="-49.761" gradientUnits="userSpaceOnUse"><stop offset="0" style="stop-color: rgb(3, 76, 181);"></stop><stop offset="1" style="stop-color: rgb(6, 176, 239);"></stop></linearGradient><path d="M416 89.7c0 1.2-1.2 2.2-2.6 2.1-1.3 0-2.4-1-2.3-2.2 0-1.2 1.3-2.2 2.6-2.2 1.3.1 2.3 1.1 2.3 2.3z" style="fill: url(&quot;#Logo_svg__SVGID_00000030460202617870546060000003769067991791231403_&quot;);"></path><linearGradient id="Logo_svg__SVGID_00000108284591543254894730000008498425663311981979_" x1="409.32" x2="409.32" y1="116.228" y2="-49.761" gradientUnits="userSpaceOnUse"><stop offset="0" style="stop-color: rgb(3, 76, 181);"></stop><stop offset="1" style="stop-color: rgb(6, 176, 239);"></stop></linearGradient><path d="M409.1 103c.1-.5.1-.9.2-1.4.4.5.3 1-.2 1.4z" style="fill: url(&quot;#Logo_svg__SVGID_00000108284591543254894730000008498425663311981979_&quot;);"></path><linearGradient id="Logo_svg__SVGID_00000046306541927246491460000015168651003819678639_" x1="590.532" x2="590.532" y1="116.228" y2="-49.761" gradientUnits="userSpaceOnUse"><stop offset="0" style="stop-color: rgb(3, 76, 181);"></stop><stop offset="1" style="stop-color: rgb(6, 176, 239);"></stop></linearGradient><path d="M590.3 103c.1-.5.1-.9.2-1.4.4.5.3 1-.2 1.4z" style="fill: url(&quot;#Logo_svg__SVGID_00000046306541927246491460000015168651003819678639_&quot;);"></path></svg>