<?xml version="1.0" encoding="utf-8"?>
<!-- Generator: Adobe Illustrator 27.7.0, SVG Export Plug-In . SVG Version: 6.00 Build 0)  -->
<svg version="1.1" id="Layer_1" xmlns="http://www.w3.org/2000/svg" xmlns:xlink="http://www.w3.org/1999/xlink" x="0px" y="0px"
	 viewBox="0 0 81.3 81.4" style="enable-background:new 0 0 81.3 81.4;" xml:space="preserve">
<style type="text/css">
	.st0{fill:url(#SVGID_1_);}
	.st1{fill:#FFFFFF;}
	.st2{fill:url(#SVGID_00000172425180608362099800000003042875290342993075_);}
	.st3{fill:url(#SVGID_00000134943657713514580130000013680703498227031179_);}
	.st4{fill:url(#SVGID_00000095328717766811606820000016838291547604906143_);}
	.st5{fill:url(#SVGID_00000056392616995623155850000013519562051620556192_);}
	.st6{fill:url(#SVGID_00000002372634041466564850000009349284830521527743_);}
	.st7{fill:url(#SVGID_00000036969937224813345500000009740313641880335795_);}
	.st8{fill:url(#SVGID_00000013878621175121893890000002539916043256890755_);}
	.st9{fill:#231F20;}
	.st10{fill:url(#SVGID_00000082367820429457249780000008623947740044013455_);}
	.st11{fill:none;}
	.st12{fill:url(#SVGID_00000154396639485346561750000015773818114905218216_);}
	.st13{fill:url(#SVGID_00000111154363339490728330000011832045252867916946_);}
	.st14{fill:url(#SVGID_00000057831359834441647870000004324611865877938063_);}
	.st15{fill:url(#SVGID_00000039134464086221838520000005338559994157493400_);}
	.st16{fill:url(#SVGID_00000067215472427807486920000014432825942775730111_);}
	.st17{fill:url(#SVGID_00000070084063011906915080000014338775498865434803_);}
	.st18{fill:url(#SVGID_00000159450411470604704610000014209059037247081391_);}
	.st19{fill:url(#SVGID_00000082344245200887737800000014646479980849636257_);}
	.st20{fill:url(#SVGID_00000078760938928924111760000006513003954012278929_);}
	.st21{fill:url(#SVGID_00000090266679292720039240000009904797402971776158_);}
	.st22{fill:#064295;}
	.st23{fill:url(#SVGID_00000134235879668919947250000013861938051859563706_);}
	.st24{fill:#010101;}
	.st25{fill:url(#SVGID_00000147190004640104178360000006768065995214887095_);}
	.st26{fill:url(#SVGID_00000085224168942343510220000003050384415724495790_);}
	.st27{fill:#DFDFDF;}
	.st28{fill:url(#SVGID_00000041269393411103939290000005234350437504797620_);}
	.st29{fill:url(#SVGID_00000160163805752513037270000003636177569560088752_);}
	.st30{fill:#696969;}
	.st31{fill:url(#SVGID_00000010997216913033949250000014087934741170695103_);}
	.st32{fill:#F2F2F2;}
	.st33{fill:#D6D6D6;}
	.st34{fill:#E4E4E4;}
	.st35{fill:#DDDDDD;}
	.st36{fill:url(#SVGID_00000114783163481674433790000011553556197792843416_);}
	.st37{fill:url(#SVGID_00000020396693126587138150000003195033285221025695_);}
	.st38{fill:url(#SVGID_00000129200412899885543420000009564513705770895239_);}
	.st39{fill:url(#SVGID_00000098189784997415800820000015947691721449479092_);}
	.st40{fill:url(#SVGID_00000135680850358935449810000015958890191327736238_);}
	.st41{fill:url(#SVGID_00000047771417104877148290000009361221631133995649_);}
	.st42{fill:url(#SVGID_00000149356531213582316700000009558295521454920847_);}
	.st43{fill:url(#SVGID_00000010273855408341322960000001124531480581580182_);}
	.st44{fill:url(#SVGID_00000128467449092670734130000009479240068987418245_);}
	.st45{fill:url(#SVGID_00000060005362383667508470000009705307412321791631_);}
	.st46{fill:url(#SVGID_00000070824295824346115510000008944079580883419553_);}
	.st47{fill:url(#SVGID_00000175315257254315173890000001194626635451405712_);}
	.st48{fill:url(#SVGID_00000077306691011074028360000012498571101971967422_);}
	.st49{fill:url(#SVGID_00000176749498288964822450000003088330676041202861_);}
	.st50{fill:url(#SVGID_00000091007825726352910000000015095477330765150131_);}
	.st51{fill:url(#SVGID_00000010991481074308810730000003966165342246848905_);}
	.st52{fill:url(#SVGID_00000160192560851619675230000004184311610114490774_);}
	.st53{fill:url(#SVGID_00000041265216399675804820000014442203746800778899_);}
	.st54{fill:url(#SVGID_00000076572119928616029590000005310961918386493848_);}
	.st55{fill:url(#SVGID_00000052788615401090377770000018144148596710103195_);}
	.st56{fill:url(#SVGID_00000057850813626489935860000017197992280012865447_);}
	.st57{fill:url(#SVGID_00000125561034681353134580000000757905318572057755_);}
	.st58{fill:url(#SVGID_00000165948821119398050280000007912176361824460716_);}
	.st59{fill:url(#SVGID_00000151533800790085662160000007468775194379246733_);}
	.st60{fill:#989898;}
	.st61{fill:url(#SVGID_00000027599218348258360600000010057860631787330734_);}
	.st62{fill:url(#SVGID_00000118385741214189899250000006977164169218680226_);}
	.st63{fill:url(#SVGID_00000175288973098097461840000013143283355934407871_);}
	.st64{fill:url(#SVGID_00000134242862760555042560000001358533590568026247_);}
	.st65{fill:url(#SVGID_00000102518936366847068420000017434636449971174554_);}
	.st66{fill:url(#SVGID_00000062177235998427636060000010493081900813388175_);}
	.st67{fill:url(#SVGID_00000013896260092251969810000012953414670372481939_);}
</style>
<g>
	<path class="st24" d="M0,61.4c0.5-0.6,1-1.2,1.6-1.8c2.1-2.1,4.2-4.2,6.3-6.4c1-1,2.3-1.5,3.7-1.5c0.5,0,0.8-0.1,1.2-0.7
		c2.6-4.4,6.4-7.2,11.4-8.6c2.6-0.7,5.3-0.9,7.9-0.7c1.8,0.1,3.5,0.8,5.3,1.1c0.6,0.1,1.2,0.3,1.8,0.3c5.3,0,10.6,0,16,0
		c2.3,0,4.2,0.6,5.5,2c3.4-3.3,6.9-6.6,10.3-9.9c1.9-1.8,5-1.9,7.1-0.8c1.5,0.8,2.6,2,3,3.7c0.5,2.3,0.3,4.4-1.3,6.3
		c-1.9,2.1-3.6,4.3-5.4,6.5c-1.5,1.8-3,3.6-4.6,5.4c-1.3,1.6-2.6,3.2-3.9,4.7c-2,2.3-4.6,3.7-7.6,4.2c-1,0.2-2,0.3-3,0.3
		c-6.7,0-13.5,0.1-20.2,0c-2.3,0-3.9,1.1-5.3,2.7c-0.2,0.2-0.2,0.6-0.1,0.9c0.4,1.7-0.1,3.1-1.2,4.3c-1.7,1.7-3.4,3.4-5.1,5.1
		c-1,1-2.1,2-3.2,3c-0.4,0-0.7,0-1.1,0c-0.3-0.3-0.6-0.5-0.9-0.8c-3.5-3.6-7.1-7.2-10.6-10.8c-2.2-2.2-4.4-4.4-6.5-6.6
		c-0.3-0.3-0.6-0.7-0.8-1.1C0,61.9,0,61.7,0,61.4z M27.6,65.9c2.1-2.9,5-3.6,8.4-3.6c6.6,0.1,13.2,0.1,19.8,0c3.2,0,5.9-1.3,8-3.8
		c2.4-2.9,4.9-5.8,7.3-8.7c2-2.4,4.1-4.8,6.2-7.3c0.9-1.1,1.2-2.2,0.7-3.6c-0.7-1.8-3.6-2.6-5.1-1c-1.3,1.3-2.5,2.6-3.8,3.9
		c-2.2,2.3-4.4,4.5-6.6,6.8c-0.2,0.2-0.2,0.5-0.3,0.8c-0.1,0.8-0.1,1.6-0.3,2.3c-0.8,2.6-3.5,4.4-6.2,4.4c-4.3,0-8.5,0-12.8,0
		c-1,0-1.6-0.6-1.6-1.6c0-1,0.6-1.6,1.9-1.6c3.4,0,6.7,0,10.1,0c0.9,0,1.7,0,2.6,0c2.2-0.1,3.6-2.1,2.9-4.2
		c-0.5-1.4-1.6-2.2-3.4-2.2c-5.7,0-11.4,0-17.1,0c-0.7,0-1.3-0.2-2-0.4c-1.7-0.4-3.3-0.9-5-1.1c-1.7-0.1-3.5,0.1-5.2,0.3
		c-1.7,0.2-3.4,0.9-4.9,1.7c-2.7,1.5-4.7,3.7-6.2,6.3C19.3,57.5,23.4,61.6,27.6,65.9z M11.3,54.7c-0.5,0.3-1,0.5-1.3,0.9
		c-1.9,1.9-3.7,3.8-5.6,5.6c-0.5,0.5-0.4,0.7,0,1.2c3.7,3.7,7.4,7.4,11.1,11.1c1.2,1.2,2.3,2.4,3.4,3.6c0.3,0.4,0.6,0.4,1,0
		c1.9-1.9,3.9-3.8,5.9-5.7c0.9-0.9,1-1.9,0-2.8c-4.4-4.4-8.7-8.7-13.1-13.1C12.4,55.2,11.9,55,11.3,54.7z"/>
	<linearGradient id="SVGID_1_" gradientUnits="userSpaceOnUse" x1="29.9287" y1="17.4456" x2="64.9129" y2="17.4456">
		<stop  offset="0" style="stop-color:#2352A3"/>
		<stop  offset="1" style="stop-color:#28ADE3"/>
	</linearGradient>
	<path class="st0" d="M47.3,34.9C37.7,35.1,30.6,27,30,19.1c-0.4-5,1-9.4,4.2-13.1c3.3-3.8,7.5-5.9,12.5-6
		c10.5-0.2,18.4,7.7,18.2,18C64.7,27,57.1,35.1,47.3,34.9z M47.3,3.3c-7.2-0.5-15.1,6.4-14.1,15.8c0.6,5.9,6.2,13.2,15.2,12.6
		c7.1-0.4,13.2-6.3,13.4-13.9C61.9,9.7,55.2,2.9,47.3,3.3z"/>
	<path class="st24" d="M34.8,54c0-0.9,0.7-1.5,1.6-1.5c0.8,0,1.6,0.8,1.6,1.5c0,0.8-0.8,1.7-1.6,1.6C35.4,55.7,34.8,55,34.8,54z"/>
</g>
</svg>
