<?xml version="1.0" encoding="utf-8"?>
<!-- Generator: Adobe Illustrator 27.7.0, SVG Export Plug-In . SVG Version: 6.00 Build 0)  -->
<svg version="1.1" id="Layer_1" xmlns="http://www.w3.org/2000/svg" xmlns:xlink="http://www.w3.org/1999/xlink" x="0px" y="0px"
	 viewBox="0 0 80.8 105.3" style="enable-background:new 0 0 80.8 105.3;" xml:space="preserve">
<style type="text/css">
	.st0{fill:url(#SVGID_1_);}
	.st1{fill:#FFFFFF;}
	.st2{fill:url(#SVGID_00000142888542570334908270000002776441366625962647_);}
	.st3{fill:url(#SVGID_00000116935650953056650800000013727309506496858496_);}
	.st4{fill:url(#SVGID_00000100358801773587868080000010043527309865994378_);}
	.st5{fill:url(#SVGID_00000067919444392750080780000015382049223089166778_);}
	.st6{fill:url(#SVGID_00000102517806112775244040000005114259442040288409_);}
	.st7{fill:url(#SVGID_00000181075644699711941270000011274367278045499070_);}
	.st8{fill:url(#SVGID_00000168805575241488872070000016724585227056581564_);}
	.st9{fill:#231F20;}
	.st10{fill:url(#SVGID_00000039856590798057013720000003156049868011689120_);}
	.st11{fill:none;}
	.st12{fill:url(#SVGID_00000076601869189249888580000005127274214852173217_);}
	.st13{fill:url(#SVGID_00000139275703592321596790000014769640766380341653_);}
	.st14{fill:url(#SVGID_00000104679799579924286850000005562424446361339788_);}
	.st15{fill:url(#SVGID_00000145028870236179575380000006469473347789477810_);}
	.st16{fill:url(#SVGID_00000094592816407424078400000002963335810012437438_);}
	.st17{fill:url(#SVGID_00000132067230930263913370000018332395459214415540_);}
	.st18{fill:url(#SVGID_00000005963531720520905250000017494823093642129336_);}
	.st19{fill:url(#SVGID_00000098931145635957362690000007188205075902049674_);}
	.st20{fill:url(#SVGID_00000082349870854091707280000013731868003940759195_);}
	.st21{fill:url(#SVGID_00000120536500514540822880000004125315746297987727_);}
	.st22{fill:#064295;}
	.st23{fill:url(#SVGID_00000124842952309610674620000008449327452843944616_);}
	.st24{fill:#010101;}
	.st25{fill:url(#SVGID_00000008867546594100656880000005167943344160711304_);}
	.st26{fill:url(#SVGID_00000085951812719464660260000007204539133521684407_);}
	.st27{fill:#DFDFDF;}
	.st28{fill:url(#SVGID_00000158749285640234300120000004224340037058424476_);}
	.st29{fill:url(#SVGID_00000014636659468785965400000013798250058732940967_);}
	.st30{fill:#696969;}
	.st31{fill:url(#SVGID_00000017476280111527503540000011324376306458432400_);}
	.st32{fill:#F2F2F2;}
	.st33{fill:#D6D6D6;}
	.st34{fill:#E4E4E4;}
	.st35{fill:#DDDDDD;}
	.st36{fill:url(#SVGID_00000065034068031614158790000008421312931388041601_);}
	.st37{fill:url(#SVGID_00000008126820370056842510000008524234207865567422_);}
	.st38{fill:url(#SVGID_00000021115541872629156860000010671571025966424974_);}
	.st39{fill:url(#SVGID_00000080894535918686239560000008329827034832095381_);}
	.st40{fill:url(#SVGID_00000167395056729913226870000017943001400446969763_);}
	.st41{fill:url(#SVGID_00000005265954116607308520000000473337229171541148_);}
	.st42{fill:url(#SVGID_00000112618061841284617560000005649992578057190323_);}
	.st43{fill:url(#SVGID_00000111187488412606982930000002837635612941498761_);}
	.st44{fill:url(#SVGID_00000016783007069192746600000016664416607136264363_);}
	.st45{fill:url(#SVGID_00000077312028842864806290000004655960664666205884_);}
	.st46{fill:url(#SVGID_00000036225133884345002670000009982233029092298675_);}
	.st47{fill:url(#SVGID_00000066478278411009448580000009330292680891258783_);}
	.st48{fill:url(#SVGID_00000092438551575344577970000016701650125192662678_);}
	.st49{fill:url(#SVGID_00000078038371344526181180000007532144444197638825_);}
	.st50{fill:url(#SVGID_00000114048599430436385540000011131531516431500187_);}
	.st51{fill:url(#SVGID_00000066476904743688421600000007932664169519096474_);}
	.st52{fill:url(#SVGID_00000031180635207081612580000010066043172289318327_);}
	.st53{fill:url(#SVGID_00000074428279525632055890000008367446762032726917_);}
	.st54{fill:url(#SVGID_00000121281408810509775510000004763389379262575493_);}
	.st55{fill:url(#SVGID_00000163060100871852443530000013086546401643681463_);}
	.st56{fill:url(#SVGID_00000072243234226625138300000001976629630276529079_);}
	.st57{fill:url(#SVGID_00000070801169947751421980000000849634833421491092_);}
	.st58{fill:url(#SVGID_00000136401147624732096420000012437762354344276897_);}
	.st59{fill:url(#SVGID_00000164515314184165221460000010545241314167698366_);}
	.st60{fill:#989898;}
	.st61{fill:url(#SVGID_00000155859841068784184980000005002014640339786402_);}
	.st62{fill:url(#SVGID_00000023972528344747672570000009644569810217374654_);}
	.st63{fill:url(#SVGID_00000183207650857454043810000015493179478404930200_);}
	.st64{fill:url(#SVGID_00000004546331964311851470000003908964894212205758_);}
	.st65{fill:url(#SVGID_00000176036391723949191660000002296096173027831952_);}
	.st66{fill:url(#SVGID_00000176727154692925940400000005215422301964499863_);}
	.st67{fill:url(#SVGID_00000110447910663804749890000010751044759705225897_);}
</style>
<g id="RwRA3T.tif">
	<g>
		<path d="M77.2,96.9C75,96.4,72,95.8,69,95.1c-2.9-0.7-5.8-1.3-8.7-1.9c-1.7-0.4-2.3,0-2.9,1.7c-0.7,2.1-1.9,3.4-4.1,3.8
			c-1.4,0.3-1.8,1.3-1.8,2.6c-0.2,3.6-0.8,4.1-4.4,4.1c-4.4,0-8.8,0-13.2,0c-0.5,0-1,0-1.5,0c-2.3-0.2-2.9-0.9-3-3.2
			c-0.1-2.8-0.2-2.9-2.8-3.9c-1.5-0.6-2.6-1.6-3-3.3c-0.5-1.9-1.1-2.3-3.1-1.9c-5,1.1-10,2.3-15,3.4c-1,0.2-1.9,0.4-2.9,0.4
			c-1.5,0.1-2-0.4-2.1-1.9c-0.1-2.1-0.2-4.2-0.2-6.3c0-0.9-0.2-1.9-0.1-2.8c0.1-2.8,1.9-4.6,3.7-6.3c2.7-2.4,5.4-4.8,8.1-7.3
			c0.4-0.4,0.9-0.8,1.3-1.2c0.7-0.8,0.9-1.5,0-2.3c-1.2-1.1-2.3-2.4-3.4-3.6c-1-1.2-1.1-2.5-0.1-3.8c0.6-0.8,1.1-1.6,1.6-2.5
			c0.7-1.2,0.8-2.5,0.2-3.8c-0.6-1.4-1.2-2.7-1.7-4.1c-0.8-2.3-2.4-3.5-4.7-4.1c-3.6-0.8-4.4-1.8-4.5-5.5c0-1.6,0-3.2,0.1-4.8
			c0.1-1.7,1-2.9,2.8-3.3c0.9-0.2,1.8-0.5,2.7-0.7c1.6-0.5,2.6-1.5,3.2-3.2c0.4-1.2,0.9-2.5,1.5-3.6c1-1.9,0.9-3.7-0.1-5.5
			c-0.4-0.8-1-1.5-1.5-2.3c-0.8-1.3-0.7-2.6,0.3-3.7c1.7-1.8,3.4-3.4,5.2-5.1c1.2-1.1,2.5-1.2,4-0.3c1.2,0.7,2.4,1.4,3.7,2
			c0.9,0.5,1.8,0.4,2.8-0.1c1.2-0.6,2.4-1.2,3.7-1.6c2.4-0.7,3.8-2.3,4.4-4.7c0.2-0.7,0.3-1.4,0.5-2c0.4-1.5,1.6-2.4,3.1-2.4
			C38.9,0,40.9,0,42.9,0c2.8,0,4.1,1.1,4.4,3.9c0.3,2.7,1.7,4.3,4.3,5.1c1.2,0.4,2.4,0.9,3.5,1.4c1.6,0.8,3.2,0.7,4.7-0.3
			c4.2-2.7,4.7-2.7,8.3,0.8c1,0.9,1.9,1.8,2.7,2.8c1.4,1.7,1.4,3.4,0.1,5.2c-0.4,0.5-0.8,1.1-1.1,1.6c-1,1.6-1,3.2,0,4.9
			c0.6,1.1,1.2,2.4,1.5,3.6c0.6,2.2,2,3.3,4.1,3.5c3.9,0.4,4.8,2,5,5.9c0.1,1.4,0,2.8-0.2,4.2c-0.4,2.6-1.3,3.5-3.9,4.1
			c-0.5,0.1-1,0.2-1.5,0.3c-1.7,0.4-2.8,1.3-3.4,2.9c-0.6,1.7-1.4,3.3-2.1,5c-0.5,1.2-0.6,2.3,0.1,3.4c0.5,0.9,1,1.7,1.6,2.5
			c1,1.5,1.1,3,0,4.4c-0.9,1.2-2,2.2-3,3.2c-1.3,1.2-1.3,1.4-0.1,2.7c2.6,2.5,5.3,5,8,7.5c0.3,0.3,0.5,0.5,0.8,0.7
			c2.9,2.2,4.4,4.9,3.8,8.7c-0.3,2.1,0.1,4.3,0,6.4C80.5,96.7,80.2,97,77.2,96.9z M40.7,18.2c3.4,0,7.3,0.8,9.8,2.2
			c10.2,5.8,14.9,18.3,9.3,29.1c-1.3,2.5-2.1,5-2.3,7.8c-0.2,3,0.5,5.2,2.7,7c1,0.8,1.9,1.6,2.9,2.3c0.8,0.7,1.7,0.6,2.5-0.1
			c2-1.7,2.5-3.9,1.1-6.1c-1.6-2.5-1.8-4.9-0.1-7.5c0.6-0.9,1-2,1.3-3c1-3.8,3.2-5.9,7.1-6.2c1.2-0.1,1.8-0.8,1.7-2
			c0-0.9,0-1.7,0-2.6c0-2.3-0.3-2.6-2.5-3.1c-3.1-0.6-5-2.3-6-5.4c-0.6-1.8-1.4-3.4-2.2-5.1c-1-2.2-1-4.2,0.4-6.2
			c2-2.8,1.9-3.3-0.6-5.6c-0.2-0.2-0.4-0.3-0.6-0.5c-1.6-1.3-2.3-1.3-4,0c-2.3,1.9-4.4,2-7,0.7c-1.7-0.9-3.5-1.6-5.3-2.2
			c-2.3-0.8-3.8-2.4-4.4-4.7c-1.1-4.1-0.4-3.7-4.9-3.7c-2.4,0-2.9,0.5-3.2,2.9c-0.4,2.6-1.5,4.7-4.2,5.6c-1.9,0.6-3.8,1.4-5.7,2.2
			c-2.2,1-4.3,0.9-6.4-0.4c-0.5-0.3-1-0.7-1.5-1.1c-0.8-0.7-1.6-0.7-2.4,0c-0.8,0.7-1.5,1.4-2.2,2.1c-1.7,1.8-1.7,2.1-0.2,4.1
			c1.5,2.1,2,4.4,1,6.9c-0.9,2-1.7,4.1-2.5,6.2c-0.7,2-2.1,3.3-4.1,3.9C7.5,35.8,7,35.9,6.4,36c-1.9,0.3-2.5,1-2.5,2.9
			c0,0.8,0,1.6,0,2.4c0,1.7,0.4,2.2,2.1,2.4c3.8,0.4,5.7,2.6,6.8,6c0.4,1.4,0.9,2.8,1.7,4c1.6,2.4,1.4,4.6-0.3,6.8
			c-2,2.8-1.9,2.8,0.4,5.3c2,2.2,2.4,2.2,4.6,0.1c0.2-0.2,0.3-0.4,0.5-0.5c3.2-3.4,5.1-9.5,1.9-15c-2.7-4.6-3.6-9.7-2.5-14.9
			C21.2,25.1,30,18.2,40.7,18.2z M39.8,79.3c0,0.1,0,0.1,0,0.2c3.8,0,7.6,0,11.5,0c2,0,3.2-0.8,3.2-2.6c0-7.7,0-15.3-0.3-23
			c-0.1-2.8-0.8-5.6-1.5-8.4c-0.4-1.7-1.4-2.3-3.2-2.4c-0.9,0-1.7,0-2.6,0c-5.1,0-10.2,0-15.3,0c-2.7,0-3.3,0.6-3.9,3.1
			c-1.3,5.2-1.7,10.6-1.7,15.9c0,4.9,0.2,9.9,0.2,14.8c0,1.9,0.4,2.3,2.3,2.3C32.4,79.3,36.1,79.3,39.8,79.3z M57.7,66.5
			c0,0.8,0,1.2,0,1.6c0,6.1,0,12.1,0,18.2c0,2,0.2,2.4,2.2,3c3.7,1,7.4,1.9,11.1,2.7c1.6,0.4,3.2,0.7,4.8,1c0.8,0.1,1.4-0.1,1.5-1
			c0.3-3.9,0.2-7.6-3.1-10.5C69,76.9,64,72.2,59,67.5C58.6,67.2,58.3,67,57.7,66.5z M22.7,67c-0.7,0.6-1.1,0.9-1.4,1.2
			c-4.6,4.2-9.1,8.5-13.8,12.5C4,83.7,3,87.2,3.4,91.4c0.1,1.3,0.7,1.7,2,1.4c1.1-0.2,2.2-0.4,3.3-0.7c3.8-0.9,7.7-1.8,11.5-2.7
			c2.3-0.6,2.7-1.2,2.7-3.5c0-5.7,0-11.3,0-17C22.9,68.5,22.8,68,22.7,67z M56.8,47c3.2-7.3,2.1-16.8-6.7-22.5c-7.8-5-17.9-3.6-24,4
			C20.9,35,21.5,44.1,24,47c0.1-0.4,0.2-0.8,0.3-1.2c1.4-5.3,3.6-10.2,6.9-14.5c5.1-6.5,13.3-6.5,18.3,0c3.1,4.1,5.2,8.7,6.6,13.6
			C56.3,45.6,56.6,46.3,56.8,47z M49.9,39.6c-0.5-2.5-1.5-4.6-3.1-6.3c-4.2-4.5-9.3-4.7-13.1,0.5c-0.9,1.3-1.8,2.7-2.5,4.1
			c-0.7,1.2-0.4,1.7,1,1.8c0.3,0,0.7,0,1,0c4.9,0,9.8,0,14.7,0C48.4,39.7,49,39.6,49.9,39.6z M40.9,95.8c0-0.1,0-0.1,0-0.2
			c3.2,0,6.3,0.1,9.5,0c1,0,2-0.4,2.8-0.9c1-0.6,1.4-1.8,1-3c-0.4-1.1-1.4-1-2.3-1c-7.9,0-15.8,0-23.7,0c-1.6,0-2.4,1.3-1.8,2.8
			c0.6,1.4,1.8,1.8,3.1,1.9C33.3,95.6,37.1,95.7,40.9,95.8z M40.2,87.3C40.2,87.3,40.2,87.3,40.2,87.3c0.6,0,1.2,0,1.7,0
			c3.3,0,6.7,0,10,0c2.1,0,2.9-1,2.4-2.9c-0.3-1.2-1.3-1.3-2.2-1.3c-7.9,0-15.8,0-23.7,0c-1.7,0-2.1,0.5-2.1,2.2c0,1.6,0.5,2,2.3,2
			C32.4,87.3,36.3,87.3,40.2,87.3z M40.1,98.9C40.1,98.9,40.1,98.9,40.1,98.9c-1.9,0-3.9,0-5.8,0c-0.6,0-1.4,0.1-1.4,1
			c0,0.9,0.3,1.4,1.2,1.6c0.6,0.1,1.3,0.3,1.9,0.3c2.9,0,5.8,0,8.8,0c0.8,0,1.6-0.1,2.3-0.4c0.3-0.1,0.7-0.7,0.7-1.1
			c0-0.4-0.3-1-0.7-1.1c-0.5-0.3-1.2-0.3-1.8-0.3C43.6,98.9,41.8,98.9,40.1,98.9z"/>
		<linearGradient id="SVGID_1_" gradientUnits="userSpaceOnUse" x1="31.6626" y1="58.4405" x2="49.053" y2="58.4405">
			<stop  offset="0" style="stop-color:#2352A3"/>
			<stop  offset="1" style="stop-color:#28ADE3"/>
		</linearGradient>
		<path class="st0" d="M40.5,67.2c-5,0-8.9-3.8-8.9-8.8c0-5.1,3.9-8.9,9.2-8.8c4.5,0,8.1,4.1,8.2,9.1C49.1,63.8,44.8,67.6,40.5,67.2
			z M40.2,63.7c3.1,0,5.3-2.2,5.3-5.2c0-3-2.4-5.6-5.2-5.5c-2.8,0-5.4,2.8-5.4,5.7C35,61.6,37.2,63.7,40.2,63.7z"/>
	</g>
</g>
</svg>
