<?xml version="1.0" encoding="utf-8"?>
<!-- Generator: Adobe Illustrator 27.7.0, SVG Export Plug-In . SVG Version: 6.00 Build 0)  -->
<svg version="1.1" id="Layer_1" xmlns="http://www.w3.org/2000/svg" xmlns:xlink="http://www.w3.org/1999/xlink" x="0px" y="0px"
	 viewBox="0 0 89.9 97.9" style="enable-background:new 0 0 89.9 97.9;" xml:space="preserve">
<style type="text/css">
	.st0{fill:url(#SVGID_1_);}
	.st1{fill:#FFFFFF;}
	.st2{fill:url(#SVGID_00000028292788469545864210000017261326359834639803_);}
	.st3{fill:url(#SVGID_00000039825134385248200500000004063087695248121251_);}
	.st4{fill:url(#SVGID_00000001625232548415581880000017805450423761918124_);}
	.st5{fill:url(#SVGID_00000159446314640117840850000008719512841857713306_);}
	.st6{fill:url(#SVGID_00000084502612754956980140000011524905292985901981_);}
	.st7{fill:url(#SVGID_00000079465830061561611330000002698479515304489385_);}
	.st8{fill:url(#SVGID_00000116953531099187257620000013642710969370463104_);}
	.st9{fill:#231F20;}
	.st10{fill:url(#SVGID_00000121247458535900980850000009588395192865505471_);}
	.st11{fill:none;}
	.st12{fill:url(#SVGID_00000093154158116653708680000001468406750791904656_);}
	.st13{fill:url(#SVGID_00000045582197340108783130000009155041327099780001_);}
	.st14{fill:url(#SVGID_00000008110085529164793430000014633914948905951132_);}
	.st15{fill:url(#SVGID_00000125583767601363821740000010721016621565410692_);}
	.st16{fill:url(#SVGID_00000145059687595643963120000012708463966682245250_);}
	.st17{fill:url(#SVGID_00000107557845015530725190000014510290100973657258_);}
	.st18{fill:url(#SVGID_00000134936485561015430500000016697182204712670887_);}
	.st19{fill:url(#SVGID_00000046339416454753754880000011467810936868209540_);}
	.st20{fill:url(#SVGID_00000112594404145968165660000007321897825732606094_);}
	.st21{fill:url(#SVGID_00000087371260627123539130000002203316222759243936_);}
	.st22{fill:#064295;}
	.st23{fill:url(#SVGID_00000067200374029019309660000012812301455047408784_);}
	.st24{fill:#010101;}
	.st25{fill:url(#SVGID_00000049204474208929711590000012294968267404728213_);}
	.st26{fill:url(#SVGID_00000120540232046106800960000007947308025575980678_);}
	.st27{fill:#DFDFDF;}
	.st28{fill:url(#SVGID_00000071559358843164836580000003025707638071463101_);}
	.st29{fill:url(#SVGID_00000061456069146427315700000011334396403079609260_);}
	.st30{fill:#696969;}
	.st31{fill:url(#SVGID_00000001631083315772625920000014238425450498554003_);}
	.st32{fill:#F2F2F2;}
	.st33{fill:#D6D6D6;}
	.st34{fill:#E4E4E4;}
	.st35{fill:#DDDDDD;}
	.st36{fill:url(#SVGID_00000000200462163764118280000010757187009414981821_);}
	.st37{fill:url(#SVGID_00000019672781097502857090000007733205760869701797_);}
	.st38{fill:url(#SVGID_00000160192308156291989020000010318725180431871141_);}
	.st39{fill:url(#SVGID_00000178204378245123072550000013435830666436254108_);}
	.st40{fill:url(#SVGID_00000174595818487851709970000016572991632673174923_);}
	.st41{fill:url(#SVGID_00000013888683073097412480000005029712731064683913_);}
	.st42{fill:url(#SVGID_00000067930794060092197880000007408928837730372235_);}
	.st43{fill:url(#SVGID_00000029035314474231652820000001933614932367062417_);}
	.st44{fill:url(#SVGID_00000165948013543306730980000006838026953779393209_);}
	.st45{fill:url(#SVGID_00000066511856441219736460000014942864088705198486_);}
	.st46{fill:url(#SVGID_00000179619718992763366630000005055492864986523269_);}
	.st47{fill:url(#SVGID_00000125575236680591405090000010502561960962486428_);}
	.st48{fill:url(#SVGID_00000140731962718137787010000006220044259724128937_);}
	.st49{fill:url(#SVGID_00000138531007525169776520000002159470002375465914_);}
	.st50{fill:url(#SVGID_00000130605893420131789230000005940462803790331796_);}
	.st51{fill:url(#SVGID_00000156550679285895127630000000694194649842401458_);}
	.st52{fill:url(#SVGID_00000034050659938272339520000010144445272117764261_);}
	.st53{fill:url(#SVGID_00000110452840530937507960000010724439041198730163_);}
	.st54{fill:url(#SVGID_00000172428966669498795760000013133375318784085437_);}
	.st55{fill:url(#SVGID_00000146480812878584079590000015207815881671259541_);}
	.st56{fill:url(#SVGID_00000016771256481968273200000007346361474095539591_);}
	.st57{fill:url(#SVGID_00000039849111354789433340000001185595064822434464_);}
	.st58{fill:url(#SVGID_00000029035160029733148410000006143379845275539884_);}
	.st59{fill:url(#SVGID_00000021088453673777297490000012154395059709562020_);}
	.st60{fill:#989898;}
	.st61{fill:url(#SVGID_00000080897227841448172600000002573835846499031431_);}
	.st62{fill:url(#SVGID_00000174582795626538307810000017107014732882181766_);}
	.st63{fill:url(#SVGID_00000116921519826777627620000013912475842626667912_);}
	.st64{fill:url(#SVGID_00000012441391092622489860000012340189083403078054_);}
	.st65{fill:url(#SVGID_00000117666355307355580880000013362873855024373919_);}
	.st66{fill:url(#SVGID_00000000201666584843728400000016731770199006823597_);}
	.st67{fill:url(#SVGID_00000061473941819016244330000015376524271544715955_);}
</style>
<g id="WSwUJY.tif">
	<g>
		<path d="M0,11.5c0-1.1,0-2.1,0.1-3c0.1-0.9,0.2-2,0.6-2.8c1.5-3.2,4.2-5,7.6-5.5C11.1-0.1,13.9,0,16.6,0c2.4,0,3.1,0.7,3.1,3.1
			c0,4.2,0,8.5,0,12.7c0,1.4,0.1,1.5,1.5,1.5c12.9,0,25.8,0,38.7,0c1.1,0,1.9-0.3,2.7-1.1c3.8-3.9,7.7-7.7,11.5-11.5
			c1.1-1.1,2.3-2,3.6-2.8c1.3-0.9,2.9-1.2,4.5-0.7c2.7,0.8,4.7,2.6,6.1,5c1.7,3,1.2,6-1.3,8.4c-2.3,2.2-4.5,4.5-6.8,6.7
			c-1,1-1.4,2.1-1.4,3.4c0,5.6,0,18.3,0,23.9c0,0.5,0,0.9,0,1.6c0.4-0.3,0.6-0.5,0.7-0.6c1.7-1.7,3.4-3.4,5.1-5.2
			c1-1.1,2.2-1.3,3.6-0.7c1.3,0.6,1.6,1.7,1.6,3c0,5.1,0,10.2,0,15.3c0,11.2,0,22.4,0,33.6c0,1.9-0.6,2.4-2.4,2.4
			c-5.5,0-11,0-16.5,0c-10.7,0-21.5,0-32.2,0c-2.2,0-3-0.7-3.4-2.5c-0.2-1.2,0.4-1.9,1.1-2.7c2-2,4-4,5.9-6c0.5-0.5,1-1.1,1.6-1.7
			c0-0.1-0.1-0.2-0.1-0.3c-0.4,0-0.7,0-1.1,0c-10.6,0-21.2-0.1-31.8,0c-2.8,0-5.1-0.8-7.2-2.5c-2.2-1.8-3.7-4-3.4-7
			c0-0.6-0.1-1.2-0.1-1.9L0,11.5z M57.6,21.8c-0.1-0.2-0.2-0.4-0.3-0.6c-0.7-0.1-1.4-0.2-2.1-0.2c-11.1,0-22.3,0-33.4,0
			c-1.9,0-2,0.1-2,2c0,11.5,0,29.9,0,41.4c0,0.5,0,0.9,0,1.4c-0.1,0.8-0.4,1.5-1.4,1.6c-0.5,0.1-1.1,0.2-1.6,0.2c-2.2,0-4.4,0-6.7,0
			c-4.2,0.1-6.7,3.6-6.7,6.7c0,3.5,2.8,6.7,6.8,6.7c12.2-0.1,24.3,0,36.5,0c1.1,0,1.9-0.3,2.7-1.1c4.4-4.5,8.9-8.9,13.3-13.3
			c3.5-3.5,7-7,10.5-10.5c0.9-0.9,1.7-2,1.7-3.3c0-5.8,0-18.6,0-24.5c0-0.4-0.1-0.7-0.3-1.3c-0.7,0.7-1.3,1.2-1.8,1.7
			c-4.5,4.5-9,9-13.5,13.5c-1.6,1.6-3.2,3.2-5.6,3.9c-3.3,0.9-6.6,2-9.9,2.9c-1.8,0.5-3-0.6-2.6-2.4c0.8-3.2,1.9-6.3,2.7-9.5
			c0.5-2,1.6-3.7,3.1-5.2c3.1-3.1,6.3-6.2,9.4-9.3C56.7,22.2,57.2,22,57.6,21.8z M3.5,65.8c0.4-0.1,0.6-0.2,0.7-0.3
			c2.1-1.3,4.3-1.8,6.7-1.7c1.1,0,2.2,0,3.3,0c0.9,0,1.5-0.3,1.5-1.4c0-0.7,0.1-1.4,0.1-2.2c0-14.1,0-35.2,0-49.3
			c0-1.9-0.2-3.8-0.2-5.7c0-1-0.4-1.2-1.2-1.2c-1.6,0-3.2-0.1-4.8,0C6.6,4.1,4.1,6.4,3.6,9.7c-0.1,0.8-0.2,1.7-0.2,2.5
			c0,14.9,0,36.8,0,51.7C3.3,64.4,3.5,65,3.5,65.8z M41.4,93.4c-0.3,0.3-0.1,0.7,0.3,0.7h6.2c0.9,0.1,0.9-0.7,1-1.3
			c0.2-0.8,0.7-1.2,1.6-1.2c0.9-0.1,1.5,0.1,2,0.9c0.3,0.5,0.6,1,1.1,1.4c0.8,0.6,1.4,0.3,1.6-0.6c0.1-0.4,0.1-0.9,0.2-1.3
			c0.2-1,0.8-1.5,1.9-1.5c1.1,0,1.6,0.4,1.8,1.5c0.1,0.4,0.2,0.7,0.2,1.1c0.1,0.6-0.1,1.3,0.9,1.2c0.7-0.1,1.6,0.1,1.7-1.1
			c0.1-1,0.7-1.5,1.8-1.5c1,0,1.8,0.2,2,1.4c0.1,0.7,0.7,1.3,1.5,1.1c0.8-0.2,0.8-0.8,0.8-1.5c0-0.2,0-0.4,0-0.6
			c0.2-1,1.1-1.7,2.2-1.6c1,0.1,1.5,0.7,1.5,1.8c0,1.9,0,1.9,1.9,2c0.1,0,0.3,0,0.4,0c0.1-0.5,0.3-0.8,0.4-1.2
			c0.3-1.1,1.1-1.4,2.1-1.4c1.1,0,1.6,0.6,1.7,1.6c0.2,1.3,1.1,0.9,1.8,0.9c0.9,0.1,0.7-0.7,0.7-1.2c0-0.3,0-0.6,0.1-0.8
			c0.2-0.9,0.6-1.6,1.7-1.7c1.4-0.1,2.2,0.7,2.2,2.1c0,0.5-0.2,1.4,0.6,1.4c0.9,0,0.6-0.9,0.6-1.4c0-2.3-0.2-4.5-0.2-6.8
			c-0.1-7.1-0.2-14.2-0.2-21.3c0-4.5,0-8.9,0-13.4c0-0.5,0-1,0-1.3C72.1,63.2,58.4,76.8,44.9,90.2L41.4,93.4z M48.7,35.9
			c0.6,0.3,1.1,0.7,1.6,0.9c1.2,0.5,2.1,1.3,2.7,2.5c0.2,0.4,0.4,0.8,0.6,1.2c0.4,0.7,0.8,0.8,1.5,0.2c2-1.9,4-3.7,6-5.6
			c5.3-5.3,10.5-10.7,15.8-16c0.2-0.2,0.5-0.5,0.7-0.8c0.4-0.4,0.4-0.8,0-1.3c-1.1-1-2.1-2.1-3.1-3.2c-1.6-1.7-1.9-2-3.9,0.1
			c-6.9,6.9-13.9,13.9-20.8,20.8C49.4,35,49.1,35.4,48.7,35.9z M85.6,9.3c-0.2-0.5-0.3-0.9-0.6-1.2c-0.8-0.8-1.5-1.7-2.4-2.4
			c-1.3-1-2.4-1.1-3.7,0c-1,0.8-2,1.8-2.9,2.8c-0.4,0.4-0.3,0.9,0.1,1.3c1.5,1.5,3,3,4.5,4.4c0.2,0.2,0.8,0.2,1,0
			c1.1-1,2.2-2,3.2-3.1C85.2,10.6,85.3,9.9,85.6,9.3z M47.2,39.8c-0.4,1.4-0.7,2.5-1,3.6c0,0.1,0.4,0.5,0.6,0.5
			c0.9-0.2,1.7-0.4,2.6-0.7c0.6-0.1,0.7-0.5,0.3-0.9C49,41.5,48.2,40.7,47.2,39.8z"/>
		<linearGradient id="SVGID_1_" gradientUnits="userSpaceOnUse" x1="55.7192" y1="76.379" x2="80.9034" y2="76.379">
			<stop  offset="0" style="stop-color:#2352A3"/>
			<stop  offset="1" style="stop-color:#28ADE3"/>
		</linearGradient>
		<path class="st0" d="M68.2,89c-3.5,0-6.9,0-10.4,0c-1,0-1.6-0.4-1.9-1.2c-0.4-0.8-0.2-1.5,0.5-2.2c7-7,14-14,21-20.9
			c1-1,1.8-1.2,2.6-0.5c0.4,0.4,0.8,1,0.8,1.5c0.1,7.1,0,14.1,0,21.2c0,1.5-0.7,2-2.1,2C75.2,89,71.7,89,68.2,89
			C68.2,89,68.2,89,68.2,89z M76.9,71.5c-4.6,4.6-9.2,9.1-13.7,13.7c0,0,0.1,0.1,0.2,0.1c4,0,8.1,0,12.1,0c1,0,1.5-0.5,1.5-1.5
			c0-3.9,0-7.9,0-11.8C77,71.7,76.9,71.5,76.9,71.5z"/>
	</g>
</g>
</svg>
