<?xml version="1.0" encoding="utf-8"?>
<!-- Generator: Adobe Illustrator 27.7.0, SVG Export Plug-In . SVG Version: 6.00 Build 0)  -->
<svg version="1.1" id="Layer_1" xmlns="http://www.w3.org/2000/svg" xmlns:xlink="http://www.w3.org/1999/xlink" x="0px" y="0px"
	 viewBox="0 0 90.4 101.4" style="enable-background:new 0 0 90.4 101.4;" xml:space="preserve">
<style type="text/css">
	.st0{fill:url(#SVGID_1_);}
	.st1{fill:#FFFFFF;}
	.st2{fill:url(#SVGID_00000051383031517720554830000003364303553452130958_);}
	.st3{fill:url(#SVGID_00000094615033704199479590000015139953342857260730_);}
	.st4{fill:url(#SVGID_00000079478536457197621130000015794667684768190870_);}
	.st5{fill:url(#SVGID_00000062163323609493238350000001999136192279995807_);}
	.st6{fill:url(#SVGID_00000156551489007570623600000008772804429352702644_);}
	.st7{fill:url(#SVGID_00000026155838438996029190000002315749153874534065_);}
	.st8{fill:url(#SVGID_00000034803001779891300360000004321387652617998763_);}
	.st9{fill:#231F20;}
	.st10{fill:url(#SVGID_00000099656748583735183060000016129661852805485500_);}
	.st11{fill:none;}
	.st12{fill:url(#SVGID_00000182490430021032477430000004880553211540478859_);}
	.st13{fill:url(#SVGID_00000152229999863172713500000014975344403490587776_);}
	.st14{fill:url(#SVGID_00000039095491602679238750000011070361929531471807_);}
	.st15{fill:url(#SVGID_00000012433992432887786230000001610827910609703333_);}
	.st16{fill:url(#SVGID_00000059269321002877483530000013303399794499036330_);}
	.st17{fill:url(#SVGID_00000134946637769582890780000000663691718843401111_);}
	.st18{fill:url(#SVGID_00000051349111642334533830000018097496792950433191_);}
	.st19{fill:url(#SVGID_00000157282411960270107400000000161973382069168825_);}
	.st20{fill:url(#SVGID_00000018230228249180116830000014958268219383161021_);}
	.st21{fill:url(#SVGID_00000069379918261495483490000016839510150167989422_);}
	.st22{fill:#064295;}
	.st23{fill:url(#SVGID_00000113330751624388792850000008349996891969917373_);}
	.st24{fill:#010101;}
	.st25{fill:url(#SVGID_00000092433601187168906770000017650992622220498870_);}
	.st26{fill:url(#SVGID_00000183929208288555290310000010087878151545226914_);}
	.st27{fill:#DFDFDF;}
	.st28{fill:url(#SVGID_00000084519846564047345050000017508446174576045486_);}
	.st29{fill:url(#SVGID_00000095323249084265463960000004145396819380050096_);}
	.st30{fill:#696969;}
	.st31{fill:url(#SVGID_00000077325503850610775610000012891493115388106369_);}
	.st32{fill:#F2F2F2;}
	.st33{fill:#D6D6D6;}
	.st34{fill:#E4E4E4;}
	.st35{fill:#DDDDDD;}
	.st36{fill:url(#SVGID_00000160173025793374552530000002953441199360198028_);}
	.st37{fill:url(#SVGID_00000172403369164264898180000013272109814452120736_);}
	.st38{fill:url(#SVGID_00000131346878899581728430000015675971042151777933_);}
	.st39{fill:url(#SVGID_00000137126688395707484910000013005905708341734035_);}
	.st40{fill:url(#SVGID_00000016775981931180398470000000609944546723064254_);}
	.st41{fill:url(#SVGID_00000093178098738623807890000006044766359730055829_);}
	.st42{fill:url(#SVGID_00000003790165903574653310000009341746201482190997_);}
	.st43{fill:url(#SVGID_00000011016003170107502920000003865763385480166060_);}
	.st44{fill:url(#SVGID_00000008860806143591938650000010913362791367695505_);}
	.st45{fill:url(#SVGID_00000085209787526668983270000008578372781694856597_);}
	.st46{fill:url(#SVGID_00000170993428074385775620000005687019122883798447_);}
	.st47{fill:url(#SVGID_00000119820767195346396210000016763474806823669146_);}
	.st48{fill:url(#SVGID_00000065060878793395286770000012157189519032615081_);}
	.st49{fill:url(#SVGID_00000095304258372793270210000007011787574403094696_);}
	.st50{fill:url(#SVGID_00000182523846811225776530000012238252731188609207_);}
	.st51{fill:url(#SVGID_00000007424552817946999340000007033826587364180904_);}
	.st52{fill:url(#SVGID_00000103984620858689530500000006700837572716290471_);}
	.st53{fill:url(#SVGID_00000017504094562505131520000016596646746324758162_);}
	.st54{fill:url(#SVGID_00000080201083753910662370000013403667609592428216_);}
	.st55{fill:url(#SVGID_00000098929105779920990760000013811945534584203166_);}
	.st56{fill:url(#SVGID_00000111891661802541407500000016805269865173178780_);}
	.st57{fill:url(#SVGID_00000039132450690855421530000009695291656588411051_);}
	.st58{fill:url(#SVGID_00000012430526241360840050000006636092289492265641_);}
	.st59{fill:url(#SVGID_00000084532542801258531470000001162993065602753681_);}
	.st60{fill:#989898;}
	.st61{fill:url(#SVGID_00000152247061730021583340000012925184256592108211_);}
	.st62{fill:url(#SVGID_00000012466901390585734530000000621258902338537353_);}
	.st63{fill:url(#SVGID_00000147218750598353061580000007582390005625406872_);}
	.st64{fill:url(#SVGID_00000013195496812636385620000005307228595031656607_);}
	.st65{fill:url(#SVGID_00000115490732654639022130000005555087939474530196_);}
	.st66{fill:url(#SVGID_00000121248698378009255160000000708937775704920480_);}
	.st67{fill:url(#SVGID_00000109720672696679625890000010224717694922644645_);}
</style>
<path d="M84.7,47.4c-1.4-1.4-1.5-2-0.5-3.7c1.7-2.8,2.3-6,1.7-9.7c-0.6-3.9-2.4-7-5.4-9.4c-1.2-1-1.7-2.1-1.6-3.6
	c0.1-0.8,0-1.6-0.2-2.4c-1.1-5.1-5.6-10.4-13-9.8c-1,0.1-1.6-0.3-1.9-1.2l-0.2-0.5c-0.3-0.8-0.6-1.7-1.1-2.4
	c-1.8-2.6-4.9-4.4-8.2-4.6c-3.1-0.3-6.1,0.8-8.3,3.1c-1,1-1.7,0.8-2.7,0.1l-0.4-0.3c-1.3-1-2.7-2-4.2-2.5c-5-1.6-11.2,1.4-13,6.2
	c-0.4,1.1-0.9,2.2-2.6,2.3c-0.8,0-1.3,0.7-1.3,1.7c0,1.2,0.3,1.9,2,2.2c2.4,0.4,4.2,1.6,5.7,3.5l0.1,0.1c0.3,0.4,0.5,0.8,0.9,0.9
	c0.7,0.3,1.4,0.3,1.7,0.2c0.4-0.2,0.9-0.8,1-1.4c0.1-0.4-0.1-1.1-0.4-1.5c-0.5-0.7-1.1-1.3-1.6-2c-0.4-0.5-0.9-1-1.3-1.5
	c-0.4-0.5-0.8-1.1-0.8-1.6c0.1-1.3,1-2.7,2.5-3.8c1.5-1.2,3.4-1.8,4.8-1.6c4,0.7,6.3,3.5,6.3,7.8c0,11.6,0,23.4,0,34.7l0,2.9
	c0,0.4-0.1,0.7-0.1,1.1c0,0.2-0.1,0.3-0.1,0.5l0,0.2l-0.2,0c-2.6-0.3-4.8-1.2-7-3c-0.7-0.6-1.5-1.2-2.3-1.4
	c-0.5-0.1-1.4,0.1-1.8,0.5c-0.3,0.4-0.4,1.2-0.3,1.9c0,0.3,0.4,0.6,0.7,0.9l0.2,0.2c2.1,2,4.7,3.5,8.1,4.5c2.6,0.8,2.8,1.1,2.8,3.8
	c0,9,0,18,0,27c0,1,0,2-0.2,3.1c-0.4,4-2.4,6.8-6,8.2c-3.5,1.4-7,0.7-10.1-2c-0.4-0.3-0.7-0.8-0.9-1.3c-0.1-0.2-0.2-0.4-0.3-0.6
	l-0.2-0.2l0.5-0.2c0.5-0.2,0.9-0.4,1.4-0.6c0.1,0,0.1,0,0.2-0.1c0,0,0.1,0,0.1,0c0.1-0.2,0.3-0.4,0.5-0.6c0.4-0.5,0.9-1,1-1.5
	c0.1-0.3-0.6-1.2-1.1-1.5c-0.5-0.3-1.4-0.1-2-0.1c-5.7,0.9-11.2-2.6-12.8-8c-0.3-1.1-0.4-1.8-0.1-2.3c0.4-0.5,1.1-0.6,2.3-0.5
	c0.1,0,0.1,0,0.2,0c2.1,0,4.2-0.3,6-0.7c0.4-0.1,0.7-0.3,0.9-0.6c0.2-0.4,0.3-0.9,0.1-1.5c-0.2-1-1-1.5-2-1.4
	c-0.5,0.1-1.1,0.1-1.6,0.2c-6,0.9-11.7-2-14.2-7.3c-2.6-5.4-1.6-11.3,2.7-15.6C9,49,10.9,47.9,13.1,47c1.1-0.4,1.7-1.3,1.4-2.3
	c-0.3-1.2-1.1-1.7-2.4-1.4c-1.4,0.3-2.4-0.2-3.2-1.6c-2.4-4.1-1.8-9.3,1.5-13.1c0.7-0.8,1.1-1.2,1.5-1.2c0.4,0,0.8,0.3,1.4,1
	l0.2,0.2c1,1,2.3,1.9,3.7,2.8c0.9,0.5,1.6,0,2-0.6c0.7-1,0.2-1.8-0.3-2.3c-0.5-0.5-1-1-1.5-1.4c-1.5-1.2-2.4-2.7-2.7-4.5
	c-0.1-0.3-0.2-0.7-0.3-1.2c-0.3-0.9-0.9-1.3-1.8-1.3c-0.6,0-1.7,0.2-1.8,1.4c-0.1,1.5-1,2.3-1.9,3.2l-0.2,0.2
	c-3.2,2.9-4.9,6.2-5.2,10C3.4,38,4.1,41.1,5.7,44c0.9,1.7,0.9,1.9-0.5,3.2L5,47.4c-0.2,0.2-0.4,0.4-0.6,0.6
	c-3.1,3.1-4.5,6.3-4.4,9.8l0,0.9c0,1.3,0.1,2.7,0,4c-0.2,2.4,0.6,4.8,2.3,7c1.4,1.8,3.1,3.3,4.6,4.7c0.9,0.8,1.7,1.7,1.9,3.3
	c0.7,6.5,3.8,11,9.5,13.4c1.4,0.6,2.4,1.5,3.1,2.9c1.6,3.2,4.4,5.6,7.8,6.8c3.4,1.1,6.9,0.8,10.1-0.9c1.3-0.7,2.6-1.7,3.9-2.8
	c0.7-0.5,1.3-1.1,2.1-1.7l0.2-0.1l0.2,0.2c0.1,0.2,0.3,0.3,0.4,0.5c0.3,0.5,0.8,1.1,1.3,1.5c3.3,3.1,7.6,4.4,11.8,3.6
	c4.2-0.8,7.7-3.6,9.6-7.6c0.7-1.4,1.8-2.1,2.9-2.6c4.9-2.2,7.9-5.5,8.9-10.1c0.2-0.9,0.3-1.9,0.5-2.8l0.1-0.6
	c0.2-1.4,0.8-2.5,1.9-3.2c4-2.7,6.4-6.4,7.2-10.9C91.2,57.3,89.4,51.9,84.7,47.4z M85.8,63.9c-1,3.6-3.4,6.5-6.5,8.2l-0.2,0.1
	c-0.4,0.2-0.7,0.4-1.1,0.5c-0.9,0.3-1.3,1-1.1,2.1c0.7,5.1-1.2,9.1-5.6,12c-0.8,0.5-1.8,0.9-3,1.3c-1.5,0.4-2.3,1.2-2.7,2.5
	c-1,3.2-3.2,5.5-6.3,6.6c-0.9,0.3-1.9,0.5-2.9,0.5c-1.7,0-3.3-0.5-4.8-1.4c-2.4-1.5-4.1-4-4.4-6.8c-0.3-2.3-0.3-4.6-0.3-6.9
	c0-0.4,0-0.9,0-1.3c0-0.7,0.2-1.2,0.6-1.5c0.4-0.3,1-0.2,1.7,0.1c1.3,0.6,1.8,1.5,1.7,3c-0.2,2.2,0.5,4.3,1.9,5.6
	c1.4,1.3,3.2,1.8,5.3,1.4c2.8-0.5,4.9-3.4,4.5-6.3c-0.2-1.8-1.1-3.2-2.4-4.2c-1.1-0.8-2.5-1.2-4-0.9c-1.7,0.3-3-0.2-4-1.5
	c-0.8-1-1.8-1.4-3.4-1.4c-1.7,0-1.9-0.2-2-1.9c0-0.7,0-1.3,0-2c0-0.3,0-0.7,0-1c0-0.5,0.1-0.9,0.4-1.1c0.2-0.2,0.6-0.4,1.1-0.4
	c0,0,0.1,0,0.1,0c0.4,0,0.8,0,1.2,0c0.8,0,1.7-0.1,2.6,0c0.7,0.1,1.4,0.7,1.8,1.1c2.1,2.7,5,3.5,7.8,2.1c2.1-1.1,3.2-2.9,3.1-5.6
	c0-2.4-1.7-4.5-4-5.2c-1.8-0.6-4.3-0.7-6.1,1.6c-1.9,2.5-4.5,2.1-6.6,1.8c-0.5-0.1-1.2-1-1.2-1.6c-0.1-1.9-0.1-3.9-0.1-5.8l0-0.7
	c0-1.5,1.2-1.5,2-1.6c0.1,0,0.2,0,0.3,0l7.9,0v0l2,0c1.7,0,3.4,0,5.2,0c1.5,0,2.4,0.3,2.9,0.8c0.5,0.5,0.8,1.4,0.7,2.9
	c0,2.1,0.6,3.9,1.9,5.1c1.1,1.1,2.7,1.6,4.5,1.5c3.2-0.2,5.5-2.7,5.4-5.9c0-1.6-0.8-3.3-2.1-4.4c-1.1-1-2.4-1.4-3.7-1.3
	c-2.4,0.2-4-0.4-5.3-2.1c-0.3-0.4-1.1-0.6-1.8-0.6c-3.9,0-7.9,0-11.8,0c-2,0-4,0-6,0c-2,0-2.2-0.2-2.2-2.2c0-1.8,0-2.8,0.6-3.4
	c0.6-0.6,1.6-0.6,3.4-0.6l0.4,0c3.4,0,6.9,0,10.3,0c1.6,0,2.6-0.5,3.3-1.5c0.7-1,1.6-1.4,2.8-1.2c1.7,0.2,3.9,0.1,5.5-1.6
	c1.6-1.7,2.1-3.7,1.3-6c-0.7-2.3-2.3-3.6-4.7-3.9c-2.4-0.3-4.3,0.5-5.6,2.5c-0.9,1.3-1.2,2.6-1,4.1c0.2,1.2,0,2.1-0.6,2.7
	c-0.6,0.6-1.4,1-2.7,1c-3.3,0-6.7,0-10.3,0c-2.2,0-2.7-0.5-2.8-2.7c0-0.8,0-1.7,0-2.5c0-0.7,0-1.4,0-2.1c0-0.6,0.1-1.1,0.5-1.4
	c0.3-0.3,0.8-0.5,1.4-0.5c1.1,0,2.2,0,3.2,0c0,0,0,0,0,0c1.1,0,2-0.4,2.6-1.1c1.2-1.4,2.5-1.9,4.2-1.6c1.5,0.2,3-0.2,4.3-1.2
	c1.3-1.1,2-2.6,2.1-4.3c0.1-1.7-0.6-3.4-1.9-4.6c-1.1-1.1-2.5-1.7-4-1.6c-3.4,0.1-5.7,2.4-5.9,5.8c0,0.4,0,0.8,0,1.1
	c0,0.1,0,0.3,0,0.5c0,1-0.2,1.7-0.7,2.2c-0.5,0.5-1.2,0.7-2.1,0.7c-0.4,0-0.7,0-1,0c0,0,0,0-0.1,0c-2.6,0-2.7-0.1-2.7-3.2l0-2
	c0-3.5,0-7.1,0-10.7c0-1.4,0.2-2.6,0.6-3.6c1-2.9,3.8-4.7,6.7-4.5c3.1,0.3,5.7,2.6,6.4,5.6c0.1,0.4,0.1,0.8,0.2,1.2
	c0.1,0.5,0.1,0.9,0.2,1.4c0.2,1,0.8,1.4,1.9,1.2c0.9-0.2,1.6-0.4,2.4-0.6c2.2-0.7,4.9,0.1,7,2c2.2,2,3.3,4.8,2.7,7.4
	c0,0.2-0.1,0.4-0.1,0.6c0,0.2,0,0.3-0.1,0.5c-0.3,1.9-0.2,2.2,1.5,3.1c2.9,1.6,4.9,4.3,5.6,7.5c0.7,3.2,0,6.5-1.9,9.2
	c-0.3,0.4-0.6,0.8-0.9,1.1c-0.1,0.2-0.3,0.3-0.4,0.5c-0.7,0.8-1,1.5-0.9,2c0.1,0.5,0.5,1,1.4,1.5c2.4,1.4,4.1,3,5.2,4.8
	C86.4,56.3,86.9,60.2,85.8,63.9z M55.1,83.9l0.2-0.2c0.1-0.1,0.3-0.3,0.4-0.4c0.4-0.4,0.8-0.8,1.1-0.7c0.5,0.2,0.9,0.6,1.3,1.1
	c0.2,0.2,0.4,0.4,0.6,0.6l0.2,0.2l-0.3,0.2c-0.2,0.2-0.5,0.3-0.7,0.5c-0.4,0.4-0.8,0.6-1,0.6c-0.1,0-0.1,0-0.2-0.1
	c-0.5-0.3-0.9-0.8-1.2-1.2c-0.1-0.2-0.3-0.3-0.4-0.5L55.1,83.9z M57.1,67c0.3-0.7,1.1-1.3,1.8-1.4c0.5-0.1,0.9,0.1,1.2,0.3
	c0.4,0.3,0.6,0.8,0.6,1.4c0,0.4-0.1,0.9-0.5,1.2C60,68.8,59.4,69,58.9,69c0,0,0,0-0.1,0c-0.6,0-1.2-0.4-1.5-1
	C57,67.7,57,67.3,57.1,67z M71.9,59.9c0-0.9,0.8-1.8,2-2.1l0.1,0l0.1,0.1c0.1,0.2,0.3,0.3,0.5,0.5c0.4,0.4,0.8,0.8,1,1.3
	c0.1,0.2,0.1,0.6-0.1,0.9c-0.3,0.5-1,1.1-1.6,1.1c0,0-0.1,0-0.1,0c-0.4,0-0.9-0.2-1.3-0.5C72.2,60.8,71.9,60.4,71.9,59.9z
	 M67.1,36.7L67.1,36.7c0.1-1.1,0.7-1.7,1.7-1.8c0.6,0,1.1,0.2,1.5,0.5c0.3,0.3,0.5,0.7,0.4,1.2c-0.1,1.1-0.8,1.8-1.8,1.8
	c0,0,0,0-0.1,0C68,38.5,67.4,37.9,67.1,36.7L67.1,36.7z M57.4,23.3c0.2-0.7,0.9-1.4,1.5-1.7c0.3-0.1,0.8-0.1,1.2,0.2
	c0.5,0.3,1,0.9,1,1.4c0,0.4-0.2,0.9-0.5,1.3c-0.4,0.4-0.9,0.6-1.3,0.7c0,0,0,0,0,0c-0.6,0-1.2-0.3-1.6-0.8
	C57.3,24,57.2,23.6,57.4,23.3z"/>
<linearGradient id="SVGID_1_" gradientUnits="userSpaceOnUse" x1="15.3439" y1="46.5109" x2="25.5465" y2="46.5109">
	<stop  offset="0" style="stop-color:#2352A3"/>
	<stop  offset="1" style="stop-color:#28ADE3"/>
</linearGradient>
<path class="st0" d="M20.7,41.5c0.2,0.7,0.4,1.4,0.5,2.1c0.5,2.8-0.7,5.3-3.2,6.7c-0.2,0.1-0.4,0.2-0.6,0.2
	c-0.4,0.1-0.7,0.3-0.9,0.5c-0.6,0.8-0.9,1.4-0.9,1.9c0.1,0.4,0.7,1.1,1.3,1.3c0.5,0.2,1.2,0.1,2.1-0.2c3.9-1.3,6.3-5,6.3-9.7
	c-0.1-1.9-0.7-3.5-1.7-4.8c-0.3-0.4-0.7-0.6-1.2-0.6c-0.3,0-0.7,0.1-1.1,0.3c-0.8,0.4-1.1,1-0.8,1.9L20.7,41.5z"/>
<linearGradient id="SVGID_00000023241047306369726920000003989435967719410094_" gradientUnits="userSpaceOnUse" x1="22.1596" y1="71.4852" x2="34.6298" y2="71.4852">
	<stop  offset="0" style="stop-color:#2352A3"/>
	<stop  offset="1" style="stop-color:#28ADE3"/>
</linearGradient>
<path style="fill:url(#SVGID_00000023241047306369726920000003989435967719410094_);" d="M22.4,66.4c0,0.9,0.6,1.5,1.7,1.8
	c5.2,1.4,6.1,2.6,6.2,8c0,0.1,0,0.2,0,0.3c0,1,0.4,1.7,1.3,1.9c1.1,0.3,1.9-0.2,2.2-1.2c0.2-0.6,0.3-1.2,0.4-1.8
	c0-0.3,0.1-0.6,0.2-0.8c-0.1-3.3-1.5-6-4.2-8c-1.6-1.2-3.2-1.8-4.7-1.8c-0.5,0-0.9,0.1-1.4,0.2C23.3,64.9,22.4,65.4,22.4,66.4z"/>
<linearGradient id="SVGID_00000058570991648674197000000008912068936725574538_" gradientUnits="userSpaceOnUse" x1="24.1985" y1="25.954" x2="39.8629" y2="25.954">
	<stop  offset="0" style="stop-color:#2352A3"/>
	<stop  offset="1" style="stop-color:#28ADE3"/>
</linearGradient>
<path style="fill:url(#SVGID_00000058570991648674197000000008912068936725574538_);" d="M25.4,26.5c1.9,1.6,4.1,2.4,6.8,2.5
	c2.1-0.1,4.8-0.6,6.8-2.8c0.4-0.5,0.6-0.8,0.5-0.9c-0.1-0.8-0.3-1.7-0.8-2.1c-0.6-0.5-1.5-0.5-2.3,0.1c-3.1,2.5-6,2.5-8.9,0.1
	c-0.3-0.3-0.9-0.4-1.3-0.4c0,0-0.1,0-0.1,0c-1,0-1.4,0.7-1.6,1.2C24.3,25,24.5,25.8,25.4,26.5z"/>
<linearGradient id="SVGID_00000091735169069150656490000017829726397145274815_" gradientUnits="userSpaceOnUse" x1="13.5115" y1="13.6037" x2="17.7014" y2="13.6037">
	<stop  offset="0" style="stop-color:#2352A3"/>
	<stop  offset="1" style="stop-color:#28ADE3"/>
</linearGradient>
<path style="fill:url(#SVGID_00000091735169069150656490000017829726397145274815_);" d="M15.5,15.4C15.5,15.4,15.6,15.4,15.5,15.4
	c1.2-0.1,2-0.8,1.9-1.9c0-1-0.7-1.7-1.8-1.7c0,0,0,0,0,0c-0.6,0-1.1,0.2-1.5,0.5c-0.3,0.3-0.4,0.8-0.4,1.4
	C13.8,14.7,14.5,15.4,15.5,15.4z"/>
</svg>
