<?xml version="1.0" encoding="utf-8"?>
<!-- Generator: Adobe Illustrator 27.7.0, SVG Export Plug-In . SVG Version: 6.00 Build 0)  -->
<svg version="1.1" id="Layer_1" xmlns="http://www.w3.org/2000/svg" xmlns:xlink="http://www.w3.org/1999/xlink" x="0px" y="0px"
	 viewBox="0 0 135.4 99.9" style="enable-background:new 0 0 135.4 99.9;" xml:space="preserve">
<style type="text/css">
	.st0{fill:url(#SVGID_1_);}
	.st1{fill:#FFFFFF;}
	.st2{fill:url(#SVGID_00000015354621808815066700000000993099273809750710_);}
	.st3{fill:url(#SVGID_00000147183371106363828800000012043246824067798940_);}
	.st4{fill:url(#SVGID_00000052089032261335354080000001367743327965676461_);}
	.st5{fill:url(#SVGID_00000166654285418897500150000001776152712032289413_);}
	.st6{fill:url(#SVGID_00000003066066532541367940000009096832338093517496_);}
	.st7{fill:url(#SVGID_00000026132529713381731800000014025550951488469905_);}
	.st8{fill:url(#SVGID_00000026122110565101481210000014315721141292801688_);}
	.st9{fill:#231F20;}
	.st10{fill:url(#SVGID_00000112622026786258872860000004087290548601741237_);}
	.st11{fill:none;}
	.st12{fill:url(#SVGID_00000178199930381653908850000014056242290710537374_);}
	.st13{fill:url(#SVGID_00000160159975538365908430000002002590421911558832_);}
	.st14{fill:url(#SVGID_00000081647295088311976060000006092012090228652193_);}
	.st15{fill:url(#SVGID_00000042706461612007395400000012514136633655891112_);}
	.st16{fill:url(#SVGID_00000155858471368101498930000014964245085467692458_);}
	.st17{fill:url(#SVGID_00000112614259865197545470000018028031709829216416_);}
	.st18{fill:url(#SVGID_00000160870100393540163300000009032211379881571500_);}
	.st19{fill:url(#SVGID_00000054955731033826132740000010216202911442458274_);}
	.st20{fill:url(#SVGID_00000039815418736049557040000004332478051281833149_);}
	.st21{fill:url(#SVGID_00000183970502930767970130000002607881383493746614_);}
	.st22{fill:#064295;}
	.st23{fill:url(#SVGID_00000070077292705757530600000002580770521640766902_);}
	.st24{fill:#010101;}
	.st25{fill:url(#SVGID_00000001625674787361805140000015662900547750583710_);}
	.st26{fill:url(#SVGID_00000047748884095070653810000006477457265643888790_);}
	.st27{fill:#DFDFDF;}
	.st28{fill:url(#SVGID_00000094613888068601018090000016149705847979672973_);}
	.st29{fill:url(#SVGID_00000047022545835534348870000011345173407462453913_);}
	.st30{fill:#696969;}
	.st31{fill:url(#SVGID_00000048500044256604207670000010875353851684616855_);}
	.st32{fill:#F2F2F2;}
	.st33{fill:#D6D6D6;}
	.st34{fill:#E4E4E4;}
	.st35{fill:#DDDDDD;}
	.st36{fill:url(#SVGID_00000073697512073811692030000017146996907128922257_);}
	.st37{fill:url(#SVGID_00000079459775338052794770000014167016289340806319_);}
	.st38{fill:url(#SVGID_00000111155580366479060710000004690588063558282400_);}
	.st39{fill:url(#SVGID_00000008861290542723281210000007979405134638990269_);}
	.st40{fill:url(#SVGID_00000054227675763236388500000011417846788888348037_);}
	.st41{fill:url(#SVGID_00000110432851210333564670000006874801568654157998_);}
	.st42{fill:url(#SVGID_00000142144161982044142640000003948128218966904986_);}
	.st43{fill:url(#SVGID_00000140001828739259651020000008600983042024268953_);}
	.st44{fill:url(#SVGID_00000028314558560135418660000015213758751769524123_);}
	.st45{fill:url(#SVGID_00000134243125460451242690000004779038751291736454_);}
	.st46{fill:url(#SVGID_00000084503551227150395240000014334758593461187718_);}
	.st47{fill:url(#SVGID_00000095303013077197707030000012245771393305224362_);}
	.st48{fill:url(#SVGID_00000175284381007183778730000008957535258890848959_);}
	.st49{fill:url(#SVGID_00000134949197697151010270000004214850283901314489_);}
	.st50{fill:url(#SVGID_00000142173872909970350530000010931488414882160800_);}
	.st51{fill:url(#SVGID_00000119095205397818723480000003615441033812686511_);}
	.st52{fill:url(#SVGID_00000083048470731241962990000014890286710043522947_);}
	.st53{fill:url(#SVGID_00000159434350607588580630000002902035332007194554_);}
	.st54{fill:url(#SVGID_00000148663532680545848470000004520684437940014516_);}
	.st55{fill:url(#SVGID_00000000917484922979432910000014933726643261274008_);}
	.st56{fill:url(#SVGID_00000044151100495249147660000010966368421219648388_);}
	.st57{fill:url(#SVGID_00000165935857232292455040000017111911448993707446_);}
	.st58{fill:url(#SVGID_00000075126016935385966090000008700270109425529999_);}
	.st59{fill:url(#SVGID_00000153687573635251833350000014201015489916594100_);}
	.st60{fill:#989898;}
	.st61{fill:url(#SVGID_00000064320571849593782120000009567768217654472846_);}
	.st62{fill:url(#SVGID_00000147185255014615776140000014681925454808858516_);}
	.st63{fill:url(#SVGID_00000109742634560639681900000018220740986075463837_);}
	.st64{fill:url(#SVGID_00000165199735951400981380000009312048316847375778_);}
	.st65{fill:url(#SVGID_00000151517116819508424810000006372821089427683003_);}
	.st66{fill:url(#SVGID_00000058582462572831872470000017309116608745896849_);}
	.st67{fill:url(#SVGID_00000030471370355579654600000005461301860442136992_);}
</style>
<g>
	<path d="M20.2,71.5c0,2.7,0,5.2,0,7.6c0,4.1-2.9,7.2-6.7,7.2c-4,0-6.8-3-6.8-7.2c0-2.6,0-5.1,0-7.7C2,69.6-0.1,66.8,0,62.9
		c0.1-3.7,2.4-6.4,6.6-7.8c0-2.6,0-5.2,0-7.8c0-4.1,2.8-7.2,6.7-7.2c3.9,0,6.8,3,6.8,7.1c0,2.5,0,5,0,7.6c1.3,0,2.5,0,3.8,0
		c0-2,0-14,0-16c0-5.8,3.1-8.9,9-8.9c1.7,0,3.4,0.1,5.1-0.1c0.9-0.1,2-0.7,2.7-1.3c1.2-1.2,2-2.6,3-3.9c1.8-2.3,4.1-3.5,7-3.5
		c1.9,0,3.8,0,5.8,0c0-2.1,0-3.9,0-5.8c-0.1-0.1-0.2-0.2-0.2-0.2c-3.4,0.2-6-2.4-5.7-6.2c0.1-1.9,0.1-3.8,1.2-5.5
		c1.5-2.2,3.5-3.2,6.1-3.4c1.6-0.1,3.2-0.1,4.8,0c1.7,0.1,2.7,1,2.7,2.4c0,1.5-1,2.5-2.8,2.5c-1.5,0-2.9,0-4.4,0
		c-1.9,0-2.7,0.9-2.8,2.8c0,0.7,0,1.5,0,2.3c9.8,0,19.5,0,29.3,0c0-1,0.1-2,0-3C84.7,5.7,83.8,5,82.3,5c-3,0-6,0-9.1,0
		c-2.2,0-3.6-2-2.5-3.6c0.4-0.6,1.4-1.2,2.2-1.3c3.3-0.1,6.6-0.2,9.8,0c4.1,0.2,6.8,3.2,6.9,7.3c0,0.6,0,1.2,0,1.8
		c0,3.9-1.7,5.7-5.9,5.9c0,1,0,1.9,0,2.9c0,1,0,1.9,0,3.1c1.4,0,2.8,0,4.1,0c3.3-0.1,6.1,0.9,8.1,3.8c1.1,1.6,2.3,3.1,3.7,4.4
		c0.8,0.7,1.9,1.4,2.9,1.5c4.2,0.4,7.4,3.6,7.5,7.9c0,1.8,0,13.5,0,15.4c2,0,3.9,0,6.1,0c0-0.8,0-11.6,0-12.5
		c0.1-4.2,3.2-7.3,7.4-7.4c1.5,0,3,0,4.5,0c3.9,0.1,7.1,3.2,7.1,7.1c0,1.8,0,13.6,0,15.4c0,1.6-0.9,2.6-2.3,2.6
		c-1.5,0-2.4-1-2.5-2.6c0-1.6,0-13.2,0-14.8c0-1.9-1-2.8-2.9-2.9c-1.1,0-2.1,0-3.2,0c-2.4,0-3.2,0.8-3.2,3.2c0,2.6,0,15.1,0,17.7
		c0,7.6,0,15.2,0,22.8c0,2.8,0.7,3.5,3.5,3.5c0.9,0,1.8,0,2.7,0c2.3,0,3.1-0.8,3.1-3.1c0-5.4,0-10.8,0-16.2c0-2.1,1.8-3.4,3.4-2.4
		c0.7,0.4,1.4,1.4,1.4,2.1c0.1,6,0.1,12,0,18c-0.1,3.3-3.1,6.2-6.5,6.4c-1.9,0.1-3.7,0.1-5.6,0c-3.7-0.2-6.7-3.2-6.9-6.9
		c0-0.9,0-1.9,0-2.9c-2,0-3.9,0-6,0c0,0.5-0.1,0.9-0.1,1.4c0,3,0,6,0,9.1c0,4.8-3.3,8.2-8.1,8.3c-7.2,0.1-14.4,0-21.6,0
		c-1.9,0-3-0.9-3-2.5c0-1.5,1.1-2.5,3-2.5c6.9,0,13.9,0,20.8,0c3,0,4-0.9,4-4c0-13.8,0-37.6,0-51.4c0-2.8-0.9-3.8-3.8-4
		c-2.1-0.2-3.8-1.1-5.2-2.7c-1.5-1.8-3-3.5-4.5-5.3C91.1,26.5,90,26,88.7,26c-12.6,0-25.2,0-37.8,0c-1.4,0-2.4,0.5-3.2,1.6
		c-1,1.4-2.1,2.7-3.1,4.1c-1.3,1.8-3.1,2.8-5.2,2.9c-2.3,0.2-4.5,0.2-6.8,0.2c-2.7,0.1-3.7,1-3.7,3.6c0,6.8,0,23.7,0,30.5
		c0,0.9,0.3,1.9,0.7,2.7c1.4,2.7,2.9,5.3,4.3,7.9c0.7,1.3,1.7,1.8,3,1.8c0.8,0,1.5,0,2.3,0c2.3-0.1,4.2,0.7,6,2.1
		c3.8,3.2,7.6,6.4,11.4,9.7c1.2,1.1,2.5,1.6,4.2,1.6c2.8-0.1,5.5,0,8.3,0c0.4,0,0.7,0,1.1,0c1.4,0.2,2.4,1.2,2.5,2.4
		c0,1.3-1,2.4-2.4,2.5c-3.9,0.1-7.8,0.1-11.6-0.2c-1.4-0.1-3-0.9-4.2-1.8c-4.1-3.3-8.1-6.7-12-10.1c-1.1-0.9-2.2-1.4-3.6-1.3
		c-0.8,0-1.6,0-2.4,0c-2.9-0.1-5.1-1.5-6.5-4c-1.9-3.3-3.6-6.7-5.5-10.1c-0.2-0.4-0.6-0.8-1-0.8C22.4,71.5,21.4,71.5,20.2,71.5z
		 M23.9,59.9c-4.9,0-9.5,0-14.2,0c-0.7,0-1.5,0-2.2,0.2c-1.9,0.4-3,2.3-2.4,4.1c0.5,1.6,1.6,2.4,3.9,2.4c4.6,0,9.2,0,13.9,0
		c0.4,0,0.8-0.1,1.1-0.1C23.9,64.3,23.9,62.2,23.9,59.9z M78.8,21.1c0-2.1,0-4,0-5.9c-5.8,0-11.5,0-17.1,0c0,2.1,0,4,0,5.9
		C67.5,21.1,73.1,21.1,78.8,21.1z M110.3,76c2,0,4,0,5.9,0c0-5.7,0-11.4,0-17c-2,0-3.9,0-5.9,0C110.3,64.7,110.3,70.3,110.3,76z
		 M15.3,55c0-2.8,0-5.5,0-8.2c0-1-0.7-1.8-1.7-1.7c-0.7,0.1-1.8,0.9-1.8,1.4c-0.2,2.8-0.1,5.7-0.1,8.5C12.9,55,13.9,55,15.3,55z
		 M11.5,71.6c0,2.8,0,5.4,0,8c0,1.1,0.6,1.9,1.8,2c1.1,0,1.8-0.7,1.9-1.8c0.1-2.7,0-5.4,0-8.1C14,71.6,12.8,71.6,11.5,71.6z"/>
</g>
<linearGradient id="SVGID_1_" gradientUnits="userSpaceOnUse" x1="40.5862" y1="61.7569" x2="99.953" y2="61.7569">
	<stop  offset="0" style="stop-color:#2352A3"/>
	<stop  offset="1" style="stop-color:#28ADE3"/>
</linearGradient>
<path class="st0" d="M58.4,34.8c5.1,0.1,9.5,1.9,13,5.7c2.9,3.1,5.8,6.3,8.6,9.5c1.3,1.4,1.3,2.8,0.2,3.8c-1.1,1-2.5,0.8-3.8-0.6
	c-3-3.3-5.9-6.6-9-9.8c-6.8-6.9-18.3-4-21.2,5.1c-1.8,5.7,0.5,11.7,5.8,14.9c10.1,6.1,20.2,12.1,30.3,18.1c1.1,0.7,2.3,1.4,3.5,1.8
	c3.1,1,6.3-0.3,8-3c1.7-2.7,1.6-6.1-0.6-8.5c-2.6-3-5.3-5.9-8-8.9c-0.6-0.7-1.2-1.3-1.8-2c-1-1.2-1-2.5,0-3.5c1-1,2.5-0.8,3.6,0.3
	c0.6,0.6,1.1,1.2,1.6,1.8c2.7,3,5.5,5.9,8.1,9c3.5,4,4.1,8.9,1.7,13.4c-2.4,4.6-7.1,7.2-12.2,6.5c-1.7-0.2-3.5-0.9-5-1.8
	c-10.7-6.3-21.3-12.7-31.8-19c-6.8-4.1-10-11.4-8.5-18.8c1.6-7.4,7.5-12.9,15.2-14C56.9,34.9,57.6,34.9,58.4,34.8z"/>
<path d="M48.7,52.3c0-5.5,4.6-10.1,10.1-10.1c5.5,0.1,10.1,4.7,10,10.2c0,5.5-4.6,10.1-10.1,10.2C53.3,62.6,48.7,58,48.7,52.3z
	 M58.9,47.2c-2.9-0.1-5.3,2.2-5.4,5.1c0,2.9,2.2,5.2,5.1,5.3c2.9,0.1,5.3-2.2,5.3-5.2C64,49.6,61.8,47.3,58.9,47.2z"/>
<path d="M86.9,77.8c-1.3,0-2.5-1.1-2.4-2.3c0-1.2,1.1-2.3,2.3-2.3c1.4,0,2.4,1,2.4,2.3C89.2,76.8,88.1,77.8,86.9,77.8z"/>
</svg>
