<?xml version="1.0" encoding="utf-8"?>
<!-- Generator: Adobe Illustrator 27.7.0, SVG Export Plug-In . SVG Version: 6.00 Build 0)  -->
<svg version="1.1" id="Layer_1" xmlns="http://www.w3.org/2000/svg" xmlns:xlink="http://www.w3.org/1999/xlink" x="0px" y="0px"
	 viewBox="0 0 100.4 100.4" style="enable-background:new 0 0 100.4 100.4;" xml:space="preserve">
<style type="text/css">
	.st0{fill:url(#SVGID_1_);}
	.st1{fill:#FFFFFF;}
	.st2{fill:url(#SVGID_00000037663032315514780140000004946429264012969146_);}
	.st3{fill:url(#SVGID_00000176731560836462307820000017244932120277664147_);}
	.st4{fill:url(#SVGID_00000099646075239504561170000000442556876040265866_);}
	.st5{fill:url(#SVGID_00000074419201697323786340000013536934022205444271_);}
	.st6{fill:url(#SVGID_00000033328503419616934250000003985438150735521963_);}
	.st7{fill:url(#SVGID_00000074420013599346413960000000860228999779036055_);}
	.st8{fill:url(#SVGID_00000154407578871312360500000005736557435541389754_);}
	.st9{fill:#231F20;}
	.st10{fill:url(#SVGID_00000046327526625752835850000015582824298864607896_);}
	.st11{fill:none;}
	.st12{fill:url(#SVGID_00000046333351110672841820000005431938866044635778_);}
	.st13{fill:url(#SVGID_00000012458360930631692310000016803203156015234449_);}
	.st14{fill:url(#SVGID_00000044159585661533791160000015356509980839245985_);}
	.st15{fill:url(#SVGID_00000174571844433485548910000018142347982878965136_);}
	.st16{fill:url(#SVGID_00000103235003812186920310000013575344252730046363_);}
	.st17{fill:url(#SVGID_00000085935435403847444990000001870851687963660432_);}
	.st18{fill:url(#SVGID_00000114047689879954708000000010652414851009757587_);}
	.st19{fill:url(#SVGID_00000136389867285271791290000012624764279661509504_);}
	.st20{fill:url(#SVGID_00000139998446122129258940000017690365992163707559_);}
	.st21{fill:url(#SVGID_00000171689972220926388080000008911561245759628974_);}
	.st22{fill:#064295;}
	.st23{fill:url(#SVGID_00000139982847401760940440000018009835860472514731_);}
	.st24{fill:#010101;}
	.st25{fill:url(#SVGID_00000105394557882026832290000003872712986725584290_);}
	.st26{fill:url(#SVGID_00000119094968622969372840000014916456300597773468_);}
	.st27{fill:#DFDFDF;}
	.st28{fill:url(#SVGID_00000144323618404889715660000012840960368961367685_);}
	.st29{fill:url(#SVGID_00000105386832335461573160000001718009954454083241_);}
	.st30{fill:#696969;}
	.st31{fill:url(#SVGID_00000048503214829726780500000017688250202309286328_);}
	.st32{fill:#F2F2F2;}
	.st33{fill:#D6D6D6;}
	.st34{fill:#E4E4E4;}
	.st35{fill:#DDDDDD;}
	.st36{fill:url(#SVGID_00000172411292763812025280000001389724437311430329_);}
	.st37{fill:url(#SVGID_00000178184923570953719450000003483136630905330584_);}
	.st38{fill:url(#SVGID_00000093153387397834322390000018223284467370172842_);}
	.st39{fill:url(#SVGID_00000000190808700278454150000017576382046944998077_);}
	.st40{fill:url(#SVGID_00000058552737604112136830000004814627734952366241_);}
	.st41{fill:url(#SVGID_00000042705431603334794920000002739957822134709941_);}
	.st42{fill:url(#SVGID_00000112621764737270156290000013211632183369255071_);}
	.st43{fill:url(#SVGID_00000114064072757455604570000013699546338562069907_);}
	.st44{fill:url(#SVGID_00000106130509428279821800000018116239685255702414_);}
	.st45{fill:url(#SVGID_00000113348274985563192250000007184569788882248845_);}
	.st46{fill:url(#SVGID_00000071523238416312298890000017493185291125194678_);}
	.st47{fill:url(#SVGID_00000142147612307809250990000007772296642397681312_);}
	.st48{fill:url(#SVGID_00000018210785897720865470000010209285135143412631_);}
	.st49{fill:url(#SVGID_00000003078053774595708170000007143247361136935855_);}
	.st50{fill:url(#SVGID_00000140012743222266491100000009884628639136671624_);}
	.st51{fill:url(#SVGID_00000163059866636546118470000012662506791343594641_);}
	.st52{fill:url(#SVGID_00000046322140284538130440000012298936417456007822_);}
	.st53{fill:url(#SVGID_00000087403881279221130910000016382142681887545760_);}
	.st54{fill:url(#SVGID_00000099663937164275630620000000011435661492828041_);}
	.st55{fill:url(#SVGID_00000134238242907545841740000007917509939551937206_);}
	.st56{fill:url(#SVGID_00000051374087783982238550000005979199654611825291_);}
	.st57{fill:url(#SVGID_00000140704920098814823530000007940281575758497941_);}
	.st58{fill:url(#SVGID_00000101785893149556618700000004268390742574241951_);}
	.st59{fill:url(#SVGID_00000127751734461109010010000015144853748705199014_);}
	.st60{fill:#989898;}
	.st61{fill:url(#SVGID_00000083067112934838180900000002672542184159116673_);}
	.st62{fill:url(#SVGID_00000002345156416815296790000000251665513799892398_);}
	.st63{fill:url(#SVGID_00000176739785085364444390000012236929772490301570_);}
	.st64{fill:url(#SVGID_00000009585683396820040400000011303370111040914869_);}
	.st65{fill:url(#SVGID_00000054248348912654772460000002236808363242607513_);}
	.st66{fill:url(#SVGID_00000029010165164076089550000004393826951967155344_);}
	.st67{fill:url(#SVGID_00000037668287635425447780000002785908852731151262_);}
</style>
<g>
	<path class="st9" d="M99.9,44.1c-0.2-1.7-1.4-2.9-3.1-3.2c-1.5-0.2-3.1-0.4-4.7-0.6c-0.6-0.1-0.7-0.1-0.8-0.6
		c-0.9-4-2.5-7.9-4.8-11.5c-0.2-0.3-0.2-0.3,0.1-0.5c1.1-1.3,2.1-2.6,2.9-3.6c1.4-1.8,1.4-3.4,0-5.1c-2.3-2.9-5-5.6-7.9-8
		c-1.9-1.5-3.5-1.5-5.4,0c-1,0.8-1.9,1.5-2.9,2.3L72.4,14c-0.1-0.1-0.2-0.1-0.3-0.2C68.4,11.6,64.5,10,60.5,9
		C60.1,8.9,60,8.9,60,8.3c-0.2-1.7-0.3-3.3-0.6-4.7c-0.3-1.8-1.4-2.9-3.2-3.2c-0.6-0.1-1.2-0.2-1.7-0.3L53.7,0l-7.1,0l-0.8,0.1
		c-0.6,0.1-1.2,0.2-1.7,0.3c-1.8,0.3-2.9,1.4-3.2,3.2c-0.2,1.5-0.4,3.1-0.6,4.8c0,0.5-0.1,0.5-0.5,0.6c-4,0.9-8,2.6-11.7,4.9
		c0,0-0.1,0.1-0.1,0.1l-3.6-2.9c-2.1-1.7-3.6-1.7-5.7,0c-2.9,2.3-5.5,5-7.8,7.8c-1.4,1.7-1.4,3.4,0,5.1c0.8,1,1.6,2,2.3,2.9l0.6,0.8
		l-1,2.3c-1,2.3-2,4.6-3,6.9c-0.4,0.9-0.7,1.9-0.9,3c-0.1,0.3-0.1,0.3-0.5,0.4c-1.5,0.1-3.1,0.3-4.6,0.5c-2.2,0.3-3.2,1.3-3.5,3.5
		c-0.1,0.5-0.2,1-0.2,1.5L0,46.6l0,7.1l0.1,0.8c0.1,0.5,0.1,1,0.2,1.5c0.4,2.2,1.4,3.2,3.5,3.5c1.6,0.2,3,0.4,4.4,0.5
		c0.6,0,0.7,0.1,0.8,0.6c0.6,2.2,1.1,3.9,1.8,5.4c0.7,1.6,1.5,3.2,2.3,4.8c0.3,0.5,0.5,1.1,0.8,1.7l-0.7,0.9c-0.8,1-1.6,2-2.3,3
		c-1.3,1.7-1.3,3.4,0,5c2.4,3,5.1,5.7,8.1,8.1c1.7,1.4,3.4,1.4,5.1,0c1.4-1.1,2.6-2,3.6-2.9c0.3-0.2,0.3-0.2,0.5-0.1
		c3.7,2.3,7.5,3.9,11.5,4.8c0.4,0.1,0.5,0.2,0.6,0.8c0.1,1.6,0.3,3.2,0.6,4.7c0.3,1.8,1.4,2.9,3.2,3.1c2,0.3,4,0.4,6.1,0.4
		c2,0,4-0.1,6-0.4c1.9-0.2,3-1.4,3.3-3.2c0.2-1.1,0.3-2.1,0.4-3.2c0.1-0.6,0.1-1.1,0.2-1.8c0-0.1,0-0.3,0-0.3c0,0,0,0,0.1,0
		c4.3-1,8.3-2.7,12.1-5c0.1,0,0.1-0.1,0.1-0.1c0,0,0.1,0,0.2,0.1c1.3,1.1,2.6,2.1,3.8,3c1.7,1.3,3.3,1.3,5,0c3-2.4,5.7-5.1,8.1-8.1
		c1.3-1.7,1.3-3.3,0-5c-1.1-1.4-2-2.6-3-3.8c-0.1-0.1-0.1-0.2-0.1-0.2c0,0,0-0.1,0.1-0.2c2.2-3.6,3.9-7.6,4.9-11.7
		c0.1-0.4,0.1-0.4,0.6-0.5c1.7-0.2,3.3-0.3,4.9-0.6c1.7-0.3,2.9-1.4,3.1-3.2C100.5,52.2,100.5,48.1,99.9,44.1z M87,59.4l0,0.1
		c-0.9,3.9-2.5,7.7-4.9,11.3c-1,1.5-1,2.2,0.2,3.6l1.2,1.5c0.8,1,1.5,1.9,2.3,2.9c0,0,0,0,0.1,0.1c-2.3,2.3-4.7,4.7-7,7c0,0,0,0,0,0
		c0,0,0,0,0,0c-0.7-0.6-1.4-1.1-2.1-1.7c-0.8-0.6-1.6-1.3-2.4-1.9c-1.1-0.9-2.2-0.9-3.3-0.2c-3.9,2.6-8.3,4.4-12.8,5.3
		c-1.6,0.3-2.1,0.9-2.3,2.6c-0.2,1.4-0.3,2.8-0.5,4.3l-0.2,1.4c-3.2,0.4-6.4,0.4-9.9,0l-0.2-1.3c-0.2-1.5-0.4-3-0.5-4.5
		c-0.1-1.4-0.8-2.1-2.1-2.4c-4.8-1-9.2-2.8-13.3-5.5c-1-0.7-2-0.6-3,0.2c-1.5,1.2-3.1,2.5-4.6,3.7c0,0-0.1,0-0.1,0
		c-2.5-2-4.8-4.3-7-6.9l0.7-0.9c1-1.2,1.9-2.4,2.8-3.6c1.1-1.4,1.1-2.1,0.2-3.5c-2.6-4-4.3-8.3-5.3-12.8c-0.3-1.6-0.9-2.1-2.6-2.3
		c-1.4-0.2-2.8-0.3-4.2-0.5l-1.5-0.2c-0.4-3.2-0.4-6.4,0-9.9L6,45.1c1.5-0.2,3-0.4,4.6-0.5c1.3-0.1,2.1-0.8,2.4-2.1
		c1-4.7,2.8-9.2,5.5-13.3c0.7-1,0.6-2.1-0.3-3.1c-1-1.2-1.9-2.4-2.8-3.6l-0.8-1.1c2.1-2.6,4.4-4.9,7-7l4.5,3.6c1.2,1,2.1,1,3.4,0.2
		c3.9-2.6,8.3-4.4,12.8-5.3c1.7-0.4,2.1-1.1,2.3-2.6c0.2-1.4,0.3-2.8,0.5-4.2l0.2-1.4c3.2-0.4,6.5-0.4,9.9,0l0.1,1
		c0.1,1.1,0.3,2.1,0.4,3.2c0,0.3,0.1,0.6,0.1,0.9c0.3,2.7,0.6,2.8,3.4,3.5l0.3,0.1c3.9,0.9,7.8,2.6,11.4,4.9c1.6,1,2.2,1,3.7-0.2
		l4.5-3.6l7,7l-0.7,0.8c-0.8,1-1.5,1.8-2.2,2.7l-0.4,0.5c-1.7,2.1-1.7,2.4-0.2,4.9l0.2,0.3c2.1,3.5,3.7,7.3,4.5,11.4
		c0.4,1.9,0.9,2.3,2.8,2.5c1.4,0.2,2.8,0.3,4.2,0.5l1.4,0.2c0.4,3.2,0.4,6.4,0,9.9l-4.1,0.5c-0.4,0-0.8,0.1-1.1,0.1
		C87.9,56,87.7,56.3,87,59.4z"/>
	<linearGradient id="SVGID_1_" gradientUnits="userSpaceOnUse" x1="37.0888" y1="50.1643" x2="63.2427" y2="50.1643">
		<stop  offset="0" style="stop-color:#2352A3"/>
		<stop  offset="1" style="stop-color:#28ADE3"/>
	</linearGradient>
	<path class="st0" d="M57.3,53.3c-1-0.8-2-1.6-3-2.5c-0.2-0.2-0.5-0.4-0.7-0.6c0.5-0.4,1-0.8,1.5-1.2c1.1-1,2.3-2,3.4-3
		c2.8-2.5,4.4-5.6,4.6-9.1c0.1-1.9,0.2-3.9,0.2-5.8c0-0.7,0-1.4,0-2c0-1.6-0.9-2.6-2.2-2.7c-0.6,0-1.1,0.2-1.5,0.6
		c-0.5,0.5-0.8,1.2-0.8,2c0,0.6,0,1.2,0,1.9l0,0.1H41.6l0-1.5c0-0.3,0-0.5,0-0.8c-0.1-1.3-1-2.3-2.2-2.3c0,0,0,0,0,0
		c-1.2,0-2.2,1-2.2,2.4c0,1,0,2,0,3c0,0.9,0,1.9,0,2.8c-0.1,5.1,1.9,9.3,5.8,12.4c1,0.8,2,1.7,3.1,2.6c0.3,0.2,0.5,0.5,0.8,0.7
		c-0.5,0.4-1,0.9-1.5,1.3c-1.1,0.9-2.2,1.9-3.3,2.9c-2.8,2.5-4.4,5.6-4.6,9.1c-0.1,1.9-0.1,3.9-0.2,5.8c0,0.7,0,1.4,0,2.1
		c0,1.6,0.8,2.6,2.2,2.7c0,0,0.1,0,0.1,0c0.6,0,1-0.2,1.4-0.6c0.5-0.5,0.8-1.2,0.8-2.1c0-0.6,0-1.2,0-1.8v-0.1h17.2l0,0.4
		c0,0.5,0,1,0,1.5c0,1.6,0.9,2.6,2.3,2.6c1.3,0,2.2-1.1,2.2-2.6c0-0.7,0-1.4,0-2.1c0-1.1,0-2.2,0-3.2C63.3,60.8,61.3,56.6,57.3,53.3
		z M58.8,64.9H41.6c0-1.1,0.2-2.1,0.6-3.2c0,0,0,0,0,0c5.7,0,10.9,0,15.8,0c0,0,0,0,0.1,0c0.2,1,0.4,1.9,0.6,3L58.8,64.9z
		 M45.4,57.2l4.7-4.1l4.7,4.1H45.4z M42.2,38.6c-0.2-0.9-0.4-1.9-0.6-2.9l0-0.2h17.2l0,0.2c-0.2,1-0.4,2-0.6,3c0,0,0,0,0,0
		c-5.6,0-10.8,0-15.8,0C42.3,38.6,42.2,38.6,42.2,38.6z M54.8,43.2l-4.7,4l-4.7-4H54.8z"/>
</g>
</svg>
