<?xml version="1.0" encoding="utf-8"?>
<!-- Generator: Adobe Illustrator 27.7.0, SVG Export Plug-In . SVG Version: 6.00 Build 0)  -->
<svg version="1.1" id="Layer_1" xmlns="http://www.w3.org/2000/svg" xmlns:xlink="http://www.w3.org/1999/xlink" x="0px" y="0px"
	 viewBox="0 0 96 102.9" style="enable-background:new 0 0 96 102.9;" xml:space="preserve">
<style type="text/css">
	.st0{fill:url(#SVGID_1_);}
	.st1{fill:#FFFFFF;}
	.st2{fill:url(#SVGID_00000096061771841916948460000014779062359984479882_);}
	.st3{fill:url(#SVGID_00000127761661121484290710000004479997238895832709_);}
	.st4{fill:url(#SVGID_00000151528862256520280400000009959812374701324710_);}
	.st5{fill:url(#SVGID_00000151541297388908429880000018105594348917331104_);}
	.st6{fill:url(#SVGID_00000083055021319791216750000010930935457017518466_);}
	.st7{fill:url(#SVGID_00000141416130261565445850000000977365852726103942_);}
	.st8{fill:url(#SVGID_00000158709922474342985360000011859834847184587670_);}
	.st9{fill:#231F20;}
	.st10{fill:url(#SVGID_00000045595910718604767220000000392814092445880211_);}
	.st11{fill:none;}
	.st12{fill:url(#SVGID_00000053537451300196016220000017869841091232929931_);}
	.st13{fill:url(#SVGID_00000011735200462492662060000010457403795061825722_);}
	.st14{fill:url(#SVGID_00000166646764538081392990000013456076212259364519_);}
	.st15{fill:url(#SVGID_00000169555776759243752400000016800170405051176076_);}
	.st16{fill:url(#SVGID_00000152246329398851249980000007278969210103790494_);}
	.st17{fill:url(#SVGID_00000029029300035572231450000015000534589332646841_);}
	.st18{fill:url(#SVGID_00000104693289793114576770000007918667887580470950_);}
	.st19{fill:url(#SVGID_00000170248141900747064020000000881766407531194546_);}
	.st20{fill:url(#SVGID_00000143608688349632951050000004525277463901147791_);}
	.st21{fill:url(#SVGID_00000098921628134290510190000016676525026758198158_);}
	.st22{fill:#064295;}
	.st23{fill:url(#SVGID_00000046336818393259673340000012828602717038221752_);}
	.st24{fill:#010101;}
	.st25{fill:url(#SVGID_00000091009939730964291630000014340463680990626176_);}
	.st26{fill:url(#SVGID_00000171679942970421210110000018035645468868130704_);}
	.st27{fill:#DFDFDF;}
	.st28{fill:url(#SVGID_00000031910215560213327300000007377046745057625524_);}
	.st29{fill:url(#SVGID_00000007402058167320151990000011274758216380891795_);}
	.st30{fill:#696969;}
	.st31{fill:url(#SVGID_00000125571525350144547420000012608593997855145139_);}
	.st32{fill:#F2F2F2;}
	.st33{fill:#D6D6D6;}
	.st34{fill:#E4E4E4;}
	.st35{fill:#DDDDDD;}
	.st36{fill:url(#SVGID_00000132769024977924513090000014635189883149341611_);}
	.st37{fill:url(#SVGID_00000077306931143713606710000006728569240930150322_);}
	.st38{fill:url(#SVGID_00000149365077714665064680000001743013660350306233_);}
	.st39{fill:url(#SVGID_00000136381362585203498230000009814405099963374747_);}
	.st40{fill:url(#SVGID_00000109027781712561605460000010589072910563859335_);}
	.st41{fill:url(#SVGID_00000155107755371754244420000016173395460584834199_);}
	.st42{fill:url(#SVGID_00000134235774007116337220000004143195815178847674_);}
	.st43{fill:url(#SVGID_00000127752778631797321310000012242481464867336632_);}
	.st44{fill:url(#SVGID_00000063623209101841491320000000323883168873261219_);}
	.st45{fill:url(#SVGID_00000052073232806701804450000017015148020593197723_);}
	.st46{fill:url(#SVGID_00000088100179964105215070000014911582876186476963_);}
	.st47{fill:url(#SVGID_00000098924889657021055190000015946563739810837400_);}
	.st48{fill:url(#SVGID_00000080198683491030094420000002259320325066333365_);}
	.st49{fill:url(#SVGID_00000017491581256396369110000017373895988530730929_);}
	.st50{fill:url(#SVGID_00000134246349279652126990000005495769634554221466_);}
	.st51{fill:url(#SVGID_00000104689875128583168660000001802406500393229223_);}
	.st52{fill:url(#SVGID_00000158733589057264714450000017818226452114102462_);}
	.st53{fill:url(#SVGID_00000091700187528176259380000001873136517563808171_);}
	.st54{fill:url(#SVGID_00000034050340995906026180000005339994173586465693_);}
	.st55{fill:url(#SVGID_00000003826640096177200570000011461298765409976990_);}
	.st56{fill:url(#SVGID_00000121967685971354780350000010726686258718020496_);}
	.st57{fill:url(#SVGID_00000004510344738698134430000007972803325141066371_);}
	.st58{fill:url(#SVGID_00000090270049564442906980000003023812537995656599_);}
	.st59{fill:url(#SVGID_00000075121707620679523420000014855922084639453590_);}
	.st60{fill:#989898;}
	.st61{fill:url(#SVGID_00000170241536174509133130000012141514569566060204_);}
	.st62{fill:url(#SVGID_00000168804792174350678240000012986068808866700176_);}
	.st63{fill:url(#SVGID_00000119114119219885894400000000672195473885452678_);}
	.st64{fill:url(#SVGID_00000150066468799463094300000000484276529775404430_);}
	.st65{fill:url(#SVGID_00000132775578416487545470000002210849984963674542_);}
	.st66{fill:url(#SVGID_00000103241744762696761520000013421280853802850722_);}
	.st67{fill:url(#SVGID_00000180327473406274958190000004022264100328873353_);}
</style>
<g>
	<path class="st11" d="M38.5,51.1c0-12.9,0-25.9,0-38.9c-10.2,0-20.3,0-30.4,0c0,13.2,0,26.2,0,39.3c0,0,0,0,0.1,0
		c0.1-0.4,0.2-0.8,0.3-1.3c1.5-9.1,6-16.3,13.4-21.8c1.2-0.9,1.9-0.9,3.1,0c5.8,4.3,9.8,9.8,12.1,16.6C37.6,47,38.1,49.2,38.5,51.1z
		"/>
	<path class="st11" d="M21.3,71.2c0-0.5-0.3-1-0.6-1.4c-2.2-2.3-4.4-4.5-6.6-6.7c-0.3-0.4-0.6-0.8-0.9-1.2c-0.1,0.1-0.2,0.2-0.4,0.3
		c1.4,5.6,4.1,10.5,8.5,14.7C21.3,74.8,21.4,73,21.3,71.2z"/>
	<path class="st11" d="M25.4,34.3c0,4.8,0,9.5,0,14.1c2-2,4-4,6.1-6.1C30,39.2,27.2,35.5,25.4,34.3z"/>
	<path class="st11" d="M21.3,34.1c-2.7,2.5-4.6,5.3-6.1,8.1c2.1,2.1,4.1,4.1,6.1,6C21.3,43.7,21.3,39,21.3,34.1z"/>
	<path class="st11" d="M12.1,54.6c0,0.5,0.2,1,0.6,1.4c1.7,1.8,3.4,3.5,5.2,5.2c1.1,1.1,2.2,2.2,3.2,3.4c0.1-0.1,0.2-0.1,0.3-0.2
		c0-3.1,0-6.3,0-9.4c0-0.3-0.3-0.7-0.5-1c-1.5-1.5-3-3-4.5-4.6c-0.9-0.9-1.8-1.8-2.8-2.8C12.6,49.3,12.1,51.9,12.1,54.6z"/>
	<path class="st11" d="M25.4,70.7c0,2,0,4,0,6.2c4.4-4.2,7.1-9,8.5-14.9c-0.2,0.1-0.3,0.1-0.4,0.1c-2.6,2.6-5.2,5.2-7.8,7.8
		C25.5,70.2,25.4,70.5,25.4,70.7z"/>
	<path class="st11" d="M38.6,59.4c-0.1,0.3-0.1,0.4-0.2,0.5c-1.4,9.4-5.9,17-13.5,22.7c-1.1,0.8-1.9,0.8-3,0c-2.5-1.8-4.8-4-6.7-6.5
		C11.3,71.2,9,65.6,8.1,59.5c0,5.9,0,11.9,0,17.8c0,2.6-0.1,5.2,0.1,7.8c0.7,8.9,9.4,15.3,18,13.5c7.3-1.5,12.3-7.6,12.3-15
		c0-7.7,0-15.3,0-23C38.6,60.2,38.6,59.9,38.6,59.4z"/>
	<path class="st11" d="M34.6,55c0-2.8-0.5-5.6-1.3-8.3c-0.3,0.3-0.6,0.5-0.8,0.7c-1.4,1.4-2.7,3-4.3,4.2c-2.3,1.8-3.2,4-2.9,6.9
		c0.2,1.9,0,3.9,0,5.9c0.2,0,0.3,0,0.3,0c2.9-2.9,5.8-5.8,8.7-8.6C34.5,55.5,34.6,55.2,34.6,55z"/>
	<path class="st11" d="M86.1,54.1c-2.7,0-5.4,0-8,0c-0.6,0-0.9,0.2-1.2,0.7c-1.3,2.4-2.7,4.7-4,7c-0.2,0.3-0.2,0.8,0,1.1
		c1.3,2.4,2.7,4.8,4.1,7.1c0.2,0.3,0.7,0.6,1.1,0.6c1.3,0.1,2.7,0,4,0c1.4,0,2.7,0,4.1,0c0.5,0,0.8-0.2,1.1-0.6
		c1.3-2.4,2.7-4.7,4.1-7c0.3-0.5,0.3-0.9,0-1.4c-1.4-2.3-2.7-4.6-4-6.9C87,54.3,86.7,54.1,86.1,54.1z"/>
	<path class="st11" d="M69.2,65.1c-0.3-0.5-0.6-0.7-1.2-0.7c-1.3,0-2.7,0-4,0c-1.4,0-2.7,0-4.1,0c-0.3,0-0.8,0.3-1,0.6
		c-1.4,2.3-2.8,4.7-4.1,7.1c-0.2,0.3-0.2,0.8,0,1.1c1.3,2.4,2.7,4.7,4.1,7c0.2,0.3,0.7,0.6,1.1,0.6c2.7,0.1,5.5,0,8.2,0
		c0.3,0,0.8-0.3,1-0.6c1.4-2.4,2.8-4.7,4.1-7.1c0.2-0.3,0.2-0.8,0-1.1C71.9,69.8,70.5,67.5,69.2,65.1z"/>
	<path class="st11" d="M40.3,4c-0.2,0-0.5,0-0.7,0c-5.4,0-10.8,0-16.2,0C18,4,12.5,4,7.1,4c-2,0-3,0.7-3,2c0,1.3,1,2,3,2
		c10.8,0,21.7,0,32.5,0c0.2,0,0.5,0,0.7,0c1.4-0.1,2.3-0.9,2.3-2C42.6,4.8,41.7,4.1,40.3,4z"/>
	<path class="st11" d="M69.2,23.8c-0.3-0.5-0.6-0.8-1.2-0.7c-1.3,0-2.6,0-3.9,0c-1.4,0-2.7,0-4.1,0c-0.4,0-0.9,0.3-1.1,0.6
		c-1.4,2.3-2.7,4.7-4.1,7c-0.3,0.5-0.3,0.9,0,1.4c1.4,2.3,2.7,4.6,4,6.9c0.2,0.3,0.7,0.7,1.1,0.7c2.7,0.1,5.4,0.1,8,0
		c0.4,0,0.9-0.3,1.1-0.7c1.4-2.3,2.7-4.7,4.1-7c0.3-0.5,0.2-0.8,0-1.3C71.8,28.5,70.5,26.2,69.2,23.8z"/>
	<linearGradient id="SVGID_1_" gradientUnits="userSpaceOnUse" x1="50.0936" y1="66.9968" x2="96.0154" y2="66.9968">
		<stop  offset="0" style="stop-color:#2352A3"/>
		<stop  offset="1" style="stop-color:#28ADE3"/>
	</linearGradient>
	<path class="st0" d="M92.3,48.9h-4.7c-0.1,0.2-0.2,0.3-0.3,0.5c-0.3,0.5-0.7,0.7-1.3,0.7c-3.1,0-6.2,0-9.3,0c-1.2,0-2,0.4-2.6,1.5
		c-1.5,2.7-3.1,5.4-4.6,8.1c-0.3,0.6-0.7,0.8-1.3,0.8c-2.6,0-5.2,0-7.8,0c-0.7,0-1-0.2-1.3-0.8c-1.2-2.2-2.5-4.4-3.8-6.6
		c-0.3-0.6-0.9-1.1-1.5-1.3c-0.8-0.3-1.5,0-2,0.7c-0.6,0.8-0.5,1.6-0.1,2.4c1.2,2.1,2.4,4.3,3.7,6.3c0.5,0.8,0.5,1.4,0,2.2
		c-1.6,2.7-3.1,5.4-4.7,8.1c-0.6,1-0.6,1.9,0,2.9c1.9,3.1,3.7,6.3,5.5,9.5c0.6,1,1.4,1.5,2.5,1.5c3.6,0,7.2,0,10.8,0
		c1.2,0,2-0.5,2.6-1.5c1.5-2.7,3.1-5.3,4.6-8c0.4-0.7,0.8-0.9,1.6-0.9c3.1,0,6.3,0,9.4,0c1.2,0,2-0.5,2.6-1.5
		c1.8-3.1,3.5-6.2,5.4-9.3c0.6-1.1,0.7-2,0-3.1c-1.6-2.6-3.1-5.3-4.6-8c-0.3-0.6-0.4-1,0-1.6C91.4,50.5,91.8,49.7,92.3,48.9z
		 M73.2,73.3c-1.3,2.4-2.7,4.8-4.1,7.1c-0.2,0.3-0.7,0.6-1,0.6c-2.7,0-5.5,0.1-8.2,0c-0.4,0-0.9-0.3-1.1-0.6c-1.4-2.3-2.7-4.7-4.1-7
		c-0.2-0.3-0.2-0.9,0-1.1c1.3-2.4,2.7-4.8,4.1-7.1c0.2-0.3,0.6-0.6,1-0.6c1.4-0.1,2.7,0,4.1,0c1.3,0,2.7,0,4,0
		c0.6,0,0.9,0.1,1.2,0.7c1.3,2.4,2.7,4.7,4,7.1C73.4,72.5,73.4,73,73.2,73.3z M91.3,61.7c0.3,0.5,0.3,0.9,0,1.4
		c-1.4,2.3-2.7,4.7-4.1,7c-0.3,0.5-0.5,0.7-1.1,0.6c-1.4,0-2.7,0-4.1,0c-1.3,0-2.7,0-4,0c-0.4,0-0.9-0.3-1.1-0.6
		c-1.4-2.3-2.8-4.7-4.1-7.1c-0.2-0.3-0.2-0.8,0-1.1c1.3-2.4,2.7-4.7,4-7c0.3-0.5,0.6-0.7,1.2-0.7c2.7,0,5.4,0,8,0
		c0.6,0,0.9,0.2,1.2,0.7C88.6,57.1,90,59.4,91.3,61.7z"/>
	<path d="M95.6,43.2c0.6-1,0.6-1.9,0-2.9c-1.8-3.1-3.7-6.3-5.5-9.5c-0.6-1.1-1.4-1.5-2.6-1.5c-3.1,0-6.2,0-9.3,0
		c-0.9,0-1.3-0.3-1.7-1c-1.4-2.6-3-5.1-4.4-7.7c-0.6-1.1-1.4-1.7-2.8-1.7c-3.6,0.1-7.2,0.1-10.7,0c-1.2,0-2,0.5-2.6,1.5
		c-1.5,2.7-3.1,5.4-4.7,8.1c-0.2,0.3-0.5,0.7-0.7,0.7c-2.6,0.1-5.2,0-7.9,0c0-0.4,0-0.7,0-1.1c0-5.2,0-10.4,0-15.6
		c0-0.7,0.2-1,0.8-1.4c2.4-1.2,3.7-4,3.1-6.6C46,2.1,43.6,0,40.8,0c-11.7,0-23.3,0-35,0C3.1,0,0.8,2,0.2,4.8c-0.6,2.5,0.6,5.3,3,6.5
		c0.7,0.4,0.9,0.8,0.9,1.5c0,21.7,0,43.4,0,65.1c0,2.1,0,4.3,0,6.4c0.3,8.8,6.8,16.5,15.4,18.2c0.5,0.1,1.1,0.3,1.6,0.4
		c1.5,0,2.9,0,4.4,0c0.2-0.1,0.5-0.2,0.7-0.2c3.7-0.6,6.9-2,9.7-4.5c4.5-4,6.7-9.1,6.7-15.2c0-16,0-32.1,0-48.1c0-0.4,0-0.9,0-1.4
		c2.6,0,5,0,7.4,0c0.6,0,1,0.2,1.3,0.7c1.5,2.7,3.2,5.4,4.7,8.2c0.6,1,1.4,1.5,2.5,1.4c3.6,0,7.2,0,10.8,0c1.2,0,2-0.5,2.6-1.5
		c1.5-2.7,3.1-5.5,4.7-8.2c0.2-0.3,0.7-0.6,1.1-0.7c2.8-0.1,5.6-0.1,8.4,0c0.4,0,0.9,0.3,1.1,0.6c1.4,2.3,2.8,4.7,4.1,7
		c0.2,0.3,0.2,0.9,0,1.2c-0.5,0.8-0.9,1.7-1.4,2.5h4.7C94.9,44.3,95.3,43.8,95.6,43.2z M38.6,83.5c0,7.4-5.1,13.5-12.3,15
		c-8.7,1.8-17.3-4.6-18-13.5c-0.2-2.6-0.1-5.2-0.1-7.8c0-5.9,0-11.9,0-17.8c1,6.2,3.2,11.8,7.1,16.7c1.9,2.5,4.2,4.6,6.7,6.5
		c1.1,0.8,1.9,0.8,3,0c7.6-5.7,12.2-13.3,13.5-22.7c0-0.1,0.1-0.2,0.2-0.5c0,0.5,0,0.8,0,1.1C38.6,68.2,38.6,75.9,38.6,83.5z
		 M25.6,64.3c0,0-0.1,0-0.3,0c0-2,0.2-4,0-5.9c-0.4-2.9,0.6-5.1,2.9-6.9c1.6-1.2,2.9-2.8,4.3-4.2c0.2-0.2,0.5-0.4,0.8-0.7
		c0.9,2.8,1.4,5.5,1.3,8.3c0,0.2-0.1,0.5-0.3,0.7C31.4,58.6,28.5,61.4,25.6,64.3z M33.9,62.1c-1.4,5.8-4.2,10.6-8.5,14.9
		c0-2.3,0-4.2,0-6.2c0-0.2,0.2-0.5,0.3-0.7c2.6-2.6,5.2-5.2,7.8-7.8C33.6,62.2,33.6,62.2,33.9,62.1z M25.4,48.3c0-4.6,0-9.3,0-14.1
		c1.8,1.2,4.6,4.9,6.1,8C29.4,44.3,27.4,46.3,25.4,48.3z M24.9,28.4c-1.2-0.9-1.9-0.9-3.1,0C14.5,33.9,10,41.1,8.4,50.2
		c-0.1,0.4-0.2,0.8-0.3,1.3c0,0,0,0-0.1,0c0-13.1,0-26.2,0-39.3c10.1,0,20.3,0,30.4,0c0,13.1,0,26.1,0,38.9C38.1,49.2,37.6,47,37,45
		C34.7,38.1,30.7,32.6,24.9,28.4z M16.2,49.3c1.5,1.5,3,3,4.5,4.6c0.3,0.3,0.5,0.7,0.5,1c0,3.1,0,6.3,0,9.4
		c-0.1,0.1-0.2,0.1-0.3,0.2c-1.1-1.1-2.1-2.3-3.2-3.4c-1.7-1.7-3.5-3.4-5.2-5.2c-0.3-0.3-0.6-0.9-0.6-1.4c0-2.7,0.5-5.3,1.4-8
		C14.5,47.6,15.4,48.5,16.2,49.3z M15.2,42.2c1.4-2.9,3.4-5.6,6.1-8.1c0,4.9,0,9.6,0,14.2C19.3,46.3,17.3,44.3,15.2,42.2z
		 M13.2,61.9c0.3,0.4,0.5,0.9,0.9,1.2c2.2,2.2,4.5,4.4,6.6,6.7c0.3,0.3,0.6,0.9,0.6,1.4c0.1,1.8,0,3.7,0,5.7
		c-4.4-4.2-7.1-9.1-8.5-14.7C13,62.1,13.1,62,13.2,61.9z M40.3,8c-0.2,0-0.5,0-0.7,0C28.8,8,17.9,8,7.1,8c-2,0-3-0.7-3-2
		c0-1.3,1-2,3-2C12.5,4,18,4,23.4,4c5.4,0,10.8,0,16.2,0c0.2,0,0.5,0,0.7,0c1.4,0,2.3,0.8,2.3,2C42.6,7.2,41.7,8,40.3,8z M73.2,32
		c-1.4,2.3-2.7,4.7-4.1,7c-0.2,0.3-0.7,0.7-1.1,0.7c-2.7,0.1-5.4,0.1-8,0c-0.4,0-0.9-0.3-1.1-0.7c-1.4-2.3-2.7-4.6-4-6.9
		c-0.3-0.5-0.3-0.8,0-1.4c1.4-2.3,2.7-4.7,4.1-7c0.2-0.3,0.7-0.6,1.1-0.6c1.4-0.1,2.7,0,4.1,0c1.3,0,2.6,0,3.9,0
		c0.6,0,1,0.2,1.2,0.7c1.3,2.3,2.6,4.6,4,6.9C73.5,31.2,73.5,31.6,73.2,32z"/>
	<path d="M51.3,46.9c0-1-1-2-2-2c-1.1,0-2,1-2,2.1c0,1,1,2,2,2C50.4,48.9,51.4,47.9,51.3,46.9z"/>
</g>
</svg>
