<?xml version="1.0" encoding="utf-8"?>
<!-- Generator: Adobe Illustrator 27.7.0, SVG Export Plug-In . SVG Version: 6.00 Build 0)  -->
<svg version="1.1" id="Layer_1" xmlns="http://www.w3.org/2000/svg" xmlns:xlink="http://www.w3.org/1999/xlink" x="0px" y="0px"
	 viewBox="0 0 108.5 108.5" style="enable-background:new 0 0 108.5 108.5;" xml:space="preserve">
<style type="text/css">
	.st0{fill:url(#SVGID_1_);}
	.st1{fill:#FFFFFF;}
	.st2{fill:url(#SVGID_00000174561265252058167600000009358411036194499745_);}
	.st3{fill:url(#SVGID_00000158748329740746349110000003436540802928582587_);}
	.st4{fill:url(#SVGID_00000082352100110567705040000007084659201280462498_);}
	.st5{fill:url(#SVGID_00000165923569608409639760000013241702815802449839_);}
	.st6{fill:url(#SVGID_00000044151820541859213250000009311017628709491629_);}
	.st7{fill:url(#SVGID_00000039832909726867341110000006276170340707112634_);}
	.st8{fill:url(#SVGID_00000048460904714165899930000004781456917947908502_);}
	.st9{fill:#231F20;}
	.st10{fill:url(#SVGID_00000129178248093924702820000009504032891824626060_);}
	.st11{fill:none;}
	.st12{fill:url(#SVGID_00000083784337215991844890000001319876595781398167_);}
	.st13{fill:url(#SVGID_00000062912859595489211410000012685740836435089305_);}
	.st14{fill:url(#SVGID_00000087389427625329040010000011548883612964860803_);}
	.st15{fill:url(#SVGID_00000010310783383356224150000005012561040603830176_);}
	.st16{fill:url(#SVGID_00000024709356944791681210000007994393905517962662_);}
	.st17{fill:url(#SVGID_00000152945826091168717440000004699740578171998893_);}
	.st18{fill:url(#SVGID_00000066497675613512158760000009812770626540810659_);}
	.st19{fill:url(#SVGID_00000027603585643856230650000017584916232611342259_);}
	.st20{fill:url(#SVGID_00000095327330610191807840000015842029831915580059_);}
	.st21{fill:url(#SVGID_00000029021047537780079480000005440887506197407120_);}
	.st22{fill:#064295;}
	.st23{fill:url(#SVGID_00000070081779209022779380000000742094286198613692_);}
	.st24{fill:#010101;}
	.st25{fill:url(#SVGID_00000170255145667091920350000012056772905046636704_);}
	.st26{fill:url(#SVGID_00000098203194537640973170000017410242744713260928_);}
	.st27{fill:#DFDFDF;}
	.st28{fill:url(#SVGID_00000141443561636291066590000000025941489881581738_);}
	.st29{fill:url(#SVGID_00000062191628187318949730000015664507013220193186_);}
	.st30{fill:#696969;}
	.st31{fill:url(#SVGID_00000110441967007539706610000001550941532052764574_);}
	.st32{fill:#F2F2F2;}
	.st33{fill:#D6D6D6;}
	.st34{fill:#E4E4E4;}
	.st35{fill:#DDDDDD;}
	.st36{fill:url(#SVGID_00000149369875730996663190000011272005660897807012_);}
	.st37{fill:url(#SVGID_00000081617724565878606660000001577556575609251514_);}
	.st38{fill:url(#SVGID_00000068662357323030960140000010072744157649762210_);}
	.st39{fill:url(#SVGID_00000170982803080654407620000001997649784515392956_);}
	.st40{fill:url(#SVGID_00000054256870404726117610000008983367045354595992_);}
	.st41{fill:url(#SVGID_00000033358145548428556630000002861890982244872585_);}
	.st42{fill:url(#SVGID_00000025404514388944146750000005458959066720102332_);}
	.st43{fill:url(#SVGID_00000162333975522423299460000007063512437607472784_);}
	.st44{fill:url(#SVGID_00000147927384579550511280000014368133393590428347_);}
	.st45{fill:url(#SVGID_00000047744487474836543060000003963748881731410054_);}
	.st46{fill:url(#SVGID_00000047758235811143544280000006052796834445801116_);}
	.st47{fill:url(#SVGID_00000116236604702087206240000003392913995564010415_);}
	.st48{fill:url(#SVGID_00000057845658068348918050000002389029253741147781_);}
	.st49{fill:url(#SVGID_00000176015578559828870850000016305433719128967064_);}
	.st50{fill:url(#SVGID_00000162354417440926687620000009624981432048318639_);}
	.st51{fill:url(#SVGID_00000175319013576211820640000012326727301906652049_);}
	.st52{fill:url(#SVGID_00000000181130625466368740000006877400292031000978_);}
	.st53{fill:url(#SVGID_00000079443598923382924940000004585147110492574648_);}
	.st54{fill:url(#SVGID_00000143584876977047986890000002357071888274345611_);}
	.st55{fill:url(#SVGID_00000152942946062548860960000016112707088592105643_);}
	.st56{fill:url(#SVGID_00000095317524271556561030000013616445065177832841_);}
	.st57{fill:url(#SVGID_00000152950602090515898290000008327962677590763676_);}
	.st58{fill:url(#SVGID_00000121245247241346112400000006359670342451250838_);}
	.st59{fill:url(#SVGID_00000082357280790819071330000001836043642388416674_);}
	.st60{fill:#989898;}
	.st61{fill:url(#SVGID_00000102503789889570280340000000842070026394418315_);}
	.st62{fill:url(#SVGID_00000111904364118408760780000015888881829816134784_);}
	.st63{fill:url(#SVGID_00000098223423490322756970000017770142041873819548_);}
	.st64{fill:url(#SVGID_00000091015589710880886220000011775450475999540372_);}
	.st65{fill:url(#SVGID_00000075127767725370167950000003994006200597014166_);}
	.st66{fill:url(#SVGID_00000046305403000802739280000001901411752976201623_);}
	.st67{fill:url(#SVGID_00000068646144156541600360000012809127068238365837_);}
</style>
<g>
	<linearGradient id="SVGID_1_" gradientUnits="userSpaceOnUse" x1="33.7771" y1="75.3591" x2="99.4183" y2="75.3591">
		<stop  offset="0" style="stop-color:#2352A3"/>
		<stop  offset="1" style="stop-color:#28ADE3"/>
	</linearGradient>
	<path class="st0" d="M97,57.6c-2.4-1.9-5.7-2-8.1-0.2c-2.7,2-3.3,5.2-1.7,8.8L74.7,79.7c-0.1,0.1-0.3,0.3-0.4,0.4
		c-0.3,0.4-0.7,0.8-1,1.1c-0.2,0.2-0.5,0.3-0.9,0.3c-0.4,0-0.8,0-1.2,0.1c-0.6,0-1.3,0-1.9,0.2c-0.5,0.1-0.7,0-1-0.3
		c-0.8-1-1.6-1.9-2.3-2.9c-1.1-1.3-2.2-2.7-3.2-4.1c-0.2-0.2-0.3-0.7-0.2-1.1c0.9-2.8,0.1-5.8-2.3-7.5c-2.3-1.7-5.4-1.7-7.8-0.1
		c-2.4,1.7-3.3,4.6-2.3,7.5c0.2,0.5,0.1,0.7-0.2,1c-2.1,2.3-4.3,4.7-6.6,7.1c-0.4,0.4-0.6,0.5-1.1,0.3c-2.9-0.9-6.1,0.2-7.6,2.9
		c-1.5,2.6-1.1,5.9,1,8.1c1.3,1.3,2.9,1.9,4.6,1.9c1.2,0,2.4-0.3,3.5-1c2.6-1.6,3.7-4.7,2.7-7.6c-0.2-0.5-0.1-0.8,0.2-1.1
		c1.9-2,4-4.3,6.6-7.1c0.3-0.3,0.5-0.4,1.1-0.3c1.4,0.2,2.7,0.2,3.8,0.1c0.6-0.1,0.8,0,1.1,0.4c2,2.5,3.8,4.8,5.5,6.8
		c0.4,0.4,0.4,0.7,0.2,1.3c-0.6,1.7-0.5,3.5,0.2,5c0.8,1.6,2.1,2.8,3.8,3.3c1.7,0.6,3.5,0.5,5.1-0.3c1.6-0.8,2.7-2.1,3.3-3.8
		c0.6-1.9,0.4-3.7-0.6-5.6l2.1-2.3c3.9-4.2,8-8.6,12-12.8c0.1-0.1,0.6-0.2,0.9-0.2c3,0.5,5.9-1.1,7.2-3.8
		C100.1,62.7,99.3,59.5,97,57.6z M92.8,64.5c-0.5,0-0.9-0.2-1.3-0.6c-0.3-0.4-0.5-0.8-0.5-1.3c0-0.9,0.9-1.8,1.8-1.8c0,0,0,0,0,0
		c0.4,0,0.9,0.2,1.2,0.5c0.4,0.4,0.6,0.8,0.6,1.3c0,0.5-0.2,0.9-0.6,1.3C93.7,64.3,93.3,64.5,92.8,64.5
		C92.8,64.5,92.8,64.5,92.8,64.5z M73,88c0,0.4-0.2,0.9-0.5,1.3c-0.4,0.4-0.8,0.6-1.3,0.6c-0.4,0-0.9-0.2-1.3-0.5
		c-0.4-0.4-0.6-0.8-0.6-1.3c0-0.9,0.8-1.8,1.8-1.8c0,0,0.1,0,0.1,0c0.4,0,0.8,0.2,1.2,0.5C72.7,87,72.9,87.5,73,88z M58.2,71.2
		c-0.1,0.9-0.9,1.7-1.8,1.7c0,0,0,0-0.1,0c-0.5,0-0.9-0.2-1.3-0.6c-0.3-0.4-0.5-0.8-0.5-1.3c0-0.5,0.3-0.9,0.7-1.3
		c0.4-0.3,0.8-0.5,1.3-0.5c0.5,0,1,0.3,1.3,0.7C58.1,70.4,58.2,70.8,58.2,71.2z M39.1,89.3c-0.4-0.4-0.6-0.8-0.6-1.3
		c0-0.9,0.9-1.8,1.8-1.8c0,0,0,0,0.1,0c0.4,0,0.9,0.2,1.2,0.5c0.4,0.4,0.6,0.8,0.6,1.3c0,0.4-0.2,0.9-0.5,1.3
		c-0.4,0.4-0.8,0.6-1.3,0.6C39.9,89.8,39.4,89.6,39.1,89.3z"/>
	<g>
		<path class="st9" d="M108.4,22.7c-0.2-0.2-0.3-0.4-0.5-0.6c-0.4-0.4-0.7-0.9-1.1-1.3c-2.6-2.6-5.2-5.2-7.8-7.8
			c-3.9-3.9-7.7-7.7-11.6-11.6C86.5,0.4,85.5,0,84.2,0c0,0,0,0,0,0C70.8,0,57.3,0,43.9,0L32.5,0c-4.5,0-7.2,2.7-7.2,7.2v5.4
			c-6.7-0.5-13.1,1.8-17.9,6.4C2.6,23.7-0.3,30.4,0,36.6c0.3,6.9,2.9,12.6,7.8,17c4.8,4.3,10.7,6.3,17.5,6V101
			c0,4.1,1.3,5.9,5.1,7.4c0,0,0,0,0.1,0.1l0.1,0.1h72.7l0.1,0c0.3-0.1,0.5-0.2,0.8-0.4c0.6-0.3,1.2-0.6,1.7-0.9
			c1.5-0.9,2.1-2.5,2.7-3.9L108.4,22.7L108.4,22.7z M30,59.5c0-0.6,0.1-0.9,0.7-1.1c8.8-3.1,14.1-9.4,15.9-18.5
			c2-10.8-4.9-22.4-15.4-25.9c-0.3-0.1-0.6-0.2-0.8-0.3L30,13.6c0-0.6,0-1.3,0-1.9c0-1.6,0-3.3,0-4.9c0-1.5,1.1-1.9,2.1-2
			c0.1,0,0.2,0,0.4,0l50.2,0v18.1c0,2.2,0.8,3,3,3c4.1,0,8.1,0,12.2,0h5.9l0,75.2c0,2.1-0.6,2.7-2.7,2.7H32.8
			c-2.1,0-2.7-0.6-2.7-2.7v-9.2C30,81.1,30,70.3,30,59.5z M25.9,33.7v-16c7,0.3,15.2,7.1,16,16H25.9z M21.1,17.6l0,9.6
			c0,2.8,0,5.7,0,8.5c0,1.9,0.9,2.8,2.8,2.8c4.1,0,8.3,0,12.4,0h5.5c-0.5,10.2-10.6,16-17.8,16.3c-5,0.2-9.9-1.6-13.5-5
			C7,46.3,4.9,41.6,4.8,36.5C4.6,28.1,10.8,18.6,21.1,17.6z M87.5,21.1V8.5L100,21.1H87.5z"/>
		<path class="st9" d="M64.8,33.8c-1.1,0-2.2,0-3.3,0c-1.3,0-2.3,1-2.4,2.3c0,1.3,1,2.3,2.4,2.4c0.2,0,0.3,0,0.5,0l30.9,0
			c0.1,0,0.2,0,0.3,0c0.1,0,0.2,0,0.3,0c0.2,0,0.4,0,0.5-0.1c0.1-0.1,0.2-0.1,0.3-0.2c0.6-0.4,1.2-0.8,1.4-1.3
			c0.2-0.6,0-1.7-0.5-2.2c-0.5-0.5-1.4-0.8-2.1-0.8c-4,0-8,0-11.9,0l-15.1,0L64.8,33.8z"/>
		<path class="st9" d="M93.7,42.2c-0.2,0-0.4,0-0.7,0l-0.2,0c-10.2,0-20.4,0-30.6,0l-0.2,0c-0.3,0-0.6,0-0.9,0c-1.1,0.2-2,1.1-2,2.3
			c0,1.1,0.8,2.1,1.9,2.3c0.3,0.1,0.6,0,0.9,0h29.9l0.5,0c0.2,0,0.3,0,0.5,0c0.3,0,0.6,0,0.8,0c1.3-0.1,2.2-1.1,2.2-2.3
			C95.8,43.3,94.9,42.3,93.7,42.2z"/>
		<path class="st9" d="M54.7,17.4c3.8,0,7.6,0,11.3,0c3.4,0,6.8,0,10.1,0c0.9,0,1.7-0.3,2.2-0.8c0.4-0.4,0.6-1,0.6-1.6
			c0-1.4-1.1-2.3-2.8-2.3c-2.5,0-5,0-7.6,0l-3.2,0l-3.1,0c-2.6,0-5.1,0-7.7,0c-0.9,0-1.7,0.3-2.2,0.8c-0.4,0.4-0.6,1-0.6,1.6
			C51.9,16.5,53,17.4,54.7,17.4z"/>
		<path class="st9" d="M54.3,25.8c2.6,0,5.3,0,7.9,0l3.1,0l2.1,0c1.4,0,2.8,0,4.3,0c1.5,0,3,0,4.6,0c0.8,0,1.5-0.3,2-0.7
			c0.4-0.4,0.6-1,0.6-1.6c0-1.4-1.1-2.3-2.6-2.3c-7.3,0-14.5,0-21.8,0c-0.4,0-0.8,0.1-1.1,0.2c-1,0.4-1.6,1.4-1.5,2.5
			C52.1,25,53.1,25.8,54.3,25.8z"/>
		<path class="st9" d="M53,38.5C53,38.5,53,38.5,53,38.5c1.3,0,2.3-1,2.3-2.3c0-0.6-0.2-1.2-0.7-1.7c-0.4-0.5-1-0.7-1.7-0.7
			c0,0,0,0,0,0c-1.3,0-2.3,1-2.3,2.3c0,0.6,0.2,1.2,0.7,1.7C51.8,38.2,52.4,38.5,53,38.5z"/>
		<path class="st9" d="M53,46.9C53,46.9,53,46.9,53,46.9c1.3,0,2.3-1,2.4-2.2c0-0.6-0.2-1.2-0.6-1.7c-0.4-0.5-1-0.7-1.7-0.7
			c0,0,0,0,0,0c-1.2,0-2.3,1-2.3,2.2c0,0.6,0.2,1.2,0.6,1.7C51.7,46.6,52.3,46.9,53,46.9z"/>
	</g>
</g>
</svg>
