<?xml version="1.0" encoding="utf-8"?>
<!-- Generator: Adobe Illustrator 27.7.0, SVG Export Plug-In . SVG Version: 6.00 Build 0)  -->
<svg version="1.1" id="Layer_1" xmlns="http://www.w3.org/2000/svg" xmlns:xlink="http://www.w3.org/1999/xlink" x="0px" y="0px"
	 viewBox="0 0 110.5 110.5" style="enable-background:new 0 0 110.5 110.5;" xml:space="preserve">
<style type="text/css">
	.st0{fill:url(#SVGID_1_);}
	.st1{fill:#FFFFFF;}
	.st2{fill:url(#SVGID_00000103963505638340529530000002808405086089812658_);}
	.st3{fill:url(#SVGID_00000031185482038479727500000014065815601799844784_);}
	.st4{fill:url(#SVGID_00000140719945450856475710000013345805751347588489_);}
	.st5{fill:url(#SVGID_00000092435820977419425210000016285021875586107320_);}
	.st6{fill:url(#SVGID_00000077290329917473790770000012500281617275728283_);}
	.st7{fill:url(#SVGID_00000127736062675904764410000015810846756438708145_);}
	.st8{fill:url(#SVGID_00000010295381349909673790000012083646869162080129_);}
	.st9{fill:#231F20;}
	.st10{fill:url(#SVGID_00000160192438768902591290000007957560667437014714_);}
	.st11{fill:none;}
	.st12{fill:url(#SVGID_00000060717792557789333440000012702352615474125972_);}
	.st13{fill:url(#SVGID_00000143593876407780251880000001778952212892837539_);}
	.st14{fill:url(#SVGID_00000045604389959546185360000007763646051045022104_);}
	.st15{fill:url(#SVGID_00000031188186385038210310000004074030359410102679_);}
	.st16{fill:url(#SVGID_00000169533465420641076220000000064076304381521573_);}
	.st17{fill:url(#SVGID_00000003786229735001354740000000945907918098916495_);}
	.st18{fill:url(#SVGID_00000001652003853639156790000012304498802372663694_);}
	.st19{fill:url(#SVGID_00000052819502798000507370000002552495905556734138_);}
	.st20{fill:url(#SVGID_00000017483171742607014160000010823692423621330874_);}
	.st21{fill:url(#SVGID_00000029731001801155691860000017705155492340037017_);}
	.st22{fill:#064295;}
	.st23{fill:url(#SVGID_00000132793811745260636680000014173691885605941169_);}
	.st24{fill:#010101;}
	.st25{fill:url(#SVGID_00000178885065111620171110000014191570708761255315_);}
	.st26{fill:url(#SVGID_00000025421176217370417450000012820185657352046259_);}
	.st27{fill:#DFDFDF;}
	.st28{fill:url(#SVGID_00000082353538687661703650000004756710504783807650_);}
	.st29{fill:url(#SVGID_00000095328205250738446340000016029456183401973913_);}
	.st30{fill:#696969;}
	.st31{fill:url(#SVGID_00000023247579002879273340000008561943985838781361_);}
	.st32{fill:#F2F2F2;}
	.st33{fill:#D6D6D6;}
	.st34{fill:#E4E4E4;}
	.st35{fill:#DDDDDD;}
	.st36{fill:url(#SVGID_00000124879096758178938530000017800050205854038671_);}
	.st37{fill:url(#SVGID_00000007416171846511569810000014038037758979962765_);}
	.st38{fill:url(#SVGID_00000034809241686809755070000004297780899598425992_);}
	.st39{fill:url(#SVGID_00000093163172730834069080000014226180961429487798_);}
	.st40{fill:url(#SVGID_00000005233235589299252930000017551949749386744984_);}
	.st41{fill:url(#SVGID_00000116200371539852654130000006864458691358771109_);}
	.st42{fill:url(#SVGID_00000103949103462582861860000012293153607713856644_);}
	.st43{fill:url(#SVGID_00000090997393714894382820000016597304546083577242_);}
	.st44{fill:url(#SVGID_00000132788240670340903380000002319529125426243992_);}
	.st45{fill:url(#SVGID_00000134234898538828922790000013450621568510031763_);}
	.st46{fill:url(#SVGID_00000047023990366552607560000015094108570615161264_);}
	.st47{fill:url(#SVGID_00000139254466818369533920000010929128667186496648_);}
	.st48{fill:url(#SVGID_00000063617815543676150700000007682896506744377242_);}
	.st49{fill:url(#SVGID_00000078752055001061454030000017003996151397947301_);}
	.st50{fill:url(#SVGID_00000003783983266631880920000011844594151198257052_);}
	.st51{fill:url(#SVGID_00000142877874619738732600000002398818522771821489_);}
	.st52{fill:url(#SVGID_00000182513047417815020990000014747018229686168204_);}
	.st53{fill:url(#SVGID_00000087412617374630037770000006541335059794808494_);}
	.st54{fill:url(#SVGID_00000024683293024074615180000015444021635034066106_);}
	.st55{fill:url(#SVGID_00000001664511375855535730000000403955423640688531_);}
	.st56{fill:url(#SVGID_00000069369952018634208080000016330626166141935796_);}
	.st57{fill:url(#SVGID_00000006704839018424896180000006205217306031109270_);}
	.st58{fill:url(#SVGID_00000077298817179987551390000001431262359499162268_);}
	.st59{fill:url(#SVGID_00000134945828688681006860000005948470608332320190_);}
	.st60{fill:#989898;}
	.st61{fill:url(#SVGID_00000182520558360371310730000013167336670320055723_);}
	.st62{fill:url(#SVGID_00000142879524001680498330000011785621475774827651_);}
	.st63{fill:url(#SVGID_00000164513366723403115400000005376276598122272407_);}
	.st64{fill:url(#SVGID_00000098184399469221838030000009721552742167261840_);}
	.st65{fill:url(#SVGID_00000149365828042807299230000015834462177112418735_);}
	.st66{fill:url(#SVGID_00000089574460557982286880000017494497777900377217_);}
	.st67{fill:url(#SVGID_00000134221775554836961310000004651002561422305698_);}
</style>
<path class="st9" d="M105.9,48.8c-1.4-0.3-2.8-0.7-4.1-1c-1-0.3-2-0.5-3-0.8c-0.4-0.1-0.5-0.2-0.6-0.6c-0.4-1.6-0.8-3.2-1.4-5
	c-0.1-0.4-0.1-0.6,0.2-0.9c1.6-1.5,3.1-3,4.6-4.5l0.9-0.9c1.8-1.8,2.1-3.5,0.9-5.7c-0.6-1.1-1.3-2.2-1.9-3.2
	c-1.3-2.1-2.9-2.7-5.2-2.1l-0.9,0.3c-2.2,0.6-4.3,1.2-6.5,1.9c-0.5,0.1-0.7,0.1-1.1-0.3c-1.1-1.2-2.2-2.3-3.5-3.5
	c-0.4-0.3-0.4-0.5-0.3-0.9c0.7-2.2,1.3-4.5,1.9-6.7l0.2-0.7c0.7-2.4,0-4.1-2.1-5.4c-1-0.6-2-1.1-2.9-1.7c-2.4-1.4-4.1-1.1-6.1,0.9
	l-1.5,1.5c-1.3,1.3-2.5,2.6-3.8,3.9c-0.3,0.3-0.4,0.4-0.9,0.2c-0.9-0.3-1.8-0.5-2.6-0.7c-0.8-0.2-1.6-0.4-2.5-0.7
	c-0.2-0.1-0.4-0.3-0.4-0.4l-0.2-0.6c-0.6-2.2-1.2-4.4-1.6-6.5c-0.4-2.1-1.5-3.4-3.3-4.1l-6.1,0l-0.2,0c-1.8,0.6-2.9,2-3.3,4.1
	c-0.3,1.4-0.7,2.8-1,4.2l0,0.1c-0.2,0.9-0.5,1.8-0.7,2.8c-0.1,0.4-0.2,0.5-0.6,0.6c-1.8,0.4-3.4,0.8-4.9,1.3c-0.5,0.2-0.7,0.1-1-0.3
	c-1.6-1.7-3.3-3.5-5.4-5.7c-1.6-1.6-3.4-1.9-5.4-0.8c-1,0.5-2,1.1-3.3,1.9c-2.1,1.3-2.8,2.9-2.1,5.3l0.2,0.7
	c0.6,2.2,1.2,4.5,1.9,6.7c0.2,0.5,0.1,0.7-0.3,1c-1.2,1.1-2.4,2.3-3.5,3.6c-0.3,0.3-0.5,0.4-0.9,0.2c-2.5-0.8-5.1-1.5-7.5-2.2
	c-2.2-0.6-4,0-5.2,2c-0.7,1.2-1.4,2.3-1.9,3.2c-1.3,2.3-1,4,0.8,5.8l0.7,0.7c1.6,1.5,3.2,3.1,4.8,4.6c0.4,0.3,0.4,0.5,0.3,1
	c-0.4,1.4-1,3-1.3,4.8c-0.1,0.6-0.3,0.8-1,0.9c-2.1,0.5-4.9,1.2-7.6,1.9c-2.1,0.5-3.2,2-3.2,4.2c0,1.2,0,2.4,0,3.5l0,0.2
	c0,2.7,1.1,4.1,3.8,4.7c1,0.2,2,0.5,3,0.7c1.5,0.4,2.9,0.7,4.4,1.1c0.4,0.1,0.5,0.2,0.6,0.6c0.4,1.6,0.8,3.2,1.4,5
	c0.1,0.4,0.1,0.6-0.2,0.9c-2.1,2-4.2,4-5.7,5.5c-1.6,1.6-1.9,3.4-0.8,5.4c0.6,1,1.2,2.1,2,3.4c1.2,2,2.9,2.7,5.2,2.1l0.6-0.2
	c2.3-0.6,4.6-1.3,6.9-2c0.4-0.1,0.6-0.1,0.9,0.3c1.2,1.3,2.4,2.5,3.6,3.5c0.4,0.3,0.4,0.5,0.3,0.9c-0.8,2.7-1.5,5.3-2.2,7.5
	c-0.6,2.3,0,4,2,5.2c1.1,0.6,2.2,1.3,3.2,1.9c2.3,1.3,4,1,5.9-0.9l1.3-1.4c1.3-1.3,2.6-2.7,3.9-4c0.2-0.2,0.4-0.3,0.6-0.3
	c0.1,0,0.3,0,0.5,0.1c1.6,0.5,3.1,0.9,4.5,1.2c0.7,0.1,0.9,0.4,1.1,1c0.5,2.3,1.1,4.7,1.9,7.7c0.5,2,2,3.1,4.1,3.2
	c0.6,0,1.2,0,1.8,0l1.8,0c2.8,0,4.2-1.1,4.9-3.9l0.1-0.6c0.6-2.2,1.1-4.5,1.7-6.8c0.1-0.2,0.3-0.4,0.5-0.5c0.8-0.2,1.6-0.4,2.3-0.6
	c0.8-0.2,1.7-0.5,2.6-0.7c0.5-0.2,0.7-0.1,1,0.2c1.8,2,3.7,3.9,5.4,5.7c1.6,1.6,3.5,1.9,5.5,0.8c1-0.6,2.1-1.2,3.2-1.9
	c2.2-1.3,2.8-2.9,2.1-5.4l-0.3-1c-0.6-2.1-1.2-4.3-1.8-6.5c-0.1-0.4-0.1-0.6,0.3-1c1.5-1.4,2.5-2.4,3.5-3.5c0.4-0.4,0.6-0.5,1.2-0.3
	c2,0.6,4,1.2,5.8,1.7l1.4,0.4c2.5,0.7,4.1,0.1,5.4-2.1c0.7-1.1,1.2-2.1,1.8-3.1c1.2-2.2,1-4-0.8-5.7l-0.5-0.5
	c-1.9-1.8-3.4-3.3-5.1-4.9c-0.3-0.3-0.4-0.5-0.2-0.9c0.6-1.8,1-3.5,1.3-5c0.1-0.4,0.2-0.4,0.6-0.5c0.9-0.2,1.8-0.4,2.7-0.7l0.2,0
	c1.4-0.4,2.8-0.7,4.2-1c2.1-0.4,3.4-1.5,4.1-3.3l0-6.1l0-0.2C109.4,50.3,108,49.2,105.9,48.8z M105.3,57.1c-0.1,0-0.2,0.1-0.3,0.1
	c-1.2,0.3-2.4,0.6-3.5,0.9l-0.1,0c-1.3,0.3-2.6,0.6-3.8,0.9c-2.1,0.5-3.3,1.7-3.7,3.9c-0.4,1.9-0.8,3.5-1.3,5
	c-0.7,2-0.3,3.7,1.3,5.2c1.4,1.3,2.9,2.7,4.2,4l1.6,1.5l-1.8,3.2l-0.2-0.1l-8.1-2.3c-1.6-0.5-3.1-0.1-4.3,1.2
	c-1.3,1.4-2.8,2.8-4.4,4.4c-1.3,1.2-1.7,2.7-1.2,4.3l0.6,2.3c0.5,1.8,1,3.6,1.6,5.5c0,0.1,0,0.1,0,0.2h0.4l-0.4,0.4
	c-0.1,0.1-0.1,0.1-0.3,0.2c-0.7,0.4-1.5,0.8-2,1.1l-0.3,0.2l-0.1-0.1c-0.5-0.5-1-0.9-1.6-1.4c-1.5-1.3-2.9-2.6-4.2-3.9
	c-1.7-1.7-3.4-2.1-5.6-1.4c-1.6,0.6-3.3,0.9-4.9,1.3c-2,0.4-3.3,1.7-3.7,3.6c-0.3,1.1-0.5,2.2-0.8,3.3c-0.3,1.3-0.7,2.8-1,4.2
	c0,0.1,0,0.1,0,0.2l0.2,0.2l-0.4,0.1c-0.1,0-0.2,0-0.4,0c-0.4,0-0.8,0-1.2,0c-0.3,0-0.6,0-0.9,0c-0.4,0-0.7,0-0.9-0.2
	c-0.3-0.2-0.5-0.9-0.6-1.8c-0.1-0.4-0.1-0.7-0.2-1c-0.4-1.6-0.9-3.3-1.3-5.1c-0.5-1.9-1.7-3.1-3.7-3.6c-1.7-0.4-3.5-0.8-5.3-1.4
	c-2-0.7-3.7-0.3-5.1,1.3c-1.4,1.5-2.8,3-4.1,4.3l-1.5,1.6l-0.6-0.4c-0.7-0.4-1.5-0.9-2.3-1.3c0,0-0.1,0-0.1-0.1l-0.1-0.1l0-0.2
	c0,0,0-0.1,0.1-0.2c0.3-1.1,0.7-2.2,1-3.4c0.3-1.2,0.7-2.6,1.1-3.9c0.7-2.1,0.2-3.9-1.5-5.4c-1.4-1.2-2.6-2.5-3.8-3.8
	c-1.3-1.4-3-1.9-4.8-1.4c-1.1,0.3-2.1,0.6-3.2,0.9c-1.4,0.4-2.9,0.8-4.4,1.3c-0.1,0-0.1,0-0.1,0l-0.2,0.1l-0.1-0.2
	c0,0-0.1-0.1-0.1-0.2c-0.4-0.8-0.9-1.6-1.2-2.1l-0.1-0.2l0.1-0.1c0.5-0.5,1-1.1,1.4-1.6c1.3-1.5,2.6-2.9,3.9-4.2
	c1.7-1.7,2.1-3.4,1.3-5.6c-0.6-1.6-1-3.3-1.3-4.8c-0.4-2.1-1.6-3.3-3.7-3.8c-1.1-0.3-2.2-0.5-3.3-0.8l-0.2,0c-1.3-0.3-2.6-0.7-3.9-1
	v1.6L5.1,57c0-0.1,0-0.2,0-0.3c0-0.4,0-0.8,0-1.2C5,54.7,5,53.9,5.2,53.5c0.2-0.3,0.9-0.4,1.8-0.6c0.4-0.1,0.7-0.1,1-0.2
	c1.6-0.4,3.3-0.8,5.1-1.3c1.9-0.5,3.1-1.7,3.5-3.7c0.3-1.5,0.8-3.4,1.4-5.3c0.6-2,0.2-3.6-1.2-5c-1.4-1.3-2.8-2.6-4.2-4l-1.8-1.7
	l0.3-0.6c0.5-0.8,0.9-1.6,1.4-2.3l0-0.1l0.1,0c0.1,0,0.2-0.1,0.4-0.1c2.2,0.6,4.8,1.3,7.3,2.1c2.1,0.7,3.9,0.2,5.4-1.5
	c1.1-1.2,2.2-2.4,3.5-3.5c1.7-1.5,2.3-3.3,1.6-5.4c-0.4-1.3-0.8-2.6-1.1-3.9c-0.3-1-0.6-2.2-1-3.3c0-0.1,0-0.2-0.1-0.2l-0.1-0.1
	l0.2-0.2c0.1,0,0.1-0.1,0.2-0.2c0.8-0.4,1.6-0.9,2.1-1.2l0.2-0.1l0.2,0.1c0.5,0.4,0.9,0.8,1.4,1.2l0.2,0.2c1.5,1.3,2.9,2.6,4.3,4
	c1.6,1.6,3.3,2,5.3,1.3c1.7-0.6,3.5-1,5-1.3c2.1-0.4,3.3-1.7,3.8-3.7c0.3-1.2,0.6-2.4,0.9-3.7l0.3,0l-0.2-0.1
	c0.3-1.2,0.6-2.4,0.9-3.7c0-0.1,0-0.2,0.1-0.2l-0.1-0.1l0.2-0.1c0,0,0.1-0.1,0.4-0.1c1,0.1,2,0,2.8,0h0.1L57,5.1l0.1,0.2
	c0,0.1,0.1,0.2,0.1,0.3c0.3,1.2,0.6,2.4,0.9,3.6l0,0.1c0.3,1.3,0.6,2.5,0.9,3.8c0.5,2.1,1.7,3.3,3.9,3.7c2,0.4,3.6,0.8,4.9,1.3
	c2.1,0.7,3.9,0.3,5.4-1.4c1.3-1.5,2.8-2.9,4-4.2l1.5-1.6l3,1.8l-0.2,0.9c-0.2,0.9-0.5,1.8-0.7,2.7c-0.3,1.1-0.6,2.1-0.9,3.2L79.5,21
	c-0.5,1.6-0.1,3.1,1.2,4.3c1.6,1.6,3.1,3,4.4,4.4c1.3,1.3,2.8,1.7,4.5,1.2c1-0.3,2.1-0.6,3.1-0.9c1.5-0.4,3.1-0.9,4.6-1.3
	c0.1,0,0.1,0,0.2,0c0,0,0,0,0,0l0.2-0.1l0.2,0.2c0,0,0.1,0.1,0.1,0.2c0.4,0.8,0.8,1.5,1.2,2.1l0.2,0.3l-0.1,0.1
	c-0.5,0.5-0.9,1-1.4,1.5c-1.3,1.5-2.6,2.9-3.9,4.2c-1.7,1.7-2.1,3.4-1.4,5.6c0.6,1.6,1,3.4,1.3,4.9c0.4,2,1.7,3.3,3.6,3.7
	c1.1,0.3,2.3,0.5,3.4,0.8l0.1,0c1.4,0.3,2.7,0.7,4.1,1c0.1,0,0.1,0,0.2,0h0.2l0,0.2c0,0.1,0,0.1,0,0.2c0,1,0,1.9,0,2.9l0,0.1l0,0.2
	L105.3,57.1z"/>
<path class="st9" d="M55.3,22.2L55.3,22.2c-18.2,0-33,14.8-33.1,33c0,8.8,3.4,17.1,9.6,23.4c6.3,6.3,14.6,9.8,23.4,9.8h0.2
	c8.7,0,16.9-3.4,23.2-9.6c6.3-6.3,9.8-14.6,9.8-23.4c0-8.8-3.4-17.1-9.7-23.3C72.4,25.7,64.1,22.2,55.3,22.2z M75.3,75.4
	c-5.3,5.3-12.4,8.2-19.9,8.2c0,0,0,0,0,0h-0.1c-15.6-0.1-28.3-12.8-28.3-28.4c0-7.6,3-14.8,8.4-20.2c5.3-5.3,12.4-8.2,19.9-8.2h0.1
	C71,26.9,83.7,39.7,83.7,55.3C83.6,62.9,80.7,70.1,75.3,75.4z"/>
<linearGradient id="SVGID_1_" gradientUnits="userSpaceOnUse" x1="38.2339" y1="54.3446" x2="72.3226" y2="54.3446">
	<stop  offset="0" style="stop-color:#2352A3"/>
	<stop  offset="1" style="stop-color:#28ADE3"/>
</linearGradient>
<path class="st0" d="M67.5,59.9c-1.6-2.7-3.2-5.5-4.9-8.3c-1.1-1.8-1.5-3.8-1.3-6.5l0-0.2l0.2,0c0.3-0.1,0.7-0.1,1-0.2
	c2.8-0.9,4.4-3.5,4.1-6.4c-0.3-2.7-2.5-4.9-5.2-5.1C59.4,33,57.4,33,55.7,33l-1.5,0l-1.1,0c-1.4,0-2.8,0-4.2,0.1
	c-1.7,0.2-3.2,1.2-4.1,2.7c-1,1.5-1.2,3.4-0.6,5c0.8,2.2,2.4,3.6,4.9,4l0.2,0l0,0.2c0.2,2.6-0.3,4.9-1.6,7
	c-2.4,3.8-4.6,7.8-6.9,11.6L39.5,66c-1.3,2.2-1.4,4.6-0.2,6.6c1.1,1.9,3.3,3.1,5.8,3.1h7.8c1.5,0,2.9,0,4.4,0c2.7,0,5.4,0,8.1,0
	c2.6,0,4.6-1,5.8-3.1c1.2-2.1,1.2-4.4-0.2-6.7C69.8,63.9,68.6,61.9,67.5,59.9z M48.6,39c0-0.6,0.5-1.2,1.2-1.2c4,0,7.7,0,11.1,0
	c0.6,0,1,0.4,1.1,1.1c0.1,0.7-0.3,1.1-0.9,1.3c-0.4,0.1-0.9,0.1-1.4,0.1l-0.4,0c-1.8,0.1-2.7,0.9-2.7,2.8c-0.1,3.7-0.1,7.7,2.3,11.3
	l0.3,0.4h-7.6l0.3-0.5c1.5-2.4,2.3-5.2,2.2-8.2c0-0.5,0-1,0-1.5c0-0.5,0-1,0-1.5c0-1.9-0.9-2.7-2.7-2.8c-0.2,0-0.3,0-0.5,0
	c-0.3,0-0.7,0-1.1,0C49,40.1,48.5,39.6,48.6,39z M67.2,70.2c-0.3,0.5-0.9,0.8-1.6,0.8c-3.5,0-6.9,0-10.3,0c-3.5,0-7,0-10.4,0
	c-0.7,0-1.2-0.2-1.5-0.7c-0.3-0.5-0.3-1.2,0-2c0.6-1.3,1.3-1.8,2.4-1.8c0.2,0,0.4,0,0.6,0.1c0.8,0.1,1.6,0.1,2.3,0.1l0.1,0
	c0.2,0,0.5,0,0.7,0c1.6,0,2.6-0.9,2.6-2.3c0-1.4-1.1-2.3-2.6-2.3c-0.5,0-1.1,0-1.6,0l-0.7,0l0.2-0.4c0.4-0.7,0.8-1.4,1.2-2l0-0.1
	c0.1-0.1,0.3-0.2,0.4-0.2c4.8,0,8.7,0,12.3,0c0.2,0,0.5,0.2,0.6,0.3c1.9,3.2,3.6,6,5.1,8.8C67.5,69.1,67.5,69.8,67.2,70.2z"/>
</svg>
