<?xml version="1.0" encoding="utf-8"?>
<!-- Generator: Adobe Illustrator 27.7.0, SVG Export Plug-In . SVG Version: 6.00 Build 0)  -->
<svg version="1.1" id="Layer_1" xmlns="http://www.w3.org/2000/svg" xmlns:xlink="http://www.w3.org/1999/xlink" x="0px" y="0px"
	 viewBox="0 0 110.5 110.5" style="enable-background:new 0 0 110.5 110.5;" xml:space="preserve">
<style type="text/css">
	.st0{fill:url(#SVGID_1_);}
	.st1{fill:#FFFFFF;}
	.st2{fill:url(#SVGID_00000142178456139061827450000016350197448340484996_);}
	.st3{fill:url(#SVGID_00000132767393388588847970000002081116274251519878_);}
	.st4{fill:url(#SVGID_00000018239265614809274270000017172598889851722383_);}
	.st5{fill:url(#SVGID_00000000928913035284314440000014856585512369271739_);}
	.st6{fill:url(#SVGID_00000155147751780480320170000016514106399742777481_);}
	.st7{fill:url(#SVGID_00000085960417295422843440000014131441818505273522_);}
	.st8{fill:url(#SVGID_00000060713281931065538650000006572354661295188647_);}
	.st9{fill:#231F20;}
	.st10{fill:url(#SVGID_00000056389547662008643070000008496753967775286400_);}
	.st11{fill:none;}
	.st12{fill:url(#SVGID_00000129891946620438951880000014680666377910896041_);}
	.st13{fill:url(#SVGID_00000153689651447232269780000016038465434046742698_);}
	.st14{fill:url(#SVGID_00000026857221096845743330000001239578515119499406_);}
	.st15{fill:url(#SVGID_00000115503924358464544810000012374884564353782933_);}
	.st16{fill:url(#SVGID_00000058571244959897344170000002563384619583974298_);}
	.st17{fill:url(#SVGID_00000040555587349889571120000003800301004001780102_);}
	.st18{fill:url(#SVGID_00000130639600421342077190000013413685270783831691_);}
	.st19{fill:url(#SVGID_00000173877513490897193010000003935178094598061742_);}
	.st20{fill:url(#SVGID_00000113352757729511307700000007323259048258825401_);}
	.st21{fill:url(#SVGID_00000144327337391587738700000017943042495985619628_);}
	.st22{fill:#064295;}
	.st23{fill:url(#SVGID_00000183963971124765559320000008544503033583004327_);}
	.st24{fill:#010101;}
	.st25{fill:url(#SVGID_00000006689422034274869550000014900344719330824874_);}
	.st26{fill:url(#SVGID_00000173871554466647501310000014278357302404876728_);}
	.st27{fill:#DFDFDF;}
	.st28{fill:url(#SVGID_00000066506830928640220830000009278605608821792390_);}
	.st29{fill:url(#SVGID_00000092434447049407023980000014930540927526976186_);}
	.st30{fill:#696969;}
	.st31{fill:url(#SVGID_00000063606593027838317340000013936776720662250896_);}
	.st32{fill:#F2F2F2;}
	.st33{fill:#D6D6D6;}
	.st34{fill:#E4E4E4;}
	.st35{fill:#DDDDDD;}
	.st36{fill:url(#SVGID_00000053516799322741005600000002225005751501168257_);}
	.st37{fill:url(#SVGID_00000178172208345672496320000006828739518322886273_);}
	.st38{fill:url(#SVGID_00000019645756854625221900000015423868457623197110_);}
	.st39{fill:url(#SVGID_00000149370476426543918830000011644622600101377710_);}
	.st40{fill:url(#SVGID_00000147911673429153861430000006838215302771248282_);}
	.st41{fill:url(#SVGID_00000094595411292532940460000008026973346900640386_);}
	.st42{fill:url(#SVGID_00000148653707395466240580000008497850232935262348_);}
	.st43{fill:url(#SVGID_00000091700315195041958280000017048543905352182184_);}
	.st44{fill:url(#SVGID_00000035499550450470496820000001530655089583852182_);}
	.st45{fill:url(#SVGID_00000001631189526379122390000008436717077223809954_);}
	.st46{fill:url(#SVGID_00000115494268115747980690000011632829606392457661_);}
	.st47{fill:url(#SVGID_00000003823233785236761830000017015437135308400574_);}
	.st48{fill:url(#SVGID_00000108276261652976957980000001079024176212959121_);}
	.st49{fill:url(#SVGID_00000008842803477652321690000017516545556376346786_);}
	.st50{fill:url(#SVGID_00000013172479090456986620000005027782235741484475_);}
	.st51{fill:url(#SVGID_00000026852778639335683000000010120281402814941625_);}
	.st52{fill:url(#SVGID_00000092457680335429534650000016684108648457437593_);}
	.st53{fill:url(#SVGID_00000078752165702285230200000003578593869005335699_);}
	.st54{fill:url(#SVGID_00000163064905893739937190000016284121895358345643_);}
	.st55{fill:url(#SVGID_00000090272450022830795300000013577352333489314490_);}
	.st56{fill:url(#SVGID_00000127760044644758420850000010382852256307617713_);}
	.st57{fill:url(#SVGID_00000150063715616426175570000014610770151799473826_);}
	.st58{fill:url(#SVGID_00000093136498912521668640000010398597864697856951_);}
	.st59{fill:url(#SVGID_00000127727909467934300200000017037007940501888946_);}
	.st60{fill:#989898;}
	.st61{fill:url(#SVGID_00000001643394699566135980000002419234410776950203_);}
	.st62{fill:url(#SVGID_00000018916861394177100770000007853667599176320668_);}
	.st63{fill:url(#SVGID_00000137846830638316630430000016071287291158411159_);}
	.st64{fill:url(#SVGID_00000133497182793373153490000015186379867566644649_);}
	.st65{fill:url(#SVGID_00000098911374057937007080000006843490815486985892_);}
	.st66{fill:url(#SVGID_00000152225907279152263810000007165903384555647165_);}
	.st67{fill:url(#SVGID_00000054944677059119351060000004201087668795366038_);}
</style>
<g>
	<path d="M96.9,56c1.3,0,2.4,0,3.5,0c1.7,0,2.7,0.9,2.7,2.3c0,1.5-1,2.3-2.8,2.3c-30.2,0-60.4,0-90.7,0c-1.1,0-2.1-0.2-2.4-1.3
		C7,58.6,7,57.6,7.4,57c0.4-0.5,1.3-0.9,2-1c1.1-0.2,2.3,0,3.7,0c0-0.6,0-1.1,0-1.6c0.1-4.3-0.1-8.6,0.4-12.9
		c1.6-13.5,8.3-23.8,19.8-31c2-1.3,4.2-2.1,6.3-3.2c0.4-0.2,0.8-0.7,0.8-1.1c0.4-3.4,2.9-5.8,6.4-5.9c5.4-0.1,10.9-0.1,16.3,0
		c3.6,0,6,2.4,6.4,5.9c0.1,0.4,0.6,0.9,1,1.1C83.6,13,92,22.6,95.6,36.4c1,3.8,1.3,7.7,1.2,11.7C96.8,50.6,96.9,53.2,96.9,56z
		 M92.5,56c-0.2-5.1,0-10-0.7-14.9C89.9,28,82.7,18.5,70.8,12.6c-0.4-0.2-0.8-0.3-1.3-0.5c0,1.5,0,2.8,0,4.2
		c-0.1,1.7-1.6,2.8-3.1,2.2c-1.1-0.4-1.5-1.4-1.5-2.5c0-2.9,0-5.8,0-8.6c0-1.8-0.6-2.3-2.3-2.3c-5,0-10,0-15,0
		c-1.9,0-2.4,0.5-2.5,2.4c0,2.7,0,5.3,0,8c0,1.5-1,2.4-2.4,2.3c-1.3-0.1-2.1-1-2.2-2.4c0-1,0-2.1,0-3.3c-0.5,0.2-0.9,0.3-1.3,0.5
		c-9.3,4.5-15.7,11.6-19.3,21.3c-2.7,7.1-2.2,14.5-2.2,21.9c0,0.1,0.1,0.1,0.2,0.2C42.6,56,67.4,56,92.5,56z"/>
	<path d="M54.9,110.2c-1.7,0-3.4,0.1-5.1,0c-3.3-0.3-5.8-3-6.1-6.3c-0.1-1.3-0.1-2.6-0.1-3.9c0-1.2-0.4-2.2-1.6-2.7
		c-1.2-0.5-2.3-0.2-3.2,0.8c-0.6,0.7-1.3,1.4-2,2c-3.1,2.9-7.4,2.9-10.4,0c-1.9-1.9-3.8-3.8-5.7-5.7c-3-3.1-3-7.3,0-10.4
		c0.7-0.7,1.4-1.4,2.1-2.1c0.9-0.9,1.2-1.9,0.7-3.1c-0.5-1.2-1.4-1.6-2.7-1.6c-1.6,0-3.2,0-4.7-0.2c-3-0.6-5.2-3.1-5.5-6.2
		c-0.1-1.6-0.1-3.2-0.1-4.8c0-1.6,1-2.6,2.3-2.5c1.4,0,2.2,1,2.3,2.6c0,1.3,0,2.5,0,3.8c0,1.6,1,2.6,2.6,2.7c1.5,0.1,2.9,0,4.4,0.2
		c2.9,0.4,4.8,2,5.8,4.7c1,2.7,0.4,5.2-1.4,7.3c-0.7,0.8-1.6,1.6-2.4,2.4c-1.4,1.4-1.4,2.8,0,4.2c1.8,1.8,3.6,3.7,5.5,5.5
		c1.3,1.3,2.7,1.3,4.1,0c0.7-0.7,1.4-1.4,2.1-2.1c2.3-2.2,5-2.8,7.9-1.7c2.8,1.1,4.5,3.7,4.5,6.9c0,1.1,0,2.2,0,3.3
		c0.1,1.5,1.1,2.6,2.6,2.6c2.8,0,5.5,0,8.3,0c1.6,0,2.6-1.1,2.6-2.7c0.1-1.7-0.1-3.4,0.3-5c1.2-5.4,7.7-7.4,11.8-3.7
		c0.9,0.8,1.7,1.7,2.6,2.5c1.3,1.2,2.6,1.2,3.9,0c1.9-1.9,3.8-3.8,5.7-5.7c1.2-1.3,1.2-2.7,0-4c-0.7-0.8-1.5-1.5-2.2-2.2
		c-2.1-2.3-2.8-4.9-1.6-7.8c1.2-3,3.5-4.5,6.7-4.6c1.2-0.1,2.3,0,3.5,0c1.5-0.1,2.5-1.1,2.5-2.6c0-1.3,0-2.7,0-4
		c0-1.5,1-2.5,2.3-2.5c1.3,0,2.3,0.9,2.3,2.3c0.1,1.8,0.1,3.7-0.1,5.5c-0.4,3.2-3.4,5.8-6.8,5.9c-1.2,0-2.3,0-3.5,0
		c-1.2,0-2.1,0.5-2.6,1.6c-0.4,1.1-0.3,2.1,0.6,3c0.7,0.7,1.4,1.4,2.1,2.1c3.1,3.2,3.1,7.4,0,10.6c-1.8,1.9-3.7,3.7-5.6,5.6
		c-3.1,3.1-7.3,3.1-10.5,0c-0.8-0.7-1.5-1.5-2.2-2.2c-0.8-0.8-1.8-1-2.9-0.6c-1.1,0.4-1.6,1.3-1.7,2.4c0,1.1,0,2.3,0,3.4
		c-0.2,4.3-3.1,7.2-7.4,7.3c-1.3,0-2.7,0-4,0C54.9,110.3,54.9,110.3,54.9,110.2z"/>
	<linearGradient id="SVGID_1_" gradientUnits="userSpaceOnUse" x1="37.2638" y1="73.448" x2="72.6802" y2="73.448">
		<stop  offset="0" style="stop-color:#2352A3"/>
		<stop  offset="1" style="stop-color:#28ADE3"/>
	</linearGradient>
	<path class="st0" d="M55.1,83.5c-9.6,0-17.5-7.6-17.8-17.2c-0.1-1.7,0.8-2.8,2.3-2.9c1.4,0,2.3,1,2.4,2.6c0.4,7,5.1,12,12,12.8
		c6.9,0.8,13.9-5.2,14.1-12.2c0.1-2.3,0.9-3.4,2.5-3.3c1.5,0.1,2.3,1.4,2.1,3.5c-0.7,8.5-6.5,14.8-14.9,16.4
		C56.9,83.4,56,83.4,55.1,83.5z"/>
	<path d="M55,49.8c-6.3,0-12.5,0-18.8,0c-1.6,0-2.6-0.7-2.8-2c-0.2-1.3,0.5-2.3,1.8-2.6c0.4-0.1,0.8-0.1,1.2-0.1
		c12.4,0,24.7,0,37.1,0c1.9,0,2.9,0.7,3,2.1c0.1,1.6-0.9,2.6-2.7,2.6C67.6,49.8,61.3,49.8,55,49.8z"/>
</g>
</svg>
