<?xml version="1.0" encoding="utf-8"?>
<!-- Generator: Adobe Illustrator 27.7.0, SVG Export Plug-In . SVG Version: 6.00 Build 0)  -->
<svg version="1.1" id="Layer_1" xmlns="http://www.w3.org/2000/svg" xmlns:xlink="http://www.w3.org/1999/xlink" x="0px" y="0px"
	 viewBox="0 0 110.4 110.4" style="enable-background:new 0 0 110.4 110.4;" xml:space="preserve">
<style type="text/css">
	.st0{fill:url(#SVGID_1_);}
	.st1{fill:#FFFFFF;}
	.st2{fill:url(#SVGID_00000089552170421556128930000008643506440449753276_);}
	.st3{fill:url(#SVGID_00000067231759750649853270000014622161871745703303_);}
	.st4{fill:url(#SVGID_00000119088140789835912500000007520741740728066741_);}
	.st5{fill:url(#SVGID_00000178195147145486910780000010838090549899216256_);}
	.st6{fill:url(#SVGID_00000034053698284691542080000002310056938975709578_);}
	.st7{fill:url(#SVGID_00000065052013880604928460000013552320428996646573_);}
	.st8{fill:url(#SVGID_00000003810125769951886950000010147728126664625842_);}
	.st9{fill:#231F20;}
	.st10{fill:url(#SVGID_00000137832043474299732000000002573720211351934631_);}
	.st11{fill:none;}
	.st12{fill:url(#SVGID_00000109741326420497456820000009599251765938341784_);}
	.st13{fill:url(#SVGID_00000151543157182635053740000001880452653837720209_);}
	.st14{fill:url(#SVGID_00000177472014681659202540000004207851588383641241_);}
	.st15{fill:url(#SVGID_00000042722622347692356050000007849967951394447275_);}
	.st16{fill:url(#SVGID_00000109732930014610809800000013591058961827264183_);}
	.st17{fill:url(#SVGID_00000148625765987387605930000000437328838938330792_);}
	.st18{fill:url(#SVGID_00000137823796337805533350000008109262578923618957_);}
	.st19{fill:url(#SVGID_00000042708693733924417760000014335827049629821101_);}
	.st20{fill:url(#SVGID_00000145769038145839873430000018341540955291530632_);}
	.st21{fill:url(#SVGID_00000011021263578098790350000004641082606487721385_);}
	.st22{fill:#064295;}
	.st23{fill:url(#SVGID_00000121260425565394546360000007048455533916296107_);}
	.st24{fill:#010101;}
	.st25{fill:url(#SVGID_00000070110142296166671140000010593916803045814207_);}
	.st26{fill:url(#SVGID_00000096754841462078856790000013716442376585264771_);}
	.st27{fill:#DFDFDF;}
	.st28{fill:url(#SVGID_00000102537466915809402600000005641731614403903120_);}
	.st29{fill:url(#SVGID_00000174579253253374943770000011007462247218202028_);}
	.st30{fill:#696969;}
	.st31{fill:url(#SVGID_00000045610908956069461720000017716492503172273052_);}
	.st32{fill:#F2F2F2;}
	.st33{fill:#D6D6D6;}
	.st34{fill:#E4E4E4;}
	.st35{fill:#DDDDDD;}
	.st36{fill:url(#SVGID_00000026868840992296198880000016824574027336872888_);}
	.st37{fill:url(#SVGID_00000108310933370018392490000011896029805562334653_);}
	.st38{fill:url(#SVGID_00000015334026388444456390000006394332488729828525_);}
	.st39{fill:url(#SVGID_00000131338288272675047650000003170891131428757687_);}
	.st40{fill:url(#SVGID_00000150795377042532482590000017831055010130509185_);}
	.st41{fill:url(#SVGID_00000152967935360263912270000010472327908719110583_);}
	.st42{fill:url(#SVGID_00000159433190905611739900000011687171961724039562_);}
	.st43{fill:url(#SVGID_00000020371839134113931370000017720575118453501325_);}
	.st44{fill:url(#SVGID_00000039130991109665589360000011618834997041887676_);}
	.st45{fill:url(#SVGID_00000052094227332686473420000010867403034452156072_);}
	.st46{fill:url(#SVGID_00000052102791428180563770000016115401121622680981_);}
	.st47{fill:url(#SVGID_00000159450931630285026010000009766441246216522641_);}
	.st48{fill:url(#SVGID_00000095309776899738354800000012442913281716044680_);}
	.st49{fill:url(#SVGID_00000023276249089399650480000002145574907221900463_);}
	.st50{fill:url(#SVGID_00000131338236127368833470000002506312171291337398_);}
	.st51{fill:url(#SVGID_00000143583257352500918260000016564658244207105431_);}
	.st52{fill:url(#SVGID_00000127026807858653007400000009668191365658026410_);}
	.st53{fill:url(#SVGID_00000003101112061217257610000014394924813105672859_);}
	.st54{fill:url(#SVGID_00000021098507726392037500000011992045938775457187_);}
	.st55{fill:url(#SVGID_00000109026890193860761710000012459861664511878071_);}
	.st56{fill:url(#SVGID_00000058585959877849042270000004356847885887079301_);}
	.st57{fill:url(#SVGID_00000132768754295317659410000014250122464615498420_);}
	.st58{fill:url(#SVGID_00000048461438484236433700000002548004224169497002_);}
	.st59{fill:url(#SVGID_00000089540648619898303890000011812755997487347883_);}
	.st60{fill:#989898;}
	.st61{fill:url(#SVGID_00000167397594931169583770000016788510191318318484_);}
	.st62{fill:url(#SVGID_00000043431357626697624720000009513359501144530111_);}
	.st63{fill:url(#SVGID_00000131365414989837791940000017049935274129281164_);}
	.st64{fill:url(#SVGID_00000062900509995945016250000009804297431133432469_);}
	.st65{fill:url(#SVGID_00000057126489239575462550000001127382788226667446_);}
	.st66{fill:url(#SVGID_00000086672264238726431450000014182315950445777819_);}
	.st67{fill:url(#SVGID_00000106123468303378167850000007338936742414102445_);}
</style>
<g>
	<path d="M110.4,88c-0.5,1.8-1.2,3.6-2.7,4.9c-1.8,1.8-4.1,2.5-6.6,2.5c-30.1,0-60.2,0-90.3,0c-5.5,0-9.1-3.7-9.1-9.2
		c0-15.2,0-30.4,0-45.6c0-0.2,0-0.4,0-0.6c0.1-1,0.7-1.7,1.6-1.7c0.9,0,1.7,0.7,1.8,1.6c0,0.3,0,0.6,0,1c0,10.2,0,20.4,0,30.6
		c0,0.4,0,0.8,0,1.3c33.9,0,67.8,0,101.8,0c0-0.4,0-0.7,0-1.1c0-16.2,0-32.3,0-48.5c0-3.7-2.2-6-6-6c-18.3,0-36.6,0-55,0
		c-0.4,0-0.8,0.1-1.2,0c-0.9-0.2-1.4-0.8-1.3-1.7c0-0.9,0.6-1.5,1.4-1.7c0.3-0.1,0.7,0,1.1,0c18.3,0,36.6,0,55,0
		c4.8,0,8,2.4,9.2,7.1c0,0.1,0.1,0.2,0.2,0.3C110.4,43.4,110.4,65.7,110.4,88z M107,76.7c-34,0-67.9,0-101.9,0c0,3.1,0.1,6,0,9
		c-0.2,3.4,2.2,6.2,6.2,6.2c27.2-0.1,54.4,0,81.6,0c2.8,0,5.7,0,8.5,0c3.4,0,5.6-2.2,5.7-5.7c0-2.9,0-5.8,0-8.7
		C107.1,77.2,107.1,77,107,76.7z"/>
	<path d="M22.4,0c1.9,0.8,2.8,2.3,3,4.3c0,0.4,0.1,0.8,0.2,1.2c0.2,0.9,1.3,1.4,2,0.9c0.8-0.5,1.5-1,2.2-1.5
		c1.1-0.7,2.3-0.9,3.5-0.4C35,5.3,36.1,6.5,36.8,8c0.5,1.1,0.3,2.2-0.3,3.2c-0.4,0.7-0.9,1.3-1.4,1.9c-0.8,1.1-0.3,2.2,1,2.4
		c0.8,0.1,1.6,0.2,2.4,0.4c1.7,0.5,2.7,1.9,2.8,3.7c0.3,4.3-1.2,5.5-4.8,5.9c-0.6,0.1-1.5,0-1.6,0.9c-0.1,0.5-0.1,1,0.1,1.4
		c0.4,0.8,0.9,1.4,1.4,2.2c0.6,1,0.7,2,0.3,3.1c-0.7,2.2-3.3,4.1-5.4,3.6c-1.2-0.3-2.3-1.2-3.5-1.8c-0.3-0.2-0.8-0.3-1.1-0.3
		c-0.7,0.1-1.1,0.4-1.2,1.2c0,0.6-0.2,1.3-0.3,1.9c-0.4,1.9-1.9,3.2-3.8,3.3c-0.1,0-0.2,0-0.3,0c-4,0.1-5.1-0.8-5.7-4.7
		c-0.1-0.5-0.1-1.1-0.5-1.4c-0.6-0.5-1.2-0.7-2-0.1c-1.2,1-2.4,2-4.2,1.9c-2.1-0.2-3.2-1.7-4.1-3.3c-0.8-1.3-0.5-2.8,0.4-4
		c0.4-0.5,0.7-1,1.1-1.5C7,27,6.6,26,5.2,25.7c-0.6-0.1-1.2-0.2-1.8-0.3c-2.1-0.3-3.4-1.8-3.4-4c0-0.5,0-1,0-1.5
		c0-2,1.3-3.5,3.3-3.9c0.6-0.1,1.3-0.2,1.9-0.3c1.4-0.3,1.8-1.3,1-2.5c-0.3-0.4-0.6-0.8-0.8-1.3C3.8,9.6,3.9,8.1,5.9,6.1
		c1.9-1.9,3.5-2.3,5.3-1.3c0.8,0.4,1.5,1.1,2.3,1.6c0.3,0.2,0.6,0.2,1,0.2c0.8,0,1.2-0.5,1.2-1.3c0-0.3,0.1-0.6,0.1-0.9
		c0.2-2,1.1-3.5,3-4.4C20,0,21.2,0,22.4,0z M33.4,32.1c-0.6-0.8-1.2-1.6-1.7-2.5c-0.3-0.6-0.6-1.3-0.7-2c-0.1-2.7,1.8-4.9,4.4-5.4
		c0.4-0.1,0.8-0.2,1.3-0.2c1.3,0,0.9-0.9,1-1.7c0.1-0.8-0.4-0.9-1-1c-0.9-0.1-1.7-0.3-2.5-0.4c-1.2-0.2-2.1-0.8-2.6-1.9
		c-1.1-2.2-1.4-4.3,0.5-6.4c1.3-1.5,1.2-1.6-0.5-2.9c-0.6,0.5-1.4,0.8-2,1.4c-2.3,2.4-7.6,0-7.9-3.3c-0.1-0.8-0.3-1.6-0.4-2.3
		c-0.7,0-1.3,0-2,0c-0.6,2.4-0.4,5-3.4,6.3c-3,1.3-4.7-0.7-6.7-2c-0.5,0.5-1,1-1.6,1.5c0.6,0.8,1.1,1.6,1.7,2.4
		c1.4,2.1,0.4,5.9-1.9,7c-0.3,0.1-0.5,0.2-0.8,0.3c-0.8,0.2-1.5,0.4-2.3,0.4c-1,0-1,0.6-1,1.4c0,0.8,0.1,1.3,1,1.3
		c2.6,0.1,4.7,1,5.6,3.8c0.4,1.4,0.5,2.7-0.4,3.9c-0.6,0.8-1.1,1.6-1.7,2.4c0.5,0.5,0.9,0.9,1.3,1.3c0.9-0.6,1.6-1.3,2.6-1.8
		c0.9-0.4,2-0.7,2.8-0.5c2.9,0.8,4.2,1.9,4.5,4.8c0,0.4,0.1,0.9,0.2,1.3c0.1,0.2,0.2,0.5,0.4,0.5c0.6,0.1,1.2,0.1,1.8,0.2
		c0.5-2.5,0.4-5.1,3.5-6.3c3-1.2,4.8,0.7,6.8,2C32.4,33.1,32.9,32.7,33.4,32.1z"/>
	<path d="M72,106.9c2,0,4,0,5.9,0c1.4,0,2.1,0.6,2.1,1.7c0,1.1-0.8,1.7-2.1,1.7c-14.6,0-29.2,0-43.7,0c-1.3,0-2-0.6-2-1.7
		c0-1.1,0.8-1.8,2.1-1.8c1.9,0,3.7,0,5.8,0c0-1.4,0-2.8,0-4.2c0-0.6,0-1.3,0-1.9c0.1-1.1,0.8-1.8,1.7-1.8c0.9,0,1.7,0.8,1.7,1.9
		c0,1.6,0,3.2,0,4.7c0,0.4,0,0.8,0,1.3c8.3,0,16.5,0,24.9,0c0-1.3,0-2.6,0-3.9c0-0.7,0-1.4,0-2.2c0.1-1.1,0.8-1.8,1.7-1.8
		c0.9,0,1.7,0.8,1.7,1.9c0,1.6,0,3.2,0,4.8C72,106,72,106.4,72,106.9z"/>
	<path d="M56,89.5c-2.9,0-5.1-2.3-5.1-5.2c0-2.8,2.4-5.2,5.3-5.1c2.8,0,5.1,2.4,5.1,5.3C61.2,87.3,58.9,89.5,56,89.5z M57.8,84.1
		c0-0.9-0.9-1.7-1.8-1.6c-0.9,0-1.7,0.8-1.6,1.8c0.1,0.9,0.9,1.6,1.8,1.6C57,85.8,57.8,85,57.8,84.1z"/>
	<path d="M20.5,29.3c-5,0-8.8-3.8-8.9-8.6c0-4.9,4-8.8,8.8-8.8c5,0,8.8,3.8,8.8,8.8C29.3,25.6,25.5,29.3,20.5,29.3z M15.2,20.7
		c0,2.9,2.4,5.4,5.3,5.3c2.8,0,5.3-2.4,5.3-5.2c0-2.8-2.6-5.5-5.4-5.5C17.6,15.4,15.2,17.8,15.2,20.7z"/>
	<g>
		<linearGradient id="SVGID_1_" gradientUnits="userSpaceOnUse" x1="45.0619" y1="45.2086" x2="83.4343" y2="45.2086">
			<stop  offset="0" style="stop-color:#2352A3"/>
			<stop  offset="1" style="stop-color:#28ADE3"/>
		</linearGradient>
		<path class="st0" d="M83.4,43.9c-0.2-1.7-1.4-2.9-3.2-3.2l-0.2,0c-0.6-0.1-1.3-0.2-1.9-0.3c-0.1,0-0.2-0.1-0.3-0.2
			c-0.7-1-0.7-1,0.1-2c0.1-0.1,0.2-0.3,0.3-0.4c0.3-0.3,0.5-0.7,0.7-1c0.2-0.4,0.4-0.8,0.6-1.3c0.1-0.2,0.2-0.4,0.2-0.6l0.1-0.2
			l-0.1-0.2c-0.1-0.2-0.2-0.4-0.3-0.6c-0.2-0.5-0.4-0.9-0.7-1.3c-0.3-0.4-0.6-0.8-0.9-1.1c-0.1-0.1-0.3-0.3-0.4-0.4
			c-0.7-0.7-1.5-1.1-2.7-1.1c0,0,0,0-0.1,0c-1.4,0-2.4,0.8-3.3,1.6c-0.7,0.6-1.2,0.7-1.8,0.2c-0.2-0.2-0.4-0.4-0.5-0.6
			c-0.1-0.4-0.2-0.9-0.2-1.3c0-0.3-0.1-0.6-0.1-0.9c-0.3-1.7-1.6-2.9-3.4-2.9c-0.7,0-1.5,0-2.3,0c-1.6,0.1-2.9,1.1-3.2,2.7
			c-0.1,0.4-0.1,0.8-0.2,1.2c0,0.4-0.1,0.7-0.2,1.1c-0.1,0.6-0.3,0.7-0.3,0.7c-1,0.6-1,0.6-1.9-0.1l-0.4-0.3
			c-0.4-0.3-0.7-0.6-1.1-0.8c-1.4-0.9-3.3-0.8-4.5,0.4c-0.5,0.5-1,1.1-1.5,1.6c-1.1,1.4-1.1,3-0.1,4.4c0.2,0.3,0.4,0.5,0.6,0.8
			c0.3,0.3,0.5,0.7,0.8,1c0.1,0.1,0.1,0.3,0.1,0.3c-0.3,0.9-0.6,1.4-1.4,1.3c-0.4,0-0.8,0.1-1.2,0.1c-0.1,0-0.2,0-0.4,0.1
			c-1.9,0.3-3.1,1.8-3.2,3.7l0,0.1c0,0.7,0,1.3,0,2c0.1,1.7,1.2,3,2.9,3.3c0.7,0.1,1.4,0.2,2.1,0.3c0.3,0,0.5,0.3,0.7,0.7
			c0.2,0.4,0.2,0.8,0,1c-0.2,0.2-0.4,0.5-0.5,0.7c-0.3,0.4-0.6,0.8-0.9,1.2c-0.9,1.3-0.9,2.8,0.1,4.1c0.5,0.7,1.1,1.3,1.6,1.8
			c1.2,1.1,3,1.3,4.4,0.3c0.4-0.3,0.9-0.6,1.3-0.9c0.2-0.1,0.4-0.3,0.5-0.4c0.4-0.3,0.8-0.3,1.2-0.2c0.4,0.2,0.7,0.6,0.7,1
			c0.4,4.1,1.8,5,4.9,5c0.3,0,0.5,0,0.8,0c0.1,0,0.2,0,0.4,0c1.7-0.2,2.8-1.2,3.2-2.9c0.1-0.4,0.2-0.9,0.2-1.4
			c0.1-0.4,0.1-0.7,0.2-1.1c0.1-0.3,0.3-0.5,0.6-0.7c0.3-0.1,0.7-0.1,0.9,0c0.3,0.2,0.6,0.4,0.8,0.6c0.5,0.3,0.9,0.7,1.4,1
			c1.5,1,3.3,0.8,4.6-0.5c0.4-0.4,0.8-0.9,1.3-1.4c1.2-1.5,1.3-3,0.2-4.5c-0.1-0.2-0.3-0.4-0.5-0.6c-0.3-0.4-0.6-0.7-0.8-1.1
			c-0.1-0.1-0.1-0.4-0.1-0.7c0.1-0.7,0.5-1,1.3-1c0.4,0,0.9-0.1,1.3-0.2l0.2,0c1.7-0.3,2.9-1.5,3.1-3.1
			C83.5,45.8,83.5,44.9,83.4,43.9z M73.3,51.4c-0.1,0.5,0.2,1.1,0.4,1.5l0.1,0.1c0.1,0.3,0.3,0.6,0.5,0.9c0.1,0.1,0.2,0.2,0.2,0.3
			c0.9,1.4,0.9,1.5-0.3,2.5c-0.1-0.1-0.3-0.2-0.4-0.3c-0.5-0.3-1-0.7-1.4-1.1c-1.2-1-2.5-1.1-4-0.5L68.1,55c-1,0.4-2.2,0.9-2.7,2.3
			c-0.2,0.6-0.3,1.3-0.4,1.9c0,0.3-0.1,0.5-0.1,0.8c0,0.2-0.1,0.5-0.1,0.7h-1.5l-0.1-0.5c-0.1-0.6-0.2-1.1-0.3-1.6
			c-0.2-1.3-1-2.5-2.2-3.2c-1.2-0.7-2.5-1-3.6-0.6c-0.6,0.2-1,0.5-1.5,0.9c-0.2,0.1-0.3,0.3-0.5,0.4c-1.1,0.8-1.1,0.8-2.1-0.2
			c0,0,0-0.1-0.1-0.1l0.3-0.5c0.4-0.5,0.8-1.1,1.2-1.6c0.9-1.1,1-2.4,0.4-3.6c-0.1-0.2-0.2-0.4-0.2-0.6c-0.1-0.2-0.2-0.4-0.3-0.6
			c-0.6-1.2-1.5-1.9-2.7-2.1c-0.3,0-0.6-0.1-0.9-0.2l-0.6-0.1c-0.7-0.1-1.1-0.2-1.2-0.4c-0.1-0.2-0.1-0.6,0-1.3c0,0,0.1-0.1,0.2-0.2
			c0.6-0.1,1.2-0.2,1.7-0.3l0.5-0.1c1.3-0.2,2.3-0.9,2.9-2.1c0.2-0.5,0.4-1,0.6-1.4c0.4-1.1,0.3-2.1-0.3-3.1c-0.2-0.4-0.5-0.7-0.7-1
			l-0.1-0.1c-0.5-0.7-0.8-1.1-0.8-1.4c0-0.2,0.4-0.6,1-1.1c0.1,0.1,0.3,0.2,0.4,0.3c0.5,0.3,1,0.7,1.4,1.1c0.9,0.9,2.6,1,4.3,0.4
			c1.7-0.7,2.8-1.9,2.8-3.1c0-0.5,0.1-0.9,0.2-1.4c0.1-0.3,0.1-0.6,0.1-0.8c0.1-0.4,0.2-0.4,0.4-0.4c0.3,0,0.6,0,0.9,0
			c0.3,0,0.3,0,0.3,0.2c0.1,0.6,0.2,1.1,0.2,1.7l0.1,0.4c0.3,1.6,1.1,2.6,2.4,3.2c0.3,0.1,0.5,0.2,0.8,0.3l0.3,0.1
			c1.2,0.5,2.3,0.4,3.4-0.4c0.6-0.4,1.1-0.8,1.7-1.3l0.6-0.5c0,0,0,0.1,0.1,0.1c0.2,0.3,0.5,0.6,0.6,0.9c0.1,0.1,0.1,0.4,0,0.5
			c-0.3,0.5-0.7,1-1,1.4l-0.4,0.5c-0.8,1-0.9,2.2-0.4,3.5c0.1,0.2,0.1,0.3,0.2,0.5c0.1,0.2,0.1,0.3,0.2,0.5c0.6,1.5,1.7,2.4,3.2,2.5
			c0.3,0,0.6,0.1,0.9,0.1l0.3,0c1.1,0.2,1.1,0.2,1.1,1.1l0,0.1c0,0.3,0,0.5-0.1,0.6c-0.1,0.1-0.2,0.1-0.5,0.1
			c-0.3,0-0.6,0.1-0.8,0.1c-0.2,0-0.4,0.1-0.6,0.1C74.9,46.6,73.5,49,73.3,51.4z"/>
		
			<linearGradient id="SVGID_00000024001751508742168170000003405525651493038730_" gradientUnits="userSpaceOnUse" x1="55.7926" y1="45.1856" x2="72.3797" y2="45.1856">
			<stop  offset="0" style="stop-color:#2352A3"/>
			<stop  offset="1" style="stop-color:#28ADE3"/>
		</linearGradient>
		<path style="fill:url(#SVGID_00000024001751508742168170000003405525651493038730_);" d="M64.2,36.9
			C64.2,36.9,64.2,36.9,64.2,36.9c-4.6,0-8.4,3.7-8.4,8.2c0,2.2,0.8,4.3,2.4,5.8c1.6,1.6,3.7,2.5,5.9,2.5c0,0,0,0,0,0
			c4.4,0,8.2-3.7,8.3-8.2c0-2.2-0.8-4.3-2.4-5.8C68.4,37.8,66.4,36.9,64.2,36.9z M68.7,45.2c0,1.2-0.5,2.4-1.4,3.3
			c-0.9,0.9-2.1,1.4-3.3,1.4c-2.5,0-4.6-2.2-4.6-4.7c0-2.5,2.2-4.7,4.7-4.7c0,0,0,0,0,0c1.2,0,2.4,0.5,3.3,1.4
			C68.2,42.8,68.8,44,68.7,45.2z"/>
	</g>
</g>
</svg>
