<?xml version="1.0" encoding="utf-8"?>
<!-- Generator: Adobe Illustrator 27.7.0, SVG Export Plug-In . SVG Version: 6.00 Build 0)  -->
<svg version="1.1" id="Layer_1" xmlns="http://www.w3.org/2000/svg" xmlns:xlink="http://www.w3.org/1999/xlink" x="0px" y="0px"
	 viewBox="0 0 128 105.1" style="enable-background:new 0 0 128 105.1;" xml:space="preserve">
<style type="text/css">
	.st0{fill:url(#SVGID_1_);}
	.st1{fill:#FFFFFF;}
	.st2{fill:url(#SVGID_00000030458444655919811520000014444415783470069949_);}
	.st3{fill:url(#SVGID_00000102534065368606815240000007155799321745248666_);}
	.st4{fill:url(#SVGID_00000089548753254162887040000010062871600543106451_);}
	.st5{fill:url(#SVGID_00000163777740763952462090000008740771260410925748_);}
	.st6{fill:url(#SVGID_00000066490251478928221040000010917066855214497709_);}
	.st7{fill:url(#SVGID_00000047773726209117702660000015660463621635308727_);}
	.st8{fill:url(#SVGID_00000145758655030900524390000007422647016941803155_);}
	.st9{fill:#231F20;}
	.st10{fill:url(#SVGID_00000013875739758169906210000015138568911454256060_);}
	.st11{fill:none;}
	.st12{fill:url(#SVGID_00000161615753996423224200000003172183029769468838_);}
	.st13{fill:url(#SVGID_00000157278782907584906810000016020099559399496367_);}
	.st14{fill:url(#SVGID_00000014592059617223812640000002720680490751513473_);}
	.st15{fill:url(#SVGID_00000104678312030649629770000006869604211089454772_);}
	.st16{fill:url(#SVGID_00000016767767095389475430000015878129404694124163_);}
	.st17{fill:url(#SVGID_00000065051072076003975720000013270282977049755068_);}
	.st18{fill:url(#SVGID_00000008865782672757082080000015145491483993920921_);}
	.st19{fill:url(#SVGID_00000156573590039984874990000009648824941060643221_);}
	.st20{fill:url(#SVGID_00000180351498334977957940000008027211112374222466_);}
	.st21{fill:url(#SVGID_00000000201101357012761700000015013876940934024835_);}
	.st22{fill:#064295;}
	.st23{fill:url(#SVGID_00000027602575559740070760000002084167675273169837_);}
	.st24{fill:#010101;}
	.st25{fill:url(#SVGID_00000146499573416017448310000003328598383709868478_);}
	.st26{fill:url(#SVGID_00000096038133458604907430000003147631289632025483_);}
	.st27{fill:#DFDFDF;}
	.st28{fill:url(#SVGID_00000173858410750240401300000010743268891626308025_);}
	.st29{fill:url(#SVGID_00000136395597734732310600000011592825857605382027_);}
	.st30{fill:#696969;}
	.st31{fill:url(#SVGID_00000016035061193688672100000006824258423166217866_);}
	.st32{fill:#F2F2F2;}
	.st33{fill:#D6D6D6;}
	.st34{fill:#E4E4E4;}
	.st35{fill:#DDDDDD;}
	.st36{fill:url(#SVGID_00000041982574689128551720000016606553195498380160_);}
	.st37{fill:url(#SVGID_00000003085944414799025730000008108503129538394014_);}
	.st38{fill:url(#SVGID_00000089574435042512703690000001810548489659247521_);}
	.st39{fill:url(#SVGID_00000101810517894634567890000009401948772154576311_);}
	.st40{fill:url(#SVGID_00000139276933323587152500000004222341865523418259_);}
	.st41{fill:url(#SVGID_00000098186388908159143550000011934227823514231972_);}
	.st42{fill:url(#SVGID_00000094582410397903366720000004014890426282801286_);}
	.st43{fill:url(#SVGID_00000160881870071897271270000006175950098637291187_);}
	.st44{fill:url(#SVGID_00000039122122759449216880000001537205309659976856_);}
	.st45{fill:url(#SVGID_00000089537949701822959100000001795057745821520297_);}
	.st46{fill:url(#SVGID_00000013192983244254114100000000261722439858314662_);}
	.st47{fill:url(#SVGID_00000142895139529295063320000007853618465758058398_);}
	.st48{fill:url(#SVGID_00000156584940088124621120000010238215150405474223_);}
	.st49{fill:url(#SVGID_00000085955586997597767080000012694534130170602140_);}
	.st50{fill:url(#SVGID_00000150099712000161086470000007536799668200228511_);}
	.st51{fill:url(#SVGID_00000134971128872678954730000014557920362188383408_);}
	.st52{fill:url(#SVGID_00000172436216206196795130000010092614216700311686_);}
	.st53{fill:url(#SVGID_00000093175698069057610220000002778077498830102660_);}
	.st54{fill:url(#SVGID_00000009581027036987392970000017110500978221302151_);}
	.st55{fill:url(#SVGID_00000077289205767267004440000009915959573752959620_);}
	.st56{fill:url(#SVGID_00000106846048786619282430000001061799760825945009_);}
	.st57{fill:url(#SVGID_00000091715323346591291140000013716303999214197645_);}
	.st58{fill:url(#SVGID_00000147907836716990997680000016447621093691820478_);}
	.st59{fill:url(#SVGID_00000170993905174477501110000013764023239172606630_);}
	.st60{fill:#989898;}
	.st61{fill:url(#SVGID_00000085216747248459930970000006767986846067113145_);}
	.st62{fill:url(#SVGID_00000079468627997009434440000002041782829462537141_);}
	.st63{fill:url(#SVGID_00000114783042548007046620000001546124047938780578_);}
	.st64{fill:url(#SVGID_00000055675278333504780310000009320364635515964584_);}
	.st65{fill:url(#SVGID_00000105422180395941157210000017429135190329722003_);}
	.st66{fill:url(#SVGID_00000042722631352608080400000017712561812883328915_);}
	.st67{fill:url(#SVGID_00000099657190513265388290000015531322870129440925_);}
</style>
<g>
	<path d="M59.5,84.6c0,1.6,0,3,0,4.6c-0.6,0-1.1,0-1.6,0c-15.3,0-30.6,0-46,0c-7.1,0-11.9-4.8-11.9-11.9C0.1,55.6,0.1,34,0,12.3
		C0,6.4,3.8,1.1,9.8,0.1c5.9-0.9,11,2.7,13,9.1c0.6,0,1.2,0,1.8,0c27.4,0,54.8,0,82.2,0c7.3,0,12.1,4.8,12.1,12c0,3.9,0,7.8,0,11.7
		c0,0.5,0,0.9,0,1.5c-1.5,0-2.9,0-4.6,0c0-0.8,0-1.5,0-2.2c0-3.7,0-7.4,0-11.1c0-4.3-2.9-7.3-7.2-7.3c-27.7,0-55.4,0-83.1,0
		c-0.3,0-0.6,0-1,0c0,0.6,0,1.2,0,1.7c0,19.6,0,39.2,0,58.8c0,0.4,0,0.9,0,1.3c-0.1,1.3-0.8,2-2.1,2.1c-1.3,0.1-2.2-0.5-2.4-1.8
		c-0.4-3.2-2.5-4.6-5.4-4.9c-1.5-0.1-3.1-0.1-4.5,0.3c-3.3,0.8-4.5,3.3-3.8,7.3c0.7,3.7,3.4,5.9,7.4,5.9c15.2,0,30.5,0,45.7,0
		C58.3,84.6,58.9,84.6,59.5,84.6z M18.3,67.7c0-0.6,0-1.1,0-1.7c0-13.9,0-27.9,0-41.8c0-4.2,0-8.4,0-12.6c-0.1-4.7-4.2-7.9-8.6-6.7
		C6.6,5.7,4.6,8.4,4.6,12c0,18.2,0,36.4,0,54.7c0,0.4,0,0.7,0.1,1.1C10.7,65.8,11.1,65.8,18.3,67.7z"/>
	<linearGradient id="SVGID_1_" gradientUnits="userSpaceOnUse" x1="64.0145" y1="49.2933" x2="128.0049" y2="49.2933">
		<stop  offset="0" style="stop-color:#2352A3"/>
		<stop  offset="1" style="stop-color:#28ADE3"/>
	</linearGradient>
	<path class="st0" d="M123.5,57.1c0.3,0,0.4,0.1,0.5,0.1c3.6-0.3,4.1,0.9,4,4c-0.1,2.4,0,4.8,0,7.1c0,1.7-0.8,2.6-2.5,2.6
		c-19.6,0-39.3,0-58.9,0c-1.7,0-2.5-0.8-2.5-2.6c0-2.8,0-5.5,0-8.3c0-2.1,0.7-2.8,2.8-2.8c0.6,0,1.2,0,1.9,0c0.5-3.5,1.4-6.9,3.1-10
		c3.2-5.6,7.8-9.5,13.9-11.5c0.8-0.3,1.3-0.7,1.6-1.5c1.2-3.9,4.6-6.4,8.6-6.4c4.1,0,7.5,2.5,8.8,6.4c0.2,0.5,0.7,1.2,1.2,1.4
		c10,3.6,15.8,10.6,17.3,21.1C123.4,56.8,123.4,56.9,123.5,57.1z M73.5,57.1c15,0,30,0,45,0c-0.3-7.6-7.1-15.3-13.4-16.7
		c0,2.5,0,5,0,7.6c-1.6,0-3,0-4.5,0c0-3.7,0-7.3,0-10.9c0-2.9-2-5-4.6-5c-2.6,0-4.5,2.1-4.5,5c0,3.2,0,6.4,0,9.6c0,0.5,0,0.9,0,1.3
		c-1.6,0-3,0-4.6,0c0-2.6,0-5.1,0-7.6C80.4,41.6,73.2,50.7,73.5,57.1z M123.4,61.8c-18.3,0-36.5,0-54.7,0c0,1.5,0,2.9,0,4.4
		c18.3,0,36.5,0,54.7,0C123.4,64.7,123.4,63.3,123.4,61.8z"/>
	<path d="M112.1,95.6c2.2-2.2,4.2-4.2,6.4-6.4c-1.7-1.7-3.4-3.5-5.2-5.2c-1.1-1-1.3-2.1-0.7-3.5c0.6-1.5,1.2-3,3.3-2.9
		c2.4,0.1,4.8,0,7.4,0c0-1.5,0-2.9,0-4.5c1.6,0,3,0,4.5,0c0,2.4,0.1,4.9-0.1,7.4c-0.1,1.1-1.2,1.6-2.4,1.6c-2.3,0-4.6,0-7.4,0
		c1.4,1.4,2.6,2.7,3.9,3.9c0.5,0.5,1,0.9,1.4,1.4c1,1.1,1,2.4,0,3.4c-3.1,3.2-6.2,6.3-9.4,9.4c-1.2,1.1-2.4,1.1-3.6-0.1
		c-1.6-1.6-3.2-3.3-4.8-4.9c-0.1,0-0.3,0.1-0.4,0.1c0,1.7,0,3.3,0,5c0,4.4-0.1,4.6-4.5,4.6c-3.7,0-7.3,0-11,0c-2,0-2.7-0.8-2.7-2.8
		c0-2.2,0-4.5,0-7.1c-1.4,1.4-2.7,2.6-3.9,3.9c-0.5,0.5-0.9,1-1.4,1.4c-1.1,1-2.4,1-3.4,0c-3.2-3.1-6.3-6.2-9.4-9.4
		c-1.1-1.1-1.1-2.5,0.1-3.6c1.6-1.6,3.3-3.2,4.9-4.8c0-0.1-0.1-0.3-0.1-0.4c-1.6,0-3.1,0-4.7,0c-4.8,0-4.8,0-4.8-4.8
		c0-1.4,0-2.8,0-4.4c1.5,0,2.9,0,4.5,0c0,1.5,0,3,0,4.6c2.6,0,5.1,0.1,7.5,0c1.5,0,2.4,0.6,2.9,2c0.6,1.6,1.3,3-0.3,4.4
		c-1.8,1.6-3.5,3.4-5.1,5c2.2,2.2,4.3,4.3,6.5,6.5c1.5-1.5,3.2-3.2,4.9-5c1-1.1,2.1-1.4,3.6-0.8c1.6,0.7,3.1,1.2,2.9,3.4
		c-0.2,2.4,0,4.8,0,7.3c3.1,0,6,0,9.1,0c0-2.3,0-4.6,0-6.9c0-2.5,1.7-4.2,4.3-4.1c0.7,0,1.4,0.5,1.9,1c1.8,1.6,3.5,3.4,5.2,5.1
		C112,95.6,112.1,95.6,112.1,95.6z"/>
	<path d="M43.5,22.9c4.4,0,8.7,0,13.1,0c2.1,0,2.9,0.7,2.9,2.8c0,4.2,0,8.5,0,12.7c0,2-0.8,2.8-2.7,2.8c-8.8,0-17.7,0-26.5,0
		c-2,0-2.7-0.8-2.7-2.8c0-4.2,0-8.5,0-12.7c0-2,0.8-2.8,2.9-2.8C34.7,22.9,39.1,22.9,43.5,22.9z M32.1,36.5c7.6,0,15.2,0,22.7,0
		c0-3.1,0-6,0-9c-7.6,0-15.1,0-22.7,0C32.1,30.6,32.1,33.5,32.1,36.5z"/>
	<path d="M105.2,73.2c1.5,0,2.9,0,4.5,0c-0.2,4.9-2.2,8.8-6.2,11.4c-4.7,3-9.7,3.1-14.5,0.2c-4.3-2.6-6.4-6.5-6.7-11.6
		c1.6,0,3,0,4.5,0c0.3,3.1,1.5,5.7,4.1,7.5c1.7,1.1,3.5,1.7,5.5,1.5C101.2,82,104.3,78.8,105.2,73.2z"/>
	<path d="M59.3,52.5c-10.6,0-21.1,0-31.8,0c0-1.5,0-2.9,0-4.4c10.6,0,21.1,0,31.8,0C59.3,49.5,59.3,51,59.3,52.5z"/>
	<path d="M27.5,63.9c0-1.5,0-2.9,0-4.4c10.6,0,21.2,0,31.8,0c0,1.5,0,2.9,0,4.4C48.8,63.9,38.2,63.9,27.5,63.9z"/>
	<path d="M59.4,71c0,1.5,0,2.9,0,4.4c-10.6,0-21.2,0-31.8,0c0-1.5,0-2.9,0-4.4C38.1,71,48.7,71,59.4,71z"/>
</g>
</svg>
