<?xml version="1.0" encoding="utf-8"?>
<!-- Generator: Adobe Illustrator 27.7.0, SVG Export Plug-In . SVG Version: 6.00 Build 0)  -->
<svg version="1.1" id="Layer_1" xmlns="http://www.w3.org/2000/svg" xmlns:xlink="http://www.w3.org/1999/xlink" x="0px" y="0px"
	 viewBox="0 0 110.7 110.7" style="enable-background:new 0 0 110.7 110.7;" xml:space="preserve">
<style type="text/css">
	.st0{fill:url(#SVGID_1_);}
	.st1{fill:#FFFFFF;}
	.st2{fill:url(#SVGID_00000152234424019086905670000001677307478498335132_);}
	.st3{fill:url(#SVGID_00000039843904207396111530000008477535480933009571_);}
	.st4{fill:url(#SVGID_00000180336222998457185140000006856897811809142708_);}
	.st5{fill:url(#SVGID_00000035519646578208387570000011258118272531032506_);}
	.st6{fill:url(#SVGID_00000068637586783048111600000002696396032393690259_);}
	.st7{fill:url(#SVGID_00000096045087332539622170000009471595641356141993_);}
	.st8{fill:url(#SVGID_00000065790682695845371670000016245576843498579072_);}
	.st9{fill:#231F20;}
	.st10{fill:url(#SVGID_00000136390984779486539330000004219589162068935581_);}
	.st11{fill:none;}
	.st12{fill:url(#SVGID_00000013915124431258605250000013903587451046013884_);}
	.st13{fill:url(#SVGID_00000119838008873046676870000006837373837487387034_);}
	.st14{fill:url(#SVGID_00000117646358486078748850000011613277660378285190_);}
	.st15{fill:url(#SVGID_00000021840573375228876640000002890395450070364052_);}
	.st16{fill:url(#SVGID_00000148642651839671183960000003652681703372266918_);}
	.st17{fill:url(#SVGID_00000136379419707580465830000006790020638823528325_);}
	.st18{fill:url(#SVGID_00000170971199386857089590000013791043498620227733_);}
	.st19{fill:url(#SVGID_00000103262317679025269660000012284582298412369083_);}
	.st20{fill:url(#SVGID_00000108301320229373719810000015821757480757812873_);}
	.st21{fill:url(#SVGID_00000064344192713496510590000002024364664728171425_);}
	.st22{fill:#064295;}
	.st23{fill:url(#SVGID_00000059996265460910029360000003754488384307057289_);}
	.st24{fill:#010101;}
	.st25{fill:url(#SVGID_00000013884919896916426350000005604890872847015573_);}
	.st26{fill:url(#SVGID_00000022523165552584202010000003105143739065075374_);}
	.st27{fill:#DFDFDF;}
	.st28{fill:url(#SVGID_00000140016353824723946310000009707489092396543624_);}
	.st29{fill:url(#SVGID_00000149343981438185088320000011103437861473246141_);}
	.st30{fill:#696969;}
	.st31{fill:url(#SVGID_00000176762548738450480790000007990606571757951378_);}
	.st32{fill:#F2F2F2;}
	.st33{fill:#D6D6D6;}
	.st34{fill:#E4E4E4;}
	.st35{fill:#DDDDDD;}
	.st36{fill:url(#SVGID_00000047035392497474253390000004229784785688756611_);}
	.st37{fill:url(#SVGID_00000183211186995434117230000006355133789221141152_);}
	.st38{fill:url(#SVGID_00000049190607010936424630000001167502832421883833_);}
	.st39{fill:url(#SVGID_00000031916144424316457770000005186607759481026202_);}
	.st40{fill:url(#SVGID_00000013154974011873651470000010893567325016103867_);}
	.st41{fill:url(#SVGID_00000029022048228132401690000004068225857857777810_);}
	.st42{fill:url(#SVGID_00000085949196162625331620000005702292946687681199_);}
	.st43{fill:url(#SVGID_00000037657694816169062210000012273602495855030187_);}
	.st44{fill:url(#SVGID_00000099642192468497434360000008912945427914760833_);}
	.st45{fill:url(#SVGID_00000110428338354007211530000010661016903493244084_);}
	.st46{fill:url(#SVGID_00000176760304810157103160000005606165874948814737_);}
	.st47{fill:url(#SVGID_00000137839409076633447110000014010058414888821124_);}
	.st48{fill:url(#SVGID_00000061434748358029072970000010539547162921114789_);}
	.st49{fill:url(#SVGID_00000142151074542148189770000010909761554752387517_);}
	.st50{fill:url(#SVGID_00000160880248568664762160000006206123617979100326_);}
	.st51{fill:url(#SVGID_00000102536175725172435890000006385245624202331812_);}
	.st52{fill:url(#SVGID_00000079447593536147038710000005626170025797663904_);}
	.st53{fill:url(#SVGID_00000004518403918452652410000015547108831361335718_);}
	.st54{fill:url(#SVGID_00000097491262412750640450000014045581953946282644_);}
	.st55{fill:url(#SVGID_00000037659694016594551230000005702932125906319247_);}
	.st56{fill:url(#SVGID_00000155130204232855426320000002613116511957250484_);}
	.st57{fill:url(#SVGID_00000124882870221780610010000006653311064215616437_);}
	.st58{fill:url(#SVGID_00000118373995000977485950000012835441834350482329_);}
	.st59{fill:url(#SVGID_00000150812711460058239930000003975053423598350005_);}
	.st60{fill:#989898;}
	.st61{fill:url(#SVGID_00000071526579350984696260000011602917283759997878_);}
	.st62{fill:url(#SVGID_00000003804961585058714960000013530850533970018969_);}
	.st63{fill:url(#SVGID_00000124156330278257187790000011237514202655555200_);}
	.st64{fill:url(#SVGID_00000105398399979139175780000006069556280632448174_);}
	.st65{fill:url(#SVGID_00000071547804396093226420000009998533116034495650_);}
	.st66{fill:url(#SVGID_00000176746738891609056650000006540098768686105518_);}
	.st67{fill:url(#SVGID_00000174580994766514343420000003452410977987819393_);}
</style>
<g>
	<linearGradient id="SVGID_1_" gradientUnits="userSpaceOnUse" x1="37.7407" y1="65.4415" x2="73.1021" y2="65.4415">
		<stop  offset="0" style="stop-color:#2352A3"/>
		<stop  offset="1" style="stop-color:#28ADE3"/>
	</linearGradient>
	<path class="st0" d="M47.9,47.8c5.8,0,11.6,0,17.3,0c3.4,0,6.3,1.9,7.3,4.9c0.4,1.1,0.6,2.3,0.6,3.5c0,6.2,0,12.4,0,18.6
		c0,4.6-3.3,8.3-8.2,8.2c-6.3-0.1-12.6-0.1-18.9,0c-2.6,0.1-4.6-0.7-6.2-2.5c-1.2-1.3-2-2.8-2-4.6c0-7.1-0.1-14.2,0-21.3
		c0-2.6,2-5.5,5.1-6.4c0.1,0.1,0.2,0,0.3-0.1C44.7,47.8,46.3,47.8,47.9,47.8z M42.9,65.4c0,3.3,0,6.5,0,9.8c0,2,0.8,2.9,2.8,2.9
		c6.4,0,12.9,0,19.3,0c1.9,0,2.9-1,2.9-2.9c0-6.4,0-12.9,0-19.3c0-1.7-1.2-2.9-2.9-2.9C58.6,52.9,52,52.7,45.5,53
		c-1.9,0.1-2.5,0.8-2.6,2.7C42.9,58.9,42.9,62.1,42.9,65.4z"/>
	
		<linearGradient id="SVGID_00000011728159520668024370000006493377439274831795_" gradientUnits="userSpaceOnUse" x1="42.8913" y1="37.9201" x2="67.9603" y2="37.9201">
		<stop  offset="0" style="stop-color:#2352A3"/>
		<stop  offset="1" style="stop-color:#28ADE3"/>
	</linearGradient>
	<path style="fill:url(#SVGID_00000011728159520668024370000006493377439274831795_);" d="M47.9,47.8c-1.6,0-3.2,0-4.7,0.3
		c-0.1,0-0.2,0-0.3,0c0-2.7,0-5.5,0-8.2c-0.1-5.4,4.2-10.4,9.1-11.7c3.6-1,6.9-0.4,10.1,1.5c0,0.1,0.1,0.2,0.2,0.2
		c3.1,2,4.9,4.8,5.5,8.4c0.2,1.1,0.5,2.1,0,3.2c-0.4,0.8-1.9,1.6-2.7,1.4c-1-0.2-1.7-1.2-1.7-2.3c-0.1-4-3.2-7.4-7.3-7.8
		c-3.2-0.3-6.6,1.4-8,5.9c-0.1,0.3-0.1,0.6-0.1,0.9C47.9,42.4,47.9,45.1,47.9,47.8z"/>
	<path class="st9" d="M14.8,57.7c-0.8,2.2-2.4,3.8-4.5,4.7c-1.9,0.8-4,0.8-5.9-0.2c-2.8-1.4-4.4-3.7-4.4-6.9
		c-0.1-3.3,2.2-6.5,5.4-7.3c1.8-0.4,3.6-0.3,5.4,0.6c1.9,1,3.2,2.3,3.9,4.3C14.8,54.5,15.4,56.1,14.8,57.7z M7.5,53
		c-1.6,0-2.4,0.8-2.4,2.4c0,1.4,0.9,2.3,2.1,2.3c1.9,0,2.6-0.8,2.6-2.7C9.9,53.8,9,53,7.5,53z"/>
	<path class="st9" d="M58.1,96.1c2.3,0.7,3.7,2.5,4.6,4.5c1.7,3.8-1.4,9-5.7,9.9c-3.5,0.8-7.3-1.1-8.6-4.5c-0.8-2-0.7-3.9,0.2-6.1
		c0.9-2.1,2.4-3.2,4.3-3.9c1.6-0.4,3.2-0.6,4.8-0.2C57.8,96.1,57.9,96.2,58.1,96.1z M57.8,103.1c0-1.5-0.9-2.2-2.8-2.2
		c-1.1,0-2.1,1-2.1,2.1c0,1.4,1.1,2.6,2.5,2.6C56.6,105.7,57.8,104.5,57.8,103.1z"/>
	<path class="st9" d="M96,52.8c0.4-1.4,1.6-2.3,2.3-3.5c0.3-0.5,1.3-0.7,1.9-1c0.2,0.1,0.5,0.3,0.5-0.2c1.5-0.4,2.9-0.2,4.4-0.2
		c0.6,0,1.3,0.6,1.9,0.9c2.9,1.8,4,4.5,3.6,7.7c-0.4,2.9-2.2,4.8-4.9,5.9c-3.7,1.4-7.8-0.3-9.7-4.5C95.3,56.2,95.9,54.5,96,52.8z
		 M103.2,53c-1.6,0-2.5,0.9-2.5,2.4c0,1.3,1.2,2.6,2.4,2.5c1.3-0.1,2.6-1.3,2.6-2.7C105.7,53.9,104.7,53,103.2,53z"/>
	<path class="st9" d="M93.2,34.9c-3.1-1.1-5.4-4.3-5.1-7.5c0.2-2.6,1.2-4.9,3.8-6.2c4.9-2.4,9.8-0.3,11.1,4.8c0.8,3-0.2,6.4-3.8,8.4
		c-0.3,0.2-0.7,0.3-1,0.5C96.5,35.3,94.9,35.6,93.2,34.9z M98.1,27.7c0-1.3-1.1-2.5-2.5-2.5c-1.2,0-2.4,1.2-2.4,2.3
		c0,1.6,0.9,2.6,2.4,2.7C97,30.2,98.1,29,98.1,27.7z"/>
	<path class="st9" d="M12.7,34.9c-2.4-0.9-4-2.6-4.8-5c-1.3-4.1,1.3-8.2,4.6-9.2c3.6-1.1,7-0.1,8.9,2.8c2.5,3.8,1.4,8.7-2.8,10.9
		c-0.3,0.2-0.6,0.3-0.9,0.5C16,35.3,14.4,35.6,12.7,34.9z M15,30.1c1.4,0.1,2.6-1,2.7-2.2c0.1-1.5-1.1-2.7-2.7-2.8
		c-1,0-2.4,1.4-2.4,2.5C12.4,28.8,13.7,30.1,15,30.1z"/>
	<path class="st9" d="M98.2,75.9c1.8,0.9,3.3,2,4.2,3.9c2.1,4.5-0.6,10-5.5,10.8c-4.5,0.8-8.2-2.5-8.7-6.2c-0.5-3.7,1.1-6.6,5-8.5
		C94.9,75.5,96.5,75.6,98.2,75.9z M95.4,85.6c1.6,0,2.7-1,2.7-2.5c0-1.3-1.2-2.4-2.5-2.5c-1.4-0.1-2.5,1.3-2.4,2.5
		C93.2,84.3,94.3,85.6,95.4,85.6z"/>
	<path class="st9" d="M52.9,14.8c-2.4-1-4.1-2.7-4.8-5.2c-1-3.8,0.7-7.7,4.5-9.1c3.8-1.4,8.4,0.6,9.7,4.2c1.5,4,0,8.1-4.4,9.9
		c-0.2-0.1-0.2,0-0.3,0.2C56.1,15.4,54.5,14.6,52.9,14.8z M57.8,7.6c0-1.4-1.2-2.5-2.6-2.5c-1.2,0-2.3,1.2-2.4,2.5
		c0,1.2,1.2,2.4,2.5,2.4C56.6,10.1,57.8,8.9,57.8,7.6z"/>
	<path class="st9" d="M17.6,75.9c2.1,0.9,3.7,2.3,4.6,4.6c1.4,3.5-0.6,8.3-4,9.4c-3.9,1.3-6.7,1.2-9.5-2.9c-1.8-2.6-1.6-6.1,0.8-8.8
		c0.9-1,1.9-1.9,3.3-2.3C14.3,75.5,16,75.5,17.6,75.9z M15.1,85.6c1.4,0.1,2.4-1,2.6-2.6c0.1-1.1-1.2-2.3-2.4-2.3
		c-1.4,0-2.8,1.2-2.7,2.4C12.5,84.3,13.8,85.5,15.1,85.6z"/>
	<path class="st9" d="M98.2,75.9c-1.7-0.2-3.3-0.4-5,0c0-1.5,0-2.9,0-4.4c0-0.8-0.2-1.1-1.1-1c-4.6,0-9.2,0-13.8,0
		c-1.6,0-2.9-1.1-2.9-2.5c0-1.4,1.2-2.5,2.8-2.5c5,0,9.9,0,14.9,0c2.9,0,4.9,2.1,5,5C98.2,72.2,98.2,74,98.2,75.9z"/>
	<path class="st9" d="M17.6,75.9c-1.7-0.4-3.3-0.4-5,0c0-1.9,0.1-3.9,0-5.8c-0.1-2,2.3-4.6,4.6-4.6c5.1,0,10.2,0,15.3,0
		c1.6,0,2.5,0.9,2.5,2.4c0,1.6-0.9,2.5-2.5,2.5c-4.6,0-9.2,0-13.8,0c-0.8,0-1.2,0.2-1.1,1.1C17.7,73,17.7,74.4,17.6,75.9z"/>
	<path class="st9" d="M93.2,34.9c1.7,0.7,3.3,0.5,5,0c0,1.8,0,3.6,0,5.4c0,2.9-2.1,4.9-5,5c-5,0-10,0-15,0c-1.6,0-2.8-1.2-2.7-2.6
		c0-1.2,1.3-2.3,2.8-2.3c4.6,0,9.2,0,13.8,0c0.9,0,1.2-0.2,1.2-1.2C93.1,37.7,93.2,36.3,93.2,34.9z"/>
	<path class="st9" d="M12.7,34.9c1.7,0.7,3.3,0.4,5,0c0,1.5,0,2.9,0,4.4c0,0.8,0.2,1.1,1.1,1c4.4,0,8.9,0,13.3,0
		c0.5,0,1,0.1,1.5,0.2c1.3,0.4,1.8,1.2,1.6,2.8c-0.1,1-1,1.9-2.2,1.9c-5.4,0-10.8,0-16.3,0c-1.8,0-4-2.4-4-4.1
		C12.7,39,12.7,37,12.7,34.9z"/>
	<path class="st9" d="M14.8,57.7c0.6-1.6,0-3.2-0.2-4.8c0.5,0,1.1-0.1,1.6-0.1c5.3,0,10.7,0,16,0c1.9,0,2.8,0.9,2.8,2.7
		c0,1.5-1,2.4-2.7,2.4c-2.1,0-4.2,0-6.4,0c-3.3,0-6.7,0-10,0C15.7,57.9,15.2,58.1,14.8,57.7z"/>
	<path class="st9" d="M96,52.8c-0.1,1.7-0.7,3.4,0,5.1c-5.8,0-11.6,0-17.3,0c-2.1,0-3.2-1.1-3.3-3.3c0-0.3,0.2-0.4,0.3-0.5
		c0.4-0.4,0.7-0.7,1-1.1c0.3,0,0.6-0.1,0.9-0.1c0.3,0,0.7-0.1,1-0.1C84.4,52.8,90.2,52.8,96,52.8z"/>
	<path class="st9" d="M57.8,96c-1.6-0.5-3.2-0.2-4.8,0.2c-0.2-2.7-0.2-5.5,0-8.2c0.1-1.4,1.3-2.4,2.5-2.3c1.5,0.1,2.5,1.1,2.5,2.7
		c0.1,2.6,0,5.1,0,7.7C57.9,95.9,57.8,95.9,57.8,96z"/>
	<path class="st9" d="M52.9,14.8c1.6-0.2,3.2,0.7,4.9,0c0.1,0,0.2,0,0.2,0c0,2.5,0,4.9,0,7.4c0,1.6-1,2.8-2.3,3
		c-1.6,0.2-2.8-1-2.8-2.8C52.9,19.8,52.9,17.3,52.9,14.8z"/>
	<path class="st9" d="M77.6,52.9C77.3,53,77,53,76.7,53C76.9,52.6,77.2,52.2,77.6,52.9z"/>
	<path class="st9" d="M100.7,48.1c0,0.5-0.3,0.3-0.5,0.2C100.3,48,100.5,48,100.7,48.1z"/>
	<path class="st9" d="M42.9,48.1c0.1,0,0.2,0,0.3,0C43.1,48.2,43,48.3,42.9,48.1C42.9,48.2,42.9,48.1,42.9,48.1z"/>
	<path class="st9" d="M62.3,29.8c-0.2,0.1-0.2-0.1-0.2-0.2C62.1,29.7,62.2,29.7,62.3,29.8z"/>
	<path class="st9" d="M58,14.8c-0.1,0-0.2,0-0.2,0c0.1-0.1,0.1-0.2,0.3-0.2C58.1,14.7,58,14.7,58,14.8z"/>
	<path class="st9" d="M57.8,96c0.1,0,0.2,0,0.2,0c0,0.1,0.1,0.1,0.1,0.2C57.9,96.2,57.8,96.1,57.8,96z"/>
	<path class="st9" d="M56.4,58.1c3.1,0.2,5.2,2.3,6.3,5.4c1,3.2-0.9,7.3-3.7,8.6c-4.6,2.1-9.6,0.3-10.9-5.1c-1.2-4.9,2.7-8.9,7-9.1
		c0.3,0,0.6,0,0.9,0C56,58.2,56.2,58.2,56.4,58.1z M55.5,63.1c-1.6,0-2.7,0.9-2.6,2.3c0,1.3,1.2,2.4,2.5,2.4c1.5,0,2.5-0.9,2.5-2.3
		C57.8,63.8,57.2,63.2,55.5,63.1z"/>
	<path class="st9" d="M56.4,58.1c-0.2,0-0.4,0-0.5-0.2C56.3,57.6,56.3,57.9,56.4,58.1z"/>
</g>
</svg>
