<?xml version="1.0" encoding="utf-8"?>
<!-- Generator: Adobe Illustrator 27.7.0, SVG Export Plug-In . SVG Version: 6.00 Build 0)  -->
<svg version="1.1" id="Layer_1" xmlns="http://www.w3.org/2000/svg" xmlns:xlink="http://www.w3.org/1999/xlink" x="0px" y="0px"
	 viewBox="0 0 112.3 112.4" style="enable-background:new 0 0 112.3 112.4;" xml:space="preserve">
<style type="text/css">
	.st0{fill:url(#SVGID_1_);}
	.st1{fill:#FFFFFF;}
	.st2{fill:url(#SVGID_00000068642139102713586930000016970933384050956209_);}
	.st3{fill:url(#SVGID_00000168801598898694089080000001563108667469937543_);}
	.st4{fill:url(#SVGID_00000168105557675432413210000015384631832090263698_);}
	.st5{fill:url(#SVGID_00000026129465116205718530000011848658203094882707_);}
	.st6{fill:url(#SVGID_00000048477488058182267030000003873154788515909000_);}
	.st7{fill:url(#SVGID_00000054972414396675854960000007648810819761737630_);}
	.st8{fill:url(#SVGID_00000022534584404539616260000014412043206313424825_);}
	.st9{fill:#231F20;}
	.st10{fill:url(#SVGID_00000016772812812674314360000014803284257778337427_);}
	.st11{fill:none;}
	.st12{fill:url(#SVGID_00000065041798785183092720000000124036462982470066_);}
	.st13{fill:url(#SVGID_00000052805650720315846580000016281446471013656236_);}
	.st14{fill:url(#SVGID_00000046316604949796057070000006309536411043727806_);}
	.st15{fill:url(#SVGID_00000093870822106838733050000013267129348669734275_);}
	.st16{fill:url(#SVGID_00000052807745403028985050000015838328248666987696_);}
	.st17{fill:url(#SVGID_00000097473341825385951950000009591041212505373826_);}
	.st18{fill:url(#SVGID_00000044891176293898178080000010224705848712440754_);}
	.st19{fill:url(#SVGID_00000091719546734991839560000003567419763052716956_);}
	.st20{fill:url(#SVGID_00000165952414441401997430000014046287802450175922_);}
	.st21{fill:url(#SVGID_00000175298630556635204380000009957812317475452047_);}
	.st22{fill:#064295;}
	.st23{fill:url(#SVGID_00000159437131938963474580000001636673970550661818_);}
	.st24{fill:#010101;}
	.st25{fill:url(#SVGID_00000035507527972202743000000009421501737125627574_);}
	.st26{fill:url(#SVGID_00000166643412829286496530000012695962800468630177_);}
	.st27{fill:#DFDFDF;}
	.st28{fill:url(#SVGID_00000143617168548915957370000015201086135380270236_);}
	.st29{fill:url(#SVGID_00000111170952787163550680000015153055628997878149_);}
	.st30{fill:#696969;}
	.st31{fill:url(#SVGID_00000024721020652646737870000004513590876314569867_);}
	.st32{fill:#F2F2F2;}
	.st33{fill:#D6D6D6;}
	.st34{fill:#E4E4E4;}
	.st35{fill:#DDDDDD;}
	.st36{fill:url(#SVGID_00000036944184676819907080000017299280769603416487_);}
	.st37{fill:url(#SVGID_00000127023999874947688120000005996815779940852873_);}
	.st38{fill:url(#SVGID_00000127728778492479032030000009037630222718877106_);}
	.st39{fill:url(#SVGID_00000166648360475435021300000002200760979528389789_);}
	.st40{fill:url(#SVGID_00000114784690220907583430000009535436532371771032_);}
	.st41{fill:url(#SVGID_00000060718606491388629310000017600858187364806309_);}
	.st42{fill:url(#SVGID_00000083795719462522312790000011395061109751962762_);}
	.st43{fill:url(#SVGID_00000123438052889947261490000007587455763900346791_);}
	.st44{fill:url(#SVGID_00000101061386639191717370000010735324918789724581_);}
	.st45{fill:url(#SVGID_00000175288282197971684270000005446185994206909092_);}
	.st46{fill:url(#SVGID_00000010277079706814616940000002338197252558589864_);}
	.st47{fill:url(#SVGID_00000150784616471570250850000008962118616755563176_);}
	.st48{fill:url(#SVGID_00000018955463437918054820000017570534430327921297_);}
	.st49{fill:url(#SVGID_00000050638442414196226850000005843735470000204967_);}
	.st50{fill:url(#SVGID_00000016063280865108396240000006795475217918567324_);}
	.st51{fill:url(#SVGID_00000123434375462158943780000001490141935913346437_);}
	.st52{fill:url(#SVGID_00000168834074168609361700000001198441086592398516_);}
	.st53{fill:url(#SVGID_00000027585737622556449350000005811125830374087070_);}
	.st54{fill:url(#SVGID_00000066493819473167638210000006350646985007453365_);}
	.st55{fill:url(#SVGID_00000079455504712905040900000003422713702732283302_);}
	.st56{fill:url(#SVGID_00000153673738304665144180000000151308191031222700_);}
	.st57{fill:url(#SVGID_00000057147355950970203390000007987611330077771434_);}
	.st58{fill:url(#SVGID_00000175303999729434697930000001268896272414419388_);}
	.st59{fill:url(#SVGID_00000000937487412556406500000000528990176752101268_);}
	.st60{fill:#989898;}
	.st61{fill:url(#SVGID_00000042733288669893655280000016725682757428967346_);}
	.st62{fill:url(#SVGID_00000096766280955658874110000009753175360996174721_);}
	.st63{fill:url(#SVGID_00000001660903968768429870000016163590218683744698_);}
	.st64{fill:url(#SVGID_00000156579896383096868280000011932469878414025116_);}
	.st65{fill:url(#SVGID_00000044887101010774414080000018337023734320686722_);}
	.st66{fill:url(#SVGID_00000086683955225450918530000006108718100182658725_);}
	.st67{fill:url(#SVGID_00000145027534010344680590000002591751907963040173_);}
</style>
<g>
	<linearGradient id="SVGID_1_" gradientUnits="userSpaceOnUse" x1="39.3786" y1="56.1249" x2="73.3611" y2="56.1249">
		<stop  offset="0" style="stop-color:#2352A3"/>
		<stop  offset="1" style="stop-color:#28ADE3"/>
	</linearGradient>
	<path class="st0" d="M42.5,75.9c1,0.6,2.1,1.1,3.2,1.5c3.1,1,6.5,1.5,10.2,1.5c2,0,4-0.1,6.2-0.4c3.3-0.4,5.9-1.3,8.1-2.6
		c2.1-1.3,3.2-3.1,3.1-5.5c-0.1-3.3-0.1-6.7,0-10c0-1.4,0-2.8,0-4.1l0-3.9c0-3.6,0-7.3,0-10.9c0-1.7-0.6-3.1-1.7-3.9
		c-1.4-1-3-2-4.6-2.5c-4.8-1.6-10-2-16.3-1.2c-3.3,0.4-5.8,1.2-8,2.5c-2.2,1.3-3.3,3.1-3.3,5.6c0.1,9.2,0.1,18.5,0,28.5
		C39.4,72.9,40.4,74.6,42.5,75.9z M44.2,66.8c8.2,2.8,16.1,2.7,24.3,0c0,0.2,0,0.4,0,0.6c0,1.1,0,2.2,0,3.2c0,0.3-0.3,0.8-0.5,0.8
		l-0.7,0.3c-1.4,0.6-2.8,1.3-4.3,1.6c-5.3,1.1-10.4,1-15.3-0.4c-0.2,0-0.3-0.1-0.5-0.2l-0.1,0c-2.7-0.9-2.9-1.1-2.9-3.9V66.8z
		 M67.8,61.6l-1,0.4c-1.7,0.6-3.4,1.3-5.1,1.6c-5.3,0.8-10,0.5-14.4-0.8c-0.2-0.1-0.4-0.1-0.6-0.2c-2.4-1-2.4-1-2.4-3.6v-2.1
		c8.1,2.8,16.1,2.7,24.3,0c0,0.2,0,0.4,0,0.7c0,1.1,0,2.2-0.1,3.2C68.5,60.9,68.1,61.4,67.8,61.6z M67.8,51.6l-0.9,0.4
		c-1.7,0.7-3.5,1.4-5.3,1.6c-5.2,0.8-9.8,0.5-14.2-0.8c-0.2-0.1-0.4-0.1-0.6-0.2c-2.5-0.9-2.5-1-2.5-3.6v-2.1
		c8.1,2.7,16.1,2.7,24.3,0c0,0.2,0,0.4,0,0.7c0,1.1,0,2.1-0.1,3.1C68.5,50.9,68.1,51.4,67.8,51.6z M68.1,41.3
		c-0.5,0.4-0.9,0.7-1.3,0.8l-1.2,0.3c-2,0.6-4.1,1.2-6.2,1.4c-5.4,0.6-9.8,0-13.7-1.7c-0.4-0.2-0.8-0.5-1.3-0.8
		c-0.1-0.1-0.2-0.2-0.3-0.2c0.2-0.1,0.5-0.3,0.7-0.4c0.7-0.4,1.4-0.8,2.2-1.1c4.1-1.4,8.7-1.7,13.5-1.1c1.9,0.3,3.8,0.8,5.6,1.4
		l0.8,0.2c0.4,0.1,0.7,0.4,1.2,0.7c0.1,0.1,0.2,0.1,0.3,0.2C68.3,41.2,68.2,41.2,68.1,41.3z"/>
	<path d="M35.3,11.3c0.2,0.9,0.4,1.7,0.6,2.6l0.1,0.5l4.7-1L40.4,12c-0.1-0.6-0.3-1.2-0.4-1.8c-0.1-0.6-0.2-1.2-0.4-1.9l0-0.1
		c13.2,5.1,25.3,13.2,38,25.6l0.4,0.3l3.4-3.4L81,30.4C74.8,24.2,68.1,18.7,61.1,14l4-2.2L63,7.5l-6,3.3l0.3,0.6L45.2,5l2-0.5
		l-0.9-4.2l-0.3-0.2c-0.1-0.1-0.3-0.1-0.5-0.1l-2.3,0.5c-2.5,0.5-5,1.1-7.5,1.6c-1.2,0.3-1.9,1.3-1.7,2.5
		C34.3,6.9,34.8,9.1,35.3,11.3z"/>
	<path d="M112.3,42.2c-0.2-0.8-0.4-1.5-0.6-2.3c-0.7-2.4-1.4-4.9-2.1-7.3c-0.2-0.7-1.1-1.2-2-1.5c-0.4-0.2-0.9,0-1.4,0.1
		c-0.1,0-0.2,0.1-0.3,0.1c-2,0.6-4,1.1-6,1.7l-2.5,0.7l1.3,4.6l5.2-1.4C99.1,50.5,91,63.1,78.2,76.5l-0.4,0.4l0.9,0.8
		c0.3,0.3,0.7,0.6,1,0.8c0.3,0.3,0.6,0.6,0.9,0.8l0.8,0.8l0.3-0.4c6.4-6.7,11.7-13.2,16-19.9l2.8,5.2l4.3-2.2l-3.2-5.9l-3.2,1.9
		c3.5-5.5,6.4-11.1,8.7-17l0.7,2.4l4.2-1.2l0.1-0.4C112.3,42.6,112.3,42.4,112.3,42.2z"/>
	<path d="M80.7,104.2c-0.3-1.1-0.6-2.2-0.9-3.3c-0.2-0.7-0.4-1.5-0.7-2.2l-0.5-1.5L74,98.5l1.4,5.2C62,99,49.4,90.9,36.1,78.3
		l-0.3-0.3l-1,0.9c-0.6,0.6-1.2,1.1-1.7,1.7c-0.1,0.1-0.2,0.2-0.3,0.3l-0.4,0.5l0.3,0.3c12.5,12,24.6,20.1,37.8,25.4l-2.4,0.7
		l1.3,4.7l0.5-0.1c0.9-0.3,1.9-0.6,2.8-0.8c2.4-0.7,4.8-1.4,7.1-2.1c1.2-0.4,1.8-1.6,1.4-3L80.7,104.2z"/>
	<path d="M2.3,76.7c0.3,1.1,1.2,1.8,2.3,1.8c0.2,0,0.4,0,0.5-0.1c2.1-0.4,4.2-0.9,6.4-1.4l3.1-0.7l-1-4.7l-5.3,1.1
		c0.1-0.4,0.3-0.7,0.4-1.1c0.5-1.3,1-2.5,1.5-3.7c5.3-11.6,13.2-22.6,24-33.5l0.4-0.4l-0.5-0.3c-0.2-0.1-0.4-0.3-0.5-0.4
		c-0.4-0.3-0.7-0.5-0.9-0.8c-0.3-0.3-0.5-0.6-0.7-1c-0.1-0.2-0.2-0.3-0.4-0.5l-0.3-0.5L30.9,31c-11.6,11.7-20,23.7-25.7,36.4
		l-0.5-2.2l-4.7,1l0.7,3.4C1.2,72.1,1.7,74.4,2.3,76.7z"/>
	<path d="M68.2,10.4c0.6-0.2,1.2-0.5,1.8-0.7c1.2-0.5,2.4-0.9,3.6-1.4C79.3,6.4,86.1,4.6,93.2,6c4.7,0.9,8.1,3.1,10.4,6.7
		c1.7,2.7,2.6,5.9,2.6,9.4c0,1.6-0.1,3.1-0.1,4.7c0,0.7-0.1,1.5-0.1,2.2l0,0.4l4.5,0.7l0.1-0.5c0.7-4.4,0.8-8.3,0.1-11.9
		c-0.9-4.8-2.9-8.6-6-11.4c-4.1-3.8-9.4-5.6-16.2-5.6c0,0,0,0,0,0c-4.2,0-8.6,0.7-13,2.1c-2.1,0.6-4.2,1.4-6.2,2.1
		c-0.9,0.3-1.9,0.7-2.8,1l-0.5,0.2l2,4.5L68.2,10.4z"/>
	<path d="M107.3,68.5c-0.3-0.8-0.6-1.5-0.9-2.3l-0.2-0.5l-4.4,1.9l0.2,0.4c0.3,0.8,0.6,1.5,0.8,2.3c0.6,1.6,1.2,3.2,1.7,4.8
		c2.1,6.6,2.7,11.7,2,16.7c-0.6,4.6-2.4,8.1-5.5,10.5c-2.9,2.3-6.4,3.5-10.7,3.6c-1.6,0-3.1,0-4.8-0.1c-0.7,0-1.5-0.1-2.3-0.1
		l-0.4,0l-0.7,4.5l0.5,0.1c2.2,0.4,4.4,0.5,6.4,0.5c1.9,0,3.6-0.2,5.3-0.5c6.3-1.2,10.9-4.1,14-9.1c2.3-3.6,3.3-8,3.3-13.2
		c0-4.6-0.8-9.4-2.6-14.7C108.6,71.8,108,70.1,107.3,68.5z"/>
	<path d="M25.3,106.9c-0.7,0-1.4-0.1-2.1-0.1c-1.5-0.1-2.8-0.1-4.2-0.3c-6.8-1-11.2-4.6-13.2-10.7c-1-3.3-1.2-6.9-0.6-11.2
		c0.3-1.9,0.1-2.1-1.7-2.5c-0.5-0.1-0.9-0.2-1.4-0.3l-1.3-0.2l-0.1,0.5C0,86.7-0.1,90.5,0.5,94c1.1,6.5,4.2,11.3,9.4,14.4
		c2.9,1.7,6.2,2.7,9.7,3c0.7,0.1,1.5,0.1,2.2,0.1c0.6,0,1.2,0,1.8,0c0.6,0,1.3,0,1.9,0h0.5l-0.4-4.6L25.3,106.9z"/>
	<path d="M0.9,25c0,0.2,0,0.3,0.1,0.5L1,26l4.4-0.4l0-0.4c0.1-0.8,0.1-1.7,0.2-2.5c0.1-1.7,0.2-3.3,0.5-4.9c1-5.5,3.9-9.3,8.7-11.4
		C18,5,21.6,4.6,26,4.9c0.8,0.1,1.6,0.2,2.4,0.2L30,5.3l0.8-4.6l-0.5-0.1C25.7-0.1,22-0.2,18.5,0.4C11.9,1.4,7,4.6,4,9.8
		c-2.3,4-3.3,8.5-3.2,14.2C0.8,24.3,0.9,24.7,0.9,25z"/>
	<polygon points="42.2,27.2 39.1,23.5 32.9,29.1 36.4,32.4 	"/>
	<polygon points="79.9,36.1 85.3,42.1 88.9,38.9 83.4,32.8 	"/>
	<polygon points="31.1,105.9 32.2,110.6 39.3,108.5 37.7,104 	"/>
</g>
</svg>
