<?xml version="1.0" encoding="utf-8"?>
<!-- Generator: Adobe Illustrator 27.7.0, SVG Export Plug-In . SVG Version: 6.00 Build 0)  -->
<svg version="1.1" id="Layer_1" xmlns="http://www.w3.org/2000/svg" xmlns:xlink="http://www.w3.org/1999/xlink" x="0px" y="0px"
	 viewBox="0 0 112.3 112.4" style="enable-background:new 0 0 112.3 112.4;" xml:space="preserve">
<style type="text/css">
	.st0{fill:url(#SVGID_1_);}
	.st1{fill:#FFFFFF;}
	.st2{fill:url(#SVGID_00000057111523176933125890000011606831830772692868_);}
	.st3{fill:url(#SVGID_00000079456972912246434890000009334666078954632093_);}
	.st4{fill:url(#SVGID_00000085968741760696236120000005352231627971347878_);}
	.st5{fill:url(#SVGID_00000041284743482653440250000010190283938148126894_);}
	.st6{fill:url(#SVGID_00000000924390520528931630000014991929232749223861_);}
	.st7{fill:url(#SVGID_00000134237105624670038220000005160804955928431539_);}
	.st8{fill:url(#SVGID_00000000940562517079883420000007236828236660812206_);}
	.st9{fill:#231F20;}
	.st10{fill:url(#SVGID_00000006691111857887699700000009818687824767827083_);}
	.st11{fill:none;}
	.st12{fill:url(#SVGID_00000002379809331722751080000017447202909300780723_);}
	.st13{fill:url(#SVGID_00000142891307012081716620000001379186256021263276_);}
	.st14{fill:url(#SVGID_00000000920634849470272450000017159634480211235968_);}
	.st15{fill:url(#SVGID_00000182489923756972847820000005595449651662325170_);}
	.st16{fill:url(#SVGID_00000077314375885462449400000006198105830862797193_);}
	.st17{fill:url(#SVGID_00000060739383308463754660000000290150832771473845_);}
	.st18{fill:url(#SVGID_00000132048978944371548110000003388678578155018417_);}
	.st19{fill:url(#SVGID_00000179647238987600701460000011425706136609416893_);}
	.st20{fill:url(#SVGID_00000090257472072998693900000000453473187853446024_);}
	.st21{fill:url(#SVGID_00000176762294643319557950000016264828089121475473_);}
	.st22{fill:#064295;}
	.st23{fill:url(#SVGID_00000135651637249044527610000016285209005862935680_);}
	.st24{fill:#010101;}
	.st25{fill:url(#SVGID_00000078038791660034427540000001572549134523071927_);}
	.st26{fill:url(#SVGID_00000026142565737030050890000005282990730640831142_);}
	.st27{fill:#DFDFDF;}
	.st28{fill:url(#SVGID_00000111181998919917830450000003709861607156773023_);}
	.st29{fill:url(#SVGID_00000085959453797695598230000015281359582809123257_);}
	.st30{fill:#696969;}
	.st31{fill:url(#SVGID_00000031178302599312626060000001046936291796008086_);}
	.st32{fill:#F2F2F2;}
	.st33{fill:#D6D6D6;}
	.st34{fill:#E4E4E4;}
	.st35{fill:#DDDDDD;}
	.st36{fill:url(#SVGID_00000119094544477065590680000003526948500360338308_);}
	.st37{fill:url(#SVGID_00000044141980696701415290000012028686084759833492_);}
	.st38{fill:url(#SVGID_00000072998791218158026050000013164891814799883171_);}
	.st39{fill:url(#SVGID_00000121966234823177613170000004924414368771952798_);}
	.st40{fill:url(#SVGID_00000109007160663253218960000003109380120383132862_);}
	.st41{fill:url(#SVGID_00000090257402428605958570000007983845191584175269_);}
	.st42{fill:url(#SVGID_00000049223310405050835930000007423627308756633761_);}
	.st43{fill:url(#SVGID_00000035490729248277212610000012692469644832798898_);}
	.st44{fill:url(#SVGID_00000024719018151595308300000002209992241517672602_);}
	.st45{fill:url(#SVGID_00000039836111165827984690000002767005539811931535_);}
	.st46{fill:url(#SVGID_00000054235985424985245260000015444634667242458774_);}
	.st47{fill:url(#SVGID_00000153684176091422263330000006056079397901293974_);}
	.st48{fill:url(#SVGID_00000065069665892144737170000010412759371986583192_);}
	.st49{fill:url(#SVGID_00000083083916664572975170000016780407262475515267_);}
	.st50{fill:url(#SVGID_00000062157600500844513970000003931107841079251867_);}
	.st51{fill:url(#SVGID_00000150061743098363732900000018145974999360243337_);}
	.st52{fill:url(#SVGID_00000147931780148081736850000009664762550284471957_);}
	.st53{fill:url(#SVGID_00000095323855487508028380000013360682911787727523_);}
	.st54{fill:url(#SVGID_00000051354133783906488310000008490339940860918703_);}
	.st55{fill:url(#SVGID_00000144335843291141025180000013564972700164700547_);}
	.st56{fill:url(#SVGID_00000076579308796215727860000011904391547600834227_);}
	.st57{fill:url(#SVGID_00000010993643142296174640000013927681896206559640_);}
	.st58{fill:url(#SVGID_00000026858476588003469320000010467005978311617958_);}
	.st59{fill:url(#SVGID_00000024699776984595058480000003010830340150924446_);}
	.st60{fill:#989898;}
	.st61{fill:url(#SVGID_00000163071869331481412680000018036456834338656400_);}
	.st62{fill:url(#SVGID_00000085936681139279817860000008746119384038110852_);}
	.st63{fill:url(#SVGID_00000164494700370113063720000001624904862140050869_);}
	.st64{fill:url(#SVGID_00000154411692456714783490000012803458774945556633_);}
	.st65{fill:url(#SVGID_00000026147009573254238630000011523080480837319343_);}
	.st66{fill:url(#SVGID_00000086662586701284318530000011844782929080550554_);}
	.st67{fill:url(#SVGID_00000006685492158003775150000009395774655095765928_);}
</style>
<g>
	<path d="M111.6,55.3c-0.6-1-1.7-1.5-3.1-1.5c-0.8,0-1.5,0-2.3,0l-2.9,0c-1.5,0-3,0-4.5,0c-1,0-1.7,0.3-2.2,0.9
		c-0.4,0.5-0.6,1.2-0.4,1.9c0.2,1.2,1.2,1.9,2.7,1.9c1.4,0,2.7,0,4.1,0c1.9,0,3.7,0,5.6,0c0,0,0,0,0.1,0c0.9,0,2.2-0.2,3-1.5
		l0.1-0.1v-1.6L111.6,55.3z"/>
	<path d="M58.5,103.4c0-1.5,0-3,0-4.5c0-1-0.3-1.7-0.9-2.2c-0.5-0.4-1.2-0.6-1.9-0.4c-1.2,0.2-1.9,1.2-1.9,2.7c0,1.4,0,2.7,0,4.1
		c0,1.9,0,3.7,0,5.6c0,0.9,0.1,2.2,1.5,3l0.1,0.1h1.6l0.1-0.1c1-0.6,1.5-1.7,1.5-3.1c0-0.8,0-1.5,0-2.3L58.5,103.4z"/>
	<path d="M93.4,56.2C93.1,35.4,76.8,19.1,56.2,19c0,0,0,0,0,0c-10,0-19.3,3.8-26.3,10.8c-7,7-10.8,16.3-10.9,26.3
		c0,10,3.8,19.3,10.8,26.3c7,7,16.3,10.9,26.3,10.9c0,0,0,0,0,0C76.8,93.4,93.1,77.1,93.4,56.2L93.4,56.2z M88.7,56.2
		c0,8.7-3.4,16.9-9.6,23c-6.1,6.1-14.3,9.5-22.9,9.5c0,0,0,0-0.1,0c-18.1,0-32.4-14.3-32.5-32.5c-0.1-8.6,3.3-16.7,9.3-22.9
		c6.2-6.2,14.4-9.7,23.2-9.7c0,0,0.1,0,0.1,0c8.6,0,16.7,3.4,22.8,9.5C85.3,39.3,88.7,47.5,88.7,56.2z"/>
	<path d="M54.7,15.8c0.4,0.3,0.8,0.4,1.3,0.4c0.2,0,0.4,0,0.6-0.1c1.2-0.3,1.8-1.1,1.8-2.6c0-1.2,0-2.4,0-3.6l0-1.9
		c0-0.4,0-0.8,0-1.2c0-1.2,0-2.5,0-3.7c0-1.5-1-2.5-2.3-2.5c0,0,0,0,0,0c-1.3,0-2.3,1-2.3,2.4c-0.1,4-0.1,7.5,0,10.8
		C53.9,14.7,54.2,15.4,54.7,15.8z"/>
	<path d="M13.5,53.9c-1.2,0-2.4,0-3.7,0l-1.9,0c-0.4,0-0.8,0-1.2,0c-1.2,0-2.5,0-3.7,0c-1.5,0-2.5,1-2.5,2.4c0,1.3,1,2.3,2.4,2.3
		c1.9,0,3.7,0,5.4,0c1.9,0,3.7,0,5.4,0c0.8,0,1.5-0.3,1.9-0.9c0.4-0.5,0.5-1.2,0.4-2C15.8,54.5,15,53.9,13.5,53.9z"/>
	<path d="M18.4,21.7c2,2,4,4.1,6.1,6.1c0.6,0.6,1.2,0.9,1.9,0.9c0,0,0,0,0,0c0.6,0,1.1-0.3,1.6-0.7c1-1,0.9-2.3-0.3-3.5
		c-2.9-2.9-5.1-5.2-7.2-7.2c-0.3-0.3-0.7-0.5-1.1-0.8c-0.2-0.1-0.4-0.2-0.6-0.4l-0.3-0.2l-0.3,0.2c-0.2,0.1-0.3,0.3-0.5,0.4
		c-0.4,0.3-0.9,0.6-1.1,1.1c-0.5,0.9-0.3,1.9,0.6,2.8L18.4,21.7z"/>
	<path d="M86.2,28.7C86.2,28.7,86.2,28.7,86.2,28.7l0.3,0c0,0,0.1,0,0.2-0.1c0.3-0.1,0.6-0.2,0.9-0.5c3-3,5.6-5.5,8.1-8.1
		c0.4-0.4,0.6-1.3,0.5-1.9c-0.1-0.9-0.7-1.5-1.4-1.8c-0.8-0.3-1.7-0.1-2.4,0.6c-2,1.9-4,3.9-5.9,5.9l-1.9,1.9
		c-0.2,0.2-0.4,0.4-0.5,0.8c-0.3,0.7-0.2,1.5,0.2,2.1C84.6,28.3,85.3,28.7,86.2,28.7z"/>
	<path d="M28.3,85.2c-0.3-0.4-0.6-0.8-1.1-1.1c-0.6-0.4-1.6-0.6-2.8,0.6c-2.2,2.2-4.8,4.7-7.4,7.4c-0.6,0.6-0.9,1.3-0.9,1.9
		c0,0.6,0.3,1.1,0.7,1.6c0.4,0.4,1,0.6,1.5,0.6c0.6,0,1.3-0.3,1.9-0.9c2.6-2.6,5-5,7.4-7.4c0.3-0.3,0.5-0.7,0.7-1.1
		c0.1-0.2,0.2-0.4,0.4-0.6l0.2-0.3l-0.2-0.3C28.6,85.5,28.4,85.3,28.3,85.2z"/>
	<path d="M87.9,84.7c-0.3-0.3-0.7-0.5-1.1-0.7c-0.2-0.1-0.4-0.2-0.6-0.4l-0.3-0.2l-0.3,0.2c-0.2,0.1-0.3,0.3-0.5,0.4
		c-0.4,0.3-0.8,0.6-1.1,1.1c-0.3,0.5-0.7,1.5,0.6,2.8c2.4,2.5,4.9,4.9,7.4,7.4c0.6,0.6,1.3,0.9,1.9,0.9c0,0,0,0,0,0
		c0.6,0,1.1-0.2,1.6-0.7c1-1,0.9-2.4-0.3-3.5C92.5,89.2,90.1,86.8,87.9,84.7z"/>
	<linearGradient id="SVGID_1_" gradientUnits="userSpaceOnUse" x1="39.1475" y1="56.2058" x2="73.1479" y2="56.2058">
		<stop  offset="0" style="stop-color:#2352A3"/>
		<stop  offset="1" style="stop-color:#28ADE3"/>
	</linearGradient>
	<path class="st0" d="M70.3,52.1c-1.9,0-3.8,0-5.8,0l-1.8,0c0.1-0.3,0.1-0.6,0.2-0.8l4.6-19.7c0.2-0.9,0.3-2.2-1-3
		c-1.1-0.7-2.2-0.4-3.3,0.9c-7.7,8.9-15.4,17.8-23.2,26.7c-0.5,0.5-1.3,1.5-0.7,2.8c0.6,1.3,1.7,1.4,2.6,1.4c1.9,0,3.8,0,5.8,0
		l1.8,0c0,0,0,0,0,0l-4.7,20.5c-0.2,0.7-0.5,2.2,1,3c0.4,0.2,0.8,0.3,1.1,0.3c0.7,0,1.4-0.4,2.1-1.2c6.4-7.3,12.7-14.7,19.1-22
		l4.1-4.8c0.6-0.7,1.2-1.7,0.6-2.8C72.3,52.2,71.2,52.1,70.3,52.1z M51.6,72.2c0.4-1.7,0.8-3.5,1.2-5.2c0.3-1.2,0.6-2.5,0.9-3.7
		c0.3-1.3,0.6-2.7,0.9-4c0.3-1.2,0.2-2-0.3-2.6c-0.5-0.6-1.3-0.9-2.5-0.9l-4,0l-1.3,0L61,39.1l-0.7,3.1c-0.8,3.6-1.7,7.2-2.5,10.8
		c-0.3,1.4-0.2,2.2,0.2,2.8c0.5,0.6,1.3,0.9,2.7,0.9h5.1L51.3,73.4L51.6,72.2z"/>
</g>
</svg>
