<?xml version="1.0" encoding="utf-8"?>
<!-- Generator: Adobe Illustrator 27.7.0, SVG Export Plug-In . SVG Version: 6.00 Build 0)  -->
<svg version="1.1" id="Layer_1" xmlns="http://www.w3.org/2000/svg" xmlns:xlink="http://www.w3.org/1999/xlink" x="0px" y="0px"
	 viewBox="0 0 103.7 109.1" style="enable-background:new 0 0 103.7 109.1;" xml:space="preserve">
<style type="text/css">
	.st0{fill:url(#SVGID_1_);}
	.st1{fill:#FFFFFF;}
	.st2{fill:url(#SVGID_00000005263724181390122370000006302195613832362424_);}
	.st3{fill:url(#SVGID_00000018956583753300282170000010758099951367497368_);}
	.st4{fill:url(#SVGID_00000061470352303965254920000001219467991830991517_);}
	.st5{fill:url(#SVGID_00000021076953593708461830000005665396501830100890_);}
	.st6{fill:url(#SVGID_00000111156151802801069830000009675847452927000976_);}
	.st7{fill:url(#SVGID_00000142857773270630433310000012124316180861556144_);}
	.st8{fill:url(#SVGID_00000049913941514332542440000016458681555231317397_);}
	.st9{fill:#231F20;}
	.st10{fill:url(#SVGID_00000142887710404674161330000006773030685875891865_);}
	.st11{fill:none;}
	.st12{fill:url(#SVGID_00000178915883179434502830000012002420516161553325_);}
	.st13{fill:url(#SVGID_00000031900564409739882140000007527003639049719176_);}
	.st14{fill:url(#SVGID_00000090256294312228753090000017684193653561051068_);}
	.st15{fill:url(#SVGID_00000141434157511716033410000015771382360522548628_);}
	.st16{fill:url(#SVGID_00000161629676127422439140000001981497376673682854_);}
	.st17{fill:url(#SVGID_00000065761016745444350170000003265559831937401260_);}
	.st18{fill:url(#SVGID_00000127045880812661121310000000321119738656435337_);}
	.st19{fill:url(#SVGID_00000030470729117592148490000003706015351117534092_);}
	.st20{fill:url(#SVGID_00000107577404369326757700000010228685832903666322_);}
	.st21{fill:url(#SVGID_00000172398192562417744420000004238732091086682302_);}
	.st22{fill:#064295;}
	.st23{fill:url(#SVGID_00000057838061456046570910000001594235540874300565_);}
	.st24{fill:#010101;}
	.st25{fill:url(#SVGID_00000109012489928644215680000009295281430217169315_);}
	.st26{fill:url(#SVGID_00000028315648432828078220000011756736799682223541_);}
	.st27{fill:#DFDFDF;}
	.st28{fill:url(#SVGID_00000160869150280856494480000017680478642809824174_);}
	.st29{fill:url(#SVGID_00000163066870014478662680000004379276246351443611_);}
	.st30{fill:#696969;}
	.st31{fill:url(#SVGID_00000146476188028716875280000015847861578856575139_);}
	.st32{fill:#F2F2F2;}
	.st33{fill:#D6D6D6;}
	.st34{fill:#E4E4E4;}
	.st35{fill:#DDDDDD;}
	.st36{fill:url(#SVGID_00000165201516777316143120000000638349265294063031_);}
	.st37{fill:url(#SVGID_00000119079974339581606430000012517381546399106455_);}
	.st38{fill:url(#SVGID_00000026867253319251772900000002894372557320865974_);}
	.st39{fill:url(#SVGID_00000063609571572587186030000017177901099864029590_);}
	.st40{fill:url(#SVGID_00000062904108157000214940000014654393878846483645_);}
	.st41{fill:url(#SVGID_00000001656490249734665430000007213823205689250452_);}
	.st42{fill:url(#SVGID_00000046318095551042327560000002373727002177236914_);}
	.st43{fill:url(#SVGID_00000007410110294613874270000002808176992756710078_);}
	.st44{fill:url(#SVGID_00000020372185870262474670000010135925002022948531_);}
	.st45{fill:url(#SVGID_00000078023022458795520810000015560072101963404691_);}
	.st46{fill:url(#SVGID_00000078041491978684616800000013382804682434859666_);}
	.st47{fill:url(#SVGID_00000154402585261713930860000012936126401096892069_);}
	.st48{fill:url(#SVGID_00000040558597392785694800000017022588755529912252_);}
	.st49{fill:url(#SVGID_00000005231396905960050190000014935484579453803432_);}
	.st50{fill:url(#SVGID_00000168074452881080394710000005623303633325449623_);}
	.st51{fill:url(#SVGID_00000096025126405573549740000013240674645291642009_);}
	.st52{fill:url(#SVGID_00000065768678522954952760000009255660387291265929_);}
	.st53{fill:url(#SVGID_00000027563080306808656100000007714535060850632358_);}
	.st54{fill:url(#SVGID_00000124136792145441814290000001598684829684544647_);}
	.st55{fill:url(#SVGID_00000112628310570579143850000016858653140439870622_);}
	.st56{fill:url(#SVGID_00000155106271211988409640000006314464708137544107_);}
	.st57{fill:url(#SVGID_00000128444948335972823620000005237820486348354239_);}
	.st58{fill:url(#SVGID_00000080200503172028990320000011117220248304884641_);}
	.st59{fill:url(#SVGID_00000123410694904163656300000018085936956631103366_);}
	.st60{fill:#989898;}
	.st61{fill:url(#SVGID_00000032641861722899326730000012845368527313980592_);}
	.st62{fill:url(#SVGID_00000137844045875054237600000010015138924161426342_);}
	.st63{fill:url(#SVGID_00000035492712460660234370000005450152680857565843_);}
	.st64{fill:url(#SVGID_00000038407330619522389470000000038410793547617692_);}
	.st65{fill:url(#SVGID_00000112617855719216711660000009266966038640431506_);}
	.st66{fill:url(#SVGID_00000017490157134280871540000001791366327145896091_);}
	.st67{fill:url(#SVGID_00000110429502027927504690000000796464697520728727_);}
</style>
<g>
	<path class="st24" d="M24.9,109.1c-2.1-0.8-3.9-2-4.6-4.3c-0.3-0.9-0.4-1.9-0.4-2.8c0-5.6,0-11.1,0.1-16.7c0-3.2,1.2-5.9,3.3-8.3
		c2.6-2.9,5.8-4.6,9.5-5.4c4.5-1,9-1.9,13.5-2.8c1.6-0.3,3.2-0.7,4.8-1c0-1.2,0.1-2.4-0.1-3.6c-0.1-0.5-0.7-1-1.2-1.4
		c-3-2.3-4.8-5.4-5.7-9c-0.2-0.8-0.3-1.5-0.5-2.3c-2.6-0.4-4.2-2.3-4.2-5c0-0.4,0-0.7,0-1.1c0.2-1.2-0.3-1.9-1.3-2.7
		c-2.3-1.9-1.4-5.8,0.8-6.8c1-0.4,1.4-1,1.3-2.1c-0.1-6.4,2.6-11.5,7.3-15.6c3-2.7,6.7-4.1,10.7-4.5c3.9-0.4,7.7-0.3,11.3,1.1
		c5.6,2.1,9.6,5.9,11.9,11.5c0.6,1.4,1,2.9,1.3,4.4c0.3,1.5,0.2,3.1,0.4,4.6c3.1,1,3.8,3.4,3.1,5.8c-0.2,0.7-0.9,1.4-1.5,1.9
		c-0.6,0.5-0.8,0.9-0.8,1.6c0,1.3-0.1,2.7-0.4,4c-0.4,1.4-1.4,2.3-2.9,2.6c-0.9,0.1-1,0.8-1.1,1.5c-0.4,2.8-1.5,5.3-3.3,7.4
		c-1.1,1.2-2.4,2.2-3.5,3.4c-0.2,0.2-0.4,0.5-0.4,0.8c0,1.2,0,2.4,0,3.6c5.2,1,10.3,2.1,15.4,3.1c2.8,0.5,5.4,1.2,7.9,2.5
		c4,2.1,6.8,5.2,7.8,9.8c0.2,1.2,0.3,2.4,0.3,3.5c0,5-0.1,10,0,15c0.1,3.3-1.8,6.4-5.4,7.2c0,0,0,0.1,0,0.1
		C73.8,109.1,49.4,109.1,24.9,109.1z M90.6,105.8c2.1,0,4.2,0,6.3,0c2.1,0,3.6-1.4,3.6-3.5c0-3.3,0-6.6,0-9.9c0-2.7,0-5.5-0.3-8.2
		c-0.4-4.1-3.2-6.4-6.7-8.2c-0.4,1.6-0.9,3.1-1.3,4.6c-1,4.2-1.7,8.4-1.8,12.6c0,1.1-0.6,1.9-1.7,1.8c-0.9,0-1.6-0.7-1.5-1.8
		c0.2-2.2,0.3-4.4,0.7-6.5c0.7-3.7,1.5-7.4,2.4-11.1c0.2-0.7,0.1-0.9-0.6-1c-3.1-0.6-6.3-1.3-9.4-1.9C79.5,72.5,78.7,72,78,73
		c-4.3,6.2-8.5,12.4-12.8,18.6c-1,1.5-1.7,3.2-1.8,5c-0.2,2.5,0,5,0,7.5c0,0.6,0,1.2,0,1.8c8,0,15.9,0,23.8,0c0-2,0-4,0-6
		c0-0.3,0.1-0.8,0.3-0.9c0.6-0.2,1.3-0.5,1.9-0.4c0.4,0.1,0.9,0.9,0.9,1.4c0.1,1.9,0.1,3.8,0.1,5.7
		C90.5,105.7,90.5,105.8,90.6,105.8z M60.2,105.8c0-2.7,0-5.3,0-8c0-2.4-0.7-4.7-2.1-6.7c-4.1-6-8.3-12-12.5-18
		c-0.5-0.7-1-0.8-1.8-0.7c-3.1,0.6-6.3,1.3-9.4,1.9c-1.4,0.3-1.5,0.4-1.1,1.7c1.7,5.2,2.5,10.5,2.9,15.9c0.2,2.6,0.1,5.2,0.2,7.7
		c0,2,0,4.1,0,6.2C44.3,105.8,52.2,105.8,60.2,105.8z M42.6,43.9c0,1-0.1,2,0,2.9c0.1,0.5,0.5,1,0.9,1.2c0.5,0.3,1.2,0.1,1.8,0.3
		c0.5,0.2,1,0.5,1.3,0.9c0.2,0.4,0.2,0.9,0.2,1.4c0.3,3.9,1.9,7.2,5,9.6c3.5,2.8,7.5,4.1,12.1,3.4c3.5-0.5,6.4-2.1,8.8-4.6
		c2.3-2.3,3.6-5.3,3.7-8.7c0.1-1.5,0.4-2.3,2.4-2.3c0.2,0,0.5,0.1,0.6,0c0.4-0.3,1-0.7,1.1-1.2c0.2-1,0.1-2,0.1-3.1
		C68,43.9,55.4,43.9,42.6,43.9z M79.9,35.1c0.7-7.8-4.7-14.5-8.9-16.1c0,0.6,0,1.2,0,1.8c0.1,1-0.6,1.4-1.4,1.6
		c-0.8,0.2-1.5-0.2-1.6-1.1c-0.1-1-0.1-2.1-0.2-3.1c0-0.3-0.2-0.8-0.4-0.8c-1.3-0.3-2.6-0.5-4-0.7c0,0.6,0,1,0,1.5
		c0,2.1,0,4.3,0,6.4c0,1.1-0.5,1.5-1.5,1.6c-1.1,0-1.5-0.2-1.6-1.4c-0.1-1.4,0-2.8,0-4.3c0-1.2,0-2.4,0-3.8
		c-1.4,0.3-2.6,0.6-3.8,0.7c-0.6,0.1-0.7,0.4-0.7,0.9c0,0.9,0,1.7,0,2.6c0,1-0.7,1.7-1.7,1.7c-0.8,0-1.5-0.7-1.5-1.7
		c0-0.6,0-1.1,0-1.7c-4.8,1.6-10,9.7-8.8,16.1C55.7,35.1,67.8,35.1,79.9,35.1z M30,76c-3.5,1.3-6.9,5-6.8,9.3c0,5.8,0,11.6,0,17.4
		c0,1.4,1.3,3,2.6,3.1c2.5,0.1,4.9,0,7.4,0C33.3,95.7,33.3,85.7,30,76z M54.3,65.6c0.1,2-0.3,3.8,0.8,5.6c1.5,2.3,3.8,3.6,6.1,4.8
		c0.3,0.2,0.9,0,1.3-0.2c1-0.6,2-1.2,3-1.9c3-2,4.2-4.7,3.4-8.3C64.1,67.5,59.3,67.7,54.3,65.6z M61.7,38.4c-6.5,0-13,0-19.5,0
		c-0.4,0-0.8-0.1-1,0c-0.4,0.3-0.9,0.7-1,1.2c-0.2,0.6,0.3,1.1,1,1.1c0.2,0,0.5,0,0.7,0c13.2,0,26.4,0,39.6,0c0.3,0,0.7,0.1,0.9,0
		c0.3-0.2,0.8-0.5,0.8-0.8c0.1-0.3-0.1-0.9-0.4-1.1c-0.3-0.3-0.9-0.4-1.3-0.4C75,38.3,68.3,38.4,61.7,38.4z M56.3,83.1
		c1.8,2.6,3.6,5.3,5.4,7.9c1.9-2.7,3.7-5.3,5.5-7.9c-1.5-0.9-3-1.7-4.4-2.6c-0.7-0.4-1.3-0.5-2-0.1C59.3,81.3,57.8,82.2,56.3,83.1z
		 M65.1,78.2c0.6,0.3,1.3,0.7,1.9,1.1c1,0.6,2,0.6,2.8-0.3c0.7-0.8,1.4-1.7,2-2.6c1.1-1.5,2.1-3.1,3.2-4.6c-0.8-0.2-1.5-0.4-2.2-0.5
		c-0.5-0.1-0.9-0.2-1.2,0.5c-0.5,1-1.1,1.9-1.9,2.7C68.2,75.8,66.6,76.9,65.1,78.2z M58.4,78.1c-2.2-1.5-4.5-3-6-5.4
		c-1.1-1.7-1.1-1.7-2.9-1.3c-0.3,0.1-0.6,0.2-1,0.3c1.6,2.3,3.1,4.7,4.8,6.9c1.1,1.4,2.1,1.5,3.6,0.5C57.3,78.7,57.8,78.4,58.4,78.1
		z"/>
	<linearGradient id="SVGID_1_" gradientUnits="userSpaceOnUse" x1="0" y1="33.9137" x2="56.5171" y2="33.9137">
		<stop  offset="0" style="stop-color:#2352A3"/>
		<stop  offset="1" style="stop-color:#28ADE3"/>
	</linearGradient>
	<path class="st0" d="M30.3,64.6c1.2,0,2.4,0,3.6,0c1.2,0,2.4-0.1,3.6-0.2c0-1.2,0-2.3,0.1-3.5c0.1-0.8,0.3-1.5,0.6-2.3
		c0.4-1,1.3-1.4,2.2-1.6c0.9-0.2,1.5,0.4,1.8,1.1c0.3,0.7,0,1.5-0.7,1.8c-0.7,0.3-0.7,0.7-0.7,1.3c0,1.3,0,2.7-0.2,4
		c-0.2,1.4-1.8,2.6-3.1,2.6c-2.3,0-4.6,0-6.9,0c-1.9-0.1-3.3-1.6-3.3-3.5c0-1-0.1-2,0-3c0.1-0.7-0.3-1-0.8-1.2
		c-1.9-0.8-3.9-1.7-5.9-2.4c-0.2-0.1-0.7,0.1-0.9,0.2c-1,0.9-2,1.9-3,2.8c-0.7,0.6-3,0.8-4-0.1c-1.7-1.7-3.5-3.3-5.1-5.1
		c-1.3-1.5-1.2-3.4,0.4-5.2c0.7-0.7,1.4-1.3,2-2.1c0.2-0.2,0.3-0.7,0.2-1c-0.7-1.9-1.5-3.8-2.4-5.7c-0.1-0.3-0.5-0.5-0.8-0.5
		c-1.3-0.1-2.7-0.1-4-0.3C1.1,40.4,0,39,0,37.2c0-2.1,0.1-4.1,0-6.2c-0.1-2.6,1.6-3.9,4-4c1,0,1.9,0,2.9,0c0.3,0,0.7-0.2,0.8-0.5
		c0.8-1.9,1.6-3.9,2.4-5.8c0.2-0.6,0.3-0.9-0.2-1.4c-0.6-0.5-1.1-1.2-1.8-1.7c-1.6-1.3-2.1-3.6-0.5-5.5c1.6-1.8,3.3-3.4,5.1-4.9
		c1.1-1,3.4-0.7,4.5,0.3c0.7,0.7,1.4,1.5,2.2,2.1c0.3,0.3,0.9,0.4,1.3,0.3c1.8-0.7,3.6-1.5,5.5-2.2c0.7-0.3,1-0.6,1-1.4
		c0-1.3-0.1-2.7,0.2-4C27.7,0.8,29.1,0,30.8,0c1.9,0,3.8,0,5.6,0c2.8,0,4.6,1.8,4.3,4.3c-0.1,0.6,0.1,1.3,0,1.9
		C40.6,7.3,41,7.7,42,8c1.6,0.5,3.2,1.2,4.7,1.9c0.7,0.3,1.1,0.4,1.7-0.2c0.5-0.6,1.1-1,1.6-1.6c1.5-1.9,4.8-1.8,6.1,0
		c0.5,0.7,0.7,1.4,0.2,2.1c-0.6,0.8-1.6,1-2.3,0.3c-0.7-0.7-1.2-0.5-1.8,0.1c-0.7,0.7-1.4,1.4-2.3,2.1c-1.3,1-2.7,1.1-4.2,0.3
		c-1.7-0.9-3.6-1.6-5.4-2.2c-1.7-0.6-3-2.3-2.8-3.9c0.1-0.9,0-1.8,0-2.8c0-0.6-0.2-0.9-0.8-0.9c-1.9,0-3.8,0-5.6,0
		c-0.6,0-0.8,0.2-0.8,0.8c0,0.9,0,1.7,0,2.6c0.1,2.4-1.3,3.7-3.1,4.3c-1.6,0.6-3.3,1.1-4.8,1.9c-1.9,1.1-4.2,0.8-5.4-0.9
		c-0.6-0.8-1.4-1.5-2.2-2.3c-1.6,1.6-3.2,3.2-4.6,4.7c-0.2,0.2-0.1,0.8,0.1,1c0.6,0.7,1.3,1.4,2,2.1c1.4,1.4,1.6,2.8,0.8,4.5
		c-0.8,1.9-1.6,3.9-2.4,5.8c-0.6,1.5-2.3,2.6-3.6,2.5c-0.9-0.1-1.9,0-2.9,0c-0.8,0-1,0.3-1,1c0,1.8,0,3.7,0,5.5
		c0,0.7,0.3,0.9,0.9,0.9c1.1,0,2.2,0,3.3,0c1.4,0,2.5,0.8,3,2.1c0.9,2.2,1.9,4.5,2.8,6.7c0.6,1.6,0,2.9-1.1,4.1
		c-0.6,0.7-1.3,1.3-2,2c-0.5,0.4-0.4,0.8,0,1.2c1.3,1.3,2.6,2.5,3.8,3.8c0.5,0.5,0.9,0.5,1.3,0c0.7-0.7,1.4-1.4,2.1-2.1
		c1.5-1.6,2.7-1.3,4.2-0.7c2,0.7,4,1.6,6,2.4c1.7,0.7,2.6,1.9,2.6,3.8C30.3,62.1,30.3,63.3,30.3,64.6z"/>
	
		<linearGradient id="SVGID_00000091714778380398356320000009417038519073577402_" gradientUnits="userSpaceOnUse" x1="18.76" y1="33.949" x2="40.2755" y2="33.949">
		<stop  offset="0" style="stop-color:#2352A3"/>
		<stop  offset="1" style="stop-color:#28ADE3"/>
	</linearGradient>
	<path style="fill:url(#SVGID_00000091714778380398356320000009417038519073577402_);" d="M33.3,49c-3.3-0.2-6.2-1.3-8.8-3.3
		c-3-2.4-4.7-5.5-5.4-9.2c-0.8-4.2,0.2-8,2.7-11.4c2.2-3,5.1-4.9,8.6-5.8c2.9-0.7,5.8-0.5,8.6,0.5c1.1,0.4,1.8,1.4,0.9,2.5
		c-0.6,0.8-1.5,0.7-2.3,0.5c-3.1-1-6.2-0.9-9.1,0.6c-3.6,1.9-5.7,4.8-6.4,8.9c-1,5.6,2.9,11.4,8.2,13c1.3,0.4,2.7,0.4,4.1,0.5
		c1,0.1,1.7,0.6,1.8,1.4c0.1,1-0.5,1.7-1.6,1.8C34.2,49.1,33.8,49,33.3,49z"/>
	<path class="st27" d="M90.4,105.7c0.1,0.1,0.1,0.1,0.2,0.2C90.5,105.8,90.5,105.7,90.4,105.7z"/>
</g>
</svg>
