<?xml version="1.0" encoding="utf-8"?>
<!-- Generator: Adobe Illustrator 27.7.0, SVG Export Plug-In . SVG Version: 6.00 Build 0)  -->
<svg version="1.1" id="Layer_1" xmlns="http://www.w3.org/2000/svg" xmlns:xlink="http://www.w3.org/1999/xlink" x="0px" y="0px"
	 viewBox="0 0 110.3 102.9" style="enable-background:new 0 0 110.3 102.9;" xml:space="preserve">
<style type="text/css">
	.st0{fill:url(#SVGID_1_);}
	.st1{fill:#FFFFFF;}
	.st2{fill:url(#SVGID_00000062910880325203825650000002467849021944358842_);}
	.st3{fill:url(#SVGID_00000083769892519627244450000005096068115072774784_);}
	.st4{fill:url(#SVGID_00000006689704500017902830000013504836071296388280_);}
	.st5{fill:url(#SVGID_00000155141521026084528430000008913203069146851730_);}
	.st6{fill:url(#SVGID_00000034802767196062629650000000340391407724911237_);}
	.st7{fill:url(#SVGID_00000165197373524547323760000004987471778809296040_);}
	.st8{fill:url(#SVGID_00000062152934168672198920000006656742426649016719_);}
	.st9{fill:#231F20;}
	.st10{fill:url(#SVGID_00000145058666234530885340000002847361021038770607_);}
	.st11{fill:none;}
	.st12{fill:url(#SVGID_00000031176420520508745130000009734239144955670185_);}
	.st13{fill:url(#SVGID_00000083082582006543467850000006883955627370321578_);}
	.st14{fill:url(#SVGID_00000024722339199426137900000002337456681951572923_);}
	.st15{fill:url(#SVGID_00000080905158873252775890000008420063978008716211_);}
	.st16{fill:url(#SVGID_00000146496449936454474790000008243443428960394396_);}
	.st17{fill:url(#SVGID_00000008843469106353380160000018396915528541246904_);}
	.st18{fill:url(#SVGID_00000150802122792801103140000012421469617114898049_);}
	.st19{fill:url(#SVGID_00000077315089621449914760000004521003875099626880_);}
	.st20{fill:url(#SVGID_00000046336699791408893480000007027998868266955138_);}
	.st21{fill:url(#SVGID_00000157992433799432788390000007836055740472746628_);}
	.st22{fill:#064295;}
	.st23{fill:url(#SVGID_00000074437392690362541670000000476276887392613784_);}
	.st24{fill:#010101;}
	.st25{fill:url(#SVGID_00000065767168438769599050000008761966569067794087_);}
	.st26{fill:url(#SVGID_00000168808448567173385760000010343705415539573923_);}
	.st27{fill:#DFDFDF;}
	.st28{fill:url(#SVGID_00000008871179452344072150000017920381261299448204_);}
	.st29{fill:url(#SVGID_00000101821813486917345050000005035273401374222726_);}
	.st30{fill:#696969;}
	.st31{fill:url(#SVGID_00000053518321951497959850000016994389628550133420_);}
	.st32{fill:#F2F2F2;}
	.st33{fill:#D6D6D6;}
	.st34{fill:#E4E4E4;}
	.st35{fill:#DDDDDD;}
	.st36{fill:url(#SVGID_00000125576961314037072980000014544797571148943268_);}
	.st37{fill:url(#SVGID_00000017506410717237712720000003827544879415617664_);}
	.st38{fill:url(#SVGID_00000145026819861417762380000002348352425881755316_);}
	.st39{fill:url(#SVGID_00000056426746352795612780000013852934300129937565_);}
	.st40{fill:url(#SVGID_00000067229851275157268390000016202239399562436506_);}
	.st41{fill:url(#SVGID_00000100344060464389887370000010785595346034693255_);}
	.st42{fill:url(#SVGID_00000081606080600638386530000004073280059123325846_);}
	.st43{fill:url(#SVGID_00000165922235363669557210000012444072195348050080_);}
	.st44{fill:url(#SVGID_00000042707174338156650130000013402088613457271982_);}
	.st45{fill:url(#SVGID_00000031197051270548095050000011687782480032057782_);}
	.st46{fill:url(#SVGID_00000031191010666362946170000008327581535186690176_);}
	.st47{fill:url(#SVGID_00000109017182917791525590000017858787256374120622_);}
	.st48{fill:url(#SVGID_00000161628476305441399550000005619805165948897178_);}
	.st49{fill:url(#SVGID_00000137830128485671226430000006145477538179734928_);}
	.st50{fill:url(#SVGID_00000145772273279489762190000016601532741397102734_);}
	.st51{fill:url(#SVGID_00000078752293412386333810000005691579550642082474_);}
	.st52{fill:url(#SVGID_00000093155404228046833090000016514562690703150779_);}
	.st53{fill:url(#SVGID_00000156583840257568395210000011633567554431893124_);}
	.st54{fill:url(#SVGID_00000017513592430929516080000012765468402216382376_);}
	.st55{fill:url(#SVGID_00000119838838770178138120000009253167560666249116_);}
	.st56{fill:url(#SVGID_00000116928719781332298180000015992034851856556706_);}
	.st57{fill:url(#SVGID_00000001664574845949364890000014613147880101620668_);}
	.st58{fill:url(#SVGID_00000008856090056229283820000006209623349014355073_);}
	.st59{fill:url(#SVGID_00000044871185237565284020000007152093162703940519_);}
	.st60{fill:#989898;}
	.st61{fill:url(#SVGID_00000159470934680202259390000005698398917181651131_);}
	.st62{fill:url(#SVGID_00000043438573030185942660000016846252499481987983_);}
	.st63{fill:url(#SVGID_00000046317577251558910910000005928536966274773693_);}
	.st64{fill:url(#SVGID_00000045607426455720028980000006484448499477386137_);}
	.st65{fill:url(#SVGID_00000021116242695847948960000015415719001582503101_);}
	.st66{fill:url(#SVGID_00000157296733542760665240000009005076663396956845_);}
	.st67{fill:url(#SVGID_00000170969499695401393850000000353132922802751131_);}
</style>
<g>
	<linearGradient id="SVGID_1_" gradientUnits="userSpaceOnUse" x1="36.7571" y1="51.4679" x2="73.5243" y2="51.4679">
		<stop  offset="0" style="stop-color:#2352A3"/>
		<stop  offset="1" style="stop-color:#28ADE3"/>
	</linearGradient>
	<path class="st0" d="M55.1,69.8c-1.6,0-3.2,0-4.8,0c-1.9,0-2.5-0.6-2.5-2.6c0-2.5,0-5,0-7.5c0-0.8-0.2-1-1-1c-2.6,0.1-5.2,0-7.8,0
		c-1.6,0-2.2-0.7-2.2-2.2c0-3.4,0-6.8,0-10.2c0-1.6,0.7-2.2,2.2-2.2c2.6,0,5.2,0,7.8,0c0.8,0,1-0.3,1-1c0-2.6,0-5.1,0-7.7
		c0-1.7,0.6-2.3,2.3-2.3c3.4,0,6.7,0,10.1,0c1.7,0,2.3,0.6,2.3,2.4c0,2.6,0,5.1,0,7.7c0,0.7,0.2,1,0.9,1c2.6,0,5.2,0,7.8,0
		c1.6,0,2.3,0.6,2.3,2.3c0,3.4,0,6.7,0,10.1c0,1.6-0.6,2.3-2.3,2.3c-2.6,0-5.1,0-7.7,0c-0.9,0-1.1,0.3-1.1,1.1c0.1,2.5,0,5.1,0,7.6
		c0,1.7-0.6,2.4-2.3,2.4C58.5,69.9,56.8,69.8,55.1,69.8z M45.3,55.1c1.3,0,2.6,0,3.9,0c1.6,0,2.2,0.7,2.2,2.3c0,2.6,0,5.2,0,7.8
		c0,0.7,0.1,1,0.9,1c1.8-0.1,3.7-0.1,5.5,0c0.8,0,1-0.2,1-1c0-2.6,0-5.2,0-7.8c0-1.6,0.7-2.3,2.3-2.3c2.6,0,5.1,0,7.7,0
		c0.8,0,1.1-0.1,1.1-1c-0.1-1.8-0.1-3.7,0-5.5c0-0.7-0.2-0.9-0.9-0.9c-2.6,0-5.3,0-7.9,0c-1.6,0-2.2-0.7-2.2-2.2c0-2.6,0-5.2,0-7.8
		c0-0.7-0.1-1-0.9-1c-1.8,0.1-3.7,0.1-5.5,0c-0.8,0-1,0.2-1,1c0,2.6,0,5.2,0,7.8c0,1.6-0.7,2.3-2.3,2.3c-2.6,0-5.2,0-7.8,0
		c-0.7,0-1,0.1-0.9,0.9c0.1,1.9,0,3.8,0,5.7c0,0.6,0.2,0.8,0.8,0.8C42.6,55.1,44,55.1,45.3,55.1z"/>
	<path d="M51.8,102.9c-3.1-0.1-6.9,0.2-10.7-0.2c-2.9-0.3-5.7-1.2-8.3-2.5c-3.9-1.9-7.8-3.8-11.8-5.7c-3.7-1.8-7.6-2.8-11.7-2.7
		c-2.4,0-4.7,0-7.1,0C0.8,91.9,0,91.2,0,90c0-1.1,0.8-1.8,2.2-1.8c4.2,0.1,8.3-0.3,12.5,0.4c2.7,0.5,5.2,1.3,7.6,2.5
		c4.1,2,8.2,4,12.3,6c3,1.4,6.1,2.2,9.4,2.2c5.9,0,11.8,0,17.7,0c0.6,0,1.2-0.1,1.8-0.3c4.7-2,9.5-3.9,14.2-5.8
		c0.9-0.4,1.2-0.8,1-1.7c-0.3-1.8-1.3-2.9-3.1-3.1c-2.3-0.4-4.4,0.3-6.5,0.8c-1.3,0.3-2.5,0.8-3.7,1.2c-1.3,0.4-2.3,0-2.6-1.1
		c-0.3-1.1,0.2-1.9,1.4-2.3c3-1,6.1-2,9.3-2.3c1.9-0.1,3.7,0.1,5.4,1c2.8,1.6,4.1,5.1,3.2,8.1c-0.4,1.2-1,2-2.2,2.5
		c-5.3,2.2-10.6,4.4-15.9,6.6c-0.5,0.2-1,0.2-1.6,0.2C59.1,102.9,55.8,102.9,51.8,102.9z"/>
	<path d="M103.4,14.7c-6.4,0.5-12.3-1.1-18-4.1c-3.3-1.8-6.8-3.3-10.2-5c-2.7-1.3-5.6-2-8.7-2c-6,0-12.1,0-18.1,0
		c-0.6,0-1.1,0.1-1.6,0.3c-4.8,2-9.5,4-14.3,5.9c-0.9,0.4-1.1,0.9-1,1.7c0.3,1.8,1.3,2.8,3.2,3.1c2.3,0.4,4.4-0.3,6.5-0.9
		c1.2-0.3,2.3-0.7,3.5-1.1c1.4-0.4,2.4-0.1,2.8,1c0.4,1.1-0.2,2-1.5,2.5c-3,1-6,2-9.2,2.2c-1.5,0.1-2.9,0-4.3-0.5
		c-3.3-1.2-5.2-4.8-4.4-8.3c0.3-1.4,1.1-2.4,2.5-2.9c5.2-2.1,10.4-4.3,15.6-6.4C46.7,0.1,47.2,0,47.8,0C54,0,60.3,0,66.5,0
		c3.7,0,7.2,0.8,10.5,2.4c4.4,2.1,8.9,4.3,13.3,6.4c3.1,1.5,6.4,2.2,9.9,2.2c2.6,0,5.1,0,7.7,0c1.5,0,2.3,0.7,2.3,1.8
		c0,1.1-0.8,1.8-2.3,1.9C106.5,14.7,104.9,14.7,103.4,14.7z"/>
	<path d="M54.9,13.1c-0.5,2.5,0.2,4.4,1.9,6.1c1.1,1.1,2.5,1.9,4,2.5c3.6,1.5,7.2,3,10.8,4.5c0.6,0.3,1.1,0.6,1.4,1.2
		c2,4.2,5.5,6.4,9.9,7.1c3.2,0.5,6.3,0.1,9.3-1c0.6-0.2,1.1-0.4,1.8-0.4c4.7,0,9.4,0,14.1,0c0.7,0,1.3,0.1,1.8,0.7
		c0.5,0.6,0.6,1.2,0.3,1.9c-0.4,0.8-1.1,1.1-2,1.1c-4.4,0-8.7,0-13.1,0c-0.8,0-1.5,0.1-2.2,0.4c-6.6,2.1-12.8,1.8-18.6-2.4
		c-1.7-1.2-3-2.8-4-4.5c-0.3-0.5-0.7-0.9-1.3-1.1c-3.4-1.4-6.8-2.8-10.2-4.3c-2.4-1.1-4.6-2.5-6.1-4.7c-2.3-3.3-2.2-6.7-0.6-10.3
		c0.5-1.1,1.4-1.3,2.7-0.8c4.7,1.9,9.4,3.9,14.1,5.8c2,0.9,4.1,1.7,6.1,2.6c1.3,0.6,1.8,1.5,1.4,2.6c-0.4,1-1.5,1.4-2.8,0.8
		c-5.9-2.5-11.9-4.9-17.8-7.4C55.6,13.3,55.3,13.2,54.9,13.1z"/>
	<path d="M9.1,66.2c0.9,0,1.8,0,2.6,0c2.7,0.1,5.3-0.3,7.9-0.9c6.7-1.7,12.9-0.6,18.1,4.4c0.7,0.7,1.4,1.4,1.8,2.2
		c0.7,1.3,1.7,2,3,2.5c2.9,1.1,5.7,2.3,8.6,3.6c2.6,1.1,4.9,2.6,6.5,4.9c2.3,3.3,2.2,6.7,0.7,10.3c-0.5,1.1-1.4,1.3-2.8,0.8
		c-5.5-2.3-11.1-4.6-16.6-6.9c-1.2-0.5-2.3-1-3.5-1.5c-1.4-0.6-1.9-1.5-1.5-2.5c0.4-1.1,1.5-1.4,2.9-0.8c5.9,2.4,11.8,4.9,17.7,7.4
		c0.9,0.4,1.2,0.2,1.2-0.7c0.1-2.1-0.8-3.9-2.4-5.3c-1.3-1.1-2.8-1.9-4.3-2.5c-3.4-1.4-6.9-2.8-10.3-4.2c-0.5-0.2-0.9-0.5-1.2-1
		c-2.5-5.7-8.6-7.9-14.2-7.4c-1.8,0.2-3.5,0.5-5.2,1.2c-0.5,0.2-1,0.3-1.6,0.3c-4.7,0-9.5,0-14.2,0c-1,0-1.7-0.3-2.1-1.3
		c-0.5-1.2,0.5-2.4,1.9-2.4C4.4,66.2,6.7,66.2,9.1,66.2z"/>
	<path d="M93.7,51.6c-0.1,8.3-2.5,15.9-7.4,22.6c-0.5,0.6-1,1.2-1.8,1.2c-0.7,0-1.2-0.4-1.6-1c-0.4-0.7-0.3-1.3,0.2-1.9
		c1-1.4,2-2.8,2.8-4.3c3.9-7.2,5.1-14.9,3.6-23c0-0.3-0.1-0.5-0.1-0.8c-0.1-1.2,0.5-2,1.6-2.2c1-0.1,1.8,0.5,2,1.6
		c0.4,2.2,0.7,4.4,0.8,6.6C93.7,50.8,93.7,51.2,93.7,51.6z"/>
	<path d="M25.7,27.6c1.4,0,2.2,1.6,1.5,2.8c-0.6,1-1.4,2-2,3.1c-4.5,7.6-5.9,15.7-4.4,24.4c0,0.2,0.1,0.4,0.1,0.6
		c0.2,1.4-0.3,2.3-1.4,2.4c-1.1,0.2-1.9-0.5-2.2-1.8c-1.2-6.4-1-12.7,0.9-18.9c1.3-4.1,3.2-7.9,5.7-11.4
		C24.4,28.1,24.9,27.7,25.7,27.6z"/>
	<path d="M31.5,22c1,0,1.8,0.7,1.9,1.8c0,1-0.9,2.1-2,2.1c-1,0.1-1.9-0.8-1.9-1.8C29.5,23,30.5,22,31.5,22z"/>
	<path d="M81.1,79c0,0.9-0.9,1.9-1.9,2c-1,0.1-1.9-0.7-1.9-1.7c-0.1-1,0.8-2,1.9-2C80.2,77.2,81.1,78.1,81.1,79z"/>
</g>
</svg>
