<?xml version="1.0" encoding="utf-8"?>
<!-- Generator: Adobe Illustrator 27.7.0, SVG Export Plug-In . SVG Version: 6.00 Build 0)  -->
<svg version="1.1" id="Layer_1" xmlns="http://www.w3.org/2000/svg" xmlns:xlink="http://www.w3.org/1999/xlink" x="0px" y="0px"
	 viewBox="0 0 103.9 103.9" style="enable-background:new 0 0 103.9 103.9;" xml:space="preserve">
<style type="text/css">
	.st0{fill:url(#SVGID_1_);}
	.st1{fill:#FFFFFF;}
	.st2{fill:url(#SVGID_00000167364542225398061760000002356892640336150670_);}
	.st3{fill:url(#SVGID_00000054263223867778157890000007759946299289032601_);}
	.st4{fill:url(#SVGID_00000006671002642842540780000009190057378612346280_);}
	.st5{fill:url(#SVGID_00000077283390421015506400000008945716168580531133_);}
	.st6{fill:url(#SVGID_00000120534512594480999070000002456893760083968389_);}
	.st7{fill:url(#SVGID_00000008837097268854148190000000642340280351456959_);}
	.st8{fill:url(#SVGID_00000090983168500693260220000015760159453289375872_);}
	.st9{fill:#231F20;}
	.st10{fill:url(#SVGID_00000161594591722781901500000006540766569498288036_);}
	.st11{fill:none;}
	.st12{fill:url(#SVGID_00000152957160971205666600000008792816270395569293_);}
	.st13{fill:url(#SVGID_00000102537185092027397170000007212019025240428421_);}
	.st14{fill:url(#SVGID_00000143608656971236641370000010366980459242708370_);}
	.st15{fill:url(#SVGID_00000183939059994595851340000007977922508285734805_);}
	.st16{fill:url(#SVGID_00000179622184754600150070000002516390419344479922_);}
	.st17{fill:url(#SVGID_00000016074594617965741520000005521740031208704941_);}
	.st18{fill:url(#SVGID_00000035495176995030200470000014558707998147396480_);}
	.st19{fill:url(#SVGID_00000036935257251486297110000012044754102360326281_);}
	.st20{fill:url(#SVGID_00000105392592109363787270000010653155589054109583_);}
	.st21{fill:url(#SVGID_00000158002783211967243160000012203740127007274928_);}
	.st22{fill:#064295;}
	.st23{fill:url(#SVGID_00000134213322648507486460000006214247148906309029_);}
	.st24{fill:#010101;}
	.st25{fill:url(#SVGID_00000142888709679140689110000011238542283837998480_);}
	.st26{fill:url(#SVGID_00000119825111188279065960000004382509272979009454_);}
	.st27{fill:#DFDFDF;}
	.st28{fill:url(#SVGID_00000033337646762883872860000002766264318175275650_);}
	.st29{fill:url(#SVGID_00000096021574858058777700000012987416361106868373_);}
	.st30{fill:#696969;}
	.st31{fill:url(#SVGID_00000151522395441538960130000013873549224394368920_);}
	.st32{fill:#F2F2F2;}
	.st33{fill:#D6D6D6;}
	.st34{fill:#E4E4E4;}
	.st35{fill:#DDDDDD;}
	.st36{fill:url(#SVGID_00000116956811079267060420000003838293214058557364_);}
	.st37{fill:url(#SVGID_00000057853685888263368610000006102193075431199626_);}
	.st38{fill:url(#SVGID_00000172417986027039072140000015628741586548333704_);}
	.st39{fill:url(#SVGID_00000063608766112219198920000016490080810427922848_);}
	.st40{fill:url(#SVGID_00000007391020309886567030000004309136447040592272_);}
	.st41{fill:url(#SVGID_00000016790424326121542310000011966495328861306287_);}
	.st42{fill:url(#SVGID_00000132793435433765086210000005438657226818888081_);}
	.st43{fill:url(#SVGID_00000064335672425217176340000014901373329119298968_);}
	.st44{fill:url(#SVGID_00000080889946498689994450000001569973145882301336_);}
	.st45{fill:url(#SVGID_00000171704783241154940970000004491132124129291652_);}
	.st46{fill:url(#SVGID_00000036931082295437883510000009774785658184602556_);}
	.st47{fill:url(#SVGID_00000139980626344700373420000013838588842573001356_);}
	.st48{fill:url(#SVGID_00000149381951672933926520000017065286561968018363_);}
	.st49{fill:url(#SVGID_00000006681792418774920130000005275975709522541212_);}
	.st50{fill:url(#SVGID_00000039812857736400029880000011796380138661225624_);}
	.st51{fill:url(#SVGID_00000107580747884999514860000003253232100558945469_);}
	.st52{fill:url(#SVGID_00000182520213262513262870000017128274003378833057_);}
	.st53{fill:url(#SVGID_00000126285918318148892900000017882108817114280834_);}
	.st54{fill:url(#SVGID_00000106132852810950705960000010033193666362662299_);}
	.st55{fill:url(#SVGID_00000066480137172364962340000014431434211372328362_);}
	.st56{fill:url(#SVGID_00000114053227644117539660000007789598314155808902_);}
	.st57{fill:url(#SVGID_00000118386763788422938210000015810275806171970962_);}
	.st58{fill:url(#SVGID_00000129885516691016575050000007502020164321788064_);}
	.st59{fill:url(#SVGID_00000106147508063600054510000010717092172874569870_);}
	.st60{fill:#989898;}
	.st61{fill:url(#SVGID_00000085249547252843457780000017074063066961572523_);}
	.st62{fill:url(#SVGID_00000026851255654153709300000010907582488402298544_);}
	.st63{fill:url(#SVGID_00000157292330930788777850000017284930362016231307_);}
	.st64{fill:url(#SVGID_00000153702741788948449830000004588841958586119326_);}
	.st65{fill:url(#SVGID_00000023984439761193378650000009954086271476615101_);}
	.st66{fill:url(#SVGID_00000053537519381246480000000002092231579827275651_);}
	.st67{fill:url(#SVGID_00000157284167873841379620000014869425701338994590_);}
</style>
<g>
	<path d="M0,69c2.2-1.3,4.4-2.7,6.6-3.9c4.7-2.6,9.4-5.2,14-7.8c0.4-0.2,0.8-0.4,1.2-0.5c1.3-0.2,2.1,0.5,2.1,1.8c0,3,0,6,0,9
		c0,0.4,0,0.7,0,1.1c0,0.1,0.1,0.1,0.1,0.2c0.1-0.1,0.2-0.1,0.3-0.2c3.9-2.6,7.9-5.3,11.8-7.9c1.9-1.2,3.7-2.5,5.6-3.7
		c0.5-0.3,1.5-0.5,1.9-0.3c0.5,0.2,0.9,1.1,0.9,1.7c0.1,2.7,0.1,5.4,0.1,8.1c0,0.1,0,0.1,0,0.2c0,0,0.1-0.1,0.1-0.1
		c3.2-1.7,6.3-3.4,9.5-5.2c2.7-1.5,5.4-3,8.1-4.5c1.8-1,3,0.1,2.9,1.8c-0.1,2.6,0,5.2,0,7.8c0,0.1,0,0.1,0,0.2
		c0.1,0,0.1-0.1,0.2-0.1c1.6-0.9,3.3-1.7,4.9-2.6c0.2-0.1,0.4-0.3,0.6-0.4c1.6-0.5,2.1-1.5,2.1-3.3c0-2.8,0.5-5.7,0.7-8.5
		c0.1-1.1,0.1-2.3,0.2-3.4c0.2-2.2,0.4-4.4,0.6-6.7c0.1-1,0.2-2,0.2-3c0.1-2.1,0.2-4.3,0.4-6.4c0.2-1.8,0.3-3.6,0.6-5.4
		c0.4-2.2,1.8-3.4,4.1-3.5c2.2-0.1,4.4,0,6.6,0c2.1,0,4.2,0,6.3,0c3.9,0,4.9,2.1,5.2,5.1c0.3,3.3,0.6,6.6,0.8,9.9
		c0.2,2.1,0.2,4.2,0.4,6.3c0.2,2.1,0.4,4.1,0.6,6.2c0.1,1,0.2,2,0.2,3c0.1,2.1,0.2,4.3,0.4,6.4c0.2,2.9,0.5,5.8,0.8,8.7
		c0.2,1.9,0.3,3.8,0.4,5.7c0.2,2.4,0.4,4.7,0.6,7.1c0.1,0.9,0.2,1.9,0.2,2.8c0.1,2.2,0.3,4.4,0.4,6.6c0.2,2.6,0.4,5.2,0.6,7.8
		c0.1,1,0.3,2,0.4,3c0.1,0.8-0.7,1.7-1.5,1.8c-0.8,0.1-1.6-0.5-1.7-1.4c-0.2-1.7-0.3-3.3-0.4-5c-0.1-1-0.2-2-0.3-3.1
		c-8.7,0-17.4,0-26.3,0c-0.1,1.8-0.3,3.5-0.4,5.3c-0.1,0.9-0.1,1.9-0.2,2.8c-0.1,0.8-0.9,1.4-1.7,1.3c-0.9,0-1.5-0.6-1.5-1.5
		c0-1.4,0.1-2.7,0.2-4.1c0.1-1.1,0.3-2.2,0.4-3.3c0.2-2.1,0.2-4.1,0.4-6.2c0.2-3,0.5-6,0.8-8.9c0.1-0.9,0.2-1.9,0.2-2.8
		c0.2-3.1,0.4-6.2,0.6-9.3c0-0.3,0.1-0.6,0.3-1.2c-1.1,0.6-2.1,1.1-3,1.6c-1.1,0.6-2.2,1.4-3.4,1.9c-0.8,0.3-0.9,0.8-0.9,1.5
		c0,10,0,20,0,30c0,0.8-0.1,1.4-0.8,1.9c-0.9,0.7-2.2,0.2-2.4-0.9c-0.1-0.4-0.1-0.8-0.1-1.2c0-13,0-26,0-39.1c0-0.4,0-0.7,0-1.3
		c-1.3,0.7-2.4,1.2-3.6,1.8c-2.3,1.3-4.7,2.6-7,3.9c-2.1,1.2-4.2,2.3-6.3,3.5c-0.3,0.2-0.6,0.8-0.6,1.2c0,6.7,0,13.3,0,20
		c0,3.5,0,6.9,0,10.4c0,1.1-0.7,2-1.6,2c-0.9,0-1.5-0.5-1.6-1.4c0-0.4,0-0.7,0-1.1c0-12.9,0-25.8,0-38.8c0-0.4,0-0.7,0-1.3
		c-1.4,0.9-2.7,1.7-3.9,2.5c-4.3,2.9-8.5,5.7-12.8,8.6c-0.5,0.4-0.8,0.8-0.8,1.5c0,9.3,0,18.5,0,27.8c0,1.3-0.7,2.2-1.7,2.2
		c-0.9,0-1.4-0.5-1.5-1.4c-0.1-0.4,0-0.7,0-1.1c0-13,0-26,0-39c0-0.4,0-0.7,0-1.3c-0.8,0.4-1.5,0.7-2.2,1c-3,1.6-5.9,3.3-8.9,5
		c-1.9,1.1-3.9,2.2-5.8,3.2c-0.6,0.3-0.5,0.8-0.5,1.2c0,10,0,20,0,30c0,0.5,0,1.1-0.3,1.4c-0.8,1.2-2,1.1-3-0.2C0,91.6,0,80.3,0,69z
		 M76.7,56.3c6.9,0,13.6,0,20.1,0c0-0.8,0.1-1.6,0-2.3c-0.2-2.8-0.5-5.6-0.8-8.4c-0.2-2.5-0.4-5-0.6-7.6c-0.2-3-0.4-6.1-0.6-9.1
		c-0.2-1.9-0.5-2.1-2.1-2c-0.6,0-1.2,0-1.8,0c-3.4,0-6.9,0-10.3,0c-0.8,0-1.5,0.2-1.6,1.1c-0.1,0.6-0.2,1.3-0.2,1.9
		c-0.3,3.4-0.6,6.8-0.8,10.3c-0.2,2.2-0.3,4.4-0.4,6.6c-0.1,1-0.2,1.9-0.2,2.9C77.1,51.8,76.9,54,76.7,56.3z M74,91.1
		c8.5,0,17.1,0,25.7,0c-0.1-2.3-0.3-4.6-0.4-6.8c-0.1-0.8-0.1-1.6-0.2-2.4c-0.2-2.2-0.4-4.4-0.6-6.7c-0.2-2-0.3-3.9-0.5-5.8
		c-7.4,0-14.8,0-22.3,0C75.1,76.7,74.5,83.9,74,91.1z M76,66c7.3,0,14.5,0,21.8,0c-0.2-2.2-0.4-4.2-0.6-6.4c-0.7,0-1.4,0-2,0
		c-5.9,0-11.8,0-17.7,0c-0.5,0-1-0.1-1.1,0.6C76.2,62.1,76.1,64.1,76,66z"/>
	<linearGradient id="SVGID_1_" gradientUnits="userSpaceOnUse" x1="1.282506e-06" y1="31.9178" x2="71.8875" y2="31.9178">
		<stop  offset="0" style="stop-color:#2352A3"/>
		<stop  offset="1" style="stop-color:#28ADE3"/>
	</linearGradient>
	<path class="st0" d="M0,42.8c0.9-2,2.9-2.1,4.6-2.4c1.3-0.3,2.7-0.4,4-0.7c0.4-0.1,0.8-0.5,0.9-0.8c0.6-3.1,1.8-6.1,3.4-8.9
		c0.2-0.4,0.3-0.7-0.1-1.1c-1.3-1.5-2.4-3.2-3.7-4.7c-1-1.2-1.2-3.3,0.1-4.6c1.1-1.1,2-2.2,3.1-3.3c1.2-1.2,2.6-1.3,4-0.5
		c1.7,1,3.3,2.2,4.9,3.4c0.6,0.5,1.1,0.5,1.7,0.1c2.6-1.8,5.4-2.8,8.4-3.8c0.2-0.1,0.4-0.1,0.8-0.1c0.2-2,0.4-3.9,0.6-5.9
		c0.2-2,1-3.4,2.5-3.7c0.8-0.2,1.7-0.1,2.6-0.1c1,0,2.1,0.1,3.1,0c1.4-0.1,2.6,0.8,2.9,2.2c0.4,1.9,0.7,3.7,1,5.6
		c0.1,1,0.4,1.6,1.6,1.8c2.9,0.6,5.7,1.7,8.3,3.2c0.3,0.2,0.9,0,1.2-0.2c1.6-1.2,3.1-2.5,4.7-3.6c1.7-1.3,3.2-1.1,4.7,0.4
		c1,0.9,2,1.8,2.9,2.8c1.2,1.1,1.6,2.7,0.5,4.4c-1.2,1.7-2.3,3.4-3.5,5c-0.3,0.4-0.3,0.7,0,1.1c1.8,2.7,3.1,5.5,3.9,8.7
		c0.1,0.5,0.4,0.8,1.1,0.8c1.3,0.1,1.9,0.5,1.8,1.8c-0.1,0.9-0.7,1.4-1.9,1.4c-0.8,0-1.6-0.1-2.4-0.2c-0.9-0.2-1.2-0.9-1.3-1.7
		c-0.8-3.7-2.4-7.1-4.6-10.2c-0.6-0.8-0.6-1.5,0.1-2.4c1.5-2,2.9-4.1,4.4-6.3c-1-1-2-1.9-3.1-2.8c-0.2-0.1-0.8,0-1.1,0.3
		c-1.8,1.4-3.5,2.8-5.2,4.1c-0.7,0.6-1.4,0.7-2.3,0.1c-3.3-2-6.7-3.4-10.6-3.9c-1-0.1-1.5-0.8-1.7-1.7c-0.5-2.5-0.8-5.1-1.2-7.5
		c-1.5,0-3,0-4.4,0c-0.2,0-0.5,0.3-0.5,0.5c-0.2,1.3-0.3,2.7-0.4,4.1c-0.1,1.2-0.2,2.5-0.5,3.6c-0.1,0.5-0.8,1-1.4,1.1
		c-3.6,0.9-7,2.3-10,4.5c-1.3,0.9-1.9,0.9-3.2-0.1c-1.7-1.2-3.4-2.4-5-3.6c-0.5-0.3-0.9-0.5-1.4,0.1c-0.8,1-1.7,1.8-2.5,2.8
		c1.6,2,3.1,4.1,4.7,6c0.8,0.9,0.6,1.7,0.1,2.5c-1.3,2-2.3,4.2-3,6.5c-0.3,1-0.6,2.1-0.8,3.1c-0.3,1.9-0.5,2.2-2.4,2.6
		c-2.3,0.5-4.6,0.8-7,1.2c0,1.3,0,2.7,0,4.1c0,0.2,0.4,0.6,0.6,0.7c2.4,0.3,4.8,0.6,7.2,0.8c0.7,0.1,1.3,0.5,1.5,1.2
		c0.5,1.6,1,3.2,1.6,4.8c0.5,1.5-0.3,2.6-1.8,2.5c-0.4,0-0.8-0.5-1-0.8c-0.5-1.2-1-2.5-1.4-3.8c-0.2-0.7-0.5-0.7-1.1-0.8
		c-2.1-0.2-4.2-0.5-6.3-0.8c-1.4-0.2-2.2-1.2-2.4-2.5c0-0.1-0.1-0.2-0.2-0.3c0-0.9,0-1.8,0-2.6c0-0.3,0-0.5,0-0.8
		C0,44.6,0,43.7,0,42.8z"/>
	<path class="st24" d="M77.3,0c1.1,0.5,2.3,1,3.4,1.6c4,2.6,4.6,8.6,1.2,12c-2.7,2.7-5.8,3.4-9.3,2c-2.5-1-4-3-4.6-5.6
		c-0.7-3,0.2-5.6,2.4-7.8C71.6,1,73.1,0.5,74.7,0C75.6,0,76.5,0,77.3,0z M80.8,8.2c0-3-2.1-4.9-4.9-4.9c-2.8,0-4.6,2.1-4.8,4.8
		c-0.1,2.5,2.3,5,4.9,5C78.3,13,81,10.9,80.8,8.2z"/>
	
		<linearGradient id="SVGID_00000052089270951564301960000005718263463018866088_" gradientUnits="userSpaceOnUse" x1="18.0413" y1="38.9316" x2="60.9813" y2="38.9316">
		<stop  offset="0" style="stop-color:#2352A3"/>
		<stop  offset="1" style="stop-color:#28ADE3"/>
	</linearGradient>
	<path style="fill:url(#SVGID_00000052089270951564301960000005718263463018866088_);" d="M61,45.1c0.1,2.6-0.4,5.1-1.3,7.5
		c-0.4,1.1-1.4,1.7-2.3,1.3c-0.8-0.3-1.1-1.4-0.7-2.4c1.1-2.8,1.3-5.7,1-8.6c-0.4-3.7-1.8-7-4.4-9.7c-2.1-2.3-4.5-4.2-7.6-5.1
		c-2.7-0.9-5.4-1.3-8.3-0.9c-3.3,0.4-6.3,1.5-8.9,3.5c-3.2,2.5-5.4,5.7-6.6,9.6c-1,3.6-0.9,7.3,0.3,10.9c0.5,1.6-0.5,2.8-1.7,2.4
		c-0.5-0.1-1.1-0.6-1.2-1c-1.3-3.4-1.5-6.8-1.1-10.4c0.5-3.7,1.9-7,4.1-9.9c2.9-3.9,6.7-6.5,11.4-7.7c1.7-0.4,3.5-0.8,5.3-0.8
		c5.2,0,10,1.5,14.1,4.9c4.1,3.3,6.5,7.6,7.5,12.7C60.9,42.6,60.9,43.9,61,45.1z"/>
	<path class="st24" d="M90.7,21.1c-2.7,0.3-5.3-2.4-5.2-5.2c0.1-2.9,1.9-5.3,5.2-5.3c3.5,0,5.4,2.2,5.5,5.2
		C96.2,19.3,93.2,21.4,90.7,21.1z M90.7,17.9c1.2,0,2.2-0.9,2.2-2c0-1-1.1-2.1-2.1-2c-1.2,0-2.1,1-2.1,2.1
		C88.7,16.9,89.7,17.9,90.7,17.9z"/>
	<path d="M49.4,80.2c0-0.8,0-1.7,0-2.5c0-1.1,0.6-1.7,1.7-1.7c1.7,0,3.4,0,5.2,0c1,0,1.8,0.8,1.8,1.7c0,0.9-0.7,1.5-1.8,1.5
		c-0.9,0-1.8,0-2.7,0c-0.7,0-0.9,0.3-0.9,0.9c0,1,0,2,0,2.9c0,0.9-0.7,1.6-1.5,1.6c-0.9,0-1.5-0.5-1.6-1.4
		C49.4,82.2,49.5,81.2,49.4,80.2C49.4,80.2,49.4,80.2,49.4,80.2z"/>
	<path d="M11,79.2c0,1.3,0,2.4,0,3.5c-0.1,1.5-1.3,2.4-2.3,1.7c-0.4-0.3-0.8-0.9-0.8-1.3c-0.1-1.9-0.1-3.8,0-5.7
		c0-0.8,0.4-1.4,1.2-1.4c1.9-0.1,3.9-0.1,5.8,0c1.1,0,1.6,0.8,1.5,1.9c-0.1,0.7-0.8,1.3-1.7,1.3C13.4,79.2,12.2,79.2,11,79.2z"/>
	<path d="M31.8,93.4c-0.1,1.5-0.1,2.9-0.3,4.2c-0.1,1.1-1.1,1.2-1.9,1c-0.7-0.1-1.2-0.7-1.2-1.5c0-1.9,0-3.7,0-5.6
		c0-0.9,0.6-1.4,1.3-1.4c1.9-0.1,3.9-0.1,5.8,0c1,0,1.4,0.7,1.4,1.7c0,1-0.7,1.6-1.8,1.6C34,93.4,32.9,93.4,31.8,93.4z"/>
	<path class="st32" d="M24.4,68.8c-0.1,0.1-0.2,0.1-0.3,0.2c0-0.1-0.1-0.1-0.1-0.2C24.1,68.8,24.3,68.8,24.4,68.8z"/>
	<path class="st33" d="M65.6,66.8c-0.1,0-0.1,0.1-0.2,0.1c0-0.1,0-0.1,0-0.2C65.5,66.8,65.5,66.8,65.6,66.8z"/>
	<path class="st34" d="M44.9,66.8c0,0-0.1,0.1-0.1,0.1c0-0.1,0-0.1,0-0.2C44.8,66.8,44.8,66.8,44.9,66.8z"/>
</g>
</svg>
