<?xml version="1.0" encoding="utf-8"?>
<!-- Generator: Adobe Illustrator 27.7.0, SVG Export Plug-In . SVG Version: 6.00 Build 0)  -->
<svg version="1.1" id="Layer_1" xmlns="http://www.w3.org/2000/svg" xmlns:xlink="http://www.w3.org/1999/xlink" x="0px" y="0px"
	 viewBox="0 0 96 95.6" style="enable-background:new 0 0 96 95.6;" xml:space="preserve">
<style type="text/css">
	.st0{fill:url(#SVGID_1_);}
	.st1{fill:#FFFFFF;}
	.st2{fill:url(#SVGID_00000080916605989397186780000001090888902462258309_);}
	.st3{fill:url(#SVGID_00000112605630658045378580000002773071173482188966_);}
	.st4{fill:url(#SVGID_00000018950683695735822270000010658066440340028325_);}
	.st5{fill:url(#SVGID_00000126317337511112509640000001433866106591072958_);}
	.st6{fill:url(#SVGID_00000096058869294713281600000005600251155148181950_);}
	.st7{fill:url(#SVGID_00000094576215921931852160000002642306690460007058_);}
	.st8{fill:url(#SVGID_00000064320776256851492140000004708118555385271480_);}
	.st9{fill:#231F20;}
	.st10{fill:url(#SVGID_00000075132746974536937870000015228779238163621045_);}
	.st11{fill:none;}
	.st12{fill:url(#SVGID_00000140729702444483395020000017487839987877524870_);}
	.st13{fill:url(#SVGID_00000007389507071497415930000011221761877272139920_);}
	.st14{fill:url(#SVGID_00000078745584284498936310000005410520267770335628_);}
	.st15{fill:url(#SVGID_00000061470512416285062460000011060022640069863589_);}
	.st16{fill:url(#SVGID_00000011008091431568452180000002894692330597623955_);}
	.st17{fill:url(#SVGID_00000160185928237807049510000002643290610942267578_);}
	.st18{fill:url(#SVGID_00000044171590988665930740000018290318520081252248_);}
	.st19{fill:url(#SVGID_00000132810646298148821080000017382011486125382326_);}
	.st20{fill:url(#SVGID_00000035511948498525144770000011623290744968728482_);}
	.st21{fill:url(#SVGID_00000016061094075627305620000005199133832001550734_);}
	.st22{fill:#064295;}
	.st23{fill:url(#SVGID_00000034060221157838916060000003251824970280561318_);}
	.st24{fill:#010101;}
	.st25{fill:url(#SVGID_00000176021677018697478220000000556245764236784288_);}
	.st26{fill:url(#SVGID_00000086650504958366211820000005014294334109066630_);}
	.st27{fill:#DFDFDF;}
	.st28{fill:url(#SVGID_00000152958856541375278610000011842338647058561949_);}
	.st29{fill:url(#SVGID_00000070103244620549270590000010921643334174512553_);}
	.st30{fill:#696969;}
	.st31{fill:url(#SVGID_00000175298824459252349250000008380459939892074413_);}
	.st32{fill:#F2F2F2;}
	.st33{fill:#D6D6D6;}
	.st34{fill:#E4E4E4;}
	.st35{fill:#DDDDDD;}
	.st36{fill:url(#SVGID_00000011712710666231834240000013642926410805779075_);}
	.st37{fill:url(#SVGID_00000119828801532260825180000003337238083603820973_);}
	.st38{fill:url(#SVGID_00000112633397224364389940000003596791289851188130_);}
	.st39{fill:url(#SVGID_00000112620106630782157400000014121710621080820641_);}
	.st40{fill:url(#SVGID_00000013873658755729450890000015078042280804061370_);}
	.st41{fill:url(#SVGID_00000169534211601223086630000005807569517329196169_);}
	.st42{fill:url(#SVGID_00000146462076147935451520000013108628782544671926_);}
	.st43{fill:url(#SVGID_00000019669218101247426200000016692786409701967020_);}
	.st44{fill:url(#SVGID_00000088822811794094621200000001511418621660264121_);}
	.st45{fill:url(#SVGID_00000114792154659703349710000000412287781887860905_);}
	.st46{fill:url(#SVGID_00000039114794322060091330000013097459165081815437_);}
	.st47{fill:url(#SVGID_00000023259228812811642810000015641786532915433651_);}
	.st48{fill:url(#SVGID_00000180355584875756729940000001053989890126393790_);}
	.st49{fill:url(#SVGID_00000129922981461464166700000015889620680095582868_);}
	.st50{fill:url(#SVGID_00000139258002019092322740000012208008632922336398_);}
	.st51{fill:url(#SVGID_00000133520463409009265820000014017476132763351210_);}
	.st52{fill:url(#SVGID_00000027570330704934090090000005068521516135696554_);}
	.st53{fill:url(#SVGID_00000109732347328423601990000010623583070304795581_);}
	.st54{fill:url(#SVGID_00000085216899056794651150000018085334369747294635_);}
	.st55{fill:url(#SVGID_00000127004594969650275030000011142439606907950503_);}
	.st56{fill:url(#SVGID_00000016071812403918013830000016993448150922501558_);}
	.st57{fill:url(#SVGID_00000133507608356291671160000003522565634698328502_);}
	.st58{fill:url(#SVGID_00000148647441026601376400000013631257084505979565_);}
	.st59{fill:url(#SVGID_00000088102037336912946790000008109245443763114908_);}
	.st60{fill:#989898;}
	.st61{fill:url(#SVGID_00000035525282420528178900000009050143668380223396_);}
	.st62{fill:url(#SVGID_00000150793723861037987680000016366403858260489874_);}
	.st63{fill:url(#SVGID_00000039820890070668639160000011038082759771490738_);}
	.st64{fill:url(#SVGID_00000081648842299027875250000001929906148725905087_);}
	.st65{fill:url(#SVGID_00000155118095565632280980000018158151633411422097_);}
	.st66{fill:url(#SVGID_00000031200158097891865290000001825917089302138548_);}
	.st67{fill:url(#SVGID_00000037686451539425998880000004589604010291332542_);}
</style>
<g>
	<path d="M78.6,0c1.6,0.4,3.2,0.8,4.7,1.3c3.3,1.2,6,3.2,8.3,5.9c2.2,2.7,3.6,5.7,4.1,9c0.9,5.6-0.3,10.7-3.8,15.2
		c-1.5,2-3.4,3.7-5.6,4.9c-0.3,0.2-0.5,0.7-0.5,1.1c0,2.6,0,5.2,0,7.8c0,0.6-0.2,1.2-0.5,1.8c-0.5,0.9-1.4,0.8-2.2,0.6
		c-0.8-0.2-1-1-1-1.8c0-2.5,0-4.9,0-7.5c-3,0.8-5.9,1-9,0.6c0,0.4,0,0.7,0,1.1c0,12.7,0,25.3,0,38c0,1.9-0.4,3.6-1.7,5.1
		c-1.2,1.4-2.7,2.4-4.6,2.4c-6.2,0.1-12.3,0-18.5,0c-6.8,0-24.1,0-30.9,0c-0.3,0-0.6,0-1.1,0c0.1,1.4,0.1,2.8,0.3,4.1
		c0.3,1.4,1.6,2.3,3,2.2c16,0,42.6-0.1,58.6,0c2.4,0,3.9-1.5,3.9-3.9c0-8.2,0-16.4,0-24.6c0-0.7,0-1.3,0.5-1.9
		c0.8-0.8,2.7-0.5,3,0.8c0.1,0.4,0.1,0.9,0.1,1.4c0,8.1,0,16.2,0,24.3c0,3.5-1.5,6-4.8,7.2c-0.7,0.3-1.5,0.3-2.3,0.3
		c-16.2,0-43.1,0-59.3,0c-3.2,0-6.3-2.6-6.6-5.6c-0.2-1.4-0.2-2.9-0.3-4.4c-1.8,0-3.7,0-5.6,0c-1.3,0-2.6-0.2-3.7-1
		C1.2,83.1,0,81.2,0,78.5c0-15.7,0-31.3,0-47c0-6.8,0.1-13.6,0-20.4c-0.1-3.3,2.2-6.3,5.5-7c0.7-0.1,1.4-0.1,2-0.1
		c15.1,0,40.8,0,55.9,0c0.7,0,1.2-0.1,1.8-0.5c2.6-1.9,5.6-2.9,8.7-3.4c0.1,0,0.1-0.1,0.2-0.2C75.6,0,77.1,0,78.6,0z M56.6,26.7
		c0.1,0,0.1-0.1,0.2-0.1c0-1.3,0-2.6,0-3.9c-10,0-30.5,0-40.5,0c0,1.3,0,2.6,0,3.9c0.1,0,0.1,0.1,0.2,0.1c2.4,0,4.8,0,7.2,0
		C31,26.7,49.1,26.7,56.6,26.7z M60.7,7.8c-0.4,0-0.6,0-0.8,0c-14,0-38.7,0-52.7,0c-0.2,0-0.5,0-0.7,0C4.9,8,3.8,9.2,3.8,10.6
		c0,22.8,0,45.5,0,68.3c0,0.2,0,0.5,0.1,0.7c0.4,1.5,1.5,2.2,3.2,2.2c10.1,0,30.9,0,41.1,0c6,0,12,0,18,0c1.6,0,2.9-1.1,3.1-2.7
		c0.1-1.6,0.1-3.2,0.1-4.7c0-11.9,0-23.7,0-35.6c0-0.4,0.1-0.9-0.5-1.1c-2.3-0.9-4.3-2.2-6-3.9c-1.1-1.1-2.1-2.4-3.1-3.6
		c-0.5,0.1-1,0.2-1.5,0.2c-10.9,0-32.4,0-43.3,0c-1.6,0-2.4-0.9-2.4-2.4c0.1-2.5,0-4.9,0-7.4c0-0.2,0-0.5,0.1-0.7
		c0.4-1.1,1.3-1.2,2.2-1.2c10,0,30.7,0,40.7,0c0.4,0,0.7,0,1.2,0C57,14.7,58.3,11.1,60.7,7.8z M76.3,35.5c8.7,0.1,15.5-6.9,16-14.6
		c0.6-10.2-7.2-17.1-15.7-17.1c-9-0.1-15.7,6.9-16,15.3C60.2,28.2,67.6,35.5,76.3,35.5z"/>
	<path class="st24" d="M83.9,56.2c-1.1,0-2-0.8-1.9-1.8c0.1-1.1,0.8-1.7,1.9-1.7c1.1,0,1.8,0.7,1.8,1.8C85.7,55.6,85,56.2,83.9,56.2
		z"/>
	<path class="st35" d="M16.3,26.5c0.1,0,0.1,0.1,0.2,0.1C16.4,26.6,16.3,26.6,16.3,26.5z"/>
	<path class="st35" d="M56.6,26.7c0.1,0,0.1-0.1,0.2-0.1C56.7,26.6,56.6,26.6,56.6,26.7z"/>
	<path d="M31.3,44.4c5.4,0,21.4,0,26.8,0c0.7,0,1.5,0.2,1.9,0.6c0.4,0.3,0.6,1.2,0.4,1.7c-0.2,0.5-0.8,0.9-1.3,1.3
		c-0.2,0.2-0.6,0.1-0.9,0.1c-10.9,0-32.4,0-43.2,0c-1.4,0-1.9-0.3-2.3-1.4c-0.4-1.1,0.3-2.1,1.4-2.3c0.4-0.1,0.8-0.1,1.2-0.1
		C20.6,44.4,25.9,44.4,31.3,44.4z"/>
	<path d="M31.2,58.3c-5.4,0-10.9,0-16.3,0c-1.4,0-1.9-0.3-2.2-1.3c-0.3-1,0.2-2,1.3-2.3c0.4-0.1,0.8-0.1,1.2-0.1
		c10.7,0,32.1,0,42.8,0c1.7,0,2.5,0.6,2.5,1.8c0,1.1-0.8,1.9-2,1.9c-1.9,0-3.8,0-5.7,0C49.1,58.3,34.8,58.3,31.2,58.3z"/>
	<linearGradient id="SVGID_1_" gradientUnits="userSpaceOnUse" x1="74.5032" y1="17.5566" x2="78.244" y2="17.5566">
		<stop  offset="0" style="stop-color:#2352A3"/>
		<stop  offset="1" style="stop-color:#28ADE3"/>
	</linearGradient>
	<path class="st0" d="M78.2,17.6c0,2.1,0,4.1,0,6.2c0,1.2-0.6,1.9-1.7,2c-1,0.1-1.8-0.6-2-1.7c0-0.2-0.1-0.5-0.1-0.7
		c0-3.9,0-7.7,0-11.6c0-1.6,0.7-2.4,2.1-2.4c0.9,0,1.6,0.7,1.6,1.6C78.2,13.1,78.2,15.4,78.2,17.6C78.2,17.6,78.2,17.6,78.2,17.6z"
		/>
	
		<linearGradient id="SVGID_00000057110171798059614640000007599073204973625783_" gradientUnits="userSpaceOnUse" x1="74.6417" y1="29.8814" x2="78.3613" y2="29.8814">
		<stop  offset="0" style="stop-color:#2352A3"/>
		<stop  offset="1" style="stop-color:#28ADE3"/>
	</linearGradient>
	<path style="fill:url(#SVGID_00000057110171798059614640000007599073204973625783_);" d="M74.6,30c0-1.1,0.8-1.9,1.8-1.9
		c0.9,0,2,0.9,1.9,1.8c-0.1,1-0.7,1.8-1.8,1.9C75.4,31.8,74.7,31.1,74.6,30z"/>
</g>
</svg>
