<?xml version="1.0" encoding="utf-8"?>
<!-- Generator: Adobe Illustrator 27.7.0, SVG Export Plug-In . SVG Version: 6.00 Build 0)  -->
<svg version="1.1" id="Layer_1" xmlns="http://www.w3.org/2000/svg" xmlns:xlink="http://www.w3.org/1999/xlink" x="0px" y="0px"
	 viewBox="0 0 82.5 82.5" style="enable-background:new 0 0 82.5 82.5;" xml:space="preserve">
<style type="text/css">
	.st0{fill:url(#SVGID_1_);}
	.st1{fill:#FFFFFF;}
	.st2{fill:url(#SVGID_00000012466179783451347870000010824982502834501542_);}
	.st3{fill:url(#SVGID_00000171719185014225500360000006134641809663138453_);}
	.st4{fill:url(#SVGID_00000148644256108501545710000010479736097534257574_);}
	.st5{fill:url(#SVGID_00000062179337206826680610000002422744059104850838_);}
	.st6{fill:url(#SVGID_00000034810071840531758280000009176451881966376876_);}
	.st7{fill:url(#SVGID_00000105392885741904341310000013511122234991617452_);}
	.st8{fill:url(#SVGID_00000067949056364242133690000000054504944759137202_);}
	.st9{fill:#231F20;}
	.st10{fill:url(#SVGID_00000161599167432121355640000017379611637430484137_);}
	.st11{fill:none;}
	.st12{fill:url(#SVGID_00000114045365990459594940000004017482080534336143_);}
	.st13{fill:url(#SVGID_00000065759972149044711640000010185979202252225970_);}
	.st14{fill:url(#SVGID_00000100374514191631000880000004700098855880803206_);}
	.st15{fill:url(#SVGID_00000085955862793105158700000015516111904693444796_);}
	.st16{fill:url(#SVGID_00000083079919341735747080000012959761079200279973_);}
	.st17{fill:url(#SVGID_00000160180018338707130910000000402226933297268660_);}
	.st18{fill:url(#SVGID_00000098179407047162472630000004830410642612994727_);}
	.st19{fill:url(#SVGID_00000115512855359448805690000017310120969610979227_);}
	.st20{fill:url(#SVGID_00000150824530970000669630000016381823015209861552_);}
	.st21{fill:url(#SVGID_00000067235986095833683570000000605115532785623455_);}
	.st22{fill:#064295;}
	.st23{fill:url(#SVGID_00000147905698184529188830000002486381387625285001_);}
	.st24{fill:#010101;}
	.st25{fill:url(#SVGID_00000179644634504346927310000012852961763397389186_);}
	.st26{fill:url(#SVGID_00000040551470156357901190000017577467598352383114_);}
	.st27{fill:#DFDFDF;}
	.st28{fill:url(#SVGID_00000052104390336412558550000011817591797505332122_);}
	.st29{fill:url(#SVGID_00000052081883775534244780000013327714538309171598_);}
	.st30{fill:#696969;}
	.st31{fill:url(#SVGID_00000093899374901591416060000013616947135471839909_);}
	.st32{fill:#F2F2F2;}
	.st33{fill:#D6D6D6;}
	.st34{fill:#E4E4E4;}
	.st35{fill:#DDDDDD;}
	.st36{fill:url(#SVGID_00000106128807105036283720000007499530376607696263_);}
	.st37{fill:url(#SVGID_00000140714488259489099340000007731986230254899864_);}
	.st38{fill:url(#SVGID_00000149342895464433907240000007412473057372016574_);}
	.st39{fill:url(#SVGID_00000103968968877102536350000002074829210217975987_);}
	.st40{fill:url(#SVGID_00000145770112714464832650000005544719258242502531_);}
	.st41{fill:url(#SVGID_00000110452488930522554140000017043703145896228271_);}
	.st42{fill:url(#SVGID_00000143576452743343196250000014514820638299199626_);}
	.st43{fill:url(#SVGID_00000130611604271580752590000005281043532861111962_);}
	.st44{fill:url(#SVGID_00000170959033057815711100000008710058660815664778_);}
	.st45{fill:url(#SVGID_00000037670055464807835580000001592042374931874958_);}
	.st46{fill:url(#SVGID_00000078761164702622993170000006680394866262500510_);}
	.st47{fill:url(#SVGID_00000132089058245964826420000006153648024175514775_);}
	.st48{fill:url(#SVGID_00000181059407259109596090000010976592487139117988_);}
	.st49{fill:url(#SVGID_00000060715952353741976550000014325265738327835320_);}
	.st50{fill:url(#SVGID_00000062912598739648455410000014238742045823829674_);}
	.st51{fill:url(#SVGID_00000084510932730749450940000005944397364847593402_);}
	.st52{fill:url(#SVGID_00000099620146644422261750000013823644505422629304_);}
	.st53{fill:url(#SVGID_00000098213565869409373280000012787416232586693009_);}
	.st54{fill:url(#SVGID_00000137828661053194610280000001164799616546735233_);}
	.st55{fill:url(#SVGID_00000174568458031672189960000012449565937924576688_);}
	.st56{fill:url(#SVGID_00000055682844315169759880000013808105516243442309_);}
	.st57{fill:url(#SVGID_00000039841892910795676180000009894809265494178716_);}
	.st58{fill:url(#SVGID_00000020389151704102577510000010475679744393832591_);}
	.st59{fill:url(#SVGID_00000010274056207921522570000012267586583494907522_);}
	.st60{fill:#989898;}
	.st61{fill:url(#SVGID_00000005238578819940434240000014195205572537674146_);}
	.st62{fill:url(#SVGID_00000122712256097763508140000007360858016816188054_);}
	.st63{fill:url(#SVGID_00000075870401493197384350000001303209644499758002_);}
	.st64{fill:url(#SVGID_00000114040107847827432560000004756265945594619303_);}
	.st65{fill:url(#SVGID_00000146457294527471721010000002374099440063112835_);}
	.st66{fill:url(#SVGID_00000089564061383897834860000002518022636477310111_);}
	.st67{fill:url(#SVGID_00000108290618274952393460000003660388704982178490_);}
</style>
<g>
	<path d="M0,70.1c0.3-1.6,0.6-3.1,1.2-4.6c1.6-3.8,4.3-6.5,8-8.3c0.1-0.1,0.3-0.1,0.5-0.3c-2.8-2.3-4.1-5.2-3.9-8.8
		c0.2-2.6,1.3-4.8,3.3-6.6c3.8-3.5,9.7-3.4,13.5,0.2c2.2,2.1,3.3,4.7,3.1,7.8c-0.2,3-1.5,5.5-3.9,7.4c1.9,0.9,3.6,1.9,5,3.3
		c0.5,0.5,0.5-0.1,0.6-0.3c1.3-2.2,3-4.1,5.1-5.5c0.8-0.5,1.7-1,2.5-1.4c-6-5.2-4.1-12.4-0.5-15.5c4-3.5,10-3.3,13.8,0.5
		c3.7,3.7,4.2,10.5-1,15c3.5,1.6,6.2,4,8,7.5c1.5-1.5,3.2-2.7,5.3-3.6c-3.1-2.6-4.4-5.9-3.7-9.9c0.4-2.4,1.7-4.4,3.7-6
		c4.1-3.2,9.9-2.7,13.4,1.1c3.2,3.3,4.3,10-1.2,14.8c1.6,0.7,3,1.6,4.3,2.7c3.4,3.1,5.3,6.9,5.4,11.5c0.1,3.1,0,6.2,0,9.3
		c0,1.5-0.6,2-2.1,2c-26.1,0-52.2,0-78.3,0c-1,0-1.6-0.3-2.1-1.1C0,77.6,0,73.8,0,70.1z M38,79.2c2.8,0,5.7,0,8.5,0
		c0.7,0,0.9-0.2,0.8-0.9c-0.1-1.3,0-2.6,0-3.9c0-0.5,0.1-1,0.4-1.4c0.5-0.6,1.1-0.7,1.7-0.5c0.7,0.2,1.1,0.8,1.1,1.5
		c0,1.5,0,3,0,4.4c0,0.5,0.1,0.7,0.6,0.6c0.6,0,1.2-0.1,1.8,0c0.6,0.1,0.8-0.2,0.7-0.8c0-3.6,0-7.1,0-10.7c0-1.4-0.2-2.8-0.7-4.1
		c-2.1-5.9-7.9-9.4-14.1-8.4c-5.9,0.9-10.3,6.2-10.4,12.3c0,3.7,0,7.4,0,11c0,0.5,0.2,0.7,0.7,0.7C32.2,79.2,35.1,79.2,38,79.2z
		 M14.3,79.2c3.5,0,6.9,0,10.4,0c0.6,0,0.8-0.2,0.7-0.8c0-1.3,0-2.5,0-3.8c0.1-3.5-0.3-6.9,0.3-10.4c0-0.3,0-0.5-0.2-0.7
		c-1.2-1.6-2.8-2.8-4.6-3.6c-8.5-3.7-17.7,2.2-17.8,11.5c0,2.3,0,4.6,0,6.8c0,0.7,0.2,0.8,0.8,0.8C7.5,79.2,10.9,79.2,14.3,79.2z
		 M68.1,79.2c0.4,0,0.8,0,1.2,0c3.1,0,6.2,0,9.3,0c0.3,0,0.7,0.2,0.7-0.4c-0.1-3,0.3-6.1-0.2-9.1c-0.8-5.2-3.8-8.7-8.8-10.2
		c-5.1-1.5-9.5-0.1-13.1,3.8c-0.4,0.4-0.6,0.9-0.4,1.4C57,65.9,57,67,57,68.1c0,3.5,0,6.9,0,10.4c0,0.6,0.1,0.7,0.7,0.7
		C61.2,79.2,64.6,79.2,68.1,79.2z M15.7,55.7c3.6,0.1,6.8-2.9,6.9-6.7c0.1-3.6-2.9-6.7-6.6-6.8c-3.6-0.1-6.8,2.9-6.9,6.6
		C8.9,52.5,11.9,55.6,15.7,55.7z M66.5,55.7c3.6,0.1,6.8-2.9,6.9-6.7c0.1-3.6-2.9-6.7-6.6-6.9c-3.6-0.1-6.8,2.9-6.9,6.6
		C59.8,52.5,62.8,55.6,66.5,55.7z M41.1,51.8c3.6,0.1,6.8-2.9,6.9-6.7c0.1-3.7-3-6.8-6.7-6.8c-3.6-0.1-6.7,2.9-6.8,6.6
		C34.4,48.6,37.4,51.7,41.1,51.8z"/>
	<linearGradient id="SVGID_1_" gradientUnits="userSpaceOnUse" x1="39.611" y1="3.3234" x2="42.854" y2="3.3234">
		<stop  offset="0" style="stop-color:#2352A3"/>
		<stop  offset="1" style="stop-color:#28ADE3"/>
	</linearGradient>
	<path class="st0" d="M41.7,0c0.9,0.5,1.2,1.3,1.1,2.3c-0.1,0.9,0,1.8,0,2.6c0,1.1-0.7,1.7-1.6,1.7c-0.9,0-1.6-0.7-1.6-1.7
		c0-1,0-2.1,0-3.1c0-0.9,0.5-1.4,1.1-1.8C41.1,0,41.4,0,41.7,0z"/>
	
		<linearGradient id="SVGID_00000098178547553827563940000001142946354405519802_" gradientUnits="userSpaceOnUse" x1="28.6114" y1="21.2385" x2="53.8411" y2="21.2385">
		<stop  offset="0" style="stop-color:#2352A3"/>
		<stop  offset="1" style="stop-color:#28ADE3"/>
	</linearGradient>
	<path style="fill:url(#SVGID_00000098178547553827563940000001142946354405519802_);" d="M32.5,30.6c0.3-1.6,0.6-3.3,0.9-5.1
		c0.1-0.5,0-0.9-0.4-1.3c-1.2-1.1-2.3-2.2-3.4-3.3c-0.8-0.8-1.2-1.6-0.9-2.7c0.3-1.1,1.2-1.5,2.2-1.7c1.6-0.2,3.2-0.5,4.9-0.7
		c0.5-0.1,0.7-0.2,1-0.7c0.7-1.5,1.4-2.9,2.2-4.4c0.5-1,1.2-1.6,2.3-1.6c1.1,0,1.8,0.6,2.3,1.6c0.7,1.5,1.5,3,2.2,4.5
		c0.2,0.4,0.4,0.5,0.8,0.6c1.7,0.2,3.4,0.5,5.1,0.7c1,0.1,1.8,0.7,2.1,1.6c0.3,1,0,1.8-0.7,2.6c-1.2,1.2-2.4,2.4-3.6,3.5
		c-0.3,0.3-0.5,0.6-0.4,1.1c0.3,1.6,0.6,3.3,0.9,4.9c0.2,1,0,1.9-0.9,2.6c-0.9,0.7-1.8,0.6-2.7,0.1c-1.5-0.8-3-1.6-4.5-2.4
		c-0.4-0.2-0.7-0.2-1.1,0c-1.6,0.8-3.1,1.7-4.7,2.5C34.3,33.9,32.5,32.7,32.5,30.6z M46.4,29.4c-0.3-1.5-0.4-2.8-0.7-4.1
		c-0.2-1.2,0.1-2.1,1-2.9c1-0.9,1.9-1.9,2.9-2.9c-1.2-0.2-2.4-0.4-3.5-0.5c-1.6-0.1-2.6-0.7-3.1-2.2c-0.2-0.7-0.7-1.4-1-2.1
		c-0.2-0.4-0.3-0.8-0.7-1.2c-0.6,1.3-1.2,2.5-1.8,3.7c-0.5,1-1.2,1.6-2.3,1.7c-1.4,0.2-2.7,0.4-4.2,0.6c0.9,0.9,1.6,1.8,2.5,2.6
		c1.2,1,1.6,2.2,1.2,3.8c-0.3,1.1-0.4,2.3-0.6,3.6c1.4-0.7,2.6-1.3,3.7-2c1-0.6,2-0.6,3,0C43.9,28.1,45.1,28.7,46.4,29.4z"/>
	
		<linearGradient id="SVGID_00000178899115373750933500000013550731499699025553_" gradientUnits="userSpaceOnUse" x1="24.8181" y1="8.8671" x2="33.5143" y2="8.8671">
		<stop  offset="0" style="stop-color:#2352A3"/>
		<stop  offset="1" style="stop-color:#28ADE3"/>
	</linearGradient>
	<path style="fill:url(#SVGID_00000178899115373750933500000013550731499699025553_);" d="M33.5,11.5c0,0.6-0.2,1.1-0.8,1.5
		c-0.5,0.3-1.1,0.3-1.6,0c-0.2-0.2-0.5-0.4-0.7-0.6c-1.6-1.6-3.2-3.2-4.8-4.8c-0.2-0.2-0.4-0.4-0.5-0.6c-0.4-0.7-0.4-1.4,0.2-2
		c0.5-0.5,1.3-0.6,2-0.2c0.2,0.1,0.4,0.3,0.6,0.5c1.6,1.6,3.3,3.3,4.9,4.9C33.1,10.6,33.5,10.9,33.5,11.5z"/>
	
		<linearGradient id="SVGID_00000138566963769683802680000001244205424945324673_" gradientUnits="userSpaceOnUse" x1="48.9388" y1="8.8625" x2="57.6458" y2="8.8625">
		<stop  offset="0" style="stop-color:#2352A3"/>
		<stop  offset="1" style="stop-color:#28ADE3"/>
	</linearGradient>
	<path style="fill:url(#SVGID_00000138566963769683802680000001244205424945324673_);" d="M48.9,11.4c0-0.4,0.3-0.8,0.6-1.1
		c1.7-1.7,3.5-3.5,5.2-5.2c0.8-0.8,1.7-0.8,2.4-0.1c0.7,0.7,0.7,1.6-0.2,2.4c-1.7,1.8-3.5,3.5-5.2,5.2c-0.5,0.5-1.2,0.8-1.9,0.5
		C49.2,12.8,48.9,12.3,48.9,11.4z"/>
	<path d="M50.6,67.9c0,0.9-0.7,1.6-1.6,1.6c-0.9,0-1.6-0.7-1.6-1.6c0-0.8,0.7-1.6,1.6-1.6C49.8,66.3,50.6,67,50.6,67.9z"/>
</g>
</svg>
