<?xml version="1.0" encoding="utf-8"?>
<!-- Generator: Adobe Illustrator 27.7.0, SVG Export Plug-In . SVG Version: 6.00 Build 0)  -->
<svg version="1.1" id="Layer_1" xmlns="http://www.w3.org/2000/svg" xmlns:xlink="http://www.w3.org/1999/xlink" x="0px" y="0px"
	 viewBox="0 0 100.4 103.6" style="enable-background:new 0 0 100.4 103.6;" xml:space="preserve">
<style type="text/css">
	.st0{fill:url(#SVGID_1_);}
	.st1{fill:#FFFFFF;}
	.st2{fill:url(#SVGID_00000009591844004141456250000005433001142073983153_);}
	.st3{fill:url(#SVGID_00000139994211983887256190000007868184605666079923_);}
	.st4{fill:url(#SVGID_00000109019861340912169340000006171784272600591285_);}
	.st5{fill:url(#SVGID_00000159443048973762042970000004006029623234508690_);}
	.st6{fill:url(#SVGID_00000053518026520489476320000010999594188974643588_);}
	.st7{fill:url(#SVGID_00000023979448611511181910000011914921133727967133_);}
	.st8{fill:url(#SVGID_00000044151199366475535430000016291257622879328403_);}
	.st9{fill:#231F20;}
	.st10{fill:url(#SVGID_00000124846570066599452610000015988120988415229847_);}
	.st11{fill:none;}
	.st12{fill:url(#SVGID_00000150804710494393449720000005196043087474344626_);}
	.st13{fill:url(#SVGID_00000128479040597494444720000000358674621475278487_);}
	.st14{fill:url(#SVGID_00000086682712673064398560000013218927250768532618_);}
	.st15{fill:url(#SVGID_00000008141947650651672560000012010357539108773288_);}
	.st16{fill:url(#SVGID_00000158741160702938354530000000551035027860743568_);}
	.st17{fill:url(#SVGID_00000181809156145736302900000010571776983446609325_);}
	.st18{fill:url(#SVGID_00000134939130525956870510000012255345499617462656_);}
	.st19{fill:url(#SVGID_00000133519290475175412060000009316381844959621264_);}
	.st20{fill:url(#SVGID_00000029019403041846584910000010455767385312686259_);}
	.st21{fill:url(#SVGID_00000170245694360995684760000009242827627537599621_);}
	.st22{fill:#064295;}
	.st23{fill:url(#SVGID_00000011709665423919043790000011241602332892493734_);}
	.st24{fill:#010101;}
	.st25{fill:url(#SVGID_00000051344237528955567150000007510919300128065471_);}
	.st26{fill:url(#SVGID_00000083776826580781158660000001393151889838928029_);}
	.st27{fill:#DFDFDF;}
	.st28{fill:url(#SVGID_00000156549008399263107460000004059602421421500807_);}
	.st29{fill:url(#SVGID_00000000218285413552610830000005945789457454699674_);}
	.st30{fill:#696969;}
	.st31{fill:url(#SVGID_00000048479914113706195620000014508912083313980089_);}
	.st32{fill:#F2F2F2;}
	.st33{fill:#D6D6D6;}
	.st34{fill:#E4E4E4;}
	.st35{fill:#DDDDDD;}
	.st36{fill:url(#SVGID_00000001661675656536161320000016890873265194954369_);}
	.st37{fill:url(#SVGID_00000143583721830993814500000004655556158766400930_);}
	.st38{fill:url(#SVGID_00000031888616450920848330000001747010428319437480_);}
	.st39{fill:url(#SVGID_00000119825412406941200840000009324791511431407528_);}
	.st40{fill:url(#SVGID_00000039853539845057466940000012461194487751136922_);}
	.st41{fill:url(#SVGID_00000021808485663743340760000005905612814153856428_);}
	.st42{fill:url(#SVGID_00000127038820588130278170000007820929748209307546_);}
	.st43{fill:url(#SVGID_00000069368914646289454010000005681355517784405173_);}
	.st44{fill:url(#SVGID_00000150806929628991021630000000965265302524621748_);}
	.st45{fill:url(#SVGID_00000126283918360050986750000002197013596237088421_);}
	.st46{fill:url(#SVGID_00000181779306713315349420000015672038091384685483_);}
	.st47{fill:url(#SVGID_00000021116659017014804580000012290025745944733590_);}
	.st48{fill:url(#SVGID_00000047757627095671253270000001077351431117611436_);}
	.st49{fill:url(#SVGID_00000049220669851039221060000017683507277169545661_);}
	.st50{fill:url(#SVGID_00000165924188328891515480000009421886866666300086_);}
	.st51{fill:url(#SVGID_00000132805064533271396710000006475571431100571016_);}
	.st52{fill:url(#SVGID_00000040545969823947620050000001667888304864877961_);}
	.st53{fill:url(#SVGID_00000181769138783624859460000001793371848028807604_);}
	.st54{fill:url(#SVGID_00000144298964725441155780000007936889643754641806_);}
	.st55{fill:url(#SVGID_00000092423275992951344850000003929062361076323485_);}
	.st56{fill:url(#SVGID_00000022552854885185518610000005389364425255463847_);}
	.st57{fill:url(#SVGID_00000029741167162473910620000016505353570111336848_);}
	.st58{fill:url(#SVGID_00000077296383851424029140000012503077112722790314_);}
	.st59{fill:url(#SVGID_00000114033843611370103370000016272569203710418864_);}
	.st60{fill:#989898;}
	.st61{fill:url(#SVGID_00000109731830853613847520000000011141521651623831_);}
	.st62{fill:url(#SVGID_00000096034986157149299430000006499735523704221605_);}
	.st63{fill:url(#SVGID_00000026861871512213951420000018416273634173784497_);}
	.st64{fill:url(#SVGID_00000096754480875506253990000001243316248825040011_);}
	.st65{fill:url(#SVGID_00000173862053762116665360000016382994155257704332_);}
	.st66{fill:url(#SVGID_00000168824376910341177020000017714261763984423090_);}
	.st67{fill:url(#SVGID_00000073712480344835169750000000569807037343143569_);}
</style>
<g>
	<path d="M38.9,103.6c-1.8-0.5-3.5-1.4-4.2-3.2c-0.6-1.5-1.2-1.9-2.8-2c-2.6-0.1-4.3-1.8-5-4.3c-0.2-0.5-0.3-0.7-0.9-0.6
		c-4.3,0.6-7.7-3.2-6.6-7.4c0.2-0.7,0.1-0.9-0.6-1.1c-4-1.6-5.1-6.5-2.2-9.7c0.9-1,1.9-2,2.9-2.9c0.3-0.3,0.5-0.5,0.4-1
		c-0.3-1-0.2-2-0.1-3c0.1-1.2-0.2-2.2-1.1-3c-0.8-0.7-1.6-1.5-2.3-2.3c-0.5-0.6-0.8-0.5-1.2,0c-0.4,0.5-0.9,0.9-1.4,1.4
		c-1.3,1.2-3.1,1.2-4.4,0c-2.9-2.8-5.7-5.6-8.4-8.4c-1.3-1.4-1.2-3.2,0.2-4.7c4-4,8-8,12-12c3.1-3.1,6.1-6.2,9.2-9.2
		c1.8-1.8,3.5-1.8,5.3,0c2.6,2.5,5.1,5.1,7.7,7.7c1.7,1.7,1.7,3.5,0,5.1c-1.7,1.8-1.7,1.8,0.1,3.5c0.9,0.8,2,1.2,3.2,0.9
		c3-0.7,6.1-1.2,9.2-0.1c0.3,0.1,0.6,0,0.9-0.1c2.9-1.3,5.9-1.5,9-0.7c1.3,0.3,2.6,0.6,3.9,0.9c1.5,0.4,2.6,0,3.7-1.1
		c1.5-1.5,1.5-1.5,0.1-2.9c-2-2-2-3.6,0-5.6c2.5-2.5,4.9-4.9,7.4-7.4c1.8-1.8,3.5-1.8,5.3,0c7.1,7.1,14.1,14.1,21.2,21.2
		c1.7,1.7,1.7,3.5,0,5.2c-2.5,2.6-5.1,5.1-7.7,7.7c-1.7,1.7-3.5,1.7-5.2,0c-1.6-1.6-1.6-1.6-3.2,0c-0.5,0.5-0.9,0.9-1.4,1.4
		c-0.8,0.8-1.1,1.7-1,2.8c0.3,2.6-0.2,5.1-1.8,7.3c-0.4,0.6,0,0.8,0.3,1.1c2.5,2.8,2.3,6.8-0.6,9.2c-1.3,1-2.7,1.5-4.3,1.4
		c-0.5,0-0.8,0-0.9,0.6c-0.8,3.7-3.2,5.4-6.9,5c-0.6-0.1-0.8,0-1,0.7c-1,3.7-4.6,5.5-8.2,4.2c-0.6-0.2-0.8-0.2-1.1,0.5
		c-1.6,4-6.4,5.3-9.8,2.5c-0.5-0.4-0.7-0.4-1.1,0c-1.1,1.3-2.5,2.3-4.2,2.9C40.4,103.6,39.6,103.6,38.9,103.6z M44.7,49.8
		c-1.3-0.2-2.4,0-3.6,0.2c-0.6,0.1-1.2,0.2-1.8,0.4c-2.5,0.5-4.6-0.2-6.4-2c-1.5-1.5-1.5-1.5-3.1,0c-3.3,3.3-6.6,6.6-9.9,9.9
		c-0.6,0.6-1.6,1.2-1.6,1.8c-0.1,0.7,1,1.3,1.6,1.8c2.2,1.9,3.5,4.2,3,7.3c0,0,0.1,0.1,0.1,0.2c4.1-1,6.7,0.4,8,4.3
		c0.2,0.5,0.4,0.5,0.8,0.5c4.5-0.3,7.4,3.1,6.5,7.6c-0.1,0.4,0,0.6,0.4,0.8c3,1.2,4.2,3.2,4,6.5c0,0.4,0,0.6,0.4,0.7
		c3.5,1.2,5,3.4,4.5,7c0,0.3-0.1,0.5,0.1,0.8c0.8,0.9,1.8,1.5,3,1.2c1.1-0.2,2-0.9,2.3-2c0.4-1.2,0.1-2.2-0.7-3.1
		c-1.7-1.7-3.4-3.4-5.1-5.2c-0.3-0.3-0.7-0.6-0.8-1c-0.2-0.8,0-1.4,0.7-1.8c0.8-0.5,1.5-0.3,2.1,0.3c2.3,2.3,4.7,4.7,7,7
		c0.4,0.4,0.7,0.7,1.1,1.1c1.3,1.1,3.1,1,4.2-0.3c1.1-1.2,0.9-3-0.3-4.2c-2.2-2-4.4-4.1-6.6-6.1c-0.6-0.6-1.3-1.2-1.9-1.8
		c-0.6-0.7-0.6-1.4,0-2.1c0.6-0.7,1.4-0.7,2.1-0.2c0.3,0.2,0.5,0.4,0.7,0.6c3.1,2.8,6.1,5.7,9.2,8.5c1.6,1.5,3.2,1.6,4.4,0.4
		c1.4-1.4,1.3-3.3-0.3-4.8c-0.9-0.9-1.8-1.8-2.7-2.7c-1.7-1.7-3.4-3.4-5.1-5.1c-0.9-1-0.8-2.3,0.3-2.8c0.8-0.3,1.4,0,2,0.5
		c2.5,2.5,4.9,5,7.4,7.5c0.6,0.6,1.3,1.3,2,1.8c0.7,0.4,1.4,0.7,2.2,0.5c1.1-0.2,1.9-0.9,2.3-2c0.4-1.2,0.1-2.2-0.7-3.1
		c-1.4-1.4-2.8-2.8-4.1-4.2c-5.4-5.4-10.8-10.8-16.1-16.2c-0.6-0.6-1-0.7-1.6-0.1c-0.6,0.6-1.2,1.1-1.9,1.5
		c-0.5,0.4-0.6,0.7-0.4,1.3c1.1,3.9-0.6,7.8-4.1,9.7c-2.2,1.2-4,0.7-5.1-1.6c-1.3-2.6-2.6-5.2-3.9-7.8c-1.6-3.2-1.3-5.3,1.2-7.8
		C42,52.5,43.3,51.3,44.7,49.8z M48.8,60.1c0-0.8,0.4-1.2,0.8-1.6c1.5-1.2,3.1-2.4,4.6-3.7c1.6-1.3,2-1.2,3.5,0.2
		c6,6,11.9,11.9,17.9,17.9c0.8,0.8,0.8,0.8,1.3-0.3c0.6-1.3,0.7-2.7,0.6-4.1c-0.2-2,0.4-3.8,1.8-5.3c0.7-0.8,1.4-1.5,2.2-2.2
		c0.7-0.6,0.8-1,0-1.7c-3.7-3.7-7.4-7.4-11.1-11.1c-1.4-1.4-1.5-1.5-2.9,0c-1.9,2-4.2,2.6-6.9,2c-1.4-0.4-2.9-0.7-4.3-1
		c-3.5-0.8-6.5,0.1-9,2.5c-1.6,1.5-3.1,3.1-4.7,4.6c-1.1,1.1-1.2,1.9-0.5,3.3c1.3,2.6,2.7,5.3,4,7.9c0.3,0.7,0.6,0.6,1.1,0.3
		c2.1-1.3,2.9-3.9,2.1-6.3C49.2,61.1,49,60.5,48.8,60.1z M33.3,40.4c-0.1-0.2-0.3-0.3-0.4-0.5c-2.5-2.5-4.9-4.9-7.3-7.4
		c-0.4-0.4-0.6-0.3-1,0.1c-6.9,6.9-13.9,13.9-20.8,20.8c-0.4,0.4-0.5,0.6,0,1c2.5,2.4,4.9,4.8,7.3,7.3c0.3,0.3,0.6,0.4,1,0
		c6.9-7,13.9-13.9,20.9-20.9C33,40.7,33.1,40.5,33.3,40.4z M88.9,62.1c0.2-0.2,0.4-0.3,0.5-0.5c2.4-2.4,4.8-4.8,7.2-7.2
		c0.4-0.4,0.5-0.6,0-1c-7-6.9-13.9-13.9-20.8-20.8c-0.4-0.4-0.6-0.4-1,0c-2.4,2.4-4.8,4.8-7.2,7.2c-0.4,0.4-0.5,0.6,0,1
		c7,6.9,13.9,13.9,20.8,20.8C88.5,61.8,88.7,61.9,88.9,62.1z M32.6,77.4c-0.8,0-1.5,0.3-2,0.8c-2.5,2.5-5,4.9-7.4,7.4
		c-0.7,0.7-1,1.5-0.8,2.5c0.2,1,0.8,1.7,1.8,2.1c1.1,0.4,2.1,0.1,2.9-0.7c1.5-1.4,2.9-2.9,4.4-4.4c1-1,2.1-2.1,3.1-3.2
		c0.8-0.9,1-1.9,0.5-3C34.6,78,33.8,77.4,32.6,77.4z M21.1,82.2c0.3,0,0.9-0.1,1.3-0.5c1.8-1.6,3.5-3.2,5-5c0.9-1,0.7-2.6-0.3-3.5
		c-0.9-1-2.6-1.2-3.6-0.3c-1.7,1.6-3.3,3.2-4.9,4.9c-0.7,0.8-0.7,1.9-0.2,2.9C19,81.7,19.8,82.2,21.1,82.2z M36.9,85.6
		c-0.7,0-1.3,0.2-1.8,0.6c-1.6,1.5-3.1,3-4.6,4.6c-1,1.1-0.8,2.6,0.2,3.7c1,1,2.6,1.2,3.7,0.2c1.6-1.5,3.2-3.1,4.7-4.7
		c0.8-0.8,0.8-1.9,0.3-2.9C38.8,86.1,38,85.6,36.9,85.6z M44.6,95.6c0-1.1-0.5-1.9-1.5-2.4c-1-0.5-2-0.5-2.9,0.2
		c-0.9,0.8-1.8,1.6-2.6,2.6c-0.7,0.8-0.7,1.9-0.2,2.9c0.5,1,1.4,1.5,2.5,1.5C41.7,100.3,44.7,97.3,44.6,95.6z"/>
	<linearGradient id="SVGID_1_" gradientUnits="userSpaceOnUse" x1="31.8081" y1="18.6463" x2="69.0983" y2="18.6463">
		<stop  offset="0" style="stop-color:#2352A3"/>
		<stop  offset="1" style="stop-color:#28ADE3"/>
	</linearGradient>
	<path class="st0" d="M69.1,18.6c0,10.3-8.3,18.6-18.6,18.7c-10.3,0-18.7-8.3-18.7-18.6C31.8,8.4,40.2,0,50.4,0
		C60.7,0,69.1,8.3,69.1,18.6z M50.5,15.4c-1.2,0-2.5,0-3.7,0c-0.8,0-1.1,0.2-1.1,1c-0.1,1.9,0,3.8,0.1,5.8c0,0.6,0.4,0.6,0.8,0.6
		c2.6,0,5.2,0,7.8,0c0.7,0,0.9-0.3,0.9-0.9c0.1-1.9,0.1-3.8,0-5.8c0-0.5-0.2-0.7-0.7-0.7C53.2,15.4,51.8,15.4,50.5,15.4z M50.4,12.2
		c1.2,0,2.4-0.1,3.5,0c0.8,0.1,0.9-0.3,0.7-0.9c-0.4-1.8-0.8-3.5-1.6-5.2c-0.4-0.8-0.8-1.6-1.5-2.2c-0.8-0.7-1.3-0.7-2.1,0
		c-0.2,0.2-0.5,0.5-0.7,0.8c-1.5,2.1-2.1,4.6-2.6,7.1c-0.1,0.5,0.2,0.5,0.6,0.5C48,12.1,49.2,12.2,50.4,12.2z M58.5,19
		C58.5,19,58.5,19,58.5,19c0,1,0,2-0.1,2.9c0,0.6,0.1,0.8,0.7,0.8c1.9,0,3.7,0,5.6,0c0.5,0,0.7-0.2,0.8-0.7c0.4-2,0.5-4,0.2-6
		c-0.1-0.5-0.3-0.6-0.8-0.6c-1.9,0-3.8,0-5.7,0c-0.5,0-0.7,0.2-0.7,0.7C58.5,17.1,58.5,18,58.5,19z M38.9,15.4c-0.9,0-1.9,0-2.8,0
		c-0.6,0-0.8,0.2-0.8,0.7c-0.3,1.9-0.2,3.9,0.2,5.8c0.1,0.6,0.3,0.8,0.9,0.8c1.8,0,3.6,0,5.4,0c0.5,0,0.8-0.1,0.7-0.7
		c-0.2-2-0.2-4-0.1-5.9c0-0.5-0.1-0.7-0.6-0.6C40.9,15.4,39.9,15.4,38.9,15.4z M50.5,25.9c-1.2,0-2.4,0-3.5,0
		c-0.5,0-0.7,0.2-0.6,0.7c0.5,2.2,1.1,4.3,2.4,6.2c1.2,1.7,2.2,1.7,3.4,0c1.3-1.9,1.9-4.1,2.4-6.4c0.1-0.5-0.2-0.5-0.5-0.5
		C52.9,25.9,51.7,25.9,50.5,25.9z M45.1,4.2c-4,1.6-6.8,4.2-8.6,8c2.1,0,3.9,0,5.8,0c0.4,0,0.6-0.2,0.6-0.6
		C43.3,9.1,44,6.7,45.1,4.2z M55.8,4.2c1.2,2.5,1.8,4.9,2.2,7.4c0,0.2,0,0.6,0.4,0.6c2,0,3.9,0,6,0C62.5,8.4,59.8,5.8,55.8,4.2z
		 M45.1,33.1c-1-2.2-1.7-4.4-2-6.6c-0.1-0.5-0.4-0.5-0.8-0.5c-1.5,0-3,0-4.5,0c-0.7,0-0.7,0.2-0.4,0.7c0.9,1.5,2.1,2.8,3.4,3.9
		C42,31.6,43.3,32.5,45.1,33.1z M55.9,32.9c2.6-0.4,7.3-4.4,7.9-7c-1.7,0-3.4,0-5.2,0c-0.4,0-0.7,0-0.8,0.5
		C57.5,28.7,56.9,30.8,55.9,32.9z"/>
</g>
</svg>
