<?xml version="1.0" encoding="utf-8"?>
<!-- Generator: Adobe Illustrator 27.7.0, SVG Export Plug-In . SVG Version: 6.00 Build 0)  -->
<svg version="1.1" id="Layer_1" xmlns="http://www.w3.org/2000/svg" xmlns:xlink="http://www.w3.org/1999/xlink" x="0px" y="0px"
	 viewBox="0 0 80.4 80.4" style="enable-background:new 0 0 80.4 80.4;" xml:space="preserve">
<style type="text/css">
	.st0{fill:url(#SVGID_1_);}
	.st1{fill:#FFFFFF;}
	.st2{fill:url(#SVGID_00000134224738102338883820000004552304962540997515_);}
	.st3{fill:url(#SVGID_00000115480541345422830420000008431908731720599991_);}
	.st4{fill:url(#SVGID_00000111171957361185854180000014133187562938919584_);}
	.st5{fill:url(#SVGID_00000003796915415579869640000011265273123493574053_);}
	.st6{fill:url(#SVGID_00000065762612274506239940000012570298655439516301_);}
	.st7{fill:url(#SVGID_00000161590786138217337700000009492223524161925801_);}
	.st8{fill:url(#SVGID_00000143611126863425570880000015226056794299513739_);}
	.st9{fill:#231F20;}
	.st10{fill:url(#SVGID_00000092457781121197434940000007167910256406175105_);}
	.st11{fill:none;}
	.st12{fill:url(#SVGID_00000109728513052129116930000007012464055867147197_);}
	.st13{fill:url(#SVGID_00000078019622773688803100000004046126478781641624_);}
	.st14{fill:url(#SVGID_00000178894157515896959220000009083541503974989194_);}
	.st15{fill:url(#SVGID_00000160871451924153836940000002420535194392728733_);}
	.st16{fill:url(#SVGID_00000057835500191378070260000012077481998719868294_);}
	.st17{fill:url(#SVGID_00000057133326633592392200000011071593557376745633_);}
	.st18{fill:url(#SVGID_00000146458782228886016610000010723917889622769542_);}
	.st19{fill:url(#SVGID_00000093893381882556099270000004188967591444494477_);}
	.st20{fill:url(#SVGID_00000057851456519896215810000018352617970826658968_);}
	.st21{fill:url(#SVGID_00000031913139807382757030000000544147545370579636_);}
	.st22{fill:#064295;}
	.st23{fill:url(#SVGID_00000177455603588201567500000013240585172748270474_);}
	.st24{fill:#010101;}
	.st25{fill:url(#SVGID_00000072261921866768444100000014669059326195696040_);}
	.st26{fill:url(#SVGID_00000161606756850898427560000017916920669979030696_);}
	.st27{fill:#DFDFDF;}
	.st28{fill:url(#SVGID_00000173852703591651878080000001990508689072034177_);}
	.st29{fill:url(#SVGID_00000172408549928387512790000003325028778740539012_);}
	.st30{fill:#696969;}
	.st31{fill:url(#SVGID_00000027604710630078975070000011702185941376767115_);}
	.st32{fill:#F2F2F2;}
	.st33{fill:#D6D6D6;}
	.st34{fill:#E4E4E4;}
	.st35{fill:#DDDDDD;}
	.st36{fill:url(#SVGID_00000064317481799785383920000009933419175127156665_);}
	.st37{fill:url(#SVGID_00000125561782927160538120000010724102782929087132_);}
	.st38{fill:url(#SVGID_00000125578767805423249800000008559390256465819576_);}
	.st39{fill:url(#SVGID_00000101801244848626604230000015940029411894987915_);}
	.st40{fill:url(#SVGID_00000073714003216694162020000000607170137968614791_);}
	.st41{fill:url(#SVGID_00000101788654265572696880000011656024907051742368_);}
	.st42{fill:url(#SVGID_00000092447527706459398360000001399861800996232090_);}
	.st43{fill:url(#SVGID_00000021838525703560750930000003370054060380110236_);}
	.st44{fill:url(#SVGID_00000042736941308713783270000007997286587233913276_);}
	.st45{fill:url(#SVGID_00000157997872821388944510000013378347110314397371_);}
	.st46{fill:url(#SVGID_00000030448184844062907560000016096354903354615710_);}
	.st47{fill:url(#SVGID_00000165226461512403346130000014915134400135734156_);}
	.st48{fill:url(#SVGID_00000005235185025717233120000012875299181061091752_);}
	.st49{fill:url(#SVGID_00000099645977432069202470000000823880662058472889_);}
	.st50{fill:url(#SVGID_00000066506991324184600580000014966903558622196903_);}
	.st51{fill:url(#SVGID_00000080184260837563794760000001778486193510332048_);}
	.st52{fill:url(#SVGID_00000141452955441921562740000015304216974764049331_);}
	.st53{fill:url(#SVGID_00000116931867584330810430000007453099721375889026_);}
	.st54{fill:url(#SVGID_00000039812021166627456770000006053602035458751112_);}
	.st55{fill:url(#SVGID_00000147198208947445056330000004956753271839340462_);}
	.st56{fill:url(#SVGID_00000122708146157566942200000000759037579009496500_);}
	.st57{fill:url(#SVGID_00000125596715713607647080000007768821720396185758_);}
	.st58{fill:url(#SVGID_00000055687928645107205300000012975290549271598741_);}
	.st59{fill:url(#SVGID_00000144308466095197613510000013712388390733757069_);}
	.st60{fill:#989898;}
	.st61{fill:url(#SVGID_00000181073990210305088960000016322120687625447342_);}
	.st62{fill:url(#SVGID_00000005971824427556234610000004667603185908752061_);}
	.st63{fill:url(#SVGID_00000141434354756208913480000012100340543735726762_);}
	.st64{fill:url(#SVGID_00000013877164429623977210000010547238254659184513_);}
	.st65{fill:url(#SVGID_00000157286170743600275900000013706288037731475387_);}
	.st66{fill:url(#SVGID_00000074423588990420938590000000550768117534430864_);}
	.st67{fill:url(#SVGID_00000090255263108117183250000016080322654973219760_);}
</style>
<g>
	<path d="M69.8,80.4c-1.7-0.4-3.3-0.9-4.7-2.1c-1.1-0.9-2-2.1-3-3.2C53.2,65,44.4,54.8,35.5,44.6c-0.2-0.3-0.4-0.5-0.8-0.2
		c-2.4,1.7-5.2,1.2-6.9-1.3c-0.1-0.1-0.1-0.2-0.3-0.4c-0.5,0.6-1,1.1-1.5,1.6c-0.3,0.3-0.2,0.6-0.2,0.9c0.4,2.8-0.9,5.4-3.3,6.6
		c-2.4,1.2-5.3,0.8-7.3-1.1c-4.5-4.4-9-8.9-13.4-13.4c-2-2-2.3-4.9-1-7.3c1.3-2.4,3.9-3.7,6.7-3.2c0.4,0.1,0.6,0,0.9-0.3
		c6-6.1,12.1-12.1,18.2-18.2c0.3-0.3,0.4-0.5,0.3-1c-0.5-2.7,0.8-5.3,3.2-6.6c2.4-1.3,5.3-0.9,7.3,1c2.7,2.6,5.3,5.3,8,7.9
		c1.8,1.8,3.6,3.6,5.4,5.4c1.8,1.9,2.4,4.1,1.5,6.6c-0.8,2.4-2.7,3.8-5.2,4.2c-0.4,0.1-0.8,0-1.2,0c-0.4,0-0.9-0.3-1.2-0.1
		c-0.6,0.5-1.1,1-1.6,1.6c-0.2,0.2,0,0.3,0.2,0.4c2.5,1.4,3.1,4.9,1.2,7c-0.3,0.4,0,0.5,0.2,0.7c3.3,2.9,6.6,5.8,9.9,8.7
		c4.7,4.1,9.3,8.2,14,12.2c2.6,2.3,5.2,4.7,7.9,6.9c2.1,1.8,3.5,3.9,4,6.6c0,0.7,0,1.5,0,2.2c-0.1,0.2-0.1,0.4-0.2,0.6
		c-0.8,3.5-2.8,5.9-6.1,7.2c-0.7,0.3-1.4,0.4-2,0.6C71.3,80.4,70.5,80.4,69.8,80.4z M24.1,41.8c0.2-0.1,0.3-0.3,0.4-0.4
		c5.6-5.6,11.2-11.2,16.9-16.9c0.4-0.4,0.4-0.6,0-1c-4.1-4.1-8.3-8.2-12.4-12.4c-0.3-0.3-0.5-0.4-0.9,0
		c-5.6,5.7-11.3,11.3-16.9,16.9c-0.3,0.3-0.4,0.5,0,0.8c4.2,4.2,8.4,8.4,12.6,12.6C23.8,41.6,24,41.7,24.1,41.8z M61.4,54.2
		c-0.2-0.1-0.3-0.2-0.5-0.3c-6.2-5.4-12.4-10.8-18.6-16.2c-0.3-0.3-0.5-0.3-0.8,0c-1.3,1.3-2.5,2.6-3.8,3.8c-0.3,0.3-0.3,0.5,0,0.8
		c5.4,6.2,10.8,12.4,16.2,18.6c0.3,0.3,0.4,0.4,0.8,0.1c2.1-2.1,4.2-4.2,6.3-6.3C61.1,54.5,61.2,54.4,61.4,54.2z M77.3,70.7
		c0-1.6-0.7-3.1-2.1-4.4c-2.1-1.8-4.1-3.6-6.2-5.4c-0.4-0.3-0.6-0.3-0.9,0c-2.2,2.2-4.4,4.4-6.6,6.7c-0.9,0.9-0.9,0.9-0.1,1.9
		c1.7,1.9,3.3,3.9,5.1,5.8c1.8,2,4.5,2.5,6.9,1.6C75.7,75.9,77.3,73.5,77.3,70.7z M29.8,6.3c0,1,0.4,1.7,1.1,2.4
		c3.6,3.6,7.2,7.2,10.8,10.8c0.8,0.8,1.6,1.7,2.5,2.4c1,0.9,2.1,1.1,3.3,0.6c1.2-0.5,1.8-1.4,1.9-2.7c0.1-1.1-0.4-1.9-1.1-2.6
		C44,12.9,39.7,8.6,35.4,4.3c-0.2-0.2-0.3-0.3-0.5-0.5c-1-0.8-2.1-0.9-3.3-0.4C30.5,4,29.9,5,29.8,6.3z M6.3,29.8
		c-1.3,0-2.3,0.6-2.9,1.8c-0.6,1.3-0.4,2.5,0.6,3.5C8.5,39.6,13,44,17.4,48.5c1.3,1.3,3.2,1.2,4.4,0c1.2-1.2,1.2-3.1,0-4.4
		c-4.4-4.4-8.9-8.9-13.3-13.3C7.9,30.1,7.2,29.8,6.3,29.8z M30.3,40.5c0,0.9,0.3,1.4,0.9,1.6c0.7,0.3,1.3,0.1,1.8-0.4
		c2.9-2.9,5.9-5.8,8.8-8.8c0.7-0.7,0.7-1.6,0.1-2.2c-0.6-0.6-1.6-0.6-2.3,0.1c-2.9,2.9-5.8,5.8-8.7,8.7
		C30.5,39.8,30.3,40.2,30.3,40.5z M58.4,66c0.2-0.2,0.3-0.3,0.5-0.4c1.9-1.9,3.8-3.8,5.6-5.6c0.5-0.5,1.4-0.9,1.4-1.5
		c0-0.6-0.9-0.9-1.4-1.4c-0.1-0.1-0.2-0.2-0.3-0.3c-0.3-0.3-0.5-0.3-0.8,0c-2.2,2.2-4.5,4.5-6.7,6.7c-0.2,0.2-0.3,0.4-0.1,0.7
		c0.5,0.6,1,1.1,1.5,1.7C58.2,65.9,58.3,65.9,58.4,66z"/>
	<linearGradient id="SVGID_1_" gradientUnits="userSpaceOnUse" x1="0" y1="70.9867" x2="44.0269" y2="70.9867">
		<stop  offset="0" style="stop-color:#2352A3"/>
		<stop  offset="1" style="stop-color:#28ADE3"/>
	</linearGradient>
	<path class="st0" d="M1.1,80.4C0.3,79.9,0,79.2,0,78.3c-0.1-3.3,1-6,3.9-7.8c0.5-0.3,0.1-0.5,0-0.8c-1.7-3.1-0.2-6.9,3.2-7.9
		c0.6-0.2,1.2-0.2,1.9-0.2c8.7,0,17.5,0,26.2,0c4.5,0,7.1,4.3,5,8.3c-0.2,0.4-0.2,0.5,0.2,0.7c3.1,2,4,4.9,3.7,8.4
		c-0.1,0.7-0.6,1.1-1.1,1.4C29,80.4,15.1,80.4,1.1,80.4z M22,77.3c6,0,12.1,0,18.1,0c0.7,0,0.8-0.2,0.7-0.8
		c-0.5-2.3-2.3-3.9-4.7-3.9c-9.4,0-18.8,0-28.2,0c-2.3,0-4.2,1.6-4.7,3.9c-0.1,0.7,0,0.8,0.7,0.8C10,77.3,16,77.3,22,77.3z
		 M22.1,64.7c-0.7,0-1.4,0-2.1,0c-3.7,0-7.5,0-11.2,0c-1.3,0-2.3,0.9-2.4,2.1C6.2,68,7,69.1,8.2,69.4c0.3,0.1,0.6,0.1,0.9,0.1
		c8.6,0,17.3,0,25.9,0c0.2,0,0.4,0,0.6,0c1-0.1,1.7-0.6,2-1.5c0.6-1.6-0.6-3.2-2.4-3.2C30.8,64.7,26.5,64.7,22.1,64.7z"/>
	<path d="M30.1,17.6c0,0.3-0.2,0.7-0.6,1.1c-2.1,2.1-4.2,4.3-6.4,6.4c-0.8,0.8-1.7,0.8-2.4,0.1c-0.7-0.7-0.6-1.6,0.1-2.4
		c2.1-2.1,4.3-4.3,6.4-6.4c0.5-0.5,1.1-0.7,1.9-0.4C29.7,16.2,30.1,16.7,30.1,17.6z"/>
	<path d="M17.4,30c-0.9,0-1.5-0.7-1.5-1.5c0-0.9,0.7-1.6,1.5-1.6c0.9,0,1.6,0.7,1.6,1.6C19,29.4,18.3,30,17.4,30z"/>
</g>
</svg>
