<?xml version="1.0" encoding="utf-8"?>
<!-- Generator: Adobe Illustrator 27.7.0, SVG Export Plug-In . SVG Version: 6.00 Build 0)  -->
<svg version="1.1" id="Layer_1" xmlns="http://www.w3.org/2000/svg" xmlns:xlink="http://www.w3.org/1999/xlink" x="0px" y="0px"
	 viewBox="0 0 82.8 82.9" style="enable-background:new 0 0 82.8 82.9;" xml:space="preserve">
<style type="text/css">
	.st0{fill:url(#SVGID_1_);}
	.st1{fill:#FFFFFF;}
	.st2{fill:url(#SVGID_00000053508898599028977890000002522323584794117297_);}
	.st3{fill:url(#SVGID_00000016765950664556459690000001738695920629574788_);}
	.st4{fill:url(#SVGID_00000079452156137968039250000006463286372416382592_);}
	.st5{fill:url(#SVGID_00000165944501882195820500000014973285759820759198_);}
	.st6{fill:url(#SVGID_00000103250834426167464250000016098462986717701561_);}
	.st7{fill:url(#SVGID_00000065785233489971151920000012179019848531718547_);}
	.st8{fill:url(#SVGID_00000021097146786429983780000011366252661559329702_);}
	.st9{fill:#231F20;}
	.st10{fill:url(#SVGID_00000093875648243019516840000015715940798699499961_);}
	.st11{fill:none;}
	.st12{fill:url(#SVGID_00000034057099585639447450000015552265031277504145_);}
	.st13{fill:url(#SVGID_00000164482147254684055410000015305360900850060221_);}
	.st14{fill:url(#SVGID_00000117647853913205824550000001107183579798439856_);}
	.st15{fill:url(#SVGID_00000147181410880978033660000005490030095622520969_);}
	.st16{fill:url(#SVGID_00000008127684369071074690000013130538312098948513_);}
	.st17{fill:url(#SVGID_00000083793955227561098670000003076972450580069541_);}
	.st18{fill:url(#SVGID_00000158724625926104855480000013171547766721994373_);}
	.st19{fill:url(#SVGID_00000170265069789946042730000015573429788904683710_);}
	.st20{fill:url(#SVGID_00000127013723366417517260000016769591146159053233_);}
	.st21{fill:url(#SVGID_00000032635863024201858150000000484596456556058758_);}
	.st22{fill:#064295;}
	.st23{fill:url(#SVGID_00000096766489478009781550000016387816033387647363_);}
	.st24{fill:#010101;}
	.st25{fill:url(#SVGID_00000026842875367660352550000018251654786857221563_);}
	.st26{fill:url(#SVGID_00000106123902522712178680000010423740839534610600_);}
	.st27{fill:#DFDFDF;}
	.st28{fill:url(#SVGID_00000144310002356430494000000001857087156649571500_);}
	.st29{fill:url(#SVGID_00000094581917802780409920000002754700247969372836_);}
	.st30{fill:#696969;}
	.st31{fill:url(#SVGID_00000071551791297579266630000001464478593294419898_);}
	.st32{fill:#F2F2F2;}
	.st33{fill:#D6D6D6;}
	.st34{fill:#E4E4E4;}
	.st35{fill:#DDDDDD;}
	.st36{fill:url(#SVGID_00000101792721616685050880000015939854692919014041_);}
	.st37{fill:url(#SVGID_00000085948535846316060130000014744681395316869812_);}
	.st38{fill:url(#SVGID_00000169538306718376107090000016072602833924479396_);}
	.st39{fill:url(#SVGID_00000140729090367458471880000012091676307672782521_);}
	.st40{fill:url(#SVGID_00000000903119839103079090000013458779274232127419_);}
	.st41{fill:url(#SVGID_00000028321120230827980730000006933199622726971569_);}
	.st42{fill:url(#SVGID_00000111870278545836152130000005287098981289671609_);}
	.st43{fill:url(#SVGID_00000080899213695794866670000016417484103094391477_);}
	.st44{fill:url(#SVGID_00000035527969040319921040000003258817228753070764_);}
	.st45{fill:url(#SVGID_00000151538530408385230530000017360584273055012776_);}
	.st46{fill:url(#SVGID_00000062875050726595364310000017871780638626406330_);}
	.st47{fill:url(#SVGID_00000109000097979939744400000013987522843592077742_);}
	.st48{fill:url(#SVGID_00000086662325264305570390000017008967865009070230_);}
	.st49{fill:url(#SVGID_00000129171551015675877460000018408217381909662905_);}
	.st50{fill:url(#SVGID_00000061466269865724538480000010593780797048438919_);}
	.st51{fill:url(#SVGID_00000038411398391771364990000003092732611812347837_);}
	.st52{fill:url(#SVGID_00000150089035229869269690000012825247179625659788_);}
	.st53{fill:url(#SVGID_00000159438475353033287440000009363943747496566174_);}
	.st54{fill:url(#SVGID_00000095308479829017331690000010773640818612288652_);}
	.st55{fill:url(#SVGID_00000062150286309641924470000006299141498503138710_);}
	.st56{fill:url(#SVGID_00000052789204474368861580000016289345160426373513_);}
	.st57{fill:url(#SVGID_00000036234292692593705750000001866454212428199867_);}
	.st58{fill:url(#SVGID_00000122707775631396566120000009407605770832228017_);}
	.st59{fill:url(#SVGID_00000016053422367690719250000001059626504434266251_);}
	.st60{fill:#989898;}
	.st61{fill:url(#SVGID_00000030481274585843908470000015753644682610490753_);}
	.st62{fill:url(#SVGID_00000026136856023599437770000001707961613568240548_);}
	.st63{fill:url(#SVGID_00000031928273038398168910000015046068617184792710_);}
	.st64{fill:url(#SVGID_00000147216321115360552840000008590014099829030059_);}
	.st65{fill:url(#SVGID_00000088106939878753941870000001551890639879070864_);}
	.st66{fill:url(#SVGID_00000115503668374726193590000016081624627916124550_);}
	.st67{fill:url(#SVGID_00000120558507101683742400000000541891090170125222_);}
</style>
<g>
	<path d="M0,62.5c0.5-0.6,1.2-0.7,1.9-0.7c2,0,3.9-0.1,5.9,0c1.4,0.1,2.3-0.5,3.3-1.2c1.3-0.9,2.6-1.6,4-2.4
		c0.6-0.4,1.2-0.1,1.5,0.4c0.4,0.5,0.4,1.2-0.2,1.6c-1,0.7-2.1,1.3-3.1,1.9c-0.8,0.5-1.6,1.1-2.5,1.7c-0.4,0.2-0.9,0.4-1.3,0.4
		c-2.4,0-4.7,0-7.1,0c0,4.6,0,9.1,0,13.6c1.2,0,2.3,0,3.5,0c2.6,0.1,5.1,0.3,7.7,0.4c1.6,0.1,3.2,0.2,4.9,0.3c2,0.2,4.1,0.4,6.1,0.6
		c1.5,0.1,3,0.2,4.5,0.3c2.1,0.2,4.3,0.5,6.4,0.6c1.9,0.1,3.8,0.1,5.7,0c3.7-0.2,7.2-1.4,10.5-3.1c3.7-1.8,7.4-3.8,11-5.7
		c0.3-0.2,0.7-0.2,1.1-0.3c0.7-0.1,1.1,0.4,1.1,0.9c0,0.4-0.3,1-0.6,1.2c-1.5,0.9-3.1,1.8-4.7,2.6c-2.4,1.2-4.7,2.5-7.1,3.6
		c-2.8,1.3-5.7,2.4-8.8,2.9c-0.7,0.1-1.4,0.3-2.2,0.5c-1.6,0-3.2,0-4.9,0c-0.5-0.1-1-0.1-1.4-0.2c-2.3-0.2-4.5-0.4-6.8-0.6
		c-0.8-0.1-1.6-0.1-2.4-0.2c-2.2-0.2-4.5-0.4-6.7-0.6c-1.4-0.1-2.8-0.2-4.1-0.3c-2.2-0.2-4.4-0.5-6.6-0.6c-2.4-0.1-4.8,0-7.2,0
		c-0.6,0-1.1-0.1-1.5-0.7C0,74,0,68.3,0,62.5z"/>
	<path class="st24" d="M59.1,25.3c0,3.9,0,7.7,0,11.6c0,1.3,0,2.7,0,4.2c1,0,1.9,0,2.8,0c0.8,0,1.7,0.2,2.4-0.1
		c0.6-0.3,0.8-1.2,1.2-1.8c1.2-1.9,3.5-2.6,5.4-2.3c2.8,0.5,4.3,2.7,4.7,4.6c0.6,3.4-2.4,6.5-5.6,6.5c-2.1,0-4.6-1.8-5.1-3.7
		c-0.1-0.5-0.3-0.6-0.8-0.6c-1.4,0-2.8-0.1-4.2,0c-1.8,0.1-3.2-1.3-3.2-3.2c0.1-4.7,0-9.5,0-14.2c0-0.3,0-0.6,0-0.9
		c-2.4,0-4.7,0-7.1,0c0,0-0.1,0.1-0.1,0.1c-0.6,2.6-2.8,2.3-4.5,2.6c-0.7,1.6-1.3,3.2-2.1,5c0.7,1.1,2.1,2.1,1.8,3.9
		c-0.2,1.3-1.3,2-2.2,2.8c-1.6,1.4-2.5,1.2-5.2-1c-1.7,0.7-3.3,1.4-5,2.1c-0.1,0.8-0.1,1.7-0.4,2.5c-0.3,1.3-1.1,1.8-2.5,1.9
		c-0.8,0.1-1.6,0-2.3,0c-1.1,0-2.2-1-2.4-2.2c-0.1-0.8-0.2-1.6-0.3-2.4c-0.9-0.3-1.7-0.5-2.6-0.8c-0.8-0.3-1.6-0.8-2.3-1.2
		c-0.7,0.5-1.3,1-2,1.4c-1.2,0.8-2.2,0.7-3.2-0.3c-0.4-0.4-0.8-0.8-1.2-1.2c-1.6-1.4-1.6-2.6-0.3-4.2c0.8-1,1-1.7,0.3-2.9
		c-0.6-1-1-2.2-1.4-3.3c-0.8-0.1-1.5-0.3-2.3-0.4c-1.6-0.2-2.2-1.5-2.3-2.8c0-0.9,0-1.8,0.2-2.6c0.1-0.6,0.8-1.6,1.6-1.7
		c0.8-0.1,1.6-0.3,2.5-0.5c0.2-0.1,0.5-0.3,0.6-0.5c0.5-1.3,1-2.6,1.6-3.8c0.2-0.4,0.2-0.7-0.1-1c-0.5-0.6-0.9-1.2-1.3-1.9
		c-0.6-1-0.4-1.9,0.3-2.7c0.5-0.5,1-0.9,1.4-1.4c1.2-1.5,2.7-1.3,4-0.2c0.5,0.4,1,0.8,1.3,1c1.6-0.6,3.1-1.2,4.5-1.7
		c0.6-0.2,0.5-0.8,0.6-1.2c0.2-0.6,0.2-1.2,0.3-1.8C25,3.6,25.8,3,26.9,3c0.9,0,1.8,0,2.8,0c1.2,0,2.1,1,2.2,2.1
		c0.1,0.7,0.2,1.5,0.3,2.2c0,0.1,0.3,0.3,0.4,0.4c1.5,0.6,3,1.1,4.5,1.7c0.8-0.5,1.8-1.1,2.7-1.6c0.8-0.4,1.6-0.1,2.3,0.5
		c0.6,0.6,1.2,1.3,1.9,1.8c0.8,0.6,0.8,2.3,0.3,3c-0.3,0.4-0.5,0.7-0.8,1.1c-0.3,0.3-0.5,0.7-0.7,0.9c0.6,1.7,1.2,3.3,1.8,4.9
		c0.1,0.2,0.3,0.3,0.6,0.3c0.7,0.1,1.4,0.2,2.1,0.3c1.1,0.2,1.6,0.7,1.9,1.8c0,0.2,0.3,0.4,0.5,0.4c2.3,0,4.5,0,6.9,0
		c0-0.4,0-0.6,0-0.9c0-4.7,0.1-9.4,0-14.2c0-2.1,1.3-3.4,3.3-3.3c1.4,0.1,2.8,0,4.2,0c0.2,0,0.6-0.2,0.7-0.5
		c0.8-2.2,2.3-3.4,4.6-3.9C72-0.4,75,1.9,75.5,4.6c0.3,1.8-0.2,3.5-1.4,4.7c-1.8,1.9-4.5,2.6-7.1,0.9c-1.1-0.7-1.8-1.7-2.2-2.9
		c-0.1-0.2-0.3-0.5-0.5-0.5c-1.7,0-3.4,0-5.1,0c0,5.3,0,10.6,0,15.9c1.7,0,3.4,0,5.2,0c0.2,0,0.4-0.3,0.5-0.5
		c0.6-1.9,1.9-3.3,3.8-3.6c3-0.6,6.3,0.7,6.9,4.5c0.6,3.6-2,6-4.8,6.4c-2.6,0.4-4.9-1.1-5.9-3.7c-0.1-0.1-0.1-0.3-0.2-0.4
		c0,0-0.1-0.1-0.1-0.1c-1.7,0-3.4,0-5.2,0C59.2,25.2,59.1,25.3,59.1,25.3z M14.2,11.6c0.6,0.9,1.2,1.7,1.8,2.5
		c0.6,0.7,0.5,1.3,0.1,2c-1,1.5-1.7,3.2-2.1,5.1c-0.1,0.7-0.5,1.1-1.3,1.2c-1,0.1-2,0.3-3,0.5c0,0.9,0,1.7,0,2.5
		c0.6,0.1,1.2,0.2,1.7,0.2c1.5,0.1,2.5,0.4,2.9,2.3c0.3,1.5,1.2,2.9,1.9,4.3c0.3,0.7,0.4,1.1-0.1,1.7c-0.6,0.8-1.2,1.7-1.9,2.6
		c0.4,0.4,0.8,0.9,1.3,1.2c0.2,0.1,0.7,0.2,0.9,0c0.7-0.4,1.3-0.9,1.9-1.4c0.6-0.4,1.2-0.5,1.8-0.2c1.7,1.1,3.5,1.9,5.5,2.2
		c0.6,0.1,0.8,0.4,0.9,1c0.2,1.1,0.3,2.2,0.5,3.3c0.8,0,1.6,0,2.4,0c0.2-1,0.4-2,0.5-3c0.1-0.8,0.5-1.4,1.3-1.5
		c1.8-0.2,3.3-1,4.7-1.9c0.8-0.5,1.5-0.5,2.2,0.1c0.6,0.4,1.2,0.9,1.8,1.3c0.2,0.1,0.7,0.1,0.9-0.1c0.5-0.3,0.9-0.8,1.3-1.2
		c-0.6-0.8-1.2-1.6-1.8-2.4c-0.5-0.6-0.6-1.2-0.2-1.9c1.1-1.6,1.8-3.3,2.2-5.2c0.2-0.8,0.7-1.1,1.4-1.2c1-0.1,2-0.3,3-0.5
		c0-0.9,0-1.6,0-2.4c-1-0.1-2-0.2-2.9-0.4c-0.8-0.1-1.4-0.5-1.5-1.4c-0.3-1.9-1.1-3.6-2.2-5.2c-0.3-0.4-0.4-0.9,0-1.4
		c0.7-0.9,1.3-1.8,2-2.8c-0.4-0.4-0.9-0.8-1.2-1.2c-0.4-0.5-0.7-0.4-1.1-0.1c-0.6,0.4-1.3,0.8-1.8,1.4c-0.7,0.6-1.3,0.6-2,0.1
		c-1.4-1-2.9-1.6-4.5-1.9c-1-0.2-1.8-0.6-1.7-1.8c0-0.3-0.1-0.6-0.1-0.8c-0.1-1.8-0.1-1.8-1.9-1.8c-0.3,0-0.5,0-0.8,0
		c-0.1,0.8-0.3,1.5-0.3,2.3c-0.1,1.6-0.5,2-2,2.2c-0.3,0.1-0.6,0.1-0.8,0.2c-1.3,0.6-2.5,1.2-3.8,1.8c-0.6,0.3-1.1,0.3-1.6-0.1
		c-0.7-0.6-1.4-1.1-2.1-1.6c-0.2-0.1-0.6-0.1-0.8,0.1C15.1,10.7,14.7,11.1,14.2,11.6z M69.9,20.9c-1.9-0.1-3,1.5-3.1,3.1
		c0,1.7,1.5,3.1,3.2,3.1c2,0,3.1-1.4,3.1-3.2C73.2,22.3,71.7,20.7,69.9,20.9z M66.9,5.6c0.2,2,1.3,3.2,3.1,3.2
		c1.8,0,3.1-1.3,3.2-3.1c0.1-1.9-1.3-3-3.5-3C68.1,2.6,66.9,4,66.9,5.6z M70,45.4c1.7,0.1,3.1-1.3,3.1-3.1c0-1.7-1.2-3-3.3-3.1
		c-1.7-0.1-3,1.7-3,3C66.9,43.9,68.3,45.6,70,45.4z"/>
	<path class="st24" d="M59.2,52c4.1-2.7,7.4-1.7,8.3,2.2c1.1-0.5,2.1-1.2,3.3-1.6c2.4-0.7,5,0.3,5.5,2.9c0,0.2,0.2,0.4,0.2,0.6
		c1.7-0.3,3.4-0.3,4.8,0.9c2.3,2,1.9,6.1-0.9,7.5c-3,1.5-5.9,3.2-8.9,4.8c-1,0.5-1.9,1.1-2.9,1.6c-0.7,0.4-1.1,0-1.5-0.4
		c-0.4-0.5-0.4-1.1,0.1-1.5c0.6-0.5,1.3-0.8,1.9-1.2c3.2-1.8,6.4-3.5,9.7-5.3c1.4-0.8,1.8-1.9,1.3-3.1c-0.5-1.2-2-1.5-2.9-1
		c-2.5,1.3-5,2.6-7.4,4c-4.3,2.5-8.6,4.8-13.5,6c-2.2,0.5-4.5,0.8-6.7,1c-1.7,0.2-3.4,0.2-5.1,0.2c-1.8-0.1-3.5-0.4-5.3-0.6
		c-1.1-0.1-2.2-0.2-3.3-0.3c-1-0.1-2-0.2-2.9-0.4c-0.6-0.1-1.2-0.5-1.1-1.2c0.1-0.7,0.4-1.1,1.2-1.2c2.4-0.3,4.8-0.6,7.2-0.9
		c2.8-0.4,5.6-0.8,8.4-1.1c1.7-0.2,3.3-0.4,5-0.7c1.1-0.2,1.7-1,1.7-2.1c0-1-0.7-1.8-1.8-2c-0.3,0-0.6-0.1-1-0.1
		c-4.4,0-8.7,0-13.1,0c-1.6,0-3.1-0.1-4.6-0.6c-3-1.1-6.1-1.3-9.2-1.1c-1.7,0.1-3.4,0.6-5.1,1c-0.9,0.2-1.3,0-1.7-0.7
		c-0.3-0.6,0-1.1,0.5-1.4c0.4-0.3,0.9-0.4,1.4-0.5c2.5-0.6,5-0.9,7.6-0.8c2.4,0.1,4.8,0.4,7.1,1.2c1.1,0.4,2,0.3,3-0.3
		c1.8-1,3.6-1.9,5.4-2.9c2.9-1.5,5.7-3.1,8.6-4.5c2.5-1.3,5.9-0.1,6.3,3.1C59,51.8,59.1,51.9,59.2,52z M43.9,67.1c0,0.1,0,0.1,0,0.2
		c0.2,0,0.4,0.1,0.6,0.1c3,0,5.9-0.1,8.8-0.6c3.2-0.6,6.3-1.5,9.3-3c3.2-1.6,6.3-3.3,9.4-5c0.7-0.4,1.3-0.8,1.8-1.4
		c0.5-0.6,0.3-1.6-0.3-2.1c-0.4-0.4-1.6-0.6-2.3-0.2c-1.8,1-3.7,1.9-5.5,2.9c-2.4,1.3-4.9,2.6-7.3,3.9c-0.3,0.1-0.5,0.5-0.6,0.7
		c-0.4,0.8-0.8,1.6-1.5,2.2c-1.2,1-2.6,1-4,1.2C49.5,66.5,46.7,66.8,43.9,67.1z M42.4,56.7c0.3,0.1,0.4,0.1,0.4,0.1
		c2.4,0,4.8,0,7.2,0c0.2,0,0.3,0,0.5-0.1c1.8-1,3.6-1.9,5.3-3c0.7-0.4,1-1.4,0.7-2.1c-0.5-1.2-1.8-1.4-2.9-0.9
		c-2.7,1.3-5.3,2.8-7.9,4.1C44.6,55.5,43.6,56,42.4,56.7z M57.8,59.4c1.9-1,4-2.1,6-3.2c1-0.5,1.4-1.6,0.9-2.5
		c-0.4-0.8-1.8-1.1-2.7-0.6c-0.9,0.5-1.9,1.1-2.8,1.6c-1.4,0.8-2.8,1.5-4.1,2.2C56.1,57.8,56.9,58.5,57.8,59.4z M42.4,56.8
		L42.4,56.8L42.4,56.8L42.4,56.8z"/>
	<path class="st35" d="M49.4,25.3c0,0,0.1-0.1,0.1-0.1C49.5,25.2,49.5,25.3,49.4,25.3z"/>
	<path class="st35" d="M59.1,25.3c0.1,0,0.1-0.1,0.2-0.1C59.2,25.2,59.1,25.3,59.1,25.3z"/>
	<path class="st35" d="M64.4,25.2c0,0,0.1,0.1,0.1,0.1C64.5,25.3,64.5,25.2,64.4,25.2z"/>
	<polygon class="st60" points="42.4,56.8 42.3,56.8 42.4,56.8 	"/>
	<linearGradient id="SVGID_1_" gradientUnits="userSpaceOnUse" x1="19.1576" y1="23.9574" x2="37.4217" y2="23.9574">
		<stop  offset="0" style="stop-color:#2352A3"/>
		<stop  offset="1" style="stop-color:#28ADE3"/>
	</linearGradient>
	<path class="st0" d="M28.2,17.3c-3.4-0.2-6,2.9-6.5,5.5c-0.7,3.7,1.9,7.2,5.4,7.9c1.3,0.3,2.7,0,4-0.5c1.1-0.4,2,0.2,1.8,1.2
		c-0.1,0.3-0.4,0.8-0.7,0.9c-3.1,1.4-6.2,1.2-9-0.7c-2.2-1.5-3.6-3.6-3.9-6.3c-0.5-3.6,0.8-6.3,3.5-8.5c1.4-1.2,3.1-1.7,4.9-1.9
		c3.6-0.4,7.9,2.4,9.1,5.7c0.9,2.6,0.9,5.1-0.3,7.6c-0.4,0.9-1,1.1-1.7,0.8c-0.8-0.4-0.9-1-0.5-1.8c1.9-3.9-0.1-8.3-3.8-9.4
		C29.7,17.4,28.9,17.4,28.2,17.3z"/>
</g>
</svg>
