<?xml version="1.0" encoding="utf-8"?>
<!-- Generator: Adobe Illustrator 27.7.0, SVG Export Plug-In . SVG Version: 6.00 Build 0)  -->
<svg version="1.1" id="Layer_1" xmlns="http://www.w3.org/2000/svg" xmlns:xlink="http://www.w3.org/1999/xlink" x="0px" y="0px"
	 viewBox="0 0 98.5 98.5" style="enable-background:new 0 0 98.5 98.5;" xml:space="preserve">
<style type="text/css">
	.st0{fill:url(#SVGID_1_);}
	.st1{fill:#FFFFFF;}
	.st2{fill:url(#SVGID_00000173150477504746492100000004170683586041032616_);}
	.st3{fill:url(#SVGID_00000023280054146990944020000002896298343192457098_);}
	.st4{fill:url(#SVGID_00000049212609198237067770000016041245293249667252_);}
	.st5{fill:url(#SVGID_00000177446424943623488020000007964677217329926278_);}
	.st6{fill:url(#SVGID_00000164477451697248440680000008205507927188755099_);}
	.st7{fill:url(#SVGID_00000107556328199581957590000000226738256140296356_);}
	.st8{fill:url(#SVGID_00000122684936007148822210000004650941110938954138_);}
	.st9{fill:#231F20;}
	.st10{fill:url(#SVGID_00000022535319430432898740000013028792130615076245_);}
	.st11{fill:none;}
	.st12{fill:url(#SVGID_00000139972838757649961070000017611065853055157891_);}
	.st13{fill:url(#SVGID_00000042011165975480546880000001124248400624164224_);}
	.st14{fill:url(#SVGID_00000084521654973385233670000009764091342790506930_);}
	.st15{fill:url(#SVGID_00000030479748906092556770000002802127770687823538_);}
	.st16{fill:url(#SVGID_00000107565929115704555960000003158938893429407654_);}
	.st17{fill:url(#SVGID_00000102517923571102927670000012242274258530079389_);}
	.st18{fill:url(#SVGID_00000130622086271287786700000004072952959019965885_);}
	.st19{fill:url(#SVGID_00000029019132371460753220000003790113438716004235_);}
	.st20{fill:url(#SVGID_00000117653975583609905080000015022958410589495682_);}
	.st21{fill:url(#SVGID_00000103964105488831751480000006339017610926786957_);}
	.st22{fill:#064295;}
	.st23{fill:url(#SVGID_00000170991213070698216380000017132807119868718468_);}
	.st24{fill:#010101;}
	.st25{fill:url(#SVGID_00000040533870820456719530000000225562439701782920_);}
	.st26{fill:url(#SVGID_00000010300854330645868200000002712640058375974016_);}
	.st27{fill:#DFDFDF;}
	.st28{fill:url(#SVGID_00000087389239145211985420000003330384979687467453_);}
	.st29{fill:url(#SVGID_00000173158427523489594610000012449900957363762326_);}
	.st30{fill:#696969;}
	.st31{fill:url(#SVGID_00000182502761059255781230000002677808297594405262_);}
	.st32{fill:#F2F2F2;}
	.st33{fill:#D6D6D6;}
	.st34{fill:#E4E4E4;}
	.st35{fill:#DDDDDD;}
	.st36{fill:url(#SVGID_00000093177153101879207090000009111986266107509378_);}
	.st37{fill:url(#SVGID_00000030487281600900716570000007068797103558930087_);}
	.st38{fill:url(#SVGID_00000077288450311776740020000017439709419215955364_);}
	.st39{fill:url(#SVGID_00000054959767824428286400000005836474858438648448_);}
	.st40{fill:url(#SVGID_00000116946509276601197150000017972622851320271497_);}
	.st41{fill:url(#SVGID_00000102528099748019060390000007795414367941095317_);}
	.st42{fill:url(#SVGID_00000044135961397774411170000005652552799621908624_);}
	.st43{fill:url(#SVGID_00000119104396124707565730000016136732522983151022_);}
	.st44{fill:url(#SVGID_00000110469158455646229560000006060582715093244572_);}
	.st45{fill:url(#SVGID_00000109741040139435630790000002026768969301932213_);}
	.st46{fill:url(#SVGID_00000123415139242905266500000018380148397898325175_);}
	.st47{fill:url(#SVGID_00000111890451811400893320000009064877336169747847_);}
	.st48{fill:url(#SVGID_00000150782090515082409460000003254095912539399863_);}
	.st49{fill:url(#SVGID_00000083798614961187495490000002737350020340050843_);}
	.st50{fill:url(#SVGID_00000066490735478171123210000014380038107938513588_);}
	.st51{fill:url(#SVGID_00000088115085911287817550000001641635436613777831_);}
	.st52{fill:url(#SVGID_00000098923522869311184620000006431495908142146720_);}
	.st53{fill:url(#SVGID_00000022528484011472025560000017667951790601577878_);}
	.st54{fill:url(#SVGID_00000027577959933073653470000009171710069854910893_);}
	.st55{fill:url(#SVGID_00000082358896060935524960000018120440527185555600_);}
	.st56{fill:url(#SVGID_00000070840172438470964220000012857333764237372040_);}
	.st57{fill:url(#SVGID_00000133510351548337180590000012956234706885415318_);}
	.st58{fill:url(#SVGID_00000155862293023326074810000014746686517131065518_);}
	.st59{fill:url(#SVGID_00000082369715515835574440000001773365078445322417_);}
	.st60{fill:#989898;}
	.st61{fill:url(#SVGID_00000098218108097165681820000000654778115798003118_);}
	.st62{fill:url(#SVGID_00000002364000561605224700000005716039122426796729_);}
	.st63{fill:url(#SVGID_00000041273903857325384340000002569008509070527904_);}
	.st64{fill:url(#SVGID_00000008124545792239051890000005440360703693151124_);}
	.st65{fill:url(#SVGID_00000136391186598820484110000002967554193262509446_);}
	.st66{fill:url(#SVGID_00000093873667552133131040000006043118421984380828_);}
	.st67{fill:url(#SVGID_00000112610377602191545420000014139984272458377126_);}
</style>
<g>
	<path d="M16.5,75.5c0-3.8,0-7.4,0-11.1c0-1.5,0.5-2,2-2c4.1,0,8.2,0,12.3,0c1.4,0,2.1,0.7,2.1,2.1c0,3.6,0,7.3,0,11
		c2.7,0,5.4,0,8.2,0c0-0.2,0-0.5,0-0.8c0-3.4,0-6.8,0-10.3c0-1.5,0.5-2,2-2c4.1,0,8.1,0,12.2,0c1.5,0,2.2,0.7,2.2,2.2
		c0,3.6,0,7.2,0,10.8c2.2,0,4.3,0,6.5,0c0-0.3,0-0.6,0-0.9c0-3.4,0-6.8,0-10.3c0-1.4,0.5-2,1.9-2c4.1,0,8.3,0,12.4,0
		c1.3,0,2,0.7,2,2.1c0,3.7,0,7.3,0,11.1c1.7,0,3.2,0,4.8,0c2.1,0,4.2,0.1,6.2,1c3.5,1.5,5.8,4.1,6.6,7.8c1.2,5.6-0.9,10.4-6.2,13.1
		c-1.3,0.7-2.9,1.1-4.4,1.1c-25.6,0.1-51.3,0.1-76.9,0c-3.2,0-5.9-1.7-7.9-4.1c-2.1-2.5-3-5.6-2.5-8.8c0.7-4.6,3.3-7.9,7.8-9.4
		c2.2-0.8,4.5-0.6,6.8-0.6C15.3,75.5,15.9,75.5,16.5,75.5z M49,95.2c12.2,0,24.3,0,36.5,0c1,0,2,0,3-0.2c5.1-0.9,7.5-5.6,6.5-10
		c-1-4.1-4.2-6.2-8.3-6.2c-25.1,0-50.2,0-75.3,0c-1.2,0-2.6,0.4-3.7,0.9c-3.4,1.8-5.2,5.6-3.9,9.8c0.9,3.1,4.2,5.6,7.1,5.6
		C23.5,95.2,36.2,95.2,49,95.2z M47.7,65.7c-1.2,0-2.2,0-3.3,0c0,3.3,0,6.5,0,9.8c3.3,0,6.5,0,9.8,0c0-3.3,0-6.5,0-9.8
		c-1.1,0-2.1,0-3.2,0c0,1.1,0,2.1,0,3.2c-1.1,0-2.2,0-3.2,0C47.7,67.9,47.7,66.8,47.7,65.7z M19.8,65.7c0,3.3,0,6.5,0,9.8
		c3.3,0,6.5,0,9.7,0c0-3.3,0-6.5,0-9.7c-1.1,0-2.1,0-3.3,0c0,1.1,0,2.1,0,3.2c-1.1,0-2.2,0-3.3,0c0-1.1,0-2.1,0-3.2
		C21.9,65.7,20.9,65.7,19.8,65.7z M77.2,65.7c-1.1,0-2.1,0-3.2,0c0,1.1,0,2.1,0,3.2c-1.1,0-2.2,0-3.3,0c0-1.1,0-2.1,0-3.2
		c-1.1,0-2.2,0-3.2,0c0,3.3,0,6.5,0,9.8c3.3,0,6.5,0,9.8,0C77.2,72.2,77.2,69,77.2,65.7z"/>
	<linearGradient id="SVGID_1_" gradientUnits="userSpaceOnUse" x1="32.9107" y1="28.7561" x2="65.7779" y2="28.7561">
		<stop  offset="0" style="stop-color:#2352A3"/>
		<stop  offset="1" style="stop-color:#28ADE3"/>
	</linearGradient>
	<path class="st0" d="M47.7,32.9c-3-0.1-2.9,0.4-3.8-3.4c-0.6,0.3-1.1,0.6-1.6,0.9c-1.1,0.6-1.7,0.6-2.6-0.3
		c-1.3-1.3-2.6-2.6-3.9-3.9c-1.2-1.2-1.2-1.5-0.4-2.9c0.2-0.4,0.5-0.9,0.8-1.4c-0.3-0.1-0.5-0.1-0.8-0.1c-2.5-0.7-2.5-0.7-2.5-3.4
		c0-1.6,0-3.1,0-4.7c0-1.7,0.7-1.9,1.9-2.3c0.4-0.1,0.9-0.2,1.4-0.3c-0.4-0.7-0.8-1.4-1.2-2c-0.4-0.7-0.3-1.3,0.3-1.9
		c1.5-1.5,3-3,4.5-4.5c0.7-0.7,1.5-0.8,2.3-0.3c0.6,0.3,1.1,0.7,1.8,1c0.2-0.7,0.4-1.4,0.5-2.1C44.7,0.4,45.2,0,46.2,0
		c2,0,4,0,6.1,0c1.1,0,1.8,0.6,2,1.7c0.1,0.5,0.3,1,0.4,1.6c0.6-0.4,1.2-0.7,1.8-1c0.7-0.4,1.4-0.3,2,0.3c1.6,1.5,3.1,3.1,4.6,4.6
		c0.6,0.6,0.7,1.2,0.3,1.9c-0.3,0.6-0.7,1.2-1.1,1.9c0.7,0.2,1.2,0.3,1.8,0.5c1,0.2,1.6,0.9,1.6,2c0,1.8-0.1,3.6,0,5.4
		c0.1,1.6-0.6,2.3-2.3,2.6c-0.2,0-0.4,0-0.6,0.1c-0.1,0-0.3,0.2-0.5,0.3c0.3,0.6,0.7,1.1,1,1.7c0.4,0.8,0.4,1.4-0.3,2.1
		c-1.5,1.5-3,2.9-4.4,4.4c-0.7,0.7-1.5,0.8-2.4,0.4c-0.5-0.3-1-0.6-1.5-0.9c-0.4,0.9-0.5,2-1.1,2.6c-0.6,0.6-1.7,0.6-2.7,1
		c0,0.8,0,1.9,0,3c0,0.1,0.2,0.3,0.3,0.4c2,0.9,3,2.7,2.8,4.7c-0.2,2.5,0.9,4.2,2.3,5.9c1.1,1.4,1.1,2.6,0.3,4.1
		c-0.9,1.6-1.7,3.4-2.6,5c-0.7,1.3-2.1,1.6-2.8,0.5C51,56.4,51,55.5,51.2,55c0.7-1.6,1.5-3.1,2.4-4.7c0.3-0.5,0.4-1-0.1-1.5
		c-0.7-0.8-1-2.1-1.9-2.6c-0.8-0.5-2.1,0-3.1-0.2c-1.4-0.2-2,0.6-2.7,1.6c-1,1.3-1.2,2.4-0.3,3.9c0.8,1.1,1.3,2.5,1.9,3.7
		c0.5,0.9,0.1,1.6-0.6,2.1c-0.7,0.5-1.4,0.5-2-0.1c-0.4-0.4-0.6-0.9-0.9-1.3c-0.9-1.7-1.6-3.5-2.5-5.2c-0.5-0.9-0.4-1.7,0.1-2.5
		c0.3-0.4,0.5-0.9,0.9-1.3c1.5-1.7,2.1-3.7,2-6c-0.1-1.7,1-3,2.6-3.9c0.5-0.3,0.7-0.6,0.7-1.2C47.7,34.7,47.7,33.8,47.7,32.9z
		 M62.4,14.5c-1-0.3-1.9-0.5-2.7-0.7c-1.5-0.4-2-1.3-1.2-2.7c0.5-0.9,1-1.7,1.5-2.5c-0.9-1-1.9-1.9-2.8-2.8
		c-0.9,0.5-1.8,1.1-2.8,1.6c-1.1,0.6-2.1,0.1-2.3-1.1c-0.2-1-0.5-2-0.7-3c-1.1,0-2.2,0-3.2,0c-0.6,0-0.9,0.2-1,0.8
		c-0.1,0.7-0.4,1.5-0.6,2.2c-0.4,1.2-1.3,1.6-2.4,1c-0.9-0.5-1.7-1-2.7-1.6c-0.2,0.3-0.4,0.5-0.6,0.7C40,7.2,39,7.8,38.8,8.6
		c-0.1,0.7,0.9,1.6,1.3,2.4c0.6,1.2,0.3,2.4-1.2,2.7c-0.9,0.2-1.8,0.5-2.7,0.7c0,0.5,0,1,0,1.5c0,2.6,0,2.6,2.5,3.1
		c1.8,0.4,2,1.8,1.2,3c-0.5,0.7-0.9,1.5-1.3,2.2c0.1,0.1,0.2,0.2,0.2,0.2c0.9,0.8,1.6,2,2.6,2.4c0.6,0.2,1.6-0.9,2.5-1.3
		c1.2-0.6,2.2-0.1,2.6,1.2c0.2,0.7,0.3,1.4,0.5,2.1c0.1,0.3,0.4,0.6,0.7,0.7c1.2,0.1,2.4,0,3.5,0c0.2-0.9,0.4-1.7,0.6-2.5
		c0.5-1.8,1.5-2.1,3.1-1.1c0.7,0.4,1.4,0.8,2.2,1.3c0.8-0.8,1.5-1.6,2.3-2.4c0.4-0.4,0.4-0.7,0.1-1.1c-0.4-0.6-0.8-1.3-1.2-2
		c-0.7-1.3-0.3-2.3,1.1-2.7c1-0.2,1.9-0.5,2.8-0.7C62.4,17,62.4,15.8,62.4,14.5z M47.7,42.7c1.1,0,2.2,0,3.3,0
		c0.1-1.1,0.3-2.3-0.9-3c-0.4-0.2-1.2-0.2-1.6,0C47.3,40.4,47.8,41.6,47.7,42.7z"/>
	<path d="M85.5,21.3c0,3.5,0,6.8,0,10.2c2.2,0.8,3.4,2.7,3.2,4.8c-0.2,2.5,1,4.2,2.3,5.9c1,1.3,1.1,2.5,0.3,3.9
		c-1,1.7-1.7,3.4-2.6,5.1c-0.5,1-1.4,1.4-2.3,1c-0.9-0.4-1.2-1.4-0.6-2.4c0.8-1.6,1.6-3.1,2.4-4.7c0.3-0.5,0.4-0.9-0.1-1.5
		c-0.7-0.8-1-2.1-1.9-2.6c-0.8-0.5-2.1,0-3.1-0.1c-1.2-0.1-1.8,0.4-2.6,1.4c-1.2,1.5-1.3,2.7-0.3,4.3c0.7,1,1.2,2.2,1.7,3.3
		c0.5,0.9,0.2,1.8-0.6,2.3c-0.8,0.4-1.8,0.1-2.3-0.7c-1.1-2.2-2.2-4.3-3.1-6.5c-0.2-0.5-0.1-1.3,0.2-1.9c0.7-1.4,1.7-2.6,2.5-4
		c0.2-0.3,0.3-0.8,0.4-1.2c0.1-1.1,0-2.3,0.2-3.4c0.3-1.4,1.2-2.3,2.4-3c0.3-0.2,0.6-0.5,0.6-0.8c0-3,0-6,0-8.9c0-0.2,0-0.4,0-0.7
		c-4.4,0-8.7,0-13.1,0c0-1.1,0-2.1,0-3.3c0.3,0,0.7,0,1,0c7.6,0,15.1,0,22.7,0c0.3,0,0.5,0,0.8,0c0.8-0.1,1.7-0.9,1.7-1.6
		c0-0.7-0.8-1.6-1.6-1.7c-0.3,0-0.5,0-0.8,0c-7.6,0-15.3,0-22.9,0c-0.3,0-0.7,0-1.1,0c0-1.1,0-2.1,0-3.2c0.3,0,0.6,0,0.9,0
		c7.8,0,15.7,0,23.5,0c2,0,3.8,0.7,4.8,2.7c1.7,3.5-1.1,7.2-4.5,7.1C90.9,21.3,88.2,21.3,85.5,21.3z M85.4,37.7c0.1-1.2,0.3-2.4-1-3
		c-0.5-0.2-1.3-0.2-1.6,0.1c-1,0.7-0.6,1.9-0.6,2.9C83.3,37.7,84.3,37.7,85.4,37.7z"/>
	<path d="M29.4,11.5c0,1.1,0,2.1,0,3.3c-0.4,0-0.7,0-1.1,0c-7.7,0-15.3,0-23,0c-1,0-1.7,0.3-1.9,1.2c-0.3,1.3,0.7,2.1,1.8,2.1
		c7.7,0,15.4,0,23.1,0c0.3,0,0.7,0,1.1,0c0,1.1,0,2.1,0,3.3c-4.3,0-8.5,0-12.8,0c0,3.5,0,6.8,0,10.2c2.2,0.9,3.3,2.7,3.2,4.9
		c-0.1,2.1,0.6,3.8,1.9,5.2c1.5,1.7,1.6,3.3,0.4,5.1c-0.9,1.4-1.5,2.9-2.2,4.4c-0.5,1.1-1.4,1.5-2.3,1.1c-0.9-0.4-1.2-1.4-0.6-2.5
		c0.8-1.6,1.6-3.1,2.4-4.7c0.2-0.5,0.3-0.9-0.1-1.4c-0.7-0.9-1-2.2-1.9-2.6c-0.8-0.5-2.2,0-3.2-0.2c-1.4-0.2-1.9,0.6-2.6,1.5
		c-1.1,1.3-1.3,2.5-0.3,3.9c0.8,1.1,1.2,2.4,1.8,3.6c0.4,0.9,0.1,1.8-0.7,2.3c-0.8,0.4-1.6,0.2-2.1-0.7c-1.1-2.1-2.2-4.3-3.2-6.5
		c-0.2-0.5-0.1-1.4,0.2-1.9c0.7-1.4,1.7-2.6,2.5-4c0.2-0.3,0.3-0.8,0.4-1.2c0.1-1.1,0-2.3,0.2-3.4c0.3-1.4,1.2-2.3,2.4-3
		c0.3-0.2,0.6-0.5,0.6-0.8c0-3.2,0-6.3,0-9.6c-2.9,0-5.7,0-8.4,0c-1.9,0-3.3-1-4.1-2.6c-0.9-1.7-0.7-3.3,0.2-5
		c0.8-1.4,2.2-2.2,3.7-2.2C12.8,11.5,21,11.5,29.4,11.5z M16.5,37.7c0.1-1.2,0.3-2.4-0.9-3c-0.4-0.2-1.2-0.2-1.6,0
		c-1.1,0.7-0.6,1.9-0.7,3C14.4,37.7,15.4,37.7,16.5,37.7z"/>
	<path class="st24" d="M82.1,92c-2.6,0.1-4.8-2.3-4.8-4.6c-0.1-3.3,2.2-5.2,4.8-5.2c2.7-0.1,5.1,2.1,5,4.8C87,89.7,85,91.9,82.1,92z
		 M82,88.7c0.8,0,1.7-0.9,1.8-1.6c0-0.8-0.9-1.6-1.7-1.7c-0.9,0-1.5,0.7-1.6,1.6C80.5,88,81.2,88.7,82,88.7z"/>
	<path class="st24" d="M11.6,87c0-3,2.2-5,4.8-4.9c3.3,0.1,4.8,1.9,5,4.7c0.1,2.7-2,5.1-5.2,5.1C13.8,91.9,11.4,89.6,11.6,87z
		 M16.3,88.7c0.8,0,1.8-0.8,1.8-1.6c0-0.8-0.9-1.7-1.7-1.7c-0.9,0-1.6,0.7-1.6,1.6C14.8,87.9,15.5,88.6,16.3,88.7z"/>
	<path class="st24" d="M28,87c0-3,2.1-4.8,4.8-4.9c2.7-0.1,5.2,2.4,5,4.9c-0.2,3.2-2.7,5.1-5.3,5C30.3,91.9,27.8,89.6,28,87z
		 M32.8,88.7c0.8,0,1.7-0.9,1.7-1.6c0-0.8-0.9-1.6-1.7-1.6c-0.9,0-1.5,0.7-1.5,1.6C31.3,88,31.9,88.7,32.8,88.7z"/>
	<path class="st24" d="M44.4,87c0-2.9,2.2-4.8,4.9-4.8c2.7,0,5.1,2.3,5,4.8c-0.2,3.1-2.4,5.1-5.3,5C46.6,91.9,44.2,89.7,44.4,87z
		 M49.2,88.7c0.8,0,1.7-0.9,1.7-1.6c0-0.8-0.9-1.6-1.7-1.6c-0.9,0-1.5,0.7-1.5,1.6C47.7,88,48.4,88.7,49.2,88.7z"/>
	<path class="st24" d="M60.8,86.9c0-2.9,2.1-4.7,4.8-4.8c2.7-0.1,5.2,2.4,5,4.9c-0.2,3.2-2.6,5.1-5.4,5
		C63.1,91.8,60.6,89.7,60.8,86.9z M65.6,88.7c0.8,0,1.7-0.9,1.7-1.6c0-0.8-0.9-1.6-1.7-1.6c-0.9,0-1.5,0.7-1.5,1.6
		C64.1,88,64.8,88.7,65.6,88.7z"/>
	
		<linearGradient id="SVGID_00000132769716703474742460000004807301755435294392_" gradientUnits="userSpaceOnUse" x1="42.756" y1="16.4585" x2="55.8515" y2="16.4585">
		<stop  offset="0" style="stop-color:#2352A3"/>
		<stop  offset="1" style="stop-color:#28ADE3"/>
	</linearGradient>
	<path style="fill:url(#SVGID_00000132769716703474742460000004807301755435294392_);" d="M42.8,16.4c-0.2-3.4,2.6-6.5,6.1-6.5
		c4,0,6.9,2.5,6.9,6.7c0.1,3.4-2.9,6.3-6.5,6.4C45.7,23.2,42.5,19.7,42.8,16.4z M46.1,16.4c0,1.9,1.4,3.3,3.1,3.3
		c1.9,0,3.3-1.5,3.4-3.2c0.1-1.8-1.6-3.4-3.4-3.4C47.5,13.1,46,14.6,46.1,16.4z"/>
</g>
</svg>
