<?xml version="1.0" encoding="utf-8"?>
<!-- Generator: Adobe Illustrator 27.7.0, SVG Export Plug-In . SVG Version: 6.00 Build 0)  -->
<svg version="1.1" id="Layer_1" xmlns="http://www.w3.org/2000/svg" xmlns:xlink="http://www.w3.org/1999/xlink" x="0px" y="0px"
	 viewBox="0 0 98.1 98" style="enable-background:new 0 0 98.1 98;" xml:space="preserve">
<style type="text/css">
	.st0{fill:url(#SVGID_1_);}
	.st1{fill:#FFFFFF;}
	.st2{fill:url(#SVGID_00000136391294295913995550000004439943523569334418_);}
	.st3{fill:url(#SVGID_00000039097496208741245550000005449050776279973818_);}
	.st4{fill:url(#SVGID_00000044148467637516541540000018357713110708496814_);}
	.st5{fill:url(#SVGID_00000038395330336905204880000013139938649482061703_);}
	.st6{fill:url(#SVGID_00000150085587784597384540000015503006152739542719_);}
	.st7{fill:url(#SVGID_00000036951324892857049870000004488561235309975946_);}
	.st8{fill:url(#SVGID_00000158003961941816697110000007805610877997295786_);}
	.st9{fill:#231F20;}
	.st10{fill:url(#SVGID_00000042705357362565627260000017254240342403803277_);}
	.st11{fill:none;}
	.st12{fill:url(#SVGID_00000094612260240657573910000018193940613007929991_);}
	.st13{fill:url(#SVGID_00000007417294271468301750000004369149716237392564_);}
	.st14{fill:url(#SVGID_00000178187510391970662130000005690153654809058482_);}
	.st15{fill:url(#SVGID_00000048469799795176335310000007639163408119710340_);}
	.st16{fill:url(#SVGID_00000080193756580913140640000017810467918904759428_);}
	.st17{fill:url(#SVGID_00000026135642113794119150000002066354106648331407_);}
	.st18{fill:url(#SVGID_00000137840130237982884620000016206968695361272997_);}
	.st19{fill:url(#SVGID_00000152961775873007652980000011595125054313630861_);}
	.st20{fill:url(#SVGID_00000062166938278334409230000006916150291146449060_);}
	.st21{fill:url(#SVGID_00000030488868742752810970000012305012126750869649_);}
	.st22{fill:#064295;}
	.st23{fill:url(#SVGID_00000083783796247807107730000014696875525984211106_);}
	.st24{fill:#010101;}
	.st25{fill:url(#SVGID_00000009556922130789281090000005132568680117167251_);}
	.st26{fill:url(#SVGID_00000131349993792263464560000013170710165042715297_);}
	.st27{fill:#DFDFDF;}
	.st28{fill:url(#SVGID_00000097475684368945435510000007745732751003244191_);}
	.st29{fill:url(#SVGID_00000165214029720123627330000006456943094247802537_);}
	.st30{fill:#696969;}
	.st31{fill:url(#SVGID_00000159471163098847660380000010299933144041550782_);}
	.st32{fill:#F2F2F2;}
	.st33{fill:#D6D6D6;}
	.st34{fill:#E4E4E4;}
	.st35{fill:#DDDDDD;}
	.st36{fill:url(#SVGID_00000077298150932971814520000006232390556514040753_);}
	.st37{fill:url(#SVGID_00000118355064983649664510000009642592875039949480_);}
	.st38{fill:url(#SVGID_00000097500630254217805590000016683563448442629504_);}
	.st39{fill:url(#SVGID_00000089538388877513172640000013318422494301486219_);}
	.st40{fill:url(#SVGID_00000052818198450543841080000008916160310307156368_);}
	.st41{fill:url(#SVGID_00000134234392289194962710000000295358587601604264_);}
	.st42{fill:url(#SVGID_00000093152347163475795580000014711489439112297366_);}
	.st43{fill:url(#SVGID_00000132811119799186471480000011095117362841189515_);}
	.st44{fill:url(#SVGID_00000031185002261684427960000015547965861513663115_);}
	.st45{fill:url(#SVGID_00000123410327313582026780000012255465475496866184_);}
	.st46{fill:url(#SVGID_00000126290490053430094230000017682547905414255797_);}
	.st47{fill:url(#SVGID_00000085226682315553485900000017010520472141076398_);}
	.st48{fill:url(#SVGID_00000013901243106853466860000011105094945720262308_);}
	.st49{fill:url(#SVGID_00000023977337659550560790000006623704586553582725_);}
	.st50{fill:url(#SVGID_00000101098994367826096950000005126675570421624995_);}
	.st51{fill:url(#SVGID_00000116945976975386989670000017845359584536447903_);}
	.st52{fill:url(#SVGID_00000047041186275626209630000015932275293539515522_);}
	.st53{fill:url(#SVGID_00000130642813737142711860000005101382141578835626_);}
	.st54{fill:url(#SVGID_00000140010260022516106690000017041997600741197440_);}
	.st55{fill:url(#SVGID_00000049914052710130941440000006890776526627866515_);}
	.st56{fill:url(#SVGID_00000133513149687328427290000013701277209304831142_);}
	.st57{fill:url(#SVGID_00000091737794538305426660000013628999350911028127_);}
	.st58{fill:url(#SVGID_00000149345133660285901180000013270041998502993836_);}
	.st59{fill:url(#SVGID_00000062160523050603254400000015976536231498306451_);}
	.st60{fill:#989898;}
	.st61{fill:url(#SVGID_00000086671066750283962440000014089764747582859427_);}
	.st62{fill:url(#SVGID_00000119114293592678957350000004840149356807111329_);}
	.st63{fill:url(#SVGID_00000145024652827936232530000009564233525423386500_);}
	.st64{fill:url(#SVGID_00000080173204894754622940000015938271557802431872_);}
	.st65{fill:url(#SVGID_00000076562987171433191430000008163874568493160352_);}
	.st66{fill:url(#SVGID_00000175311143770709930880000015759934570831734175_);}
	.st67{fill:url(#SVGID_00000132074642884069006340000004750140820436245389_);}
</style>
<g>
	<g>
		<path class="st24" d="M0,25.6c0.6-0.4,1.1-1,1.7-1.3c3.9-2.1,7.8-4.1,11.8-6.1c4.7-2.4,9.3-4.8,13.9-7.2c4.8-2.5,9.6-5,14.4-7.5
			c1.9-1,3.7-1.9,5.5-3c1.2-0.7,2.3-0.5,3.5,0.1c2.9,1.6,5.8,3,8.8,4.6c2.1,1.1,4.1,2.2,6.2,3.3c1,0.5,1.3,1.5,0.9,2.4
			c-0.4,0.9-1.6,1.4-2.5,0.9c-2.9-1.5-5.8-3-8.7-4.5c-2-1-4-2.1-6-3.1c-0.7-0.4-1.2,0.1-1.8,0.4c-3.1,1.6-6.2,3.2-9.4,4.8
			c-4.8,2.5-9.5,5-14.3,7.5c-3.1,1.6-6.2,3.2-9.3,4.8c-2.9,1.5-5.8,3-8.8,4.6c2.6,1.4,5.2,2.7,7.7,4c4.9,2.5,9.8,5.1,14.7,7.6
			c4.6,2.4,9.2,4.8,13.8,7.2c1.9,1,3.8,2,5.7,3.1c0.7,0.4,1.3,0.4,2.1,0c2.8-1.5,5.7-3,8.6-4.5c6.1-3.2,12.3-6.4,18.4-9.6
			c3.6-1.9,7.2-3.8,10.8-5.6c1.3-0.7,2.6-1.4,4.1-2.2c-2.4-1.2-4.7-2.4-7.1-3.6c-1.9-1-3.8-2-5.6-3c-0.9-0.5-1.2-1.6-0.7-2.5
			c0.5-0.9,1.6-1.3,2.5-0.8c4.2,2.2,8.5,4.4,12.7,6.7c1,0.5,2,1,3,1.5c1.6,0.9,1.7,2.5,0.1,3.4c-2.6,1.4-5.2,2.7-7.8,4.1
			c-3.2,1.7-6.3,3.3-9.5,5c-0.3,0.2-0.6,0.3-1,0.6c0.3,0.2,0.6,0.4,0.9,0.6c5.8,3,11.5,6,17.3,8.9c0.8,0.4,1.2,1,1.1,1.9
			c0,0.9-0.5,1.4-1.2,1.8c-3.9,2-7.8,4-11.7,6c-2.1,1.1-4.2,2.2-6.5,3.4c0.2,0.2,0.4,0.3,0.5,0.4c4.2,2.2,8.4,4.3,12.6,6.5
			c1.8,0.9,3.5,1.8,5.2,2.8c1.5,0.9,1.5,2.5-0.1,3.4c-2.2,1.2-4.4,2.3-6.5,3.4c-4.8,2.5-9.5,5-14.3,7.4c-3.1,1.6-6.2,3.2-9.4,4.8
			c-4.8,2.5-9.5,5-14.2,7.5c-0.9,0.5-1.9,1-2.8,1.5c-0.4,0-0.9,0-1.3,0c-0.8-0.5-1.7-1-2.5-1.4c-4.8-2.5-9.6-5-14.4-7.5
			c-4.6-2.4-9.3-4.8-13.9-7.2c-5.3-2.7-10.6-5.5-15.8-8.2c-0.6-0.3-1.1-1-1.6-1.4c0-0.4,0-0.8,0-1.2c0.5-0.5,0.9-1.1,1.5-1.4
			c3.3-1.7,6.5-3.4,9.8-5.1c2.7-1.4,5.3-2.8,8-4.2c-0.6-0.3-1-0.7-1.6-0.9c-5.4-2.8-10.9-5.6-16.3-8.5c-0.6-0.3-1-0.9-1.5-1.4
			c0-0.4,0-0.8,0-1.2c0.4-0.4,0.7-0.9,1.1-1.1c3.1-1.7,6.3-3.3,9.5-5c2.9-1.5,5.8-3,8.8-4.6c-0.3-0.2-0.6-0.4-0.9-0.6
			c-1.6-0.8-3.1-1.6-4.7-2.4c-4-2.1-8-4.1-12-6.3c-0.7-0.4-1.2-1-1.8-1.5C0,26.5,0,26,0,25.6z M6,71.6c4.3,2.3,8.5,4.5,12.7,6.7
			c4.6,2.4,9.2,4.8,13.9,7.2c5.2,2.7,10.4,5.4,15.6,8.1c0.6,0.3,1.1,0.3,1.7,0c3.9-2,7.8-4.1,11.6-6.1c3.2-1.7,6.4-3.3,9.6-5
			c5.1-2.7,10.3-5.3,15.4-8c1.8-0.9,3.6-1.9,5.5-2.9c-5.7-2.9-11.2-5.8-16.7-8.7c-0.6-0.3-1.1-0.3-1.7,0c-4.6,2.4-9.3,4.8-13.9,7.3
			c-2.9,1.5-5.8,2.9-8.7,4.5c-1.3,0.7-2.4,0.9-3.7,0.1c-1.8-1.1-3.7-2-5.6-3c-5.8-3-11.5-6-17.3-9c-0.4-0.2-1-0.2-1.4,0
			c-3,1.5-6,3.1-8.9,4.6C11.4,68.8,8.8,70.2,6,71.6z M41.3,67.3c2.5,1.3,4.9,2.6,7.3,3.8c0.3,0.1,0.8,0,1.1-0.2
			C53.5,69,57.3,67,61,65.1c3.1-1.6,6.2-3.3,9.3-4.9c5-2.6,10.1-5.2,15.1-7.8c2.1-1.1,4.3-2.2,6.5-3.4c-2.5-1.3-4.8-2.5-7.2-3.7
			c-0.3-0.2-0.9-0.1-1.3,0.1c-2.9,1.5-5.7,3-8.6,4.5c-2.9,1.5-5.7,3-8.6,4.5c-4.5,2.3-8.9,4.7-13.4,7C49.1,63.3,45.2,65.3,41.3,67.3
			z M29.5,61.2c2.6,1.3,4.9,2.6,7.3,3.8c0.2,0.1,0.6,0,0.9-0.1c0.9-0.4,1.8-0.9,2.7-1.4c4.5-2.3,8.9-4.7,13.3-7
			c4.2-2.2,8.5-4.4,12.7-6.6c3.9-2,7.7-4,11.6-6c0.7-0.3,1.3-0.7,2-1.1c-1.6-0.8-3.1-1.5-4.5-2.3c-0.9-0.5-1.5-0.5-2.4,0
			c-4.5,2.4-9,4.7-13.5,7.1c-3.2,1.7-6.3,3.3-9.5,4.9c-0.5,0.3-1.5,0.4-1.9,0.2c-1.1-0.7-1.8-0.2-2.7,0.3c-0.4,0.2-0.7,0.4-1,0.6
			C39.6,56,34.7,58.5,29.5,61.2z M43,49.9c-2.3-1.2-4.6-2.4-6.8-3.5c-0.6-0.3-1.1-0.3-1.7,0c-0.9,0.6-1.9,1.1-2.9,1.6
			c-4.4,2.3-8.7,4.5-13.1,6.8c-0.2,0.1-0.3,0.2-0.6,0.4c2.3,1.2,4.6,2.4,6.8,3.6c0.4,0.2,1,0.1,1.3-0.1c3.3-1.7,6.7-3.4,10-5.2
			C38.3,52.3,40.6,51.1,43,49.9z M31.2,43.8c-2.5-1.3-4.9-2.5-7.3-3.7c-0.3-0.1-0.8,0-1.1,0.2c-3.4,1.7-6.7,3.5-10.1,5.3
			C10.5,46.6,8.3,47.8,6,49c2.4,1.2,4.6,2.4,6.8,3.6c0.6,0.3,1,0.3,1.6,0c3.3-1.8,6.7-3.5,10.1-5.3C26.7,46.1,28.9,45,31.2,43.8z"/>
		<path class="st24" d="M74.4,14c0,1.2-0.7,2-1.8,2c-1.1,0-1.8-0.8-1.8-1.9c0-1.1,0.8-1.9,1.8-1.9C73.6,12.2,74.4,12.9,74.4,14z"/>
	</g>
	<linearGradient id="SVGID_1_" gradientUnits="userSpaceOnUse" x1="28.5067" y1="37.8511" x2="69.605" y2="37.8511">
		<stop  offset="0" style="stop-color:#2352A3"/>
		<stop  offset="1" style="stop-color:#28ADE3"/>
	</linearGradient>
	<path class="st0" d="M49.9,38.6c-0.6,0.3-1.1,0.3-1.7,0c-3.8-2-7.6-4-11.5-6h-8.2c1,0.5,1.9,1,2.9,1.5c4.8,2.5,9.6,5,14.4,7.5
		c0.9,0.4,1.7,1,2.5,1.4c0.4,0,0.9,0,1.3,0c0.9-0.5,1.9-1.1,2.8-1.5c4.7-2.5,9.5-5,14.2-7.5c0.9-0.5,1.9-1,2.8-1.5h-8.3
		C57.5,34.6,53.7,36.6,49.9,38.6z"/>
	
		<linearGradient id="SVGID_00000022523650835032424580000005815546671798551444_" gradientUnits="userSpaceOnUse" x1="28.5067" y1="83.4527" x2="69.605" y2="83.4527">
		<stop  offset="0" style="stop-color:#2352A3"/>
		<stop  offset="1" style="stop-color:#28ADE3"/>
	</linearGradient>
	<path style="fill:url(#SVGID_00000022523650835032424580000005815546671798551444_);" d="M49.9,84.2c-0.6,0.3-1.1,0.3-1.7,0
		c-3.8-2-7.6-4-11.5-6h-8.2c1,0.5,1.9,1,2.9,1.5c4.8,2.5,9.6,5,14.4,7.5c0.9,0.4,1.7,1,2.5,1.4c0.4,0,0.9,0,1.3,0
		c0.9-0.5,1.9-1.1,2.8-1.5c4.7-2.5,9.5-5,14.2-7.5c0.9-0.5,1.9-1,2.8-1.5h-8.3C57.5,80.2,53.7,82.2,49.9,84.2z"/>
</g>
</svg>
