<?xml version="1.0" encoding="utf-8"?>
<!-- Generator: Adobe Illustrator 27.7.0, SVG Export Plug-In . SVG Version: 6.00 Build 0)  -->
<svg version="1.1" id="Layer_1" xmlns="http://www.w3.org/2000/svg" xmlns:xlink="http://www.w3.org/1999/xlink" x="0px" y="0px"
	 viewBox="0 0 92.7 80.1" style="enable-background:new 0 0 92.7 80.1;" xml:space="preserve">
<style type="text/css">
	.st0{fill:url(#SVGID_1_);}
	.st1{fill:#FFFFFF;}
	.st2{fill:url(#SVGID_00000059285318805823039170000010412979243790125442_);}
	.st3{fill:url(#SVGID_00000041986945716538456450000009527725918911297444_);}
	.st4{fill:url(#SVGID_00000150812880776563653390000018192081451976268939_);}
	.st5{fill:url(#SVGID_00000152969335845690566230000016363576533263771531_);}
	.st6{fill:url(#SVGID_00000033365012574805038700000000188900207429786018_);}
	.st7{fill:url(#SVGID_00000152970190034811515200000009805833624584436362_);}
	.st8{fill:url(#SVGID_00000050647794069197251800000014888355099931551902_);}
	.st9{fill:#231F20;}
	.st10{fill:url(#SVGID_00000142868785201846975100000004073830404624173243_);}
	.st11{fill:none;}
	.st12{fill:url(#SVGID_00000030486636470687814080000015490791022026350734_);}
	.st13{fill:url(#SVGID_00000070110984190128561030000013792407305541822644_);}
	.st14{fill:url(#SVGID_00000134248577714815859800000018376629917345538735_);}
	.st15{fill:url(#SVGID_00000111184360121301623870000000770001204397902782_);}
	.st16{fill:url(#SVGID_00000183964737588695320990000007745983272132792476_);}
	.st17{fill:url(#SVGID_00000096748686408266982080000011899899232764807589_);}
	.st18{fill:url(#SVGID_00000008848090742940831620000013243079629876394115_);}
	.st19{fill:url(#SVGID_00000128444512843682756250000009053877679795117464_);}
	.st20{fill:url(#SVGID_00000106831451742961860300000000951453178980342156_);}
	.st21{fill:url(#SVGID_00000087408768271745352320000007786886406846141114_);}
	.st22{fill:#064295;}
	.st23{fill:url(#SVGID_00000150088309894221060400000012954360206865810864_);}
	.st24{fill:#010101;}
	.st25{fill:url(#SVGID_00000164499425484347134780000016282582890338958735_);}
	.st26{fill:url(#SVGID_00000112606584914388722620000008656155578978167712_);}
	.st27{fill:#DFDFDF;}
	.st28{fill:url(#SVGID_00000062163088832199021230000012328886611758747814_);}
	.st29{fill:url(#SVGID_00000085231585198948189820000006687090826628107175_);}
	.st30{fill:#696969;}
	.st31{fill:url(#SVGID_00000008109857231596323180000017040867793102450608_);}
	.st32{fill:#F2F2F2;}
	.st33{fill:#D6D6D6;}
	.st34{fill:#E4E4E4;}
	.st35{fill:#DDDDDD;}
	.st36{fill:url(#SVGID_00000132801254978391295690000004839070363792674198_);}
	.st37{fill:url(#SVGID_00000016786015832474092310000004389081337445785002_);}
	.st38{fill:url(#SVGID_00000111176605626877623480000016642134506598846891_);}
	.st39{fill:url(#SVGID_00000128480360898855568880000000416045994258128038_);}
	.st40{fill:url(#SVGID_00000020379261092033372500000016414373562589107342_);}
	.st41{fill:url(#SVGID_00000090291519922301899980000016788964470473825462_);}
	.st42{fill:url(#SVGID_00000153681108303561627870000006292097585829264004_);}
	.st43{fill:url(#SVGID_00000137093505309866430980000012747594513454319805_);}
	.st44{fill:url(#SVGID_00000165956523411359350790000011877962917077736073_);}
	.st45{fill:url(#SVGID_00000180339323462386665980000009656460748383482020_);}
	.st46{fill:url(#SVGID_00000056399474057010753750000003970793107014279595_);}
	.st47{fill:url(#SVGID_00000015355725747425663410000000060367825958037949_);}
	.st48{fill:url(#SVGID_00000164501041918781304930000014856344642741396920_);}
	.st49{fill:url(#SVGID_00000003075268036819494060000016905630414520643211_);}
	.st50{fill:url(#SVGID_00000102520129608571681330000002485884442675910844_);}
	.st51{fill:url(#SVGID_00000054966689105493100440000013963915884684896940_);}
	.st52{fill:url(#SVGID_00000000182033569482846750000012061564100793242791_);}
	.st53{fill:url(#SVGID_00000078763947103668313650000003051562262047613583_);}
	.st54{fill:url(#SVGID_00000093176804717452706020000004934994305703653532_);}
	.st55{fill:url(#SVGID_00000078762931692065740120000014422649924875575977_);}
	.st56{fill:url(#SVGID_00000124854663389374435090000017695038615964268932_);}
	.st57{fill:url(#SVGID_00000177461095687095579760000009065443052429493133_);}
	.st58{fill:url(#SVGID_00000016784944934529782960000006154048643442585534_);}
	.st59{fill:url(#SVGID_00000015350139454587816010000006691410566299490491_);}
	.st60{fill:#989898;}
	.st61{fill:url(#SVGID_00000114057605467840688830000004182018606007590332_);}
	.st62{fill:url(#SVGID_00000166671498893708648790000004873825808284337324_);}
	.st63{fill:url(#SVGID_00000087373072804806997640000001821217777304636340_);}
	.st64{fill:url(#SVGID_00000162323665140895923390000006082889817492764594_);}
	.st65{fill:url(#SVGID_00000138540631102948343110000014551879496172242614_);}
	.st66{fill:url(#SVGID_00000124148252851977936550000011443288753190048694_);}
	.st67{fill:url(#SVGID_00000036241679937210940620000009877239707715606145_);}
</style>
<g>
	<path class="st1" d="M46.1,80.1c12.8,0,25.6,0,38.4,0c1.5,0,2.8-0.6,4-1.6c1.6-1.4,2.1-3.3,2.1-5.4c0-8.7,0-17.3,0-26
		c0-0.2,0-0.5,0-0.7c-0.3-1.3-0.6-2.1-2.6-2c-1,0.1-1.6,0.8-1.6,2.2c0,8.9,0,17.7,0,26.6c0,1.9-0.9,2.7-2.6,2.7
		c-24.9,0-49.9,0-74.8,0c-2,0-2.6-0.6-2.6-2.7c0-8.7,0-17.3,0-26c0-0.5,0-1.1-0.2-1.6c-0.2-0.5-0.7-1.1-1.2-1.2
		c-0.7-0.1-1.5-0.4-2.2,0.3c-0.7,0.7-0.6,1.4-0.6,2.2c0,9,0,18,0,27.1c0,3.1,2.6,6,5.8,6C20.7,80.1,33.4,80.1,46.1,80.1z M46.2,4.2
		c3.3,0,6.7,0,10,0c1.7,0,2.8,0.6,2.6,2.5c-0.1,0.8,0,1.5,0.2,2.3c0.1,0.8,0.9,1.4,1.7,1.5c1.2,0.1,2-0.6,2.2-1.2
		c0.5-1.9,0.4-3.8-0.4-5.6c-1.1-2.6-3.3-3.6-6-3.6c-7-0.1-14,0-21,0c-1.7,0-3.4,0.6-4.5,1.9c-1.6,2-2.1,4.3-1.6,6.8
		c0.2,1.1,0.9,1.8,1.9,1.7c1.2,0,1.9-0.5,2.1-1.7c0.1-0.7,0.1-1.4,0.2-2.1c0-0.4,0-0.8,0.1-1.1c0.4-1.3,1.4-1.4,2.5-1.4
		C39.6,4.2,42.9,4.2,46.2,4.2z"/>
	<linearGradient id="SVGID_1_" gradientUnits="userSpaceOnUse" x1="0" y1="35.8399" x2="92.7185" y2="35.8399">
		<stop  offset="0" style="stop-color:#2352A3"/>
		<stop  offset="1" style="stop-color:#28ADE3"/>
	</linearGradient>
	<path class="st0" d="M0,19.8c0.5-0.9,0.9-2,1.5-2.8c1.2-1.7,3.1-2.1,5.1-2.2c0.2,0,0.4,0,0.6,0c26.1,0,52.2,0,78.3,0
		c2,0,3.8,0.4,5.3,1.8c1,0.9,1.7,2.1,1.7,3.5c0.1,4.7,0.2,9.4,0.2,14.1c0,2.2-0.8,4.2-2.7,5.6c-1.3,0.9-2.7,1.1-4.1,1.4
		c-2.7,0.7-5.5,1.2-8.2,1.8c-3.5,0.8-7,1.6-10.5,2.3c-3.8,0.8-7.6,1.7-11.4,2.5c-0.3,0.1-0.6,0.2-1,0.3c0,2,0,3.9,0,5.9
		c0.1,2-0.8,3-3,2.9c-3.9-0.1-7.8,0-11.8,0c-1.5,0-2.2-0.8-2.2-2.3c0-2.2,0-4.3,0-6.5c-4.7-1.1-9.4-2.1-14-3.2
		c-4.6-1-9.2-2.1-13.8-3.1c-1.7-0.4-3.3-0.8-5-1.1c-2.7-0.5-4.3-2.1-5-4.7c0-0.1-0.1-0.1-0.2-0.2C0,30.5,0,25.1,0,19.8z M54.7,43.9
		c1.9-0.4,3.7-0.8,5.5-1.2c3.1-0.7,6.2-1.4,9.3-2.1c2.6-0.6,5.1-1.1,7.7-1.7c3-0.7,6-1.4,9-2.1c1.7-0.4,2.4-1.1,2.4-2.9
		c0-4.1,0-8.1,0-12.2c0-0.5-0.1-1.2-0.3-1.6C87.7,19,86.7,19,85.6,19c-26.2,0-52.3,0-78.5,0c-0.2,0-0.5,0-0.7,0
		c-1.4-0.1-2.2,1-2.2,2.3c0,4.4,0,8.8,0,13.1c0,1.2,0.8,2.1,2,2.4c2.1,0.4,4.1,0.9,6.2,1.4c2.7,0.6,5.5,1.3,8.2,1.9
		c3.8,0.8,7.5,1.7,11.3,2.5c2,0.4,4,0.9,6,1.3c0-0.6,0-1.1,0-1.7c0.1-1.3,0.8-2.1,2.1-2.1c4.1,0,8.3-0.1,12.4,0
		c1.5,0,2.5,0.6,2.3,2.4C54.7,42.9,54.7,43.4,54.7,43.9z M42.2,44.3c0,2.8,0,5.6,0,8.4c2.8,0,5.5,0,8.3,0c0-2.8,0-5.6,0-8.4
		C47.7,44.3,45,44.3,42.2,44.3z"/>
	<path d="M46.1,80.1c-12.7,0-25.5,0-38.2,0c-3.2,0-5.8-2.8-5.8-6c0-9,0-18,0-27.1c0-0.8,0-1.6,0.6-2.2c0.7-0.7,1.5-0.4,2.2-0.3
		c0.5,0.1,0.9,0.7,1.2,1.2c0.2,0.4,0.2,1,0.2,1.6c0,8.7,0,17.3,0,26c0,2.1,0.6,2.7,2.6,2.7c24.9,0,49.9,0,74.8,0
		c1.7,0,2.6-0.8,2.6-2.7c0-8.9,0-17.7,0-26.6c0-1.3,0.6-2.1,1.6-2.2c2-0.2,2.3,0.6,2.6,2c0,0.2,0,0.5,0,0.7c0,8.7,0,17.3,0,26
		c0,2-0.5,3.9-2.1,5.4c-1.2,1-2.5,1.6-4,1.6C71.7,80.1,58.9,80.1,46.1,80.1z"/>
	<path d="M46.2,4.2c-3.3,0-6.6,0-10,0c-1.1,0-2.1,0.1-2.5,1.4c-0.1,0.4-0.1,0.8-0.1,1.1c-0.1,0.7-0.1,1.4-0.2,2.1
		c-0.2,1.2-0.9,1.7-2.1,1.7c-1,0-1.6-0.6-1.9-1.7C29,6.3,29.5,4,31.1,2c1.1-1.4,2.8-1.9,4.5-1.9c7,0,14-0.1,21,0
		c2.6,0,4.9,1.1,6,3.6c0.8,1.8,0.9,3.7,0.4,5.6c-0.2,0.7-1,1.3-2.2,1.2C60,10.5,59.2,9.9,59.1,9c-0.1-0.8-0.2-1.5-0.2-2.3
		c0.2-1.9-0.9-2.5-2.6-2.5C52.9,4.2,49.6,4.2,46.2,4.2z"/>
</g>
</svg>
