<?xml version="1.0" encoding="utf-8"?>
<!-- Generator: Adobe Illustrator 27.7.0, SVG Export Plug-In . SVG Version: 6.00 Build 0)  -->
<svg version="1.1" id="Layer_1" xmlns="http://www.w3.org/2000/svg" xmlns:xlink="http://www.w3.org/1999/xlink" x="0px" y="0px"
	 viewBox="0 0 94.6 78.3" style="enable-background:new 0 0 94.6 78.3;" xml:space="preserve">
<style type="text/css">
	.st0{fill:url(#SVGID_1_);}
	.st1{fill:#FFFFFF;}
	.st2{fill:url(#SVGID_00000127024842535913230840000002317179285871078538_);}
	.st3{fill:url(#SVGID_00000115495736779897897630000015443512251875894953_);}
	.st4{fill:url(#SVGID_00000016755552463113051820000003530566889551971458_);}
	.st5{fill:url(#SVGID_00000144333512868656207370000017455132555975238822_);}
	.st6{fill:url(#SVGID_00000031199367832488026620000002616352358261705346_);}
	.st7{fill:url(#SVGID_00000166658813491805648400000000067552998758114988_);}
	.st8{fill:url(#SVGID_00000091005300447243897240000016267766488311249301_);}
	.st9{fill:#231F20;}
	.st10{fill:url(#SVGID_00000165955210502764164550000000412686663787803025_);}
	.st11{fill:none;}
	.st12{fill:url(#SVGID_00000039130289321465579120000002105419788334868117_);}
	.st13{fill:url(#SVGID_00000065789911112068282830000013447188131080676278_);}
	.st14{fill:url(#SVGID_00000090983203229637012680000003667728698276724123_);}
	.st15{fill:url(#SVGID_00000118395206906779520850000000838658116287887238_);}
	.st16{fill:url(#SVGID_00000111165117249370840490000014728116712631850132_);}
	.st17{fill:url(#SVGID_00000126287005526821831330000001712685872287852423_);}
	.st18{fill:url(#SVGID_00000163791388391671036090000017511900004452465545_);}
	.st19{fill:url(#SVGID_00000116946730325166571300000012973272281349414290_);}
	.st20{fill:url(#SVGID_00000110444081642219385870000001451485172354662790_);}
	.st21{fill:url(#SVGID_00000069372627385909205530000000412743013725603767_);}
	.st22{fill:#064295;}
	.st23{fill:url(#SVGID_00000168100484373072800940000017816783558517694355_);}
	.st24{fill:#010101;}
	.st25{fill:url(#SVGID_00000072981528299285580770000018437266776973213582_);}
	.st26{fill:url(#SVGID_00000007387040559155074960000012228569363154250629_);}
	.st27{fill:#DFDFDF;}
	.st28{fill:url(#SVGID_00000104676939604545592350000002714468741682749350_);}
	.st29{fill:url(#SVGID_00000120527545078611547770000004990224661583074220_);}
	.st30{fill:#696969;}
	.st31{fill:url(#SVGID_00000053515615365716374360000008993111089517231784_);}
	.st32{fill:#F2F2F2;}
	.st33{fill:#D6D6D6;}
	.st34{fill:#E4E4E4;}
	.st35{fill:#DDDDDD;}
	.st36{fill:url(#SVGID_00000150811398874573317100000002078595863196409505_);}
	.st37{fill:url(#SVGID_00000034774925948751928230000004802567996965059745_);}
	.st38{fill:url(#SVGID_00000150820865746790097970000013009339894479498392_);}
	.st39{fill:url(#SVGID_00000146490823378910126490000011955548132484440718_);}
	.st40{fill:url(#SVGID_00000046317624481673004410000003725685497969347723_);}
	.st41{fill:url(#SVGID_00000026135408568046310330000012239655637931593405_);}
	.st42{fill:url(#SVGID_00000142868833048277299610000007067283939250660763_);}
	.st43{fill:url(#SVGID_00000120553244787640470150000015438890338778761899_);}
	.st44{fill:url(#SVGID_00000055682495745367319250000004989071806711047340_);}
	.st45{fill:url(#SVGID_00000165235757113604424960000010110978426215469475_);}
	.st46{fill:url(#SVGID_00000036970396741833103220000010872292379940731048_);}
	.st47{fill:url(#SVGID_00000129897081586391278290000011863855265920333747_);}
	.st48{fill:url(#SVGID_00000173847274245269608260000006359439235645804205_);}
	.st49{fill:url(#SVGID_00000007401459104498268340000006211862844632817813_);}
	.st50{fill:url(#SVGID_00000065795885709715892010000003766908418160476568_);}
	.st51{fill:url(#SVGID_00000034047962233567238160000015426446338500962999_);}
	.st52{fill:url(#SVGID_00000020381244352567318960000015668701285121699757_);}
	.st53{fill:url(#SVGID_00000060019121900175008500000007615985318911714473_);}
	.st54{fill:url(#SVGID_00000174567379742542299440000004829426225927511215_);}
	.st55{fill:url(#SVGID_00000100366002769675765150000009777807528125986443_);}
	.st56{fill:url(#SVGID_00000079481401148362653820000013143437939569439409_);}
	.st57{fill:url(#SVGID_00000174560011022575451260000000189190422397022379_);}
	.st58{fill:url(#SVGID_00000104683587685214238220000011017753409512656011_);}
	.st59{fill:url(#SVGID_00000175296200242916817820000001241921602034222987_);}
	.st60{fill:#989898;}
	.st61{fill:url(#SVGID_00000067233478638142444900000009401464037364148621_);}
	.st62{fill:url(#SVGID_00000163770103574181250960000009094172791467004289_);}
	.st63{fill:url(#SVGID_00000026886140097215967040000015137316154994444935_);}
	.st64{fill:url(#SVGID_00000123429170443829521750000015875435544619260545_);}
	.st65{fill:url(#SVGID_00000022519384243684746010000012758528887143900033_);}
	.st66{fill:url(#SVGID_00000102544431298102077970000009066654010496942752_);}
	.st67{fill:url(#SVGID_00000152223023422627170670000014267228767489166734_);}
</style>
<g>
	<path d="M0,52.6c0.7-1.7,1.8-2.9,3.8-3c0.6,0,1.7-2.9,1.3-3.4c-1.6-2.4-1.4-3.9,0.6-5.9c0.5-0.5,1.1-1.1,1.6-1.6
		c1.5-1.4,3.5-1.6,5.1-0.4c0.5,0.4,0.9,0.5,1.5,0.1c0,0,0.1-0.1,0.2-0.1c1.3-0.3,2.1-1,2.4-2.4c0.3-1.7,1.8-2.4,3.5-2.5
		c1-0.1,2.1,0,3.1,0c2.1,0.1,3.6,1.4,3.8,3.5c0.1,0.5,0.2,0.8,0.7,0.9c0.2,0,0.4,0.1,0.6,0.2c1,0.6,1.9,0.7,3.1-0.1
		c1.2-0.9,3-0.6,4.2,0.5c0.9,0.8,1.7,1.7,2.5,2.5c1.2,1.3,1.4,3.3,0.3,4.8c-0.5,0.6-0.4,1.1-0.2,1.8c0.5,1.2,1,2.1,2.5,2.3
		c1.6,0.3,2.4,1.7,2.5,3.3c0.1,1.2,0.1,2.3,0,3.5c-0.1,2-1.4,3.4-3.4,3.6c-0.6,0.1-0.9,0.3-1,0.8c0,0.1,0,0.1-0.1,0.2
		c-0.6,1.2-0.9,2.2,0,3.6c0.9,1.3,0.5,2.8-0.6,4c-0.8,0.9-1.6,1.8-2.5,2.5c-1.4,1.3-3.3,1.3-4.9,0.1c-0.5-0.4-0.9-0.5-1.4-0.1
		c-0.1,0.1-0.2,0.1-0.3,0.1c-1.2,0.3-2,0.9-2.2,2.3c-0.2,1.6-1.9,2.6-3.5,2.6c-1,0-2.1,0-3.1,0c-2,0-3.5-1.4-3.8-3.4
		c-0.1-0.6-0.3-1-0.9-1.1c-0.1,0-0.2-0.1-0.3-0.1c-1.1-0.6-2-0.7-3.1,0.1c-1.4,0.9-2.9,0.6-4.2-0.5c-0.9-0.8-1.7-1.7-2.6-2.5
		c-1.3-1.4-1.3-3.4-0.1-4.9c0.4-0.5,0.5-0.9,0.1-1.4C5,62.7,5,62.6,5,62.5c-0.4-1.2-0.9-2.1-2.4-2.4c-1.4-0.2-2-1.5-2.5-2.7
		C0,55.8,0,54.2,0,52.6z M35.3,43.7c-0.2-0.5-0.6-0.8-1-1.1c-1.3-1.3-1.3-1.3-2.8-0.2c-0.9,0.7-1.7,0.8-2.6,0.2
		c-1.2-0.7-2.5-1.2-3.8-1.6c-1-0.2-1.5-0.9-1.7-1.9c-0.3-2-0.3-2-2.2-2c-1.3,0-1.4-0.3-1.5,1.4c-0.2,1.8-0.4,2.1-2.2,2.6
		c-1.1,0.3-2.2,0.8-3.2,1.4c-1.2,0.7-1.7,0.7-2.8-0.2c-1.4-1.1-1.4-1.1-2.6,0.2c-1.2,1.2-1.2,1.2-0.1,2.5C9.6,46,9.7,46.6,9,47.8
		c-0.7,1.2-1.2,2.4-1.5,3.7c-0.3,1.1-0.9,1.6-2,1.7c-1.8,0.2-1.8,0.2-1.8,2.1c0,1.5,0,1.5,1.5,1.7c1.6,0.2,2,0.5,2.4,2
		c0.3,1.2,0.8,2.3,1.4,3.4c0.6,1,0.5,1.9-0.2,2.8c-1.1,1.4-1.1,1.4,0.2,2.6c1.1,1.1,1.1,1.1,2.4,0.1c1.1-0.9,1.7-1,2.9-0.2
		c1.1,0.6,2.2,1.1,3.4,1.4c1.2,0.3,1.8,1,2,2.2C19.9,73,20,73,21.6,73c1.7,0,1.7,0,1.8-1.6c0.1-1.4,0.5-1.9,1.9-2.2
		c1.2-0.3,2.3-0.8,3.4-1.4c1.3-0.7,1.8-0.7,3,0.2c1.3,1,1.3,1,2.4-0.1c1.2-1.2,1.2-1.2,0.2-2.6c-0.9-1.2-0.9-1.6-0.2-2.9
		c0.6-1.1,1.1-2.1,1.4-3.3c0.4-1.5,0.8-1.9,2.4-2c1.8-0.2,1.4-0.1,1.5-1.7c0-0.1,0-0.1,0-0.2c0-1.7,0-1.7-1.7-1.9
		c-1-0.1-1.8-0.4-2.1-1.5c-0.4-1.5-1-2.9-1.8-4.2c-0.4-0.8-0.4-1.5,0.2-2.2c0.3-0.4,0.6-0.8,0.9-1.2C35.1,44,35.2,43.8,35.3,43.7z"
		/>
	<path d="M81.4,53.2c-1.6,0-2.7-0.5-3.6-1.4c-0.5-0.5-1-0.5-1.6-0.2c-1,0.5-2.1,1-3.1,1.3c-0.6,0.2-0.9,0.5-1,1.2
		c-0.2,2.6-1.4,4.3-3.6,4.6c-2.1,0.4-4.4,0.4-6.5,0c-2-0.3-3.3-1.9-3.5-3.9c-0.1-1.2-0.4-1.9-1.7-2.1c-0.7-0.1-1.4-0.4-2-0.8
		c-1-0.7-1.7-0.5-2.6,0.3c-1.2,1.1-2.7,1.3-4.3,0.9c-1.6-0.5-5.7-4.6-6.1-6.1c-0.4-1.5-0.3-3,0.8-4.2c0.9-1,0.9-1.8,0.3-2.9
		c-0.5-0.8-0.8-1.7-1.1-2.6c-0.2-0.5-0.4-0.7-0.9-0.8c-3.5-0.4-5-2-5-5.6c0-1.2,0-2.3,0-3.5c0.1-2.5,1.8-4.4,4.2-4.6
		c1.1-0.1,1.7-0.4,2-1.6c0.2-1,0.8-1.9,1.2-2.9c0.2-0.5,0.2-0.8-0.1-1.1c-0.3-0.3-0.5-0.6-0.7-0.9c-1.3-1.9-1.2-4.2,0.4-5.9
		c1-1.1,2.1-2.2,3.3-3.3c1.8-1.7,4.2-1.8,6.2-0.1c0.8,0.7,1.5,0.8,2.4,0.2c0.9-0.5,1.9-0.8,2.9-1.2C58,5.8,58.2,5.6,58.2,5
		c0-0.5,0.1-1,0.2-1.5C59,1.5,60.7,0.1,63,0c1.2,0,2.5,0,3.7,0c3.2,0,5,1.5,5.3,4.7c0.1,0.8,0.3,1.1,1.1,1.3
		c1.1,0.3,2.2,0.7,3.1,1.3c0.6,0.4,1,0.3,1.5-0.2c1.2-1.1,2.7-1.7,4.4-1.3c0.9,0.2,1.7,0.7,2.4,1.3c0.9,0.9,1.9,1.9,2.8,2.8
		c1.9,2,2.1,4.4,0.3,6.6c-0.6,0.8-0.8,1.4-0.2,2.2c0.5,0.9,0.9,2,1.2,3c0.2,0.5,0.4,0.8,0.9,0.8c0.6,0,1.2,0.1,1.7,0.3
		c1.9,0.6,3.2,2.2,3.3,4.2c0,1.6,0,3.1,0,4.7c-0.1,2.5-1.9,4.3-4.7,4.5c-0.8,0.1-1.1,0.4-1.3,1.1c-0.3,1.1-0.7,2.2-1.3,3.1
		c-0.4,0.6-0.3,1,0.2,1.5c1.2,1.3,1.7,2.8,1.3,4.6c-0.5,1.9-4.7,6-6.5,6.4C81.8,53.2,81.4,53.2,81.4,53.2z M85.2,13.5
		c0-0.3-0.2-0.6-0.4-0.8c-1-1-1.9-1.9-2.9-2.9c-0.5-0.5-1-0.5-1.5-0.1c-0.6,0.5-1.3,1-2,1.5c-0.8,0.6-1.6,0.7-2.5,0.1
		c-1.8-1.1-3.7-1.9-5.8-2.4c-1.1-0.3-1.6-0.8-1.7-2c-0.1-0.8-0.2-1.5-0.3-2.3c-0.1-0.7-0.5-1-1.2-1c-1.3,0-2.6,0-3.9,0
		c-0.7,0-1.1,0.3-1.2,1.1c-0.1,0.8-0.2,1.7-0.3,2.5c-0.1,0.9-0.6,1.5-1.4,1.7c-2.2,0.5-4.2,1.4-6.1,2.5c-0.8,0.5-1.6,0.4-2.3-0.2
		c-0.6-0.5-1.3-1-2-1.5c-0.5-0.4-1.1-0.4-1.6,0.1c-0.9,0.9-1.9,1.9-2.8,2.8c-0.5,0.5-0.5,1-0.1,1.6c0.5,0.6,1,1.3,1.5,2
		c0.6,0.8,0.7,1.5,0.2,2.4c-1.1,1.9-1.9,3.8-2.5,5.9c-0.2,0.9-0.9,1.4-1.8,1.5c-0.8,0.1-1.6,0.2-2.4,0.3c-0.8,0.1-1.1,0.5-1.1,1.3
		c0,1.2,0,2.5,0,3.7c0,0.8,0.4,1.2,1.2,1.3c0.8,0.1,1.5,0.2,2.3,0.2c1,0.1,1.6,0.6,1.8,1.6c0.5,2.1,1.3,4.1,2.5,5.9
		c0.5,0.8,0.4,1.6-0.2,2.4c-0.5,0.6-1,1.3-1.5,2c-0.5,0.6-0.4,1.1,0.1,1.6c0.9,0.9,1.8,1.8,2.7,2.7c0.6,0.6,1.1,0.6,1.7,0.1
		c0.6-0.5,1.2-0.9,1.8-1.4c0.8-0.6,1.6-0.7,2.5-0.2c1.8,1.1,3.8,1.9,5.9,2.4c1.1,0.3,1.5,0.8,1.6,2c0.1,0.8,0.2,1.6,0.3,2.4
		c0.1,0.7,0.5,1,1.1,1c1.3,0,2.6,0,4,0c0.7,0,1.1-0.3,1.2-1c0.1-0.8,0.2-1.6,0.3-2.4c0.1-1,0.6-1.7,1.6-1.9c2.1-0.5,4.1-1.3,5.9-2.5
		c0.8-0.5,1.6-0.4,2.4,0.2c0.6,0.5,1.3,1,2,1.5c0.5,0.4,1,0.4,1.5-0.1c1-1,1.9-1.9,2.9-2.9c0.5-0.5,0.5-1,0.1-1.5
		c-0.5-0.6-1-1.3-1.5-1.9c-0.7-0.8-0.8-1.7-0.2-2.6c1.1-1.8,1.9-3.7,2.4-5.7c0.3-1.1,0.8-1.6,2-1.7c0.8-0.1,1.5-0.2,2.3-0.3
		c0.7-0.1,1-0.5,1-1.2c0-1.3,0-2.6,0-4c0-0.7-0.3-1.1-1-1.1c-0.8-0.1-1.6-0.2-2.5-0.3c-0.9-0.1-1.6-0.6-1.8-1.5
		c-0.5-2.1-1.4-4.1-2.5-6c-0.5-0.8-0.4-1.6,0.2-2.3c0.5-0.6,1-1.3,1.5-1.9C85,14.1,85.2,13.8,85.2,13.5z"/>
	<linearGradient id="SVGID_1_" gradientUnits="userSpaceOnUse" x1="13.0638" y1="12.6006" x2="41.636" y2="12.6006">
		<stop  offset="0" style="stop-color:#2352A3"/>
		<stop  offset="1" style="stop-color:#28ADE3"/>
	</linearGradient>
	<path class="st0" d="M20.6,19c0.9-0.5,1.7-0.6,2.5,0.1c0.8,0.7,0.8,2.1-0.1,2.8c-1.4,1.1-2.8,2.1-4.3,3c-0.9,0.6-1.8,0.3-2.5-0.6
		c-0.9-1.3-1.8-2.6-2.7-3.9c-0.6-1-0.5-2,0.3-2.6c0.8-0.6,1.8-0.5,2.6,0.4c0.1,0.1,0.2,0.2,0.3,0.4c0.2-0.2,0.2-0.4,0.3-0.7
		C18.8,7.4,28-0.2,38.7,0c0.4,0,0.9,0,1.3,0.1c1.1,0.2,1.7,0.9,1.7,2c-0.1,1-0.9,1.7-1.9,1.7c-1.2-0.1-2.5,0-3.7,0.1
		C28.4,4.6,21.2,11.6,20.6,19z"/>
	
		<linearGradient id="SVGID_00000067202039206175446610000016714075566513912467_" gradientUnits="userSpaceOnUse" x1="47.9633" y1="70.1347" x2="81.5147" y2="70.1347">
		<stop  offset="0" style="stop-color:#2352A3"/>
		<stop  offset="1" style="stop-color:#28ADE3"/>
	</linearGradient>
	<path style="fill:url(#SVGID_00000067202039206175446610000016714075566513912467_);" d="M74.5,66.5c-1.7-0.1-2.6-1-2.3-2.2
		c0.2-0.8,0.7-1.4,1.5-1.5c1.6-0.3,3.1-0.6,4.7-0.8c1.3-0.2,2.1,0.4,2.3,1.7c0.3,1.4,0.5,2.8,0.7,4.2c0.2,1.5-0.2,2.4-1.4,2.6
		c-0.8,0.2-2.1-0.4-2.3-1.8c0-0.1-0.1-0.2-0.1-0.3c-1.2,1.8-2.6,3.4-4.2,4.7c-6.8,5.7-16.2,6.7-24,2.6c-1.4-0.7-1.9-1.7-1.3-2.8
		c0.6-1,1.6-1.2,3-0.5c6.7,3.3,13.1,2.8,19.2-1.5C72,69.8,73.3,68.3,74.5,66.5z"/>
	<path d="M21.6,45.2c5.5,0,9.8,4.4,9.8,9.9c0,5.5-4.4,9.9-9.8,9.9c-5.4,0-10-4.5-9.9-9.9C11.7,49.6,16.2,45.2,21.6,45.2z M21.6,48.9
		c-3.4,0-6.2,2.7-6.2,6.1c0,3.4,2.8,6.2,6.2,6.2c3.4,0,6.1-2.8,6.2-6.2C27.8,51.6,25,48.9,21.6,48.9z"/>
	<path d="M55.7,29.5c0-5.2,4.2-9.4,9.4-9.4c5.2,0,9.5,4.2,9.4,9.4c0,5.2-4.3,9.4-9.4,9.4C60,38.9,55.7,34.7,55.7,29.5z M59.4,29.5
		c0,3.1,2.6,5.7,5.7,5.7c3.2,0,5.8-2.6,5.7-5.8c0-3.2-2.6-5.7-5.8-5.7C61.9,23.8,59.4,26.4,59.4,29.5z"/>
</g>
</svg>
