<?xml version="1.0" encoding="utf-8"?>
<!-- Generator: Adobe Illustrator 27.7.0, SVG Export Plug-In . SVG Version: 6.00 Build 0)  -->
<svg version="1.1" id="Layer_1" xmlns="http://www.w3.org/2000/svg" xmlns:xlink="http://www.w3.org/1999/xlink" x="0px" y="0px"
	 viewBox="0 0 92.9 93" style="enable-background:new 0 0 92.9 93;" xml:space="preserve">
<style type="text/css">
	.st0{fill:url(#SVGID_1_);}
	.st1{fill:#FFFFFF;}
	.st2{fill:url(#SVGID_00000160185248295310816940000013617962012290432900_);}
	.st3{fill:url(#SVGID_00000126283871858562565850000003212022978112408493_);}
	.st4{fill:url(#SVGID_00000032626122218888281240000011461888226388424599_);}
	.st5{fill:url(#SVGID_00000057860921043389411430000015470219352832986006_);}
	.st6{fill:url(#SVGID_00000040558611628034957790000016865840819369299584_);}
	.st7{fill:url(#SVGID_00000139289370892820293110000007104937295382740884_);}
	.st8{fill:url(#SVGID_00000013899282136512419700000010305609535480455823_);}
	.st9{fill:#231F20;}
	.st10{fill:url(#SVGID_00000029757128899280301850000004555697988004865214_);}
	.st11{fill:none;}
	.st12{fill:url(#SVGID_00000183935670020266409970000004755201517768509331_);}
	.st13{fill:url(#SVGID_00000008128201948323749630000015051368055769262267_);}
	.st14{fill:url(#SVGID_00000090984819305979352960000004363674451432788365_);}
	.st15{fill:url(#SVGID_00000007411784032628141650000007909907093077515442_);}
	.st16{fill:url(#SVGID_00000000188174115158442200000003932270473079163071_);}
	.st17{fill:url(#SVGID_00000060737740470000989530000008900504387549121213_);}
	.st18{fill:url(#SVGID_00000017501472855031340810000005016367679676690622_);}
	.st19{fill:url(#SVGID_00000103248088009509029880000002444826344801654157_);}
	.st20{fill:url(#SVGID_00000039107488143733756130000009448970322348365492_);}
	.st21{fill:url(#SVGID_00000159468205906988341260000005956233776619279000_);}
	.st22{fill:#064295;}
	.st23{fill:url(#SVGID_00000031172694962328534550000008188295518191489697_);}
	.st24{fill:#010101;}
	.st25{fill:url(#SVGID_00000155141917935122589920000012507031253992808874_);}
	.st26{fill:url(#SVGID_00000108281765729594686890000013846291949754641816_);}
	.st27{fill:#DFDFDF;}
	.st28{fill:url(#SVGID_00000122679027757053760650000004667368682386680502_);}
	.st29{fill:url(#SVGID_00000098928535053182037850000013052922025042384550_);}
	.st30{fill:#696969;}
	.st31{fill:url(#SVGID_00000007412317228274838040000016555558601490955945_);}
	.st32{fill:#F2F2F2;}
	.st33{fill:#D6D6D6;}
	.st34{fill:#E4E4E4;}
	.st35{fill:#DDDDDD;}
	.st36{fill:url(#SVGID_00000061445463906178866410000010216701225489459093_);}
	.st37{fill:url(#SVGID_00000084497281287072471990000015908621940488834238_);}
	.st38{fill:url(#SVGID_00000128470585306535444870000005843633180461045929_);}
	.st39{fill:url(#SVGID_00000055690974630492830410000006283736924290149003_);}
	.st40{fill:url(#SVGID_00000179638040295950133670000001185256866361921959_);}
	.st41{fill:url(#SVGID_00000078762663440646317980000011069114343758614402_);}
	.st42{fill:url(#SVGID_00000080208491618300671990000013986671960209999033_);}
	.st43{fill:url(#SVGID_00000049195342951852161950000007699391700031869369_);}
	.st44{fill:url(#SVGID_00000139993394238543392530000013176110036458986678_);}
	.st45{fill:url(#SVGID_00000008137023380434252020000015526786756949050523_);}
	.st46{fill:url(#SVGID_00000101807480671977912620000000889677308619269823_);}
	.st47{fill:url(#SVGID_00000041293223198949704410000014661635681430384816_);}
	.st48{fill:url(#SVGID_00000082335264078642632570000013282293907026273715_);}
	.st49{fill:url(#SVGID_00000108990972261784905980000002048890943728402609_);}
	.st50{fill:url(#SVGID_00000076587976211799809370000006563929594126384781_);}
	.st51{fill:url(#SVGID_00000023962177067186463120000004398780524049243539_);}
	.st52{fill:url(#SVGID_00000022529935370529022260000002086887672274763392_);}
	.st53{fill:url(#SVGID_00000100345623919078219350000011396850755078563466_);}
	.st54{fill:url(#SVGID_00000122000875782305651270000017173631774109622932_);}
	.st55{fill:url(#SVGID_00000119808034434068361780000004936868074677516953_);}
	.st56{fill:url(#SVGID_00000083057519583763758670000015659437720527220906_);}
	.st57{fill:url(#SVGID_00000060012944851489681980000010857164868665278897_);}
	.st58{fill:url(#SVGID_00000076588841636061227540000012885178930760602513_);}
	.st59{fill:url(#SVGID_00000183969613421172569660000012888539398487346337_);}
	.st60{fill:#989898;}
	.st61{fill:url(#SVGID_00000047780497846681347050000006118137493579612832_);}
	.st62{fill:url(#SVGID_00000075123259316068516180000015377254681828309926_);}
	.st63{fill:url(#SVGID_00000103963694349600336250000009415385929810343854_);}
	.st64{fill:url(#SVGID_00000152952718231832950320000011559187877005764010_);}
	.st65{fill:url(#SVGID_00000089573265104558724700000010280883300515762330_);}
	.st66{fill:url(#SVGID_00000021092959232080173100000013302607441260462761_);}
	.st67{fill:url(#SVGID_00000023257124976897346370000002067292587592866997_);}
</style>
<g>
	<path d="M35.8,93c-0.6-0.1-1.1-0.3-1.7-0.5c-5.1-1.5-8.5-6.7-7.7-11.8c0.9-5.7,5.5-9.6,11.1-9.4c0.8,0,1-0.2,1.1-0.9
		c0.6-2.4,1.2-4.8,1.9-7.1c0.2-0.6,0.1-0.9-0.5-1.1c-5.8-2.5-9.3-7-10.3-13.2c-0.1-0.7-0.3-0.9-1-0.9c-4.2,0-8.3,0-12.5,0
		c-0.6,0-0.9,0.2-1.1,0.8c-1.2,3.8-5,6-8.7,5.3c-3.9-0.8-6.7-4.3-6.3-8.1c0.3-4,3.5-7.1,7.5-7.3c3.4-0.1,6.5,2.1,7.6,5.4
		c0.2,0.6,0.5,0.8,1.1,0.8c4.2,0,8.3,0,12.5,0c0.6,0,0.9-0.2,1-0.8c0.6-4.4,2.7-8.1,6.2-10.9c0.4-0.4,0.4-0.6,0.2-1.1
		c-1.9-3.5-3.7-7-5.6-10.5c-0.3-0.5-0.6-0.6-1.1-0.5c-5.9,1.7-12-1.8-13.5-7.8c-1.5-5.8,2-11.7,7.9-13.2c4.9-1.2,9.9,1.1,12.3,5.6
		c2.3,4.4,1.3,9.9-2.5,13.2c-0.6,0.5-0.6,0.9-0.2,1.5c1.8,3.3,3.6,6.6,5.3,10c0.3,0.6,0.5,0.7,1.2,0.4c5.2-2.2,10.4-1.9,15.3,0.9
		c0.6,0.3,0.9,0.3,1.2-0.3c2.3-3.1,4.6-6.2,6.9-9.2c0.4-0.5,0.4-0.7,0-1.2c-3-3.5-3.5-8.4-1.3-12.5c2.2-4,6.8-6.1,11.3-5.4
		c4.5,0.8,8.1,4.3,8.9,8.9c0.7,4.2-0.7,7.8-4,10.4c-3.4,2.6-7.2,3.1-11.1,1.4c-0.6-0.3-0.9-0.2-1.3,0.3c-2.3,3.1-4.6,6.2-6.9,9.2
		c-0.4,0.6-0.3,0.9,0.1,1.4c4.5,4.9,5.8,10.6,3.8,17c-0.2,0.6-0.2,0.9,0.5,1.2c5.1,2.4,10.2,4.8,15.2,7.2c0.5,0.2,0.8,0.2,1.2-0.2
		c2.4-2.7,6.1-3.3,9.2-1.7c3.1,1.6,4.8,5.1,4,8.5c-0.7,3.3-3.7,5.9-7.1,6.1c-4.9,0.3-8.9-4.1-8-8.9c0.1-0.5-0.1-0.7-0.5-0.9
		c-5.2-2.4-10.3-4.9-15.5-7.3c-0.5-0.2-0.7-0.1-1,0.3c-4,5.6-9.4,8.1-16.2,7.4c-0.5-0.1-0.7,0.1-0.8,0.5c-0.6,2.5-1.3,5-2,7.6
		c-0.1,0.4-0.1,0.7,0.3,0.9c3.8,1.7,6.8,6.1,6,11.3c-0.8,5.4-5.1,8.6-9.1,9.1c-0.1,0-0.2,0.1-0.2,0.1C37.6,93,36.7,93,35.8,93z
		 M60.4,46.6c0-7.6-6.2-13.9-13.9-13.9c-7.7,0-14,6.2-14,13.9c0,7.6,6.2,13.9,13.9,14C54.1,60.6,60.4,54.3,60.4,46.6z M26.3,18.7
		c4.3,0,7.8-3.5,7.8-7.7c0-4.2-3.5-7.8-7.7-7.8c-4.3,0-7.7,3.5-7.7,7.7C18.6,15.2,22.1,18.7,26.3,18.7z M29.5,82.1
		c0,4.3,3.4,7.7,7.7,7.8c4.3,0,7.8-3.4,7.8-7.7c0-4.2-3.5-7.8-7.7-7.8C33,74.4,29.5,77.9,29.5,82.1z M79,14c0-4.3-3.5-7.7-7.8-7.7
		c-4.3,0-7.7,3.5-7.7,7.8c0,4.3,3.5,7.7,7.8,7.7C75.5,21.8,79,18.3,79,14z M7.7,51.2c2.6,0,4.6-2,4.6-4.6c0-2.6-2-4.7-4.6-4.7
		c-2.6,0-4.7,2.1-4.7,4.6C3.1,49.1,5.2,51.2,7.7,51.2z M85.2,60.5c-2.6,0-4.6,2-4.6,4.6c0,2.6,2,4.7,4.6,4.7c2.6,0,4.7-2,4.7-4.6
		C89.8,62.6,87.8,60.5,85.2,60.5z"/>
	<linearGradient id="SVGID_1_" gradientUnits="userSpaceOnUse" x1="35.6215" y1="41.9198" x2="47.9861" y2="41.9198">
		<stop  offset="0" style="stop-color:#2352A3"/>
		<stop  offset="1" style="stop-color:#28ADE3"/>
	</linearGradient>
	<path class="st0" d="M35.6,46.2c0.2-5.6,4.9-10.3,10.5-10.4c1.1,0,1.8,0.5,1.9,1.5c0,1-0.6,1.5-1.7,1.6c-4.4,0.3-7.3,3.3-7.6,7.5
		c-0.1,1.1-0.7,1.8-1.6,1.7C36.2,48.1,35.6,47.3,35.6,46.2z"/>
	
		<linearGradient id="SVGID_00000106834348556645205580000010011375336462168491_" gradientUnits="userSpaceOnUse" x1="21.7187" y1="9.3975" x2="27.8594" y2="9.3975">
		<stop  offset="0" style="stop-color:#2352A3"/>
		<stop  offset="1" style="stop-color:#28ADE3"/>
	</linearGradient>
	<path style="fill:url(#SVGID_00000106834348556645205580000010011375336462168491_);" d="M21.7,10.7c0-2.3,2.1-4.3,4.4-4.4
		c1,0,1.7,0.5,1.8,1.4c0.1,0.9-0.4,1.6-1.4,1.7c-1,0.1-1.5,0.6-1.7,1.6c-0.2,1-0.8,1.5-1.7,1.4C22.2,12.4,21.7,11.7,21.7,10.7z"/>
	<path d="M32.6,81.9c0.1-2.3,2-4.3,4.3-4.4c1-0.1,1.8,0.5,1.8,1.4c0.1,0.8-0.5,1.6-1.5,1.7c-1,0.1-1.5,0.7-1.6,1.7
		c-0.1,1-0.8,1.5-1.7,1.4C33,83.6,32.5,82.9,32.6,81.9z"/>
	
		<linearGradient id="SVGID_00000006707010801549252900000009260629557689070254_" gradientUnits="userSpaceOnUse" x1="66.595" y1="12.4981" x2="72.7854" y2="12.4981">
		<stop  offset="0" style="stop-color:#2352A3"/>
		<stop  offset="1" style="stop-color:#28ADE3"/>
	</linearGradient>
	<path style="fill:url(#SVGID_00000006707010801549252900000009260629557689070254_);" d="M66.6,13.9c0-2.4,2.2-4.5,4.6-4.5
		c0.9,0,1.5,0.6,1.6,1.4c0.1,0.8-0.4,1.5-1.3,1.6c-1.2,0.2-1.7,0.7-1.9,1.9c-0.1,0.8-0.8,1.3-1.7,1.2C67.1,15.5,66.6,14.8,66.6,13.9
		z"/>
</g>
</svg>
