<?xml version="1.0" encoding="utf-8"?>
<!-- Generator: Adobe Illustrator 27.7.0, SVG Export Plug-In . SVG Version: 6.00 Build 0)  -->
<svg version="1.1" id="Layer_1" xmlns="http://www.w3.org/2000/svg" xmlns:xlink="http://www.w3.org/1999/xlink" x="0px" y="0px"
	 viewBox="0 0 81.6 58.8" style="enable-background:new 0 0 81.6 58.8;" xml:space="preserve">
<style type="text/css">
	.st0{fill:url(#SVGID_1_);}
	.st1{fill:#FFFFFF;}
	.st2{fill:url(#SVGID_00000008137670039636284540000004172500397813271194_);}
	.st3{fill:url(#SVGID_00000112612995738838476950000007630985708509263492_);}
	.st4{fill:url(#SVGID_00000026121770737780676310000002942972144957625751_);}
	.st5{fill:url(#SVGID_00000142174142316899793550000015987260192375126678_);}
	.st6{fill:url(#SVGID_00000165935347289865336230000002133903083294812049_);}
	.st7{fill:url(#SVGID_00000056396207516050545260000008615785264803299973_);}
	.st8{fill:url(#SVGID_00000010991193262298420430000005645283810451416253_);}
	.st9{fill:#231F20;}
	.st10{fill:url(#SVGID_00000004533005161288019540000011557420175274307252_);}
	.st11{fill:none;}
	.st12{fill:url(#SVGID_00000059991077664612443680000003617394135582367678_);}
	.st13{fill:url(#SVGID_00000084506945855971269960000002963807496391486618_);}
	.st14{fill:url(#SVGID_00000132076218611161914020000000917084610317249724_);}
	.st15{fill:url(#SVGID_00000052061850753097747320000016806456607062272676_);}
	.st16{fill:url(#SVGID_00000044857548312442217050000013682355683703149459_);}
	.st17{fill:url(#SVGID_00000158018065306087059250000002972286131896863130_);}
	.st18{fill:url(#SVGID_00000152960046656391419150000016516496758438763917_);}
	.st19{fill:url(#SVGID_00000060017424716489875140000012375663613574653618_);}
	.st20{fill:url(#SVGID_00000126287851458486011750000015130132721643930243_);}
	.st21{fill:url(#SVGID_00000112596254566905459900000008251764540083118006_);}
	.st22{fill:#064295;}
	.st23{fill:url(#SVGID_00000089558874643920367630000017396941750142709142_);}
	.st24{fill:#010101;}
	.st25{fill:url(#SVGID_00000163060798778703536100000006574602908549425815_);}
	.st26{fill:url(#SVGID_00000101082027848994128020000012878505754975607938_);}
	.st27{fill:#DFDFDF;}
	.st28{fill:url(#SVGID_00000090286193726515023880000013768261277299379871_);}
	.st29{fill:url(#SVGID_00000059267398995301550000000011034901173018694796_);}
	.st30{fill:#696969;}
	.st31{fill:url(#SVGID_00000034808485569325324430000016122816219285325235_);}
	.st32{fill:#F2F2F2;}
	.st33{fill:#D6D6D6;}
	.st34{fill:#E4E4E4;}
	.st35{fill:#DDDDDD;}
	.st36{fill:url(#SVGID_00000084509506619990078740000006453606987742620811_);}
	.st37{fill:url(#SVGID_00000057864190470461084320000010367599189572859059_);}
	.st38{fill:url(#SVGID_00000063634204074413665500000011716605770719577244_);}
	.st39{fill:url(#SVGID_00000064340950620128153780000000956153095174002846_);}
	.st40{fill:url(#SVGID_00000121272991383381495920000000560056364517300384_);}
	.st41{fill:url(#SVGID_00000137837096799068670480000002294140305939851136_);}
	.st42{fill:url(#SVGID_00000047039648232550521280000005157218443621363120_);}
	.st43{fill:url(#SVGID_00000152232116330148084840000001998278830530317988_);}
	.st44{fill:url(#SVGID_00000108284542464962702290000003419581230290294413_);}
	.st45{fill:url(#SVGID_00000109748722654949111410000010245918130934394812_);}
	.st46{fill:url(#SVGID_00000058555999475978333150000017114304872536911026_);}
	.st47{fill:url(#SVGID_00000007428740142942079450000017402793818205460136_);}
	.st48{fill:url(#SVGID_00000018932950366262209760000003579900743749336993_);}
	.st49{fill:url(#SVGID_00000065047628423506177540000009068413722454166447_);}
	.st50{fill:url(#SVGID_00000062178253759961691800000014395533200297794722_);}
	.st51{fill:url(#SVGID_00000111187609235325319390000010954232229188637064_);}
	.st52{fill:url(#SVGID_00000098222749534883320790000012404521038789052606_);}
	.st53{fill:url(#SVGID_00000045577871006316047500000000048012228945961907_);}
	.st54{fill:url(#SVGID_00000063602688670790587510000000520968643756901028_);}
	.st55{fill:url(#SVGID_00000053534320710005318390000009118575182235302832_);}
	.st56{fill:url(#SVGID_00000033357250191669510560000017201700505320216961_);}
	.st57{fill:url(#SVGID_00000034057367095842083890000018092842571923091380_);}
	.st58{fill:url(#SVGID_00000072277335217856764620000014935313093374613644_);}
	.st59{fill:url(#SVGID_00000122699193862308454530000001610860541677854141_);}
	.st60{fill:#989898;}
	.st61{fill:url(#SVGID_00000101796819367541204650000014551916387620069522_);}
	.st62{fill:url(#SVGID_00000068638832183887979730000009651663105277128879_);}
	.st63{fill:url(#SVGID_00000154409282732145660550000008851932607981670020_);}
	.st64{fill:url(#SVGID_00000138532692488415968390000013277421594310593191_);}
	.st65{fill:url(#SVGID_00000159445633514037697040000007459991862243538615_);}
	.st66{fill:url(#SVGID_00000127753534851956490330000004951378491914136980_);}
	.st67{fill:url(#SVGID_00000144318029138965952580000003721179330968623013_);}
</style>
<g>
	<path class="st24" d="M0,26c0.1-0.7,0.2-1.3,0.3-2c0.5-2.5,0.9-5,1.6-7.4c1.2-3.9,3-7.5,5.4-10.7c1.4-1.8,2.9-3.6,4.4-5.3
		c1-1.2,2.7-0.6,3,0.6c0.1,0.5-0.1,1.1-0.4,1.5c-1,1.3-2.1,2.4-3.1,3.7C8,10.6,5.7,15.2,4.5,20.3c-0.5,2.1-0.7,4.2-1,6.3
		c-0.2,1.6-0.3,3.3-0.2,5c0.3,4.2,1.2,8.2,2.8,12.1c1.5,3.5,3.4,6.8,5.9,9.7c0.7,0.8,1.4,1.7,2.2,2.5c0.7,0.8,0.7,1.6,0,2.3
		c-0.7,0.7-1.7,0.8-2.4,0.1c-2.2-2.2-4.2-4.7-5.8-7.4c-2.5-4-4.2-8.3-5.2-12.9c-0.4-1.6-0.5-3.2-0.7-4.8c0-0.1-0.1-0.3-0.2-0.4
		C0,30.6,0,28.3,0,26z"/>
	<linearGradient id="SVGID_1_" gradientUnits="userSpaceOnUse" x1="23.7575" y1="29.4238" x2="57.7807" y2="29.4238">
		<stop  offset="0" style="stop-color:#2352A3"/>
		<stop  offset="1" style="stop-color:#28ADE3"/>
	</linearGradient>
	<path class="st0" d="M36.9,32.8c-2.2,0-4.4,0-6.6,0c-1.5,0-3.1,0-4.6,0c-0.8,0-1.3-0.4-1.7-1c-0.3-0.6-0.1-1.2,0.2-1.7
		c1.7-2.3,3.4-4.6,5.1-6.9c2.7-3.7,5.5-7.3,8.2-11c2.3-3,4.5-6.1,6.8-9.1c0.6-0.8,1.6-1,2.4-0.6c0.7,0.4,0.9,1.1,0.7,2.2
		c-0.3,1.7-0.5,3.5-0.8,5.2c-0.5,2.8-1,5.6-1.4,8.4c-0.2,1.4-0.4,2.9-0.6,4.4c0.4,0,0.8,0,1.2,0c3.3,0,6.6,0,10,0
		c0.8,0,1.5,0.2,1.9,1c0.3,0.7,0.2,1.3-0.3,1.9c-1.5,1.9-3,3.9-4.5,5.9c-2.3,3-4.5,5.9-6.8,8.9c-2,2.6-4,5.2-6,7.7
		c-1.9,2.5-3.9,5-5.8,7.6c-0.9,1.2-1.9,1.3-2.6,0.8c-0.4-0.3-0.8-1.2-0.7-1.6c0.7-2.8,1.5-5.5,2.2-8.2c0.9-3.3,1.8-6.7,2.8-10
		C36.2,35.2,36.5,34,36.9,32.8z M28.9,29.4c3.3,0,6.5,0,9.7,0c1.8,0,2.4,0.8,2,2.5c-0.7,3-1.6,5.9-2.4,8.8c-0.5,2-1.1,3.9-1.6,5.9
		c0,0,0.1,0,0.1,0.1C42,39.8,47.3,33,52.6,26c-3.4,0-6.5-0.1-9.7,0c-1.9,0-2.3-1.2-2.1-2.7c0.3-1.5,0.5-2.9,0.8-4.4
		c0.3-1.8,0.6-3.6,0.9-5.4c0.1-0.9,0.2-1.7,0.4-2.6c-0.1,0-0.1,0-0.2-0.1C38.1,17,33.5,23.2,28.9,29.4z"/>
	<path class="st24" d="M81.5,27c0,1.9,0.1,3.7,0,5.6c-0.1,1.9-0.4,3.8-0.8,5.7c-0.8,3.6-2,7.1-3.8,10.3c-1.5,2.8-3.2,5.3-5.3,7.7
		c-0.6,0.7-1.2,1.4-1.9,2c-0.8,0.7-1.8,0.8-2.4,0.1c-0.7-0.9-0.8-1.5,0.1-2.5c1-1.2,2.1-2.4,3.1-3.6c2-2.4,3.6-5,4.7-7.9
		c0.9-2.4,1.7-4.9,2.3-7.3c0.4-1.3,0.4-2.7,0.6-4.1c0.1-1.1,0.1-2.3,0.2-3.4c0.1-3.5-0.4-7-1.4-10.4c-1.2-4.5-3.3-8.5-6.1-12.3
		c-1-1.4-2.2-2.6-3.4-3.9c-0.9-1-0.8-1.8,0-2.5c0.7-0.7,1.7-0.6,2.4,0.1c2.6,2.6,4.8,5.5,6.6,8.7c1.7,2.9,3,5.9,3.8,9.2
		c0.5,2.2,0.8,4.5,1.2,6.8C81.5,25.8,81.5,26.4,81.5,27C81.6,27,81.5,27,81.5,27z"/>
	<path class="st24" d="M71.3,27.5c0,1.5,0.1,3.1,0,4.6c-0.2,1.7-0.5,3.5-0.9,5.2c-0.9,3.7-2.6,7.1-4.8,10.1c-1,1.4-2.2,2.6-3.4,3.8
		c-0.6,0.6-1.5,0.5-2-0.1c-0.7-0.7-0.8-1.5-0.3-2.2c0.7-0.9,1.5-1.6,2.2-2.5c1.5-1.9,2.9-3.9,3.7-6.2c0.7-2,1.4-4,1.9-6
		c0.5-2.5,0.5-5,0.3-7.6c-0.2-2.4-0.8-4.8-1.6-7c-1-2.7-2.4-5.1-4.2-7.3c-0.7-0.8-1.4-1.5-2-2.3c-0.8-1-0.5-1.7,0.1-2.3
		c0.5-0.6,2-0.4,2.6,0.3c1.4,1.8,2.9,3.5,4.2,5.4c1.9,2.8,3.1,6,3.8,9.4c0.3,1.6,0.5,3.2,0.8,4.8C71.4,27.5,71.4,27.5,71.3,27.5z"/>
	<path class="st24" d="M10.2,29.9c-0.1-7.1,1.9-13,5.7-18.4c0.9-1.3,2-2.5,3.1-3.6c0.7-0.8,1.9-0.8,2.6-0.2c0.7,0.7,0.6,1.7-0.2,2.6
		c-1.2,1.5-2.5,2.9-3.5,4.5c-2,2.9-3.2,6.2-3.8,9.7c-0.4,2.2-0.6,4.3-0.4,6.5c0.4,5.2,2,10,5.1,14.2c0.8,1.1,1.8,2.2,2.7,3.2
		c1,1.1,0.7,2.5-0.6,2.9c-0.6,0.2-1.1,0.1-1.6-0.3c-4.1-4-6.8-8.9-8.2-14.5C10.4,34.3,10,31.9,10.2,29.9z"/>
</g>
</svg>
