<?xml version="1.0" encoding="utf-8"?>
<!-- Generator: Adobe Illustrator 27.7.0, SVG Export Plug-In . SVG Version: 6.00 Build 0)  -->
<svg version="1.1" id="Layer_1" xmlns="http://www.w3.org/2000/svg" xmlns:xlink="http://www.w3.org/1999/xlink" x="0px" y="0px"
	 viewBox="0 0 87.4 87.4" style="enable-background:new 0 0 87.4 87.4;" xml:space="preserve">
<style type="text/css">
	.st0{fill:url(#SVGID_1_);}
	.st1{fill:#FFFFFF;}
	.st2{fill:url(#SVGID_00000065792619286339199640000001935759315691409538_);}
	.st3{fill:url(#SVGID_00000036936262807426700710000007047615583864017593_);}
	.st4{fill:url(#SVGID_00000034069246717247622370000006343859000370073480_);}
	.st5{fill:url(#SVGID_00000096049095411726314790000014489628330016351617_);}
	.st6{fill:url(#SVGID_00000142139301430549450920000002648402548793837992_);}
	.st7{fill:url(#SVGID_00000017486786396242801780000004495267588661053573_);}
	.st8{fill:url(#SVGID_00000044894013692897664990000011164371248768134313_);}
	.st9{fill:#231F20;}
	.st10{fill:url(#SVGID_00000001631055802077703880000008236808056012110221_);}
	.st11{fill:none;}
	.st12{fill:url(#SVGID_00000139260058747893015950000004780003033507160248_);}
	.st13{fill:url(#SVGID_00000183211291559074431480000014059434662109206950_);}
	.st14{fill:url(#SVGID_00000009586379509678074850000018324755460028667825_);}
	.st15{fill:url(#SVGID_00000094606216659703318900000000779104658899458433_);}
	.st16{fill:url(#SVGID_00000181086005714180360830000007121530366300742558_);}
	.st17{fill:url(#SVGID_00000077306121174904793920000005301618529992076467_);}
	.st18{fill:url(#SVGID_00000037655416588184176080000011243062174274670743_);}
	.st19{fill:url(#SVGID_00000067228843832667301050000005941257965222287019_);}
	.st20{fill:url(#SVGID_00000047042436612558043960000000891084883531090607_);}
	.st21{fill:url(#SVGID_00000000921205288162394160000008073006442550604208_);}
	.st22{fill:#064295;}
	.st23{fill:url(#SVGID_00000131340889572654625990000007839398922014139527_);}
	.st24{fill:#010101;}
	.st25{fill:url(#SVGID_00000033348105334210277200000011861776141670930090_);}
	.st26{fill:url(#SVGID_00000093867541540863913820000012108326653487880629_);}
	.st27{fill:#DFDFDF;}
	.st28{fill:url(#SVGID_00000175292765936978849520000002041145698002618037_);}
	.st29{fill:url(#SVGID_00000022543814002348169660000010609836582120118188_);}
	.st30{fill:#696969;}
	.st31{fill:url(#SVGID_00000000910843189784721830000016285233819603226292_);}
	.st32{fill:#F2F2F2;}
	.st33{fill:#D6D6D6;}
	.st34{fill:#E4E4E4;}
	.st35{fill:#DDDDDD;}
	.st36{fill:url(#SVGID_00000058564427246562136180000006122965246845410707_);}
	.st37{fill:url(#SVGID_00000136379582063379181890000016219736797988966335_);}
	.st38{fill:url(#SVGID_00000128472328038899145530000016855393068769322653_);}
	.st39{fill:url(#SVGID_00000044162001817923373800000016472497176762320302_);}
	.st40{fill:url(#SVGID_00000013912289017790924770000006096797805579100333_);}
	.st41{fill:url(#SVGID_00000070818885068156401450000000026502396030406786_);}
	.st42{fill:url(#SVGID_00000052796050128645999800000007986725600180742555_);}
	.st43{fill:url(#SVGID_00000098920300513352251100000011998657869420213917_);}
	.st44{fill:url(#SVGID_00000133493385818821404290000001042916644317548686_);}
	.st45{fill:url(#SVGID_00000165917927202754384950000002871480128652887212_);}
	.st46{fill:url(#SVGID_00000009590442300544720610000008265718370410032798_);}
	.st47{fill:url(#SVGID_00000099657380795509051890000000008347894104072330_);}
	.st48{fill:url(#SVGID_00000131330099723471823240000008317650116236599176_);}
	.st49{fill:url(#SVGID_00000023969620659206862420000004727603352022802570_);}
	.st50{fill:url(#SVGID_00000106833472396928466150000008508649873245292986_);}
	.st51{fill:url(#SVGID_00000174562201416634082480000014276690453313257129_);}
	.st52{fill:url(#SVGID_00000180368320931300674890000009796748313231804554_);}
	.st53{fill:url(#SVGID_00000127743949464674071720000006294145701013176212_);}
	.st54{fill:url(#SVGID_00000100348330528384512630000003829794278133753998_);}
	.st55{fill:url(#SVGID_00000024695613422571943030000002851732334216036244_);}
	.st56{fill:url(#SVGID_00000150098155924504136760000002849243535213750155_);}
	.st57{fill:url(#SVGID_00000083089503749720051560000016058969243123879862_);}
	.st58{fill:url(#SVGID_00000136411002438658390040000002965395832456063412_);}
	.st59{fill:url(#SVGID_00000089571881589962664990000015557598269279878812_);}
	.st60{fill:#989898;}
	.st61{fill:url(#SVGID_00000133527187221354632930000005197702868544299393_);}
	.st62{fill:url(#SVGID_00000094583908266833911220000010068771025377072308_);}
	.st63{fill:url(#SVGID_00000131368138128173515230000002608746736870994104_);}
	.st64{fill:url(#SVGID_00000013890585911320080650000003305556950867844737_);}
	.st65{fill:url(#SVGID_00000044174056016564398040000012638347510056400815_);}
	.st66{fill:url(#SVGID_00000085932234213395045220000003918175282540978818_);}
	.st67{fill:url(#SVGID_00000054237479994089361740000010974342082992434872_);}
</style>
<g>
	<path d="M87.4,84.1c-0.5,0.7-0.9,1.4-1.5,2c-0.7,0.8-1.7,1.2-2.8,1.2c-5.9,0-11.9,0-17.8,0c-2,0-4.1-2.2-4-3.9c0.1-2.5,0-5,0-7.7
		c-0.9,0-1.8,0-2.6,0c-2.7,0.2-4.7-2-4.7-4.7c0.1-8.3,0-16.6,0-24.9c0-0.3,0-0.6,0-1c-1.5,0-3,0-4.6,0c0.2,2.5-1.7,3-3.3,3.6
		c-1,0.4-1.7,0.8-1.9,1.9c-0.1,0.6-0.3,1.2-0.7,1.7c-0.8,1.1-0.4,2,0.1,3c0.4,0.9,0.9,1.8,0.7,2.8c-0.1,0.5-0.1,1.1-0.4,1.4
		c-1,1.1-2,2.1-3.1,3.1c-1.1,1-2.5,0.9-3.7,0.2c-1.4-0.8-2.8-1.1-4.2-0.1c-0.3,0.2-0.7,0.4-1.1,0.4c-1.8,0.3-1.8,1.9-2.3,3
		c-0.5,1.3-1.6,2.4-3.3,2.3c-0.7,0-1.4,0-2,0c-2.7,0.2-3.4-0.7-4.2-2.7c-0.1-0.4-0.3-0.7-0.4-1.1c-0.2-0.7-0.5-1.3-1.4-1.4
		c-0.5,0-1.1-0.3-1.5-0.6c-1.4-1-2.7-0.7-4.1,0.1c-0.2,0.1-0.3,0.2-0.5,0.3c-1.4,0.7-2.7,0.3-3.8-0.8c-0.8-0.8-1.6-1.7-2.4-2.6
		C5,58.7,5,57.7,5.4,56.7c0.2-0.5,0.4-0.9,0.6-1.3c0.7-1.1,0.6-2.2-0.1-3.3c-0.1-0.2-0.3-0.5-0.4-0.7c-0.1-1.9-1.6-2.4-3-2.8
		C0.9,48-0.1,46.9,0,44.9c0-0.7,0-1.4,0-2c-0.1-2.6,0.7-3.3,2.8-4.1c0.4-0.1,0.7-0.2,1.1-0.4C4.5,38.1,5,37.9,5.2,37
		c0.2-1,0.9-2,1.3-2.9c0.1-0.3,0.1-0.6,0-0.9c-0.3-0.8-0.7-1.7-1.1-2.5c-0.5-1.3-0.2-2.4,0.7-3.3c0.8-0.8,1.6-1.7,2.4-2.4
		c1.1-1,2.4-1.1,3.6-0.4c1.8,1,3.3,0.8,5.2,0c1.6-0.7,2.2-1.7,2.7-3.1c0.7-2,1.4-2.4,3.4-2.5c1.2-0.1,2.5,0,3.7,0.2
		c1.1,0.1,1.8,1,2.2,2c0.3,0.8,0.6,1.5,0.9,2.3c0.1,0.3,0.4,0.5,0.7,0.6c1.1,0.5,2.2,0.9,3.3,1.4c0.2,0.1,0.6,0.1,0.8,0
		c0.8-0.3,1.6-0.7,2.4-1c1.1-0.4,2.3-0.4,3.2,0.4c1.1,1,2.1,2.1,3.1,3.2c0.7,0.8,0.5,1.7,0.2,2.6c-0.2,0.6-0.4,1.1-0.7,1.7
		c-0.6,1-0.4,2,0.1,2.9c0.2,0.4,0.4,0.7,0.5,1.1c0.3,1.9,1.9,2.2,3.3,2.8c1.5,0.6,2.1,1.4,2.2,3.1c1.5,0,3,0,4.6,0
		c0-0.3,0-0.6,0-0.9c0-8.5,0-17,0-25.5c0-1.7,1.4-3.7,3.4-4c1.3-0.2,2.6-0.2,3.9-0.3c0-2.3,0-4.6,0-6.9c0-2,0.9-3.4,2.6-4.3
		c0.3-0.1,0.6-0.2,0.9-0.3c6.4,0,12.7,0,19.1,0c0.5,0.2,0.9,0.4,1.4,0.6c1.2,0.6,1.7,1.8,2.2,3c0,6.4,0,12.9,0,19.3
		c-0.2,0.4-0.4,0.7-0.6,1.1c-0.7,1.4-2,2.3-3.5,2.3c-6.1,0.1-12.1,0-18.2,0c-1.4,0-2.3-0.7-3.1-1.7c-0.7-0.9-0.8-1.9-0.8-3
		c0-2.2,0-4.5,0-6.8c-0.9,0-1.7,0-2.5,0c-1.6,0-1.8,0.2-1.8,1.8c0,8.3,0,16.7,0,25c0,0.2,0,0.5,0,0.7c1.5,0,2.8,0,4.3,0
		c0-2.3,0-4.5,0-6.8c0-0.7,0.1-1.4,0.3-2.1c0.7-2,2.3-2.8,4.3-2.8c5.5,0,11,0,16.5,0c2.3,0,4.1,0.8,4.9,3.1c0,0.1,0.1,0.2,0.2,0.2
		c0,6.5,0,13.1,0,19.6c-0.1,0.2-0.3,0.3-0.3,0.5c-0.7,1.6-2,2.7-3.8,2.7c-6.1,0.1-12.2,0-18.2,0c-1.9,0-3.8-2.1-3.8-3.9
		c0.1-2.3,0-4.5-0.1-6.8c0-0.3,0-0.6,0-0.9c-1.5,0-2.9,0-4.3,0c0,0.3,0,0.6,0,0.9c0,7.2,0,14.4,0,21.6c0,1.2,0,2.4,0,3.7
		c0,1,0.5,1.5,1.5,1.5c0.7,0,1.4,0,2,0c0.6,0,0.8-0.2,0.8-0.8c0-2,0-4.1,0-6.1c0-0.6,0-1.2,0.1-1.7c0.6-1.9,2.1-3.1,4.5-3.1
		c5.6,0,11.1,0,16.7,0c1.1,0,2.1,0.3,3.1,0.9c1,0.7,1.2,1.7,1.8,2.6C87.4,71.2,87.4,77.6,87.4,84.1z M22.8,21.9
		c-0.5,1.3-0.8,2.5-1.4,3.5c-0.2,0.4-0.7,0.8-1.2,1c-1.5,0.7-3.1,1.4-4.7,1.9c-0.4,0.2-1,0.2-1.5,0c-1-0.3-2-0.8-3.1-1.2
		c-0.3-0.1-0.7-0.1-0.9,0.1c-0.8,0.7-1.5,1.5-2.1,2.2c0.6,1.2,1,2.3,1.5,3.4c0.3,0.6,0.2,1.1,0,1.7c-0.7,1.5-1.2,3-1.9,4.5
		c-0.2,0.5-0.7,1-1.2,1.3c-1.1,0.6-2.3,1-3.5,1.5c0,1.1,0,2.1,0,3.2c0,0.2,0.3,0.5,0.5,0.6c0.9,0.4,1.9,0.7,2.8,1.1
		c0.7,0.2,1.1,0.7,1.4,1.4c0.6,1.5,1.3,3,1.9,4.6c0.2,0.4,0.2,1,0.1,1.3c-0.5,1.3-1,2.5-1.6,3.9c0.6,0.6,1.3,1.2,1.9,1.8
		c0.4,0.4,0.8,0.6,1.4,0.3c0.5-0.3,1.1-0.4,1.6-0.7c1.3-0.8,2.5-0.7,3.8,0.1c1.1,0.6,2.3,1.1,3.6,1.5c0.6,0.2,1,0.5,1.2,1.1
		c0.5,1.2,1,2.3,1.5,3.6c0.8,0,1.7,0,2.5,0c0.8,0,1.3-0.3,1.5-1.2c0.1-0.7,0.4-1.3,0.7-2c0.3-0.7,0.7-1.3,1.5-1.6
		c1.5-0.5,2.9-1.2,4.4-1.8c0.5-0.2,1.2-0.2,1.8-0.1c1,0.3,1.9,0.8,2.9,1.1c0.3,0.1,0.8,0,1-0.2c0.6-0.5,1.2-1.1,1.8-1.7
		c0.2-0.2,0.2-0.6,0.1-0.8c-0.3-0.8-0.7-1.5-1-2.2c-0.5-1-0.6-1.9,0.1-3c0.7-1.2,1.1-2.6,1.6-3.9c0.2-0.7,0.6-1.2,1.2-1.4
		c0.7-0.3,1.4-0.5,2.1-0.8c0.7-0.3,1.5-0.5,1.4-1.5c0-0.9,0-1.8-0.3-2.7c-0.1-0.4-1-0.4-1.5-0.7c-0.4-0.2-0.9-0.3-1.3-0.5
		c-0.7-0.3-1.3-0.6-1.6-1.4c-0.6-1.7-1.4-3.4-2.1-5.1c-0.1-0.3-0.1-0.7,0-1c0.4-1,0.8-2,1.3-3c0.3-0.6,0.3-1-0.3-1.4
		c-0.5-0.4-1-0.9-1.4-1.4c-0.4-0.5-0.8-0.5-1.3-0.2c-0.8,0.4-1.6,0.8-2.4,1.1c-0.7,0.3-1.4,0.4-2.1,0c-1.3-0.7-2.7-1.2-4.1-1.7
		c-0.8-0.3-1.3-0.6-1.6-1.5c-0.4-1.1-0.9-2.1-1.3-3.3C25.3,21.9,24,21.9,22.8,21.9z M74.2,84.5c2.8,0,5.6,0,8.4,0
		c1.2,0,1.8-0.6,1.8-1.8c0-5.6,0-11.3,0-16.9c0-1.1-0.6-1.7-1.7-1.7c-5.7,0-11.4,0-17,0c-1,0-1.6,0.3-1.6,1.6c0,5.7,0,11.5,0,17.2
		c0,1.2,0.5,1.6,1.7,1.6C68.6,84.5,71.4,84.5,74.2,84.5z M74.1,53.9c2.8,0,5.6,0,8.4,0c1.3,0,1.9-0.6,1.9-1.9c0-5.5,0-11.1,0-16.6
		c0-1.3-0.6-1.9-1.9-1.9c-5.5,0-11.1,0-16.6,0c-1.4,0-1.9,0.4-1.9,1.8c0,5.6,0,11.2,0,16.8c0,1.4,0.4,1.8,1.8,1.8
		C68.7,53.9,71.4,53.9,74.1,53.9z M74.2,2.9c-2.7,0-5.5,0-8.2,0c-1.4,0-2,0.6-2,2c0,5.5,0,11,0,16.5c0,1.7,0.3,2,2,2
		c5.5,0,11,0,16.5,0c1.4,0,2-0.6,2-2c0-5.5,0-10.9,0-16.4c0-1.5-0.5-2-2-2C79.7,2.9,77,2.9,74.2,2.9z"/>
	<linearGradient id="SVGID_1_" gradientUnits="userSpaceOnUse" x1="68.4249" y1="43.6883" x2="80.0654" y2="43.6883">
		<stop  offset="0" style="stop-color:#2352A3"/>
		<stop  offset="1" style="stop-color:#28ADE3"/>
	</linearGradient>
	<path class="st0" d="M72.5,45.8c1-1.5,2-2.9,2.9-4.3c0.7-1,1.3-2,2-2.9c0.5-0.7,1.2-0.8,2-0.4c0.6,0.4,0.9,1.2,0.4,1.9
		c-1.2,1.9-2.4,3.7-3.6,5.5c-0.6,1-1.3,1.9-1.9,2.9c-0.8,1.2-1.9,1.4-2.9,0.3c-0.7-0.9-1.6-1.6-2.4-2.4c-0.6-0.6-0.8-1.5-0.2-2.2
		c0.4-0.5,1.7-0.3,2.2,0.2C71.5,44.8,71.9,45.2,72.5,45.8z"/>
	
		<linearGradient id="SVGID_00000073714435126705778850000001509468026128048803_" gradientUnits="userSpaceOnUse" x1="68.4197" y1="13.1255" x2="80.072" y2="13.1255">
		<stop  offset="0" style="stop-color:#2352A3"/>
		<stop  offset="1" style="stop-color:#28ADE3"/>
	</linearGradient>
	<path style="fill:url(#SVGID_00000073714435126705778850000001509468026128048803_);" d="M72.5,15.2c1.2-1.7,2.3-3.4,3.5-5.1
		c0.4-0.7,0.9-1.3,1.3-2c0.5-0.8,1.4-1,2.1-0.6c0.7,0.4,0.8,1.2,0.3,2.1c-1.2,1.8-2.4,3.7-3.6,5.5c-0.6,0.9-1.3,1.9-1.9,2.8
		c-0.8,1.2-1.8,1.4-2.8,0.3c-0.9-0.9-1.9-1.9-2.7-2.9c-0.5-0.6-0.3-1.4,0.2-1.9c0.5-0.5,1.4-0.5,2,0.1
		C71.4,14.1,71.9,14.6,72.5,15.2z"/>
	<path class="st24" d="M24.7,52.4c-5,0.1-8.7-4-8.7-8.7c0-4.8,3.6-8.6,8.4-8.7c5.3-0.1,8.9,3.9,9.1,8.4
		C33.6,48.5,29.3,52.6,24.7,52.4z M19,43.6c-0.3,3.1,2.7,6,5.8,5.9c3-0.1,5.8-2.6,5.8-5.8c0-3.3-2.5-5.8-5.9-5.8
		C21.4,37.9,18.8,40.6,19,43.6z"/>
</g>
</svg>
