<?xml version="1.0" encoding="utf-8"?>
<!-- Generator: Adobe Illustrator 27.7.0, SVG Export Plug-In . SVG Version: 6.00 Build 0)  -->
<svg version="1.1" id="Layer_1" xmlns="http://www.w3.org/2000/svg" xmlns:xlink="http://www.w3.org/1999/xlink" x="0px" y="0px"
	 viewBox="0 0 85.5 85.2" style="enable-background:new 0 0 85.5 85.2;" xml:space="preserve">
<style type="text/css">
	.st0{fill:url(#SVGID_1_);}
	.st1{fill:#FFFFFF;}
	.st2{fill:url(#SVGID_00000108286398488097049060000009087279506660105899_);}
	.st3{fill:url(#SVGID_00000147197091750182994250000004493387982092864899_);}
	.st4{fill:url(#SVGID_00000150078731149738494510000006830997986483065759_);}
	.st5{fill:url(#SVGID_00000100364082373605207910000004620592284743252391_);}
	.st6{fill:url(#SVGID_00000050643584308718229280000010433288617476771743_);}
	.st7{fill:url(#SVGID_00000116914051572413394690000017062577354950613149_);}
	.st8{fill:url(#SVGID_00000058584523328632050740000017425181331597516950_);}
	.st9{fill:#231F20;}
	.st10{fill:url(#SVGID_00000171690255396760818480000003704059569584792766_);}
	.st11{fill:none;}
	.st12{fill:url(#SVGID_00000137097786499137654420000011632979278249900465_);}
	.st13{fill:url(#SVGID_00000047021340912297461190000012763160125629850805_);}
	.st14{fill:url(#SVGID_00000181807168576285078910000018198598299860805292_);}
	.st15{fill:url(#SVGID_00000011010817175225379170000003372294185061138585_);}
	.st16{fill:url(#SVGID_00000024680719543432465000000010221156937928475299_);}
	.st17{fill:url(#SVGID_00000166647134072280490800000002811588743792727457_);}
	.st18{fill:url(#SVGID_00000023250135711330892100000012346654953180499884_);}
	.st19{fill:url(#SVGID_00000116913447856756174480000001735963194993303460_);}
	.st20{fill:url(#SVGID_00000134243484917928176350000004338453550396701625_);}
	.st21{fill:url(#SVGID_00000068664012247905037570000003863781131962235300_);}
	.st22{fill:#064295;}
	.st23{fill:url(#SVGID_00000023988101017251126040000005110945024956677022_);}
	.st24{fill:#010101;}
	.st25{fill:url(#SVGID_00000059286241076004745970000016325601208694178986_);}
	.st26{fill:url(#SVGID_00000136381871062884365920000004710652914123836847_);}
	.st27{fill:#DFDFDF;}
	.st28{fill:url(#SVGID_00000114036219883153039370000015930358370255781798_);}
	.st29{fill:url(#SVGID_00000142152026204796992270000007330751557130747575_);}
	.st30{fill:#696969;}
	.st31{fill:url(#SVGID_00000138551298004399830260000004228953552212533437_);}
	.st32{fill:#F2F2F2;}
	.st33{fill:#D6D6D6;}
	.st34{fill:#E4E4E4;}
	.st35{fill:#DDDDDD;}
	.st36{fill:url(#SVGID_00000056420327624872626450000001452795588402251964_);}
	.st37{fill:url(#SVGID_00000177453994697776027980000015168599447608070800_);}
	.st38{fill:url(#SVGID_00000172430020248073064090000012174267890398138768_);}
	.st39{fill:url(#SVGID_00000034780733442733673310000005285106537110563205_);}
	.st40{fill:url(#SVGID_00000176013805513979303080000012661070553291824812_);}
	.st41{fill:url(#SVGID_00000127032678771759653440000005676304678457188265_);}
	.st42{fill:url(#SVGID_00000031922268749725170460000016763677625334253245_);}
	.st43{fill:url(#SVGID_00000047745479093750449030000011646960174173560723_);}
	.st44{fill:url(#SVGID_00000136393862691732998210000011177796618834019741_);}
	.st45{fill:url(#SVGID_00000163040764914629499610000017737568554392476811_);}
	.st46{fill:url(#SVGID_00000160187965580512787420000011207475043487735987_);}
	.st47{fill:url(#SVGID_00000128466982701177683530000000578495096292954294_);}
	.st48{fill:url(#SVGID_00000015345028352432409710000012113728901268090551_);}
	.st49{fill:url(#SVGID_00000049925383436480698590000007471705822101204404_);}
	.st50{fill:url(#SVGID_00000141434346275662453440000004502308507320372121_);}
	.st51{fill:url(#SVGID_00000028287678675613091590000003556069789477574051_);}
	.st52{fill:url(#SVGID_00000003787701349102475430000011165881103280454071_);}
	.st53{fill:url(#SVGID_00000005230699533612300460000018357231645722024354_);}
	.st54{fill:url(#SVGID_00000183945046745387432280000004589302274914460343_);}
	.st55{fill:url(#SVGID_00000089544847298230206620000003695663881780341412_);}
	.st56{fill:url(#SVGID_00000119832302216414352160000018175469187790479267_);}
	.st57{fill:url(#SVGID_00000028304658705595271500000010608577527989895101_);}
	.st58{fill:url(#SVGID_00000177447149611324437240000000896332521729460923_);}
	.st59{fill:url(#SVGID_00000139291329885449025600000007339937085388111798_);}
	.st60{fill:#989898;}
	.st61{fill:url(#SVGID_00000057135860446461333310000003717665041035319686_);}
	.st62{fill:url(#SVGID_00000159460533606129818440000012381235968307014025_);}
	.st63{fill:url(#SVGID_00000056401643916722865020000018298541988266462851_);}
	.st64{fill:url(#SVGID_00000054971866390229291350000017011469759564930476_);}
	.st65{fill:url(#SVGID_00000017494139975198116440000014744880595614542523_);}
	.st66{fill:url(#SVGID_00000002376802518882238360000007640029627740452480_);}
	.st67{fill:url(#SVGID_00000178909736842607626860000006193744563222983349_);}
</style>
<g>
	<path class="st24" d="M48.8,0c0.9,0.2,1.8,0.4,2.7,0.5c2.7,0.3,5.1,1.5,7.3,3c3.3,2.2,5.5,5.3,6.9,8.9c0.9,2.5,1.1,5.2,0.9,7.8
		c-0.3,3.4-1.8,6.4-3.6,9.2c-3.5,5.5-6.9,11-10.4,16.5c-4.5,7.1-8.9,14.3-13.4,21.4c-2,3.1-3.9,6.3-6,9.4c-2.6,3.9-6.2,6.4-10.8,7.6
		c-1.4,0.4-2.9,0.5-4.4,0.5c-3.9,0-7.4-1.3-10.6-3.6C4,78.7,1.7,75.2,0.6,71c-1-3.8-0.9-7.7,0.8-11.2c1.6-3.1,3.5-6.1,5.3-9.1
		c3.6-5.8,7.2-11.6,10.8-17.3c5.1-8.2,10.2-16.3,15.3-24.5c2.7-4.4,6.6-7.1,11.5-8.3c1-0.2,2.1-0.3,3.1-0.4c0.2,0,0.3-0.1,0.5-0.2
		C48.3,0,48.6,0,48.8,0z M44.8,51.7c-8.2-5.1-16.4-10.3-24.7-15.4c-0.2,0.2-0.3,0.5-0.5,0.7c-3.4,5.5-6.9,11-10.3,16.5
		c-1.3,2-2.7,4-3.8,6.1c-1.3,2.5-2,5.1-1.7,8c0.2,1.9,0.6,3.7,1.4,5.3c1.1,2.3,2.7,4.1,4.9,5.5c2.3,1.6,4.9,2.6,7.7,2.6
		c1.4,0,2.8-0.2,4.2-0.5c3.3-0.8,6-2.6,8-5.3c1.5-2,2.8-4.2,4.1-6.3C37.6,63.2,41.1,57.5,44.8,51.7z M56.5,32.9
		c1.2-1.9,2.4-3.7,3.5-5.6c2.3-3.6,3.5-7.3,2.8-11.5c-0.6-3.4-2.2-6.2-4.9-8.5c-2.9-2.4-6.1-3.5-9.8-3.6c-0.6,0.1-1.3,0.1-1.9,0.2
		c-4.1,0.7-7.4,2.7-9.7,6.2c-2.5,3.9-4.9,7.8-7.3,11.7c-2.3,3.6-4.5,7.2-6.8,10.9c-0.2,0.4-0.3,0.6,0.1,0.8c0.9,0.5,1.7,1.1,2.6,1.6
		c6.7,4.2,13.4,8.4,20.2,12.5c1.5,1,1.5,1,2.4-0.5C50.6,42.4,53.5,37.7,56.5,32.9"/>
	<path class="st24" d="M85.5,68.8c-0.2,0.5-0.4,1.1-0.5,1.6c-0.7,3.2-2.1,5.9-4.2,8.4c-2.4,2.7-5.2,4.6-8.6,5.5
		c-6.1,1.8-11.8,0.8-16.9-3.2c-3.5-2.7-5.8-6.4-6.7-10.7c-1.1-4.8-0.3-9.3,2.2-13.6c2-3.3,4.7-5.8,8.2-7.4c2.4-1.1,5-1.6,7.7-1.7
		c3.2,0,6.2,0.7,9,2.2c5,2.8,8.2,6.9,9.4,12.6c0.1,0.6,0.3,1.3,0.5,1.9C85.5,66.1,85.5,67.4,85.5,68.8z M66.5,51.7
		c-7.6-0.4-15.4,6.6-14.8,16c0.5,7.4,6.7,13.8,14.7,13.9c4.1,0.1,7.8-1.4,10.7-4.3c3.5-3.4,4.9-7.7,4.4-12.6
		C81,58.4,75.2,51.3,66.5,51.7z"/>
	<linearGradient id="SVGID_1_" gradientUnits="userSpaceOnUse" x1="7.7121" y1="67.9608" x2="15.6302" y2="67.9608">
		<stop  offset="0" style="stop-color:#2352A3"/>
		<stop  offset="1" style="stop-color:#28ADE3"/>
	</linearGradient>
	<path class="st0" d="M7.7,66.6c0.1-1.9,0.6-3.7,1.5-5.3c0.6-0.9,1.7-1.3,2.7-0.8c0.7,0.4,1,1.6,0.6,2.5c-0.6,1.1-1.1,2.3-1,3.6
		c0.1,2.3,1,4,2.9,5.4c0.6,0.5,1.3,0.8,1.3,1.8c0,0.7-0.1,1.4-0.8,1.6c-0.6,0.2-1.5,0.3-1.9,0c-2.7-1.7-4.5-4.1-4.9-7.3
		C7.9,67.6,7.8,67.1,7.7,66.6z"/>
	
		<linearGradient id="SVGID_00000145023858199180241210000012698679311935086481_" gradientUnits="userSpaceOnUse" x1="51.0969" y1="17.0147" x2="58.9647" y2="17.0147">
		<stop  offset="0" style="stop-color:#2352A3"/>
		<stop  offset="1" style="stop-color:#28ADE3"/>
	</linearGradient>
	<path style="fill:url(#SVGID_00000145023858199180241210000012698679311935086481_);" d="M59,18.4c0,1.9-0.4,3.6-1.5,5.2
		c-0.7,1.1-1.5,1.4-2.4,0.9c-0.8-0.5-1.4-1.3-0.7-2.7c1-2,1.2-3.9,0.4-6c-0.5-1.4-1.5-2.4-2.7-3.2c-1.2-0.8-1.3-2.1-0.4-3
		c0.4-0.4,1.8-0.4,2.3-0.1C57,11.4,59,14.6,59,18.4z"/>
	
		<linearGradient id="SVGID_00000139971996789056934280000009331790652749450629_" gradientUnits="userSpaceOnUse" x1="60.1852" y1="66.5794" x2="73.3045" y2="66.5794">
		<stop  offset="0" style="stop-color:#2352A3"/>
		<stop  offset="1" style="stop-color:#28ADE3"/>
	</linearGradient>
	<path style="fill:url(#SVGID_00000139971996789056934280000009331790652749450629_);" d="M60.2,74.1c0.1-0.4,0.2-0.8,0.5-1.2
		c3-4.9,6.1-9.8,9.1-14.8c0.8-1.3,2.1-1.5,3.1-0.4c0.6,0.7,0.5,1.4,0,2.1c-2.7,4.3-5.4,8.7-8,13c-0.5,0.8-1,1.6-1.6,2.4
		c-0.5,0.7-1.3,0.7-1.9,0.5C60.6,75.7,60.2,75,60.2,74.1z"/>
</g>
</svg>
