<?xml version="1.0" encoding="utf-8"?>
<!-- Generator: Adobe Illustrator 27.7.0, SVG Export Plug-In . SVG Version: 6.00 Build 0)  -->
<svg version="1.1" id="Layer_1" xmlns="http://www.w3.org/2000/svg" xmlns:xlink="http://www.w3.org/1999/xlink" x="0px" y="0px"
	 viewBox="0 0 82.3 58.7" style="enable-background:new 0 0 82.3 58.7;" xml:space="preserve">
<style type="text/css">
	.st0{fill:url(#SVGID_1_);}
	.st1{fill:#FFFFFF;}
	.st2{fill:url(#SVGID_00000146489276416014813890000016076356701756991152_);}
	.st3{fill:url(#SVGID_00000013162263629883236180000000433208655110275768_);}
	.st4{fill:url(#SVGID_00000037692256831086457360000012651067794522797717_);}
	.st5{fill:url(#SVGID_00000116223591095558240070000017133484749541807540_);}
	.st6{fill:url(#SVGID_00000142854698090335266070000004515965899804515467_);}
	.st7{fill:url(#SVGID_00000148642773286628987160000000154022672383966355_);}
	.st8{fill:url(#SVGID_00000085935915864733978530000011072436704125765052_);}
	.st9{fill:#231F20;}
	.st10{fill:url(#SVGID_00000127763721632359741640000013213412987511478710_);}
	.st11{fill:none;}
	.st12{fill:url(#SVGID_00000176722667180677511110000004099118634152910498_);}
	.st13{fill:url(#SVGID_00000067208151595771373830000003497636203764497306_);}
	.st14{fill:url(#SVGID_00000054959855873470249390000003121461382883280053_);}
	.st15{fill:url(#SVGID_00000161630598753819505420000000907448053507038874_);}
	.st16{fill:url(#SVGID_00000181047314525636761350000014599482294240335534_);}
	.st17{fill:url(#SVGID_00000016043692525892319850000012625760402359552393_);}
	.st18{fill:url(#SVGID_00000119837052165881269690000007599269872022922905_);}
	.st19{fill:url(#SVGID_00000030458285109713385400000008772625969223632000_);}
	.st20{fill:url(#SVGID_00000054959855766342393190000008382476564505936773_);}
	.st21{fill:url(#SVGID_00000145771752111071298040000001145594939353160589_);}
	.st22{fill:#064295;}
	.st23{fill:url(#SVGID_00000117665711271210161910000004645924072122390455_);}
	.st24{fill:#010101;}
	.st25{fill:url(#SVGID_00000065786042367839867530000014802105724681223069_);}
	.st26{fill:url(#SVGID_00000074435893409310201960000016979382951319308207_);}
	.st27{fill:#DFDFDF;}
	.st28{fill:url(#SVGID_00000098928449535522381290000012873090046952341142_);}
	.st29{fill:url(#SVGID_00000060729667776346286670000011444126829893527690_);}
	.st30{fill:#696969;}
	.st31{fill:url(#SVGID_00000083090452211756071130000008632588575003703969_);}
	.st32{fill:#F2F2F2;}
	.st33{fill:#D6D6D6;}
	.st34{fill:#E4E4E4;}
	.st35{fill:#DDDDDD;}
	.st36{fill:url(#SVGID_00000036221420156744014890000000140947948567851653_);}
	.st37{fill:url(#SVGID_00000083082130276733271440000005756583902352329639_);}
	.st38{fill:url(#SVGID_00000103972438028100026890000010162275480609978258_);}
	.st39{fill:url(#SVGID_00000052072347132193409240000004370064612565831587_);}
	.st40{fill:url(#SVGID_00000042738788887922561710000005961955481308284603_);}
	.st41{fill:url(#SVGID_00000114062062604467017350000011349704169649831828_);}
	.st42{fill:url(#SVGID_00000145024161664988114260000001453063883061609663_);}
	.st43{fill:url(#SVGID_00000117676823608313703580000014403354397797288638_);}
	.st44{fill:url(#SVGID_00000084489263877208683730000008538942878071298703_);}
	.st45{fill:url(#SVGID_00000088134669709889019050000011260138447820060032_);}
	.st46{fill:url(#SVGID_00000174584275725320090990000009428747754384662715_);}
	.st47{fill:url(#SVGID_00000103260227812906474470000005718359614717162909_);}
	.st48{fill:url(#SVGID_00000152249214190627240180000009269723059085146003_);}
	.st49{fill:url(#SVGID_00000161615527146405091250000015916368113007742887_);}
	.st50{fill:url(#SVGID_00000018952708134482236170000009352464095681109411_);}
	.st51{fill:url(#SVGID_00000119087510148002535130000016523880655295854499_);}
	.st52{fill:url(#SVGID_00000070117610551766129110000000793037631504443321_);}
	.st53{fill:url(#SVGID_00000111906334008648523700000002392101232652507327_);}
	.st54{fill:url(#SVGID_00000102528131373410415250000016368397217591169976_);}
	.st55{fill:url(#SVGID_00000164490412304564159730000014091940150086988976_);}
	.st56{fill:url(#SVGID_00000173854350109944556390000018332136903652964022_);}
	.st57{fill:url(#SVGID_00000168109954023133987960000017768692276312906143_);}
	.st58{fill:url(#SVGID_00000010289207030303708700000012744824815608294278_);}
	.st59{fill:url(#SVGID_00000182524426156528182930000015075545884268200893_);}
	.st60{fill:#989898;}
	.st61{fill:url(#SVGID_00000052793469171176197510000000766873731305161905_);}
	.st62{fill:url(#SVGID_00000146476929884678978450000006277912874635518376_);}
	.st63{fill:url(#SVGID_00000085221743775181171290000002754019652348187829_);}
	.st64{fill:url(#SVGID_00000155839546976997026750000003243879333460194184_);}
	.st65{fill:url(#SVGID_00000176736261774645426910000009555513853170797502_);}
	.st66{fill:url(#SVGID_00000100377776607251015450000007058508700937910437_);}
	.st67{fill:url(#SVGID_00000113347596934422409580000006130666052755112617_);}
</style>
<g>
	<path class="st24" d="M5.9,8.5c0,7.9,0,15.7,0,23.6c0,0.9,1,0.8,1.4,1.3c6-15.4,17-23.9,33.7-24.6C57.7,9.5,68.7,18,74.8,33.3
		c0.4-0.2,0.9-0.4,1.2-0.7c0.2-0.2,0.3-0.6,0.3-0.9c0-6.5,0-13,0-19.4c0-1,0-2,0-3c0-0.3-0.3-0.7-0.5-0.9c-2.7-1.6-3.2-4.9-1.1-7.1
		c1.2-1.2,2.7-1.6,4.4-1.1c1.6,0.5,2.7,1.6,3,3.2c0.5,2.2-0.7,4.2-2.7,5.1c0,5.6,0,11.2,0,16.8c0,1.8,0,3.6,0,5.4
		c0,1.2,0.1,2,1.3,2.7c1.3,0.7,1.6,2.2,1.6,3.6c0,3.8,0.1,7.6,0,11.4c-0.1,3.7-4,5.5-6.5,4c-0.5-0.3-0.9-0.6-1.4-1
		c-1.7,2.9-4.1,4.9-7.1,6.3c-1.6,0.7-3.2,1.1-4.9,1.1c-14.1,0-28.2,0-42.3,0c-3,0-5.6-0.9-7.9-2.8c-1.5-1.2-2.7-2.8-4-4.2
		c-0.1-0.1-0.2-0.3-0.3-0.5c-1.1,0.9-2.3,1.6-3.8,1.5c-2-0.1-3.9-2-3.9-4c0-4.1,0-8.1,0-12.2c0-1.7,0.8-3,2.3-3.8
		c0.4-0.2,0.6-0.5,0.6-1c0-7.5,0-15,0-22.5c0-0.5-0.2-0.8-0.6-1C0.2,7.1-0.2,5.2,0.1,3.4C0.5,1.4,2.4-0.1,4.3,0
		c2.9,0.2,4.3,1.7,4.5,4.3C8.9,6.2,7.8,7.8,5.9,8.5z M40.9,55.8c6.7,0,13.4,0,20.2,0c0.8,0,1.6-0.1,2.4-0.2c4.5-0.7,7.5-3.4,9.2-7.6
		c0.6-1.5,0.9-3.2,0.6-4.9c-0.2-1.2,0-2.6-0.2-3.8c-0.5-3.2-1.4-6.2-2.8-9.1c-2.2-4.5-5.2-8.3-9.2-11.4c-5.9-4.7-12.7-6.8-20.1-7
		c-1.4,0-2.8,0.2-4.1,0.3c-3.5,0.3-6.8,1.4-9.9,2.9c-4.3,2.1-7.9,5-10.9,8.7c-2.6,3.2-4.6,6.7-5.7,10.7c-0.6,2-1,4-1.2,6
		c-0.2,1.8-0.4,3.7-0.1,5.5c0.4,2.8,1.9,5.2,4.1,7.1c1.9,1.6,4,2.7,6.5,2.7C26.6,55.8,33.8,55.8,40.9,55.8z M3,42.6
		c0,1.9,0,3.8,0,5.7c0,1,0.5,1.6,1.3,1.6c0.9,0,1.6-0.7,1.6-1.7c0-3.8,0-7.5,0-11.3c0-1-0.7-1.7-1.6-1.7c-0.8,0-1.3,0.6-1.3,1.7
		C3,38.8,3,40.7,3,42.6z M76.4,42.6c0,1.9,0,3.8,0,5.7c0,1,0.5,1.7,1.4,1.7c0.8,0,1.6-0.7,1.6-1.7c0-3.8,0-7.6,0-11.3
		c0-0.9-0.7-1.6-1.6-1.7c-0.8,0-1.4,0.6-1.4,1.7C76.3,38.8,76.4,40.7,76.4,42.6z M4.3,5.9c0.7,0,1.6-0.7,1.6-1.4
		c0-0.7-0.8-1.5-1.5-1.5C3.6,2.9,3,3.5,3,4.4C3,5.2,3.5,5.8,4.3,5.9z M77.7,2.9c-0.8,0-1.4,0.6-1.3,1.5c0,0.8,0.6,1.5,1.4,1.4
		c0.7,0,1.5-0.8,1.5-1.5C79.3,3.7,78.4,2.9,77.7,2.9z"/>
	<linearGradient id="SVGID_1_" gradientUnits="userSpaceOnUse" x1="17.6135" y1="36.6889" x2="64.5023" y2="36.6889">
		<stop  offset="0" style="stop-color:#2352A3"/>
		<stop  offset="1" style="stop-color:#28ADE3"/>
	</linearGradient>
	<path class="st0" d="M40.9,47c-4.6,0-9.1,0.1-13.7,0c-3,0-5.5-1.5-7.4-3.8c-1.8-2.2-2.5-4.7-2.2-7.5c0.3-2.8,1.6-5.2,3.8-7
		c2-1.6,4.5-2.3,7.1-2.2c8.4,0,16.8,0,25.2,0c3.7,0,6.9,1.4,9,4.5c1,1.4,1.5,3,1.7,4.8c0.2,2.2-0.2,4.2-1.3,6
		c-1.6,2.7-3.9,4.4-6.9,5c-0.8,0.2-1.7,0.2-2.5,0.2C49.4,47,45.2,47,40.9,47z M40.8,44C40.8,44,40.8,44,40.8,44c3.6,0,7.2,0,10.8,0
		c1.3,0,2.6,0,3.9-0.2c4.2-0.6,6.8-4.8,5.8-8.9c-0.9-3.6-3.9-5.6-7.4-5.6c-8.7,0-17.5,0-26.2,0c-0.6,0-1.3,0.2-1.9,0.3
		c-3.9,1-6.1,5.1-5,9c0.8,2.9,3.7,5.4,6.8,5.3C32,44,36.4,44,40.8,44z"/>
	
		<linearGradient id="SVGID_00000145047524017249637820000003499243269820448672_" gradientUnits="userSpaceOnUse" x1="26.4491" y1="36.7097" x2="35.2112" y2="36.7097">
		<stop  offset="0" style="stop-color:#2352A3"/>
		<stop  offset="1" style="stop-color:#28ADE3"/>
	</linearGradient>
	<path style="fill:url(#SVGID_00000145047524017249637820000003499243269820448672_);" d="M26.5,36.6c0-2.4,1.9-4.4,4.3-4.3
		c2.9,0.1,4.4,1.8,4.5,4.4c0.1,2.6-2.2,4.3-4.4,4.4C28.5,41.2,26.3,39,26.5,36.6z M30.7,38.1c0.7,0,1.6-0.7,1.6-1.4
		c0-0.7-0.8-1.5-1.5-1.5c-0.8,0-1.4,0.6-1.4,1.4C29.4,37.5,30,38.1,30.7,38.1z"/>
	
		<linearGradient id="SVGID_00000062156078183774974080000015999266474729724854_" gradientUnits="userSpaceOnUse" x1="46.98" y1="36.7026" x2="55.7583" y2="36.7026">
		<stop  offset="0" style="stop-color:#2352A3"/>
		<stop  offset="1" style="stop-color:#28ADE3"/>
	</linearGradient>
	<path style="fill:url(#SVGID_00000062156078183774974080000015999266474729724854_);" d="M51.2,41.1c-2.1,0.1-4.4-2-4.2-4.7
		c0.2-2.3,1.9-4.2,4.3-4.1c2.9,0.1,4.4,1.8,4.5,4.4C55.8,39.3,53.5,41.2,51.2,41.1z M51.3,35.2c-0.8,0-1.4,0.6-1.4,1.5
		c0,0.8,0.6,1.5,1.4,1.5c0.7,0,1.6-0.8,1.6-1.5C52.9,36,52,35.2,51.3,35.2z"/>
</g>
</svg>
