<?xml version="1.0" encoding="utf-8"?>
<!-- Generator: Adobe Illustrator 27.7.0, SVG Export Plug-In . SVG Version: 6.00 Build 0)  -->
<svg version="1.1" id="Layer_1" xmlns="http://www.w3.org/2000/svg" xmlns:xlink="http://www.w3.org/1999/xlink" x="0px" y="0px"
	 viewBox="0 0 83 82.9" style="enable-background:new 0 0 83 82.9;" xml:space="preserve">
<style type="text/css">
	.st0{fill:url(#SVGID_1_);}
	.st1{fill:#FFFFFF;}
	.st2{fill:url(#SVGID_00000127027506027423864640000002208486120098131620_);}
	.st3{fill:url(#SVGID_00000055701162121516476830000006268819505755022508_);}
	.st4{fill:url(#SVGID_00000169558755318231783680000003654628659462685879_);}
	.st5{fill:url(#SVGID_00000146472848641169023590000007294247875127642017_);}
	.st6{fill:url(#SVGID_00000182525916291850236130000016735212672469708931_);}
	.st7{fill:url(#SVGID_00000017508624610884099750000003652278143796547507_);}
	.st8{fill:url(#SVGID_00000132768730287714289260000002710776934858780551_);}
	.st9{fill:#231F20;}
	.st10{fill:url(#SVGID_00000054955804178845225580000002395724800757065655_);}
	.st11{fill:none;}
	.st12{fill:url(#SVGID_00000147911011306527494180000014690622759271451281_);}
	.st13{fill:url(#SVGID_00000080195042419357562260000005427012817361786512_);}
	.st14{fill:url(#SVGID_00000049191873316160976880000002006853546115106211_);}
	.st15{fill:url(#SVGID_00000175316578107762521460000010723151571723087792_);}
	.st16{fill:url(#SVGID_00000128476801305852719710000000160800863138881162_);}
	.st17{fill:url(#SVGID_00000068649485940240681950000016826609910776092039_);}
	.st18{fill:url(#SVGID_00000057842377348669980910000013940041719831141786_);}
	.st19{fill:url(#SVGID_00000042699556660462311570000018404926448503329416_);}
	.st20{fill:url(#SVGID_00000172423670074127414500000012065210199179666586_);}
	.st21{fill:url(#SVGID_00000096033380074965374430000015271339167409317799_);}
	.st22{fill:#064295;}
	.st23{fill:url(#SVGID_00000035526020606319337370000004070735064667947411_);}
	.st24{fill:#010101;}
	.st25{fill:url(#SVGID_00000158006497026214946220000001758835089006948006_);}
	.st26{fill:url(#SVGID_00000009590787464630604450000010552537459172916610_);}
	.st27{fill:#DFDFDF;}
	.st28{fill:url(#SVGID_00000017511298681310045830000009493717154341219211_);}
	.st29{fill:url(#SVGID_00000080905756754695988300000015920537710723492269_);}
	.st30{fill:#696969;}
	.st31{fill:url(#SVGID_00000088096226292255874120000016508594955500467624_);}
	.st32{fill:#F2F2F2;}
	.st33{fill:#D6D6D6;}
	.st34{fill:#E4E4E4;}
	.st35{fill:#DDDDDD;}
	.st36{fill:url(#SVGID_00000023257439083819096240000016651057170793994936_);}
	.st37{fill:url(#SVGID_00000126297189610410770150000002733834415243455400_);}
	.st38{fill:url(#SVGID_00000090293371957787103120000005113494095459760772_);}
	.st39{fill:url(#SVGID_00000008830641584547593730000011069618491076938379_);}
	.st40{fill:url(#SVGID_00000039119198737643424330000000324465099779908525_);}
	.st41{fill:url(#SVGID_00000178168865833557356890000001177829649984249739_);}
	.st42{fill:url(#SVGID_00000178186197830692656130000000780501145001096618_);}
	.st43{fill:url(#SVGID_00000146498136681268281660000002626673729944172949_);}
	.st44{fill:url(#SVGID_00000118360594979940179440000006298300984789188790_);}
	.st45{fill:url(#SVGID_00000160182156005234299640000001880805455770837164_);}
	.st46{fill:url(#SVGID_00000178885987369953161510000007960291651015022760_);}
	.st47{fill:url(#SVGID_00000107580673977204981230000003317223286215722174_);}
	.st48{fill:url(#SVGID_00000041274188080692382650000001069004243413549244_);}
	.st49{fill:url(#SVGID_00000000911371708927855650000007305000971525062048_);}
	.st50{fill:url(#SVGID_00000009584715046337286830000006484629725518257580_);}
	.st51{fill:url(#SVGID_00000042710102149111802350000002010842144831369146_);}
	.st52{fill:url(#SVGID_00000017493286625289005700000002232816416696232073_);}
	.st53{fill:url(#SVGID_00000116955506428473316680000010056890094684080278_);}
	.st54{fill:url(#SVGID_00000080891588679336467940000011184721306125467527_);}
	.st55{fill:url(#SVGID_00000163771953537504924750000003282740834639413946_);}
	.st56{fill:url(#SVGID_00000165923950820293740650000004222582362023315126_);}
	.st57{fill:url(#SVGID_00000072991177687202460290000004413286847297416326_);}
	.st58{fill:url(#SVGID_00000115503564408148700960000007716904738054095294_);}
	.st59{fill:url(#SVGID_00000151518273523766969410000014690144911074569638_);}
	.st60{fill:#989898;}
	.st61{fill:url(#SVGID_00000180364368825763264170000017546552035373857425_);}
	.st62{fill:url(#SVGID_00000180359016634980677220000003291774149996132026_);}
	.st63{fill:url(#SVGID_00000162332851487285174460000005085634619673816730_);}
	.st64{fill:url(#SVGID_00000163062145527868493020000015122610626064264836_);}
	.st65{fill:url(#SVGID_00000129200980774418269970000004020409217662532264_);}
	.st66{fill:url(#SVGID_00000170279155900929540470000015968377316229071768_);}
	.st67{fill:url(#SVGID_00000011021422881761110780000011225301417014621327_);}
</style>
<g>
	<path d="M36,25.4c-0.8,1.7-2.1,2.7-3.9,2.7c-1.5,0-2.7-0.7-3.3-2.1c-0.2-0.5-0.5-0.6-1-0.6c-1.2,0-2.3,0-3.5,0
		c-0.8,0-1.3-0.5-1.3-1.3c0-3.1,0-6.2,0-9.4c0.9,0,1.7,0,2.7,0c0,2.6,0,5.3,0,8c0.9,0,1.7,0,2.5,0c0.2,0,0.5-0.2,0.6-0.4
		c0.7-1.5,1.9-2.2,3.4-2.2c1.8-0.1,3.1,0.9,4,2.6c1.4,0,2.8,0,4.1,0c1.4,0,2.7,0,4.1,0c0-6.7,0-13.3,0-20c-6.2,0-12.4,0-18.7,0
		c0,0.4,0,0.8,0,1.3c-0.9,0-1.8,0-2.7,0c0-0.9,0-1.9,0-2.8c0-0.8,0.5-1.2,1.4-1.2c1.7,0,3.4,0,5.1,0c5.2,0,10.5,0,15.7,0
		c1.4,0,1.9,0.5,1.9,1.9c0,0.7,0,1.3,0,2.1c0.3,0,0.6,0,0.9,0c1.7,0,3.3,0.1,5,0c1.1-0.1,1.8,0.5,2.4,1.2c1.5,1.9,3,3.7,4.5,5.7
		c0.3,0.4,0.6,1,0.6,1.6c0,3.8,0,7.5,0,11.3c0,1.1-0.6,1.7-1.7,1.7c-0.9,0-1.7,0-2.6,0c-0.8,1.7-2.1,2.7-4,2.7c-1.4,0-2.6-0.7-3.2-2
		c-0.3-0.6-0.6-0.7-1.2-0.7C43.7,25.4,39.9,25.4,36,25.4z M47,22.7c1,0.2,1.6,0,2.1-0.9c0.6-1.2,1.9-1.6,3.1-1.6
		c1.8,0,3.2,0.8,3.9,2.6c0.6,0,1.1,0,1.6,0c0-3.1,0-6.2,0-9.3c-2.5,0-5,0-7.5,0c-1.4,0-1.8-0.4-1.8-1.8c0-1.6,0-3.3,0-4.9
		c-0.5,0-0.9,0-1.3,0C47,12.1,47,17.3,47,22.7z M56.1,10.7c-0.9-1.1-1.7-1.9-2.4-3c-0.7-1.2-1.7-1-2.8-1c0,1.4,0,2.6,0,3.9
		C52.7,10.7,54.4,10.7,56.1,10.7z M32.1,25.4c0.7,0,1.4-0.7,1.4-1.3c0-0.6-0.7-1.3-1.4-1.4c-0.7,0-1.3,0.6-1.3,1.3
		C30.9,24.8,31.4,25.4,32.1,25.4z M52.2,22.7c-0.7,0-1.2,0.6-1.2,1.3c0,0.8,0.5,1.3,1.3,1.3c0.7,0,1.4-0.7,1.4-1.3
		C53.6,23.4,52.8,22.7,52.2,22.7z"/>
	<path d="M68.4,64.1c-2.5-2.2-2.9-5.8-0.8-8.5c2.1-2.6,5.7-2.9,8.4-0.8c2.5,1.9,3.5,5.9,0.3,9.3c1,0.1,2.1,0.2,3.1,0.5
		c1.7,0.4,3.5,2.7,3.5,4.4c0,4.1,0.1,8.3,0.1,12.4c0,0.9-0.6,1.6-1.5,1.6c-6.2,0-12.3,0-18.5,0c-0.9,0-1.4-0.5-1.4-1.4
		c0-4.2-0.1-8.5,0-12.7c0.1-2.1,2-4.3,4.2-4.5C66.7,64.3,67.6,64.2,68.4,64.1z M80.4,80.2c0-3.6,0.1-7,0-10.5c0-1.8-1-2.8-2.9-2.8
		c-3.5-0.1-7,0-10.5,0c-1.5,0-2.6,1.2-2.6,2.6c0,3.4,0,6.9,0,10.3c0,0.2,0,0.3,0,0.5C69.7,80.2,75,80.2,80.4,80.2z M69,59.4
		c-0.1,1.9,1.5,3.4,3.2,3.4c1.5,0,3.5-1.2,3.5-3.3c0-2.2-1.5-3.4-3.6-3.4C70.4,56.2,68.9,57.7,69,59.4z"/>
	<linearGradient id="SVGID_1_" gradientUnits="userSpaceOnUse" x1="28.1895" y1="46.8281" x2="54.9243" y2="46.8281">
		<stop  offset="0" style="stop-color:#2352A3"/>
		<stop  offset="1" style="stop-color:#28ADE3"/>
	</linearGradient>
	<path class="st0" d="M37.1,57.1c-0.8-0.4-1.4-0.9-2.2-1.2c-0.3-0.1-0.7-0.1-1,0.1c-1.7,0.8-2.8,0.1-3.5-1c-0.6-1-1.2-2-1.8-3
		c-0.8-1.3-0.3-3,1-3.6c0.2-0.1,0.5-0.6,0.5-0.6c-0.6-0.8,0.7-1.9-0.5-2.5c-1.2-0.6-1.8-2.3-1-3.6c0.6-1,1.2-2.1,1.9-3.1
		c1-1.3,1.9-1.6,3.5-0.9c0.2,0.1,0.4,0.2,0.6,0.3c0.3-0.2,0.7-0.5,1-0.7c0.5-0.3,1-0.5,1.5-0.8c0-1.1,0.1-2.1,1.2-2.7
		c0.3-0.2,0.6-0.3,0.9-0.3c1.8,0,3.6,0,5.4,0.2c0.7,0.1,1.5,1.2,1.4,2c-0.1,0.7,0.2,1,0.8,1.3c0.4,0.2,0.8,0.5,1.2,0.6
		c0.3,0.1,0.8,0.2,1.1,0.1c1.3-0.6,3-0.2,3.7,1.1c0.7,1.2,1.5,2.4,2,3.6c0.5,1.2-0.1,2.2-1.2,2.8c-0.2,0.1-0.4,0.2-0.5,0.3
		c0,0.9,0,1.7,0,2.6c0.3,0.2,0.7,0.5,1.1,0.9c0.8,0.7,0.9,1.9,0.4,2.9c-0.5,0.9-1.1,1.8-1.6,2.7c-1.1,2-2.7,2.4-4.5,1.2
		c-0.5,0.3-1,0.6-1.5,0.8c-0.7,0.3-1.2,0.7-1.1,1.7c0.1,1-1.2,2-2.4,2c-1.3,0-2.6,0-3.8,0c-1.6,0-2.6-1-2.6-2.6
		C37.1,57.4,37.1,57.2,37.1,57.1z M43.2,36.1c-1.2,0-2.3,0-3.5,0c0,1.4-0.6,2.4-1.8,3c-0.6,0.3-1.2,0.7-1.8,1
		c-0.9,0.6-1.9,0.8-2.9,0.2c-0.4-0.3-0.6-0.2-0.9,0.3c-0.4,0.8-0.9,1.6-1.4,2.4c1.3,0.6,2,1.6,1.8,3.1c0,0.4-0.2,0.8-0.1,1.1
		c0.5,1.8,0,2.7-1.7,3.6c0.5,0.8,1,1.5,1.4,2.3c0.2,0.5,0.4,0.6,0.9,0.3c0.7-0.5,1.6-0.5,2.3-0.1c1,0.5,2,1.1,3,1.6
		c0.6,0.3,1,0.8,1.1,1.5c0,0.4,0.2,0.7,0.2,1.1c1.1,0,2.2,0,3.4,0c0.3-0.9,0.2-2,1.2-2.5c0.7-0.4,1.5-0.7,2.1-1.1
		c1.3-1,2.6-1,3.9-0.2c0.6-1,1.2-1.9,1.8-2.9c-1.6-0.9-2-1.7-1.7-3.3c0.1-0.4,0.1-0.8,0-1.2c-0.2-1.8,0.1-2.4,1.7-3.4
		c-0.4-0.7-0.9-1.4-1.3-2.2c-0.3-0.6-0.6-0.7-1.2-0.4c-0.9,0.5-1.7,0.4-2.5-0.1c-0.6-0.4-1.2-0.7-1.8-1
		C43.9,38.6,43.3,37.6,43.2,36.1z"/>
	<path class="st24" d="M18.2,74.3c-0.6-0.6-1.1-1-1.6-1.6c-0.4-0.5-0.7-0.4-1.1-0.1c-1.6,1.1-3.4,1.6-5.3,1.6
		c-4.3,0.1-7.3-2-9.1-5.6c-1.9-3.7-1.2-8.1,1.8-11.3c2.3-2.5,5.2-3.4,8.4-3c4.2,0.4,7.9,3.7,8.6,7.9c0.5,2.6,0.2,5.1-1.3,7.4
		c-0.1,0.1-0.1,0.2-0.1,0.3c-0.1,0.1-0.2,0.2-0.4,0.4c0.7,0.7,1.4,1.4,2.1,2c0.3-0.2,0.6-0.4,0.9-0.7c0.7-0.5,1.3-0.4,1.9,0.2
		c1.8,1.8,3.6,3.6,5.4,5.4c0.5,0.5,0.7,1.3,0.2,1.8c-1.2,1.3-2.5,2.4-3.7,3.6c-0.6,0.6-1.2,0.4-1.7-0.1c-1.8-1.8-3.6-3.6-5.4-5.4
		c-0.6-0.6-0.6-1.4,0-2.2C17.8,74.7,18,74.5,18.2,74.3z M2.8,64.3c-0.2,3.6,3.3,7.1,6.6,7.2c5,0.2,8-3.5,8-7.3c0-4-3-7.4-7.9-7.3
		C6,57.1,2.7,60.3,2.8,64.3z M20.5,75.8c1.2,1.2,2.4,2.5,3.5,3.6c0.4-0.4,0.8-0.8,1.3-1.3c-0.7-0.7-1.5-1.4-2.2-2.2
		C21.8,74.5,21.8,74.5,20.5,75.8z"/>
	<path class="st24" d="M16.4,17.3c0.7,0.7,1.3,1.3,1.9,1.9c-8,9-10.7,19.3-7.7,31.2c-0.4,0.1-0.8,0.3-1.2,0.4
		C9,50.9,8.5,51.1,8,51.2C4.8,38.3,7.7,27.1,16.4,17.3z"/>
	<path class="st24" d="M64.6,19.2c0.5-0.5,1-1,1.6-1.5c0.2-0.1,0.6-0.1,0.7,0c1.5,2,3.1,3.9,4.4,5.9c2.1,3.3,3.4,6.9,4.2,10.8
		c0.7,3.2,0.7,6.4,0.6,9.6c-0.1,1.7-0.5,3.5-0.8,5.2c0,0.1-0.4,0.3-0.6,0.3c-0.6-0.1-1.5-0.1-1.8-0.5c-0.3-0.3,0-1.2,0.1-1.8
		c0.6-2.5,0.5-5,0.5-7.5c-0.1-3.8-1-7.5-2.5-11c-1.2-2.8-2.8-5.3-4.6-7.7C65.9,20.5,65.3,19.9,64.6,19.2z"/>
	<path class="st24" d="M56.9,69.6c0.4,0.8,0.9,1.5,1.3,2.3c-8.4,4.5-17.2,5.4-26.4,3c0.2-0.8,0.4-1.6,0.6-2.3c0-0.1,0.3-0.2,0.5-0.1
		c3.4,1,6.9,1.2,10.4,1c2-0.1,4-0.6,6-0.9C52,72,54.5,70.9,56.9,69.6z"/>
	<path d="M18.9,8c0-0.9,0-1.7,0-2.6c2.2,0,4.4,0,6.6,0c0,0.8,0,1.7,0,2.6C23.3,8,21.1,8,18.9,8z"/>
	<path d="M21.6,13.3c0-0.9,0-1.7,0-2.6c2.2,0,4.4,0,6.6,0c0,0.8,0,1.7,0,2.6C26,13.3,23.8,13.3,21.6,13.3z"/>
	
		<linearGradient id="SVGID_00000134945903012842582220000005016710559918802616_" gradientUnits="userSpaceOnUse" x1="36.2354" y1="46.8182" x2="46.9015" y2="46.8182">
		<stop  offset="0" style="stop-color:#2352A3"/>
		<stop  offset="1" style="stop-color:#28ADE3"/>
	</linearGradient>
	<path style="fill:url(#SVGID_00000134945903012842582220000005016710559918802616_);" d="M36.2,46.8c-0.1-2.8,2.1-5.3,5.2-5.3
		c3.3,0,5.5,2.4,5.5,5.4c0,3-2.6,5.4-5.8,5.2C38.5,52,36.1,49.6,36.2,46.8z M38.9,46.8c0,1.5,1.1,2.7,2.5,2.7c1.9,0,2.7-1.2,2.8-2.6
		c0.1-1.4-1.3-2.7-2.9-2.7C40.1,44.2,38.9,45.4,38.9,46.8z"/>
</g>
</svg>
