<svg xmlns="http://www.w3.org/2000/svg" viewBox="280.3580017089844 1.1420897245407104 158.60198974609375 149.80990600585938"><g id="Group_65"><path id="Shape_260" d="M349.647 104.123C349.647 104.123 344.193 149.814 418.106 141.211L438.96 116.677C438.96 116.677 397.062 113.95 391.125 89.2256L349.65 104.126L349.647 104.123Z" fill="#FDF2DC"></path><path id="Shape_261" d="M349.646 104.123C349.646 104.123 349.143 146.148 414.308 138.244L434.596 116.2L431.849 115.787L412.448 135.587C412.448 135.587 360.09 137.181 350.573 104.286L349.646 104.123Z" fill="black"></path><path id="Shape_262" d="M350.573 104.286C350.573 104.286 344.459 143.791 413.405 135.757L436.563 110.686C436.563 110.686 399.958 110.373 395.698 87.469L394.914 87.229L350.573 104.286Z" fill="#FDF2DC"></path><path id="Shape_263" d="M351.449 104.445C351.449 104.445 348.736 137.893 409.441 131.853L429.765 110.162L427.465 109.869L406.468 128.659C406.468 128.659 363.466 137.87 353.443 103.672L351.449 104.442V104.445Z" fill="black"></path><path id="Shape_264" d="M351.45 104.446C351.45 104.446 350.14 136.401 407.348 130.101L432.719 104.723C432.719 104.723 408.518 106.1 398.281 86.479L351.446 104.45L351.45 104.446Z" fill="#73C3F9"></path><path id="Shape_265" d="M349.646 104.121C349.646 104.121 347.736 128.652 315.215 119.068L329.722 112.705C329.722 112.705 341.269 112.561 348.946 103.998C349.192 103.721 349.556 103.995 349.646 104.121Z" fill="#FDF2DC"></path><path id="Shape_266" d="M317.875 117.918C317.875 117.918 343.079 125.795 349.379 104.117L348.946 103.994C348.946 103.994 341.662 122.104 320.615 116.734L317.875 117.914V117.918Z" fill="black"></path><path id="Shape_267" d="M348.947 104.002C348.947 104.002 345.454 125.726 317.566 115.812L363.688 97.305L378.615 92.2314L348.947 104.002Z" fill="#FDF2DC"></path><path id="Shape_268" d="M320.982 114.439C320.982 114.439 340.539 121.003 348.646 103.949L347.999 103.836C347.999 103.836 339.126 115.323 323.722 113.263L320.985 114.439H320.982Z" fill="black"></path><path id="Shape_269" d="M348.001 103.836C348.001 103.836 344.771 121.017 319.543 112.556L368.595 94.2789C368.595 94.2789 379.775 97.0157 395.502 85.8286L348.001 103.839V103.836Z" fill="#FF836B"></path><path id="Shape-" d="M348.001 103.836C348.001 103.836 344.771 121.017 319.543 112.556L368.595 94.2789C368.595 94.2789 379.775 97.0157 395.502 85.8286L348.001 103.839V103.836Z" fill="#73C3F9"></path><path id="Shape_270" d="M351.45 104.439L398.285 86.4753L395.501 85.8286L348 103.836L351.45 104.439Z" fill="#73C3F9"></path><path id="Shape_271" d="M351.45 104.486H351.443L347.993 103.879C347.973 103.876 347.956 103.859 347.956 103.839C347.956 103.819 347.966 103.799 347.986 103.793L395.487 85.7891C395.487 85.7891 395.504 85.7891 395.514 85.7891L398.298 86.4358C398.324 86.4358 398.344 86.4524 398.348 86.4791C398.348 86.5058 398.331 86.5258 398.304 86.5291L351.47 104.486C351.47 104.486 351.46 104.486 351.456 104.486H351.45ZM348.173 103.819L351.446 104.393L398.124 86.4891L395.501 85.8791L348.173 103.819Z" fill="#73C3F9"></path><g id="Page-1_2"><g id="selfie"><g id="Group_66"><path id="Shape_272" d="M351.036 34.8834L351.14 34.93C351.19 34.6733 351.166 34.41 351.08 34.1633C350.933 33.7933 350.54 33.4333 349.853 33.1366C348.403 32.51 345.65 32.1766 341.196 32.67C341.583 33.24 341.943 33.8267 342.276 34.4267C346.79 33.9167 349.573 34.2533 351.033 34.8834H351.036Z" fill="#0C3E87"></path><path id="Shape_273" d="M291.081 121.094L280.358 112.367L280.851 111.497L291.771 120.204L291.081 121.094Z" fill="white"></path><path id="Shape_274" d="M291.77 120.204L292.86 115.85L289.967 113.49L280.85 111.497L291.77 120.204Z" fill="#362B6E"></path><path id="Shape_275" d="M288.858 112.981C288.858 113.008 288.861 113.034 288.871 113.058C289.108 113.678 289.201 114.338 289.148 114.998C289.138 115.074 289.168 115.148 289.228 115.195C289.288 115.241 289.368 115.251 289.438 115.225C289.508 115.198 289.558 115.131 289.568 115.058C289.631 114.328 289.528 113.594 289.268 112.911C289.248 112.798 289.141 112.718 289.025 112.738C288.911 112.758 288.831 112.864 288.851 112.981H288.855H288.858Z" fill="white"></path><path id="Shape_276" d="M287.694 112.905C287.694 112.932 287.697 112.958 287.707 112.982C288.084 113.998 287.9 114.518 287.9 114.522C287.88 114.575 287.88 114.632 287.9 114.685C287.924 114.735 287.967 114.775 288.02 114.795C288.074 114.815 288.13 114.815 288.18 114.795C288.23 114.775 288.27 114.732 288.29 114.678C288.3 114.652 288.54 114.025 288.1 112.835C288.08 112.722 287.974 112.642 287.857 112.662C287.744 112.682 287.664 112.788 287.684 112.905H287.687H287.694Z" fill="white"></path><path id="Shape_277" d="M286.408 112.576C286.408 112.603 286.408 112.629 286.421 112.653C286.798 113.673 286.615 114.189 286.615 114.196C286.575 114.306 286.628 114.426 286.738 114.469C286.791 114.489 286.848 114.489 286.898 114.469C286.948 114.449 286.991 114.406 287.008 114.353C287.018 114.326 287.258 113.699 286.818 112.509C286.798 112.396 286.691 112.319 286.578 112.339C286.465 112.359 286.388 112.466 286.408 112.579V112.576Z" fill="white"></path><path id="Shape_278" d="M338.55 51.6406C338.613 52.7906 338.596 53.944 338.496 55.0906C338.486 55.194 338.48 55.294 338.47 55.3973C338.09 59.2207 336.753 63.2075 334.973 66.3742C338.053 64.2275 340.59 61.3941 342.386 58.0974C342.746 57.4374 343.083 56.754 343.39 56.0473C344.556 53.3506 345.226 50.4672 345.37 47.5305C343.323 48.9139 341.033 50.2905 338.55 51.6372V51.6406Z" fill="#73C3F9"></path><path id="Shape_279" d="M338.549 51.6408C338.019 51.9275 337.483 52.2108 336.933 52.4975C334.353 53.8342 331.592 55.1309 328.712 56.3542C328.436 61.7444 327.436 66.4311 329.266 69.3345C331.289 68.6012 333.206 67.6078 334.973 66.3778C336.753 63.2111 338.093 59.2243 338.469 55.4009C338.479 55.2976 338.486 55.1976 338.496 55.0942C338.593 53.9475 338.613 52.7942 338.549 51.6441V51.6408Z" fill="#0057E2"></path><path id="Shape_280" d="M328.712 56.3546C328.812 54.6479 328.795 52.9345 328.658 51.2312C328.368 47.9711 327.492 44.591 325.365 41.2876C319.928 32.8508 309.878 30.424 305.121 27.764C302.271 30.1874 300.021 33.2374 298.541 36.6742C298.351 37.1175 298.171 37.5642 298.008 38.0109C303.538 38.9276 310.761 39.8942 314.611 45.3177C316.925 48.5744 316.191 50.8678 317.348 55.6379C317.721 57.1546 318.201 58.6413 318.785 60.088C319.041 60.7314 319.328 61.4047 319.655 62.1214C321.075 65.2381 322.575 68.5249 324.355 70.5582C326.032 70.3216 327.678 69.9149 329.272 69.3382C327.435 66.4315 328.435 61.7447 328.712 56.3546Z" fill="#73C3F9"></path><path id="Shape_281" d="M297.331 52.5531C297.134 51.8031 296.971 51.0431 296.848 50.2697C291.588 54.2298 290.241 56.9665 290.698 58.1166C290.838 58.4666 291.198 58.8132 291.818 59.0966C292.018 57.7732 293.528 55.5365 297.331 52.5531Z" fill="#0C3E87"></path><path id="Shape_282" d="M318.783 60.0904C316.016 61.0004 313.313 61.7771 310.729 62.4004C311.606 64.0371 312.566 65.6239 313.606 67.1606C314.389 68.3306 315.129 69.3506 315.816 70.244C318.623 70.854 321.513 70.9573 324.353 70.5573C322.573 68.5272 321.073 65.2438 319.653 62.1204C319.323 61.4071 319.036 60.7304 318.779 60.0871L318.783 60.0904Z" fill="#0057E2"></path><path id="Shape_283" d="M304.865 50.3604C306.695 53.0938 307.542 55.4038 308.712 58.1372C311.465 57.4772 314.368 56.6372 317.349 55.6405C316.192 50.8704 316.929 48.577 314.612 45.3203C310.762 39.8935 303.538 38.9301 298.008 38.0135C297.491 39.4302 297.108 40.8902 296.861 42.3769C300.778 45.0869 303.242 47.9337 304.868 50.3604H304.865Z" fill="#0057E2"></path><path id="Shape_284" d="M332.756 31.8765C334.323 34.5599 334.99 37.2766 335.316 39.9267C336.403 42.0534 337.24 44.3034 337.806 46.6235C340.37 45.1635 342.687 43.6768 344.677 42.2001C344.787 42.1201 344.893 42.0401 344.997 41.9601C344.51 39.3167 343.593 36.7733 342.28 34.4299C341.943 33.8299 341.583 33.2432 341.2 32.6732C341.037 32.4332 340.87 32.1965 340.7 31.9598C340.27 31.3665 339.81 30.7931 339.326 30.2398C334.24 24.453 326.723 21.4029 319.043 22.0063C323.613 23.5297 329.393 26.1197 332.76 31.8765H332.756Z" fill="#73C3F9"></path><path id="Shape_285" d="M334.972 32.4341C331.482 26.5006 323.609 23.5306 319.039 22.0072C313.912 22.4205 309.042 24.4339 305.122 27.764C309.875 30.4207 319.929 32.8508 325.365 41.2876C327.492 44.591 328.372 47.9711 328.659 51.2312C331.192 50.0978 333.609 48.9145 335.866 47.7011C336.526 47.3444 337.172 46.9877 337.806 46.6277C337.252 44.3344 338.126 37.8009 334.972 32.4341Z" fill="#0057E2"></path><path id="Shape_286" d="M310.731 62.4044C308.301 62.9944 305.978 63.4511 303.808 63.7644C307.114 67.0179 311.278 69.2646 315.811 70.2479C315.125 69.3546 314.388 68.3379 313.601 67.1645C312.561 65.6278 311.605 64.0378 310.731 62.4044Z" fill="#73C3F9"></path><path id="Shape_287" d="M296.544 47.2121C296.574 48.0321 296.644 48.8488 296.754 49.6622C296.781 49.8655 296.811 50.0688 296.841 50.2722C296.967 51.0422 297.127 51.8022 297.324 52.5556C297.984 55.0623 299.034 57.449 300.437 59.6257L300.861 59.579C303.501 59.2557 306.118 58.7724 308.701 58.139C307.534 55.4056 306.688 53.0956 304.854 50.3622C303.231 47.9388 300.764 45.0887 296.847 42.3787C296.584 43.9754 296.481 45.5954 296.537 47.2121H296.544Z" fill="#73C3F9"></path><path id="Shape_288" d="M354.723 34.9346C354.483 34.3346 354.103 33.8046 353.613 33.3846C354.13 34.9246 353.657 36.7114 352.207 38.6981C350.943 40.4348 348.936 42.3249 346.25 44.3216C345.956 44.5383 345.66 44.7583 345.353 44.9716C340.023 48.7651 332.743 52.5719 324.706 55.762C316.669 58.9521 308.732 61.1755 302.245 62.0689C301.885 62.1189 301.525 62.1656 301.175 62.2056C297.851 62.5956 295.095 62.5922 292.985 62.1922C292.254 62.0622 291.541 61.8522 290.854 61.5655C290.304 61.3355 289.794 61.0222 289.341 60.6355C289.364 60.7022 289.388 60.7689 289.414 60.8355C289.844 61.9156 290.721 62.7423 292.038 63.3123C292.721 63.599 293.435 63.809 294.168 63.939C296.278 64.3356 299.035 64.339 302.358 63.949C302.832 63.8956 303.318 63.829 303.808 63.759C310.222 62.8356 317.995 60.6422 325.886 57.5121C333.353 54.5486 340.163 51.0552 345.366 47.5351C346.086 47.0484 346.776 46.5617 347.43 46.075C350.116 44.0783 352.12 42.1849 353.387 40.4515C354.9 38.3748 355.35 36.5214 354.72 34.9346H354.723Z" fill="#0C3E87"></path><path id="Shape_289" d="M353.616 33.3831C353.593 33.3164 353.57 33.2498 353.543 33.1831C352.916 31.5997 351.316 30.5563 348.793 30.083C346.683 29.6863 343.926 29.683 340.603 30.0697C340.183 30.1197 339.756 30.1763 339.326 30.2363C339.809 30.7897 340.269 31.363 340.699 31.9564C340.873 32.1897 341.039 32.4264 341.199 32.6697C345.656 32.1764 348.406 32.5097 349.856 33.1364C350.54 33.4331 350.936 33.7931 351.083 34.1631C351.17 34.4098 351.19 34.6731 351.143 34.9298C350.933 36.3232 349.266 38.7333 344.996 41.9601C344.893 42.0401 344.786 42.1201 344.676 42.2001C339.459 46.0735 332.022 50.017 323.732 53.3038C315.442 56.5906 307.325 58.8173 300.871 59.5773L300.448 59.624C295.961 60.1074 293.224 59.7473 291.818 59.0973C291.198 58.8106 290.834 58.4673 290.698 58.1173C290.241 56.9672 291.591 54.2305 296.848 50.2704C296.815 50.067 296.785 49.867 296.761 49.6603C296.651 48.847 296.578 48.0303 296.551 47.2102C296.201 47.4569 295.861 47.7036 295.531 47.9503C292.844 49.947 290.841 51.8371 289.574 53.5738C288.061 55.6505 287.611 57.5073 288.241 59.0906C288.481 59.6873 288.861 60.2174 289.348 60.6374C289.801 61.024 290.311 61.3374 290.861 61.5674C291.544 61.8541 292.258 62.0641 292.991 62.1941C295.101 62.5908 297.858 62.5941 301.181 62.2074C301.531 62.1641 301.891 62.1208 302.251 62.0708C308.735 61.1807 316.655 58.964 324.705 55.7739C332.756 52.5804 340.023 48.777 345.353 44.9835C345.656 44.7668 345.956 44.5468 346.25 44.3335C348.936 42.3367 350.94 40.4467 352.206 38.71C353.656 36.7199 354.13 34.9332 353.613 33.3898L353.616 33.3831Z" fill="#73C3F9"></path><path id="Shape_290" d="M298.214 106.313L289.971 113.487C289.971 113.487 290.281 115.17 292.864 115.847L301.888 110.82L298.211 106.31L298.214 106.313Z" fill="#FFBE83"></path><path id="Shape_291" d="M341.273 139.572L332.926 150.952L331.656 150.042L340.156 138.958L341.273 139.572Z" fill="white"></path><path id="Shape_292" d="M340.156 138.957L337.106 137.477L333.479 141.114L331.656 150.041L340.156 138.957Z" fill="#362B6E"></path><path id="Shape_293" d="M332.993 142.235C333.02 142.235 333.046 142.232 333.07 142.222C333.683 141.975 334.346 141.868 335.006 141.912C335.12 141.925 335.226 141.845 335.24 141.728C335.253 141.612 335.173 141.508 335.056 141.495C334.326 141.445 333.593 141.562 332.916 141.835C332.803 141.855 332.73 141.965 332.75 142.078C332.77 142.192 332.88 142.265 332.993 142.245V142.238V142.235Z" fill="white"></path><path id="Shape_294" d="M332.936 143.399C332.962 143.399 332.989 143.392 333.012 143.385C334.022 142.989 334.546 143.162 334.549 143.162C334.659 143.202 334.779 143.142 334.819 143.035C334.839 142.982 334.836 142.925 334.816 142.875C334.793 142.825 334.749 142.785 334.696 142.765C334.669 142.755 334.036 142.529 332.856 142.989C332.742 143.009 332.666 143.119 332.686 143.235C332.706 143.352 332.816 143.425 332.932 143.405V143.399H332.936Z" fill="white"></path><path id="Shape_295" d="M332.637 144.691C332.663 144.691 332.69 144.685 332.713 144.678C333.723 144.281 334.247 144.455 334.25 144.455C334.32 144.481 334.4 144.468 334.46 144.418C334.52 144.368 334.547 144.295 334.533 144.218C334.52 144.145 334.47 144.081 334.397 144.055C334.37 144.045 333.737 143.818 332.557 144.278C332.483 144.291 332.423 144.345 332.4 144.415C332.377 144.485 332.39 144.565 332.44 144.621C332.49 144.678 332.563 144.705 332.637 144.691Z" fill="white"></path><path id="Shape_296" d="M331.356 130.454C331.356 130.454 325.882 96.1095 335.719 93.6894C344.993 91.406 350.026 99.5629 350.026 99.5629C350.026 99.5629 344.309 124.577 343.369 130.467L331.359 130.454H331.356Z" fill="#0C3E87"></path><path id="Shape_297" d="M330.172 104.697C330.172 104.697 340.602 100.794 342.065 100.937C343.529 101.081 349.286 102.817 349.286 102.817L349.659 101.177C349.659 101.177 345.136 97.1738 341.029 97.9738C336.922 98.7738 330.172 104.701 330.172 104.701V104.697Z" fill="black"></path><path id="Shape_298" d="M357.73 70.3062L350.043 73.2296C350.043 73.2296 328.649 59.626 328.232 61.806C327.816 63.9861 345.576 78.2164 348.276 79.2531C350.976 80.2931 363.133 75.5397 363.133 75.5397C363.133 75.5397 361.673 68.4362 357.726 70.3029L357.73 70.3062Z" fill="#FFBE83"></path><path id="Shape_299" d="M297.085 106.98C297.085 106.98 328.552 81.2024 338.546 80.809C348.54 80.4124 360.83 85.4325 361.993 84.4425C363.157 83.4525 378.871 93.1661 378.871 93.1661C378.871 93.1661 381.304 108.873 366.02 106.173C350.736 103.473 345.713 97.4929 340.299 99.6563C334.886 101.82 306.605 117.45 306.605 117.45L297.081 106.98H297.085Z" fill="#0C3E87"></path><path id="Shape_300" d="M332.306 130.455L333.479 141.115C333.479 141.115 335.089 141.028 337.106 137.482L338.039 130.458H332.302L332.306 130.455Z" fill="#FFBE83"></path><path id="Shape_301" d="M290.314 35.5434C290.011 36.5367 290.571 37.3401 291.561 37.3401C290.568 37.3401 289.518 38.1434 289.214 39.1368C289.518 38.1434 288.958 37.3401 287.968 37.3401C288.961 37.3401 290.011 36.5367 290.314 35.5434Z" fill="url(#paint60_linear_36_1659)"></path><path id="Shape_302" d="M304.488 74.0074C303.051 78.7042 305.695 82.5142 310.395 82.5142C305.698 82.5142 300.721 86.321 299.281 91.0211C300.718 86.3243 298.074 82.5142 293.374 82.5142C298.071 82.5142 303.045 78.7042 304.488 74.0074Z" fill="url(#paint61_linear_36_1659)"></path><path id="Shape_303" d="M357.579 2.88083C355.339 8.56762 356.569 10.3243 362.399 9.82431C356.859 9.32097 354.569 11.091 353.332 16.7678C355.576 11.0777 354.342 9.3243 348.512 9.82431C354.049 10.3277 356.346 8.55429 357.579 2.88083Z" fill="url(#paint62_linear_36_1659)"></path><path id="Shape_304" d="M330.193 64.6581C330.193 64.6581 327.306 62.9514 326.483 59.7714C325.659 56.588 325.669 54.6746 326.179 55.4079C326.689 56.1446 326.596 57.9847 326.929 58.528C326.929 58.528 326.439 54.1179 326.883 53.8546C327.329 53.5912 328.033 58.3047 328.033 58.3047C328.033 58.3047 328.573 54.4112 329.063 54.1879C329.553 53.9646 330.066 59.278 330.066 59.278C330.066 59.278 333.16 63.3148 335.13 64.3681" fill="#FFBE83"></path><path id="Shape_305" d="M328.709 58.7046L325.212 58.808C324.909 58.8146 324.589 58.5313 324.495 58.1713L322.299 49.6411C322.205 49.2844 322.379 48.9811 322.679 48.9744L326.175 48.8711C326.479 48.8611 326.799 49.1477 326.892 49.5078L329.089 58.0346C329.182 58.3979 329.009 58.698 328.706 58.708L328.709 58.7046Z" fill="white"></path><path id="Shape_306" d="M323.272 48.6936C323.272 48.6936 322.502 48.7769 322.412 48.8769C322.092 49.2236 322.356 49.8503 322.356 49.8503" fill="white"></path><path id="Shape_307" d="M329.299 58.4284L325.802 58.5318C325.499 58.5418 325.179 58.2551 325.085 57.8951L322.892 49.3616C322.799 49.0016 322.972 48.7016 323.272 48.6916L326.769 48.5882C327.072 48.5816 327.392 48.8649 327.485 49.2249L329.682 57.7518C329.772 58.1151 329.599 58.4151 329.299 58.4284Z" fill="#362B6E"></path><path id="Shape_308" d="M328.878 57.5034L326.088 57.5834C325.848 57.59 325.588 57.36 325.514 57.0733L323.761 50.2665C323.688 49.9799 323.824 49.7399 324.064 49.7332L326.854 49.6532C327.094 49.6465 327.354 49.8765 327.428 50.1632L329.181 56.9733C329.254 57.2534 329.121 57.4934 328.878 57.5034Z" fill="#FF836B"></path><path id="Shape_309" d="M329.798 58.2347C329.798 58.2347 329.165 55.758 328.655 56.0946C328.172 56.4146 328.585 58.058 328.822 59.108" fill="#FFBE83"></path><path id="Shape_310" d="M328.726 56.6715C328.726 56.6715 328.759 56.4715 328.926 56.5382Z" fill="#F9769A"></path><path id="Shape_311" d="M365.103 62.937C362.326 65.2537 358.079 68.5838 355.459 69.6304L363.56 77.7606L363.703 77.484L367.113 63.5903L365.103 62.9303V62.937Z" fill="url(#paint63_linear_36_1659)"></path><path id="Shape_312" d="M380.117 78.019L379.807 78.129C377.937 76.6756 376.64 69.0755 376.64 69.0755L375.743 66.4287L367.92 63.8587L367.117 63.5953L363.706 77.489L362 84.4458L376.643 92.7226C376.643 92.7226 382.43 97.1561 382.777 89.8159C382.977 85.6025 381.247 80.719 380.12 78.0223L380.117 78.019Z" fill="url(#paint64_linear_36_1659)"></path><path id="Shape_313" d="M367.85 60.5734C367.85 60.5734 366.726 61.5801 365.103 62.9368L367.11 63.5968L367.85 60.5767V60.5734Z" fill="url(#paint65_linear_36_1659)"></path><path id="Shape_314" d="M372.691 57.4416C372.691 57.4416 373.134 57.4583 374.024 57.8016C373.238 57.3816 372.691 57.4416 372.691 57.4416Z" fill="#F9769A"></path><path id="Shape_315" d="M381.977 63.495C378.124 59.8116 375.477 58.3716 374.02 57.8082C373.19 57.4882 372.754 57.4516 372.694 57.4482C372.037 58.4282 368.227 59.1049 368.227 59.1049L367.854 60.575L367.114 63.595L367.917 63.8584L375.74 66.4251L375.477 65.6517L375.74 66.4318L378.29 67.2618L388.147 70.4918C386.301 67.9818 384.237 65.6417 381.974 63.4984L381.977 63.495Z" fill="url(#paint66_linear_36_1659)"></path><path id="Shape_316" d="M388.128 72.8135L381.614 75.6869L385.191 80.0504C385.191 80.0504 373.004 89.6406 370.197 92.0273C367.394 94.4173 371.444 95.3507 374.664 93.1707C377.884 90.9906 391.051 85.7005 392.701 82.5004C394.411 80.7604 388.128 72.8135 388.128 72.8135Z" fill="#FFBE83"></path><path id="Shape_317" d="M388.144 70.5022L378.291 67.2654L375.741 66.4254L376.637 69.0721C376.637 69.0721 377.934 76.6723 379.804 78.1257L380.114 78.0157L390.558 74.3189C390.558 74.3189 389.834 72.8322 388.141 70.5022H388.144Z" fill="url(#paint67_linear_36_1659)"></path><path id="Shape_318" d="M368.833 54.6081C366.913 55.1948 365.853 55.2415 365.27 54.3581C363.373 51.4714 367.307 46.1446 367.307 46.1446C367.43 45.9146 367.553 45.6946 367.677 45.4846C367.523 45.4979 367.38 45.5113 367.253 45.5213C366.91 45.5513 366.58 45.3813 366.403 45.0846C365.957 44.3046 367.317 43.7546 368.8 43.3979C366.17 43.7746 363.037 44.0412 364.28 42.9179C366.523 40.8912 369.517 40.1211 369.517 40.1211C369.517 40.1211 375.66 38.1911 379.47 40.9278C379.5 40.7378 379.587 40.5612 379.72 40.4245C379.967 40.1745 380.094 40.3278 380.267 40.5645C380.74 39.2278 381.634 36.2277 382.927 32.951L323.502 49.0313V49.2713L365.107 62.935C366.73 61.5849 367.853 60.5716 367.853 60.5716L368.227 59.1016C368.907 57.2148 368.953 55.6715 368.833 54.6048V54.6081Z" fill="url(#paint68_linear_36_1659)"></path><path id="Shape_319" d="M369.197 54.4957L368.833 54.609C368.953 55.6757 368.907 57.2157 368.227 59.1058C368.227 59.1058 372.05 58.4291 372.694 57.4457L371.27 53.759C370.66 53.9956 369.944 54.259 369.2 54.499L369.197 54.4957Z" fill="#F9769A"></path><path id="Shape_320" d="M371.267 53.7546C370.657 53.9912 369.94 54.2546 369.197 54.4946L368.833 54.6079C368.953 55.6746 368.907 57.2147 368.227 59.1047C368.227 59.1047 371.44 59.7047 372.694 57.4447L371.27 53.7579L371.267 53.7546Z" fill="#FFBE83"></path><path id="Shape_321" d="M374.666 50.7817C372.172 49.8483 375.723 46.2549 375.723 46.2549C375.723 46.2549 371.949 46.7749 370.389 46.2549C368.832 45.7349 373.873 44.5715 373.873 44.5715C373.873 44.5715 369.759 45.2815 367.672 45.4816C367.549 45.6882 367.426 45.9082 367.302 46.1416C367.302 46.1416 363.372 51.4717 365.266 54.3551C365.846 55.2384 366.906 55.1851 368.829 54.6051C368.709 53.5584 368.429 52.9751 368.429 52.9751C369.052 50.795 370.589 52.0017 370.589 52.0017L371.266 53.7517C372.306 53.3451 373.032 53.0184 373.032 53.0184C373.032 53.0184 373.699 54.0984 375.389 52.675C376.099 52.0784 376.256 51.4417 376.143 50.9517C375.643 50.995 375.143 50.935 374.666 50.7783V50.7817Z" fill="#F9769A"></path><path id="Shape_322" d="M368.883 55.7418L371.48 54.2884L371.274 53.755C371.274 53.755 369.933 53.3684 369.263 53.755C368.593 54.1417 368.837 54.6084 368.837 54.6084L368.883 55.7418Z" fill="black"></path><path id="Shape_323" d="M368.433 52.9749C368.433 52.9749 368.713 53.5616 368.833 54.605L369.196 54.4916C369.94 54.2516 370.656 53.9883 371.266 53.7516L370.59 52.0016C370.59 52.0016 369.053 50.7916 368.43 52.9749H368.433Z" fill="#F9769A"></path><path id="Shape_324" d="M376.143 50.955C375.643 50.9983 375.143 50.9383 374.666 50.7817C372.172 49.8483 375.723 46.2549 375.723 46.2549C375.723 46.2549 371.949 46.7749 370.389 46.2549C368.832 45.7349 373.873 44.5715 373.873 44.5715C373.873 44.5715 369.759 45.2815 367.672 45.4816C367.549 45.6882 367.426 45.9082 367.302 46.1416C367.302 46.1416 363.372 51.4717 365.266 54.3551C365.846 55.2384 366.906 55.1851 368.829 54.6051L369.192 54.4917C369.936 54.2517 370.652 53.9884 371.262 53.7517C372.302 53.3451 373.029 53.0184 373.029 53.0184C373.029 53.0184 373.696 54.0984 375.386 52.675C376.096 52.0784 376.253 51.4417 376.139 50.9517L376.143 50.955Z" fill="#FFBE83"></path><path id="Shape_325" d="M369.37 43.2634C369.18 43.3034 368.99 43.3468 368.8 43.3901C368.977 43.3668 369.15 43.3401 369.32 43.3134L369.374 43.2634H369.37Z" fill="#2791E0"></path><g id="Group_67" opacity="0.53"><path id="Shape_326" d="M369.371 43.2646C369.181 43.3046 368.991 43.348 368.801 43.3913C368.977 43.368 369.151 43.3413 369.321 43.3146L369.374 43.2646H369.371Z" fill="#DBDBDB"></path></g><path id="Shape_327" d="M379.733 41.722C379.523 41.5153 379.423 41.2186 379.47 40.9253C375.66 38.1886 369.517 40.1186 369.517 40.1186C369.517 40.1186 366.52 40.8886 364.28 42.9153C363.033 44.0387 366.17 43.772 368.8 43.3953C368.99 43.3487 369.18 43.3087 369.37 43.2687C373.47 39.4419 376.67 47.2021 376.67 47.2021L374.903 50.3188C375.323 49.8955 375.99 50.2788 376.15 50.9555C379.057 50.7788 383.36 48.2088 381.784 44.0154C381.507 43.2653 381.107 42.572 380.593 41.9586C380.287 42.032 379.96 41.942 379.737 41.722H379.733Z" fill="#329DFD"></path><path id="Shape_328" d="M371.95 42.8708C371.95 42.8708 370.697 42.9942 369.37 43.2709L369.317 43.3209C370.77 43.1009 371.95 42.8708 371.95 42.8708Z" fill="#2791E0"></path><g id="Group_68" opacity="0.53"><path id="Shape_329" d="M371.951 42.875C371.951 42.875 370.697 42.9983 369.371 43.275L369.317 43.325C370.771 43.105 371.951 42.875 371.951 42.875Z" fill="#DBDBDB"></path></g><path id="Shape_330" d="M374.904 50.3199L376.67 47.2032C376.67 47.2032 373.474 39.443 369.37 43.2631C370.697 42.9898 371.95 42.8631 371.95 42.8631C371.95 42.8631 370.767 43.0931 369.317 43.3131C368.783 43.8231 368.233 44.5298 367.677 45.4765C369.76 45.2765 373.877 44.5665 373.877 44.5665C373.877 44.5665 368.837 45.7298 370.393 46.2498C371.95 46.7698 375.727 46.2498 375.727 46.2498C375.727 46.2498 372.177 49.8399 374.67 50.7766C375.147 50.9333 375.647 50.9933 376.147 50.9499C375.994 50.2799 375.327 49.8966 374.904 50.3199Z" fill="#329DFD"></path><path id="Shape_331" d="M380.905 41.1805C380.778 41.0971 380.655 41.0005 380.545 40.8971C380.445 40.7938 380.351 40.6804 380.271 40.5638C380.098 40.3271 379.971 40.1738 379.724 40.4238C379.394 40.7904 379.411 41.3505 379.764 41.6938C380.114 42.0371 380.678 42.0438 381.035 41.7071C381.271 41.4671 381.135 41.3438 380.905 41.1805Z" fill="#EB2027"></path><path id="Shape_332" d="M371.334 91.1108C371.334 91.1108 367.677 91.4941 367.667 91.8275C367.654 92.1608 370.704 92.3975 370.704 92.3975" fill="#FFBE83"></path><path id="Shape_333" d="M371.267 91.8271C371.267 91.8271 367.477 92.7305 366.674 94.0472C366.344 94.5938 369.634 93.2838 369.634 93.2838C369.634 93.2838 366.981 94.1605 366.897 95.4005C366.854 96.0605 370.371 93.7305 370.371 93.7305C370.371 93.7305 368.071 95.1139 368.134 95.8372C368.181 96.3872 372.901 94.0472 372.901 94.0472" fill="#FFBE83"></path><path id="Shape_334" d="M368.6 95.3373C368.6 95.3373 368.84 95.2406 368.8 95.5373Z" fill="#F9769A"></path><path id="Shape_335" d="M367.167 95.0008C367.167 95.0008 367.367 94.9775 367.374 95.1675Z" fill="#F9769A"></path><path id="Shape_336" d="M367.097 93.7402C367.156 93.7601 367.203 93.8099 367.22 93.873Z" fill="#F9769A"></path><path id="Shape_337" d="M368.017 91.811C368.14 91.861 368.277 91.861 368.4 91.811Z" fill="#F9769A"></path><path id="Shape_338" d="M353.707 71.8352L361.837 76.032L356.573 70.7452L353.707 71.8352Z" fill="black"></path><path id="Shape_339" d="M384.188 78.822L389.518 74.6885L382.788 77.0719L384.188 78.822Z" fill="black"></path><path id="Shape_340" d="M297.244 107.157L299.307 112.26L301.021 111.307L297.244 107.157Z" fill="black"></path><path id="Shape_341" d="M332.306 130.455H338.046L337.696 133.048L332.306 130.455Z" fill="black"></path><path id="Shape_342" d="M367.026 48.1589L365.103 49.4389L366.476 50.629" fill="#FFBE83"></path><path id="Shape_343" d="M374.954 51.9574C374.954 51.9574 374.434 51.8708 374.024 52.4475Z" fill="#F9769A"></path><path id="Shape_344" d="M374.404 52.0949C374.404 52.0949 374.777 52.3216 374.664 52.5883Z" fill="#F9769A"></path><path id="Shape_345" d="M366.066 52.9384C366.066 52.9384 367.646 53.6018 370.133 51.7551C370.133 51.7551 370.086 54.2951 366.066 52.9384Z" fill="#FFBE83"></path></g></g></g><path id="Shape_346" d="M322.228 3.02214C319.611 1.3321 316.428 0.748757 313.381 1.40544C310.335 2.06212 307.674 3.89883 305.984 6.51888C304.294 9.13561 303.711 12.319 304.368 15.3657C305.024 18.4125 306.864 21.0725 309.481 22.7626L319.351 29.136L325.725 19.2658C327.415 16.6491 327.998 13.4657 327.342 10.419C326.685 7.37224 324.845 4.71218 322.228 3.02214ZM311.318 19.9158C308.468 18.0791 307.008 14.7057 307.614 11.369C308.221 8.03225 310.781 5.39219 314.095 4.67884C317.408 3.96549 320.828 5.31886 322.755 8.10892C324.681 10.899 324.738 14.5757 322.898 17.4225C321.695 19.2892 319.798 20.6025 317.625 21.0725C315.451 21.5425 313.181 21.1292 311.315 19.9225L311.321 19.9125L311.318 19.9158Z" fill="#73C3F9"></path><g id="Group_69"><path id="Vector_200" d="M318.746 15.5457C318.769 15.669 318.803 15.799 318.793 15.9224C318.759 16.3557 318.446 16.649 318.013 16.6757C317.629 16.699 317.283 16.4357 317.196 16.0624C317.173 15.969 317.156 15.8757 317.133 15.7857L315.949 10.2856L313.803 10.7489L314.989 16.2224C315.006 16.329 315.033 16.4324 315.049 16.539C315.089 16.769 315.043 16.9857 314.919 17.1857C314.866 17.2724 314.796 17.3324 314.699 17.3724C314.529 17.4424 314.353 17.4724 314.173 17.4824C314.033 17.4891 313.909 17.4524 313.803 17.3691C313.629 17.229 313.493 17.059 313.456 16.829C313.443 16.739 313.416 16.649 313.396 16.559L312.219 11.0956L310.059 11.5623L311.233 17.0057C311.256 17.0957 311.269 17.189 311.309 17.2691C311.363 17.3791 311.433 17.4791 311.499 17.5791C311.809 18.0224 312.203 18.3657 312.733 18.5224C313.073 18.6224 313.419 18.6657 313.773 18.6957C314.273 18.7391 314.743 18.5957 315.209 18.4557C315.626 18.3291 315.993 18.1057 316.296 17.7857C316.376 17.7024 316.446 17.6857 316.553 17.7324C316.676 17.7891 316.809 17.8391 316.943 17.8557C317.426 17.9157 317.909 17.9257 318.386 17.8024C318.626 17.7324 318.866 17.6691 319.103 17.5891C319.449 17.4691 319.739 17.2491 320.019 17.019C320.469 16.6524 320.823 16.129 320.899 15.5457C320.906 15.5023 320.909 15.4557 320.913 15.4123C320.929 15.189 320.909 14.9657 320.859 14.749L319.489 8.47552L317.316 8.9422L318.746 15.559V15.5457Z" fill="url(#paint69_linear_36_1659)" stroke="black" stroke-miterlimit="10"></path><path id="Vector_201" d="M318.033 7.60899C318.408 7.60899 318.713 7.30454 318.713 6.92898C318.713 6.55341 318.408 6.24896 318.033 6.24896C317.657 6.24896 317.353 6.55341 317.353 6.92898C317.353 7.30454 317.657 7.60899 318.033 7.60899Z" fill="url(#paint70_linear_36_1659)" stroke="black" stroke-miterlimit="10"></path></g><path id="Vector_202" d="M414.656 70.8335C411.976 59.9998 396.555 57.6897 397.298 50.2694C397.852 44.7659 406.522 44.3592 407.715 37.9857C408.352 34.5856 406.642 30.5621 403.985 27.2553L403.739 27.322C400.328 23.2185 395.478 20.3084 391.965 21.2618C388.105 22.3085 385.131 27.8587 383.095 32.9088L382.928 32.9522C381.635 36.2256 380.748 39.2257 380.268 40.5658C380.351 40.6858 380.441 40.7958 380.541 40.8991C380.655 41.0024 380.775 41.0991 380.901 41.1824C382.148 39.7224 388.455 36.3956 389.285 37.1823C390.568 38.399 381.098 50.6228 383.545 58.6164C385.978 66.58 399.195 67.0033 398.632 69.7634C398.538 70.2234 398.008 70.3768 397.335 70.7268C396.545 71.1535 395.822 71.6835 395.172 72.3002L395.088 72.2735C391.688 75.8003 389.518 82.1805 391.185 87.7774C391.368 88.4007 393.538 95.3876 398.128 96.0577C403.785 96.881 412.302 87.9874 414.706 78.7137L414.526 78.6537C415.156 75.9936 415.272 73.3102 414.656 70.8301V70.8335Z" fill="url(#paint71_linear_36_1659)"></path></g></svg>