<svg xmlns="http://www.w3.org/2000/svg" viewBox="1582.0516357421875 1.061519980430603 144.618408203125 149.8814697265625"><g id="Group_70"><g id="Group_71"><g id="Group_72"><g id="Group_73"><path id="Vector_203" d="M1723.51 82.7991H1726.67C1726.67 82.7991 1719.75 34.0476 1720.13 20.2948L1719.64 82.7991H1723.51Z" fill="url(#paint72_linear_36_1659)" stroke="black" stroke-width="0.75" stroke-miterlimit="10"></path><path id="Vector_204" d="M1717.21 7.13973C1717.21 7.13973 1720.85 6.55641 1720.18 17.9626C1719.27 55.7412 1723.71 84.1635 1723.71 84.1635H1679.51L1679.13 7.85303L1717.21 7.13973Z" fill="url(#paint73_linear_36_1659)" stroke="black" stroke-width="0.75" stroke-miterlimit="10"></path><g id="Group_74"><path id="Vector_205" d="M1678.4 104.475L1709.06 104.459C1712.75 104.459 1715.74 101.466 1715.74 97.779L1715.72 20.9052C1715.72 17.2154 1712.73 14.2255 1709.04 14.2255L1678.38 14.2422C1674.69 14.2422 1671.7 17.2354 1671.7 20.9219L1671.72 97.7957C1671.72 101.486 1674.71 104.475 1678.4 104.472V104.475Z" fill="#0C3E87" stroke="black" stroke-width="2" stroke-miterlimit="10"></path><path id="Vector_206" d="M1678.41 16.9624H1684.36L1701.72 16.949H1703.81L1709.01 16.9457C1711.6 16.9457 1714.05 18.0223 1714.05 20.6056L1713.71 96.656C1713.71 99.2393 1711.61 101.333 1709.03 101.336L1678.43 101.353C1675.84 101.353 1673.75 99.2593 1673.75 96.676L1673.73 21.6422C1673.73 19.059 1675.83 16.9657 1678.41 16.9624Z" fill="#73C3F9" stroke="black" stroke-width="0.75" stroke-miterlimit="10"></path></g><path id="Vector_207" d="M1713.69 63.763C1713.69 63.763 1713.31 94.0785 1710.89 98.4917L1668.19 97.9384L1669.06 94.3019L1713.71 39.4139L1713.7 63.763H1713.69Z" fill="url(#paint74_linear_36_1659)" stroke="black" stroke-width="0.75" stroke-miterlimit="10"></path><path id="Vector_208" d="M1713.69 21.6234C1713.69 21.6234 1712.93 88.7909 1708.62 94.664H1667.01C1667.01 94.664 1676.58 44.2626 1673.73 21.6434L1713.69 21.6234Z" fill="url(#paint75_linear_36_1659)" stroke="black" stroke-width="0.75" stroke-miterlimit="10"></path><g id="Group_75"><g id="Vector_209"><path d="M1714.05 20.6053C1714.05 20.6053 1713.29 87.7728 1708.98 93.6459H1667.01C1667.01 93.6459 1673.68 44.0078 1673.68 21.702" fill="#73C3F9"></path><path d="M1714.05 20.6053C1714.05 20.6053 1713.29 87.7728 1708.98 93.6459H1667.01C1667.01 93.6459 1673.68 44.0078 1673.68 21.702" stroke="black" stroke-width="0.75" stroke-miterlimit="10"></path></g><path id="Vector_210" d="M1673.69 22.7186C1673.69 22.7186 1673.69 22.8386 1673.69 23.0752C1673.69 23.3119 1673.68 23.6652 1673.68 24.1252C1673.67 24.5885 1673.66 25.1585 1673.65 25.8385C1673.64 26.5151 1673.64 27.2984 1673.59 28.1817C1673.48 31.7149 1673.2 36.858 1672.69 43.2811C1671.67 56.1273 1669.78 74.1066 1667.08 94.6725L1667.01 94.5925C1673.87 94.5925 1681.11 94.5925 1688.56 94.5925C1695.59 94.5925 1702.44 94.5925 1708.98 94.5925L1708.92 94.6225C1709.28 94.0925 1709.49 93.4626 1709.68 92.8459C1709.86 92.2226 1710.01 91.5926 1710.14 90.9627C1710.41 89.6994 1710.61 88.4361 1710.79 87.1795C1711.14 84.6662 1711.4 82.1863 1711.62 79.7564C1712.06 74.8966 1712.35 70.2301 1712.6 65.8103C1713.08 56.9706 1713.36 49.1109 1713.56 42.5612C1713.75 36.0147 1713.87 30.7783 1713.94 27.1817C1713.98 25.3851 1714 23.9952 1714.02 23.0519C1714.03 22.5819 1714.04 22.2253 1714.04 21.9853C1714.05 21.7453 1714.05 21.6219 1714.05 21.6219C1714.05 21.6219 1714.05 21.7453 1714.05 21.9853C1714.05 22.2286 1714.05 22.5852 1714.04 23.0519C1714.03 23.9952 1714.01 25.3818 1713.99 27.1817C1713.93 30.7816 1713.83 36.0147 1713.64 42.5645C1713.45 49.1109 1713.19 56.9739 1712.72 65.8169C1712.47 70.2368 1712.18 74.9033 1711.74 79.7697C1711.52 82.1997 1711.27 84.6829 1710.92 87.1995C1710.74 88.4561 1710.54 89.726 1710.27 90.9927C1710.14 91.626 1709.99 92.2593 1709.81 92.8892C1709.61 93.5126 1709.41 94.1459 1709.03 94.7092L1709.01 94.7392H1708.97C1702.44 94.7392 1695.59 94.7392 1688.55 94.7392C1681.11 94.7392 1673.86 94.7392 1667.01 94.7392H1666.93L1666.94 94.6592C1669.64 74.0966 1671.55 56.1206 1672.6 43.2778C1673.11 36.8547 1673.4 31.7149 1673.54 28.1817C1673.58 27.2984 1673.59 26.5151 1673.61 25.8385C1673.62 25.1618 1673.63 24.5885 1673.64 24.1285C1673.65 23.6685 1673.66 23.3186 1673.66 23.0786C1673.67 22.8419 1673.68 22.7219 1673.68 22.7219L1673.69 22.7186Z" fill="url(#paint76_linear_36_1659)" stroke="black" stroke-width="0.75" stroke-miterlimit="10"></path></g><path id="Vector_211" d="M1713.71 48.6571C1713.71 48.6571 1713.71 48.7371 1713.72 48.8971C1713.72 49.0604 1713.72 49.2937 1713.72 49.6004C1713.72 50.2203 1713.72 51.1303 1713.72 52.3003C1713.71 54.6468 1713.7 58.0401 1713.65 62.2332C1713.6 66.4264 1713.54 71.4195 1713.36 76.9627C1713.26 79.7326 1713.13 82.6458 1712.85 85.649C1712.57 88.6556 1712.18 91.7588 1711.64 94.9153C1711.43 96.1486 1711.2 97.3686 1710.96 98.5052L1710.94 98.5619H1710.89C1698.92 98.5352 1688.25 98.3385 1680.57 98.2052C1676.73 98.1285 1673.64 98.0652 1671.5 98.0252C1670.44 97.9985 1669.61 97.9785 1669.05 97.9652C1668.77 97.9552 1668.56 97.9519 1668.41 97.9452C1668.27 97.9385 1668.19 97.9352 1668.19 97.9352C1668.19 97.9352 1668.27 97.9352 1668.41 97.9352C1668.56 97.9352 1668.77 97.9352 1669.05 97.9419C1669.61 97.9485 1670.44 97.9619 1671.5 97.9752C1673.64 98.0085 1676.73 98.0552 1680.57 98.1119C1688.25 98.2185 1698.92 98.3985 1710.89 98.4219L1710.82 98.4785C1711.06 97.3452 1711.29 96.1286 1711.5 94.8953C1712.04 91.7421 1712.43 88.6422 1712.71 85.6423C1712.99 82.6391 1713.13 79.7326 1713.23 76.9627C1713.42 71.4229 1713.49 66.4297 1713.55 62.2366C1713.6 58.0467 1713.64 54.6535 1713.67 52.3036C1713.68 51.1336 1713.69 50.2237 1713.69 49.6037C1713.7 49.297 1713.7 49.0637 1713.7 48.9004C1713.7 48.7437 1713.71 48.6604 1713.71 48.6604V48.6571Z" fill="#1A2E35"></path></g><g id="Group_76"><g id="Group_77"><g id="Group_78"><path id="Vector_212" d="M1710.92 24.5747C1710.92 24.6147 1710.04 24.6447 1708.96 24.6447C1707.87 24.6447 1706.99 24.6114 1706.99 24.5747C1706.99 24.538 1707.87 24.5047 1708.96 24.5047C1710.04 24.5047 1710.92 24.538 1710.92 24.5747Z" fill="#1A2E35" stroke="black" stroke-width="0.75" stroke-miterlimit="10"></path><path id="Vector_213" d="M1710.92 23.5478C1710.92 23.5878 1710.04 23.6178 1708.96 23.6178C1707.87 23.6178 1706.99 23.5845 1706.99 23.5478C1706.99 23.5112 1707.87 23.4778 1708.96 23.4778C1710.04 23.4778 1710.92 23.5112 1710.92 23.5478Z" fill="#1A2E35" stroke="black" stroke-width="0.75" stroke-miterlimit="10"></path><path id="Vector_214" d="M1710.92 22.521C1710.92 22.561 1710.04 22.591 1708.96 22.591C1707.87 22.591 1706.99 22.5577 1706.99 22.521C1706.99 22.4843 1707.87 22.451 1708.96 22.451C1710.04 22.451 1710.92 22.4843 1710.92 22.521Z" fill="#1A2E35" stroke="black" stroke-width="0.75" stroke-miterlimit="10"></path></g><path id="Vector_215" d="M1678.27 25.2388C1678.27 25.2388 1678.3 25.2355 1678.35 25.2321C1678.42 25.2321 1678.5 25.2288 1678.59 25.2255C1678.81 25.2188 1679.1 25.2121 1679.45 25.2055L1679.43 25.2288C1679.43 25.0355 1679.42 24.8255 1679.42 24.5988C1679.42 24.4822 1679.41 24.3722 1679.42 24.2355C1679.44 24.1022 1679.56 23.9822 1679.71 23.9689C1679.85 23.9689 1679.97 23.9589 1680.12 23.9689C1680.28 23.9889 1680.41 24.1389 1680.41 24.3022C1680.41 24.5955 1680.41 24.9022 1680.42 25.2188L1680.38 25.1788C1680.73 25.1755 1681.09 25.1721 1681.47 25.1688L1681.43 25.2121C1681.43 24.7722 1681.42 24.3155 1681.42 23.8489C1681.42 23.7322 1681.42 23.6155 1681.42 23.5022C1681.42 23.3955 1681.35 23.3222 1681.26 23.2422C1681.1 23.0822 1680.94 22.9256 1680.79 22.7722C1680.63 22.6189 1680.48 22.4656 1680.33 22.3156C1680.25 22.2423 1680.18 22.1689 1680.1 22.0956C1680.03 22.0223 1679.97 21.9456 1679.88 21.9256C1679.79 21.9023 1679.7 21.9223 1679.63 21.9723C1679.56 22.0289 1679.49 22.1089 1679.42 22.1723C1679.29 22.3089 1679.16 22.4389 1679.03 22.5689C1678.78 22.8256 1678.53 23.0589 1678.34 23.2822C1678.26 23.4055 1678.29 23.5555 1678.28 23.6889C1678.28 23.8255 1678.28 23.9522 1678.28 24.0755C1678.28 24.3122 1678.28 24.5188 1678.28 24.6955C1678.28 24.8555 1678.28 24.9855 1678.28 25.0921C1678.28 25.1855 1678.28 25.2321 1678.27 25.2355C1678.27 25.2355 1678.27 25.1921 1678.26 25.1055C1678.26 24.9988 1678.26 24.8722 1678.25 24.7155C1678.25 24.5355 1678.24 24.3288 1678.24 24.0889C1678.24 23.9655 1678.24 23.8355 1678.23 23.6955C1678.23 23.6255 1678.23 23.5555 1678.23 23.4789C1678.23 23.4022 1678.25 23.3222 1678.29 23.2489C1678.5 23.0022 1678.74 22.7822 1678.99 22.5189C1679.11 22.3889 1679.24 22.2556 1679.38 22.1189C1679.45 22.0489 1679.5 21.9823 1679.59 21.9089C1679.67 21.8423 1679.79 21.8189 1679.9 21.8456C1680.02 21.8723 1680.1 21.9656 1680.17 22.0323C1680.24 22.1056 1680.32 22.1789 1680.39 22.2523C1680.54 22.3989 1680.7 22.5522 1680.85 22.7056C1681.01 22.8589 1681.17 23.0156 1681.33 23.1756C1681.37 23.2156 1681.42 23.2522 1681.46 23.3089C1681.49 23.3622 1681.51 23.4289 1681.51 23.4922C1681.51 23.6089 1681.51 23.7255 1681.51 23.8422C1681.52 24.3088 1681.52 24.7655 1681.52 25.2055V25.2488H1681.48C1681.11 25.2488 1680.74 25.2521 1680.39 25.2555H1680.35V25.2155C1680.35 24.8988 1680.35 24.5922 1680.35 24.2988C1680.35 24.1655 1680.25 24.0489 1680.13 24.0322C1680 24.0255 1679.85 24.0322 1679.73 24.0322C1679.61 24.0422 1679.51 24.1355 1679.49 24.2455C1679.48 24.3555 1679.49 24.4822 1679.49 24.5955C1679.49 24.8222 1679.49 25.0322 1679.49 25.2255V25.2488H1679.47C1679.1 25.2488 1678.81 25.2455 1678.59 25.2421C1678.5 25.2421 1678.42 25.2421 1678.36 25.2388C1678.31 25.2388 1678.28 25.2388 1678.28 25.2355L1678.27 25.2388Z" fill="#1A2E35" stroke="black" stroke-width="0.75" stroke-miterlimit="10"></path></g><path id="Vector_216" d="M1713.14 29.108C1713.14 29.148 1704.26 29.178 1693.3 29.178C1682.35 29.178 1673.47 29.1446 1673.47 29.108C1673.47 29.0713 1682.35 29.038 1693.3 29.038C1704.26 29.038 1713.14 29.0713 1713.14 29.108Z" fill="#E1E1E1" stroke="black" stroke-width="0.75" stroke-miterlimit="10"></path><path id="Vector_217" d="M1713.48 42.8101C1713.48 42.8501 1704.6 42.8801 1693.65 42.8801C1682.69 42.8801 1673.81 42.8467 1673.81 42.8101C1673.81 42.7734 1682.69 42.7401 1693.65 42.7401C1704.6 42.7401 1713.48 42.7734 1713.48 42.8101Z" fill="#E1E1E1" stroke="black" stroke-width="0.75" stroke-miterlimit="10"></path><path id="Vector_218" d="M1713.04 55.9526C1713.04 55.9926 1703.79 56.0226 1692.38 56.0226C1680.96 56.0226 1671.71 55.9893 1671.71 55.9526C1671.71 55.916 1680.96 55.8826 1692.38 55.8826C1703.79 55.8826 1713.04 55.916 1713.04 55.9526Z" fill="#E1E1E1" stroke="black" stroke-width="0.75" stroke-miterlimit="10"></path><path id="Vector_219" d="M1712.49 68.77C1712.49 68.81 1702.99 68.84 1691.29 68.84C1679.59 68.84 1670.09 68.8066 1670.09 68.77C1670.09 68.7333 1679.58 68.7 1691.29 68.7C1703 68.7 1712.49 68.7333 1712.49 68.77Z" fill="#E1E1E1" stroke="black" stroke-width="0.75" stroke-miterlimit="10"></path><path id="Vector_220" d="M1711.15 83.1884C1711.15 83.2284 1701.62 83.2617 1689.87 83.2617C1678.12 83.2617 1668.59 83.2284 1668.59 83.1884C1668.59 83.1484 1678.12 83.1184 1689.87 83.1184C1701.63 83.1184 1711.15 83.1517 1711.15 83.1884Z" fill="#E1E1E1" stroke="black" stroke-width="0.75" stroke-miterlimit="10"></path><path id="Vector_221" d="M1681.59 38.5858C1681.59 38.5858 1681.59 38.5524 1681.59 38.4958C1681.59 38.4258 1681.58 38.3458 1681.58 38.2458C1681.58 38.0125 1681.57 37.6991 1681.56 37.3058C1681.56 36.4925 1681.54 35.3559 1681.53 34.0026L1681.6 34.066C1680.26 34.066 1678.69 34.0726 1677.01 34.076C1676.99 34.0926 1677.15 33.9393 1677.08 34.006V34.3193C1677.08 34.4226 1677.08 34.5259 1677.08 34.6293C1677.08 34.8359 1677.08 35.0392 1677.08 35.2426C1677.08 35.6459 1677.08 36.0425 1677.08 36.4292C1677.08 37.1992 1677.08 37.9258 1677.07 38.5924L1677.01 38.5291C1678.37 38.5424 1679.5 38.5525 1680.31 38.5591C1680.7 38.5658 1681.02 38.5724 1681.25 38.5758C1681.35 38.5758 1681.44 38.5824 1681.5 38.5824C1681.56 38.5824 1681.59 38.5858 1681.59 38.5891C1681.6 38.5924 1681.49 38.5991 1681.28 38.6024C1681.05 38.6058 1680.74 38.6124 1680.35 38.6191C1679.53 38.6258 1678.38 38.6391 1677.01 38.6491H1676.95V38.5858C1676.95 37.9191 1676.94 37.1925 1676.94 36.4225C1676.94 36.0359 1676.94 35.6426 1676.94 35.2359C1676.94 35.0326 1676.94 34.8293 1676.94 34.6226C1676.94 34.5193 1676.94 34.4159 1676.94 34.3126V34.1559V34.076V34.006V33.9993C1676.88 34.0626 1677.03 33.9093 1677.01 33.926C1678.69 33.9293 1680.26 33.9326 1681.6 33.936H1681.66V33.9993C1681.65 35.3692 1681.64 36.5192 1681.63 37.3425C1681.63 37.7291 1681.62 38.0391 1681.62 38.2658C1681.61 38.4758 1681.61 38.5858 1681.6 38.5824L1681.59 38.5858Z" fill="#1A2E35" stroke="black" stroke-width="0.75" stroke-miterlimit="10"></path><path id="Vector_222" d="M1707.98 35.9839C1707.98 36.0239 1702.75 36.0539 1696.29 36.0539C1689.84 36.0539 1684.6 36.0206 1684.6 35.9839C1684.6 35.9472 1689.83 35.9139 1696.29 35.9139C1702.75 35.9139 1707.98 35.9472 1707.98 35.9839Z" fill="#1A2E35" stroke="black" stroke-width="0.75" stroke-miterlimit="10"></path><path id="Vector_223" d="M1696.66 37.8003C1696.66 37.8403 1693.96 37.8703 1690.63 37.8703C1687.3 37.8703 1684.6 37.837 1684.6 37.8003C1684.6 37.7636 1687.3 37.7303 1690.63 37.7303C1693.96 37.7303 1696.66 37.7636 1696.66 37.8003Z" fill="#1A2E35" stroke="black" stroke-width="0.75" stroke-miterlimit="10"></path><path id="Vector_224" d="M1681.72 31.5765C1681.91 31.6265 1681.54 33.6265 1680.74 35.9897C1680.64 36.2864 1680.53 36.573 1680.43 36.8463C1680.38 36.983 1680.33 37.1197 1680.28 37.2497C1680.25 37.3163 1680.23 37.3797 1680.2 37.4463L1680.18 37.4963C1680.17 37.5263 1680.15 37.5563 1680.14 37.5863C1680.11 37.643 1680.07 37.6963 1680.02 37.743C1679.82 37.9296 1679.55 37.973 1679.32 37.8896C1679.21 37.8496 1679.11 37.773 1679.04 37.6863L1678.99 37.6163L1678.96 37.573L1678.91 37.4896C1678.8 37.273 1678.7 37.0697 1678.61 36.8797C1678.27 36.1264 1678.14 35.6297 1678.23 35.5897C1678.32 35.5431 1678.61 35.963 1679.05 36.6363C1679.17 36.8063 1679.29 36.9863 1679.42 37.1797L1679.47 37.253L1679.49 37.2863C1679.49 37.2863 1679.49 37.2863 1679.5 37.293C1679.51 37.2963 1679.51 37.2963 1679.52 37.2963C1679.53 37.2963 1679.55 37.283 1679.55 37.2797C1679.55 37.2797 1679.55 37.2763 1679.55 37.273V37.2697L1679.56 37.223C1679.58 37.1563 1679.61 37.093 1679.63 37.0263C1679.67 36.893 1679.72 36.7563 1679.77 36.6197C1679.86 36.343 1679.96 36.0564 1680.06 35.7664C1680.85 33.4298 1681.52 31.5332 1681.71 31.5865L1681.72 31.5765Z" fill="#FCDA69" stroke="black" stroke-width="0.75" stroke-miterlimit="10"></path><path id="Vector_225" d="M1681.09 52.4036C1681.09 52.4036 1681.09 52.3703 1681.09 52.3136C1681.09 52.2436 1681.08 52.1636 1681.08 52.0636C1681.08 51.8303 1681.07 51.517 1681.06 51.1237C1681.06 50.3104 1681.04 49.1737 1681.03 47.8205L1681.1 47.8838C1679.76 47.8838 1678.19 47.8905 1676.51 47.8938C1676.49 47.9105 1676.65 47.7571 1676.58 47.8238V48.1371C1676.58 48.2404 1676.58 48.3438 1676.58 48.4471C1676.58 48.6538 1676.58 48.8571 1676.58 49.0604C1676.58 49.4637 1676.58 49.8604 1676.58 50.247C1676.58 51.017 1676.58 51.7436 1676.57 52.4103L1676.51 52.347C1677.87 52.3603 1679 52.3703 1679.81 52.377C1680.2 52.3836 1680.52 52.3903 1680.75 52.3936C1680.85 52.3936 1680.94 52.4003 1681 52.4003C1681.06 52.4003 1681.09 52.4036 1681.09 52.407C1681.1 52.4103 1680.99 52.417 1680.78 52.4203C1680.55 52.4236 1680.24 52.4303 1679.85 52.437C1679.03 52.4436 1677.88 52.457 1676.51 52.467H1676.45V52.4036C1676.45 51.737 1676.44 51.0103 1676.44 50.2404C1676.44 49.8537 1676.44 49.4604 1676.44 49.0537C1676.44 48.8504 1676.44 48.6471 1676.44 48.4404C1676.44 48.3371 1676.44 48.2338 1676.44 48.1304V47.9738V47.8938V47.8538V47.8338V47.8238V47.8171C1676.38 47.8805 1676.53 47.7271 1676.51 47.7438C1678.19 47.7471 1679.76 47.7505 1681.1 47.7538H1681.16V47.8171C1681.15 49.1871 1681.14 50.337 1681.13 51.1603C1681.13 51.547 1681.12 51.857 1681.12 52.0836C1681.11 52.2936 1681.11 52.4036 1681.1 52.4003L1681.09 52.4036Z" fill="#1A2E35" stroke="black" stroke-width="0.75" stroke-miterlimit="10"></path><path id="Vector_226" d="M1707.48 49.7974C1707.48 49.8373 1702.25 49.8707 1695.79 49.8707C1689.33 49.8707 1684.1 49.8373 1684.1 49.7974C1684.1 49.7574 1689.33 49.7274 1695.79 49.7274C1702.25 49.7274 1707.48 49.7607 1707.48 49.7974Z" fill="#1A2E35" stroke="black" stroke-width="0.75" stroke-miterlimit="10"></path><path id="Vector_227" d="M1680.38 65.2605C1680.38 65.2605 1680.38 65.2272 1680.38 65.1705C1680.38 65.1005 1680.37 65.0205 1680.37 64.9205C1680.37 64.6872 1680.36 64.3739 1680.35 63.9806C1680.35 63.1673 1680.33 62.0306 1680.32 60.6774L1680.39 60.7407C1679.05 60.7407 1677.48 60.7474 1675.8 60.7507C1675.78 60.7674 1675.94 60.614 1675.87 60.6807V60.994C1675.87 61.0974 1675.87 61.2007 1675.87 61.304C1675.87 61.5107 1675.87 61.714 1675.87 61.9173C1675.87 62.3206 1675.87 62.7173 1675.87 63.1039C1675.87 63.8739 1675.87 64.6006 1675.86 65.2672L1675.8 65.2039C1677.16 65.2172 1678.29 65.2272 1679.1 65.2339C1679.49 65.2405 1679.81 65.2472 1680.04 65.2505C1680.14 65.2505 1680.23 65.2572 1680.29 65.2572C1680.35 65.2572 1680.38 65.2605 1680.38 65.2639C1680.39 65.2672 1680.28 65.2739 1680.07 65.2772C1679.84 65.2805 1679.53 65.2872 1679.14 65.2939C1678.32 65.3005 1677.17 65.3139 1675.8 65.3239H1675.74V65.2605C1675.74 64.5939 1675.73 63.8672 1675.73 63.0973C1675.73 62.7106 1675.73 62.3173 1675.73 61.9107C1675.73 61.7073 1675.73 61.504 1675.73 61.2973C1675.73 61.194 1675.73 61.0907 1675.73 60.9874V60.8307V60.7507V60.6807V60.674C1675.67 60.7374 1675.82 60.584 1675.8 60.6007C1677.48 60.604 1679.05 60.6074 1680.39 60.6107H1680.45V60.674C1680.44 62.044 1680.43 63.1939 1680.42 64.0172C1680.42 64.4039 1680.41 64.7139 1680.41 64.9405C1680.4 65.1505 1680.4 65.2605 1680.39 65.2572L1680.38 65.2605Z" fill="#1A2E35" stroke="black" stroke-width="0.75" stroke-miterlimit="10"></path><path id="Vector_228" d="M1706.77 62.6557C1706.77 62.6957 1701.53 62.7257 1695.08 62.7257C1688.62 62.7257 1683.39 62.6924 1683.39 62.6557C1683.39 62.6191 1688.62 62.5858 1695.08 62.5858C1701.54 62.5858 1706.77 62.6191 1706.77 62.6557Z" fill="#1A2E35" stroke="black" stroke-width="0.75" stroke-miterlimit="10"></path><path id="Vector_229" d="M1679.27 78.8689C1679.27 78.8689 1679.27 78.8356 1679.27 78.7789C1679.27 78.7089 1679.26 78.6289 1679.26 78.5289C1679.26 78.2956 1679.25 77.9823 1679.24 77.5889C1679.24 76.7756 1679.22 75.639 1679.21 74.2857L1679.28 74.3491C1677.94 74.3491 1676.37 74.3557 1674.69 74.3591C1674.67 74.3757 1674.83 74.2224 1674.76 74.2891V74.6024C1674.76 74.7057 1674.76 74.809 1674.76 74.9124C1674.76 75.119 1674.76 75.3224 1674.76 75.5257C1674.76 75.929 1674.76 76.3257 1674.76 76.7123C1674.76 77.4823 1674.76 78.2089 1674.75 78.8756L1674.69 78.8122C1676.05 78.8256 1677.18 78.8356 1677.99 78.8422C1678.38 78.8489 1678.7 78.8556 1678.93 78.8589C1679.03 78.8589 1679.12 78.8656 1679.18 78.8656C1679.24 78.8656 1679.27 78.8689 1679.27 78.8722C1679.28 78.8756 1679.17 78.8822 1678.96 78.8856C1678.73 78.8889 1678.42 78.8956 1678.03 78.9022C1677.21 78.9089 1676.06 78.9222 1674.69 78.9322H1674.63V78.8689C1674.63 78.2023 1674.62 77.4756 1674.62 76.7056C1674.62 76.319 1674.62 75.9257 1674.62 75.519C1674.62 75.3157 1674.62 75.1124 1674.62 74.9057C1674.62 74.8024 1674.62 74.6991 1674.62 74.5957V74.4391V74.3591V74.2891V74.2824C1674.56 74.3457 1674.71 74.1924 1674.69 74.2091C1676.37 74.2124 1677.94 74.2157 1679.28 74.2191H1679.34V74.2824C1679.33 75.6523 1679.32 76.8023 1679.31 77.6256C1679.31 78.0123 1679.3 78.3222 1679.3 78.5489C1679.29 78.7589 1679.29 78.8689 1679.28 78.8656L1679.27 78.8689Z" fill="#1A2E35" stroke="black" stroke-width="0.75" stroke-miterlimit="10"></path><path id="Vector_230" d="M1705.66 76.2627C1705.66 76.3027 1700.43 76.3327 1693.97 76.3327C1687.51 76.3327 1682.28 76.2993 1682.28 76.2627C1682.28 76.226 1687.51 76.1927 1693.97 76.1927C1700.43 76.1927 1705.66 76.226 1705.66 76.2627Z" fill="#1A2E35" stroke="black" stroke-width="0.75" stroke-miterlimit="10"></path><path id="Vector_231" d="M1678.61 91.7756C1678.61 91.7756 1678.61 91.7423 1678.61 91.6856C1678.61 91.6156 1678.6 91.5356 1678.6 91.4356C1678.6 91.2023 1678.59 90.889 1678.58 90.4957C1678.58 89.6824 1678.56 88.5457 1678.55 87.1924L1678.62 87.2558C1677.28 87.2558 1675.71 87.2624 1674.03 87.2658C1674.01 87.2824 1674.17 87.1291 1674.1 87.1958V87.5091C1674.1 87.6124 1674.1 87.7158 1674.1 87.8191C1674.1 88.0257 1674.1 88.2291 1674.1 88.4324C1674.1 88.8357 1674.1 89.2324 1674.1 89.619C1674.1 90.389 1674.1 91.1156 1674.09 91.7823L1674.03 91.7189C1675.39 91.7323 1676.52 91.7423 1677.33 91.7489C1677.72 91.7556 1678.04 91.7623 1678.27 91.7656C1678.37 91.7656 1678.46 91.7723 1678.52 91.7723C1678.58 91.7723 1678.61 91.7756 1678.61 91.7789C1678.62 91.7823 1678.51 91.7889 1678.3 91.7923C1678.07 91.7956 1677.76 91.8023 1677.37 91.8089C1676.55 91.8156 1675.4 91.8289 1674.03 91.8389H1673.97V91.7756C1673.97 91.109 1673.96 90.3823 1673.96 89.6124C1673.96 89.2257 1673.96 88.8324 1673.96 88.4257C1673.96 88.2224 1673.96 88.0191 1673.96 87.8124C1673.96 87.7091 1673.96 87.6058 1673.96 87.5024V87.3458V87.2658V87.1958V87.1891C1673.9 87.2524 1674.05 87.0991 1674.03 87.1158C1675.71 87.1191 1677.28 87.1224 1678.62 87.1258H1678.68V87.1891C1678.67 88.5591 1678.66 89.709 1678.65 90.5323C1678.65 90.919 1678.64 91.229 1678.64 91.4556C1678.63 91.6656 1678.63 91.7756 1678.62 91.7723L1678.61 91.7756Z" fill="#1A2E35" stroke="black" stroke-width="0.75" stroke-miterlimit="10"></path><path id="Vector_232" d="M1705.82 88.9408C1705.82 88.9808 1700.58 89.0108 1694.12 89.0108C1687.67 89.0108 1682.43 88.9775 1682.43 88.9408C1682.43 88.9042 1687.66 88.8708 1694.12 88.8708C1700.58 88.8708 1705.82 88.9042 1705.82 88.9408Z" fill="#1A2E35" stroke="black" stroke-width="0.75" stroke-miterlimit="10"></path><path id="Vector_233" d="M1701.57 64.4194C1701.57 64.4594 1697.45 64.4928 1692.38 64.4928C1687.31 64.4928 1683.19 64.4594 1683.19 64.4194C1683.19 64.3794 1687.3 64.3494 1692.38 64.3494C1697.46 64.3494 1701.57 64.3828 1701.57 64.4194Z" fill="#1A2E35" stroke="black" stroke-width="0.75" stroke-miterlimit="10"></path><path id="Vector_234" d="M1689.87 78.4819C1689.87 78.5219 1688.2 78.5519 1686.15 78.5519C1684.1 78.5519 1682.43 78.5186 1682.43 78.4819C1682.43 78.4452 1684.1 78.4119 1686.15 78.4119C1688.2 78.4119 1689.87 78.4452 1689.87 78.4819Z" fill="#1A2E35" stroke="black" stroke-width="0.75" stroke-miterlimit="10"></path></g></g><path id="Vector_235" d="M1717.01 7.21206C1717.05 7.19872 1717.04 7.14206 1717 7.14206L1679.13 7.85203C1675.74 7.85203 1672.75 10.2686 1672.23 13.6218C1671.95 15.3817 1672.34 17.3383 1674.21 19.1749L1715.13 19.1116C1715.04 19.0949 1714.95 19.0749 1714.85 19.0549C1712.35 18.445 1711.43 16.1784 1711.39 13.5985C1711.36 11.4886 1712.44 8.90199 1717.01 7.21206Z" fill="url(#paint77_linear_36_1659)" stroke="black" stroke-width="0.75" stroke-miterlimit="10"></path></g><g id="Page-1_3"><g id="messenger"><g id="Element_6"><g id="Group_79"><path id="Shape_347" d="M1600.39 135.38L1611.74 132.226L1613.16 137.499L1604.59 139.486C1604.59 139.486 1601.35 140.613 1600.4 138.883C1599.44 137.153 1600.4 135.38 1600.4 135.38H1600.39Z" fill="#FFBE83"></path><path id="Shape_348" d="M1600.39 135.38C1600.39 135.38 1601.43 139.517 1604.59 139.487L1606.31 150.123L1596.53 136.713L1600.39 135.38H1600.39Z" fill="#362B6E"></path><path id="Shape_349" d="M1605.18 150.943L1595.4 137.533L1596.53 136.713L1606.31 150.123L1605.18 150.943Z" fill="white"></path><path id="Shape_350" d="M1602.79 140.689C1602.83 140.713 1602.88 140.726 1602.93 140.726C1603.51 140.726 1604.09 140.826 1604.65 141.013C1604.71 141.039 1604.78 141.036 1604.84 141.009C1604.91 140.979 1604.95 140.929 1604.97 140.863C1605.02 140.723 1604.95 140.569 1604.81 140.516C1604.2 140.306 1603.56 140.199 1602.91 140.199C1602.84 140.199 1602.78 140.226 1602.73 140.276C1602.68 140.326 1602.66 140.393 1602.66 140.459C1602.66 140.553 1602.71 140.639 1602.79 140.689Z" fill="white"></path><path id="Shape_351" d="M1603.04 142.123C1603.08 142.146 1603.13 142.16 1603.18 142.163C1603.76 142.163 1604.34 142.26 1604.9 142.443C1604.96 142.47 1605.03 142.466 1605.09 142.44C1605.16 142.41 1605.2 142.36 1605.22 142.293C1605.27 142.153 1605.19 142.006 1605.06 141.953C1604.45 141.743 1603.81 141.636 1603.16 141.636C1603.09 141.636 1603.03 141.663 1602.98 141.71C1602.93 141.76 1602.9 141.826 1602.91 141.893C1602.91 141.986 1602.96 142.073 1603.04 142.12L1603.04 142.123Z" fill="white"></path><path id="Shape_352" d="M1603.29 143.555C1603.33 143.578 1603.38 143.592 1603.43 143.595C1604.01 143.595 1604.59 143.692 1605.15 143.875C1605.21 143.902 1605.28 143.898 1605.34 143.872C1605.41 143.842 1605.45 143.792 1605.47 143.725C1605.52 143.585 1605.45 143.432 1605.31 143.378C1604.7 143.168 1604.06 143.062 1603.41 143.062C1603.34 143.062 1603.28 143.088 1603.23 143.135C1603.18 143.185 1603.15 143.252 1603.16 143.318C1603.16 143.415 1603.21 143.502 1603.29 143.552L1603.29 143.555Z" fill="white"></path><path id="Shape_353" d="M1684.71 116.457L1674.46 110.667L1677.18 105.934L1684.65 110.587C1684.65 110.587 1687.74 112.084 1687.19 113.98C1686.64 115.877 1684.71 116.457 1684.71 116.457Z" fill="#FFBE83"></path><path id="Shape_354" d="M1684.71 116.458C1684.71 116.458 1686.89 112.802 1684.65 110.585L1690.95 101.846L1688.38 118.245L1684.71 116.458Z" fill="#362B6E"></path><path id="Shape_355" d="M1692.33 102.064L1689.76 118.463L1688.38 118.246L1690.95 101.847L1692.33 102.064Z" fill="white"></path><path id="Shape_356" d="M1686.76 111.006C1686.75 110.96 1686.73 110.92 1686.7 110.883C1686.28 110.466 1685.94 109.99 1685.68 109.47C1685.65 109.406 1685.6 109.356 1685.54 109.333C1685.48 109.31 1685.41 109.313 1685.34 109.343C1685.22 109.41 1685.16 109.566 1685.22 109.7C1685.5 110.28 1685.88 110.81 1686.34 111.266C1686.38 111.316 1686.45 111.346 1686.52 111.346C1686.58 111.346 1686.65 111.316 1686.7 111.266C1686.76 111.196 1686.79 111.096 1686.76 111.006Z" fill="white"></path><path id="Shape_357" d="M1687.6 109.814C1687.59 109.767 1687.57 109.727 1687.54 109.691C1687.13 109.277 1686.78 108.797 1686.52 108.277C1686.49 108.214 1686.44 108.164 1686.38 108.141C1686.32 108.117 1686.24 108.121 1686.18 108.151C1686.06 108.217 1686 108.374 1686.06 108.504C1686.34 109.084 1686.72 109.614 1687.18 110.074C1687.22 110.124 1687.29 110.154 1687.36 110.154C1687.42 110.154 1687.49 110.124 1687.54 110.074C1687.6 110.004 1687.63 109.904 1687.6 109.811V109.814Z" fill="white"></path><path id="Shape_358" d="M1688.44 108.624C1688.43 108.578 1688.41 108.538 1688.37 108.501C1687.96 108.084 1687.62 107.608 1687.36 107.088C1687.33 107.024 1687.28 106.974 1687.22 106.951C1687.15 106.928 1687.08 106.931 1687.02 106.961C1686.89 107.028 1686.84 107.184 1686.89 107.318C1687.18 107.898 1687.56 108.428 1688.01 108.884C1688.06 108.934 1688.13 108.964 1688.19 108.964C1688.26 108.964 1688.33 108.934 1688.37 108.884C1688.44 108.814 1688.46 108.714 1688.44 108.624Z" fill="white"></path><path id="Shape_359" d="M1619.98 95.3489C1619.98 95.3489 1646.03 102.939 1648.37 113.282C1650.72 123.625 1639.28 136.464 1613.27 139.507L1609.57 125.798C1609.57 125.798 1634.45 118.051 1630 114.112C1625.55 110.168 1608.08 101.722 1608.08 101.722C1608.08 101.722 1619.77 96.0356 1619.98 95.3489Z" fill="#0C3E87"></path><path id="Shape_360" d="M1630.53 115.274C1630.53 115.274 1643.37 107.244 1644.47 107.474L1643.79 106.861C1643.79 106.861 1641.87 106.571 1638.39 109.124C1634.9 111.677 1630.63 114.884 1630.53 115.274Z" fill="black"></path><path id="Shape_361" d="M1613.66 99.012C1613.66 99.012 1616.24 103.185 1622.68 100.139C1629.11 97.0921 1637.92 88.3158 1652.47 91.8823C1667.03 95.4488 1678.3 105.928 1678.3 105.928L1671.19 118.248C1671.19 118.248 1651.83 107.555 1644.77 106.852C1637.59 106.135 1627.27 123.854 1612.12 120.105C1600.2 117.151 1599.62 105.838 1599.62 105.838L1613.65 99.012H1613.66Z" fill="#0C3E87"></path><path id="Shape_362" d="M1603.27 63.9691C1603.27 63.9691 1603.01 67.6223 1601.29 69.6756C1601.29 69.6756 1604.67 70.7889 1608.66 69.1623C1608.66 69.1623 1606.02 67.2257 1606.34 64.9724C1605.39 64.4358 1604.35 64.0958 1603.27 63.9691Z" fill="#FFBE83"></path><path id="Shape_363" d="M1617.76 70.5844L1615 71.621C1614.39 71.851 1614.1 71.2743 1614.37 70.3344L1617.22 60.2281C1617.48 59.2914 1618.2 58.3382 1618.81 58.1082L1621.57 57.0715C1622.18 56.8415 1622.47 57.4249 1622.2 58.3582L1619.35 68.4678C1619.09 69.4011 1618.37 70.3577 1617.76 70.5844Z" fill="#FDF2DC"></path><path id="Shape_364" d="M1601.29 69.679C1601.29 69.679 1588.49 76.0755 1591.43 96.4614L1597.4 94.8348L1602.88 104.251C1602.88 104.251 1620.05 96.4214 1621.19 94.2148C1622.33 92.0082 1619.45 91.9849 1617.98 89.3183C1616.52 86.6517 1615.97 82.7652 1615.97 82.7652L1621.59 86.3184L1627.12 76.7854C1627.12 76.7854 1618.88 70.6757 1608.65 69.1591C1608.65 69.1591 1605.19 70.7823 1601.29 69.6724V69.679Z" fill="url(#paint78_linear_36_1659)"></path><path id="Shape_365" d="M1591.44 96.4585C1591.44 96.4585 1592.48 108.765 1600.68 107.981C1605.87 107.485 1613.56 93.0153 1615.12 69.5562C1615.12 69.5562 1613.67 67.6896 1611.5 69.1629C1611.5 69.1629 1598.8 89.6555 1597.4 94.8353L1591.44 96.4585Z" fill="#FFBE83"></path><path id="Shape_366" d="M1621.59 86.3209C1621.59 86.3209 1629.77 92.4907 1633.6 90.5541C1637.43 88.6175 1631.84 80.4711 1627.12 76.7879L1621.59 86.3209H1621.59Z" fill="#FFBE83"></path><path id="Shape_367" d="M1621.59 86.3203C1621.59 86.3203 1628.81 93.0234 1634.29 91.2001C1639.78 89.3802 1625.79 72.5108 1621.85 68.141C1621.85 68.141 1620.61 67.4544 1619.31 68.751C1618.01 70.0476 1625.47 87.6169 1625.47 87.6169" fill="#FFBE83"></path><path id="Shape_368" d="M1619.44 60.4489C1619.57 60.1626 1619.53 59.8591 1619.34 59.771C1619.16 59.6829 1618.9 59.8437 1618.76 60.13C1618.63 60.4162 1618.67 60.7197 1618.85 60.8078C1619.04 60.8959 1619.3 60.7352 1619.44 60.4489Z" fill="#FDF2DC"></path><path id="Shape_369" d="M1619.6 71.7962C1619.6 71.7962 1617.97 67.6331 1617.92 67.2164C1617.88 66.7998 1618.33 66.9764 1618.94 67.9597C1619.55 68.943 1618.94 67.8631 1618.94 67.8631C1618.94 67.8631 1617.9 65.4731 1618.28 65.2365C1618.66 64.9998 1620.12 68.083 1620.12 68.083C1620.12 68.083 1618.77 65.1198 1619.27 64.8498C1619.76 64.5798 1623.81 70.3863 1623.81 70.3863" fill="#FFBE83"></path><path id="Shape_370" d="M1609.81 71.9167C1609.81 71.9167 1608.32 66.9836 1609.56 65.6436C1609.68 65.5103 1609.86 65.437 1610.04 65.4436C1610.22 65.4503 1610.39 65.537 1610.5 65.6836C1610.99 66.3636 1610.83 68.0002 1612.48 68.0802C1614.56 68.1835 1616.88 63.1571 1617.67 63.6637C1618.46 64.1703 1615.94 67.7535 1615.94 67.7535C1615.94 67.7535 1618.02 64.6703 1618.49 64.8003C1619.07 64.957 1618.77 65.8536 1616.71 68.6002C1616.71 68.6002 1618.55 65.9836 1618.83 66.1836C1619.28 66.4936 1618.19 70.1635 1614.72 73.6267" fill="#FFBE83"></path><path id="Shape_371" d="M1609.57 66.3116C1609.57 66.3116 1609.82 65.525 1610.25 66.1416Z" fill="#F9769A"></path><path id="Shape_372" d="M1617.28 64.0661C1617.28 64.0661 1617.62 63.8461 1617.6 64.2461Z" fill="#F9769A"></path><path id="Shape_373" d="M1618.28 65.1629C1618.28 65.1629 1618.52 65.0396 1618.55 65.2996Z" fill="#F9769A"></path><path id="Shape_374" d="M1618.65 66.4125C1618.65 66.4125 1618.79 66.4525 1618.71 66.7091Z" fill="#F9769A"></path><path id="Shape_375" d="M1619.35 65.3325C1619.35 65.3325 1619.29 65.0659 1619.47 65.1692Z" fill="#F9769A"></path><path id="Shape_376" d="M1621.41 57.1322C1621.55 57.0855 1621.69 57.0455 1621.84 57.0155C1621.91 57.0222 1621.97 57.0422 1622.03 57.0822L1622.57 57.4722C1622.57 57.4722 1622.35 57.2755 1621.8 57.5122" fill="#FDF2DC"></path><path id="Shape_377" d="M1678 106.448L1675.29 111.141L1678.17 112.764" fill="black"></path><path id="Shape_378" d="M1678.17 112.82C1678.17 112.82 1678.15 112.82 1678.14 112.814L1675.26 111.19C1675.26 111.19 1675.24 111.17 1675.24 111.154C1675.23 111.14 1675.23 111.124 1675.24 111.11L1677.95 106.417C1677.96 106.394 1678 106.387 1678.02 106.401C1678.05 106.414 1678.06 106.447 1678.05 106.474L1675.37 111.117L1678.19 112.714C1678.22 112.727 1678.23 112.754 1678.22 112.777C1678.21 112.8 1678.19 112.82 1678.17 112.82H1678.17H1678.17Z" fill="black"></path><path id="Shape_379" d="M1612.76 137.59L1611.34 132.333L1608.55 133.11" fill="black"></path><path id="Shape_380" d="M1612.76 137.651C1612.73 137.651 1612.71 137.634 1612.7 137.607L1611.3 132.408L1608.57 133.168C1608.55 133.174 1608.53 133.168 1608.51 133.151C1608.5 133.134 1608.49 133.114 1608.5 133.094C1608.5 133.074 1608.52 133.058 1608.54 133.051L1611.32 132.278C1611.32 132.278 1611.35 132.271 1611.37 132.278C1611.38 132.284 1611.39 132.298 1611.39 132.311L1612.81 137.567C1612.82 137.597 1612.8 137.631 1612.77 137.637L1612.76 137.651Z" fill="black"></path><path id="Shape_381" d="M1622.47 84.8106L1623.56 82.9373L1625.24 87.0572" fill="black"></path><path id="Shape_382" d="M1625.24 87.1187C1625.21 87.1187 1625.19 87.1054 1625.18 87.082L1623.55 83.0689L1622.52 84.8421C1622.5 84.8688 1622.46 84.8788 1622.44 84.8621C1622.41 84.8455 1622.4 84.8121 1622.42 84.7855L1623.5 82.9089C1623.52 82.8922 1623.54 82.8789 1623.56 82.8822C1623.58 82.8822 1623.6 82.8989 1623.61 82.9189L1625.29 87.0387C1625.29 87.0387 1625.29 87.0687 1625.29 87.082C1625.28 87.0954 1625.27 87.1087 1625.26 87.112C1625.25 87.112 1625.24 87.1154 1625.23 87.1154L1625.24 87.1187Z" fill="black"></path><path id="Shape_383" d="M1597.4 94.8318C1597.4 94.8318 1597.07 96.7884 1596.96 97.3418Z" fill="#F9769A"></path><path id="Shape_384" d="M1595.34 95.3936L1597.42 94.7703L1596.96 97.3402" fill="black"></path><path id="Shape_385" d="M1596.96 97.3976H1596.95C1596.92 97.391 1596.9 97.361 1596.9 97.331L1597.35 94.8511L1595.35 95.4511C1595.32 95.4577 1595.29 95.4411 1595.28 95.4111C1595.27 95.3811 1595.29 95.3477 1595.32 95.341L1597.4 94.7144C1597.42 94.7077 1597.44 94.7144 1597.46 94.7244C1597.47 94.7377 1597.48 94.7577 1597.48 94.7777L1597.02 97.3476C1597.01 97.3743 1596.99 97.3943 1596.96 97.3943V97.3976Z" fill="black"></path><path id="Shape_386" d="M1606.44 66.2324C1606.32 65.8224 1606.29 65.3957 1606.34 64.9724L1603.27 63.9691L1603.19 64.6658" fill="black"></path><path id="Shape_387" d="M1606.44 66.2967C1606.42 66.2967 1606.39 66.28 1606.39 66.2567C1606.27 65.8567 1606.23 65.4367 1606.27 65.0201L1603.31 64.0534L1603.23 64.6801C1603.23 64.7001 1603.22 64.7167 1603.2 64.7267C1603.18 64.7334 1603.16 64.7334 1603.14 64.7201C1603.13 64.7067 1603.12 64.6867 1603.12 64.6667L1603.2 63.9768C1603.2 63.9601 1603.21 63.9434 1603.23 63.9368C1603.24 63.9268 1603.26 63.9268 1603.28 63.9301L1606.36 64.9167C1606.39 64.9267 1606.4 64.9534 1606.4 64.9801C1606.35 65.3934 1606.38 65.8134 1606.5 66.2133C1606.51 66.2433 1606.49 66.2767 1606.46 66.2833L1606.44 66.2967Z" fill="black"></path><path id="Shape_388" d="M1590.1 35.6127C1588.53 32.4162 1587.8 32.4429 1585.46 29.753C1578.52 21.7733 1582.94 9.27707 1591.87 5.65388C1603.93 0.757398 1612.07 9.6204 1612.44 14.2969C1613.23 24.5532 1599.98 20.31 1600.07 25.1265C1600.16 29.223 1609 30.143 1609.82 35.9561C1610.39 40.0159 1605.47 41.6058 1606.48 45.8557C1607.4 49.6822 1611.99 50.2022 1612.22 53.4654C1612.45 56.6353 1609.23 59.6985 1606.53 61.0151C1600.96 63.7283 1592.51 61.4751 1589.79 56.5253C1586.38 50.3222 1594.13 43.7891 1590.1 35.6061V35.6127Z" fill="url(#paint79_linear_36_1659)"></path><path id="Shape_389" d="M1608.92 55.2434C1608.92 55.2434 1611.3 61.6465 1609.8 64.0131C1608.3 66.3797 1603.21 64.1164 1602.57 63.5598C1601.92 63.0031 1601.39 62.2765 1600.32 62.4098C1598.81 62.6032 1597.4 59.7933 1598.94 59.6099C1600.32 59.4433 1600.52 60.1566 1600.52 60.1566C1600.52 60.1566 1600.61 52.5969 1608.92 55.2468V55.2434Z" fill="#FFBE83"></path><path id="Shape_390" d="M1609.4 62.763C1609.4 63.4697 1608.3 64.043 1606.94 64.043C1605.59 64.043 1604.49 63.4663 1604.49 62.763C1604.49 62.0597 1605.59 62.4364 1606.94 62.4364C1608.3 62.4364 1609.4 62.0564 1609.4 62.763Z" fill="white"></path><g id="Shape_391"><path d="M1611.21 1.06152L1610.98 1.72816C1609.92 4.78472 1610.78 7.59128 1612.9 7.99793C1610.78 7.59128 1608.21 9.73786 1607.15 12.7944C1608.21 9.73786 1607.35 6.9313 1605.23 6.52465C1607.35 6.9313 1609.92 4.78472 1610.99 1.72816L1611.21 1.06152Z" fill="url(#paint80_linear_36_1659)"></path><path d="M1612.9 7.99793C1610.78 7.59128 1609.92 4.78472 1610.98 1.72816L1611.21 1.06152L1610.99 1.72816C1609.92 4.78472 1607.35 6.9313 1605.23 6.52465M1612.9 7.99793L1613.36 8.08792M1612.9 7.99793C1610.78 7.59128 1608.21 9.73786 1607.15 12.7944M1607.15 12.7944L1606.92 13.4611M1607.15 12.7944C1608.21 9.73786 1607.35 6.9313 1605.23 6.52465M1605.23 6.52465L1604.77 6.43465" stroke="black" stroke-width="0.75" stroke-miterlimit="10"></path></g><g id="Shape_392"><path d="M1604.31 111.448C1603.37 114.181 1604.13 116.691 1606.03 117.054C1604.13 116.691 1601.83 118.611 1600.89 121.341C1601.83 118.608 1601.07 116.098 1599.17 115.735C1601.07 116.098 1603.37 114.178 1604.31 111.448Z" fill="url(#paint81_linear_36_1659)"></path><path d="M1604.52 110.851L1604.31 111.448M1604.31 111.448C1603.37 114.181 1604.13 116.691 1606.03 117.054M1604.31 111.448C1603.37 114.178 1601.07 116.098 1599.17 115.735M1606.03 117.054L1606.44 117.134M1606.03 117.054C1604.13 116.691 1601.83 118.611 1600.89 121.341M1600.89 121.341L1600.68 121.934M1600.89 121.341C1601.83 118.608 1601.07 116.098 1599.17 115.735M1599.17 115.735L1598.76 115.655" stroke="black" stroke-width="0.75" stroke-miterlimit="10"></path></g></g></g></g></g><path id="Vector_236" d="M1691.37 25.7825C1691.39 25.7091 1691.41 25.6391 1691.43 25.5758C1691.62 25.6191 1691.8 25.6691 1691.99 25.6991C1693.06 25.8625 1694.05 25.6758 1694.94 25.0358C1694.97 25.0192 1694.99 24.9892 1694.99 24.9658C1694.99 24.5558 1694.99 24.1459 1694.99 23.7225C1694.88 23.7859 1694.77 23.8425 1694.66 23.8992C1694.03 24.2325 1693.4 24.5692 1692.77 24.9058C1692.7 24.9425 1692.65 24.9458 1692.58 24.9058C1692.06 24.6258 1691.53 24.3492 1691.01 24.0692C1690.99 24.0559 1690.97 24.0459 1690.93 24.0292C1690.93 24.2159 1690.93 24.3958 1690.93 24.5725C1690.93 24.5892 1690.96 24.6125 1690.97 24.6192C1691.26 24.7425 1691.36 25.0292 1691.21 25.3025C1691.19 25.3258 1691.19 25.3591 1691.2 25.3825C1691.29 25.6925 1691.29 26.0091 1691.28 26.3258C1691.28 26.3624 1691.24 26.4124 1691.21 26.4358C1690.95 26.6091 1690.68 26.6058 1690.42 26.4358C1690.38 26.4158 1690.35 26.3624 1690.35 26.3258C1690.34 26.0091 1690.34 25.6925 1690.44 25.3858C1690.44 25.3658 1690.44 25.3391 1690.43 25.3191C1690.4 25.2358 1690.37 25.1558 1690.33 25.0625H1690.12C1690.12 25.0325 1690.12 25.0058 1690.12 24.9825C1690.12 24.5425 1690.12 24.1025 1690.12 23.6625C1690.12 23.6159 1690.11 23.5892 1690.06 23.5692C1689.76 23.4125 1689.47 23.2526 1689.17 23.0926C1689.12 23.0659 1689.08 23.0359 1689.08 22.9759C1689.08 22.9159 1689.12 22.8826 1689.17 22.8559C1690.31 22.2493 1691.45 21.6393 1692.59 21.0293C1692.65 20.9993 1692.7 20.9993 1692.75 21.0293C1693.89 21.6393 1695.03 22.2493 1696.18 22.8559C1696.23 22.8826 1696.27 22.9126 1696.27 22.9759C1696.27 23.0359 1696.22 23.0659 1696.17 23.0926C1695.87 23.2492 1695.58 23.4125 1695.28 23.5692C1695.24 23.5925 1695.22 23.6159 1695.22 23.6625C1695.22 24.1125 1695.22 24.5625 1695.22 25.0125C1695.22 25.0891 1695.2 25.1391 1695.14 25.1825C1694.51 25.6558 1693.8 25.9225 1693.01 25.9791C1692.46 26.0158 1691.92 25.9725 1691.4 25.8025C1691.39 25.8025 1691.38 25.7958 1691.36 25.7891L1691.37 25.7825ZM1695.9 22.9692C1695.88 22.9559 1695.87 22.9492 1695.85 22.9426C1694.81 22.3859 1693.77 21.8293 1692.73 21.2726C1692.68 21.2493 1692.65 21.2593 1692.61 21.2793C1691.58 21.8293 1690.55 22.3793 1689.52 22.9292C1689.5 22.9426 1689.48 22.9559 1689.45 22.9726C1689.47 22.9826 1689.48 22.9926 1689.49 22.9959C1689.9 23.2159 1690.32 23.4392 1690.73 23.6559C1690.76 23.6692 1690.8 23.6625 1690.82 23.6492C1691.25 23.4225 1691.68 23.1926 1692.11 22.9659C1692.15 22.9392 1692.2 22.9126 1692.25 22.8892C1692.18 22.6992 1692.22 22.5592 1692.39 22.4692C1692.58 22.3626 1692.78 22.3626 1692.97 22.4692C1693.2 22.6026 1693.2 22.8826 1692.96 23.0159C1692.82 23.0959 1692.66 23.1059 1692.5 23.0659C1692.47 23.0559 1692.43 23.0626 1692.4 23.0759C1691.96 23.3059 1691.53 23.5392 1691.09 23.7692C1691.07 23.7825 1691.05 23.7959 1691.02 23.8125C1691.05 23.8292 1691.07 23.8425 1691.1 23.8559C1691.6 24.1225 1692.1 24.3892 1692.6 24.6592C1692.65 24.6892 1692.7 24.6892 1692.75 24.6592C1693.78 24.1092 1694.8 23.5625 1695.83 23.0159C1695.85 23.0059 1695.87 22.9926 1695.9 22.9759L1695.9 22.9692ZM1690.65 25.5091C1690.58 25.7391 1690.59 25.9891 1690.59 26.2358C1690.59 26.2491 1690.61 26.2691 1690.62 26.2791C1690.75 26.3558 1690.89 26.3558 1691.02 26.2791C1691.03 26.2691 1691.05 26.2391 1691.05 26.2158C1691.05 26.1058 1691.06 25.9991 1691.05 25.8891C1691.04 25.7558 1691.02 25.6258 1691 25.5058H1690.65V25.5091ZM1690.36 24.9492C1690.41 24.7925 1690.51 24.6792 1690.67 24.6192C1690.68 24.6125 1690.7 24.5892 1690.7 24.5725C1690.7 24.3592 1690.7 24.1492 1690.7 23.9359C1690.7 23.9225 1690.69 23.9025 1690.68 23.8959C1690.58 23.8392 1690.47 23.7825 1690.36 23.7225V24.9492H1690.36ZM1691.05 25.0592C1691.05 24.9325 1690.95 24.8258 1690.83 24.8258C1690.7 24.8258 1690.59 24.9258 1690.59 25.0525C1690.59 25.1825 1690.69 25.2891 1690.82 25.2891C1690.95 25.2891 1691.05 25.1858 1691.05 25.0592ZM1692.68 22.6059C1692.61 22.6326 1692.54 22.6459 1692.49 22.6792C1692.43 22.7126 1692.43 22.7559 1692.48 22.7959C1692.57 22.8726 1692.78 22.8726 1692.87 22.7959C1692.92 22.7559 1692.93 22.7126 1692.87 22.6792C1692.81 22.6459 1692.75 22.6292 1692.68 22.6059H1692.68Z" fill="#1A2E35" stroke="black" stroke-width="0.5" stroke-miterlimit="10"></path></g></svg>