<svg xmlns="http://www.w3.org/2000/svg" viewBox="5470.72607421875 1.0703166723251343 131.14794921875 149.85427856445312"><g id="Group_8"><g id="Character_2"><path id="Shape_25" d="M5568.5 125.59L5577.07 130.653L5578.84 131.697L5578.94 131.757C5578.7 131.687 5578.73 131.707 5578.99 131.787L5580.36 132.593C5581.15 133.057 5581.77 133.757 5582.14 134.59L5582.24 134.63C5586.68 136.4 5591.89 137.636 5591.89 137.636L5587.15 146.626C5587.15 146.626 5579.16 141.386 5577.9 141.023C5577.62 140.943 5577.19 140.826 5576.66 140.683L5576.57 140.67L5572.43 140.113L5572.2 140.083L5570.79 139.893L5561.87 137.533L5568.5 125.59Z" fill="#FFBE83"></path><path id="Shape_26" d="M5590.53 148.666L5595.46 138.443L5581.01 134.27C5580.34 134.08 5579.62 134.17 5579.01 134.52C5578.4 134.87 5577.97 135.447 5577.79 136.127C5577.73 136.374 5577.63 136.614 5577.5 136.83L5577.12 137.45C5576.77 138.04 5576.66 138.75 5576.83 139.42C5577 140.09 5577.43 140.663 5578.02 141.017L5583.77 144.44L5590.53 148.666H5590.53Z" fill="#362B6E"></path><path id="Shape_27" d="M5595.48 138.38L5590.51 148.719C5591.99 149.233 5593.53 149.546 5595.09 149.653C5596.88 149.776 5598.91 149.103 5599.63 147.449C5600.68 145.036 5599.48 141.723 5595.48 138.38Z" fill="#F5F6F3"></path><path id="Shape_28" d="M5584.8 145.584C5585.33 145.98 5585.99 146.46 5586.79 146.95C5587.88 147.657 5589.05 148.227 5590.27 148.64L5590.61 148.75C5592.05 149.243 5593.56 149.543 5595.08 149.647C5596.88 149.77 5598.9 149.097 5599.62 147.443C5600.67 145.047 5599.49 141.767 5595.57 138.454L5595.44 138.337C5594.8 137.791 5594.13 137.281 5593.43 136.807C5593.42 136.797 5593.41 136.787 5593.39 136.781C5593.3 136.721 5593.21 136.664 5593.12 136.607C5593.02 136.551 5592.93 136.477 5592.83 136.414C5597.86 138.537 5601.12 141.68 5601.69 143.917C5602.05 145.32 5602.11 148.063 5599.68 149.94C5597.01 152.003 5592.58 150.377 5589.53 149.12C5586.92 148.05 5584.75 145.86 5584.16 145.23C5584.34 145.324 5584.52 145.42 5584.71 145.517L5584.81 145.577L5584.8 145.584Z" fill="white"></path><path id="Shape_29" d="M5576.81 140.736L5576.57 140.666L5577.37 140.773C5577.18 140.803 5576.99 140.79 5576.81 140.733V140.736Z" fill="#AF3152"></path><path id="Shape_30" d="M5584.06 145.076C5584.36 145.246 5584.61 145.409 5584.82 145.559C5585.52 146.066 5586.14 146.526 5586.79 146.949C5585.99 146.459 5585.33 145.979 5584.8 145.582L5584.71 145.516L5584.83 145.576C5584.58 145.399 5584.33 145.236 5584.06 145.079V145.076Z" fill="#AF3152"></path><path id="Shape_31" d="M5592.54 136.29L5592.65 136.333L5592.84 136.413C5592.94 136.476 5593.03 136.54 5593.13 136.606C5592.94 136.496 5592.75 136.39 5592.55 136.29H5592.54Z" fill="white"></path><path id="Shape_32" d="M5584 145.06C5584.27 145.22 5584.51 145.374 5584.71 145.514C5584.53 145.417 5584.34 145.324 5584.16 145.227C5584.05 145.117 5584 145.054 5584 145.054H5584V145.06Z" fill="white"></path><path id="Shape_33" d="M5584 145.061C5583.6 144.824 5583.12 144.564 5582.58 144.298C5581.29 143.661 5579.58 142.908 5577.87 142.205C5580.15 143.131 5582.53 144.201 5584 145.041V145.058V145.061Z" fill="white"></path><path id="Shape_34" d="M5572.21 140.085L5572.19 140.079L5572.21 140.085Z" fill="white"></path><path id="Shape_35" d="M5584.06 145.075C5584.32 145.235 5584.58 145.398 5584.83 145.575L5584.71 145.515C5584.52 145.372 5584.29 145.222 5584.01 145.062V145.045L5584.06 145.075Z" fill="white"></path><path id="Shape_36" d="M5573.53 140.548C5573.82 140.648 5574.11 140.751 5574.42 140.868C5574.11 140.751 5573.82 140.648 5573.53 140.548Z" fill="#362B6E"></path><path id="Shape_37" d="M5595.47 138.368C5594.79 137.795 5594.07 137.261 5593.33 136.761L5593.29 136.738L5593.34 136.768L5593.33 136.758C5593.26 136.708 5593.19 136.658 5593.12 136.615C5593.22 136.671 5593.31 136.728 5593.4 136.788C5593.41 136.798 5593.43 136.808 5593.44 136.815C5594.14 137.288 5594.81 137.798 5595.45 138.345L5595.57 138.461L5595.49 138.388C5595.49 138.388 5595.48 138.371 5595.47 138.371V138.368Z" fill="#362B6E"></path><path id="Shape_38" d="M5590.5 148.713H5590.51L5590.61 148.746L5590.28 148.636C5589.05 148.22 5587.88 147.653 5586.79 146.946C5587.96 147.663 5589.2 148.256 5590.49 148.709V148.716L5590.5 148.713Z" fill="#362B6E"></path><path id="Shape_39" d="M5573.53 140.547C5573.82 140.65 5574.1 140.754 5574.42 140.867C5575.47 141.25 5576.67 141.724 5577.87 142.21C5575.81 141.37 5573.85 140.64 5572.75 140.297C5572.57 140.237 5572.38 140.17 5572.2 140.094C5572.34 140.154 5572.49 140.207 5572.64 140.254C5572.91 140.337 5573.21 140.437 5573.53 140.55L5573.53 140.547Z" fill="#362B6E"></path><path id="Shape_40" d="M5572.42 140.11C5572.77 140.254 5573.14 140.397 5573.53 140.537C5573.21 140.427 5572.91 140.324 5572.64 140.24C5572.5 140.194 5572.36 140.14 5572.21 140.08L5572.19 140.07L5572.42 140.107V140.11Z" fill="#362B6E"></path><path id="Shape_41" d="M5581.43 143.704C5582.31 144.104 5583.17 144.551 5584 145.044C5582.54 144.201 5580.15 143.134 5577.87 142.207C5576.66 141.714 5575.46 141.248 5574.42 140.864C5576.81 141.684 5579.15 142.631 5581.43 143.704Z" fill="#362B6E"></path><path id="Shape_42" d="M5584.01 145.043L5584.06 145.08L5584.01 145.043Z" fill="#362B6E"></path><path id="Shape_43" d="M5576.57 140.667L5576.81 140.737C5576.99 140.79 5577.19 140.803 5577.37 140.777C5578.45 140.607 5578.88 138.957 5579.84 138.877C5580.08 138.857 5580.67 139.02 5581.45 139.303C5582.37 139.64 5583.57 140.14 5584.79 140.703C5587.31 141.87 5589.91 143.293 5590.31 144.016C5591.07 145.376 5590.62 148.709 5590.61 148.753L5590.51 148.719H5590.5C5589.2 148.266 5587.97 147.676 5586.8 146.956C5586.15 146.53 5585.53 146.073 5584.83 145.566C5584.62 145.416 5584.37 145.256 5584.07 145.083L5584.02 145.046C5583.18 144.556 5582.33 144.11 5581.45 143.706C5579.16 142.636 5576.83 141.686 5574.44 140.87C5574.13 140.753 5573.83 140.65 5573.55 140.55C5573.15 140.407 5572.78 140.263 5572.44 140.123L5576.57 140.667H5576.57Z" fill="#362B6E"></path><path id="Shape_44" d="M5582.2 138.1C5583.03 136.11 5581.3 133.107 5579.37 131.964C5579.37 131.964 5580.56 132.287 5581.32 132.554C5582.7 133.094 5583.82 133.694 5585.29 134.244C5585.49 134.317 5585.7 134.387 5585.91 134.447C5587.49 134.924 5589.39 135.16 5590.9 135.667C5591.73 135.947 5592.53 136.307 5593.29 136.744L5593.33 136.767C5594.07 137.264 5594.79 137.8 5595.47 138.374C5595.47 138.374 5595.48 138.374 5595.49 138.384L5595.57 138.457C5595.57 138.457 5592.61 140.957 5591.66 141.383C5591.14 141.613 5587.91 140.483 5585.04 139.32C5583.99 138.894 5582.99 138.467 5582.19 138.1H5582.2Z" fill="#362B6E"></path><path id="Shape_45" d="M5572.97 128.054L5561.86 137.53L5568.5 125.59L5572.97 128.054Z" fill="black"></path><path id="Shape_46" d="M5581 141.69C5581.1 141.607 5581.19 141.494 5581.24 141.367C5582.31 138.59 5583.72 136.964 5583.74 136.944C5583.87 136.797 5583.94 136.601 5583.93 136.404C5583.91 136.204 5583.81 136.021 5583.66 135.897C5583.32 135.644 5582.85 135.687 5582.56 136.001C5582.5 136.074 5580.96 137.834 5579.78 140.877C5579.7 141.064 5579.71 141.274 5579.79 141.457C5579.88 141.64 5580.04 141.777 5580.23 141.834C5580.5 141.917 5580.78 141.864 5581 141.69Z" fill="white"></path><path id="Shape_47" d="M5583.81 142.958C5583.92 142.874 5584 142.761 5584.05 142.631C5585.13 139.855 5586.54 138.231 5586.56 138.208C5586.69 138.061 5586.76 137.865 5586.75 137.668C5586.73 137.471 5586.63 137.285 5586.48 137.161C5586.14 136.908 5585.67 136.951 5585.38 137.265C5585.32 137.338 5583.78 139.098 5582.6 142.141C5582.53 142.328 5582.53 142.534 5582.62 142.714C5582.71 142.894 5582.86 143.031 5583.06 143.088C5583.32 143.174 5583.6 143.124 5583.81 142.958Z" fill="white"></path><path id="Shape_48" d="M5552.17 60.8344C5552.47 58.9646 5552.45 57.0547 5552.1 55.1914C5552.01 54.6948 5551.79 54.1048 5551.3 54.0348C5550.73 53.9515 5550.01 54.6148 5549.65 54.1581C5549.49 53.9548 5549.55 53.6615 5549.65 53.4215C5549.89 52.7816 5550.26 52.1983 5550.74 51.7083C5551.04 51.4083 5551.37 51.1383 5551.59 50.785C5552.08 50.025 5551.74 48.9151 5551.05 48.3351C5550.36 47.7518 5549.47 48.7984 5548.75 48.3851C5548.02 47.9718 5548 46.9585 5547.86 46.1419C5547.76 45.532 5547.31 43.8787 5546.82 44.682C5546.32 45.4853 5547.48 48.6918 5548.78 50.2284C5548.94 50.415 5549.11 50.6217 5549.1 50.8617C5549.07 51.4416 5548.22 51.4183 5547.66 51.535C5546.95 51.6783 5545.88 51.305 5546.47 52.5349C5546.78 53.1815 5548.28 54.0648 5547.88 54.4981C5547.48 54.9314 5546.24 56.1847 5545.66 57.198C5545.07 58.2113 5544.8 59.4745 5545.23 60.5545C5545.66 61.6344 5546.99 62.3877 5548.06 61.9277C5548.57 61.7144 5549.11 61.2711 5549.58 61.5544C5550.01 61.8111 5549.94 62.4244 5549.92 62.921C5549.9 63.4176 5550.18 64.0709 5550.66 63.9543C5550.82 63.9009 5550.96 63.801 5551.05 63.6676C5551.73 62.8977 5552.01 61.8511 5552.17 60.8344Z" fill="#48DBBC"></path><path id="Shape_49" d="M5532.01 33.1759C5532.01 33.1759 5532.41 39.1689 5530.66 40.7155C5530.66 40.7155 5534.09 45.1686 5539.29 41.3488C5539.29 41.3488 5537.52 37.7557 5537.29 33.4626C5537.3 33.4626 5534.58 30.846 5532.01 33.1759H5532.01Z" fill="#FFBE83"></path><path id="Shape_50" d="M5524.13 24.9236C5524.13 24.9236 5528.21 33.8765 5535.19 33.7798C5542.17 33.6798 5544.55 24.8703 5544.55 24.8703C5544.55 24.8703 5548.23 24.6536 5548.42 21.6071C5548.61 18.564 5545.18 19.2139 5545.18 19.2139C5545.39 18.9473 5543.61 2.59485 5533.36 9.62113C5528.38 13.0443 5528.75 13.0643 5526.31 17.2707L5523.86 20.3772C5523.86 20.3772 5522.1 17.0874 5520.45 20.3772C5518.81 23.667 5522.28 26.3636 5524.12 24.927L5524.13 24.9236Z" fill="#FFBE83"></path><path id="Shape_51" d="M5521.27 19.9136C5518 18.2703 5520.84 5.09438 5523.64 4.22776C5525.53 3.64446 5527.07 7.73757 5530.14 7.43759C5533.57 7.10427 5534.5 1.41791 5537.79 1.08127C5540.13 0.844612 5540.51 4.49108 5545.4 7.35092C5550.01 10.0508 5549.61 10.8741 5549.75 12.2607C5549.94 14.0239 5549.88 18.4137 5545.99 17.7837C5543.04 17.307 5539.79 14.4705 5537.27 13.6472C5531.11 11.634 5529.25 23.9234 5521.27 19.9136H5521.27Z" fill="url(#paint14_linear_36_1659)"></path><path id="Shape_52" d="M5538.9 29.6618C5538.9 30.6617 5537.35 31.4617 5535.45 31.4617C5533.54 31.4617 5532 30.6584 5532 29.6618C5532 28.6652 5533.54 29.2018 5535.45 29.2018C5537.35 29.2018 5538.9 28.6685 5538.9 29.6618Z" fill="white"></path><path id="Shape_53" d="M5540.78 25.5177C5543.53 25.5177 5545.76 23.2897 5545.76 20.5413C5545.76 17.7929 5543.53 15.5649 5540.78 15.5649C5538.03 15.5649 5535.81 17.7929 5535.81 20.5413C5535.81 23.2897 5538.03 25.5177 5540.78 25.5177Z" fill="#362B6E"></path><path id="Shape_54" d="M5529.3 25.5689C5532.05 25.5689 5534.28 23.3409 5534.28 20.5925C5534.28 17.8442 5532.05 15.6161 5529.3 15.6161C5526.55 15.6161 5524.32 17.8442 5524.32 20.5925C5524.32 23.3409 5526.55 25.5689 5529.3 25.5689Z" fill="#362B6E"></path><path id="Shape_55" d="M5497.1 70.0475C5497.1 70.0475 5501.8 53.765 5509.95 48.7187C5518.1 43.6723 5530.66 40.7191 5530.66 40.7191L5539.28 41.3524C5539.28 41.3524 5551.77 43.4589 5560.4 50.6285C5569.02 57.7982 5572.91 65.9977 5572.91 65.9977L5559.71 78.627L5560.49 96.8427C5560.49 96.8427 5558.89 102.579 5548.98 102.349C5539.07 102.119 5531.9 109.665 5528.43 110.055C5524.97 110.445 5512.29 98.1326 5512.82 97.796C5513.34 97.4593 5512.32 78.9703 5512.32 78.9703L5497.1 70.0542V70.0475Z" fill="url(#paint15_linear_36_1659)"></path><path id="Shape_56" d="M5531.69 96.946C5531.69 96.946 5540.73 95.8428 5546.38 93.5096C5552.03 91.1764 5556.87 89.6064 5560.52 90.7997C5564.16 91.993 5544.93 104.179 5539.09 103.426C5533.25 102.672 5529.82 99.8759 5531.68 96.946H5531.69Z" fill="black"></path><path id="Shape_57" d="M5526.9 16.7098C5526.77 16.8998 5526.7 17.1264 5526.7 17.3564C5526.72 17.6231 5526.86 17.873 5526.87 18.1397C5526.88 18.5963 5526.53 18.973 5526.42 19.4163C5526.3 19.9096 5526.76 20.4696 5526.94 20.7462C5527.12 21.0229 5527.05 20.5229 5527.16 20.3296C5527.27 20.1329 5527.51 21.1462 5527.88 21.3695C5528.08 21.4895 5528.32 21.5695 5528.46 21.7495C5528.67 22.0162 5528.62 22.3995 5528.58 22.7394C5528.55 23.0794 5528.6 23.4927 5528.9 23.6427C5529.08 23.7327 5529.31 23.7027 5529.47 23.8194C5529.76 24.026 5529.62 24.4794 5529.73 24.8193C5529.86 25.1826 5530.1 25.186 5530.48 25.2626C5530.85 25.3393 5530.43 24.5127 5530.61 24.2227C5530.72 24.0827 5530.82 23.9394 5530.91 23.7861C5531.01 23.5594 5530.99 23.2594 5531.18 23.1094C5531.33 22.9961 5531.54 23.0294 5531.72 23.0261C5531.91 23.0261 5532.13 22.9461 5532.15 22.7594C5532.16 22.5761 5532 22.4661 5531.84 22.4295C5531.68 22.3928 5531.51 22.4095 5531.35 22.3595C5530.9 22.2161 5530.69 21.5928 5530.22 21.5628C5529.82 21.5395 5529.49 21.9895 5529.09 21.9095C5528.87 21.8662 5528.72 21.6728 5528.56 21.5162C5528.35 21.3195 5528.09 21.1695 5527.92 20.9362C5527.76 20.7029 5527.73 20.3262 5527.96 20.1629C5528.15 20.0563 5528.39 20.0763 5528.56 20.2162C5528.73 20.3529 5528.87 20.5162 5528.98 20.6962C5529.02 20.7529 5529.07 20.7962 5529.13 20.8229C5529.3 20.8762 5529.42 20.6362 5529.38 20.4662C5529.34 20.2929 5529.22 20.1396 5529.21 19.9629C5529.2 19.6496 5529.54 19.4496 5529.83 19.3463C5530.13 19.243 5530.48 19.1196 5530.57 18.8197C5530.58 18.7097 5530.6 18.603 5530.64 18.4963C5530.79 18.163 5531.61 17.9997 5531.42 17.8064C5531.22 17.6131 5530.6 17.5697 5530.48 17.1831C5530.43 17.0398 5530.39 16.8598 5530.24 16.8464C5530.01 16.8264 5529.87 17.1164 5529.67 17.1664C5529.58 17.1897 5529.57 17.3497 5529.57 17.5464C5529.57 17.6397 5529.53 17.7264 5529.45 17.773C5529.37 17.8197 5529.27 17.823 5529.19 17.7764C5529.11 17.7331 5529.06 17.6464 5529.06 17.5564C5529.06 17.5031 5529.07 17.4497 5529.09 17.3964C5529.13 17.3064 5529.19 17.2231 5529.27 17.1597C5529.57 16.8731 5530.48 16.5498 5530.29 16.4265C5530.1 16.3031 5529.19 15.9598 5529.05 16.1498C5528.92 16.3398 5529.14 16.1798 5529.2 16.4031C5529.25 16.6264 5528.52 16.5964 5528.18 16.6898C5528.13 16.7098 5528.07 16.7098 5528.01 16.6898C5527.95 16.6631 5527.93 16.5931 5527.9 16.5364C5527.73 16.2331 5527.17 16.4298 5527.17 16.4298C5527.06 16.5031 5526.96 16.5998 5526.9 16.7098H5526.9Z" fill="#FCDA69"></path><path id="Shape_58" d="M5542.32 23.5324C5542.46 22.6657 5542.45 21.7824 5542.29 20.9192C5542.25 20.6892 5542.15 20.4159 5541.92 20.3825C5541.65 20.3459 5541.32 20.6525 5541.15 20.4392C5541.1 20.3325 5541.1 20.2059 5541.15 20.0992C5541.26 19.8026 5541.44 19.5359 5541.66 19.3093C5541.8 19.1793 5541.94 19.0359 5542.06 18.8826C5542.28 18.5326 5542.12 18.016 5541.8 17.7427C5541.48 17.466 5541.07 17.956 5540.74 17.766C5540.4 17.576 5540.39 17.1094 5540.33 16.7261C5540.28 16.4394 5540.07 15.6761 5539.84 16.0494C5539.61 16.4227 5540.15 17.906 5540.75 18.6193C5540.84 18.696 5540.89 18.7993 5540.9 18.9126C5540.88 19.1793 5540.49 19.1693 5540.23 19.2226C5539.9 19.2926 5539.4 19.1159 5539.68 19.6826C5539.82 19.9825 5540.52 20.3959 5540.33 20.5925C5540.14 20.7892 5539.57 21.3725 5539.3 21.8424C5539.03 22.3124 5538.9 22.8957 5539.1 23.399C5539.31 23.899 5539.92 24.2456 5540.41 24.0357C5540.65 23.9357 5540.9 23.7323 5541.12 23.8623C5541.33 23.9923 5541.28 24.2656 5541.28 24.4956C5541.27 24.7256 5541.4 25.0289 5541.62 24.9756C5541.69 24.9523 5541.76 24.9056 5541.8 24.8456C5542.12 24.4923 5542.24 24.009 5542.32 23.5357L5542.32 23.5324Z" fill="#FCDA69"></path><path id="Shape_59" d="M5537.43 101.066C5537.43 101.066 5504.72 75.0139 5491.11 89.9097C5480.92 101.066 5504.9 118.918 5510.46 122.898C5516.02 126.878 5539.99 135.741 5560.17 140.334L5570.89 123.768L5537.42 101.066H5537.43Z" fill="#0C3E87"></path><path id="Shape_60" d="M5502.76 118.255C5502.51 119.652 5509.99 140.74 5509.99 140.74C5509.99 140.74 5550.91 133.561 5569.52 120.112C5588.14 106.662 5578.54 87.7733 5562.2 91.1998C5545.86 94.623 5502.76 118.255 5502.76 118.255H5502.76Z" fill="#0C3E87"></path><path id="Shape_61" d="M5502.03 86.2515L5509.98 77.592L5512.29 79.0086L5502.03 86.2515Z" fill="black"></path><path id="Shape_62" d="M5568.74 85.6261L5560.5 77.8132L5559.5 78.7632L5568.74 85.6261Z" fill="black"></path><path id="Shape_63" d="M5548.42 88.3998C5537.23 81.9134 5533.18 80.5868 5532.48 81.5068C5531.9 82.2834 5533.73 84.6266 5532.87 85.4766C5531.94 86.4032 5528.97 84.3933 5528.13 85.3666C5527.56 86.0199 5528.54 87.3265 5527.96 87.8465C5527.22 88.5131 5525.09 86.8465 5524.32 87.5698C5523.99 87.8765 5524.1 88.5698 5524.1 88.5698C5524.1 88.5698 5534.36 88.5097 5548.42 88.3964V88.3998Z" fill="#FF836B"></path><path id="Shape_64" d="M5504.11 123.403L5495.54 128.466L5493.77 129.51L5493.67 129.57C5493.91 129.5 5493.88 129.52 5493.61 129.6L5492.25 130.406C5491.46 130.87 5490.84 131.57 5490.46 132.403L5490.37 132.443C5485.93 134.213 5480.72 135.449 5480.72 135.449L5485.46 144.439C5485.46 144.439 5493.45 139.199 5494.71 138.836C5494.98 138.756 5495.42 138.639 5495.95 138.496L5496.04 138.486L5500.18 137.929L5500.42 137.899L5501.83 137.709L5508.61 136.799L5504.11 123.403Z" fill="#FFBE83"></path><path id="Shape_65" d="M5482.08 146.483L5477.15 136.267L5491.6 132.101C5492.28 131.911 5493 132.001 5493.6 132.351C5494.21 132.701 5494.65 133.278 5494.82 133.957C5494.88 134.204 5494.98 134.441 5495.11 134.661L5495.48 135.271C5495.84 135.861 5495.95 136.571 5495.78 137.241C5495.61 137.911 5495.18 138.484 5494.59 138.837L5488.83 142.26L5482.08 146.483H5482.08Z" fill="#362B6E"></path><path id="Shape_66" d="M5477.12 136.193L5482.1 146.539C5480.62 147.052 5479.08 147.366 5477.53 147.472C5475.73 147.596 5473.7 146.922 5472.98 145.269C5471.94 142.849 5473.13 139.536 5477.13 136.193H5477.12Z" fill="#F5F6F3"></path><path id="Shape_67" d="M5487.8 143.402C5487.27 143.798 5486.61 144.278 5485.81 144.768C5484.73 145.478 5483.56 146.045 5482.33 146.458L5482 146.571C5480.55 147.065 5479.05 147.365 5477.52 147.468C5475.73 147.591 5473.7 146.918 5472.98 145.265C5471.93 142.868 5473.11 139.588 5477.04 136.275L5477.16 136.162C5477.8 135.615 5478.47 135.105 5479.17 134.632L5479.21 134.605C5479.3 134.545 5479.39 134.489 5479.48 134.432C5479.58 134.375 5479.67 134.302 5479.77 134.239C5474.74 136.362 5471.48 139.505 5470.91 141.742C5470.55 143.145 5470.49 145.878 5472.92 147.765C5475.59 149.825 5480.02 148.201 5483.07 146.945C5485.68 145.875 5487.85 143.682 5488.44 143.055C5488.26 143.148 5488.07 143.245 5487.89 143.342L5487.8 143.398V143.402Z" fill="white"></path><path id="Shape_68" d="M5495.8 138.549L5496.04 138.479L5495.23 138.586C5495.42 138.613 5495.61 138.599 5495.79 138.546L5495.8 138.549Z" fill="#AF3152"></path><path id="Shape_69" d="M5488.55 142.893C5488.25 143.063 5488 143.226 5487.79 143.376C5487.09 143.883 5486.47 144.343 5485.82 144.766C5486.62 144.276 5487.28 143.796 5487.81 143.4L5487.9 143.333L5487.78 143.393C5488.03 143.22 5488.28 143.053 5488.54 142.893H5488.55Z" fill="#AF3152"></path><path id="Shape_70" d="M5480.07 134.105L5479.96 134.149L5479.78 134.229C5479.68 134.292 5479.59 134.355 5479.49 134.422C5479.67 134.312 5479.86 134.209 5480.07 134.105H5480.07Z" fill="white"></path><path id="Shape_71" d="M5488.61 142.878C5488.34 143.038 5488.1 143.191 5487.89 143.331C5488.08 143.234 5488.26 143.141 5488.45 143.044C5488.55 142.934 5488.61 142.871 5488.61 142.871V142.878Z" fill="white"></path><path id="Shape_72" d="M5488.6 142.877C5489.01 142.637 5489.49 142.38 5490.03 142.114C5491.31 141.477 5493.03 140.724 5494.74 140.02C5492.46 140.947 5490.08 142.017 5488.6 142.857V142.874V142.877Z" fill="white"></path><path id="Shape_73" d="M5500.4 137.904L5500.42 137.898L5500.4 137.904Z" fill="white"></path><path id="Shape_74" d="M5488.54 142.894C5488.28 143.054 5488.03 143.22 5487.78 143.394L5487.89 143.334C5488.09 143.19 5488.32 143.04 5488.61 142.88V142.864L5488.54 142.894Z" fill="white"></path><path id="Shape_75" d="M5499.07 138.361C5498.79 138.457 5498.49 138.564 5498.18 138.681C5498.5 138.567 5498.79 138.464 5499.07 138.361Z" fill="#362B6E"></path><path id="Shape_76" d="M5477.14 136.185C5477.83 135.615 5478.54 135.078 5479.28 134.581L5479.32 134.558L5479.27 134.585L5479.28 134.575C5479.35 134.525 5479.42 134.475 5479.49 134.425C5479.39 134.481 5479.3 134.538 5479.21 134.598L5479.17 134.625C5478.47 135.098 5477.8 135.608 5477.16 136.155L5477.04 136.268L5477.13 136.191L5477.15 136.181L5477.14 136.185Z" fill="#362B6E"></path><path id="Shape_77" d="M5482.11 146.529H5482.1L5482 146.562L5482.33 146.449C5483.56 146.036 5484.73 145.466 5485.82 144.759C5484.65 145.479 5483.41 146.069 5482.12 146.522L5482.11 146.529Z" fill="#362B6E"></path><path id="Shape_78" d="M5499.07 138.36C5498.79 138.463 5498.5 138.567 5498.18 138.68C5497.14 139.063 5495.94 139.53 5494.73 140.023C5496.79 139.183 5498.76 138.453 5499.85 138.11C5500.04 138.05 5500.22 137.983 5500.4 137.907C5500.26 137.967 5500.11 138.02 5499.97 138.067C5499.7 138.153 5499.4 138.253 5499.08 138.363L5499.07 138.36Z" fill="#362B6E"></path><path id="Shape_79" d="M5500.19 137.926C5499.84 138.07 5499.48 138.213 5499.08 138.353C5499.4 138.24 5499.7 138.14 5499.97 138.056C5500.12 138.01 5500.26 137.956 5500.41 137.896L5500.43 137.886L5500.19 137.923V137.926Z" fill="#362B6E"></path><path id="Shape_80" d="M5491.18 141.52C5490.3 141.92 5489.44 142.367 5488.61 142.86C5490.08 142.013 5492.46 140.95 5494.75 140.023C5495.95 139.53 5497.15 139.063 5498.19 138.68C5495.81 139.5 5493.46 140.447 5491.18 141.52Z" fill="#362B6E"></path><path id="Shape_81" d="M5488.6 142.859L5488.55 142.896L5488.6 142.859Z" fill="#362B6E"></path><path id="Shape_82" d="M5496.04 138.484L5495.79 138.554C5495.61 138.607 5495.42 138.621 5495.24 138.594C5494.16 138.424 5493.73 136.774 5492.77 136.694C5492.53 136.674 5491.95 136.837 5491.16 137.121C5490.24 137.457 5489.04 137.957 5487.82 138.521C5485.3 139.687 5482.7 141.11 5482.3 141.834C5481.54 143.194 5482 146.527 5482 146.57L5482.1 146.537H5482.11C5483.4 146.084 5484.64 145.49 5485.81 144.774C5486.46 144.347 5487.08 143.894 5487.78 143.384C5487.99 143.24 5488.24 143.07 5488.54 142.9L5488.6 142.864C5489.43 142.37 5490.29 141.924 5491.17 141.524C5493.45 140.454 5495.78 139.504 5498.17 138.687C5498.48 138.571 5498.78 138.464 5499.06 138.367C5499.46 138.224 5499.83 138.081 5500.17 137.941L5496.04 138.484H5496.04Z" fill="#362B6E"></path><path id="Shape_83" d="M5490.41 135.918C5489.58 133.921 5491.3 130.925 5493.24 129.781C5493.24 129.781 5492.05 130.105 5491.29 130.371C5489.9 130.911 5488.78 131.511 5487.31 132.061C5487.11 132.134 5486.91 132.204 5486.7 132.264C5485.11 132.741 5483.21 132.978 5481.7 133.484C5480.87 133.764 5480.07 134.124 5479.31 134.561L5479.27 134.584C5478.53 135.081 5477.82 135.618 5477.13 136.188L5477.12 136.198L5477.03 136.274C5477.03 136.274 5479.99 138.774 5480.95 139.201C5481.47 139.431 5484.69 138.301 5487.57 137.138C5488.61 136.708 5489.61 136.284 5490.41 135.914V135.918Z" fill="#362B6E"></path><path id="Shape_84" d="M5499.64 125.872L5508.61 136.798L5504.11 123.409L5499.64 125.872Z" fill="black"></path><path id="Shape_85" d="M5491.61 139.511C5491.5 139.424 5491.42 139.314 5491.37 139.184C5490.3 136.411 5488.88 134.785 5488.87 134.761C5488.73 134.615 5488.67 134.418 5488.68 134.221C5488.7 134.021 5488.79 133.838 5488.95 133.715C5489.29 133.458 5489.76 133.505 5490.04 133.818C5490.11 133.891 5491.65 135.651 5492.83 138.694C5492.9 138.881 5492.89 139.088 5492.81 139.268C5492.72 139.448 5492.56 139.584 5492.37 139.641C5492.11 139.728 5491.83 139.678 5491.61 139.511Z" fill="white"></path><path id="Shape_86" d="M5488.8 140.774C5488.69 140.687 5488.6 140.577 5488.55 140.447C5487.48 137.671 5486.06 136.044 5486.05 136.024C5485.92 135.877 5485.85 135.681 5485.87 135.484C5485.88 135.284 5485.98 135.101 5486.14 134.977C5486.47 134.724 5486.95 134.767 5487.23 135.081C5487.3 135.154 5488.83 136.914 5490.01 139.957C5490.08 140.144 5490.08 140.35 5489.99 140.53C5489.9 140.71 5489.75 140.847 5489.56 140.904C5489.3 140.99 5489.01 140.94 5488.8 140.774H5488.8Z" fill="white"></path><g id="Money-illustration"><g id="Group_9"><g id="Element_2"><g id="Group_10"><path id="Shape_87" fill-rule="evenodd" clip-rule="evenodd" d="M5555.43 53.4026C5555.03 55.8391 5553.74 60.3989 5549.51 64.1187C5545.78 67.3918 5543.57 69.0317 5542.41 70.725C5541.28 72.3682 5541.28 74.5148 5542.41 76.158C5543.57 77.8512 5545.78 79.4878 5549.51 82.7643C5555.6 88.124 5555.6 95.217 5555.6 95.217V100.047H5514.85V95.217C5514.85 95.217 5514.85 88.124 5520.94 82.7643C5524.66 79.4912 5526.88 77.8546 5528.04 76.1613C5529.17 74.5181 5529.17 72.3682 5528.04 70.725C5526.88 69.0317 5524.66 67.3918 5520.94 64.122C5514.85 58.7623 5514.85 51.6693 5514.85 51.6693V46.8396H5555.6V50.7527" fill="#73C3F9"></path><path id="Shape_88" fill-rule="evenodd" clip-rule="evenodd" d="M5547.76 42.0349H5556.33C5556.88 42.0349 5557.33 42.4849 5557.33 43.0382V45.4514C5557.33 46.2147 5556.71 46.838 5555.95 46.838H5514.51C5513.74 46.838 5513.12 46.218 5513.12 45.4514V43.0382C5513.12 42.4849 5513.57 42.0349 5514.12 42.0349H5545.38" fill="url(#paint16_linear_36_1659)"></path><path id="Shape_89" fill-rule="evenodd" clip-rule="evenodd" d="M5557.33 104.846H5513.12V101.472C5513.12 100.683 5513.76 100.043 5514.55 100.043H5555.9C5556.69 100.043 5557.33 100.683 5557.33 101.472V104.846H5557.33Z" fill="url(#paint17_linear_36_1659)"></path></g><g id="Group_11"><g id="Shape_90"><path id="Vector_54" fill-rule="evenodd" clip-rule="evenodd" d="M5542.14 87.9519C5542.23 87.9353 5542.27 87.8286 5542.21 87.7619C5541.91 87.4086 5541.24 86.4654 5541.29 85.2588C5541.36 83.7222 5541.88 82.4889 5541.73 80.7857C5541.62 79.5291 5541.23 78.8958 5540.73 78.1958C5540.68 78.1225 5540.59 78.0858 5540.5 78.1058L5535.42 79.1491C5535.37 79.1591 5535.35 79.2091 5535.38 79.2457C5535.89 79.9657 5536.29 80.5957 5536.41 81.8789C5536.56 83.5822 5536.04 84.8121 5535.97 86.352C5535.91 87.6586 5536.71 88.6586 5536.95 88.9319C5536.99 88.9786 5537.05 88.9986 5537.11 88.9852L5542.14 87.9519H5542.14Z" fill="#6DC494"></path></g><g id="Shape_91"><path id="Vector_55" fill-rule="evenodd" clip-rule="evenodd" d="M5521.96 94.4584C5522.03 94.5117 5522.14 94.4684 5522.15 94.3817C5522.22 93.9251 5522.48 92.7951 5523.41 92.0352C5524.61 91.0686 5525.88 90.6386 5527.05 89.3987C5527.92 88.482 5528.14 87.7721 5528.33 86.9321C5528.35 86.8455 5528.32 86.7521 5528.24 86.6988L5524.09 83.589C5524.05 83.5623 5524 83.5823 5523.99 83.6256C5523.79 84.4856 5523.59 85.2056 5522.7 86.1422C5521.53 87.3821 5520.26 87.8121 5519.06 88.7787C5518.05 89.5987 5517.83 90.8619 5517.79 91.2252C5517.78 91.2852 5517.81 91.3452 5517.85 91.3852L5521.96 94.4617L5521.96 94.4584Z" fill="#6DC494"></path></g><g id="Shape_92"><path id="Vector_56" fill-rule="evenodd" clip-rule="evenodd" d="M5527.52 93.0487C5527.55 93.1354 5527.65 93.1654 5527.72 93.1054C5528.05 92.7887 5528.96 92.0588 5530.16 92.0455C5531.7 92.0255 5532.96 92.4754 5534.65 92.2255C5535.9 92.0421 5536.51 91.6188 5537.18 91.0788C5537.25 91.0222 5537.28 90.9289 5537.26 90.8422L5535.92 85.8291C5535.91 85.7858 5535.86 85.7691 5535.82 85.7958C5535.13 86.3491 5534.53 86.7891 5533.25 86.9757C5531.56 87.2224 5530.3 86.7757 5528.76 86.7957C5527.45 86.8124 5526.5 87.6657 5526.24 87.9257C5526.2 87.969 5526.18 88.0323 5526.2 88.0923L5527.52 93.0487H5527.52Z" fill="#B9CDA1"></path></g><g id="Shape_93"><path id="Vector_57" fill-rule="evenodd" clip-rule="evenodd" d="M5542.03 93.3842C5542.1 93.4375 5542.2 93.3942 5542.21 93.3075C5542.28 92.8509 5542.54 91.7209 5543.48 90.961C5544.67 89.9943 5545.94 89.5644 5547.12 88.3244C5547.98 87.4078 5548.2 86.6979 5548.39 85.8579C5548.41 85.7712 5548.38 85.6779 5548.31 85.6246L5544.15 82.5148C5544.12 82.4881 5544.06 82.5081 5544.05 82.5514C5543.86 83.4114 5543.65 84.1313 5542.77 85.068C5541.59 86.3079 5540.33 86.7379 5539.13 87.7045C5538.11 88.5244 5537.89 89.7877 5537.85 90.151C5537.84 90.211 5537.87 90.271 5537.92 90.311L5542.02 93.3875L5542.03 93.3842Z" fill="#B9CDA1"></path></g><g id="Shape_94"><path id="Vector_58" fill-rule="evenodd" clip-rule="evenodd" d="M5535.52 99.8295C5535.54 99.9161 5535.64 99.9495 5535.71 99.8928C5536.06 99.5895 5536.99 98.8929 5538.19 98.9195C5539.73 98.9562 5540.97 99.4462 5542.67 99.2595C5543.92 99.1195 5544.55 98.7162 5545.24 98.2029C5545.31 98.1496 5545.34 98.0562 5545.32 97.9696L5544.16 92.9132C5544.15 92.8698 5544.1 92.8498 5544.06 92.8765C5543.36 93.4065 5542.73 93.8231 5541.45 93.9665C5539.75 94.1531 5538.51 93.6631 5536.97 93.6265C5535.67 93.5965 5534.68 94.4164 5534.42 94.6664C5534.37 94.7098 5534.35 94.7697 5534.37 94.8331L5535.51 99.8361L5535.52 99.8295Z" fill="#6DC494"></path></g><g id="Shape_95"><path id="Vector_59" fill-rule="evenodd" clip-rule="evenodd" d="M5533.22 85.0998C5533.3 85.1398 5533.39 85.0798 5533.39 84.9931C5533.38 84.5332 5533.44 83.3732 5534.24 82.4666C5535.25 81.31 5536.43 80.6734 5537.37 79.2501C5538.07 78.2002 5538.16 77.4636 5538.21 76.6036C5538.22 76.5136 5538.17 76.4269 5538.09 76.3869L5533.47 74.0271C5533.43 74.0071 5533.38 74.0337 5533.38 74.0804C5533.33 74.9637 5533.25 75.707 5532.54 76.7803C5531.59 78.2035 5530.42 78.8401 5529.4 79.9967C5528.54 80.98 5528.54 82.26 5528.56 82.6233C5528.56 82.6866 5528.6 82.7399 5528.65 82.7666L5533.22 85.0998Z" fill="#B9CDA1"></path></g><g id="Shape_96"><path id="Vector_60" fill-rule="evenodd" clip-rule="evenodd" d="M5543.57 94.9118C5543.53 94.9918 5543.59 95.0851 5543.68 95.0784C5544.14 95.0518 5545.3 95.0784 5546.23 95.8417C5547.42 96.8183 5548.1 97.9716 5549.55 98.8716C5550.63 99.5349 5551.37 99.6015 5552.23 99.6215C5552.32 99.6215 5552.4 99.5715 5552.44 99.4915L5554.65 94.7951C5554.67 94.7551 5554.64 94.7051 5554.59 94.7051C5553.71 94.6851 5552.96 94.6318 5551.87 93.9518C5550.41 93.0519 5549.74 91.8986 5548.55 90.922C5547.54 90.092 5546.26 90.132 5545.89 90.1654C5545.83 90.172 5545.78 90.2087 5545.75 90.2654L5543.57 94.9084L5543.57 94.9118Z" fill="#B9CDA1"></path></g><g id="Shape_97"><path id="Vector_61" fill-rule="evenodd" clip-rule="evenodd" d="M5525.47 95.6079C5525.44 95.6912 5525.51 95.7778 5525.6 95.7645C5526.06 95.7012 5527.22 95.6312 5528.21 96.3178C5529.47 97.1944 5530.24 98.2877 5531.76 99.0643C5532.89 99.6376 5533.63 99.6443 5534.49 99.5943C5534.58 99.5876 5534.66 99.531 5534.69 99.4477L5536.5 94.5879C5536.52 94.5446 5536.48 94.5012 5536.44 94.5046C5535.56 94.5579 5534.81 94.5646 5533.66 93.9779C5532.14 93.2013 5531.37 92.108 5530.11 91.2314C5529.03 90.4881 5527.76 90.6348 5527.4 90.6948C5527.34 90.7048 5527.29 90.7481 5527.27 90.8048L5525.47 95.6112V95.6079Z" fill="#B9CDA1"></path></g><g id="Shape_98"><path id="Vector_62" fill-rule="evenodd" clip-rule="evenodd" d="M5518.15 99.1946C5518.16 99.2846 5518.26 99.3312 5518.33 99.2812C5518.71 99.0246 5519.72 98.4546 5520.92 98.6413C5522.44 98.8779 5523.61 99.5279 5525.32 99.5612C5526.58 99.5879 5527.25 99.2679 5528 98.8479C5528.08 98.8046 5528.12 98.7179 5528.12 98.6279L5527.63 93.4615C5527.62 93.4149 5527.57 93.3915 5527.53 93.4115C5526.76 93.8448 5526.09 94.1748 5524.8 94.1482C5523.09 94.1115 5521.93 93.4649 5520.4 93.2282C5519.11 93.0282 5518.03 93.7149 5517.73 93.9248C5517.68 93.9615 5517.66 94.0215 5517.66 94.0815L5518.15 99.1912V99.1946Z" fill="#B9CDA1"></path></g><g id="Shape_99"><path id="Vector_63" fill-rule="evenodd" clip-rule="evenodd" d="M5542.35 64.7885C5542.44 64.8118 5542.52 64.7352 5542.5 64.6485C5542.4 64.2019 5542.22 63.0519 5542.81 62.002C5543.57 60.6621 5544.59 59.7988 5545.23 58.2122C5545.7 57.0423 5545.63 56.3023 5545.51 55.449C5545.49 55.359 5545.43 55.2857 5545.34 55.2623L5540.33 53.8991C5540.29 53.8858 5540.25 53.9258 5540.25 53.9691C5540.39 54.8424 5540.46 55.5857 5539.98 56.7823C5539.35 58.3688 5538.33 59.2321 5537.57 60.5721C5536.93 61.7087 5537.19 62.9653 5537.28 63.3152C5537.3 63.3752 5537.34 63.4219 5537.4 63.4386L5542.35 64.7885Z" fill="#B9CDA1"></path></g><g id="Shape_100"><path id="Vector_64" fill-rule="evenodd" clip-rule="evenodd" d="M5527.46 63.3578C5527.38 63.4012 5527.38 63.5145 5527.46 63.5612C5527.85 63.8011 5528.79 64.4844 5529.12 65.6444C5529.54 67.1243 5529.44 68.4576 5530.12 70.0241C5530.62 71.1807 5531.19 71.6574 5531.89 72.164C5531.96 72.2174 5532.06 72.224 5532.14 72.1774L5536.63 69.5775C5536.67 69.5542 5536.67 69.4975 5536.63 69.4708C5535.92 68.9509 5535.34 68.4809 5534.82 67.301C5534.14 65.7344 5534.24 64.4011 5533.82 62.9179C5533.47 61.6613 5532.39 60.9646 5532.08 60.7846C5532.02 60.7546 5531.96 60.7546 5531.9 60.7846L5527.46 63.3545L5527.46 63.3578Z" fill="#B9CDA1"></path></g></g></g></g></g></g><path id="Shape_101" d="M5497.1 70.0488C5497.1 70.0488 5489.08 96.0641 5498.02 102.11C5506.96 108.153 5522.28 84.0214 5523.52 81.4648C5526.47 75.3918 5530.09 69.1622 5528.42 65.7024C5527.16 63.0992 5527.52 69.2488 5526.81 68.7722C5525.99 68.2189 5527.12 58.2761 5526.78 56.9762C5526.44 55.6763 5524.23 60.5227 5524.53 64.3391C5524.53 64.3391 5524.19 58.3961 5525.03 56.1929C5525.87 53.9863 5523.44 55.3896 5522.85 58.4061C5522.49 60.2693 5522.45 62.1826 5522.73 64.0591C5522.73 64.0591 5522.15 57.3095 5522.34 56.1096C5522.51 55.0796 5521.7 55.3063 5520.97 56.5095C5520.24 57.7128 5520.87 61.6726 5520.95 64.0591C5521.02 66.4457 5519.96 72.9053 5511.05 80.0283L5512.32 78.9716L5497.1 70.0521L5497.1 70.0488Z" fill="#FFBE83" stroke="black" stroke-miterlimit="10"></path><path id="Shape_102" d="M5572.92 66.0015C5572.92 66.0015 5587.92 93.2534 5578.98 99.2964C5570.04 105.339 5551.32 85.8605 5548.29 81.2407C5544.59 75.5944 5541.73 68.9381 5543.4 65.4782C5544.65 62.8751 5544.29 69.0247 5545 68.5481C5545.82 67.9948 5544.69 58.0553 5545.03 56.7521C5545.38 55.4488 5547.58 60.2985 5547.28 64.115C5547.28 64.115 5547.62 58.172 5546.78 55.9688C5545.94 53.7622 5548.37 55.1655 5548.96 58.182C5549.31 60.0452 5549.35 61.9584 5549.07 63.835C5549.07 63.835 5549.66 57.0854 5549.46 55.8854C5549.3 54.8555 5550.11 55.0821 5550.84 56.2854C5551.57 57.4887 5550.93 61.4485 5550.86 63.835C5550.79 66.2215 5551.84 72.6812 5560.75 79.8041L5559.5 78.7609L5572.92 65.9982L5572.92 66.0015Z" fill="#FFBE83" stroke="black" stroke-miterlimit="10"></path><path id="Shape_103" d="M5574.02 17.4547C5573.73 18.4047 5574.26 19.1713 5575.21 19.1713C5574.26 19.1713 5573.26 19.9412 5572.97 20.8879C5573.26 19.9379 5572.73 19.1713 5571.78 19.1713C5572.73 19.1713 5573.73 18.4013 5574.02 17.4547Z" fill="url(#paint18_linear_36_1659)"></path><path id="Shape_104" d="M5587.57 54.2161C5586.19 58.7059 5588.72 62.349 5593.21 62.349C5588.72 62.349 5583.97 65.9888 5582.59 70.4786C5583.97 65.9888 5581.44 62.349 5576.95 62.349C5581.44 62.349 5586.19 58.7092 5587.57 54.2161Z" fill="url(#paint19_linear_36_1659)"></path><path id="Shape_105" d="M5482.1 76.5857C5479.95 82.022 5481.13 83.6986 5486.7 83.222C5481.41 82.742 5479.22 84.4352 5478.04 89.8583C5480.18 84.4186 5479 82.7453 5473.43 83.222C5478.72 83.7053 5480.92 82.0087 5482.1 76.5857Z" fill="url(#paint20_linear_36_1659)"></path></g></svg>