<svg xmlns="http://www.w3.org/2000/svg" viewBox="4811.27978515625 437.1947326660156 151.29296875 149.64828491210938"><g id="Group_12"><g id="Character_3"><g id="Group_13"><path id="Shape_106" fill-rule="evenodd" clip-rule="evenodd" d="M4932.38 522.734C4929.57 529.61 4931.58 571.386 4932.45 576.139L4874.68 576.073C4873.67 564.186 4876.5 524.457 4874.15 519.417C4872.28 515.384 4863.2 509.041 4863.2 509.041C4863.99 508.421 4864.72 507.788 4865.38 507.148C4865.5 507.031 4865.62 506.914 4865.74 506.794C4870.73 501.828 4872.17 496.495 4872.52 492.931C4872.57 492.381 4872.6 491.871 4872.61 491.411C4872.64 489.775 4872.46 488.778 4872.46 488.778C4880.94 494.728 4888.6 495.938 4892.61 496.108C4894.47 496.185 4895.54 496.038 4895.54 496.038C4895.54 497.405 4898.58 498.511 4902.33 498.511C4906.09 498.511 4909.13 497.405 4909.13 496.038C4909.13 496.038 4910.19 496.255 4912.01 496.458C4916.68 496.978 4926.34 497.411 4935.98 493.888C4935.98 493.888 4936.07 494.698 4936.33 496.015V496.021C4936.94 499.138 4938.52 505.061 4942.16 509.684C4942.27 509.834 4942.39 509.981 4942.52 510.128C4943.02 510.734 4943.56 511.314 4944.14 511.858C4944.14 511.858 4935.26 515.667 4932.38 522.727" fill="url(#paint21_linear_36_1659)"></path><path id="Shape_107" fill-rule="evenodd" clip-rule="evenodd" d="M4865.74 506.799C4865.63 506.919 4865.51 507.036 4865.39 507.153C4864.72 507.793 4863.99 508.426 4863.2 509.046C4863.09 508.866 4862.14 508.159 4863.33 504.386C4864.16 505.309 4864.97 506.119 4865.74 506.799Z" fill="url(#paint22_linear_36_1659)"></path><path id="Shape_108" fill-rule="evenodd" clip-rule="evenodd" d="M4872.62 491.411C4872.61 491.871 4872.58 492.381 4872.53 492.934C4871.96 492.394 4871.2 491.634 4870.32 490.664C4871.1 489.628 4871.8 488.978 4872.46 488.781C4872.46 488.781 4872.65 489.778 4872.62 491.411Z" fill="url(#paint23_linear_36_1659)"></path><path id="Shape_109" fill-rule="evenodd" clip-rule="evenodd" d="M4944.14 511.861C4943.56 511.318 4943.02 510.738 4942.52 510.131C4943.09 509.625 4943.69 509.045 4944.3 508.401C4944.59 510.045 4944.47 511.194 4944.14 511.861Z" fill="url(#paint24_linear_36_1659)"></path><path id="Shape_110" fill-rule="evenodd" clip-rule="evenodd" d="M4937.49 494.822C4937.06 495.272 4936.68 495.672 4936.33 496.019C4936.07 494.702 4935.98 493.892 4935.98 493.892C4935.98 493.892 4936.46 493.802 4937.49 494.822Z" fill="url(#paint25_linear_36_1659)"></path><path id="Shape_111" fill-rule="evenodd" clip-rule="evenodd" d="M4912.01 496.463C4910.79 498.753 4909.13 500.956 4902.31 500.956C4893.53 500.956 4892.86 496.736 4892.61 496.109C4894.47 496.186 4895.54 496.039 4895.54 496.039C4895.54 497.406 4898.58 498.513 4902.34 498.513C4906.09 498.513 4909.13 497.406 4909.13 496.039C4909.13 496.039 4910.19 496.256 4912.02 496.459" fill="url(#paint26_linear_36_1659)"></path></g><g id="Group_14"><path id="Shape_112" fill-rule="evenodd" clip-rule="evenodd" d="M4892.58 483.992C4891.49 484.245 4890.05 484.015 4889.19 482.712C4888.19 481.182 4888.49 479.522 4889.41 478.796C4889.52 478.709 4889.64 478.639 4889.76 478.579C4889.85 478.532 4889.95 478.496 4890.04 478.466C4890.53 478.309 4891 478.356 4891.4 478.482C4891.4 478.506 4891.4 478.519 4891.41 478.539C4891.41 478.582 4891.41 478.626 4891.42 478.662C4891.44 478.912 4891.46 479.052 4891.46 479.052C4891.46 479.116 4891.47 479.176 4891.48 479.239C4891.51 479.489 4891.54 479.732 4891.57 479.972C4891.71 480.942 4891.89 481.839 4892.12 482.602C4892.26 483.079 4892.42 483.539 4892.58 483.989" fill="#FFBE83"></path><path id="Shape_113" fill-rule="evenodd" clip-rule="evenodd" d="M4915.46 482.712C4914.61 484.016 4913.16 484.246 4912.07 483.992C4912.23 483.542 4912.38 483.082 4912.53 482.606C4912.76 481.839 4912.95 480.939 4913.08 479.966C4913.11 479.729 4913.14 479.486 4913.17 479.242C4913.18 479.179 4913.19 479.116 4913.19 479.056C4913.19 479.056 4913.22 478.866 4913.25 478.539C4913.25 478.519 4913.25 478.502 4913.25 478.482C4913.64 478.363 4914.07 478.316 4914.54 478.446C4914.66 478.479 4914.78 478.523 4914.9 478.583C4914.96 478.609 4915.01 478.639 4915.07 478.676C4916.12 479.323 4916.52 481.092 4915.46 482.716" fill="#FFBE83"></path><path id="Shape_114" fill-rule="evenodd" clip-rule="evenodd" d="M4913.25 478.48C4913.25 478.5 4913.25 478.517 4913.25 478.537C4913.21 478.864 4913.19 479.05 4913.19 479.05C4913.18 479.114 4913.18 479.177 4913.17 479.237C4913.04 480.49 4912.82 481.647 4912.53 482.603C4912.39 483.077 4912.23 483.54 4912.07 483.993C4912 484.19 4911.92 484.39 4911.85 484.583C4911.8 484.703 4911.75 484.817 4911.71 484.93C4911.01 486.66 4910.11 488.11 4909.13 489.267C4908.97 489.457 4908.8 489.637 4908.64 489.81C4908.03 490.45 4907.39 490.983 4906.74 491.403C4904.84 492.64 4903.14 492.753 4902.54 492.753H4902.1C4901.51 492.753 4899.81 492.643 4897.91 491.403C4897.26 490.983 4896.62 490.45 4896.01 489.81C4895.85 489.647 4895.69 489.473 4895.54 489.293C4894.55 488.133 4893.65 486.67 4892.94 484.927C4892.89 484.813 4892.85 484.697 4892.8 484.58C4892.72 484.387 4892.65 484.187 4892.58 483.99C4892.47 483.693 4892.37 483.397 4892.27 483.093C4892.22 482.93 4892.17 482.767 4892.12 482.6C4891.87 481.773 4891.67 480.797 4891.54 479.737C4891.52 479.57 4891.5 479.403 4891.48 479.233C4891.47 479.17 4891.47 479.107 4891.46 479.047C4891.46 479.047 4891.43 478.86 4891.4 478.534C4891.4 478.514 4891.4 478.494 4891.4 478.477C4891.41 478.34 4891.7 471.83 4896.14 470.197C4896.14 470.197 4898.59 468.99 4901.29 471.524C4903.28 473.397 4904.78 473.43 4907.05 471.754C4909.61 469.874 4912.91 472.954 4913.25 478.474" fill="#FFBE83"></path><path id="Shape_115" fill-rule="evenodd" clip-rule="evenodd" d="M4904.81 483.852C4904.81 483.852 4904.81 485.486 4904 486.546C4903.61 487.059 4903.02 487.436 4902.16 487.436C4900.99 487.436 4900.4 486.539 4900.11 485.646C4899.82 484.749 4899.82 483.852 4899.82 483.852C4899.82 483.852 4902 484.786 4904.81 483.852Z" fill="#FFBE83"></path><path id="Shape_116" fill-rule="evenodd" clip-rule="evenodd" d="M4909.13 489.269V496.039C4909.13 497.406 4906.09 498.512 4902.34 498.512C4898.58 498.512 4895.54 497.406 4895.54 496.039V489.299C4895.7 489.479 4895.85 489.653 4896.01 489.816C4896.62 490.456 4897.26 490.989 4897.91 491.409C4899.81 492.646 4901.51 492.759 4902.11 492.759H4902.55C4903.14 492.759 4904.84 492.649 4906.74 491.409C4907.39 490.989 4908.03 490.456 4908.64 489.816C4908.81 489.643 4908.97 489.463 4909.13 489.273" fill="#FFBE83"></path></g><g id="Group_15"><path id="Shape_117" fill-rule="evenodd" clip-rule="evenodd" d="M4915.06 478.676C4915.01 478.639 4914.95 478.609 4914.89 478.583C4914.77 478.526 4914.65 478.483 4914.53 478.446C4914.07 478.316 4913.63 478.363 4913.25 478.483C4912.91 472.959 4909.6 469.88 4907.05 471.763C4904.78 473.439 4903.28 473.403 4901.28 471.533C4898.59 469 4896.13 470.206 4896.13 470.206C4891.7 471.84 4891.4 478.349 4891.4 478.486C4891 478.359 4890.53 478.316 4890.04 478.469C4889.95 478.503 4889.85 478.536 4889.75 478.583C4889.63 478.639 4889.52 478.713 4889.41 478.799C4888.49 478.103 4885.77 475.869 4885.26 473.483C4884.96 472.043 4885.37 471.136 4885.85 470.593C4886.38 470.003 4886.58 469.2 4886.34 468.446C4886.16 467.863 4885.99 467.146 4885.94 466.383C4885.77 464.073 4887.55 462.243 4889.65 462.06C4890.94 461.95 4892.09 461.23 4892.69 460.08L4892.73 459.986C4893.08 459.323 4893.47 458.69 4893.94 458.11C4894.91 456.917 4896.17 455.893 4897.71 455.71C4899.83 455.46 4900.75 456.657 4901.14 457.67C4901.39 458.3 4902.13 458.566 4902.74 458.273C4905.21 457.07 4910.67 455.053 4914.35 458.46C4916.26 460.23 4916.19 462.613 4915.75 464.37C4915.45 465.563 4915.94 466.833 4917.01 467.446C4918.93 468.553 4920.64 471.4 4915.06 478.676" fill="url(#paint27_linear_36_1659)"></path></g><g id="Group_16"><path id="Shape_118" fill-rule="evenodd" clip-rule="evenodd" d="M4872.52 492.931C4872.52 492.968 4872.51 493.008 4872.51 493.048C4872.5 493.125 4872.5 493.198 4872.49 493.275C4872.47 493.428 4872.45 493.585 4872.43 493.741C4872.42 493.821 4872.41 493.898 4872.4 493.981C4872.29 494.708 4872.14 495.491 4871.92 496.315C4871.88 496.451 4871.84 496.588 4871.8 496.731C4871.76 496.868 4871.73 497.011 4871.68 497.151C4871.64 497.291 4871.59 497.435 4871.55 497.578C4871.5 497.721 4871.45 497.865 4871.4 498.011C4871.35 498.141 4871.31 498.271 4871.26 498.405C4871.19 498.578 4871.12 498.751 4871.05 498.928C4871 499.051 4870.95 499.175 4870.9 499.298C4870.67 499.835 4870.41 500.385 4870.12 500.938C4870.08 501.015 4870.04 501.091 4869.99 501.168C4869.7 501.708 4869.38 502.255 4869.02 502.801C4868.97 502.881 4868.91 502.958 4868.86 503.038C4868.33 503.821 4867.74 504.608 4867.06 505.394C4866.99 505.471 4866.92 505.551 4866.85 505.631C4866.51 506.021 4866.14 506.411 4865.75 506.801C4864.98 506.121 4864.17 505.311 4863.33 504.388C4856.98 497.331 4849.36 483.802 4847.32 474.019C4845.05 463.095 4846.64 447.143 4848.14 441.566C4848.45 440.413 4848.81 439.589 4849.06 439.116C4849.23 438.786 4849.43 438.469 4849.69 438.199C4851.12 436.643 4852.22 437.876 4852.22 437.876C4854.08 436.276 4855.49 437.996 4855.49 437.996C4857.28 436.453 4858.69 438.259 4858.69 438.259C4858.69 438.259 4860.61 437.173 4861.13 439.413C4861.47 440.929 4860.59 443.776 4859.98 445.456C4859.32 447.276 4858.79 449.146 4858.46 451.052C4857.3 457.706 4857.92 463.849 4858.02 464.732C4859.4 476.972 4866.17 486.115 4870.32 490.671C4871.2 491.641 4871.96 492.401 4872.52 492.941" fill="#FFBE83"></path><path id="Shape_119" fill-rule="evenodd" clip-rule="evenodd" d="M4858.69 438.254C4858.69 438.254 4858.73 439.107 4858.44 440.137Z" fill="#FFA6A2"></path></g><g id="Group_17"><path id="Shape_120" fill-rule="evenodd" clip-rule="evenodd" d="M4961.45 477.438C4959.35 487.501 4950.85 501.534 4944.3 508.401C4943.69 509.044 4943.09 509.624 4942.52 510.131C4942.39 509.984 4942.28 509.838 4942.16 509.688C4942.04 509.538 4941.93 509.388 4941.81 509.238C4941.7 509.084 4941.59 508.934 4941.48 508.778C4941.37 508.621 4941.26 508.468 4941.16 508.311C4941.03 508.131 4940.92 507.948 4940.8 507.764C4940.63 507.504 4940.47 507.241 4940.32 506.978C4940.1 506.601 4939.89 506.221 4939.69 505.838C4939.62 505.701 4939.55 505.568 4939.48 505.434C4939.4 505.284 4939.33 505.131 4939.25 504.978C4939.24 504.941 4939.22 504.908 4939.2 504.871C4939.15 504.751 4939.09 504.631 4939.03 504.511C4938.94 504.311 4938.85 504.111 4938.76 503.911C4938.7 503.778 4938.65 503.644 4938.59 503.511C4938.54 503.398 4938.49 503.281 4938.45 503.164C4938.39 503.028 4938.33 502.891 4938.28 502.751C4938.22 502.598 4938.16 502.441 4938.1 502.291C4937.98 501.988 4937.87 501.684 4937.77 501.381C4937.74 501.308 4937.72 501.231 4937.69 501.158C4937.53 500.684 4937.38 500.221 4937.25 499.778C4937.23 499.704 4937.21 499.634 4937.19 499.561C4937.08 499.201 4936.98 498.854 4936.89 498.518C4936.86 498.381 4936.82 498.251 4936.79 498.118C4936.66 497.598 4936.54 497.108 4936.45 496.661C4936.44 496.608 4936.42 496.551 4936.41 496.495C4936.38 496.331 4936.34 496.175 4936.31 496.025V496.018C4936.66 495.671 4937.05 495.271 4937.48 494.821C4941.73 490.301 4949.33 480.685 4950.74 468.152C4950.84 467.269 4951.46 461.125 4950.3 454.472C4949.97 452.566 4949.44 450.696 4948.78 448.876C4948.41 447.842 4947.93 446.372 4947.7 445.039C4947.7 445.039 4948.09 443.363 4950.31 443.563C4950.81 443.609 4951.4 443.746 4952.09 444.019C4953.4 444.533 4954.21 444.956 4954.69 445.306C4955.23 445.269 4955.45 444.836 4955.45 444.836C4955.18 444.259 4955.32 443.109 4956.54 441.296C4956.54 441.296 4957.64 440.059 4959.07 441.616C4959.33 441.889 4959.53 442.203 4959.7 442.536C4959.94 443.009 4960.31 443.832 4960.62 444.986C4962.11 450.566 4963.71 466.519 4961.44 477.442" fill="#FFBE83"></path><path id="Shape_121" fill-rule="evenodd" clip-rule="evenodd" d="M4955.46 444.833C4955.46 444.833 4955.25 445.266 4954.7 445.303C4954.22 444.953 4953.41 444.53 4952.1 444.016C4951.41 443.743 4950.82 443.606 4950.33 443.56C4948.11 443.36 4947.71 445.036 4947.71 445.036C4947.57 444.2 4947.52 443.413 4947.65 442.83C4948.16 440.59 4950.08 441.676 4950.08 441.676C4950.08 441.676 4951.49 439.87 4953.29 441.413C4953.29 441.413 4954.7 439.693 4956.55 441.293C4955.34 443.106 4955.2 444.253 4955.47 444.833" fill="#FFBE83"></path><path id="Shape_122" fill-rule="evenodd" clip-rule="evenodd" d="M4950.08 441.675C4950.08 441.675 4950.04 442.529 4950.32 443.559Z" fill="#FFA6A2"></path></g></g><path id="Shape_123" d="M4887.82 440.167C4885.02 447.29 4886.56 449.493 4893.86 448.863C4886.92 448.233 4884.05 450.453 4882.5 457.563C4885.31 450.433 4883.77 448.237 4876.46 448.863C4883.4 449.497 4886.28 447.273 4887.82 440.167Z" fill="url(#paint28_linear_36_1659)"></path><path id="Shape_124" d="M4814.22 481.895C4813.84 483.138 4814.54 484.148 4815.79 484.148C4814.54 484.148 4813.23 485.155 4812.85 486.401C4813.23 485.158 4812.53 484.148 4811.28 484.148C4812.53 484.148 4813.84 483.138 4814.22 481.895Z" fill="url(#paint29_linear_36_1659)"></path><path id="Shape_125" d="M4831.98 530.085C4830.18 535.972 4833.49 540.745 4839.37 540.745C4833.49 540.745 4827.26 545.515 4825.45 551.401C4827.25 545.515 4823.94 540.745 4818.05 540.745C4823.94 540.745 4830.17 535.972 4831.98 530.085Z" fill="url(#paint30_linear_36_1659)"></path><g id="No-messages-illustration"><g id="Group_18"><g id="Element_3"><path id="Shape_126" fill-rule="evenodd" clip-rule="evenodd" d="M4956.72 511.71L4947.86 518.097C4947.67 518.237 4947.4 518.223 4947.22 518.067L4945.33 516.423L4942.5 513.963L4939.09 511.004C4938.96 510.894 4939.04 510.684 4939.21 510.694L4956.72 511.71Z" fill="#73C3F9"></path><path id="Shape_127" fill-rule="evenodd" clip-rule="evenodd" d="M4945.33 516.426L4942.65 517.572C4942.58 517.606 4942.5 517.549 4942.5 517.469V513.966L4945.33 516.426Z" fill="white"></path><path id="Shape_128" fill-rule="evenodd" clip-rule="evenodd" d="M4956.72 511.711L4942.5 513.961V513.965" fill="white"></path></g><g id="Element_4"><g id="Group_19"><path id="Shape_129" fill-rule="evenodd" clip-rule="evenodd" d="M4875.77 586.84C4875.77 586.84 4869.2 577.094 4873.25 573.537C4877.1 570.167 4881.24 576.727 4881.24 576.727C4880.85 575.584 4878.87 561.537 4885.6 560.497C4891.79 559.541 4893.5 567.221 4893.94 570.801C4894.05 566.627 4895.19 557.881 4901.78 557.354C4907.91 556.864 4907.91 568.074 4907.91 568.074C4907.91 568.074 4912.26 553.068 4920.66 557.171C4925.47 559.524 4923.34 570.464 4923.26 570.697C4923.41 570.511 4929.39 561.577 4934.62 564.781C4939.78 567.931 4934.28 577.497 4934.03 577.767C4934.23 577.604 4939.33 573.917 4941.28 577.214C4943.78 581.44 4935.93 586.843 4935.93 586.843H4875.77" fill="#B9CDA1"></path></g><g id="Group_20"><path id="Shape_130" fill-rule="evenodd" clip-rule="evenodd" d="M4826.67 586.841C4819.13 584.058 4818.29 579.392 4820.28 577.332C4822.34 575.198 4826.98 578.962 4826.98 578.962C4826.98 578.962 4820.7 570.515 4823.84 567.785C4826.98 565.052 4831.9 570.688 4831.9 570.688C4831.9 570.688 4827.21 560.145 4832.64 557.455C4838.07 554.766 4842.76 561.042 4842.76 561.042C4842.76 561.042 4839.48 553.286 4843.65 551.482C4847.81 549.679 4851.11 555.796 4851.11 555.796C4851.11 555.796 4851.45 540.639 4861.35 540.983C4869.01 541.246 4871.03 555.796 4871.03 555.796C4871.03 555.796 4874.14 544.153 4881.28 545.139C4881.28 545.139 4887.26 545.249 4888.22 558.609C4888.22 558.609 4894.8 548.126 4901.53 552.442C4908.13 556.685 4899.99 568.595 4899.99 568.595C4899.99 568.595 4907.05 565.459 4910.13 571.795C4913.2 578.135 4898.9 586.841 4898.9 586.841H4826.67" fill="#00C3B4"></path></g><g id="Group_21"><path id="Shape_131" fill-rule="evenodd" clip-rule="evenodd" d="M4902.78 586.839C4902.78 586.839 4897.28 583.056 4899.03 580.099C4900.4 577.789 4903.97 580.373 4904.11 580.486C4903.94 580.299 4900.15 572.126 4904.08 570.569C4908.16 568.956 4911.02 577.513 4911.13 577.643C4911.13 577.643 4909.94 568.023 4914.52 568.023C4919.27 568.023 4919.87 574.469 4918.42 580.406C4918.5 580.253 4921.61 574.329 4924.62 576.929C4926.14 578.249 4926.14 582.276 4920.54 586.836H4902.78" fill="#6DC494"></path></g></g><g id="Element_5"><g id="Group_22"><path id="Shape_132" fill-rule="evenodd" clip-rule="evenodd" d="M4844.92 545.744C4845.11 545.307 4845.4 544.907 4845.78 544.577L4878.75 516.328C4879.5 515.681 4880.68 515.681 4881.43 516.324L4914.62 544.577C4915 544.904 4915.29 545.307 4915.48 545.744L4880.09 580.466L4844.92 545.744" fill="#73C3F9"></path><path id="Shape_133" fill-rule="evenodd" clip-rule="evenodd" d="M4865.98 520.297H4906.75C4907.39 520.297 4907.9 520.767 4907.9 521.35V553.176L4894.28 566.546L4881.75 554.686C4880.84 553.826 4879.33 553.829 4878.43 554.689L4865.98 566.546L4852.49 553.226V521.35C4852.49 520.77 4853.01 520.297 4853.65 520.297H4862.02" fill="white"></path></g><g id="Group_23"><path id="Shape_134" fill-rule="evenodd" clip-rule="evenodd" d="M4871.67 538.684C4871.67 533.911 4875.54 530.038 4880.32 530.038C4885.09 530.038 4888.96 533.908 4888.96 538.684C4888.96 543.457 4885.09 547.331 4880.32 547.331C4875.54 547.331 4871.67 543.461 4871.67 538.684Z" fill="#73C3F9" stroke="black" stroke-miterlimit="10"></path></g><g id="Group_24"><path id="Shape_135" fill-rule="evenodd" clip-rule="evenodd" d="M4907.91 553.177L4915.48 545.747C4915.63 546.107 4915.72 546.494 4915.72 546.891V586.843L4894.28 566.55L4907.91 553.18V553.177Z" fill="url(#paint31_linear_36_1659)"></path><path id="Shape_136" fill-rule="evenodd" clip-rule="evenodd" d="M4844.69 546.884C4844.69 546.491 4844.77 546.107 4844.92 545.747L4852.5 553.23L4865.99 566.55L4844.69 586.843V546.887" fill="url(#paint32_linear_36_1659)"></path><path id="Shape_137" fill-rule="evenodd" clip-rule="evenodd" d="M4865.99 566.548L4878.82 554.321C4879.52 553.661 4880.67 553.661 4881.36 554.318L4894.28 566.548L4915.72 586.84H4844.69L4865.99 566.548Z" fill="#73C3F9"></path></g></g></g></g></g></svg>