<svg xmlns="http://www.w3.org/2000/svg" viewBox="4158.7099609375 10.252699851989746 140.5400390625 140.74929809570312"><g id="🐥Illustrations"><g id="design"><g id="Group_26"><g id="Elements"><path id="Oval" d="M4285.91 15.874C4286.6 15.874 4287.17 15.3084 4287.17 14.6108C4287.17 13.9131 4286.6 13.3475 4285.91 13.3475C4285.21 13.3475 4284.64 13.9131 4284.64 14.6108C4284.64 15.3084 4285.21 15.874 4285.91 15.874Z" fill="white"></path></g><g id="Elements_2"><path id="Shape_138" d="M4220.79 117.51H4166.42C4162.24 117.51 4158.85 114.12 4158.85 109.944V18.3569C4158.85 14.1772 4162.24 10.7908 4166.42 10.7908H4220.79C4224.97 10.7908 4228.36 14.1806 4228.36 18.3569V109.94C4228.36 114.123 4224.97 117.506 4220.79 117.506V117.51Z" fill="#73C3F9" stroke="black" stroke-miterlimit="10"></path><path id="Shape_139" d="M4220.79 117.649H4166.42C4162.17 117.649 4158.71 114.19 4158.71 109.94V18.3567C4158.71 14.1037 4162.17 10.6473 4166.42 10.6473H4220.79C4225.04 10.6473 4228.5 14.107 4228.5 18.3567V109.94C4228.5 114.193 4225.04 117.649 4220.79 117.649ZM4166.42 10.9273C4162.33 10.9273 4158.99 14.2603 4158.99 18.3534V109.937C4158.99 114.03 4162.33 117.363 4166.42 117.363H4220.79C4224.88 117.363 4228.21 114.03 4228.21 109.937V18.3534C4228.21 14.257 4224.88 10.9273 4220.79 10.9273H4166.42Z" fill="#19004B"></path><path id="Shape_140" d="M4210.13 87.9989H4169.49V106.841H4210.13V87.9989Z" fill="#AACFE3" stroke="black" stroke-miterlimit="10"></path><path id="Shape_141" d="M4210.13 80.2396H4169.49V82.8261H4210.13V80.2396Z" fill="#AACFE3" stroke="black" stroke-miterlimit="10"></path><path id="Shape_142" d="M4210.13 73.6301H4169.49V76.2166H4210.13V73.6301Z" fill="#AACFE3" stroke="black" stroke-miterlimit="10"></path><path id="Shape_143" d="M4210.13 67.7209H4169.49V70.3074H4210.13V67.7209Z" fill="#AACFE3" stroke="black" stroke-miterlimit="10"></path><path id="Shape_144" d="M4208.84 57.4929H4170.79C4170.07 57.4929 4169.49 56.9129 4169.49 56.1996C4169.49 55.4863 4170.07 54.9064 4170.79 54.9064H4208.84C4209.55 54.9064 4210.13 55.4863 4210.13 56.1996C4210.13 56.9129 4209.55 57.4929 4208.84 57.4929Z" fill="white" stroke="black" stroke-miterlimit="10"></path><path id="Shape_145" d="M4210.13 38.9087H4180.83V41.4952H4210.13V38.9087Z" fill="white" stroke="black" stroke-miterlimit="10"></path><path id="Shape_146" d="M4179.54 41.4981H4172.05C4171.33 41.4981 4170.75 40.9182 4170.75 40.2049C4170.75 39.4916 4171.33 38.9116 4172.05 38.9116H4179.54C4180.25 38.9116 4180.83 39.4916 4180.83 40.2049C4180.83 40.9182 4180.25 41.4981 4179.54 41.4981Z" fill="url(#paint33_linear_36_1659)" stroke="black" stroke-miterlimit="10"></path><path id="Shape_147" d="M4211.81 25.8227H4198.89C4198.18 25.8227 4197.6 25.2428 4197.6 24.5295C4197.6 23.8162 4198.18 23.2362 4198.89 23.2362H4211.81C4212.53 23.2362 4213.11 23.8162 4213.11 24.5295C4213.11 25.2394 4212.53 25.8227 4211.81 25.8227Z" fill="url(#paint34_linear_36_1659)" stroke="black" stroke-miterlimit="10"></path><path id="Shape_148" d="M4196.31 25.8227H4171.43C4170.71 25.8227 4170.13 25.2428 4170.13 24.5295C4170.13 23.8162 4170.71 23.2362 4171.43 23.2362H4196.31C4197.02 23.2362 4197.6 23.8162 4197.6 24.5295C4197.6 25.2394 4197.02 25.8227 4196.31 25.8227Z" fill="white" stroke="black" stroke-miterlimit="10"></path><path id="Oval_2" d="M4198.23 27.7682C4200.1 27.7682 4201.63 26.246 4201.63 24.3684C4201.63 22.4908 4200.1 20.9686 4198.23 20.9686C4196.35 20.9686 4194.83 22.4908 4194.83 24.3684C4194.83 26.246 4196.35 27.7682 4198.23 27.7682Z" fill="#FE3243"></path><path id="Shape_149" d="M4209.16 20.0231C4209.16 20.7664 4208.56 21.373 4207.81 21.373C4207.06 21.373 4206.46 20.7697 4206.46 20.0231C4206.46 19.2765 4207.06 18.6732 4207.81 18.6732C4208.56 18.6732 4209.16 19.2765 4209.16 20.0231Z" fill="#58B8FF"></path><path id="Oval_3" d="M4180.84 43.6619C4182.71 43.6619 4184.24 42.1397 4184.24 40.2621C4184.24 38.3844 4182.71 36.8623 4180.84 36.8623C4178.96 36.8623 4177.44 38.3844 4177.44 40.2621C4177.44 42.1397 4178.96 43.6619 4180.84 43.6619Z" fill="#FED401" stroke="black" stroke-miterlimit="10"></path><path id="Shape_150" d="M4221.97 26.481L4219.5 25.9743L4221.17 24.0878L4222.84 22.2079L4223.64 24.5944L4224.43 26.9876L4221.97 26.481Z" fill="#FFF480"></path><path id="Shape_151" d="M4211.22 27.9731L4210.73 26.7665L4212.02 26.9399L4213.31 27.1165L4212.51 28.1498L4211.72 29.1764L4211.22 27.9731Z" fill="#58B8FF"></path><path id="Shape_152" d="M4215.52 34.6319C4214.56 34.6319 4213.78 33.852 4213.78 32.8987C4213.78 31.9454 4214.56 31.1655 4215.52 31.1655C4216.47 31.1655 4217.25 31.9454 4217.25 32.8987C4217.25 33.852 4216.47 34.6319 4215.52 34.6319ZM4215.52 31.5854C4214.79 31.5854 4214.2 32.1721 4214.2 32.8987C4214.2 33.6253 4214.79 34.2119 4215.52 34.2119C4216.24 34.2119 4216.83 33.6253 4216.83 32.8987C4216.83 32.1721 4216.24 31.5854 4215.52 31.5854Z" fill="#19004B"></path></g><g id="Elements_3"><path id="Shape_153" d="M4248.91 142.609H4235.39C4235.31 142.609 4235.25 142.545 4235.25 142.469C4235.25 142.392 4235.32 142.329 4235.39 142.329H4248.91C4248.99 142.329 4249.05 142.392 4249.05 142.469C4249.05 142.545 4248.99 142.609 4248.91 142.609Z" fill="#19004B"></path></g><g id="Character_4"><path id="Vector_65" d="M4299.25 24.3685C4299.25 10.6794 4290.82 10.2527 4290.82 10.2527V24.3685H4290.81V44.3305C4290.81 52.7766 4287.49 57.4496 4280.92 58.2162C4277.77 58.5829 4274.39 56.4663 4272.11 54.6231C4269.31 52.3633 4267.41 49.9134 4267.35 49.8334L4267.34 49.8268L4264.41 52.0633L4260.64 54.9298C4261.59 56.1897 4269.87 66.6923 4280.17 66.6923C4280.74 66.6923 4281.32 66.6623 4281.9 66.5923C4292.76 65.3258 4299.25 57.003 4299.25 44.3338V24.6551C4299.25 24.5585 4299.25 24.4685 4299.25 24.3685Z" fill="#FFBE83" stroke="black" stroke-miterlimit="10"></path><path id="Oval_4" d="M4247 41.2339C4251.19 41.2339 4254.59 37.8345 4254.59 33.6411C4254.59 29.4477 4251.19 26.0482 4247 26.0482C4242.8 26.0482 4239.4 29.4477 4239.4 33.6411C4239.4 37.8345 4242.8 41.2339 4247 41.2339Z" fill="#FFBE83" stroke="black" stroke-miterlimit="10"></path><g id="Shape_154"><path d="M4242.01 38.8846C4241.54 39.1312 4240.99 39.2545 4240.42 39.2145C4238.76 39.0979 4237.51 37.6646 4237.62 36.0047C4237.74 34.3482 4239.17 33.0949 4240.83 33.2083C4242.56 33.3249 4243.1 34.1082 4243.29 34.1615" fill="#FFBE83"></path><path d="M4242.01 38.8846C4241.54 39.1312 4240.99 39.2545 4240.42 39.2145C4238.76 39.0979 4237.51 37.6646 4237.62 36.0047C4237.74 34.3482 4239.17 33.0949 4240.83 33.2083C4242.56 33.3249 4243.1 34.1082 4243.29 34.1615" stroke="black" stroke-miterlimit="10"></path></g><path id="Shape_155" d="M4240.45 36.9777C4240.39 36.9777 4240.34 36.941 4240.32 36.881C4240.29 36.8077 4240.34 36.7277 4240.41 36.7044L4243.55 35.6744C4243.63 35.6478 4243.71 35.6911 4243.73 35.7644C4243.76 35.8377 4243.71 35.9177 4243.64 35.9411L4240.5 36.971C4240.48 36.971 4240.47 36.9777 4240.45 36.9777Z" fill="#19004B"></path><path id="Shape_156" d="M4239.21 125.312L4209.47 85.7577C4209.42 85.6943 4209.37 85.6277 4209.33 85.561C4207.1 82.3512 4207.08 78.1848 4209.26 74.945C4211.42 71.7286 4215.26 70.1854 4219.04 71.002L4260.73 79.5147L4258.2 91.9039L4224.78 85.081L4241.4 107.19L4239.21 125.312Z" fill="#0C3E87" stroke="black" stroke-miterlimit="10"></path><path id="Shape_157" d="M4246.42 113.746L4239.34 141.305C4239.34 141.305 4238.11 140.918 4237.71 140.578C4236.98 139.965 4236.53 139.075 4236.48 138.091L4238.1 120.179L4241.45 107.16L4246.42 113.746H4246.42Z" fill="#362B6E" stroke="black" stroke-miterlimit="10"></path><path id="Shape_158" d="M4239.97 141.463L4239.35 141.353L4245.27 118.134L4246.42 113.734C4246.42 113.734 4247.25 114.834 4247.48 115.144C4247.77 115.534 4247.87 115.888 4247.74 116.434L4241.55 140.446C4241.52 140.566 4241.47 140.676 4241.42 140.779C4241.14 141.283 4240.57 141.563 4239.98 141.459L4239.97 141.463Z" fill="white" stroke="black" stroke-miterlimit="10"></path><path id="Shape_159" d="M4205.08 50.8231C4205.08 50.8231 4205.85 47.9233 4207.85 45.9534C4209.85 43.9836 4213.24 52.9263 4213.24 52.9263L4208.32 54.2096L4205.08 50.8231Z" fill="#FFBE83" stroke="black" stroke-miterlimit="10"></path><path id="Shape_160" d="M4223.05 83.3997C4221.47 83.3997 4219.86 83.2031 4218.23 82.8064C4213.35 81.6232 4209.62 78.9333 4207.15 74.8103C4201.44 65.3042 4204.93 51.4085 4205.08 50.8219L4213.24 52.9251L4209.16 51.8751L4213.24 52.9184C4213.23 52.9451 4212.5 55.8615 4212.34 59.598C4212.13 64.161 4212.84 67.9274 4214.38 70.4872C4215.67 72.6238 4217.58 73.9703 4220.21 74.6136C4227.55 76.3935 4232.08 70.5806 4233.57 68.674C4236.88 64.421 4238.57 59.6013 4238.59 59.5546L4246.57 62.2711C4246.49 62.5178 4244.45 68.424 4240.22 73.8503C4235.31 80.1599 4229.44 83.3964 4223.05 83.3997Z" fill="#FFBE83" stroke="black" stroke-miterlimit="10"></path><path id="Shape_161" d="M4235.4 142.467L4221.93 109.216C4220.76 106.332 4221.87 103.026 4224.54 101.423L4255.36 82.904L4256.26 78.5677L4268.64 81.1308L4268.65 82.5074C4268.68 86.7338 4266.61 90.7402 4263.06 93.0267C4262.93 93.1067 4262.8 93.1867 4262.68 93.2633L4235.68 109.482L4249.04 142.467H4235.4Z" fill="#0C3E87" stroke="black" stroke-miterlimit="10"></path><path id="Vector_66" d="M4290.82 36.388C4290.82 36.388 4290.79 40.7277 4290.82 44.3341C4290.86 49.5904 4289.33 55.13 4284.52 57.2732C4274.64 61.6696 4265.68 45.7507 4261.04 44.3341C4261.04 44.3341 4257.45 41.9542 4251.8 42.9108C4244.77 44.1041 4242.59 48.3038 4242.59 48.3038C4242.59 48.3038 4242.59 48.3072 4242.59 48.3105C4241.37 50.167 4236.98 66.6359 4230.75 71.7589C4224.46 76.9419 4218.34 73.9855 4218.34 73.9855L4214.57 81.5383C4214.57 81.5383 4225.97 87.5346 4235.91 78.7251C4242.82 72.6055 4245.89 65.6493 4247.06 62.2996C4248.88 69.1724 4250.54 77.4386 4250.54 77.4386L4268.64 81.135C4268.64 81.135 4268.35 72.6722 4266.26 63.7861C4266.03 62.8129 4265.78 61.8163 4265.53 60.8163C4269.26 64.8261 4275.4 68.4125 4284.8 66.0626C4295.56 63.3762 4299.24 53.8735 4299.24 44.3341V36.3213L4290.81 36.3846L4290.82 36.388Z" fill="url(#paint35_linear_36_1659)" stroke="black" stroke-miterlimit="10"></path><path id="Shape_162" d="M4251.69 149.029L4223.21 149.089V149.079C4223.2 149.002 4223.2 148.926 4223.2 148.846C4223.19 148.322 4223.28 147.799 4223.51 147.329C4223.92 146.479 4224.67 145.813 4225.61 145.523L4235.48 142.489H4249.04L4251.69 149.032V149.029Z" fill="#362B6E" stroke="black" stroke-miterlimit="10"></path><path id="Shape_163" d="M4223.25 149.715L4223.21 149.089L4247.17 149.035L4251.69 149.029L4251.72 149.245L4251.79 149.699C4251.82 149.969 4251.75 150.219 4251.63 150.428C4251.39 150.818 4251.01 150.992 4250.44 151.002L4224.62 150.992C4224.5 150.992 4224.38 150.975 4224.27 150.945C4223.72 150.792 4223.3 150.308 4223.25 149.715Z" fill="white" stroke="black" stroke-miterlimit="10"></path><path id="Shape_164" d="M4244.85 89.2632C4244.8 89.2632 4244.75 89.2365 4244.73 89.1966C4244.69 89.1299 4244.71 89.0432 4244.77 89.0032L4250.13 85.7601C4250.19 85.7201 4250.28 85.7401 4250.32 85.8068C4250.36 85.8734 4250.34 85.9601 4250.27 86.0001L4244.92 89.2432C4244.89 89.2566 4244.87 89.2632 4244.85 89.2632Z" fill="#19004B"></path><path id="Shape_165" d="M4222.54 103.23C4222.52 103.23 4222.48 103.22 4222.46 103.204C4222.4 103.16 4222.39 103.07 4222.43 103.007C4222.95 102.294 4223.69 101.814 4224.46 101.307L4232.97 96.1108C4233.03 96.0708 4233.12 96.0908 4233.16 96.1574C4233.2 96.2241 4233.18 96.3108 4233.12 96.3507L4224.61 101.544C4223.83 102.054 4223.14 102.5 4222.66 103.17C4222.63 103.21 4222.59 103.23 4222.54 103.23Z" fill="#19004B"></path><path id="Shape_166" d="M4244.14 130.485C4244.09 130.485 4244.04 130.452 4244.01 130.398L4235.55 109.536C4235.53 109.473 4235.55 109.4 4235.61 109.363L4241.73 105.65C4241.79 105.61 4241.88 105.63 4241.92 105.697C4241.96 105.763 4241.94 105.85 4241.87 105.89L4235.86 109.54L4244.27 130.292C4244.3 130.365 4244.27 130.445 4244.19 130.475C4244.17 130.485 4244.16 130.485 4244.14 130.485H4244.14Z" fill="#19004B"></path><path id="Shape_167" d="M4244.82 89.2717C4244.82 89.2717 4244.8 89.2717 4244.8 89.2717L4222.73 84.8153C4222.66 84.802 4222.61 84.7253 4222.62 84.6487C4222.64 84.572 4222.72 84.522 4222.79 84.5387L4244.85 88.995C4244.93 89.0084 4244.98 89.085 4244.96 89.1617C4244.95 89.2284 4244.89 89.275 4244.83 89.275L4244.82 89.2717Z" fill="#19004B"></path><path id="Shape_168" d="M4238.86 117.455C4238.86 117.455 4238.83 117.455 4238.82 117.455C4238.75 117.435 4238.7 117.359 4238.72 117.286L4241.27 107.16C4241.29 107.083 4241.36 107.04 4241.44 107.06C4241.52 107.08 4241.56 107.156 4241.54 107.23L4238.99 117.355C4238.98 117.419 4238.92 117.459 4238.86 117.459V117.455Z" fill="#19004B"></path></g><g id="Elements_4"><path id="Shape_169" d="M4197.75 25.693L4198.95 24.9297L4215.13 37.7288L4202.04 45.8416C4201.92 45.915 4201.77 45.8483 4201.74 45.7116L4197.66 25.913C4197.64 25.8296 4197.68 25.743 4197.75 25.693Z" fill="#19004B"></path><path id="Shape_170" d="M4218.1 49.878L4210.9 54.3544L4204.75 43.9851L4211.84 39.5987L4218.1 49.878Z" fill="#19004B"></path><path id="Shape_171" d="M4212.71 53.2415L4206.44 43.1156L4203.2 45.1221L4198.95 24.9268L4215.19 37.7026L4211.95 39.7091L4218.21 49.8351L4212.71 53.2415Z" fill="url(#paint36_linear_36_1659)" stroke="black" stroke-miterlimit="10"></path></g></g></g></g></svg>