<svg xmlns="http://www.w3.org/2000/svg" viewBox="3531 439.0103759765625 120.4306640625 149.9910888671875"><g id="Group_40"><path id="Vector_109" d="M3641.87 531.875C3638.17 534.511 3633.63 536.071 3628.79 536.031C3623.19 535.985 3617.62 533.691 3613.51 529.738C3609.26 525.652 3606.95 520.298 3606.99 514.669L3607.25 483.93L3611.24 483.963L3610.98 514.702C3610.94 519.228 3612.82 523.545 3616.27 526.865C3619.65 530.118 3624.23 532.005 3628.82 532.045C3638.57 532.125 3646.88 524.322 3646.96 515.002L3647.44 456.797C3647.47 453.144 3646.08 449.694 3643.52 447.087C3640.95 444.481 3637.53 443.031 3633.87 442.997C3626.33 442.934 3620.14 449.021 3620.08 456.567L3619.61 512.872C3619.58 515.762 3620.53 518.425 3622.28 520.375C3624.06 522.355 3626.45 523.415 3629.21 523.438C3634.82 523.485 3638.93 519.108 3638.98 513.032L3639.39 464.62L3643.38 464.653L3642.97 513.065C3642.9 521.315 3636.97 527.488 3629.17 527.425C3621.38 527.358 3615.55 521.088 3615.62 512.839L3616.09 456.534C3616.17 446.791 3624.16 438.931 3633.91 439.011C3638.63 439.051 3643.05 440.924 3646.36 444.291C3649.67 447.657 3651.47 452.107 3651.43 456.827L3650.94 515.032C3650.88 521.852 3647.28 528.012 3641.87 531.871L3641.87 531.875Z" fill="url(#paint43_linear_36_1659)" stroke="black" stroke-miterlimit="10"></path><g id="Page-1"><g id="files"><g id="Characters"><path id="Shape_175" d="M3613.84 543.511L3642.76 548.747C3647.6 549.62 3648.64 553.32 3644.51 555L3619.86 565.04C3618.22 565.707 3617.26 566.8 3617.29 567.963L3617.77 585.433C3617.85 588.356 3612.09 590.043 3608.02 588.289L3583.71 577.796C3582.1 577.1 3579.99 576.903 3578.09 577.273L3549.46 582.833C3544.67 583.763 3540.08 581.109 3541.69 578.343L3551.32 561.82C3551.96 560.723 3551.62 559.507 3550.41 558.573L3532.24 544.537C3529.19 542.187 3532.12 538.864 3537.18 538.907L3567.44 539.184C3569.45 539.204 3571.34 538.647 3572.5 537.701L3589.89 523.468C3592.81 521.085 3599.21 521.681 3600.72 524.478L3609.8 541.174C3610.4 542.284 3611.91 543.157 3613.83 543.507L3613.84 543.511Z" fill="#AACFE3" stroke="black" stroke-miterlimit="10"></path><path id="Shape_176" d="M3620.18 564.288C3613.12 564.145 3613.65 560.358 3614.93 560.115C3616.21 559.871 3618.61 558.255 3618.61 558.255L3620.18 564.288Z" fill="#FFB2FF"></path><path id="Shape_177" d="M3616.53 559.455L3616.98 559.159L3618.22 564.645L3616.53 559.455Z" fill="black"></path><path id="Shape_178" d="M3546.61 467.87H3563.93V453.624C3563.93 452.944 3563.38 452.394 3562.7 452.394H3547.84C3547.16 452.394 3546.61 452.944 3546.61 453.624V467.87Z" fill="#FF836B"></path><path id="Shape_179" d="M3546.61 467.87H3563.93V453.624C3563.93 452.944 3563.38 452.394 3562.7 452.394H3547.84C3547.16 452.394 3546.61 452.944 3546.61 453.624V467.87Z" fill="#73C3F9" stroke="black" stroke-miterlimit="10"></path><path id="Shape_180" d="M3547.42 460.135L3547.54 454.905H3562.7V457.888" fill="#FDF2DC"></path><path id="Shape_181" d="M3561.77 453.491H3548.53V454.905H3561.77V453.491Z" fill="#E5EAE9"></path><path id="Shape_182" d="M3546.61 467.87H3563.93V457.89H3556.07L3554.54 456.547H3546.17C3545.92 456.547 3545.67 456.66 3545.5 456.857C3545.33 457.05 3545.25 457.31 3545.28 457.567L3546.61 467.873V467.87Z" fill="#73C3F9" stroke="black" stroke-miterlimit="10"></path><path id="Shape_183" d="M3556.65 462.178C3556.65 462.178 3554.85 462.241 3554.56 465.551C3554.27 462.241 3552.47 462.178 3552.47 462.178C3552.47 462.178 3554.27 462.114 3554.56 458.804C3554.85 462.114 3556.65 462.178 3556.65 462.178Z" fill="#FCDA69"></path><path id="Shape_184" d="M3574.53 449.777L3570.36 462.763L3586.84 465.259L3589.67 453.276C3589.67 453.276 3579.68 452.61 3574.53 449.78V449.777Z" fill="white" stroke="black" stroke-width="0.75" stroke-miterlimit="10"></path><path id="Shape_185" d="M3595.27 466.247C3595.27 466.247 3603.55 467.127 3609.54 463.077C3609.54 463.077 3616.94 468.89 3619.76 469.42C3619.76 469.42 3615.36 474.177 3610.77 475.587C3610.77 475.587 3599.5 470.477 3595.27 466.25L3595.27 466.247Z" fill="white" stroke="black" stroke-width="0.75" stroke-miterlimit="10"></path><path id="Shape_186" d="M3595.27 466.247C3595.27 466.247 3596.74 464.997 3599.38 464.29C3599.38 464.29 3599.38 467.883 3602.22 471.1C3602.21 471.1 3597.08 468.337 3595.27 466.247Z" fill="#FDF2DC" stroke="black" stroke-width="0.75" stroke-miterlimit="10"></path><path id="Shape_187" d="M3617.23 487.997C3617.23 487.997 3617.01 488.65 3618.32 489.753C3618.92 490.253 3620.27 490.453 3620.27 490.453L3623.81 486.027C3623.81 486.027 3618.01 486.817 3617.22 488L3617.23 487.997Z" fill="#FDF2DC" stroke="black" stroke-width="0.75" stroke-miterlimit="10"></path><path id="Shape_188" d="M3617.23 487.996C3619.17 487.326 3621.22 487.013 3623.28 487.076C3626.57 487.206 3628.42 489.576 3628.42 489.576L3632.24 484.836C3632.24 484.836 3628.95 481.81 3625.26 481.94C3621.57 482.07 3617.49 486.943 3617.23 487.996Z" fill="white" stroke="black" stroke-width="0.75" stroke-miterlimit="10"></path><path id="Shape_189" d="M3629.17 500.919C3629.17 500.919 3627.99 504.032 3625.4 504.469C3625.4 504.469 3627.99 507.538 3629.44 507.888C3629.44 507.888 3632.37 506.572 3633.16 505.169C3633.16 505.169 3630.57 503.679 3629.17 500.915V500.919Z" fill="#FDF2DC" stroke="black" stroke-width="0.75" stroke-miterlimit="10"></path><path id="Shape_190" d="M3539.8 495.466C3540 495.183 3560.12 471.383 3562.29 473.317C3564.47 475.247 3549.57 498.289 3549.57 498.289L3560.04 496.993L3563.06 509.286C3563.06 509.286 3529.44 510.412 3539.81 495.469L3539.8 495.466Z" fill="#FFBE83" stroke="black" stroke-miterlimit="10"></path><path id="Shape_191" d="M3547.61 500.195C3547.64 500.168 3554.9 497.625 3554.9 497.625L3549.57 498.278L3551.48 495.268L3547.61 500.192V500.195Z" fill="black"></path><g id="Shape_192"><path d="M3558.96 474.997C3558.96 474.997 3546.3 474.927 3546.3 473.867C3546.3 472.807 3548.91 473.053 3548.91 473.053C3548.91 473.053 3545.74 472.853 3546.29 472.033C3546.83 471.213 3549.73 471.437 3549.73 471.437C3549.73 471.437 3547.81 470.987 3548.67 470.487C3549.53 469.987 3564.07 469.883 3564.77 471.72C3565.47 473.553 3559.61 481.323 3559.61 481.323" fill="#FFBE83"></path><path d="M3558.96 474.997C3558.96 474.997 3546.3 474.927 3546.3 473.867C3546.3 472.807 3548.91 473.053 3548.91 473.053C3548.91 473.053 3545.74 472.853 3546.29 472.033C3546.83 471.213 3549.73 471.437 3549.73 471.437C3549.73 471.437 3547.81 470.987 3548.67 470.487C3549.53 469.987 3564.07 469.883 3564.77 471.72C3565.47 473.553 3559.61 481.323 3559.61 481.323" stroke="black" stroke-miterlimit="10"></path></g><g id="Shape_193"><path d="M3560.58 473.181C3560.58 473.181 3551.73 473.104 3552.51 474.308C3553.29 475.508 3559.25 475.578 3559.25 475.578" fill="#FFBE83"></path><path d="M3560.58 473.181C3560.58 473.181 3551.73 473.104 3552.51 474.308C3553.29 475.508 3559.25 475.578 3559.25 475.578" stroke="black" stroke-miterlimit="10"></path></g><path id="Shape_194" d="M3579.46 529.152C3579.46 529.152 3551.29 551.171 3557.67 561.997C3564.05 572.824 3619.08 567.234 3619.08 567.234L3614.12 552.077L3586.79 550.254L3597.34 540.278C3597.34 540.278 3593.43 524.488 3579.47 529.152H3579.46Z" fill="#0C3E87" stroke="black" stroke-miterlimit="10"></path><path id="Shape_195" d="M3560.04 496.989C3560.04 496.989 3587.6 493.636 3595.16 493.666C3602.71 493.696 3608.29 496.176 3612.46 503.336L3603.16 506.389L3610.98 526.695C3610.98 526.695 3582.17 535.305 3579.46 529.158C3576.75 523.012 3578.39 517.265 3576.67 513.592C3574.95 509.919 3573.22 509.896 3571.45 509.882C3569.68 509.869 3563.05 509.289 3563.05 509.289L3560.03 496.993L3560.04 496.989Z" fill="url(#paint44_linear_36_1659)" stroke="black" stroke-miterlimit="10"></path><path id="Shape_196" d="M3603.16 506.383L3600.09 499.736L3604.83 505.836L3603.16 506.383Z" fill="black"></path><path id="Shape_197" d="M3586.78 550.251L3572.53 551.491L3591.27 546.004L3586.78 550.251Z" fill="black"></path><path id="Shape_198" d="M3576.79 495.103C3576.79 495.103 3579.38 497.27 3583.25 495.463C3583.25 495.463 3584.28 494.8 3584.46 494.35C3584.64 493.9 3579.66 487.063 3579.12 487.147C3578.58 487.23 3573.87 488.337 3575.81 490.737C3577.75 493.136 3577.58 494.503 3576.79 495.1V495.103Z" fill="#FFBE83" stroke="black" stroke-miterlimit="10"></path><path id="Shape_199" d="M3616.78 555.764C3616.78 555.764 3596.85 558.641 3595.16 556.814C3593.46 554.987 3577.4 505.982 3592.79 506.805C3608.17 507.629 3624.7 536.371 3625.13 541.941C3625.56 547.514 3624.05 551.041 3616.28 552.067L3616.78 555.767L3616.78 555.764Z" fill="#0C3E87" stroke="black" stroke-miterlimit="10"></path><path id="Shape_200" d="M3617.9 551.805L3616.28 552.072C3616.28 552.072 3608.23 521.783 3604.58 520.889C3604.58 520.889 3606.1 520.199 3608.55 524.982C3611 529.766 3617.9 551.805 3617.9 551.805Z" fill="black"></path><path id="Shape_201" d="M3612.46 503.334C3612.46 503.334 3627.41 521.836 3620.33 524.676C3613.25 527.516 3604.27 506.344 3595.83 508.25C3587.38 510.157 3586.49 506.994 3588.57 505.277C3590.65 503.56 3599.52 501.467 3606.95 505.14L3612.46 503.334Z" fill="#FFBE83" stroke="black" stroke-miterlimit="10"></path><path id="Shape_202" d="M3606.95 505.141C3606.95 505.141 3616.62 509.851 3617.97 511.131L3617.27 510.021C3617.27 510.021 3609.19 505.278 3606.95 505.141Z" fill="black"></path><g id="Shape_203"><path d="M3587.99 505.899C3587.99 505.899 3582.6 508.312 3583.44 509.185C3584.28 510.059 3587.93 508.825 3588.48 507.935" fill="#FFBE83"></path><path d="M3587.99 505.899C3587.99 505.899 3582.6 508.312 3583.44 509.185C3584.28 510.059 3587.93 508.825 3588.48 507.935" stroke="black" stroke-miterlimit="10"></path></g><g id="Shape_204"><path d="M3588.93 507.214C3588.93 507.214 3587.11 514.744 3588.8 515.097C3590.49 515.451 3590 511.777 3590 511.777C3590 511.777 3589.68 515.694 3591.17 515.031C3592.67 514.367 3591.98 511.584 3591.98 511.584C3591.98 511.584 3592.43 515.674 3593.49 514.757C3594.55 513.841 3594.02 507.657 3595 507.694" fill="#FFBE83"></path><path d="M3588.93 507.214C3588.93 507.214 3587.11 514.744 3588.8 515.097C3590.49 515.451 3590 511.777 3590 511.777C3590 511.777 3589.68 515.694 3591.17 515.031C3592.67 514.367 3591.98 511.584 3591.98 511.584C3591.98 511.584 3592.43 515.674 3593.49 514.757C3594.55 513.841 3594.02 507.657 3595 507.694" stroke="black" stroke-miterlimit="10"></path></g><g id="Shape_205"><path d="M3577.07 489.838C3574.77 490.275 3571.23 491.188 3570.62 487.391C3570.01 483.595 3578.54 480.298 3578.54 480.298C3581.77 479.155 3584.17 481.472 3584.72 483.628C3585.27 485.785 3582.45 486.945 3582.45 486.945C3582.45 486.945 3583.6 487.211 3583.63 488.058C3583.66 488.905 3580.89 489.411 3580.4 488.058L3579.68 488.638" fill="#FFBE83"></path><path d="M3577.07 489.838C3574.77 490.275 3571.23 491.188 3570.62 487.391C3570.01 483.595 3578.54 480.298 3578.54 480.298C3581.77 479.155 3584.17 481.472 3584.72 483.628C3585.27 485.785 3582.45 486.945 3582.45 486.945C3582.45 486.945 3583.6 487.211 3583.63 488.058C3583.66 488.905 3580.89 489.411 3580.4 488.058L3579.68 488.638" stroke="black" stroke-miterlimit="10"></path></g><path id="Shape_206" d="M3578.09 481.521C3576.76 480.691 3574.51 474.614 3578.69 472.341C3582.88 470.068 3581.47 474.901 3583.46 477.388C3585.45 479.874 3587.83 476.711 3589.95 479.741C3592.08 482.771 3588.33 490.351 3584.88 488.234C3581.44 486.117 3583.49 482.954 3581.16 482.051C3578.83 481.147 3579.92 482.661 3578.09 481.517L3578.09 481.521Z" fill="url(#paint45_linear_36_1659)"></path><path id="Shape_207" d="M3575.62 482.828C3576.97 481.88 3577.59 480.443 3577.01 479.618C3576.43 478.793 3574.87 478.892 3573.52 479.84C3572.17 480.788 3571.55 482.225 3572.13 483.05C3572.71 483.875 3574.27 483.776 3575.62 482.828Z" fill="#362B6E"></path><path id="Shape_208" d="M3579.44 486.146C3580.79 485.19 3581.42 483.744 3580.83 482.916C3580.24 482.088 3578.67 482.191 3577.32 483.147C3575.97 484.102 3575.35 485.548 3575.94 486.376C3576.52 487.205 3578.09 487.101 3579.44 486.146Z" fill="#362B6E"></path><path id="Shape_209" d="M3572.41 485.18C3572.38 485.18 3572.36 485.16 3572.35 485.134L3572.16 483.654C3572.16 483.654 3572.16 483.62 3572.17 483.61C3572.19 483.6 3572.2 483.594 3572.22 483.594L3574.36 483.704C3574.36 483.704 3574.39 483.71 3574.4 483.72C3574.41 483.73 3574.41 483.744 3574.41 483.76C3574.41 483.774 3574.4 483.787 3574.39 483.797C3574.38 483.807 3574.37 483.81 3574.35 483.81L3572.28 483.7L3572.47 485.12C3572.47 485.12 3572.47 485.15 3572.46 485.16C3572.45 485.17 3572.43 485.18 3572.42 485.18H3572.41Z" fill="#FFBE83" stroke="black" stroke-miterlimit="10"></path><path id="Shape_210" d="M3576.72 492.03C3576.77 492.01 3580.65 490.67 3580.23 488.193L3575.45 490.133L3576.72 492.03Z" fill="black"></path><path id="Shape_211" d="M3601 557.421L3602.13 562.604C3602.13 562.604 3603.5 564.977 3604.85 564.831C3606.19 564.681 3608.59 563.008 3608.59 563.008L3607.33 559.361L3606.69 556.951L3600.99 557.421H3601Z" fill="#FFB2FF"></path><path id="Shape_212" d="M3608.6 563.007C3608.6 563.007 3604.45 565.21 3602.14 562.604L3592.16 569.047L3610.36 567.154L3608.6 563.004V563.007Z" fill="#362B6E"></path><path id="Shape_213" d="M3610.52 568.683L3610.36 567.157L3592.15 569.05L3592.31 570.576L3610.52 568.683Z" fill="white"></path><path id="Shape_214" d="M3602.35 564.88C3601.92 564.403 3601.41 563.997 3600.85 563.68C3600.78 563.647 3600.73 563.587 3600.71 563.517C3600.68 563.443 3600.69 563.367 3600.73 563.3C3600.81 563.163 3600.99 563.113 3601.13 563.183C3601.75 563.53 3602.31 563.976 3602.79 564.506C3602.84 564.563 3602.87 564.636 3602.86 564.71C3602.86 564.783 3602.82 564.856 3602.76 564.903C3602.68 564.97 3602.58 564.99 3602.48 564.96C3602.43 564.946 3602.38 564.916 3602.35 564.88H3602.35Z" fill="white"></path><path id="Shape_215" d="M3601.29 565.73C3601.24 565.714 3601.2 565.687 3601.16 565.65C3600.73 565.174 3600.22 564.767 3599.66 564.45C3599.59 564.417 3599.54 564.357 3599.52 564.287C3599.49 564.217 3599.5 564.137 3599.54 564.07C3599.62 563.934 3599.8 563.884 3599.94 563.954C3600.56 564.3 3601.12 564.747 3601.6 565.277C3601.65 565.334 3601.68 565.407 3601.67 565.48C3601.67 565.557 3601.63 565.624 3601.57 565.674C3601.49 565.74 3601.39 565.76 3601.29 565.73H3601.29Z" fill="white"></path><path id="Shape_216" d="M3601 557.421L3607.29 559.158L3606.7 556.951L3601 557.421Z" fill="black"></path><path id="Shape_217" d="M3620.17 564.286L3623 564.593L3629.43 568.866L3623.53 560.783L3622.41 556.126L3618.6 558.253L3620.17 564.286Z" fill="#362B6E"></path><path id="Shape_218" d="M3624.02 555.794L3625.03 560.26L3630.35 568.203L3629.43 568.867L3623.53 560.784L3622.41 556.127L3624.02 555.794Z" fill="white"></path><path id="Shape_219" d="M3621.69 564.56C3621.72 563.917 3621.65 563.27 3621.48 562.65C3621.46 562.58 3621.46 562.5 3621.5 562.434C3621.53 562.367 3621.6 562.317 3621.67 562.297C3621.82 562.257 3621.98 562.347 3622.03 562.497C3622.23 563.184 3622.31 563.897 3622.27 564.61C3622.27 564.687 3622.24 564.757 3622.18 564.807C3622.12 564.857 3622.05 564.88 3621.97 564.874C3621.87 564.864 3621.78 564.804 3621.73 564.714C3621.71 564.667 3621.69 564.617 3621.7 564.564L3621.69 564.56Z" fill="white"></path><path id="Shape_220" d="M3620.75 564.458C3620.78 563.814 3620.71 563.168 3620.54 562.548C3620.51 562.478 3620.52 562.398 3620.55 562.331C3620.59 562.264 3620.65 562.214 3620.72 562.194C3620.88 562.154 3621.04 562.244 3621.09 562.394C3621.28 563.081 3621.36 563.794 3621.33 564.508C3621.33 564.584 3621.29 564.654 3621.23 564.704C3621.18 564.754 3621.1 564.778 3621.03 564.771C3620.92 564.761 3620.83 564.701 3620.78 564.611C3620.76 564.564 3620.75 564.514 3620.75 564.461L3620.75 564.458Z" fill="white"></path><path id="Shape_221" d="M3579.64 483.56C3578.9 484.046 3578.83 484.876 3579.48 485.416C3578.83 484.88 3577.71 484.836 3576.97 485.323C3577.71 484.836 3577.78 484.006 3577.13 483.466C3577.78 484.003 3578.91 484.046 3579.64 483.56Z" fill="#FCDA69"></path><path id="Shape_222" d="M3575.87 480.261C3575.14 480.747 3575.07 481.577 3575.72 482.117C3575.06 481.581 3573.94 481.537 3573.21 482.024C3573.94 481.537 3574.01 480.707 3573.36 480.167C3574.02 480.704 3575.14 480.747 3575.87 480.261Z" fill="#FCDA69"></path></g></g></g></g></svg>