<svg xmlns="http://www.w3.org/2000/svg" viewBox="2231.996337890625 439 144.550048828125 149.916015625"><g id="Group_41"><g id="🐥Illustrations_2"><g id="we-are-hiring"><g id="Character_5"><path id="Oval_5" d="M2333.32 474.637C2335.26 471.076 2333.94 466.615 2330.38 464.675C2326.82 462.734 2322.36 464.047 2320.42 467.608C2318.48 471.17 2319.79 475.63 2323.35 477.571C2326.92 479.512 2331.38 478.198 2333.32 474.637Z" fill="#FFBE83"></path><path id="Shape_223" d="M2331.4 476.569C2331.84 476.839 2332.36 476.996 2332.92 476.996C2334.53 476.996 2335.83 475.692 2335.83 474.085C2335.83 472.479 2334.52 471.175 2332.92 471.175C2331.31 471.175 2330.67 471.892 2330.48 471.932" fill="#FFBE83"></path><path id="Shape_224" d="M2292.25 566.033C2289.44 566.033 2287.61 566.143 2286.29 563.45L2268.38 527.122C2267.25 524.835 2267.35 522.132 2268.63 519.928C2269.92 517.722 2272.22 516.312 2274.77 516.162L2319.26 513.545C2323.46 513.298 2327.06 516.502 2327.31 520.702C2327.55 524.902 2324.35 528.505 2320.15 528.752L2287.11 530.695L2299.89 556.646C2301.75 560.423 2299.38 563.393 2295.6 565.25C2294.52 565.78 2293.38 566.03 2292.25 566.03L2292.25 566.033Z" fill="#0C3E87" stroke="black" stroke-width="0.5" stroke-miterlimit="10"></path><path id="Shape_225" d="M2289.49 452.527L2296.64 439C2296.64 439 2299.95 441.857 2300.41 446.417C2301 452.324 2297.87 457.037 2297.87 457.037L2289.49 452.527Z" fill="#FFBE83"></path><path id="Shape_226" d="M2286.68 585.679L2306.19 573.732C2307.13 573.155 2307.42 571.929 2306.85 570.989L2284.07 585.052C2284.64 586.003 2285.73 586.263 2286.68 585.679Z" fill="white" stroke="black" stroke-width="0.5" stroke-miterlimit="10"></path><path id="Shape_227" d="M2299.52 556.235L2306.75 571.119L2284.25 585.049C2281.08 579.949 2282.65 573.242 2287.76 570.085L2289.25 569.152L2286.4 563.328L2299.52 556.235Z" fill="#362B6E"></path><path id="Shape_228" d="M2284.25 585.208C2284.2 585.208 2284.15 585.181 2284.12 585.131C2282.56 582.628 2282.08 579.668 2282.75 576.801C2283.42 573.931 2285.17 571.497 2287.68 569.947L2289.05 569.091L2286.26 563.394C2286.22 563.317 2286.25 563.227 2286.33 563.184L2299.45 556.09C2299.48 556.067 2299.53 556.064 2299.57 556.077C2299.61 556.09 2299.65 556.117 2299.67 556.16L2306.89 571.044C2306.92 571.117 2306.9 571.207 2306.83 571.247L2284.34 585.178C2284.31 585.201 2284.28 585.208 2284.25 585.208H2284.25ZM2286.61 563.394L2289.4 569.081C2289.43 569.154 2289.41 569.244 2289.34 569.284L2287.85 570.217C2285.41 571.724 2283.71 574.088 2283.06 576.874C2282.42 579.611 2282.86 582.428 2284.3 584.831L2306.54 571.061L2299.45 556.454L2286.61 563.394Z" fill="#19004B"></path><path id="Shape_229" d="M2284.25 585.208C2284.2 585.208 2284.15 585.181 2284.12 585.131C2282.56 582.628 2282.08 579.668 2282.75 576.801C2283.42 573.931 2285.17 571.497 2287.68 569.947L2290.84 567.974C2290.92 567.927 2291.01 567.947 2291.06 568.024C2291.11 568.097 2291.09 568.194 2291.01 568.244L2287.85 570.217C2285.42 571.724 2283.71 574.088 2283.06 576.874C2282.41 579.661 2282.88 582.535 2284.39 584.965C2284.44 585.038 2284.41 585.135 2284.34 585.185C2284.31 585.205 2284.28 585.211 2284.25 585.211L2284.25 585.208Z" fill="#19004B"></path><path id="Shape_230" d="M2289.67 581.852C2289.62 581.852 2289.56 581.819 2289.53 581.762L2284.93 572.502C2284.9 572.422 2284.93 572.329 2285.01 572.289C2285.09 572.249 2285.18 572.282 2285.22 572.362L2289.82 581.622C2289.85 581.702 2289.82 581.796 2289.74 581.836C2289.72 581.849 2289.7 581.852 2289.67 581.852Z" fill="#19004B"></path><path id="Shape_231" d="M2293.02 570.612C2293.13 570.795 2293.37 570.852 2293.56 570.738C2293.74 570.625 2293.8 570.382 2293.69 570.195C2293.57 570.012 2293.33 569.955 2293.14 570.069C2292.96 570.182 2292.9 570.428 2293.02 570.612Z" fill="#19004B"></path><path id="Shape_232" d="M2290.98 571.872C2291.09 572.055 2291.34 572.112 2291.52 571.998C2291.71 571.885 2291.76 571.642 2291.65 571.455C2291.54 571.272 2291.29 571.215 2291.11 571.328C2290.92 571.445 2290.87 571.688 2290.98 571.872Z" fill="#19004B"></path><path id="Shape_233" d="M2288.94 573.134C2289.06 573.318 2289.3 573.374 2289.49 573.261C2289.67 573.148 2289.73 572.904 2289.61 572.718C2289.5 572.534 2289.26 572.478 2289.07 572.591C2288.89 572.704 2288.83 572.948 2288.94 573.134Z" fill="#19004B"></path><path id="Shape_234" d="M2301.59 574.479C2301.54 574.479 2301.49 574.452 2301.45 574.402C2301.17 573.942 2300.94 573.452 2300.76 572.949C2299.48 569.355 2300.47 566.022 2303.33 564.245C2303.41 564.202 2303.5 564.222 2303.55 564.295C2303.6 564.372 2303.58 564.465 2303.5 564.515C2300.77 566.205 2299.83 569.399 2301.06 572.842C2301.23 573.325 2301.46 573.796 2301.73 574.236C2301.77 574.312 2301.75 574.406 2301.68 574.456C2301.65 574.472 2301.62 574.479 2301.59 574.479H2301.59Z" fill="#19004B"></path><path id="Shape_235" d="M2297.88 457.024L2296.33 456.197L2297.88 457.031V457.024Z" fill="#58B8FF"></path><path id="Vector_110" d="M2358.08 497.388C2354.5 491.051 2347.34 485.957 2338.07 483.017L2338.08 482.967C2338.08 482.967 2335.78 482.227 2331.98 481.337C2331.98 481.337 2321.49 479.32 2321.49 479.324C2318.82 478.907 2316.94 478.69 2316.94 478.69L2316.93 478.71C2312.35 478.097 2302.83 476.47 2296.8 471.24C2294.26 469.04 2295.18 464.156 2296.38 460.616L2287.8 456.326C2287.26 457.763 2286.69 459.51 2286.27 461.4C2284.26 470.65 2287.49 475.767 2290.56 478.43C2297.52 484.471 2308.17 486.971 2314.15 487.944L2310.21 501.048L2328.42 518.845L2335.59 492.221C2342.3 494.424 2347.47 497.958 2349.79 502.071C2351.38 504.891 2351.61 507.881 2350.48 511.211C2349.19 515.038 2346.58 517.428 2342.5 518.525C2339.05 519.452 2335.87 519.048 2335.84 519.045L2335.19 523.759L2334.51 528.472C2334.75 528.505 2335.92 528.659 2337.65 528.659C2339.47 528.659 2341.93 528.489 2344.57 527.829C2351.97 525.969 2357.13 521.279 2359.5 514.262C2361.48 508.391 2360.99 502.561 2358.08 497.398L2358.08 497.388Z" fill="url(#paint46_linear_36_1659)" stroke="black" stroke-width="0.5" stroke-miterlimit="10"></path><path id="Shape_236" d="M2297.88 457.027L2296.33 456.194L2293.68 454.777L2289.48 452.523C2289.43 452.623 2288.64 454.1 2287.8 456.327L2296.38 460.617C2296.92 459.027 2297.51 457.71 2297.87 457.027H2297.88Z" fill="white"></path><path id="Shape_237" d="M2262.88 456.592L2262.82 479.893C2262.81 480.29 2263.08 480.64 2263.47 480.716L2288.95 485.843C2289.46 485.943 2289.94 485.546 2289.93 485.02L2290.24 461.896C2290.23 461.496 2289.94 461.162 2289.54 461.106L2263.81 455.799C2263.33 455.735 2262.89 456.102 2262.88 456.592H2262.88Z" fill="white"></path><path id="Shape_238" d="M2319.64 528.692C2317.64 528.692 2315.65 527.912 2314.15 526.355C2303.88 515.678 2292.47 504.064 2286.48 498.267C2281.59 502.798 2273.29 510.941 2266.17 518.145C2263.21 521.135 2258.38 521.161 2255.4 518.205C2252.41 515.248 2252.38 510.421 2255.34 507.434C2255.4 507.374 2261.5 501.201 2267.74 495.111C2271.44 491.5 2274.47 488.614 2276.75 486.53C2281.04 482.6 2283.26 480.713 2286.65 480.71H2286.66C2290.26 480.71 2292.3 482.69 2297.75 487.977C2300.58 490.73 2325.06 515.711 2325.14 515.795C2328.06 518.825 2327.97 523.648 2324.93 526.565C2323.45 527.985 2321.55 528.692 2319.65 528.692H2319.64Z" fill="#0C3E87" stroke="black" stroke-width="0.5" stroke-miterlimit="10"></path><path id="Shape_239" d="M2334.91 525.665L2334.51 528.468H2334.51L2334.91 525.665Z" fill="#FFB3B3"></path><path id="Shape_240" d="M2335.84 519.039C2335.84 519.039 2333.68 518.649 2331.33 517.642L2329.69 526.845C2332.17 527.966 2334.47 528.459 2334.51 528.466L2334.91 525.662L2335.84 519.039Z" fill="white"></path><path id="Shape_241" d="M2232.72 514.515L2251.03 530.532C2251.91 531.295 2253.24 531.208 2254.01 530.335L2232.54 511.671C2231.75 512.558 2231.83 513.741 2232.72 514.515Z" fill="white" stroke="black" stroke-width="0.5" stroke-miterlimit="10"></path><path id="Shape_242" d="M2265.66 518.402L2253.83 530.306L2232.55 511.839C2236.72 507.025 2244 506.505 2248.81 510.682L2250.53 512.175L2255.17 507.842L2265.66 518.399L2265.66 518.402Z" fill="#362B6E"></path><path id="Shape_243" d="M2253.83 530.466C2253.79 530.466 2253.75 530.453 2253.72 530.43L2232.45 511.962C2232.38 511.906 2232.38 511.802 2232.43 511.736C2234.48 509.375 2237.32 507.952 2240.43 507.732C2243.54 507.509 2246.56 508.515 2248.92 510.562L2250.53 511.966L2255.06 507.732C2255.13 507.675 2255.23 507.675 2255.29 507.732L2265.77 518.289C2265.83 518.352 2265.83 518.453 2265.77 518.516L2253.94 530.42C2253.91 530.45 2253.87 530.463 2253.83 530.463L2253.83 530.466ZM2232.78 511.822L2253.82 530.086L2265.44 518.396L2255.17 508.062L2250.65 512.289C2250.59 512.346 2250.5 512.346 2250.43 512.289L2248.71 510.796C2246.42 508.802 2243.49 507.825 2240.46 508.042C2237.48 508.259 2234.76 509.595 2232.78 511.819V511.822Z" fill="#19004B"></path><path id="Shape_244" d="M2252.12 513.694C2252.08 513.694 2252.05 513.68 2252.02 513.657L2248.71 510.807C2246.42 508.813 2243.49 507.837 2240.46 508.053C2237.43 508.27 2234.66 509.653 2232.67 511.947C2232.62 512.013 2232.51 512.02 2232.45 511.964C2232.38 511.907 2232.37 511.803 2232.43 511.737C2234.48 509.377 2237.32 507.953 2240.43 507.733C2243.54 507.51 2246.56 508.517 2248.91 510.563L2252.22 513.414C2252.29 513.47 2252.29 513.574 2252.24 513.64C2252.21 513.674 2252.16 513.694 2252.12 513.694Z" fill="#19004B"></path><path id="Shape_245" d="M2237.38 516.193C2237.34 516.193 2237.3 516.173 2237.27 516.139C2237.21 516.073 2237.21 515.973 2237.28 515.913L2245.49 508.589C2245.55 508.529 2245.65 508.536 2245.71 508.603C2245.77 508.669 2245.77 508.769 2245.7 508.829L2237.49 516.153C2237.46 516.183 2237.42 516.193 2237.39 516.193H2237.38Z" fill="#19004B"></path><path id="Shape_246" d="M2249.94 516.176C2249.79 516.349 2249.81 516.613 2249.98 516.763C2250.15 516.916 2250.42 516.896 2250.57 516.723C2250.72 516.549 2250.7 516.286 2250.53 516.136C2250.35 515.986 2250.09 516.006 2249.94 516.176Z" fill="#19004B"></path><path id="Shape_247" d="M2248.02 514.509C2247.87 514.682 2247.89 514.946 2248.06 515.096C2248.23 515.246 2248.5 515.229 2248.65 515.056C2248.8 514.882 2248.78 514.619 2248.61 514.469C2248.44 514.319 2248.17 514.339 2248.02 514.509Z" fill="#19004B"></path><path id="Shape_248" d="M2246.1 512.842C2245.95 513.015 2245.97 513.279 2246.14 513.429C2246.31 513.582 2246.58 513.562 2246.73 513.389C2246.88 513.215 2246.86 512.952 2246.69 512.802C2246.52 512.652 2246.25 512.672 2246.1 512.842Z" fill="#19004B"></path><path id="Shape_249" d="M2277.73 471.215C2277.73 472.195 2277.08 472.992 2276.28 472.992C2275.47 472.992 2274.82 472.195 2274.82 471.215C2274.82 470.235 2275.47 469.438 2276.28 469.438C2277.08 469.438 2277.73 470.235 2277.73 471.215Z" fill="url(#paint47_linear_36_1659)" stroke="black" stroke-width="0.5" stroke-miterlimit="10"></path><path id="Shape_250" d="M2248.88 526.18C2248.84 526.18 2248.8 526.166 2248.77 526.143C2248.71 526.086 2248.7 525.983 2248.76 525.916C2249.13 525.486 2249.55 525.093 2250.01 524.756C2253.24 522.34 2256.91 522.276 2259.58 524.596C2259.65 524.653 2259.66 524.756 2259.6 524.823C2259.54 524.89 2259.44 524.896 2259.37 524.84C2256.82 522.62 2253.3 522.686 2250.19 525.01C2249.76 525.336 2249.35 525.71 2248.99 526.126C2248.96 526.16 2248.92 526.18 2248.87 526.18H2248.88Z" fill="#19004B"></path><path id="Shape_251" d="M2327.27 482.865L2323.11 481.882L2323.7 485.452L2317.93 497.126L2318.87 501.626L2322.6 498.083L2324.03 485.525L2327.27 482.865Z" fill="#19004B"></path><path id="Shape_252" d="M2320.48 512.219C2320.48 512.219 2319.41 516.196 2321.62 520.449C2323.25 523.606 2327.69 525.943 2329.69 526.846L2331.33 517.642L2320.48 512.219Z" fill="#FFBE83"></path></g></g></g><path id="Shape_253" d="M2324.25 467.562C2322.43 467.219 2317.31 461.489 2320.95 457.169C2324.59 452.852 2325.12 458.795 2328.39 460.682C2331.66 462.569 2332.92 458.045 2336.58 460.472C2340.23 462.899 2339.37 472.883 2334.65 472.036C2329.93 471.189 2330.83 466.809 2327.87 466.822C2324.91 466.836 2326.77 468.032 2324.26 467.559L2324.25 467.562Z" fill="url(#paint48_linear_36_1659)"></path><path id="Shape_254" d="M2374.7 459.529L2374.75 459.552C2374.77 459.432 2374.76 459.309 2374.72 459.195C2374.65 459.022 2374.47 458.856 2374.15 458.719C2373.48 458.429 2372.19 458.272 2370.12 458.502C2370.3 458.769 2370.47 459.039 2370.62 459.319C2372.72 459.082 2374.02 459.239 2374.7 459.532L2374.7 459.529Z" fill="#0C3E87"></path><path id="Shape_255" d="M2349.71 467.752C2349.62 467.402 2349.54 467.049 2349.48 466.689C2347.03 468.532 2346.4 469.805 2346.62 470.339C2346.68 470.502 2346.85 470.662 2347.14 470.795C2347.23 470.179 2347.94 469.139 2349.71 467.749V467.752Z" fill="#0C3E87"></path><path id="Shape_256" d="M2376.41 459.553C2376.3 459.273 2376.13 459.026 2375.9 458.83C2376.14 459.546 2375.92 460.376 2375.24 461.303C2374.66 462.11 2373.72 462.99 2372.47 463.92C2372.34 464.02 2372.2 464.123 2372.06 464.223C2369.58 465.99 2366.19 467.76 2362.45 469.243C2358.71 470.727 2355.01 471.763 2352 472.177C2351.83 472.2 2351.66 472.22 2351.5 472.24C2349.95 472.42 2347.57 472.42 2346.59 472.233C2346.25 472.173 2345.91 472.077 2345.6 471.943C2345.34 471.837 2345.1 471.69 2344.89 471.51C2344.9 471.54 2344.91 471.573 2344.93 471.603C2345.13 472.107 2345.53 472.49 2346.15 472.757C2346.47 472.89 2346.8 472.987 2347.14 473.047C2348.12 473.23 2350.5 473.233 2352.05 473.053C2352.27 473.027 2352.49 472.997 2352.72 472.963C2355.71 472.533 2359.32 471.513 2363 470.057C2366.47 468.677 2369.64 467.053 2372.06 465.413C2372.4 465.187 2372.72 464.96 2373.02 464.733C2374.27 463.803 2375.21 462.923 2375.8 462.116C2376.5 461.15 2376.71 460.286 2376.42 459.55L2376.41 459.553Z" fill="#0C3E87"></path><path id="Shape_257" d="M2375.9 458.832C2375.89 458.802 2375.88 458.772 2375.86 458.738C2375.57 458.002 2374.83 457.515 2373.65 457.295C2372.67 457.112 2371.39 457.108 2369.84 457.288C2369.65 457.312 2369.45 457.338 2369.25 457.365C2369.48 457.622 2369.69 457.888 2369.89 458.165C2369.97 458.275 2370.05 458.385 2370.12 458.495C2372.2 458.265 2373.48 458.422 2374.15 458.712C2374.47 458.848 2374.66 459.018 2374.72 459.188C2374.76 459.302 2374.77 459.425 2374.75 459.545C2374.65 460.195 2373.88 461.315 2371.89 462.815C2371.84 462.852 2371.79 462.888 2371.74 462.928C2369.31 464.732 2365.85 466.565 2361.99 468.095C2358.14 469.625 2354.36 470.662 2351.36 471.015L2351.16 471.039C2346.7 471.522 2347.24 470.839 2347.14 470.792C2346.85 470.659 2346.69 470.499 2346.62 470.335C2346.41 469.799 2347.04 468.525 2349.48 466.685C2349.47 466.592 2349.45 466.499 2349.44 466.402C2349.39 466.025 2349.36 465.642 2349.35 465.262C2349.18 465.375 2349.03 465.492 2348.87 465.605C2347.62 466.535 2346.69 467.415 2346.1 468.222C2345.4 469.189 2345.19 470.052 2345.48 470.789C2345.59 471.065 2344.67 471.312 2344.9 471.509C2345.11 471.689 2345.35 471.835 2345.6 471.942C2345.92 472.075 2346.25 472.172 2346.59 472.232C2347.57 472.415 2349.95 472.419 2351.5 472.239C2351.66 472.219 2351.83 472.199 2352 472.175C2355.02 471.762 2358.7 470.732 2362.45 469.245C2366.2 467.759 2369.58 465.989 2372.06 464.225C2372.2 464.125 2372.34 464.022 2372.48 463.922C2373.73 462.992 2374.66 462.112 2375.25 461.305C2375.92 460.378 2376.14 459.548 2375.9 458.828L2375.9 458.832Z" fill="#73C3F9"></path><path id="Vector_111" d="M2368.49 448.485C2367.44 447.702 2365.95 447.919 2365.17 448.972L2355.77 461.586L2352.89 459.629C2351.81 458.892 2350.33 459.172 2349.6 460.259C2348.86 461.342 2349.14 462.819 2350.23 463.556L2354.44 466.423C2355.85 467.379 2357.77 467.016 2358.73 465.606L2359.08 465.096L2368.98 451.809C2369.76 450.759 2369.54 449.272 2368.49 448.489V448.485Z" fill="url(#paint49_linear_36_1659)" stroke="black" stroke-width="0.5" stroke-miterlimit="10"></path><path id="Shape_258" d="M2263.7 559.342C2261.2 567.509 2265.8 574.129 2273.97 574.129C2265.8 574.129 2257.16 580.749 2254.65 588.916C2257.15 580.749 2252.55 574.129 2244.38 574.129C2252.55 574.129 2261.19 567.509 2263.7 559.342Z" fill="url(#paint50_linear_36_1659)"></path><path id="Shape_259" d="M2252.47 461.502C2250.13 467.432 2251.41 469.262 2257.49 468.742C2251.72 468.218 2249.33 470.065 2248.04 475.982C2250.38 470.048 2249.09 468.222 2243.01 468.742C2248.79 469.268 2251.18 467.418 2252.47 461.502Z" fill="url(#paint51_linear_36_1659)"></path></g></svg>