<svg xmlns="http://www.w3.org/2000/svg" viewBox="2857 1.9433600902557373 179.845703125 149.056640625"><g id="Group_42"><g id="Group_43"><path id="Vector_112" d="M3020.06 1.94336H2952.7C2948.92 1.94336 2945.85 5.00867 2945.85 8.78993V59.2525C2945.85 63.0338 2948.92 66.0991 2952.7 66.0991H3020.06C3023.84 66.0991 3026.91 63.0338 3026.91 59.2525V8.78993C3026.91 5.00867 3023.84 1.94336 3020.06 1.94336Z" fill="white" stroke="black" stroke-miterlimit="10"></path><path id="Vector_113" d="M3025.16 60.5031V7.54047C3025.16 5.41605 3023.43 3.69385 3021.31 3.69385L2951.45 3.69385C2949.33 3.69385 2947.6 5.41605 2947.6 7.54047V60.5031C2947.6 62.6275 2949.33 64.3497 2951.45 64.3497H3021.31C3023.43 64.3497 3025.16 62.6275 3025.16 60.5031Z" fill="#73C3F9" stroke="black" stroke-miterlimit="10"></path></g><g id="Group_44"><path id="Vector_114" d="M2916.71 124.714H2873.73V146.1H2916.71V124.714Z" fill="#0C3E87" stroke="black" stroke-width="2" stroke-miterlimit="10"></path><path id="Vector_115" d="M2895.96 114.619L2857 122.666L2897.99 130.379L2936.95 122.332L2895.96 114.619Z" fill="url(#paint52_linear_36_1659)" stroke="black" stroke-miterlimit="10"></path><path id="Vector_116" d="M2857 124.29V122.667L2897.99 130.38V132.004L2857 124.29Z" fill="#73C3F9" stroke="black" stroke-miterlimit="10"></path><path id="Vector_117" d="M2936.95 123.955V122.332L2897.99 130.378V132.002L2936.95 123.955Z" fill="#73C3F9" stroke="black" stroke-miterlimit="10"></path><path id="Vector_118" d="M2864.3 142.367C2866.14 142.367 2867.63 140.873 2867.63 139.031C2867.63 137.188 2866.14 135.694 2864.3 135.694C2862.45 135.694 2860.96 137.188 2860.96 139.031C2860.96 140.873 2862.45 142.367 2864.3 142.367Z" fill="url(#paint53_linear_36_1659)" stroke="black" stroke-width="2" stroke-miterlimit="10"></path></g><path id="Vector_119" d="M3016.22 21.8496C3016.22 21.9262 3006.15 21.9862 2993.72 21.9862C2981.3 21.9862 2971.22 21.9229 2971.22 21.8496C2971.22 21.7762 2981.29 21.7129 2993.72 21.7129C3006.15 21.7129 3016.22 21.7762 3016.22 21.8496Z" fill="#1A2E35" stroke="black" stroke-width="0.75" stroke-miterlimit="10"></path><path id="Vector_120" d="M2994.44 25.3461C2994.44 25.4228 2989.24 25.4828 2982.83 25.4828C2976.42 25.4828 2971.22 25.4195 2971.22 25.3461C2971.22 25.2728 2976.42 25.2095 2982.83 25.2095C2989.24 25.2095 2994.44 25.2728 2994.44 25.3461Z" fill="#1A2E35" stroke="black" stroke-width="0.75" stroke-miterlimit="10"></path><path id="Vector_121" d="M3016.22 30.8261C3016.22 30.9028 3006.15 30.9628 2993.72 30.9628C2981.3 30.9628 2971.22 30.8995 2971.22 30.8261C2971.22 30.7528 2981.29 30.6895 2993.72 30.6895C3006.15 30.6895 3016.22 30.7528 3016.22 30.8261Z" fill="#1A2E35" stroke="black" stroke-width="0.75" stroke-miterlimit="10"></path><path id="Vector_122" d="M2994.44 34.3257C2994.44 34.4023 2989.24 34.4623 2982.83 34.4623C2976.42 34.4623 2971.22 34.399 2971.22 34.3257C2971.22 34.2523 2976.42 34.189 2982.83 34.189C2989.24 34.189 2994.44 34.2523 2994.44 34.3257Z" fill="#1A2E35" stroke="black" stroke-width="0.75" stroke-miterlimit="10"></path><path id="Vector_123" d="M3002.84 10.3828C3002.84 10.4594 2992.76 10.5194 2980.34 10.5194C2967.92 10.5194 2957.84 10.4561 2957.84 10.3828C2957.84 10.3094 2967.91 10.2461 2980.34 10.2461C2992.77 10.2461 3002.84 10.3094 3002.84 10.3828Z" fill="#1A2E35" stroke="black" stroke-width="0.75" stroke-miterlimit="10"></path><path id="Vector_124" d="M2981.05 13.8837C2981.05 13.9604 2975.86 14.0204 2969.45 14.0204C2963.04 14.0204 2957.84 13.9571 2957.84 13.8837C2957.84 13.8104 2963.04 13.7471 2969.45 13.7471C2975.86 13.7471 2981.05 13.8104 2981.05 13.8837Z" fill="#1A2E35" stroke="black" stroke-width="0.75" stroke-miterlimit="10"></path><g id="Group_45"><g id="Group_46"><path id="Vector_125" d="M3036.08 115.763C3035.99 115.683 3035.91 115.606 3035.83 115.526C3035.74 115.656 3035.59 115.7 3035.45 115.76C3035.5 115.736 3035.54 115.713 3035.59 115.69C3035.68 115.643 3035.76 115.603 3035.79 115.5C3035.58 115.353 3035.36 115.223 3035.17 115.053C3034.86 114.766 3034.42 114.76 3034.1 114.503C3033.9 114.346 3033.69 114.19 3033.42 114.156C3033.3 114.14 3033.19 114.163 3033.09 114.213C3031.87 114.756 3030.61 115.193 3029.35 115.653C3028.66 115.91 3027.96 116.13 3027.27 116.373C3025.87 116.86 3024.5 117.416 3023.22 118.16C3022.92 118.34 3022.62 118.513 3022.32 118.69C3021.98 118.876 3021.69 119.123 3021.39 119.36C3020.05 120.41 3018.97 121.663 3018.39 123.293C3018.24 123.706 3018.07 124.12 3018.12 124.58C3018.17 124.663 3018.26 124.663 3018.34 124.656C3018.99 124.613 3019.57 124.816 3020.12 125.15C3020.22 125.21 3020.32 125.276 3020.44 125.236C3020.61 125.173 3020.75 125.056 3020.88 124.926C3021.9 123.916 3023.07 123.1 3024.29 122.356C3025.15 121.83 3026.06 121.403 3026.98 120.986C3028.16 120.45 3029.33 119.906 3030.5 119.36C3030.69 119.25 3030.9 119.186 3031.1 119.073C3032.73 118.123 3034.36 117.176 3036 116.223C3036.1 116.163 3036.22 116.11 3036.26 115.973C3036.2 115.906 3036.14 115.84 3036.08 115.77V115.763Z" fill="#FDF2DC" stroke="black" stroke-miterlimit="10"></path><path id="Vector_126" d="M3013.83 123.906C3012.61 124.006 3011.51 124.496 3010.44 125.039C3009.45 125.543 3008.55 126.179 3007.67 126.863C3006.11 128.073 3004.7 129.446 3003.23 130.759C3002.28 131.606 3001.32 132.426 3000.34 133.229C3000.21 133.336 3000.07 133.429 2999.99 133.586C2999.92 133.759 2999.98 133.936 2999.98 134.109C2999.98 134.383 3000.06 134.693 2999.96 134.919C2999.84 135.176 2999.88 135.386 2999.92 135.623C2999.98 135.953 3000.04 136.283 3000.09 136.613C3000.19 136.636 3000.26 136.573 3000.33 136.529C3000.36 136.513 3000.4 136.496 3000.43 136.476C3000.37 136.506 3000.32 136.539 3000.26 136.569C3000.19 136.609 3000.12 136.646 3000.09 136.729C3000.11 136.799 3000.13 136.866 3000.15 136.936C3000.32 136.976 3000.44 136.869 3000.57 136.796C3001.83 136.046 3003.13 135.363 3004.34 134.539C3005.01 134.076 3005.69 133.633 3006.37 133.183C3007.08 132.706 3007.79 132.216 3008.5 131.733C3009.48 131.066 3010.47 130.409 3011.47 129.783C3012.09 129.393 3012.76 129.089 3013.42 128.763C3014.14 128.409 3014.88 128.109 3015.66 127.936C3015.75 127.906 3015.84 127.886 3015.9 127.819C3015.98 127.716 3015.95 127.596 3015.95 127.483C3015.9 126.516 3016.26 125.736 3017.04 125.16C3017.15 125.08 3017.29 125.009 3017.29 124.843C3017.23 124.73 3017.12 124.663 3017.01 124.6C3016.03 124.01 3014.95 123.803 3013.82 123.896L3013.83 123.906Z" fill="#FDF2DC" stroke="black" stroke-miterlimit="10"></path></g><path id="Vector_127" d="M3020.77 112.213C3021.16 111.349 3021.65 110.539 3022.16 109.743C3022.6 109.059 3023.06 108.393 3023.52 107.719C3023.7 107.496 3023.88 107.273 3024.1 107.013C3024.26 107.623 3024.4 108.193 3024.55 108.759C3024.6 108.953 3024.42 109.003 3024.33 109.083C3023.67 109.636 3023.04 110.206 3022.41 110.796C3021.88 111.303 3021.37 111.826 3020.89 112.386C3020.84 112.446 3020.81 112.523 3020.72 112.546C3020.62 112.416 3020.8 112.329 3020.77 112.209L3020.77 112.213Z" fill="#FDF2DC" stroke="black" stroke-miterlimit="10"></path><path id="Vector_128" d="M3020.77 112.213C3020.86 112.343 3020.66 112.426 3020.72 112.55C3020.65 112.67 3020.58 112.79 3020.48 112.88C3020.51 112.63 3020.66 112.43 3020.77 112.213Z" fill="#91806C"></path><path id="Vector_129" d="M3020.38 125.213C3020.53 125.113 3020.69 125.027 3020.81 124.89C3023.46 123.243 3026.19 121.743 3028.88 120.157C3029.28 119.917 3029.69 119.7 3030.12 119.5C3030.23 119.447 3030.34 119.393 3030.43 119.303C3032.29 118.343 3034.05 117.227 3035.87 116.197C3036 116.123 3036.13 116.043 3036.26 115.963C3036.53 115.853 3036.72 115.893 3036.81 116.083C3036.9 116.273 3036.82 116.447 3036.57 116.593C3031.55 119.51 3026.54 122.423 3021.52 125.34C3021.43 125.397 3021.3 125.423 3021.26 125.55C3021.1 125.683 3020.92 125.78 3020.73 125.85C3020.58 125.907 3020.42 125.927 3020.32 125.733C3020.31 125.677 3020.31 125.627 3020.39 125.623C3020.63 125.61 3020.58 125.51 3020.46 125.387C3020.41 125.337 3020.35 125.293 3020.37 125.21L3020.38 125.213Z" fill="#32449E"></path><path id="Vector_130" d="M3000.15 136.946C3001.42 136.202 3002.72 135.519 3003.94 134.699C3004.06 134.616 3004.2 134.546 3004.33 134.469C3004.71 134.309 3005.04 134.046 3005.39 133.829C3005.72 133.632 3006.04 133.429 3006.37 133.236C3009.27 131.542 3012.18 129.859 3015.08 128.166C3015.28 128.049 3015.51 127.996 3015.69 127.859L3015.9 127.809C3015.96 127.836 3015.97 127.899 3015.99 127.956C3016.02 128.026 3016.03 128.129 3016.13 128.116C3016.23 128.102 3016.2 127.999 3016.2 127.926C3016.2 127.836 3016.16 127.729 3016.29 127.689C3016.46 127.702 3016.56 127.792 3016.59 127.946C3016.62 128.126 3016.56 128.276 3016.41 128.382C3016.2 128.536 3015.95 128.636 3015.76 128.822C3015.62 128.716 3015.53 128.829 3015.43 128.886C3011.64 131.089 3007.84 133.292 3004.05 135.496C3002.89 136.169 3001.74 136.842 3000.58 137.516C3000.45 137.586 3000.33 137.669 3000.18 137.612C3000.05 137.566 2999.97 137.479 2999.95 137.346C2999.92 137.159 3000.02 137.042 3000.16 136.949L3000.15 136.946Z" fill="#73C3F9" stroke="black" stroke-miterlimit="10"></path><path id="Vector_131" d="M3018.06 124.622C3018.09 124.609 3018.13 124.599 3018.16 124.586C3018.98 124.496 3019.7 124.779 3020.37 125.212C3020.42 125.256 3020.45 125.302 3020.5 125.339C3020.6 125.412 3020.68 125.499 3020.61 125.622C3020.54 125.776 3020.42 125.682 3020.32 125.646C3019.66 125.066 3018.91 124.729 3018.03 124.969C3016.82 125.306 3016.03 126.389 3016.24 127.719C3016.25 127.812 3016.27 127.909 3016.28 128.002C3016.29 128.102 3016.28 128.209 3016.16 128.226C3016.05 128.239 3015.98 128.166 3015.95 128.062C3015.93 127.979 3015.92 127.892 3015.9 127.806C3015.83 127.092 3015.92 126.412 3016.33 125.799C3016.58 125.426 3016.92 125.149 3017.29 124.906C3017.38 124.932 3017.44 124.862 3017.5 124.822C3017.6 124.776 3017.7 124.729 3017.8 124.679C3017.88 124.659 3017.97 124.639 3018.06 124.619V124.622Z" fill="#362B6E" stroke="black" stroke-miterlimit="10"></path><path id="Vector_132" d="M3022.3 118.772C3022.58 118.512 3022.91 118.325 3023.27 118.209C3022.95 118.395 3022.62 118.585 3022.3 118.772Z" fill="#C9C7B2"></path><path id="Vector_133" d="M3012.22 128.464C3012.08 128.237 3011.94 128.011 3011.81 127.781C3011.63 127.577 3011.56 127.307 3011.38 127.101C3011.36 127.067 3011.34 127.034 3011.31 127.001C3011.25 126.981 3011.22 126.934 3011.23 126.864C3011.06 126.577 3010.9 126.291 3010.73 126.004C3010.74 125.974 3010.76 125.951 3010.78 125.937C3011.49 125.514 3012.25 125.197 3013.04 124.977C3013.15 124.951 3013.25 124.911 3013.35 124.927C3013.39 124.934 3013.4 124.954 3013.41 124.987C3013.91 125.897 3014.42 126.804 3014.95 127.764C3014.72 127.737 3014.54 127.721 3014.36 127.701C3014.24 127.727 3014.12 127.727 3014 127.711C3013.97 127.711 3013.93 127.704 3013.9 127.697C3013.15 127.594 3013.36 127.504 3013 128.151C3012.97 128.221 3012.91 128.264 3012.86 128.321C3012.7 128.474 3012.65 128.694 3012.51 128.884C3012.4 128.821 3012.38 128.684 3012.29 128.604C3012.24 128.574 3012.2 128.527 3012.21 128.461L3012.22 128.464Z" fill="#362B6E" stroke="black" stroke-miterlimit="10"></path><g id="Group_47"><path id="Vector_134" d="M3028.04 120.401C3026.37 121.161 3024.7 121.918 3023.18 122.961C3022.34 123.538 3021.52 124.151 3020.81 124.888C3020.91 124.915 3020.98 124.841 3021.05 124.798C3024.1 123.031 3027.14 121.261 3030.19 119.491C3030.28 119.441 3030.39 119.415 3030.43 119.301C3029.63 119.668 3028.84 120.041 3028.04 120.405V120.401Z" fill="#73C3F9" stroke="black" stroke-miterlimit="10"></path><path id="Vector_135" d="M3015.7 127.858C3015.51 127.904 3015.31 127.938 3015.13 127.994C3013.75 128.421 3012.49 129.081 3011.27 129.828C3008.9 131.284 3006.66 132.938 3004.33 134.468C3004.44 134.494 3004.51 134.414 3004.59 134.368C3008.23 132.254 3011.87 130.141 3015.51 128.024C3015.58 127.981 3015.68 127.961 3015.7 127.858H3015.7Z" fill="#32449E"></path></g><g id="Group_48"><path id="Vector_136" d="M3013.9 127.701C3013.57 127.804 3013.22 127.887 3012.96 128.151C3012.9 128.191 3012.88 128.254 3012.87 128.327C3013.37 128.121 3013.87 127.914 3014.37 127.707C3014.26 127.691 3014.15 127.674 3014.05 127.657C3014.01 127.707 3013.95 127.691 3013.9 127.704V127.701Z" fill="#95806C"></path></g><path id="Vector_137" d="M3023.02 108.179C3022.63 108.592 3022.04 109.232 3021.36 110.042C3019.05 112.769 3017.42 114.746 3016.72 117.552C3016.55 118.236 3016.35 119.279 3016.38 120.616C3015.23 118.792 3014.11 117.416 3013.26 116.469C3012.53 115.652 3011.98 115.042 3011.1 114.312C3009.86 113.292 3008.48 112.492 3007.01 111.839C3006.23 111.492 3005.44 111.166 3004.65 110.849C3004.47 110.776 3004.33 110.772 3004.22 110.986C3003.75 111.912 3003.26 112.829 3002.77 113.752C3002.4 114.459 3002.02 115.166 3001.65 115.872C3002.26 116.009 3002.88 116.146 3003.49 116.299C3004.36 116.519 3005.24 116.749 3006.1 117.019C3006.76 117.226 3007.43 117.419 3008.08 117.642C3009.49 118.122 3010.89 118.652 3012.24 119.282C3013.22 119.739 3014.2 120.209 3015.09 120.836C3015.78 121.322 3016.37 121.896 3016.87 122.576C3016.91 122.629 3016.94 122.739 3017.03 122.702C3017.03 122.702 3017.03 122.702 3017.03 122.706C3017.31 123.186 3017.59 123.666 3017.89 124.182C3017.97 123.342 3018.05 122.552 3018.13 121.766C3018.24 121.716 3018.22 121.589 3018.23 121.496C3018.4 120.132 3018.64 118.779 3018.93 117.439C3019.28 115.866 3019.77 114.332 3020.49 112.876C3020.58 112.652 3020.73 112.446 3020.83 112.222C3021.58 110.742 3022.47 109.342 3023.43 107.996C3023.45 107.972 3023.49 107.902 3023.55 107.809C3023.76 107.479 3023.96 107.209 3024.1 107.016C3023.87 107.269 3023.49 107.676 3023.03 108.179H3023.02Z" fill="#F6F6DE" stroke="black" stroke-miterlimit="10"></path><path id="Vector_138" d="M3015.53 122.765C3015.4 122.669 3015.25 122.585 3015.09 122.525C3015.04 122.515 3014.99 122.505 3014.94 122.492C3014.91 122.472 3014.89 122.452 3014.86 122.439C3013.67 121.799 3012.43 121.302 3011.14 120.915C3010.27 120.655 3009.4 120.425 3008.5 120.272C3007.23 120.055 3005.96 119.912 3004.68 119.812C3004.33 119.785 3003.99 119.759 3003.65 119.732C3003.66 119.752 3003.66 119.769 3003.67 119.789C3003.38 119.699 3003.1 119.665 3002.81 119.765C3002.8 119.809 3002.8 119.859 3002.78 119.895C3002.57 120.335 3002.38 120.789 3002.19 121.239C3001.75 122.249 3001.43 123.295 3001.11 124.342C3000.79 125.392 3000.55 126.469 3000.3 127.539C3000.28 127.609 3000.26 127.675 3000.3 127.745C3000.39 127.785 3000.48 127.765 3000.55 127.715C3000.77 127.575 3001.02 127.505 3001.25 127.392C3002.17 126.939 3003.1 126.512 3004.03 126.079C3005.08 125.595 3006.12 125.122 3007.18 124.675C3008.6 124.075 3010.04 123.532 3011.54 123.142C3012.57 122.872 3013.61 122.675 3014.69 122.825C3014.94 122.862 3015.19 122.939 3015.44 123.002C3015.52 123.022 3015.64 123.065 3015.68 122.979C3015.73 122.869 3015.61 122.812 3015.54 122.759L3015.53 122.765Z" fill="#F6F6DE" stroke="black" stroke-miterlimit="10"></path><path id="Vector_139" d="M3017.47 124.586C3017.35 124.429 3017.24 124.266 3017.06 124.159C3017 124.133 3016.95 124.093 3016.89 124.056C3016.28 123.383 3015.48 123.046 3014.59 122.896C3013.81 122.766 3013.04 122.879 3012.27 123.029C3010.69 123.336 3009.19 123.879 3007.71 124.486C3006.94 124.803 3006.17 125.136 3005.41 125.499C3004.63 125.876 3003.84 126.223 3003.06 126.583C3002.76 126.743 3002.43 126.843 3002.15 127.039C3002.15 127.039 3002.15 127.043 3002.15 127.046C3002.14 127.039 3002.13 127.033 3002.12 127.026C3001.88 127.066 3001.68 127.193 3001.46 127.279C3001.35 127.323 3001.23 127.353 3001.18 127.489C3001.21 127.539 3001.21 127.589 3001.19 127.643C3000.93 128.666 3000.74 129.702 3000.53 130.739C3000.33 131.689 3000.13 132.636 2999.98 133.592C3000.8 132.989 3001.57 132.326 3002.33 131.656C3003.66 130.489 3004.95 129.292 3006.27 128.116C3007.17 127.309 3008.12 126.559 3009.13 125.893C3010 125.323 3010.92 124.843 3011.89 124.466C3012.85 124.089 3013.85 123.869 3014.9 123.993C3015.77 124.096 3016.59 124.349 3017.29 124.909C3017.39 124.989 3017.46 124.923 3017.52 124.853C3017.57 124.753 3017.54 124.666 3017.47 124.589V124.586Z" fill="#F6F6DE" stroke="black" stroke-miterlimit="10"></path><path id="Vector_140" d="M3017.3 123.409C3017.25 123.352 3017.19 123.295 3017.14 123.239C3016.64 122.355 3015.97 121.622 3015.15 121.012C3013.94 120.105 3012.56 119.525 3011.19 118.935C3010.07 118.452 3008.93 118.009 3007.77 117.619C3006.76 117.279 3005.74 116.939 3004.7 116.682C3004.33 116.572 3003.95 116.455 3003.56 116.389C3003.56 116.382 3003.56 116.372 3003.56 116.365C3003.23 116.182 3002.86 116.149 3002.49 116.115C3002.48 116.115 3002.48 116.129 3002.47 116.135C3002.47 116.209 3002.45 116.275 3002.42 116.335C3001.79 117.359 3001.3 118.452 3000.82 119.549C3000.95 119.612 3001.08 119.602 3001.21 119.609C3003.38 119.695 3005.55 119.809 3007.71 120.082C3009.12 120.262 3010.5 120.589 3011.84 121.049C3013.18 121.509 3014.49 122.072 3015.7 122.819C3016.44 123.275 3017.15 123.775 3017.63 124.532C3017.68 124.609 3017.73 124.715 3017.86 124.642C3017.92 124.545 3017.86 124.455 3017.83 124.369C3017.71 124.019 3017.51 123.709 3017.3 123.405V123.409Z" fill="#F6F6DE" stroke="black" stroke-miterlimit="10"></path><path id="Vector_141" d="M3033.18 113.997C3031.87 113.367 3030.55 112.751 3029.26 112.094C3028.86 111.894 3028.51 111.884 3028.11 112.004C3027.07 112.307 3026.04 112.654 3025.03 113.047C3024.45 113.274 3023.86 113.484 3023.31 113.774C3022.53 114.187 3021.75 114.61 3021.07 115.18C3020.33 115.787 3019.68 116.464 3019.18 117.27C3019.14 117.337 3018.94 117.767 3018.93 117.78C3018.91 117.864 3018.88 117.947 3018.86 118.034C3018.73 118.774 3018.59 119.514 3018.47 120.257C3018.34 121.174 3018.21 122.094 3018.17 123.024C3018.08 123.554 3018.05 124.087 3018.06 124.624C3018.1 124.64 3018.14 124.624 3018.16 124.587C3018.18 124.457 3018.17 124.324 3018.2 124.194C3018.41 123.247 3018.79 122.374 3019.35 121.574C3020.15 120.44 3021.16 119.544 3022.3 118.774C3022.6 118.55 3022.92 118.364 3023.27 118.21C3023.75 117.927 3024.26 117.71 3024.75 117.46C3025.76 116.957 3026.83 116.634 3027.87 116.237C3028.37 116.047 3028.9 115.94 3029.39 115.704C3029.62 115.67 3029.83 115.55 3030.06 115.474C3031.19 115.074 3032.31 114.644 3033.42 114.154C3033.35 114.074 3033.26 114.037 3033.18 113.994L3033.18 113.997Z" fill="#F5F6DE" stroke="black" stroke-miterlimit="10"></path><path id="Vector_142" d="M3014.04 127.649C3013.81 127.859 3013.48 127.879 3013.22 128.029C3013.14 128.076 3013.05 128.106 3012.96 128.146C3013 127.953 3013.14 127.806 3013.21 127.626C3013.26 127.513 3013.35 127.549 3013.44 127.559C3013.64 127.586 3013.84 127.619 3014.04 127.649Z" fill="#CDAF95"></path></g><g id="Group_49"><path id="Vector_143" d="M2900.31 91.7017C2899.77 102.345 2902.87 112.178 2902.87 112.178C2902.87 112.178 2911.76 96.5516 2911.76 94.8016C2911.76 93.0517 2910.14 88.8751 2910.14 88.8751L2900.31 91.705V91.7017Z" fill="#FFBE83" stroke="black" stroke-miterlimit="10"></path><path id="Vector_144" d="M2969.95 78.6362L2975.48 87.5261L2966.99 97.3592C2966.99 97.3592 2957.29 96.5526 2957.02 96.1459C2956.75 95.7393 2956.08 84.2928 2956.75 83.8861C2957.42 83.4794 2969.95 78.6328 2969.95 78.6328V78.6362Z" fill="#FF7557"></path><path id="Vector_145" d="M2926.04 120.396C2912.43 128.343 2909.87 146.126 2909.87 146.126H2972.24C2972.78 130.77 2962.14 118.78 2962.14 118.78L2926.04 120.396Z" fill="#0C3E87" stroke="black" stroke-miterlimit="10"></path><path id="Vector_146" d="M2932.81 59.5063C2914.99 60.9896 2910.01 66.5128 2907.45 71.4961C2904.89 76.4794 2898.56 93.1858 2898.56 93.1858L2914.05 94.5324L2920.92 100.056C2926.98 109.889 2926.04 120.399 2926.04 120.399H2964.03L2968.34 98.979C2967.4 94.9391 2962.28 87.2592 2962.28 87.2592L2972.51 79.8493C2968.61 72.0361 2957.75 60.9396 2950.18 58.6063C2942.61 56.273 2932.81 59.5063 2932.81 59.5063Z" fill="url(#paint54_linear_36_1659)" stroke="black" stroke-miterlimit="10"></path><path id="Vector_147" d="M2972.62 77.3672C2973.53 75.7505 2974.18 73.4772 2977.67 73.5272C2981.16 73.5772 2981.05 79.7405 2981.05 79.7405C2981.05 79.7405 2976.86 80.0938 2976.51 79.9438C2976.15 79.7938 2971.3 80.0438 2972.62 77.3672Z" fill="#FFF5ED" stroke="black" stroke-miterlimit="10"></path><path id="Vector_148" d="M2942.1 14.547C2946.95 15.457 2952.3 14.0404 2958.47 15.0537C2964.63 16.0637 2964.43 23.9436 2962.1 26.7735C2964.53 30.3101 2958.57 35.3601 2961.5 39.7067C2964.43 44.0499 2964.33 52.4365 2962.2 48.0932C2961.29 53.6498 2957.25 60.0164 2953.62 57.0864C2950.08 57.8931 2943.11 57.8931 2943.11 57.8931C2943.11 57.8931 2931.29 58.4997 2929.98 58.6997C2925.43 58.903 2924.83 54.8598 2924.83 54.8598C2920.79 57.7897 2919.37 54.3531 2919.37 54.3531C2915.73 53.1398 2916.54 48.8965 2917.45 47.3832C2913 51.5265 2914.01 55.7698 2911.19 53.3431C2908.36 50.9198 2909.87 40.31 2918.36 36.1667C2913.31 36.47 2916.04 31.9234 2921.19 29.5001C2926.34 27.0768 2929.47 21.7203 2932.51 18.587C2935.54 15.4537 2936.95 14.0404 2942.11 14.547H2942.1Z" fill="url(#paint55_linear_36_1659)"></path><path id="Vector_149" d="M2950.18 58.6068C2945.38 57.3368 2946.26 54.3035 2947.26 51.2269C2953.29 52.2702 2956.61 48.1703 2957.58 45.8336C2958.56 43.4703 2958.54 39.7471 2959.58 34.6571C2960.62 29.5672 2959.28 26.8106 2956.66 22.3806C2948.28 19.974 2945.11 26.6939 2944.38 31.0905C2943.65 35.4871 2942.15 37.8838 2939.05 36.5404C2938.33 44.907 2934.56 57.2868 2932.81 59.5101C2939.72 77.7298 2951.59 73.2666 2950.18 58.6101L2950.18 58.6068Z" fill="#FFBE83" stroke="black" stroke-miterlimit="10"></path><path id="Vector_150" d="M2953.78 42.204C2953.73 42.1973 2953.68 42.1673 2953.65 42.1207C2953.61 42.0407 2953.63 41.934 2953.72 41.8873C2954.69 41.3274 2955.79 40.624 2956.04 40.3574C2955.9 40.304 2955.58 40.2474 2955.33 40.2074C2954.72 40.104 2954.04 39.9874 2953.67 39.6974C2952.84 39.0574 2954.28 35.3874 2955.35 33.7241C2955.4 33.6441 2955.5 33.6208 2955.58 33.6708C2955.66 33.7208 2955.68 33.8275 2955.63 33.9041C2954.4 35.8408 2953.38 39.0407 2953.88 39.4274C2954.18 39.664 2954.85 39.7774 2955.39 39.8707C2956.06 39.984 2956.47 40.054 2956.43 40.364C2956.38 40.684 2955.02 41.5274 2953.89 42.1773C2953.86 42.1973 2953.82 42.204 2953.78 42.1973L2953.78 42.204Z" fill="#2B1710"></path><path id="Vector_151" d="M2949.52 35.7978C2949.37 36.7978 2948.79 37.5378 2948.23 37.4511C2947.66 37.3678 2947.33 36.4878 2947.48 35.4878C2947.63 34.4879 2948.21 33.7479 2948.77 33.8345C2949.34 33.9179 2949.67 34.7979 2949.52 35.7978Z" fill="#2B1710"></path><g id="Group_50"><path id="Vector_152" d="M2947.9 38.0309C2947.55 37.9775 2946.8 37.7109 2946.74 36.3942C2946.74 36.3476 2946.78 36.3076 2946.82 36.3042C2946.87 36.3042 2946.91 36.3376 2946.91 36.3842C2946.97 37.6642 2947.7 37.8509 2948.01 37.8709C2948.06 37.8709 2948.09 37.9142 2948.09 37.9609C2948.09 38.0075 2948.05 38.0442 2948 38.0409C2947.97 38.0409 2947.94 38.0375 2947.9 38.0309Z" fill="#E0B3A8"></path></g><path id="Vector_153" d="M2957.2 37.1777C2957.05 38.1777 2956.47 38.9177 2955.91 38.831C2955.35 38.7477 2955.01 37.8677 2955.16 36.8677C2955.31 35.8677 2955.89 35.1278 2956.46 35.2144C2957.02 35.2977 2957.35 36.1777 2957.2 37.1777Z" fill="#2B1710"></path><path id="Vector_154" d="M2947.83 43.8221C2951.91 43.2055 2955.67 43.8155 2955.19 44.7688C2955.05 47.2454 2950.48 49.1921 2947.83 43.8221Z" fill="#F05E3E" stroke="black" stroke-miterlimit="10"></path><g id="Group_51"><path id="Vector_155" d="M2939.87 38.46C2940.14 37.1463 2939.29 35.8664 2937.97 35.6015C2936.66 35.3366 2935.38 36.187 2935.11 37.5007C2934.85 38.8145 2935.7 40.0942 2937.01 40.3591C2938.33 40.624 2939.61 39.7738 2939.87 38.46Z" fill="#FFBE83"></path></g><path id="Vector_156" d="M2950.23 32.3802C2949.02 32.1869 2947.98 32.2702 2947.12 32.5402C2946.76 32.6569 2946.49 32.2036 2946.76 31.9302C2948.75 29.9336 2951.08 30.3836 2950.65 32.1069C2950.6 32.2936 2950.42 32.4102 2950.23 32.3802Z" fill="#2B1710"></path><path id="Vector_157" d="M2956.69 33.3202C2957.64 33.4836 2958.42 33.8202 2959.01 34.2569C2959.26 34.4436 2959.56 34.1602 2959.41 33.8736C2958.34 31.8003 2956.47 31.5403 2956.43 32.9969C2956.42 33.1536 2956.54 33.2936 2956.69 33.3202Z" fill="#2B1710"></path><path id="Vector_158" d="M2952.1 45.4236C2950.21 45.1402 2948.2 44.4069 2947.33 43.7036C2947.26 43.6469 2947.25 43.5436 2947.31 43.4736C2947.36 43.4036 2947.47 43.3936 2947.54 43.4503C2948.7 44.3969 2952.16 45.4102 2954.22 45.1902C2954.82 45.1269 2955.25 44.9569 2955.45 44.7036C2955.51 44.6336 2955.61 44.6236 2955.68 44.6802C2955.75 44.7369 2955.76 44.8402 2955.7 44.9102C2955.44 45.2402 2954.95 45.4436 2954.25 45.5169C2953.62 45.5836 2952.87 45.5436 2952.1 45.4269V45.4236Z" fill="#2B1710"></path><path id="Vector_159" d="M2948.25 41.4462C2948.02 41.4462 2947.78 41.4262 2947.54 41.3862C2945.23 40.9862 2943.69 38.7263 2944.11 36.3496C2944.52 33.973 2946.73 32.3697 2949.04 32.7697C2950.16 32.963 2951.13 33.5963 2951.78 34.5463C2952.43 35.4963 2952.67 36.653 2952.47 37.8029C2952.1 39.9329 2950.28 41.4429 2948.25 41.4429V41.4462ZM2948.33 32.9663C2946.42 32.9663 2944.71 34.3897 2944.36 36.393C2943.97 38.6296 2945.42 40.7529 2947.58 41.1296C2949.75 41.5062 2951.83 39.9962 2952.22 37.7596C2952.41 36.6763 2952.17 35.5863 2951.56 34.693C2950.95 33.7997 2950.04 33.2063 2948.99 33.023C2948.77 32.983 2948.55 32.9663 2948.33 32.9663H2948.33Z" fill="#2B1710"></path><path id="Vector_160" d="M2958.25 43.1655C2958.02 43.1655 2957.78 43.1455 2957.54 43.1055C2956.49 42.9222 2955.55 42.3422 2954.91 41.4722L2955.11 41.3189C2955.72 42.1356 2956.6 42.6789 2957.58 42.8522C2959.75 43.2289 2961.83 41.7189 2962.22 39.4823C2962.61 37.2456 2961.16 35.1223 2958.99 34.7457C2956.83 34.369 2954.75 35.879 2954.36 38.1156C2954.27 38.6456 2954.28 39.1789 2954.39 39.6989L2954.13 39.7523C2954.02 39.1989 2954.01 38.6356 2954.11 38.0723C2954.52 35.6957 2956.73 34.0923 2959.04 34.4923C2961.34 34.8923 2962.88 37.1523 2962.47 39.5289C2962.1 41.6589 2960.28 43.1689 2958.25 43.1689L2958.25 43.1655Z" fill="#2B1710"></path><path id="Vector_161" d="M2952.4 37.8947L2952.36 38.1475L2954.26 38.4845L2954.31 38.2318L2952.4 37.8947Z" fill="#2B1710"></path><path id="Vector_162" d="M2938.1 34.4195L2938.05 34.6714L2944.26 35.8835L2944.31 35.6316L2938.1 34.4195Z" fill="#2B1710"></path><g id="Group_52"><path id="Vector_163" d="M2931.34 46.8979C2933.39 42.4979 2927.98 42.4346 2929.38 39.338C2930.77 36.238 2932.56 34.3447 2935.97 33.3247C2939.39 32.2981 2940.76 32.0381 2941.24 32.5314C2941.71 33.0247 2940.87 33.5914 2938.61 34.3247C2936.34 35.058 2933.96 37.9813 2934.69 39.9646C2935.43 41.9479 2936.9 42.3746 2938.5 41.0113C2940.11 39.648 2941.21 39.768 2941.62 40.3513C2942.03 40.9346 2940.69 41.9346 2939.09 43.0546C2937.48 44.1746 2935.15 47.4112 2935.18 50.6612L2931.34 46.8979H2931.34Z" fill="#FFBE83"></path><path id="Vector_164" d="M2932.49 32.9014C2931.69 31.9214 2930.17 33.6747 2929.64 36.3713C2929.11 39.0679 2929.09 41.0546 2929.09 41.0546C2929.09 41.0546 2930.83 40.2313 2930.89 40.0979C2930.95 39.9646 2932.49 32.9014 2932.49 32.9014H2932.49Z" fill="#FFBE83"></path><path id="Vector_165" d="M2934.17 31.2849C2933.57 30.4949 2932.45 31.6915 2931.69 33.4982C2931.2 34.6748 2930.85 36.1081 2930.9 37.4248C2932.52 37.3348 2934.17 31.2882 2934.17 31.2882V31.2849Z" fill="#FFBE83"></path><path id="Vector_166" d="M2935.22 50.0651C2935.17 48.7651 2936.27 47.3351 2936.22 45.5285C2936.17 43.7218 2935.53 42.5818 2934.9 41.0419C2934.28 39.5019 2934.42 35.2619 2934.94 34.1586C2935.29 32.2787 2937.82 29.4154 2937.27 29.0554C2936.71 28.6954 2932.47 31.6753 2931.6 35.5819C2928.4 39.9985 2929.11 39.3919 2928.45 42.3185C2927.8 45.2451 2925.98 53.3817 2925.98 53.3817C2920.91 67.0548 2902.86 96.5577 2901.92 105.178C2900.97 113.801 2903.53 122.961 2910.94 122.554C2918.35 122.151 2924.15 117.301 2926.03 104.908C2927.92 92.5145 2932.27 55.7083 2935.21 50.0651H2935.22Z" fill="#FFBE83" stroke="black" stroke-miterlimit="10"></path></g><g id="Group_53"><path id="Vector_167" d="M2993.42 93.0489C2998.68 101.739 2996.96 111.842 2996.25 112.952C2995.55 114.062 2987.36 112.245 2986.96 111.235C2986.55 110.225 2983.93 105.882 2983.82 104.365C2983.72 102.849 2993.42 93.0489 2993.42 93.0489Z" fill="#FFBE83" stroke="black" stroke-miterlimit="10"></path><path id="Vector_168" d="M2974.47 123.899H2942.81L2971.1 77.4234H3002.76L2974.47 123.899Z" fill="#3379A0" stroke="black" stroke-miterlimit="10"></path><path id="Vector_169" d="M2976.02 123.899H2944.36L2972.65 77.4234H3004.31L2976.02 123.899Z" fill="#73C3F9" stroke="black" stroke-miterlimit="10"></path><path id="Vector_170" d="M3000.66 73.5504H2977.16C2980.7 75.267 2977.16 80.2203 2974.43 85.1702C2971.71 90.1201 2970.9 93.6568 2972.82 98.1034H2996.31C2994.39 93.6568 2995.2 90.1201 2997.93 85.1702C3000.66 80.2203 3004.19 75.2704 3000.66 73.5504Z" fill="white" stroke="black" stroke-miterlimit="10"></path><path id="Vector_171" d="M2996.09 105.982C2985.18 104.232 2980.73 106.115 2973.05 107.195C2965.37 108.272 2964.7 102.346 2962.01 100.866C2959.31 99.3822 2956.62 93.859 2956.62 93.859C2955.27 94.6656 2954.87 96.4189 2955.4 98.0356C2955.94 99.6522 2957.56 99.7856 2954.6 100.596C2951.63 101.402 2943.28 103.156 2944.49 105.175C2945.71 107.195 2947.86 108.005 2947.32 109.215C2946.79 110.425 2947.05 111.775 2947.73 113.122C2948.4 114.469 2946.38 115.545 2949.21 116.222C2952.04 116.895 2954.87 116.355 2960.66 115.682C2966.45 115.009 2974.8 119.722 2982.89 120.665C2990.97 121.609 2998.78 116.759 2996.09 105.982Z" fill="#FFBE83" stroke="black" stroke-miterlimit="10"></path></g><path id="Vector_172" d="M2945.96 30.394C2944.75 30.394 2943.5 30.2507 2942.24 29.954C2942.1 29.9207 2942.02 29.7807 2942.05 29.644C2942.08 29.504 2942.22 29.4207 2942.36 29.4507C2946.15 30.3474 2949.92 29.8174 2952.45 28.0341C2954.15 26.8374 2955.16 25.1508 2955.38 23.1575C2955.4 23.0141 2955.52 22.9141 2955.66 22.9275C2955.81 22.9441 2955.91 23.0708 2955.89 23.2108C2955.66 25.3541 2954.57 27.1674 2952.75 28.454C2950.94 29.7274 2948.54 30.394 2945.95 30.394H2945.96Z" fill="#2B1710"></path><path id="Vector_173" d="M2914.82 36.4262C2914.76 36.4262 2914.69 36.3996 2914.64 36.3462C2913.49 35.1663 2913.11 33.7529 2913.56 32.373C2914.19 30.4597 2916.3 28.8763 2918.82 28.4363C2922.95 27.713 2925.79 26.343 2931.71 20.1265C2931.81 20.0231 2931.97 20.0198 2932.08 20.1165C2932.18 20.2165 2932.18 20.3798 2932.09 20.4831C2926.1 26.7664 2923.07 28.2164 2918.91 28.9463C2916.57 29.3563 2914.62 30.7963 2914.05 32.5363C2913.66 33.7429 2913.99 34.9363 2915.01 35.9896C2915.11 36.0929 2915.11 36.2562 2915 36.3562C2914.95 36.4062 2914.89 36.4296 2914.82 36.4296V36.4262Z" fill="url(#paint56_linear_36_1659)"></path><path id="Vector_174" d="M2963.62 50.37C2963.49 50.37 2963.38 50.2666 2963.37 50.13C2963.36 49.9866 2963.46 49.8633 2963.61 49.8533C2964.38 49.7966 2964.96 49.3967 2965.28 48.7C2966.05 47.0667 2965.35 44.3501 2963.52 41.7768C2961.15 38.4701 2961.37 35.3602 2961.56 32.6169C2961.62 31.7736 2961.67 30.9736 2961.65 30.2169C2961.65 30.0736 2961.76 29.9536 2961.9 29.9503C2962.04 29.9469 2962.16 30.0569 2962.17 30.2003C2962.19 30.9836 2962.13 31.7936 2962.08 32.6536C2961.89 35.3102 2961.68 38.3202 2963.94 41.4768C2965.89 44.2001 2966.6 47.1234 2965.75 48.92C2965.35 49.7833 2964.6 50.3 2963.65 50.37C2963.64 50.37 2963.63 50.37 2963.63 50.37H2963.62Z" fill="url(#paint57_linear_36_1659)"></path><path id="Vector_175" d="M2963.02 16.1208C2962.94 16.1208 2962.87 16.0908 2962.82 16.0341C2959.6 12.3708 2955.58 13.5475 2951.31 14.7974C2949.01 15.4708 2946.63 16.1674 2944.41 16.0208C2944.27 16.0108 2944.16 15.8874 2944.17 15.7474C2944.18 15.6041 2944.3 15.4974 2944.44 15.5074C2946.58 15.6474 2948.91 14.9641 2951.17 14.3041C2955.4 13.0675 2959.77 11.7842 2963.21 15.6974C2963.31 15.8041 2963.3 15.9674 2963.19 16.0608C2963.14 16.1041 2963.08 16.1241 2963.02 16.1241L2963.02 16.1208Z" fill="url(#paint58_linear_36_1659)"></path><path id="Vector_176" d="M2909.67 53.1997C2909.6 53.1997 2909.52 53.1664 2909.47 53.1064C2908.29 51.6864 2907.81 50.2231 2907.98 48.6365C2908.29 45.8232 2910.74 42.6699 2915.47 38.9966C2915.58 38.9099 2915.74 38.9299 2915.83 39.0433C2915.92 39.1566 2915.9 39.3166 2915.79 39.4066C2911.17 42.9899 2908.78 46.0298 2908.49 48.6965C2908.33 50.1365 2908.78 51.4731 2909.86 52.7798C2909.95 52.8897 2909.94 53.0531 2909.83 53.1431C2909.78 53.1831 2909.72 53.2031 2909.67 53.2031L2909.67 53.1997Z" fill="url(#paint59_linear_36_1659)"></path></g><g id="Group_54"><path id="Vector_177" d="M2957.14 79.9142C2957.15 80.0342 2957.17 80.1575 2957.15 80.2742C2957.08 80.6775 2956.75 80.9275 2956.34 80.9075C2955.98 80.8909 2955.68 80.6109 2955.63 80.2475C2955.62 80.1575 2955.61 80.0675 2955.6 79.9809L2955.01 74.6776L2952.94 74.9043L2953.53 80.1842C2953.54 80.2842 2953.55 80.3875 2953.56 80.4875C2953.58 80.7109 2953.51 80.9075 2953.38 81.0842C2953.32 81.1608 2953.25 81.2108 2953.15 81.2375C2952.99 81.2875 2952.82 81.2975 2952.64 81.2908C2952.51 81.2842 2952.4 81.2375 2952.31 81.1475C2952.16 80.9975 2952.04 80.8242 2952.03 80.6042C2952.02 80.5175 2952.01 80.4309 2952 80.3409L2951.42 75.0743L2949.34 75.3043L2949.91 80.5509C2949.93 80.6375 2949.93 80.7275 2949.96 80.8075C2950 80.9142 2950.05 81.0175 2950.11 81.1208C2950.36 81.5708 2950.7 81.9308 2951.18 82.1308C2951.49 82.2575 2951.81 82.3342 2952.14 82.3942C2952.61 82.4808 2953.07 82.3942 2953.52 82.3075C2953.93 82.2308 2954.3 82.0508 2954.61 81.7842C2954.7 81.7142 2954.76 81.7042 2954.86 81.7575C2954.97 81.8208 2955.09 81.8808 2955.21 81.9108C2955.66 82.0142 2956.12 82.0708 2956.58 82.0008C2956.81 81.9575 2957.05 81.9242 2957.28 81.8675C2957.62 81.7875 2957.91 81.6075 2958.2 81.4208C2958.66 81.1208 2959.04 80.6575 2959.17 80.1142C2959.18 80.0742 2959.19 80.0309 2959.2 79.9875C2959.23 79.7775 2959.24 79.5675 2959.21 79.3542L2958.53 73.3043L2956.43 73.5343L2957.14 79.9109L2957.14 79.9142Z" fill="white" stroke="black" stroke-miterlimit="10"></path><path id="Vector_178" d="M2957.16 72.2425C2957.74 72.2425 2958.21 71.7709 2958.21 71.1892C2958.21 70.6074 2957.74 70.1358 2957.16 70.1358C2956.58 70.1358 2956.1 70.6074 2956.1 71.1892C2956.1 71.7709 2956.58 72.2425 2957.16 72.2425Z" fill="white" stroke="black" stroke-miterlimit="10"></path></g><path id="Vector_179" d="M3001.09 146.2H2864.95C2863.63 146.2 2862.55 147.274 2862.55 148.6C2862.55 149.925 2863.63 151 2864.95 151H3001.09C3002.42 151 3003.49 149.925 3003.49 148.6C3003.49 147.274 3002.42 146.2 3001.09 146.2Z" fill="#AACFE3" stroke="black" stroke-miterlimit="10"></path></g></svg>