<svg xmlns="http://www.w3.org/2000/svg" viewBox="999.568 466.542 82.952 90.011"><path fill="#FFBE83" d="M1073.4 550.913c-6.33-.126-5.85-3.52-4.71-3.74 1.15-.22 3.3-1.67 3.3-1.67l1.41 5.41Z"/><path d="m1070.13 546.583.41-.267 1.11 4.917-1.52-4.65Z"/><path fill="#FFBE83" d="M1001.35 489.217c.17-.253 18.21-21.59 20.16-19.856 1.94 1.73-11.41 22.39-11.41 22.39l9.39-1.164 2.7 11.02s-30.14 1.01-20.84-12.386v-.004Z"/><path d="M1008.35 493.456c.02-.023 6.53-2.303 6.53-2.303l-4.78.587 1.71-2.697-3.46 4.413Z"/><path fill="#FFBE83" d="M1018.52 470.866s-11.35-.06-11.35-1.014c0-.953 2.34-.73 2.34-.73s-2.84-.18-2.35-.913c.49-.733 3.08-.537 3.08-.537s-1.72-.403-.95-.85c.78-.446 13.81-.54 14.44 1.104.63 1.643-4.63 8.61-4.63 8.61"/><path fill="#FFBE83" d="M1019.97 469.239s-7.93-.066-7.23 1.01c.7 1.077 6.04 1.14 6.04 1.14"/><path fill="#0C3E87" d="M1036.9 519.412s-25.26 19.74-19.54 29.443c5.72 9.707 55.05 4.697 55.05 4.697l-4.44-13.587-24.51-1.636 9.46-8.944s-3.5-14.153-16.02-9.973Z"/><path fill="url(#paint90_linear_36_1659)" d="M1019.49 490.582s24.71-3.007 31.48-2.98c6.78.026 11.78 2.25 15.51 8.666l-8.33 2.737 7.01 18.204s-25.83 7.716-28.26 2.206c-2.43-5.51-.96-10.663-2.51-13.953-1.54-3.294-3.09-3.314-4.67-3.324-1.59-.01-7.54-.53-7.54-.53l-2.7-11.023.01-.003Z"/><path d="m1058.15 499.002-2.76-5.96 4.25 5.47-1.49.49Zm-14.69 39.328-12.78 1.113 16.81-4.92-4.03 3.807Z"/><path fill="#FFBE83" d="M1034.51 488.888s2.32 1.943 5.78.323c0 0 .93-.593 1.09-.997.16-.403-4.3-6.533-4.78-6.456-.49.076-4.71 1.066-2.97 3.216 1.74 2.15 1.59 3.377.88 3.914Z"/><path fill="#0C3E87" d="M1070.36 543.273s-17.87 2.576-19.39.94c-1.51-1.637-15.91-45.571-2.12-44.834 13.79.737 28.61 26.504 28.99 31.5.39 4.994-.96 8.16-7.93 9.077l.45 3.317Z"/><path d="m1071.36 539.722-1.45.24s-7.23-27.153-10.49-27.953c0 0 1.36-.62 3.56 3.67 2.19 4.29 8.38 24.047 8.38 24.047v-.004Z"/><path fill="#FFBE83" d="M1066.48 496.266s13.41 16.587 7.06 19.133c-6.35 2.547-14.4-16.433-21.97-14.726-7.57 1.706-8.37-1.127-6.51-2.667 1.87-1.54 9.82-3.413 16.48-.123l4.94-1.62v.003Z"/><path d="M1061.54 497.889s8.67 4.223 9.88 5.37l-.63-.993s-7.24-4.254-9.25-4.374v-.003Z"/><path fill="#FFBE83" d="M1044.54 498.569s-4.83 2.163-4.08 2.946c.75.784 4.03-.323 4.52-1.12m.41-.646s-1.63 6.75-.12 7.067c1.52.317 1.08-2.977 1.08-2.977s-.29 3.51 1.05 2.917.73-3.09.73-3.09.39 3.667 1.34 2.843c.95-.823.48-6.366 1.36-6.333m-16.07-16.007c-2.06.39-5.24 1.21-5.79-2.193-.55-3.404 7.1-6.36 7.1-6.36 2.89-1.024 5.05 1.053 5.55 2.986.49 1.934-2.04 2.974-2.04 2.974s1.03.236 1.06.996c.02.76-2.46 1.214-2.9 0l-.65.52"/><path fill="url(#paint91_linear_36_1659)" d="M1035.67 476.717c-1.19-.747-3.21-6.193.54-8.23 3.75-2.037 2.49 2.293 4.27 4.527 1.78 2.23 3.92-.607 5.82 2.11 1.91 2.716-1.45 9.51-4.54 7.613-3.09-1.897-1.25-4.733-3.34-5.54-2.09-.81-1.11.547-2.75-.477v-.003Z"/><path fill="url(#paint92_linear_36_1659)" d="M1033.46 477.89c1.21-.85 1.76-2.14 1.24-2.881-.52-.741-1.92-.652-3.13.198-1.21.851-1.77 2.141-1.25 2.882.53.74 1.93.652 3.14-.199Z"/><path fill="url(#paint93_linear_36_1659)" d="M1036.85 480.816c1.21-.857 1.77-2.154 1.25-2.896-.53-.743-1.94-.65-3.15.207s-1.77 2.153-1.24 2.896c.52.742 1.93.65 3.14-.207Z"/><path fill="#FFBE83" d="m1032.32 478.721-1.92-.1.17 1.326"/><path d="M1034.44 486.136c.05-.017 3.52-1.217 3.15-3.44l-4.29 1.74 1.14 1.7Z"/><path fill="#FFBE83" d="m1056.21 544.756 1.02 4.646s1.22 2.13 2.43 1.997c1.21-.133 3.36-1.633 3.36-1.633l-1.13-3.267-.58-2.163-5.1.42Z"/><path fill="#362B6E" d="M1063.02 549.767s-3.72 1.977-5.79-.36l-8.95 5.777 16.32-1.697-1.58-3.72Z"/><path fill="#fff" d="m1064.75 554.857-.15-1.37-16.32 1.696.14 1.37 16.33-1.696Zm-7.33-3.411c-.39-.426-.85-.79-1.35-1.076a.257.257 0 0 1-.13-.147.26.26 0 0 1 .02-.193.28.28 0 0 1 .36-.107c.56.31 1.06.713 1.49 1.187.05.05.07.116.07.183a.28.28 0 0 1-.09.173.279.279 0 0 1-.26.05.357.357 0 0 1-.12-.07h.01Zm-.95.76a.246.246 0 0 1-.12-.074c-.39-.426-.84-.79-1.35-1.076a.241.241 0 0 1-.12-.147.22.22 0 0 1 .02-.193c.07-.124.23-.17.35-.104.56.31 1.07.71 1.5 1.187.04.05.07.117.06.183 0 .067-.04.13-.09.174a.291.291 0 0 1-.26.053l.01-.003Z"/><path d="m1056.21 544.756 5.64 1.56-.53-1.98-5.11.42Z"/><path fill="#362B6E" d="m1073.4 550.912 2.53.274 5.77 3.833-5.3-7.247-1-4.173-3.41 1.903 1.41 5.41Z"/><path fill="#fff" d="m1076.85 543.299.91 4.003 4.76 7.12-.82.597-5.3-7.247-1-4.173 1.45-.3Zm-2.09 7.862a5.823 5.823 0 0 0-.19-1.714.258.258 0 0 1 .01-.193.26.26 0 0 1 .15-.123.28.28 0 0 1 .33.18c.17.616.25 1.256.21 1.893 0 .067-.03.13-.08.177a.248.248 0 0 1-.19.06.267.267 0 0 1-.21-.144c-.03-.04-.04-.086-.03-.133v-.003Zm-.85-.094a5.5 5.5 0 0 0-.18-1.714.218.218 0 0 1 .01-.193.26.26 0 0 1 .15-.123.28.28 0 0 1 .33.18c.17.617.24 1.257.21 1.893a.24.24 0 0 1-.27.237.292.292 0 0 1-.22-.143.303.303 0 0 1-.03-.134v-.003Z"/><path fill="#FCDA69" d="M1037.06 478.543c-.66.437-.72 1.18-.14 1.664-.59-.484-1.59-.52-2.25-.087.66-.437.72-1.18.14-1.663.59.483 1.59.52 2.25.086Zm-3.38-2.958c-.66.437-.72 1.18-.14 1.664-.59-.484-1.59-.52-2.25-.084.66-.436.72-1.18.14-1.663.59.483 1.59.52 2.25.083Z"/></svg>